<svg xmlns="http://www.w3.org/2000/svg" xmlns:xlink="http://www.w3.org/1999/xlink" viewBox="0 0 512 512"><defs><style>.cls-1{fill:#f6f7f8;}.cls-2{fill:url(#linear-gradient);}.cls-3{fill:url(#linear-gradient-2);}.cls-4{fill:url(#linear-gradient-3);}.cls-5{fill:url(#linear-gradient-4);}.cls-6{fill:url(#linear-gradient-5);}.cls-7{fill:url(#linear-gradient-6);}.cls-8{fill:url(#linear-gradient-7);}.cls-9{fill:url(#linear-gradient-8);}.cls-10{fill:url(#linear-gradient-9);}.cls-11{fill:url(#linear-gradient-10);}.cls-12{fill:url(#linear-gradient-11);}.cls-13{fill:url(#linear-gradient-12);}.cls-14{fill:url(#linear-gradient-13);}.cls-15{fill:url(#linear-gradient-14);}.cls-16{fill:url(#linear-gradient-15);}.cls-17{fill:url(#linear-gradient-16);}.cls-18{fill:url(#linear-gradient-17);}.cls-19{fill:url(#linear-gradient-18);}.cls-20{fill:url(#linear-gradient-19);}.cls-21{fill:url(#linear-gradient-20);}.cls-22{fill:url(#linear-gradient-21);}.cls-23{fill:url(#linear-gradient-22);}.cls-24{fill:url(#linear-gradient-23);}.cls-25{fill:url(#linear-gradient-24);}.cls-26{fill:url(#linear-gradient-25);}.cls-27{fill:url(#linear-gradient-26);}.cls-28{fill:url(#linear-gradient-27);}.cls-29{fill:url(#linear-gradient-28);}.cls-30{fill:url(#linear-gradient-29);}.cls-31{fill:url(#linear-gradient-30);}.cls-32{fill:url(#linear-gradient-31);}.cls-33{fill:url(#linear-gradient-32);}.cls-34{fill:url(#linear-gradient-33);}.cls-35{fill:url(#linear-gradient-34);}.cls-36{fill:url(#linear-gradient-35);}.cls-37{fill:url(#linear-gradient-36);}.cls-38{fill:url(#linear-gradient-37);}.cls-39{fill:url(#linear-gradient-38);}.cls-40{fill:url(#linear-gradient-39);}.cls-41{fill:url(#linear-gradient-40);}.cls-42{fill:url(#linear-gradient-41);}.cls-43{fill:url(#linear-gradient-42);}.cls-44{fill:url(#linear-gradient-43);}.cls-45{fill:url(#linear-gradient-44);}.cls-46{fill:url(#linear-gradient-45);}.cls-47{fill:url(#linear-gradient-46);}.cls-48{fill:none;}.cls-49{fill:#2a2c64;}.cls-50{fill:#444883;}</style><linearGradient id="linear-gradient" x1="239.97" y1="333.1" x2="71.19" y2="68.76" gradientUnits="userSpaceOnUse"><stop offset="0.12" stop-color="#f6f7f8"/><stop offset="0.98" stop-color="#fff"/></linearGradient><linearGradient id="linear-gradient-2" x1="50.52" y1="454.07" x2="-118.26" y2="189.73" xlink:href="#linear-gradient"/><linearGradient id="linear-gradient-3" x1="51.19" y1="453.64" x2="-117.59" y2="189.3" xlink:href="#linear-gradient"/><linearGradient id="linear-gradient-4" x1="106.88" y1="135.12" x2="3.22" y2="-27.22" xlink:href="#linear-gradient"/><linearGradient id="linear-gradient-5" x1="225.75" y1="342.18" x2="56.97" y2="77.84" xlink:href="#linear-gradient"/><linearGradient id="linear-gradient-6" x1="51.93" y1="453.17" x2="-116.85" y2="188.83" xlink:href="#linear-gradient"/><linearGradient id="linear-gradient-7" x1="162.45" y1="382.6" x2="-6.33" y2="118.26" xlink:href="#linear-gradient"/><linearGradient id="linear-gradient-8" x1="139.23" y1="397.43" x2="-29.56" y2="133.09" xlink:href="#linear-gradient"/><linearGradient id="linear-gradient-9" x1="259.13" y1="320.87" x2="90.34" y2="56.53" xlink:href="#linear-gradient"/><linearGradient id="linear-gradient-10" x1="151.77" y1="389.41" x2="-17.01" y2="125.08" xlink:href="#linear-gradient"/><linearGradient id="linear-gradient-11" x1="145" y1="393.74" x2="-23.78" y2="129.4" xlink:href="#linear-gradient"/><linearGradient id="linear-gradient-12" x1="48.99" y1="455.04" x2="-119.79" y2="190.71" xlink:href="#linear-gradient"/><linearGradient id="linear-gradient-13" x1="148.59" y1="391.45" x2="-20.2" y2="127.11" xlink:href="#linear-gradient"/><linearGradient id="linear-gradient-14" x1="48.65" y1="455.26" x2="-120.13" y2="190.92" xlink:href="#linear-gradient"/><linearGradient id="linear-gradient-15" x1="244.65" y1="330.11" x2="75.87" y2="65.78" xlink:href="#linear-gradient"/><linearGradient id="linear-gradient-16" x1="142.03" y1="395.64" x2="-26.75" y2="131.3" xlink:href="#linear-gradient"/><linearGradient id="linear-gradient-17" x1="49.93" y1="454.44" x2="-118.86" y2="190.11" xlink:href="#linear-gradient"/><linearGradient id="linear-gradient-18" x1="254.4" y1="323.88" x2="85.62" y2="59.55" xlink:href="#linear-gradient"/><linearGradient id="linear-gradient-19" x1="49.42" y1="454.77" x2="-119.36" y2="190.43" xlink:href="#linear-gradient"/><linearGradient id="linear-gradient-20" x1="177.74" y1="372.84" x2="8.96" y2="108.5" xlink:href="#linear-gradient"/><linearGradient id="linear-gradient-21" x1="154.99" y1="387.36" x2="-13.79" y2="123.02" xlink:href="#linear-gradient"/><linearGradient id="linear-gradient-22" x1="194.28" y1="362.28" x2="25.49" y2="97.94" xlink:href="#linear-gradient"/><linearGradient id="linear-gradient-23" x1="221.26" y1="345.05" x2="52.48" y2="80.71" xlink:href="#linear-gradient"/><linearGradient id="linear-gradient-24" x1="59.22" y1="448.51" x2="-109.56" y2="184.17" xlink:href="#linear-gradient"/><linearGradient id="linear-gradient-25" x1="190.21" y1="364.87" x2="21.42" y2="100.54" xlink:href="#linear-gradient"/><linearGradient id="linear-gradient-26" x1="67.4" y1="443.29" x2="-101.39" y2="178.95" xlink:href="#linear-gradient"/><linearGradient id="linear-gradient-27" x1="198.58" y1="359.53" x2="29.79" y2="95.19" xlink:href="#linear-gradient"/><linearGradient id="linear-gradient-28" x1="173.89" y1="375.29" x2="5.11" y2="110.95" xlink:href="#linear-gradient"/><linearGradient id="linear-gradient-29" x1="63.83" y1="445.57" x2="-104.95" y2="181.23" xlink:href="#linear-gradient"/><linearGradient id="linear-gradient-30" x1="181.59" y1="370.38" x2="12.81" y2="106.04" xlink:href="#linear-gradient"/><linearGradient id="linear-gradient-31" x1="48.39" y1="455.43" x2="-120.39" y2="191.09" xlink:href="#linear-gradient"/><linearGradient id="linear-gradient-32" x1="62.2" y1="446.61" x2="-106.58" y2="182.27" xlink:href="#linear-gradient"/><linearGradient id="linear-gradient-33" x1="65.56" y1="444.46" x2="-103.22" y2="180.13" xlink:href="#linear-gradient"/><linearGradient id="linear-gradient-34" x1="60.66" y1="447.59" x2="-108.12" y2="183.25" xlink:href="#linear-gradient"/><linearGradient id="linear-gradient-35" x1="165.95" y1="380.36" x2="-2.83" y2="116.02" xlink:href="#linear-gradient"/><linearGradient id="linear-gradient-36" x1="203.17" y1="356.6" x2="34.39" y2="92.26" xlink:href="#linear-gradient"/><linearGradient id="linear-gradient-37" x1="55.48" y1="450.9" x2="-113.31" y2="186.56" xlink:href="#linear-gradient"/><linearGradient id="linear-gradient-38" x1="54.54" y1="451.5" x2="-114.25" y2="187.17" xlink:href="#linear-gradient"/><linearGradient id="linear-gradient-39" x1="71.71" y1="440.54" x2="-97.08" y2="176.2" xlink:href="#linear-gradient"/><linearGradient id="linear-gradient-40" x1="211.9" y1="351.02" x2="43.12" y2="86.69" xlink:href="#linear-gradient"/><linearGradient id="linear-gradient-41" x1="169.65" y1="378" x2="0.86" y2="113.67" xlink:href="#linear-gradient"/><linearGradient id="linear-gradient-42" x1="57.87" y1="449.37" x2="-110.91" y2="185.04" xlink:href="#linear-gradient"/><linearGradient id="linear-gradient-43" x1="207.55" y1="353.8" x2="38.76" y2="89.46" xlink:href="#linear-gradient"/><linearGradient id="linear-gradient-44" x1="69.36" y1="442.03" x2="-99.42" y2="177.7" xlink:href="#linear-gradient"/><linearGradient id="linear-gradient-45" x1="56.62" y1="450.17" x2="-112.16" y2="185.83" xlink:href="#linear-gradient"/><linearGradient id="linear-gradient-46" x1="169.15" y1="378.32" x2="0.37" y2="113.98" xlink:href="#linear-gradient"/></defs><g id="Layer_1" data-name="Layer 1"><path class="cls-1" d="M21.34,99.46c.67-1.27,1.35-2.53,2.05-3.78C22.69,96.93,22,98.19,21.34,99.46Z"/><path class="cls-1" d="M36.41,75.48q3.26-4.41,6.78-8.62Q39.67,71.08,36.41,75.48Z"/><path class="cls-1" d="M8,131.88c.43-1.42.87-2.83,1.34-4.23C8.89,129.05,8.45,130.46,8,131.88Z"/><path class="cls-1" d="M7.15,377.23c-.25-.91-.5-1.82-.74-2.73C6.65,375.41,6.9,376.32,7.15,377.23Z"/><path class="cls-1" d="M2.32,355.38,2,353.23Z"/><path class="cls-1" d="M.11,332.15c0-.52,0-1,0-1.56C.07,331.11.1,331.63.11,332.15Z"/><path class="cls-1" d="M12.24,392.44c-.39-1-.78-2.05-1.15-3.08C11.46,390.39,11.85,391.42,12.24,392.44Z"/><path class="cls-1" d="M47.38,62Q51.07,57.9,55,54,51.07,57.9,47.38,62Z"/><path class="cls-1" d="M6.47,137.27c.35-1.29.71-2.57,1.09-3.85C7.18,134.7,6.82,136,6.47,137.27Z"/><path class="cls-1" d="M10.84,388.66q-2-5.51-3.61-11.17Q8.87,383.15,10.84,388.66Z"/><path class="cls-1" d="M43.7,66.26q1.52-1.82,3.08-3.57Q45.22,64.44,43.7,66.26Z"/><path class="cls-1" d="M.67,341.74c-.05-.66-.11-1.32-.16-2C.56,340.42.62,341.08.67,341.74Z"/><path class="cls-1" d="M29.92,84.82q1.32-2,2.7-4Q31.24,82.79,29.92,84.82Z"/><path class="cls-1" d="M33.26,79.88q1.31-1.89,2.67-3.75Q34.57,78,33.26,79.88Z"/><path class="cls-1" d="M9.65,126.75q.87-2.58,1.81-5.12Q10.52,124.17,9.65,126.75Z"/><path class="cls-1" d="M26.69,90q1.44-2.39,2.94-4.71Q28.13,87.6,26.69,90Z"/><path class="cls-1" d="M4,364.25c-.16-.75-.3-1.5-.45-2.25C3.65,362.75,3.79,363.5,4,364.25Z"/><path class="cls-1" d="M3.08,359.84c-.13-.73-.26-1.47-.38-2.2C2.82,358.37,3,359.11,3.08,359.84Z"/><path class="cls-1" d="M11.81,120.71q.76-2.07,1.59-4.11Q12.58,118.64,11.81,120.71Z"/><path class="cls-1" d="M6,372.94c-.21-.81-.41-1.62-.61-2.44C5.58,371.32,5.78,372.13,6,372.94Z"/><path class="cls-1" d="M4.92,368.61c-.18-.76-.35-1.54-.52-2.31C4.57,367.07,4.74,367.85,4.92,368.61Z"/><path class="cls-1" d="M24,94.57q1.2-2.13,2.46-4.23Q25.21,92.44,24,94.57Z"/><path class="cls-1" d="M.34,337.05c0-.62-.08-1.24-.11-1.86C.26,335.81.3,336.43.34,337.05Z"/><path class="cls-1" d="M0,186c0-1.88,0-3.74.09-5.6C0,182.29,0,184.15,0,186Z"/><path class="cls-1" d="M72.57,38.61c1.33-1,2.66-2,4-3C75.23,36.59,73.9,37.59,72.57,38.61Z"/><path class="cls-1" d="M19.09,408.12c-.49-1-1-2-1.43-3C18.13,406.14,18.6,407.13,19.09,408.12Z"/><path class="cls-1" d="M63.53,46c2.79-2.45,5.67-4.82,8.61-7.1C69.2,41.22,66.32,43.59,63.53,46Z"/><path class="cls-1" d="M.47,172.93c.1-1.43.21-2.86.35-4.28C.68,170.07.57,171.5.47,172.93Z"/><path class="cls-1" d="M2.63,154.75c.22-1.3.46-2.6.71-3.9C3.09,152.15,2.85,153.45,2.63,154.75Z"/><path class="cls-1" d="M1.11,346.34C1,345.66,1,345,.9,344.28,1,345,1,345.66,1.11,346.34Z"/><path class="cls-1" d="M326,0H186A185.18,185.18,0,0,0,77.13,35.2q4.55-3.29,9.3-6.31a233.19,233.19,0,0,1,114.88,201C201.31,331.06,137,417.15,47,449.52a186.57,186.57,0,0,1-23.7-33.44A186,186,0,0,0,186,512H326c102.74,0,186-83.29,186-186V186C512,83.29,428.71,0,326,0Z"/><path class="cls-1" d="M1.73,160.68c.19-1.4.39-2.81.62-4.2C2.12,157.87,1.92,159.28,1.73,160.68Z"/><path class="cls-1" d="M14,115.22c.53-1.29,1.07-2.57,1.63-3.84C15,112.65,14.5,113.93,14,115.22Z"/><path class="cls-1" d="M21,412c-.53-1-1.05-2-1.56-3C20,409.93,20.51,411,21,412Z"/><path class="cls-1" d="M23.08,415.76c-.59-1.06-1.16-2.12-1.72-3.19C21.92,413.64,22.49,414.7,23.08,415.76Z"/><path class="cls-1" d="M17.23,404.23c-.45-1-.9-2-1.34-2.93C16.33,402.28,16.78,403.26,17.23,404.23Z"/><path class="cls-1" d="M3.63,149.3Q4.71,144,6.07,138.73,4.71,144,3.63,149.3Z"/><path class="cls-1" d="M13.8,396.37c-.41-1-.81-2-1.19-3C13,394.39,13.39,395.38,13.8,396.37Z"/><path class="cls-1" d="M.16,178.72c0-1.33.11-2.65.19-4C.27,176.07.21,177.39.16,178.72Z"/><path class="cls-1" d="M.93,167.39c.18-1.83.39-3.64.62-5.45C1.32,163.75,1.11,165.56.93,167.39Z"/><path class="cls-1" d="M55.09,53.9c1.25-1.24,2.51-2.45,3.8-3.66C57.6,51.45,56.34,52.66,55.09,53.9Z"/><path class="cls-1" d="M15.47,400.32q-.65-1.47-1.26-2.94Q14.83,398.85,15.47,400.32Z"/><path class="cls-1" d="M1.67,350.88c-.1-.7-.19-1.4-.28-2.1C1.48,349.48,1.57,350.18,1.67,350.88Z"/><path class="cls-1" d="M16.1,110.23q2.2-4.94,4.69-9.73Q18.32,105.29,16.1,110.23Z"/><path class="cls-1" d="M59.48,49.69q1.83-1.69,3.71-3.35Q61.32,48,59.48,49.69Z"/><path class="cls-2" d="M58.89,50.24l.59-.55Z"/><path class="cls-3" d="M14.21,397.38l-.41-1Z"/><path class="cls-4" d="M12.61,393.4c-.13-.32-.25-.64-.37-1C12.36,392.76,12.48,393.08,12.61,393.4Z"/><path class="cls-5" d="M55,54l.09-.08Z"/><path class="cls-6" d="M46.78,62.69l.6-.67Z"/><path class="cls-7" d="M11.09,389.36c-.09-.23-.17-.47-.25-.7C10.92,388.89,11,389.13,11.09,389.36Z"/><path class="cls-8" d="M6.07,138.73c.13-.49.27-1,.4-1.46C6.34,137.76,6.2,138.24,6.07,138.73Z"/><path class="cls-9" d="M.09,180.43c0-.57,0-1.14.07-1.71C.13,179.29.11,179.86.09,180.43Z"/><path class="cls-10" d="M76.58,35.6l.55-.4Z"/><path class="cls-11" d="M2.35,156.48c.09-.58.18-1.16.28-1.73C2.53,155.32,2.44,155.9,2.35,156.48Z"/><path class="cls-12" d="M.82,168.65c0-.42.07-.84.11-1.26C.89,167.81.85,168.23.82,168.65Z"/><path class="cls-13" d="M19.48,408.91l-.39-.79Z"/><path class="cls-14" d="M1.55,161.94c.05-.42.12-.84.18-1.26C1.67,161.1,1.6,161.52,1.55,161.94Z"/><path class="cls-15" d="M21.36,412.57,21,412Z"/><path class="cls-16" d="M63.19,46.34l.34-.3Z"/><path class="cls-17" d="M.35,174.75c0-.61.07-1.21.12-1.82C.42,173.54.39,174.14.35,174.75Z"/><path class="cls-18" d="M15.89,401.3l-.42-1Z"/><path class="cls-19" d="M72.14,38.94l.43-.33Z"/><path class="cls-20" d="M17.66,405.15c-.15-.31-.29-.61-.43-.92C17.37,404.54,17.51,404.84,17.66,405.15Z"/><path class="cls-21" d="M13.4,116.6q.28-.7.57-1.38Q13.68,115.9,13.4,116.6Z"/><path class="cls-22" d="M3.34,150.85c.09-.51.19-1,.29-1.55C3.53,149.82,3.43,150.34,3.34,150.85Z"/><path class="cls-23" d="M23.39,95.68c.2-.37.41-.74.62-1.11C23.8,94.94,23.59,95.31,23.39,95.68Z"/><path class="cls-24" d="M43.19,66.86l.51-.6Z"/><path class="cls-25" d="M3.5,362l-.42-2.16Z"/><path class="cls-26" d="M20.79,100.5l.55-1Z"/><path class="cls-27" d="M.51,339.75c-.07-.9-.12-1.8-.17-2.7C.39,338,.44,338.85.51,339.75Z"/><path class="cls-28" d="M26.47,90.34c.08-.12.15-.24.22-.36C26.62,90.1,26.55,90.22,26.47,90.34Z"/><path class="cls-29" d="M11.46,121.63c.11-.31.23-.62.35-.92C11.69,121,11.57,121.32,11.46,121.63Z"/><path class="cls-30" d="M1.39,348.78c-.1-.81-.19-1.63-.28-2.44C1.2,347.15,1.29,348,1.39,348.78Z"/><path class="cls-31" d="M15.6,111.38c.17-.38.33-.77.5-1.15C15.93,110.61,15.77,111,15.6,111.38Z"/><path class="cls-32" d="M23.26,416.08l-.18-.32Z"/><path class="cls-33" d="M2,353.23c-.11-.78-.22-1.56-.32-2.35C1.77,351.67,1.88,352.45,2,353.23Z"/><path class="cls-34" d="M.9,344.28c-.09-.84-.16-1.69-.23-2.54C.74,342.59.81,343.44.9,344.28Z"/><path class="cls-35" d="M2.7,357.64c-.13-.75-.26-1.5-.38-2.26C2.44,356.14,2.57,356.89,2.7,357.64Z"/><path class="cls-36" d="M7.56,133.42c.15-.51.3-1,.46-1.54C7.86,132.39,7.71,132.91,7.56,133.42Z"/><path class="cls-37" d="M29.63,85.27c.1-.15.2-.3.29-.45C29.83,85,29.73,85.12,29.63,85.27Z"/><path class="cls-38" d="M6.41,374.5c-.14-.52-.29-1-.42-1.56C6.12,373.46,6.27,374,6.41,374.5Z"/><path class="cls-39" d="M7.23,377.49a2,2,0,0,0-.08-.26A2,2,0,0,1,7.23,377.49Z"/><path class="cls-40" d="M.06,330.59Q0,328.3,0,326,0,328.29.06,330.59Z"/><path class="cls-41" d="M35.93,76.13l.48-.65Z"/><path class="cls-42" d="M9.36,127.65c.1-.3.19-.6.29-.9C9.55,127.05,9.46,127.35,9.36,127.65Z"/><path class="cls-43" d="M4.4,366.3c-.15-.68-.31-1.37-.45-2.05C4.09,364.93,4.25,365.62,4.4,366.3Z"/><path class="cls-44" d="M32.62,80.8c.21-.31.42-.62.64-.92C33,80.18,32.83,80.49,32.62,80.8Z"/><path class="cls-45" d="M.23,335.19c-.05-1-.08-2-.12-3C.15,333.17.18,334.18.23,335.19Z"/><path class="cls-46" d="M5.38,370.5c-.16-.62-.31-1.25-.46-1.89C5.07,369.25,5.22,369.88,5.38,370.5Z"/><path class="cls-1" d="M201.31,229.93a233.19,233.19,0,0,0-114.88-201q-4.75,3-9.3,6.31l-.55.4c-1.35,1-2.68,2-4,3l-.43.33c-2.94,2.28-5.82,4.65-8.61,7.1l-.34.3Q61.32,48,59.48,49.69l-.59.55c-1.29,1.21-2.55,2.42-3.8,3.66L55,54q-3.93,3.92-7.62,8l-.6.67q-1.56,1.75-3.08,3.57l-.51.6q-3.52,4.22-6.78,8.62l-.48.65Q34.57,78,33.26,79.88c-.22.3-.43.61-.64.92q-1.38,2-2.7,4c-.09.15-.19.3-.29.45Q28.13,87.6,26.69,90c-.07.12-.14.24-.22.36q-1.26,2.1-2.46,4.23c-.21.37-.42.74-.62,1.11-.7,1.25-1.38,2.51-2.05,3.78l-.55,1q-2.47,4.78-4.69,9.73c-.17.38-.33.77-.5,1.15-.56,1.27-1.1,2.55-1.63,3.84q-.29.68-.57,1.38-.83,2-1.59,4.11c-.12.3-.24.61-.35.92q-.95,2.53-1.81,5.12c-.1.3-.19.6-.29.9-.47,1.4-.91,2.81-1.34,4.23-.16.51-.31,1-.46,1.54-.38,1.28-.74,2.56-1.09,3.85-.13.49-.27,1-.4,1.46Q4.71,144,3.63,149.3c-.1.52-.2,1-.29,1.55-.25,1.3-.49,2.6-.71,3.9-.1.57-.19,1.15-.28,1.73-.23,1.39-.43,2.8-.62,4.2-.06.42-.13.84-.18,1.26-.23,1.81-.44,3.62-.62,5.45,0,.42-.08.84-.11,1.26-.14,1.42-.25,2.85-.35,4.28,0,.61-.08,1.21-.12,1.82-.08,1.32-.14,2.64-.19,4,0,.57,0,1.14-.07,1.71C0,182.29,0,184.15,0,186V326q0,2.32.06,4.62c0,.52,0,1,.05,1.56,0,1,.07,2,.12,3,0,.62.07,1.24.11,1.86,0,.9.1,1.8.17,2.7.05.67.11,1.33.16,2,.07.85.14,1.7.23,2.54s.14,1.38.21,2.06.18,1.63.28,2.44.18,1.4.28,2.1.21,1.57.32,2.35l.33,2.15c.12.76.25,1.51.38,2.26s.25,1.47.38,2.2L3.5,362c.15.75.29,1.5.45,2.25s.3,1.37.45,2.05.34,1.55.52,2.31.3,1.27.46,1.89c.2.82.4,1.63.61,2.44.13.52.28,1,.42,1.56.24.91.49,1.82.74,2.73a2,2,0,0,1,.08.26q1.63,5.65,3.61,11.17c.08.23.16.47.25.7.37,1,.76,2.06,1.15,3.08.12.32.24.64.37,1,.38,1,.78,2,1.19,3l.41,1q.61,1.47,1.26,2.94l.42,1c.44,1,.89,2,1.34,2.93.14.31.28.61.43.92.47,1,.94,2,1.43,3l.39.79c.51,1,1,2,1.56,3l.32.61c.56,1.07,1.13,2.13,1.72,3.19l.18.32A186.57,186.57,0,0,0,47,449.52C137,417.15,201.31,331.06,201.31,229.93Z"/><path class="cls-47" d="M201.31,229.93a233.19,233.19,0,0,0-114.88-201q-4.75,3-9.3,6.31l-.55.4c-1.35,1-2.68,2-4,3l-.43.33c-2.94,2.28-5.82,4.65-8.61,7.1l-.34.3Q61.32,48,59.48,49.69l-.59.55c-1.29,1.21-2.55,2.42-3.8,3.66L55,54q-3.93,3.92-7.62,8l-.6.67q-1.56,1.75-3.08,3.57l-.51.6q-3.52,4.22-6.78,8.62l-.48.65Q34.57,78,33.26,79.88c-.22.3-.43.61-.64.92q-1.38,2-2.7,4c-.09.15-.19.3-.29.45Q28.13,87.6,26.69,90c-.07.12-.14.24-.22.36q-1.26,2.1-2.46,4.23c-.21.37-.42.74-.62,1.11-.7,1.25-1.38,2.51-2.05,3.78l-.55,1q-2.47,4.78-4.69,9.73c-.17.38-.33.77-.5,1.15-.56,1.27-1.1,2.55-1.63,3.84q-.29.68-.57,1.38-.83,2-1.59,4.11c-.12.3-.24.61-.35.92q-.95,2.53-1.81,5.12c-.1.3-.19.6-.29.9-.47,1.4-.91,2.81-1.34,4.23-.16.51-.31,1-.46,1.54-.38,1.28-.74,2.56-1.09,3.85-.13.49-.27,1-.4,1.46Q4.71,144,3.63,149.3c-.1.52-.2,1-.29,1.55-.25,1.3-.49,2.6-.71,3.9-.1.57-.19,1.15-.28,1.73-.23,1.39-.43,2.8-.62,4.2-.06.42-.13.84-.18,1.26-.23,1.81-.44,3.62-.62,5.45,0,.42-.08.84-.11,1.26-.14,1.42-.25,2.85-.35,4.28,0,.61-.08,1.21-.12,1.82-.08,1.32-.14,2.64-.19,4,0,.57,0,1.14-.07,1.71C0,182.29,0,184.15,0,186V326q0,2.32.06,4.62c0,.52,0,1,.05,1.56,0,1,.07,2,.12,3,0,.62.07,1.24.11,1.86,0,.9.1,1.8.17,2.7.05.67.11,1.33.16,2,.07.85.14,1.7.23,2.54s.14,1.38.21,2.06.18,1.63.28,2.44.18,1.4.28,2.1.21,1.57.32,2.35l.33,2.15c.12.76.25,1.51.38,2.26s.25,1.47.38,2.2L3.5,362c.15.75.29,1.5.45,2.25s.3,1.37.45,2.05.34,1.55.52,2.31.3,1.27.46,1.89c.2.82.4,1.63.61,2.44.13.52.28,1,.42,1.56.24.91.49,1.82.74,2.73a2,2,0,0,1,.08.26q1.63,5.65,3.61,11.17c.08.23.16.47.25.7.37,1,.76,2.06,1.15,3.08.12.32.24.64.37,1,.38,1,.78,2,1.19,3l.41,1q.61,1.47,1.26,2.94l.42,1c.44,1,.89,2,1.34,2.93.14.31.28.61.43.92.47,1,.94,2,1.43,3l.39.79c.51,1,1,2,1.56,3l.32.61c.56,1.07,1.13,2.13,1.72,3.19l.18.32A186.57,186.57,0,0,0,47,449.52C137,417.15,201.31,331.06,201.31,229.93Z"/><path class="cls-48" d="M256.06,167c8.65.32,16.66-7.65,16.8-16.71.16-9.54-6.83-17.1-16-17.29-.3,0-.59,0-.89,0v34Z"/><path class="cls-48" d="M239.89,149.53c-.17,9.14,7.19,17.12,16.11,17.48V133A17,17,0,0,0,239.89,149.53Z"/><path class="cls-49" d="M390.93,314c-2.88-18.94-5.91-37.87-9.31-56.73-1.57-8.68-11.49-12.35-18.07-6.41q-22,19.85-43,40.78c-5.49,5.48-3.2,14.15,3.85,17.5,3.43,1.63,7.1,2.77,10.58,4.1-5.16,24.75-36.73,52.19-62.47,54.47a34.68,34.68,0,0,1-.38-3.8c0-57.18-.1-114.36.2-171.54,0-2.72,2.76-6.31,5.25-8C293,174,300,156.11,294.91,138.87c-5.32-18-20.26-29.25-38.91-29.28V133c.3,0,.59,0,.89,0,9.14.19,16.13,7.75,16,17.29-.14,9.06-8.15,17-16.8,16.71H256v235.4h.2c54.45-.22,90.21-29.87,110.51-79.23,3.74,1.17,6.88,2.5,10.16,3.09C384.85,327.71,392.07,321.51,390.93,314Z"/><path class="cls-50" d="M239.89,149.53A17,17,0,0,1,256,133V109.59h-.4a40.45,40.45,0,0,0-38.41,29.66,39.74,39.74,0,0,0,18.37,44.92c4.63,2.73,5.5,5.83,5.48,10.6q-.18,82.65-.09,165.3c0,2.71-.26,5.41-.4,8.15C212.22,365,180.67,338,175.92,313.08c2.82-.91,5.75-1.75,8.61-2.79,9.61-3.51,11.81-13.06,4.4-20.22-13.09-12.64-26.16-25.31-39.79-37.34-3-2.64-9-4.54-12.34-3.35s-6.62,6.41-7.43,10.38c-2.92,14.19-4.51,28.64-7.1,42.91-4.06,22.4.67,27,22.54,20.84,20.81,49.86,56.75,79.05,111.19,78.9V167C247.08,166.65,239.72,158.67,239.89,149.53Z"/></g></svg>