<svg xmlns="http://www.w3.org/2000/svg" xmlns:xlink="http://www.w3.org/1999/xlink" viewBox="0 0 512 512"><defs><style>.cls-1{fill:#f6f7f8;}.cls-2{fill:url(#linear-gradient);}.cls-3{fill:#e1e4e8;}.cls-4{fill:#fff;}.cls-5{fill:#2a2c64;}.cls-6{fill:#f7941d;}.cls-7{fill:#48b4a9;}.cls-8{fill:#d1d2d3;}</style><linearGradient id="linear-gradient" x1="169.15" y1="378.32" x2="0.37" y2="113.98" gradientUnits="userSpaceOnUse"><stop offset="0.12" stop-color="#f6f7f8"/><stop offset="0.98" stop-color="#fff"/></linearGradient></defs><g id="Layer_1" data-name="Layer 1"><rect class="cls-1" width="512" height="512" rx="186.03"/><path class="cls-2" d="M201.31,229.93a233.19,233.19,0,0,0-114.88-201A185.89,185.89,0,0,0,0,186V326A185.34,185.34,0,0,0,47,449.52C137,417.15,201.31,331.06,201.31,229.93Z"/><rect class="cls-3" x="146.2" y="126.8" width="219.6" height="271.91"/><rect class="cls-4" x="160.8" y="140.48" width="190.39" height="244.54"/><path class="cls-4" d="M290.68,113.29h-67.3c-10,0-20.66,5.95-22.77,18.9H313.45C311.34,119.24,300.67,113.29,290.68,113.29Z"/><path class="cls-5" d="M370.91,117.26H317.57c-6.22-8.92-16.59-13.51-26.89-13.51h-67.3c-10.3,0-20.67,4.59-26.89,13.51h-55.4a4.43,4.43,0,0,0-4.43,4.44V403.81a4.43,4.43,0,0,0,4.43,4.44H370.91a4.43,4.43,0,0,0,4.43-4.44V121.7A4.43,4.43,0,0,0,370.91,117.26Zm-147.53-4h67.3c10,0,20.66,5.95,22.77,18.9H200.61C202.72,119.24,213.39,113.29,223.38,113.29ZM365.8,398.71H146.2V126.8H192A37.73,37.73,0,0,0,190.7,137v.62a4.15,4.15,0,0,0,4.15,4.15H319.21a4.15,4.15,0,0,0,4.15-4.15V137A37.73,37.73,0,0,0,322,126.8H365.8Z"/><path class="cls-6" d="M218.25,284.16h9.86q9.13,0,12.85,1.58a15.35,15.35,0,0,1,7,5.46,14.38,14.38,0,0,1,2.36,8.27,15.31,15.31,0,0,1-3.5,10.13q-3.51,4.23-10.59,5.88l12.36,25.45h-11l-12.12-24.77h-.87l-3.41,24.77H210.49Zm7.58,22.69q8.65,0,11.27-1.79a5.93,5.93,0,0,0,2.61-5.27,5.31,5.31,0,0,0-1.05-3.36,5.55,5.55,0,0,0-3-1.89,37.58,37.58,0,0,0-8-.54Z"/><path class="cls-6" d="M263,356.29H252.74l7.84-57.35h10.13l-.61,4.55a21.64,21.64,0,0,1,6.21-4.41,16.59,16.59,0,0,1,6.48-1.22A15.9,15.9,0,0,1,296,304a22.28,22.28,0,0,1,4.86,14.24,24.13,24.13,0,0,1-3.12,11.85,23,23,0,0,1-8.38,8.78,21,21,0,0,1-11,3.14,14.75,14.75,0,0,1-7.13-1.77,14.06,14.06,0,0,1-5.35-5.16ZM280.29,307a12.23,12.23,0,0,0-6.52,1.72,13.24,13.24,0,0,0-4.7,5.35,16,16,0,0,0-1.89,7.43,11.18,11.18,0,0,0,2.85,8,9.85,9.85,0,0,0,7.51,3,12.16,12.16,0,0,0,9.22-4A14.72,14.72,0,0,0,290.54,318a11.12,11.12,0,0,0-2.87-8A9.7,9.7,0,0,0,280.29,307Z"/><path class="cls-6" d="M313.2,329.05a6.45,6.45,0,1,1-4.6,1.89A6.27,6.27,0,0,1,313.2,329.05Z"/><path class="cls-7" d="M204.59,205l-17.18-17.18a7.15,7.15,0,0,1,10.11-10.12l7.07,7.06,29.55-29.56a7.16,7.16,0,0,1,10.12,10.12Z"/><rect class="cls-8" x="259.29" y="175.09" width="70.66" height="12.53"/><path class="cls-7" d="M204.59,264.69l-17.18-17.18a7.15,7.15,0,0,1,10.11-10.12l7.07,7.06,29.55-29.56A7.16,7.16,0,0,1,244.26,225Z"/><rect class="cls-8" x="259.29" y="234.82" width="70.66" height="12.53"/></g></svg>