<svg xmlns="http://www.w3.org/2000/svg" xmlns:xlink="http://www.w3.org/1999/xlink" viewBox="0 0 512 512"><defs><style>.cls-1{fill:#f6f7f8;}.cls-2{fill:url(#linear-gradient);}.cls-3{fill:#d1d2d3;}.cls-4{fill:#ddd;}.cls-5{fill:#ffc71c;}.cls-6{fill:#eba22f;}.cls-7{fill:#fff;}.cls-8{fill:#2a2c64;}</style><linearGradient id="linear-gradient" x1="169.15" y1="378.32" x2="0.37" y2="113.98" gradientUnits="userSpaceOnUse"><stop offset="0.12" stop-color="#f6f7f8"/><stop offset="0.98" stop-color="#fff"/></linearGradient></defs><g id="Layer_1" data-name="Layer 1"><rect class="cls-1" width="512" height="512" rx="186.03"/><path class="cls-2" d="M201.31,229.93a233.19,233.19,0,0,0-114.88-201A185.89,185.89,0,0,0,0,186V326A185.34,185.34,0,0,0,47,449.52C137,417.15,201.31,331.06,201.31,229.93Z"/><path class="cls-3" d="M130.11,164.48A33.3,33.3,0,0,0,155,109.11L107.5,155.62A33.16,33.16,0,0,0,130.11,164.48Z"/><path class="cls-4" d="M130.11,97.88a33.29,33.29,0,0,0-22.61,57.74L155,109.11A33.19,33.19,0,0,0,130.11,97.88Z"/><path class="cls-3" d="M382,164.48a33.29,33.29,0,0,0,24.92-55.37l-47.53,46.51A33.16,33.16,0,0,0,382,164.48Z"/><path class="cls-4" d="M382,97.88a33.29,33.29,0,0,0-22.61,57.74l47.53-46.51A33.18,33.18,0,0,0,382,97.88Z"/><path class="cls-3" d="M130.11,415.06A33.3,33.3,0,0,0,155,359.69L107.5,406.2A33.16,33.16,0,0,0,130.11,415.06Z"/><path class="cls-4" d="M130.11,348.46A33.29,33.29,0,0,0,107.5,406.2L155,359.69A33.22,33.22,0,0,0,130.11,348.46Z"/><path class="cls-3" d="M382,415.06a33.29,33.29,0,0,0,24.92-55.37L359.34,406.2A33.16,33.16,0,0,0,382,415.06Z"/><path class="cls-4" d="M382,348.46a33.29,33.29,0,0,0-22.61,57.74l47.53-46.51A33.22,33.22,0,0,0,382,348.46Z"/><polygon class="cls-5" points="256.03 151.66 196.2 151.66 196.2 319.21 315.87 151.66 256.03 151.66"/><polygon class="cls-6" points="315.87 339.17 315.87 151.66 196.2 319.21 196.2 339.17 179.33 339.17 179.33 360.34 196.2 360.34 256.03 360.34 315.87 360.34 332.73 360.34 332.73 339.17 315.87 339.17"/><polygon class="cls-7" points="256.03 289.4 223.81 289.4 223.81 300.83 239.36 300.83 239.36 339.17 256.03 339.17 272.7 339.17 272.7 300.83 288.25 300.83 288.25 289.4 256.03 289.4"/><rect class="cls-7" x="217.21" y="173.58" width="11.43" height="11.43"/><rect class="cls-7" x="239.24" y="173.58" width="11.43" height="11.43"/><rect class="cls-7" x="261.27" y="173.58" width="11.43" height="11.43"/><rect class="cls-7" x="283.3" y="173.58" width="11.43" height="11.43"/><rect class="cls-7" x="217.21" y="195.95" width="11.43" height="11.43"/><rect class="cls-7" x="239.24" y="195.95" width="11.43" height="11.43"/><rect class="cls-7" x="261.27" y="195.95" width="11.43" height="11.43"/><rect class="cls-7" x="283.3" y="195.95" width="11.43" height="11.43"/><rect class="cls-7" x="217.21" y="218.33" width="11.43" height="11.43"/><rect class="cls-7" x="239.24" y="218.33" width="11.43" height="11.43"/><rect class="cls-7" x="261.27" y="218.33" width="11.43" height="11.43"/><rect class="cls-7" x="283.3" y="218.33" width="11.43" height="11.43"/><rect class="cls-7" x="217.21" y="240.7" width="11.43" height="11.43"/><rect class="cls-7" x="239.24" y="240.7" width="11.43" height="11.43"/><rect class="cls-7" x="261.27" y="240.7" width="11.43" height="11.43"/><rect class="cls-7" x="283.3" y="240.7" width="11.43" height="11.43"/><rect class="cls-7" x="217.21" y="263.07" width="11.43" height="11.43"/><rect class="cls-7" x="239.24" y="263.07" width="11.43" height="11.43"/><rect class="cls-7" x="261.27" y="263.07" width="11.43" height="11.43"/><rect class="cls-7" x="283.3" y="263.07" width="11.43" height="11.43"/><polygon class="cls-8" points="196.2 251.36 110.15 251.36 124.21 238.29 116.73 230.82 88.98 256.62 115.54 281.32 123.02 273.85 110.17 261.91 196.2 261.91 196.2 251.36"/><polygon class="cls-8" points="135.85 201.21 135.85 177.17 147.06 189.24 154.53 181.77 130.58 156.01 105.35 183.14 112.82 190.62 125.3 177.19 125.3 211.77 196.2 211.77 196.2 201.21 135.85 201.21"/><polygon class="cls-8" points="135.85 311.97 135.85 336.01 147.06 323.94 154.53 331.41 130.58 357.17 105.35 330.04 112.82 322.56 125.3 335.98 125.3 301.41 196.2 301.41 196.2 311.97 135.85 311.97"/><polygon class="cls-8" points="315.8 251.36 401.85 251.36 387.79 238.29 395.26 230.82 423.02 256.62 396.46 281.32 388.98 273.85 401.83 261.91 315.8 261.91 315.8 251.36"/><polygon class="cls-8" points="376.15 201.21 376.15 177.17 364.94 189.24 357.47 181.77 381.42 156.01 406.65 183.14 399.18 190.62 386.7 177.19 386.7 211.77 315.8 211.77 315.8 201.21 376.15 201.21"/><polygon class="cls-8" points="376.15 311.97 376.15 336.01 364.94 323.94 357.47 331.41 381.42 357.17 406.65 330.04 399.18 322.56 386.7 335.98 386.7 301.41 315.8 301.41 315.8 311.97 376.15 311.97"/><polygon class="cls-8" points="250.8 109.91 250.8 151.66 256.03 151.66 261.35 151.66 261.35 109.93 273.29 122.77 280.76 115.3 256.06 88.74 230.26 116.49 237.73 123.96 250.8 109.91"/><polygon class="cls-8" points="260.23 402.1 260.23 360.34 254.99 360.34 249.67 360.34 249.67 402.07 237.73 389.23 230.26 396.7 254.96 423.26 280.76 395.51 273.29 388.04 260.23 402.1"/></g></svg>