<svg xmlns="http://www.w3.org/2000/svg" xmlns:xlink="http://www.w3.org/1999/xlink" viewBox="0 0 512 512"><defs><style>.cls-1{fill:#f6f7f8;}.cls-2{fill:url(#linear-gradient);}.cls-3{fill:#2a2c64;}.cls-4{fill:#f7941d;}.cls-5{fill:#606161;}.cls-6{fill:#444883;}</style><linearGradient id="linear-gradient" x1="169.15" y1="378.32" x2="0.37" y2="113.98" gradientUnits="userSpaceOnUse"><stop offset="0.12" stop-color="#f6f7f8"/><stop offset="0.98" stop-color="#fff"/></linearGradient></defs><g id="Layer_1" data-name="Layer 1"><rect class="cls-1" width="512" height="512" rx="186.03"/><path class="cls-2" d="M201.31,229.93a233.19,233.19,0,0,0-114.88-201A185.89,185.89,0,0,0,0,186V326A185.34,185.34,0,0,0,47,449.52C137,417.15,201.31,331.06,201.31,229.93Z"/><polygon class="cls-3" points="175.46 130.55 317.79 96.13 317.79 415.87 175.46 380.12 175.46 130.55"/><circle class="cls-4" cx="294.7" cy="254.79" r="13.79"/><polygon class="cls-5" points="184.95 390.35 169.87 390.35 169.87 119.23 189.73 119.23 245.69 105.69 156.34 105.69 156.34 403.88 238.84 403.88 184.95 390.35"/><polygon class="cls-5" points="326.39 105.69 326.39 119.23 342.13 119.23 342.13 390.35 326.39 390.35 326.39 403.88 355.67 403.88 355.67 105.69 326.39 105.69"/><polygon class="cls-6" points="231.06 394.09 270.12 403.9 270.12 107.66 231.06 117.11 231.06 394.09"/></g></svg>