<svg xmlns="http://www.w3.org/2000/svg" xmlns:xlink="http://www.w3.org/1999/xlink" viewBox="0 0 512 512"><defs><style>.cls-1{fill:#f6f7f8;}.cls-2{fill:url(#linear-gradient);}.cls-3{fill:#f7941d;}.cls-4{fill:#ffc71c;}.cls-5{fill:#2a2c64;}.cls-6{fill:#48b4a9;}.cls-7{fill:#d1d2d3;}.cls-8{fill:#eb6d5f;}.cls-9{fill:#444883;}.cls-10{fill:#ddd;}.cls-11{fill:#d2d2d1;}</style><linearGradient id="linear-gradient" x1="169.15" y1="378.32" x2="0.37" y2="113.98" gradientUnits="userSpaceOnUse"><stop offset="0.12" stop-color="#f6f7f8"/><stop offset="0.98" stop-color="#fff"/></linearGradient></defs><g id="Layer_1" data-name="Layer 1"><rect class="cls-1" width="512" height="512" rx="186.03"/><path class="cls-2" d="M201.31,229.93a233.19,233.19,0,0,0-114.88-201A185.89,185.89,0,0,0,0,186V326A185.34,185.34,0,0,0,47,449.52C137,417.15,201.31,331.06,201.31,229.93Z"/><path class="cls-3" d="M256,266.18a57.88,57.88,0,1,1,0-115.75A7.77,7.77,0,1,1,256,166a42.35,42.35,0,1,0,0,84.69,7.77,7.77,0,1,1,0,15.53Z"/><path class="cls-4" d="M256,298.89a90.59,90.59,0,1,1,73.76-143.14,7.76,7.76,0,0,1-12.64,9A75,75,0,1,0,256,283.36a7.77,7.77,0,1,1,0,15.53Z"/><path class="cls-5" d="M256,331.54A123.24,123.24,0,1,1,379.24,208.31c0,1.31,0,2.62-.07,3.93a7.76,7.76,0,1,1-15.52-.5c0-1.14.06-2.28.06-3.43A107.71,107.71,0,1,0,256,316a7.77,7.77,0,1,1,0,15.53Z"/><rect class="cls-6" x="132.76" y="347.85" width="187.55" height="15.53"/><rect class="cls-7" x="320.31" y="347.85" width="58.93" height="15.53"/><rect class="cls-8" x="132.76" y="379.63" width="131" height="15.53"/><rect class="cls-7" x="263.77" y="379.63" width="115.47" height="15.53"/><rect class="cls-9" x="132.76" y="411.4" width="166.57" height="15.53"/><rect class="cls-7" x="299.33" y="411.4" width="79.91" height="15.53"/><polygon class="cls-10" points="346.69 250.65 335.51 266.18 340.73 266.18 351.9 250.65 346.69 250.65"/><polygon class="cls-10" points="321.64 250.65 310.47 266.18 315.68 266.18 326.86 250.65 321.64 250.65"/><polygon class="cls-10" points="355.03 250.65 343.86 266.18 349.07 266.18 360.25 250.65 355.03 250.65"/><polygon class="cls-10" points="296.6 250.65 285.42 266.18 290.64 266.18 301.82 250.65 296.6 250.65"/><polygon class="cls-10" points="329.99 250.65 318.81 266.18 324.03 266.18 335.21 250.65 329.99 250.65"/><polygon class="cls-10" points="313.29 250.65 302.12 266.18 307.34 266.18 318.51 250.65 313.29 250.65"/><polygon class="cls-10" points="338.34 250.65 327.16 266.18 332.38 266.18 343.56 250.65 338.34 250.65"/><polygon class="cls-10" points="288.25 250.65 279.32 263.06 279.32 266.18 282.29 266.18 293.47 250.65 288.25 250.65"/><polygon class="cls-10" points="304.95 250.65 293.77 266.18 298.99 266.18 310.16 250.65 304.95 250.65"/><polygon class="cls-10" points="379.24 251.82 368.9 266.18 374.12 266.18 379.24 259.07 379.24 251.82"/><polygon class="cls-10" points="279.32 250.65 279.32 258.7 285.12 250.65 279.32 250.65"/><polygon class="cls-10" points="371.73 250.65 360.55 266.18 365.77 266.18 376.95 250.65 371.73 250.65"/><polygon class="cls-10" points="363.38 250.65 352.21 266.18 357.42 266.18 368.6 250.65 363.38 250.65"/><polygon class="cls-10" points="377.25 266.18 379.24 266.18 379.24 263.42 377.25 266.18"/><polygon class="cls-11" points="285.12 250.65 279.32 258.7 279.32 263.06 288.25 250.65 285.12 250.65"/><polygon class="cls-11" points="293.47 250.65 282.29 266.18 285.42 266.18 296.6 250.65 293.47 250.65"/><polygon class="cls-11" points="301.82 250.65 290.64 266.18 293.77 266.18 304.95 250.65 301.82 250.65"/><polygon class="cls-11" points="310.16 250.65 298.99 266.18 302.12 266.18 313.29 250.65 310.16 250.65"/><polygon class="cls-11" points="318.51 250.65 307.34 266.18 310.47 266.18 321.64 250.65 318.51 250.65"/><polygon class="cls-11" points="326.86 250.65 315.68 266.18 318.81 266.18 329.99 250.65 326.86 250.65"/><polygon class="cls-11" points="335.21 250.65 324.03 266.18 327.16 266.18 338.34 250.65 335.21 250.65"/><polygon class="cls-11" points="343.56 250.65 332.38 266.18 335.51 266.18 346.69 250.65 343.56 250.65"/><polygon class="cls-11" points="351.9 250.65 340.73 266.18 343.86 266.18 355.03 250.65 351.9 250.65"/><polygon class="cls-11" points="360.25 250.65 349.07 266.18 352.21 266.18 363.38 250.65 360.25 250.65"/><polygon class="cls-11" points="368.6 250.65 357.42 266.18 360.55 266.18 371.73 250.65 368.6 250.65"/><polygon class="cls-11" points="379.24 250.65 376.95 250.65 365.77 266.18 368.9 266.18 379.24 251.82 379.24 250.65"/><polygon class="cls-11" points="379.24 259.07 374.12 266.18 377.25 266.18 379.24 263.42 379.24 259.07"/><polygon class="cls-10" points="346.69 316.07 335.51 331.6 340.73 331.6 351.9 316.07 346.69 316.07"/><polygon class="cls-10" points="321.64 316.07 310.47 331.6 315.68 331.6 326.86 316.07 321.64 316.07"/><polygon class="cls-10" points="296.6 316.07 285.42 331.6 290.64 331.6 301.82 316.07 296.6 316.07"/><polygon class="cls-10" points="329.99 316.07 318.81 331.6 324.03 331.6 335.21 316.07 329.99 316.07"/><polygon class="cls-10" points="313.29 316.07 302.12 331.6 307.34 331.6 318.51 316.07 313.29 316.07"/><polygon class="cls-10" points="338.34 316.07 327.16 331.6 332.38 331.6 343.56 316.07 338.34 316.07"/><polygon class="cls-10" points="288.25 316.07 279.32 328.48 279.32 331.6 282.29 331.6 293.47 316.07 288.25 316.07"/><polygon class="cls-10" points="304.95 316.07 293.77 331.6 298.99 331.6 310.16 316.07 304.95 316.07"/><polygon class="cls-10" points="279.32 316.07 279.32 324.13 285.12 316.07 279.32 316.07"/><polygon class="cls-11" points="285.12 316.07 279.32 324.13 279.32 328.48 288.25 316.07 285.12 316.07"/><polygon class="cls-11" points="293.47 316.07 282.29 331.6 285.42 331.6 296.6 316.07 293.47 316.07"/><polygon class="cls-11" points="301.82 316.07 290.64 331.6 293.77 331.6 304.95 316.07 301.82 316.07"/><polygon class="cls-11" points="310.16 316.07 298.99 331.6 302.12 331.6 313.29 316.07 310.16 316.07"/><polygon class="cls-11" points="318.51 316.07 307.34 331.6 310.47 331.6 321.64 316.07 318.51 316.07"/><polygon class="cls-11" points="326.86 316.07 315.68 331.6 318.81 331.6 329.99 316.07 326.86 316.07"/><polygon class="cls-11" points="335.21 316.07 324.03 331.6 327.16 331.6 338.34 316.07 335.21 316.07"/><polygon class="cls-11" points="343.56 316.07 332.38 331.6 335.51 331.6 346.69 316.07 343.56 316.07"/><polygon class="cls-11" points="351.9 316.07 340.73 331.6 343.86 331.6 355.03 316.07 351.9 316.07"/><polygon class="cls-10" points="355.03 327.67 352.21 331.6 355.03 331.6 355.03 327.67"/><polygon class="cls-11" points="355.03 323.32 349.07 331.6 352.21 331.6 355.03 327.67 355.03 323.32"/><polygon class="cls-10" points="355.03 316.07 343.86 331.6 349.07 331.6 355.03 323.32 355.03 316.07"/><polygon class="cls-10" points="321.64 283.36 310.47 298.89 315.68 298.89 326.86 283.36 321.64 283.36"/><polygon class="cls-10" points="296.6 283.36 285.42 298.89 290.64 298.89 301.82 283.36 296.6 283.36"/><polygon class="cls-10" points="329.99 283.36 318.81 298.89 324.03 298.89 335.21 283.36 329.99 283.36"/><polygon class="cls-10" points="313.29 283.36 302.12 298.89 307.34 298.89 318.51 283.36 313.29 283.36"/><polygon class="cls-10" points="288.25 283.36 279.32 295.77 279.32 298.89 282.29 298.89 293.47 283.36 288.25 283.36"/><polygon class="cls-10" points="304.95 283.36 293.77 298.89 298.99 298.89 310.16 283.36 304.95 283.36"/><polygon class="cls-10" points="279.32 283.36 279.32 291.42 285.12 283.36 279.32 283.36"/><polygon class="cls-11" points="285.12 283.36 279.32 291.42 279.32 295.77 288.25 283.36 285.12 283.36"/><polygon class="cls-11" points="293.47 283.36 282.29 298.89 285.42 298.89 296.6 283.36 293.47 283.36"/><polygon class="cls-11" points="301.82 283.36 290.64 298.89 293.77 298.89 304.95 283.36 301.82 283.36"/><polygon class="cls-11" points="310.16 283.36 298.99 298.89 302.12 298.89 313.29 283.36 310.16 283.36"/><polygon class="cls-11" points="318.51 283.36 307.34 298.89 310.47 298.89 321.64 283.36 318.51 283.36"/><polygon class="cls-11" points="326.86 283.36 315.68 298.89 318.81 298.89 329.99 283.36 326.86 283.36"/><polygon class="cls-10" points="335.21 287.71 327.16 298.89 332.38 298.89 335.21 294.96 335.21 287.71"/><polygon class="cls-11" points="335.21 294.96 332.38 298.89 335.21 298.89 335.21 294.96"/><polygon class="cls-11" points="335.21 283.36 324.03 298.89 327.16 298.89 335.21 287.71 335.21 283.36"/></g></svg>