<svg xmlns="http://www.w3.org/2000/svg" xmlns:xlink="http://www.w3.org/1999/xlink" viewBox="0 0 512 512"><defs><style>.cls-1{fill:#f6f7f8;}.cls-2{fill:url(#linear-gradient);}.cls-3{fill:#444883;}.cls-4{fill:#2a2c64;}.cls-5{fill:#eba22f;}.cls-6{fill:#df9226;}.cls-7{fill:#fde186;}.cls-8{fill:#ffc71c;}.cls-9{fill:#d1d2d3;}.cls-10{fill:#fff;}</style><linearGradient id="linear-gradient" x1="169.15" y1="378.32" x2="0.37" y2="113.98" gradientUnits="userSpaceOnUse"><stop offset="0.12" stop-color="#f6f7f8"/><stop offset="0.98" stop-color="#fff"/></linearGradient></defs><g id="Layer_1" data-name="Layer 1"><rect class="cls-1" width="512" height="512" rx="186.03"/><path class="cls-2" d="M201.31,229.93a233.19,233.19,0,0,0-114.88-201A185.89,185.89,0,0,0,0,186V326A185.34,185.34,0,0,0,47,449.52C137,417.15,201.31,331.06,201.31,229.93Z"/><path class="cls-3" d="M251.5,196.12v31.77H169.27A22.29,22.29,0,0,0,147,250.15V288.6h9V250.15a13.28,13.28,0,0,1,13.26-13.27H251.5v48.7H256V196.12Z"/><path class="cls-4" d="M341.5,227.89h-81V196.12H256v89.46h4.5v-48.7h81a13.29,13.29,0,0,1,13.27,13.27V288.6h9V250.15A22.29,22.29,0,0,0,341.5,227.89Z"/><path class="cls-5" d="M229.47,157.58A26.53,26.53,0,0,1,256,131.05V115.7a41.89,41.89,0,1,0,0,83.77V184.11A26.53,26.53,0,0,1,229.47,157.58Z"/><path class="cls-6" d="M256,115.7v15.35a26.53,26.53,0,0,1,0,53.06v15.36a41.89,41.89,0,1,0,0-83.77Z"/><path class="cls-7" d="M229.47,157.58A26.53,26.53,0,0,0,256,184.11V131.05A26.53,26.53,0,0,0,229.47,157.58Z"/><path class="cls-8" d="M282.53,157.58A26.53,26.53,0,0,0,256,131.05v53.06A26.53,26.53,0,0,0,282.53,157.58Z"/><path class="cls-9" d="M256,283.15v8.91a22,22,0,0,1,0,44V345a30.92,30.92,0,0,0,0-61.83Z"/><path class="cls-10" d="M234,314.07a22,22,0,0,1,22-22v-8.91A30.92,30.92,0,0,0,256,345v-8.91A22,22,0,0,1,234,314.07Z"/><path class="cls-5" d="M278,314.07a22,22,0,0,0-22-22v44A22,22,0,0,0,278,314.07Z"/><path class="cls-8" d="M234,314.07a22,22,0,0,0,22,22v-44A22,22,0,0,0,234,314.07Z"/><path class="cls-9" d="M361.55,283.15v8.91a22,22,0,1,1,0,44V345a30.92,30.92,0,0,0,0-61.83Z"/><path class="cls-10" d="M339.55,314.07a22,22,0,0,1,22-22v-8.91a30.92,30.92,0,0,0,0,61.83v-8.91A22,22,0,0,1,339.55,314.07Z"/><path class="cls-5" d="M383.56,314.07a22,22,0,0,0-22-22v44A22,22,0,0,0,383.56,314.07Z"/><path class="cls-8" d="M339.55,314.07a22,22,0,0,0,22,22v-44A22,22,0,0,0,339.55,314.07Z"/><path class="cls-9" d="M150.45,283.15v8.91a22,22,0,0,1,0,44V345a30.92,30.92,0,0,0,0-61.83Z"/><path class="cls-10" d="M128.44,314.07a22,22,0,0,1,22-22v-8.91a30.92,30.92,0,0,0,0,61.83v-8.91A22,22,0,0,1,128.44,314.07Z"/><path class="cls-5" d="M172.45,314.07a22,22,0,0,0-22-22v44A22,22,0,0,0,172.45,314.07Z"/><path class="cls-8" d="M128.44,314.07a22,22,0,0,0,22,22v-44A22,22,0,0,0,128.44,314.07Z"/><polygon class="cls-3" points="256 373.82 256 376.39 256 378.96 328.13 378.96 328.13 373.82 256 373.82"/><polygon class="cls-8" points="183.87 373.82 183.87 376.39 183.87 378.96 256 378.96 256 376.39 256 373.82 183.87 373.82"/><polygon class="cls-4" points="183.87 397.95 183.87 400.52 183.87 403.09 256 403.09 256 400.52 256 397.95 183.87 397.95"/><polygon class="cls-8" points="256 397.95 256 400.52 256 403.09 328.13 403.09 328.13 397.95 256 397.95"/></g></svg>