<svg xmlns="http://www.w3.org/2000/svg" xmlns:xlink="http://www.w3.org/1999/xlink" viewBox="0 0 512 512"><defs><style>.cls-1{fill:#f6f7f8;}.cls-2{fill:url(#linear-gradient);}.cls-3{fill:#eba22f;}.cls-4{fill:#df9226;}.cls-5{fill:#ffc71c;}.cls-6{fill:#2a2c64;}.cls-7{fill:none;}.cls-8{fill:#444883;}.cls-9{fill:#fff;}.cls-10{fill:#d1d2d3;}</style><linearGradient id="linear-gradient" x1="169.15" y1="378.32" x2="0.37" y2="113.98" gradientUnits="userSpaceOnUse"><stop offset="0.12" stop-color="#f6f7f8"/><stop offset="0.98" stop-color="#fff"/></linearGradient></defs><g id="Layer_1" data-name="Layer 1"><rect class="cls-1" width="512" height="512" rx="186.03"/><path class="cls-2" d="M201.31,229.93a233.19,233.19,0,0,0-114.88-201A185.89,185.89,0,0,0,0,186V326A185.34,185.34,0,0,0,47,449.52C137,417.15,201.31,331.06,201.31,229.93Z"/><path class="cls-3" d="M173.51,269.87c-4.26-2.61-8.11-5.13-12.11-7.37-8.51-4.75-17.31-4.14-26.24-1.21A125.8,125.8,0,0,0,107,275.07c-1,.61-2,1.14-3.49,2a20.48,20.48,0,0,1,.89-2.2c10.12-17.12,21.22-33.51,35.86-47.2,11.9-11.13,25.29-19.83,41.09-24.51,9.39-2.78,18.6-1.58,27.79.93a7.86,7.86,0,0,1,1.46.82C197.34,226.18,183.83,247.17,173.51,269.87Z"/><path class="cls-4" d="M234.44,407.29c1-1.82,1.84-3.33,2.72-4.78,6.44-10.53,11.89-21.5,14.63-33.64,1.92-8.46-.9-15.86-5.23-22.89a59.44,59.44,0,0,0-4-5.49c-1-1.24-.79-2.11.53-2.84,2.92-1.62,5.78-3.35,8.76-4.86A443.37,443.37,0,0,0,301,303.49c.53-.35,1.05-.71,1.58-1.05,3.94-2.56,4.52-2.22,5.16,2.52,3.13,23.27-4.3,43-19.52,60.42-14.61,16.69-32.06,29.75-51,41-.54.32-1.1.61-1.67.89C235.41,407.35,235.22,407.29,234.44,407.29Z"/><path class="cls-5" d="M118.52,393.05l-4.35-4.11,42.11-42.11,4.2,4.24Z"/><path class="cls-6" d="M162.29,313c1.05-2,2.39-4.64,3.5-6.8,11.79,11.59,27,26.62,39.15,38.57-2.24,1.62-3.89,2.66-6.17,4.31C187.89,337.92,173.2,324.11,162.29,313Z"/><path class="cls-5" d="M171.2,362.18a9.49,9.49,0,0,1-1,1.52Q156,377.92,141.81,392.12c-1.57,1.58-2.69.7-3.9-.38s-2.12-2.34-.75-3.92c1.71-2,3.4-4,5.25-5.86q11.21-11.23,22.54-22.37c.7-.69,2-1.65,2.57-1.41a27.09,27.09,0,0,1,4.53,3Z"/><path class="cls-5" d="M145.66,336.2l4.5,4.56L123.87,367l-4.74-4.28Z"/><path class="cls-3" d="M113.67,399.22l-5,4.68-5-4.63C108.74,392.75,108.66,393.19,113.67,399.22Z"/><path class="cls-3" d="M114,378.05l-5.09-4.82c.06-.3,0-.51.12-.6,5.57-5.66,4-5.78,9.68.1Z"/><path class="cls-3" d="M129.77,394.38c4.75,3.68,5.3,4.78,3.55,6.91-2.11,2.58-3.73,2.8-5.88.8C124.77,399.6,124.88,399.24,129.77,394.38Z"/><path class="cls-7" d="M315.89,211.34c-.1,7.32-6.06,12.66-13.71,12.78a13.37,13.37,0,0,1-9.26-3.85l-7.79,7.79a24.65,24.65,0,0,0,17.17,7.47,24.16,24.16,0,0,0,24-24.34,24.75,24.75,0,0,0-6.91-17.43l-7.82,7.82A13.68,13.68,0,0,1,315.89,211.34Z"/><path class="cls-7" d="M277.68,211.08a24.44,24.44,0,0,0,7.45,17l7.79-7.79c-2.65-2.53-4.26-6-3.85-9.39.16-7.94,5.79-13.69,13.2-13.47a14.05,14.05,0,0,1,9.34,4.17l7.82-7.82a23.42,23.42,0,0,0-16.84-7.09A24.46,24.46,0,0,0,277.68,211.08Z"/><path class="cls-8" d="M277.68,211.08a24.46,24.46,0,0,1,24.91-24.41,23.42,23.42,0,0,1,16.84,7.09l24.95-24.94Q327,151.59,309.7,134.34c-1.53-1.52-2.64-1.24-4.22-.28a289.69,289.69,0,0,0-43,32.23,327.86,327.86,0,0,0-65.8,82.84c-6.59,11.72-12.48,23.83-18.7,35.78,6.63,6.6,12.88,12.91,19.22,19.12,2,2,4,3.93,6.06,5.89l81.85-81.86A24.44,24.44,0,0,1,277.68,211.08Z"/><path class="cls-6" d="M361.84,229.47c6.37-8.2,12-17,17.89-25.34a8,8,0,0,0-.56-.8l-34.79-34.51-24.95,24.94a24.75,24.75,0,0,1,6.91,17.43,24.16,24.16,0,0,1-24,24.34,24.65,24.65,0,0,1-17.17-7.47l-81.85,81.86c6.69,6.5,13.4,13,20.06,19.52,2.33,2.28,4.59,2.59,7.5,1,14.33-7.72,29-14.74,43-23A313.78,313.78,0,0,0,361.84,229.47Z"/><path class="cls-4" d="M395.31,169.55a210.83,210.83,0,0,0,9.71-40c1.12-7.78,2.7-14.5,3.46-22.34a2.44,2.44,0,0,0-.48-2l-40.51,40.51L394,172.65C394.57,171.36,395,170.47,395.31,169.55Z"/><path class="cls-3" d="M406,104.71c-15.44,1.28-32,2-47,6-6.35,1.68-12.61,3.72-18.91,5.59l-.44,1.22,27.82,28.22L408,105.2A2.45,2.45,0,0,0,406,104.71Z"/><path class="cls-9" d="M328.83,123.54a3,3,0,0,0-4.09-.57c-2.15,1.15-4.35,2.21-5.69,2.89l33.86,34.42,6.48-6.47Q344.11,138.68,328.83,123.54Z"/><path class="cls-10" d="M389.86,184.23a3.39,3.39,0,0,0-.4-.68l-30.07-29.74-6.48,6.47,32.33,32.87C386.9,190,388.41,187,389.86,184.23Z"/><path class="cls-9" d="M302.27,197.41c-7.41-.22-13,5.53-13.2,13.47-.41,3.39,1.2,6.86,3.85,9.39l18.69-18.69A14.05,14.05,0,0,0,302.27,197.41Z"/><path class="cls-10" d="M315.89,211.34a13.68,13.68,0,0,0-4.28-9.76l-18.69,18.69a13.37,13.37,0,0,0,9.26,3.85C309.83,224,315.79,218.66,315.89,211.34Z"/></g></svg>