<svg xmlns="http://www.w3.org/2000/svg" viewBox="0 0 512 512"><defs><style>.cls-1{fill:#edf2fa;}.cls-2{fill:#606161;}.cls-3{opacity:0.17;}.cls-4{fill:#df9226;}.cls-5{fill:#444883;}.cls-6{fill:#e9e8e8;}.cls-7{fill:#fff;}.cls-8{fill:#48b4a9;}.cls-9{fill:#eeedee;}.cls-10{fill:#d6d5d5;}.cls-11{fill:#f8c068;}.cls-12{fill:#2a2c64;}.cls-13{fill:#f05665;}</style></defs><g id="Layer_1" data-name="Layer 1"><circle class="cls-1" cx="252.1" cy="249.71" r="241.08"/><path class="cls-2" d="M119.64,388.29a11.87,11.87,0,0,1-10.92-7.24L.94,126.09a11.87,11.87,0,0,1,6.3-15.54L206,26.55a11.86,11.86,0,0,1,15.53,6.3l107.79,255A11.87,11.87,0,0,1,323,303.35l-198.7,84A11.82,11.82,0,0,1,119.64,388.29ZM210.55,28.43a9.1,9.1,0,0,0-3.51.71l-198.7,84A9,9,0,0,0,3.53,125L111.31,380a9,9,0,0,0,11.85,4.81l198.71-84a9.06,9.06,0,0,0,4.81-11.85L218.9,34A9.06,9.06,0,0,0,210.55,28.43Z"/><path class="cls-3" d="M310.05,323.53,101.39,378.32a10.46,10.46,0,0,1-12.76-7.46L18.34,103.13a10.48,10.48,0,0,1-.16-4.55,10.46,10.46,0,0,0-2.57,9.87l70.3,267.74a10.44,10.44,0,0,0,12.76,7.45l208.65-54.78a10.45,10.45,0,0,0,7.62-8.21A10.3,10.3,0,0,1,310.05,323.53Z"/><rect class="cls-4" x="49.61" y="58.1" width="236.63" height="297.71" rx="7.44" transform="translate(-47.05 49.43) rotate(-14.71)"/><path class="cls-2" d="M441.12,445.51a12,12,0,0,1-1.33-.07L225.4,421.49a11.87,11.87,0,0,1-10.47-13.1l1.67-14.93,2.79.31-1.66,14.93a9,9,0,0,0,8,10l214.4,23.95a9,9,0,0,0,10-8l30.73-275.1a9.06,9.06,0,0,0-8-10l-52.67-5.88.31-2.8,52.67,5.89a11.86,11.86,0,0,1,10.46,13.1L452.89,435A11.87,11.87,0,0,1,441.12,445.51Z"/><path class="cls-5" d="M492.36,166.29l-67.92-19,15,18.38L415.55,403a10.44,10.44,0,0,1-11.44,9.35L199.39,391.74A10.36,10.36,0,0,0,204.5,395l207.78,58a10.44,10.44,0,0,0,12.87-7.25l74.46-266.61A10.44,10.44,0,0,0,492.36,166.29Z"/><path class="cls-6" d="M437.59,283.1l-9.68-2.71-1.05,10.37,8,2.22a5.12,5.12,0,0,0,6.32-3.56h0A5.12,5.12,0,0,0,437.59,283.1Z"/><path class="cls-6" d="M444.48,258.44l-14-3.9-1,10.37,12.25,3.42a5.13,5.13,0,0,0,2.76-9.89Z"/><path class="cls-6" d="M451.53,232l-18.23-5.09-1.05,10.37,16.52,4.61a5.13,5.13,0,0,0,2.76-9.89Z"/><path class="cls-6" d="M430.47,308.6l-5.26-1.46-1,10.36,3.54,1a5.13,5.13,0,0,0,2.76-9.89Z"/><path class="cls-7" d="M439.46,165.7l-43.61-53.38L219.3,94.53a10.46,10.46,0,0,0-11.44,9.35L180.11,379.3a10.46,10.46,0,0,0,9.35,11.44l214.65,21.62A10.44,10.44,0,0,0,415.55,403L439.46,165.7Z"/><rect class="cls-8" x="262.77" y="154.3" width="117.27" height="10.27" rx="3.59" transform="matrix(0.99, 0.1, -0.1, 0.99, 17.6, -31.41)"/><rect class="cls-6" x="224.13" y="189.36" width="186.82" height="10.27" rx="3.59" transform="translate(21.09 -30.85) rotate(5.75)"/><rect class="cls-6" x="221.71" y="216.65" width="186.82" height="10.27" rx="3.59" transform="translate(23.82 -30.47) rotate(5.75)"/><rect class="cls-6" x="219.15" y="242.12" width="186.82" height="10.27" rx="3.59" transform="translate(26.36 -30.08) rotate(5.75)"/><rect class="cls-6" x="216.49" y="268.47" width="186.82" height="10.27" rx="3.59" transform="translate(28.98 -29.68) rotate(5.75)"/><rect class="cls-6" x="213.5" y="294.87" width="186.82" height="10.27" rx="3.59" transform="translate(31.61 -29.25) rotate(5.75)"/><rect class="cls-6" x="210.77" y="321.98" width="186.82" height="10.27" rx="3.59" transform="translate(34.32 -28.84) rotate(5.75)"/><path class="cls-9" d="M395.57,112l-4,39.81a9,9,0,0,0,8.09,9.9l39.81,4Z"/><path class="cls-6" d="M371.29,355.44a18.87,18.87,0,1,0,18.87,18.87A18.87,18.87,0,0,0,371.29,355.44Zm0,33.89a15,15,0,1,1,15-15A15,15,0,0,1,371.29,389.33Z"/><path class="cls-8" d="M371.37,381.58l-10.56-11.66a3.19,3.19,0,0,1,4.73-4.28l6.75,7.46L389.37,361a3.19,3.19,0,0,1,3.7,5.2Z"/><path class="cls-6" d="M330.66,361.33a7.17,7.17,0,0,1-.34,1.51c-.18.53-.33.8-.44.79a.12.12,0,0,1-.12-.15.27.27,0,0,1,0-.12,5.59,5.59,0,0,0,.55-2,3.67,3.67,0,0,0-.73-2.8,3.54,3.54,0,0,0-2.54-1.29,8.76,8.76,0,0,0-4.72,1,4.62,4.62,0,0,1,1.64,3.84,4,4,0,0,1-1.67,2.84,4.62,4.62,0,0,1-3.35.94,5,5,0,0,1-1.52-.44c-.53-.25-.79-.46-.77-.63a.1.1,0,0,1,.11-.07.48.48,0,0,1,.21.1,3.24,3.24,0,0,0,4.36-.41,4.72,4.72,0,0,0,1.4-3,4,4,0,0,0-.84-2.91q-3.12,1.88-6.27,7.07a20.52,20.52,0,0,1-3.37,4.46,12,12,0,0,1-3.94,2.26,11.62,11.62,0,0,1-5.12.86,5.09,5.09,0,0,1-2.89-1.12,2.44,2.44,0,0,1-1-2.17,1.79,1.79,0,0,1,.53-1.13,1.19,1.19,0,0,1,1-.4q.81.08.72,1a1.2,1.2,0,0,1-.35.75.87.87,0,0,1-.71.25.6.6,0,0,1-.59-.79c0-.19,0-.29,0-.3s-.24.22-.28.69a2.15,2.15,0,0,0,.9,2,4.78,4.78,0,0,0,2.67,1,7.72,7.72,0,0,0,5.53-1.63,14.17,14.17,0,0,0,2-1.75c.6-.66,1.95-2.27,4-4.84a37.8,37.8,0,0,1,3.59-3.75,19.89,19.89,0,0,1,3.41-2.62q-1.9-2-5.94-2.39A13.62,13.62,0,0,0,305.59,359q-3.76,3-4,6a3,3,0,0,0,.72,2.47,3.69,3.69,0,0,0,2.52,1.15,8.52,8.52,0,0,0,5.81-2c2.08-1.53,3.21-3.1,3.37-4.72a1.75,1.75,0,0,0-1.8-2.14q-2-.21-4.49,1.79t-2.7,3.94a1.19,1.19,0,0,0,.24.86,1,1,0,0,0,.72.43c.15,0,.22.06.21.14s-.09.1-.26.08a1.32,1.32,0,0,1-1-.69,2.24,2.24,0,0,1-.3-1.47,5.54,5.54,0,0,1,2.69-3.82,7.17,7.17,0,0,1,4.89-1.51c1.54.16,2.23.94,2.09,2.36-.18,1.73-1.33,3.37-3.46,4.94a8.77,8.77,0,0,1-6,2.07,4.07,4.07,0,0,1-2.86-1.42,4,4,0,0,1-.81-3.1c.25-2.52,1.91-4.68,5-6.47a15.74,15.74,0,0,1,9.76-2.17,11.77,11.77,0,0,1,6.42,2.42,9,9,0,0,1,4.89-1.05,4,4,0,0,1,2.77,1.36A3.82,3.82,0,0,1,330.66,361.33Z"/><path class="cls-6" d="M326.42,369.78q-.23,2.18-3.12,3.69a7,7,0,0,1-3.59,1.11c-.57-.05-.83-.35-.77-.88a2.31,2.31,0,0,1,.19-.65l-6,8a4.09,4.09,0,0,0-.75-.19,2.69,2.69,0,0,0-.89.08L324.31,364a2,2,0,0,0,.69.19,3.54,3.54,0,0,0,.9,0l-4.62,6a21.05,21.05,0,0,1,2.33-2.28,2,2,0,0,1,1.35-.46,1.49,1.49,0,0,1,1.13.74A2.4,2.4,0,0,1,326.42,369.78Zm-.89-1.17c.06-.58-.17-.89-.68-.95s-1.85.88-3.59,2.81c-1.35,1.51-2.06,2.56-2.12,3.17,0,.45.14.7.56.74.82.08,2-.61,3.46-2.07S325.43,369.61,325.53,368.61Z"/><path class="cls-6" d="M331.8,371.26l-.16.2-.66.73c-1.91,2.16-3.3,3.2-4.19,3.11a1.37,1.37,0,0,1-1-.56,1.53,1.53,0,0,1-.31-1.15,5.46,5.46,0,0,1,1.16-2.26l2.44-3.33a3.46,3.46,0,0,0,.64.16,8.66,8.66,0,0,0,1,0l-3.54,4.68a3.7,3.7,0,0,0-.82,1.61q-.06.6.57.66,1.19.12,4.61-3.82.09-.12.15-.12C331.78,371.17,331.8,371.21,331.8,371.26Zm.36-5.55a1.2,1.2,0,0,1-.49.84,1.16,1.16,0,0,1-.9.32.53.53,0,0,1-.54-.66,1.24,1.24,0,0,1,.5-.81,1.27,1.27,0,0,1,.91-.32A.51.51,0,0,1,332.16,365.71Z"/><path class="cls-6" d="M344.89,363.15q-5.82,7.46-7.35,9.55a9,9,0,0,0-1.61,2.71c0,.4.12.62.49.65.81.09,2.33-1.19,4.56-3.82.07-.09.12-.13.16-.12s.08,0,.08.09l-.16.2-.65.73c-1.92,2.16-3.29,3.2-4.09,3.12a1.25,1.25,0,0,1-1-.57,1.79,1.79,0,0,1-.26-1.22,3.73,3.73,0,0,1,.64-1.62q-2.67,3.07-3.8,3a1.46,1.46,0,0,1-1.13-.73,2.43,2.43,0,0,1-.33-1.58c.15-1.47,1.19-2.71,3.14-3.72a7.11,7.11,0,0,1,3.57-1.09.73.73,0,0,1,.75.89,2,2,0,0,1-.32.82l5.58-7.51a3,3,0,0,0,.85.22Zm-7.17,6.53c0-.47-.14-.73-.58-.78-.8-.08-1.94.62-3.41,2.08s-2.27,2.69-2.37,3.67c-.05.6.16.92.65,1q1.07.11,4.05-3.34A6.55,6.55,0,0,0,337.72,369.68Z"/><polygon class="cls-10" points="439.46 165.7 397.77 161.29 438.72 173.07 439.46 165.7"/><path class="cls-6" d="M404.11,412.36,370.58,409l28.19,7.87a5.13,5.13,0,0,0,6.32-3.56,5.55,5.55,0,0,0,.16-.89A8.7,8.7,0,0,1,404.11,412.36Z"/><path class="cls-6" d="M423,334.11l-.49-.14-1,10.2A5.12,5.12,0,0,0,423,334.11Z"/><path class="cls-3" d="M439.45,165.77,415.55,403a10.44,10.44,0,0,1-11.44,9.35L189.46,390.74a10.68,10.68,0,0,1-2.54-.59,10.44,10.44,0,0,0,9.29,8.93l214.64,21.63a10.46,10.46,0,0,0,11.45-9.36L446.21,174Z"/><path class="cls-11" d="M44.51,129.18,237.2,79.79l6.09-42.52a10.43,10.43,0,0,0-8.83-1.68L25.8,90.37a10.42,10.42,0,0,0-6.6,5.27Z"/><path class="cls-11" d="M90.85,375.05l4.59-26.14a5.5,5.5,0,0,1,4-4.38L185.89,322l-3.54,35.06L101.4,378.32C96.58,379.09,93.14,377.89,90.85,375.05Z"/><path class="cls-3" d="M44.51,129.18,18.34,103.13a15.5,15.5,0,0,1,.86-7.49Z"/><path class="cls-3" d="M237.2,79.79l10.51-34.88c-.69-3.66-2.25-6.09-4.42-7.64Z"/><path class="cls-3" d="M88.12,368.92l7.75-21.38-5,27.51A12.25,12.25,0,0,1,88.12,368.92Z"/><rect class="cls-2" x="134.22" y="91.91" width="2.81" height="62.82" transform="translate(-27.17 39.06) rotate(-14.91)"/><rect class="cls-2" x="153.22" y="87.06" width="2.81" height="63.46" transform="translate(-25.36 43.8) rotate(-14.91)"/><circle class="cls-7" cx="154.35" cy="156.61" r="12.28"/><circle class="cls-7" cx="136.27" cy="86.38" r="12.28"/><circle class="cls-12" cx="314.94" cy="35.24" r="19.61"/><circle class="cls-12" cx="359.99" cy="486.2" r="10.97"/><circle class="cls-13" cx="165.1" cy="391.67" r="44.13"/><path class="cls-7" d="M183.35,395.61,154.94,378a4.2,4.2,0,0,0-5.78,1.36l-5.41,8.75a20.9,20.9,0,1,0,35.55,22h0l5.41-8.75A4.19,4.19,0,0,0,183.35,395.61Zm-19.89,6.44a4.45,4.45,0,0,1-2,.07l-1.94,2.81a1.76,1.76,0,1,1-2.9-2l1.88-2.73a4.79,4.79,0,0,1-.65-1.39,4.55,4.55,0,1,1,5.56,3.24Z"/><path class="cls-7" d="M183.37,392.85l-4.77-3,4.29-6.89c2.55-4.2,1.72-7.58.58-9.66a10.72,10.72,0,0,0-8.9-5.42c-2.38-.06-5.76.77-8.32,5l-3.95,6.34-4.77-3,3.93-6.31c3-5,7.86-7.78,13.24-7.66a16.29,16.29,0,0,1,13.7,8.34c2.58,4.72,2.32,10.3-.73,15.3Z"/></g></svg>