<svg xmlns="http://www.w3.org/2000/svg" viewBox="0 0 512 512"><defs><style>.cls-1{fill:#2a2c64;}.cls-2,.cls-6{fill:none;}.cls-2{stroke:#b41f24;stroke-miterlimit:10;}.cls-3{fill:#48b4a9;}.cls-4{fill:#f05665;}.cls-5{fill:#df9226;}.cls-7{fill:#dfdfde;}.cls-8{fill:#fff;}.cls-9{fill:#ffe169;}.cls-10{fill:#e8cd60;}</style></defs><g id="Layer_1" data-name="Layer 1"><path class="cls-1" d="M473.85,138.61V441c-3.22,7.56-8.88,10.28-17.11,10.27q-200.89-.24-401.79-.12c-11,0-16-5-16-16.07q0-144.84-.15-289.67c0-9.8,5.53-16.81,16.65-16.6,20.1.37,40.21.1,60.31.1,29.59,0,59.18,0,88.77-.08,1.75,0,4.23-.59,5.13-1.81,11.12-15.17,22-30.51,32.95-45.8-.38-.78-.69-1.41-1-2-4-7.83-2.52-16.24,3.78-21.53a17.13,17.13,0,0,1,21.55-.39,16.74,16.74,0,0,1,4.47,21.35c-1.19,2.28-.58,3.51.64,5.22,9.93,13.77,19.87,27.54,29.61,41.44,1.93,2.76,4,3.71,7.33,3.7,48.84-.1,97.68.05,146.53-.19C463.78,128.78,470.08,130.93,473.85,138.61ZM72.29,162.16V417.77H440.42V162.16Zm149.4-33.62h69.65c-8.25-11.56-16.28-22.49-23.93-33.67-3.22-4.7-6.15-8.54-12.89-7.39-2.52.43-4.23.6-5.8,2.84-8.11,11.57-16.41,23-24.63,34.51C223.31,125.93,222.62,127.1,221.69,128.54Zm34.57-51.4a6.74,6.74,0,0,0,6.58-6.42,6.46,6.46,0,0,0-12.91-.25C249.72,73.73,252.88,77.07,256.26,77.14Z"/><path class="cls-2" d="M72.29,162.16H440.42V417.77H72.29ZM418.77,289.89q0-45.21,0-90.44c0-10.5-5.39-15.83-16-15.83q-46.92,0-93.84,0c-10.37,0-16,5.63-16,16q0,90.43,0,180.88c0,10.37,5.27,15.91,15.54,15.94q47.55.12,95.11,0c10.17,0,15.22-5.4,15.22-15.66Q418.79,335.33,418.77,289.89ZM185.05,396.47c24.9,0,49.8,0,74.71,0,10.88,0,16.17-5.39,16.18-16.17q0-41,0-81.92c0-10.8-5.43-16.26-16.12-16.26H180.45q-35.87,0-71.74,0c-8.93,0-14.7,5.69-14.71,14.48,0,28.58-.14,57.17.16,85.74,0,3.34,1.85,7.06,3.87,9.87,2.86,4,7.65,4.3,12.31,4.29Q147.69,396.42,185.05,396.47Zm-47.9-126.09c9.48,0,19,0,28.45,0,8.76-.05,14.81-5.31,14.93-14q.42-29.29,0-58.61c-.11-8.6-6.19-14.12-14.81-14.15q-28.67-.1-57.34,0c-8.66,0-14.38,5.86-14.4,14.43q-.06,28.88,0,57.76c0,8.85,5.72,14.47,14.69,14.53C118.17,270.43,127.66,270.38,137.15,270.38Zm95.11,0c9.33,0,18.66,0,28,0,9.9,0,15.65-5.63,15.67-15.41q.09-28,0-56c0-9.52-5.86-15.32-15.36-15.34q-28-.07-56,0c-9.59,0-15.36,5.76-15.38,15.26q0,28.2,0,56.42c0,9.34,5.71,15,15.07,15.07S222.92,270.38,232.26,270.38Z"/><path class="cls-1" d="M418.77,289.89q0,45.44,0,90.87c0,10.26-5,15.63-15.22,15.66q-47.55.15-95.11,0c-10.27,0-15.54-5.57-15.54-15.94q0-90.44,0-180.88c0-10.36,5.66-16,16-16q46.92,0,93.84,0c10.61,0,16,5.33,16,15.83Q418.79,244.68,418.77,289.89Zm-10.35,0q0-44.79,0-89.57c0-5.41-.75-6.22-6-6.23q-46.48,0-93-.06c-5.15,0-6.16,1-6.16,6.22q0,89.79.07,179.57c0,5.48.66,6.14,6,6.14h93c5.62,0,6.05-.44,6.05-6.08Q408.44,334.88,408.42,289.87Z"/><path class="cls-1" d="M185.05,396.47q-37.35,0-74.71,0c-4.66,0-9.45-.3-12.31-4.29-2-2.81-3.83-6.53-3.87-9.87-.3-28.57-.19-57.16-.16-85.74,0-8.79,5.78-14.47,14.71-14.48q35.87-.06,71.74,0h79.37c10.69,0,16.11,5.46,16.12,16.26q0,41,0,81.92c0,10.78-5.3,16.14-16.18,16.17C234.85,396.51,210,396.47,185.05,396.47ZM185,385.94q37.38,0,74.75,0c5,0,5.74-.72,5.74-5.59q0-41,0-82c0-4.89-1-5.87-6-5.87q-74.53,0-149.07-.05c-5.44,0-6.07.65-6.07,6.14q0,40.56,0,81.11c0,5.92.33,6.24,6.32,6.24Z"/><path class="cls-1" d="M137.15,270.38c-9.49,0-19,.05-28.46,0-9-.06-14.67-5.68-14.69-14.53q-.06-28.89,0-57.76c0-8.57,5.74-14.39,14.4-14.43q28.66-.15,57.34,0c8.62,0,14.7,5.55,14.81,14.15q.38,29.31,0,58.61c-.12,8.66-6.17,13.92-14.93,14C156.12,270.42,146.63,270.38,137.15,270.38ZM170.05,227c0-9.06,0-18.12,0-27.17,0-4.9-.81-5.7-5.69-5.71Q137.19,194,110,194c-4.8,0-5.71.93-5.71,5.68,0,18.25.09,36.51,0,54.76,0,4,1.45,5.62,5.46,5.6q27.38-.15,54.76,0c4,0,5.64-1.51,5.58-5.5C170,245.35,170.05,236.15,170.05,227Z"/><path class="cls-1" d="M232.26,270.38c-9.34,0-18.67,0-28,0s-15.06-5.73-15.07-15.07q-.06-28.22,0-56.42c0-9.5,5.79-15.24,15.38-15.26q28,0,56,0c9.5,0,15.33,5.82,15.36,15.34q.09,28,0,56c0,9.78-5.77,15.38-15.67,15.41C250.92,270.4,241.59,270.38,232.26,270.38Zm.41-10.38c8.91,0,17.83,0,26.75,0,5,0,6.05-1,6.06-5.87q0-27.16,0-54.35c0-4.66-1.07-5.69-5.8-5.7q-27.17-.08-54.35-.07c-4.7,0-5.8,1.08-5.8,5.68,0,18.26.07,36.52,0,54.77,0,4,1.56,5.64,5.56,5.58C214.26,259.92,223.47,260,232.67,260Z"/><path class="cls-1" d="M355.8,338.48q-17.82,0-35.66,0c-1.41,0-3.16.42-4.17-.24-1.69-1.12-4-2.9-4-4.49s2-3.59,3.51-4.95c.76-.68,2.43-.45,3.69-.45q36.74,0,73.45,0a17,17,0,0,1,3.78.35c2.78.64,4.41,2.72,3.57,5.28a8.09,8.09,0,0,1-4.29,4.26c-1.84.75-4.18.25-6.3.26Z"/><path class="cls-1" d="M368.92,353.5c8.34,0,16.68.05,25,0,3.43,0,5.86,1.06,6.17,4.8.28,3.33-2,5.42-6,5.43q-24.8.06-49.59,0c-3.94,0-6.63-2.24-6.3-5.27.37-3.56,2.66-5,6.17-4.91,8.19.08,16.39,0,24.58,0Z"/><path class="cls-1" d="M333.11,303.38c5.23,0,10.47.06,15.7,0,3.38-.05,5.44,1.49,5.89,4.77.38,2.88-2.22,5.36-5.79,5.39-10.46.1-20.93.07-31.39,0-3.43,0-5.91-1.66-5.8-5.29s2.64-4.95,6.12-4.89C322.93,303.44,328,303.38,333.11,303.38Z"/><path class="cls-1" d="M380.88,303.38h13.55c3.28,0,5.52,1.34,5.67,4.84s-2.1,5.22-5.3,5.27c-9.31.14-18.63.11-27.94,0-3.27,0-5.51-1.77-5.49-5.15s2.15-5,5.54-5C371.57,303.4,376.22,303.38,380.88,303.38Z"/><path class="cls-1" d="M321.69,363.62a35.89,35.89,0,0,1-5.49-.05c-2.84-.44-4.64-2.24-4.5-5.2a4.66,4.66,0,0,1,4.88-4.8c3.38-.12,6.77-.1,10.16,0,3.19.08,5.07,1.87,5.13,5,.05,2.95-1.82,4.69-4.68,5a42,42,0,0,1-5.5.05Z"/><path class="cls-1" d="M186.94,339.18a36,36,0,0,1-35.66,36.16c-19.6.26-35.93-15.9-36.08-35.72a35.87,35.87,0,1,1,71.74-.44Zm-10.41.6c.15-14.39-10.92-25.95-25-26.06-14.39-.12-25.85,10.94-26,25.06-.12,14.64,10.94,26,25.4,26.06A25.26,25.26,0,0,0,176.53,339.78Z"/><path class="cls-1" d="M228.25,344.3c-6.77,0-13.54,0-20.32,0-3.4,0-5.86-1.08-6.08-4.87-.2-3.32,2-5.27,6.17-5.29q20.1-.09,40.21,0c4.07,0,6.59,2.06,6.38,5.17-.28,3.93-2.89,5.05-6.47,5C241.51,344.24,234.88,344.3,228.25,344.3Z"/><path class="cls-1" d="M224.24,369.28c-5.37,0-10.75.08-16.12,0-4.34-.09-6.42-1.87-6.28-5.19.18-4.18,3-4.94,6.49-4.93,10.61,0,21.22,0,31.83,0,4.5,0,6.91,1.9,6.84,5.12s-2.5,4.94-7.05,5C234.71,369.33,229.48,369.29,224.24,369.28Z"/><path class="cls-1" d="M219.3,309.37h11.84c3.34,0,5.53,1.61,5.59,5s-2.12,5.12-5.43,5.15q-12,.09-24.1,0c-3.29,0-5.41-1.73-5.32-5.19s2.27-4.92,5.58-4.92Z"/><path class="cls-1" d="M137.28,233.59c6.23,0,12.46,0,18.68,0,3.46,0,6,1.25,6,4.95s-2.48,5.24-5.87,5.25q-18.9.08-37.79-.05c-3.43,0-5.91-1.57-5.84-5.26s2.64-4.93,6.09-4.9C124.82,233.63,131.05,233.59,137.28,233.59Z"/><path class="cls-1" d="M137.19,220.49c-6.22,0-12.44,0-18.66,0-3.42,0-6-1.21-6-5s2.51-5.13,5.9-5.14c12.59,0,25.17,0,37.76,0,3.35,0,6,1.47,5.86,5.21s-2.81,4.88-6.17,4.88Q146.52,220.47,137.19,220.49Z"/><path class="cls-1" d="M232.73,201.37c5.37,0,10.75-.09,16.12,0,5.69.12,9.28,3.61,9.35,9.31q.19,16.32,0,32.66c-.06,5.55-3.33,9.18-8.9,9.32q-16.74.39-33.5,0c-5.59-.13-8.81-3.63-8.91-9.3q-.27-16.32,0-32.66c.1-6,3.67-9.26,9.72-9.36C222,201.3,227.36,201.37,232.73,201.37Zm-15.39,40.7h30.24V212H217.34Z"/><path class="cls-3" d="M176.53,339.78A25.26,25.26,0,0,1,151,364.84c-14.46-.07-25.52-11.42-25.4-26.06.12-14.12,11.58-25.18,26-25.06C165.61,313.83,176.68,325.39,176.53,339.78Z"/><path class="cls-4" d="M217.34,242.07V212h30.24v30.1Z"/><path class="cls-1" d="M400.2,213c0-7.61-3.26-10.81-10.88-10.86-11-.06-22.07,0-33.11,0-11.32,0-22.64-.06-33.95,0-7.23,0-10.63,3.53-10.64,10.74q0,31.18,0,62.39c0,7.23,3.65,11,10.95,11q33.32.11,66.63,0c7.41,0,11-3.58,11-10.91Q400.29,244.15,400.2,213ZM390,276.21H321.78V212H390Z"/><rect class="cls-4" x="321.78" y="211.97" width="68.24" height="64.24"/><path class="cls-5" d="M459.53,138.84H52.1a3.94,3.94,0,0,0-3.94,3.94V437.65a3.94,3.94,0,0,0,3.94,3.94H459.53a3.94,3.94,0,0,0,3.94-3.94V142.78A3.94,3.94,0,0,0,459.53,138.84Zm-8.82,280.77a9.56,9.56,0,0,1-9.55,9.55H70.47a9.56,9.56,0,0,1-9.55-9.55V160.82a9.55,9.55,0,0,1,9.55-9.54H441.16a9.55,9.55,0,0,1,9.55,9.54Z"/><path class="cls-6" d="M137.28,233.59c-6.23,0-12.46,0-18.68,0-3.45,0-6,1.15-6.09,4.9s2.41,5.25,5.84,5.26q16.52.09,33.05.06a22.51,22.51,0,0,0,6.21-10.1,10.88,10.88,0,0,0-1.65-.11C149.74,233.63,143.51,233.59,137.28,233.59Z"/><path class="cls-6" d="M118.4,210.38c-3.39,0-5.94,1.4-5.9,5.14s2.61,5,6,5c6.22,0,12.44,0,18.66,0s12.44,0,18.66,0a10.15,10.15,0,0,0,2.66-.33v-9.47a8.8,8.8,0,0,0-2.35-.29C143.57,210.33,131,210.35,118.4,210.38Z"/><path class="cls-6" d="M162,215.61a4.51,4.51,0,0,0-3.51-4.92v9.47A4.41,4.41,0,0,0,162,215.61Z"/><path class="cls-6" d="M151.4,243.79h4.74c3.39,0,5.93-1.58,5.87-5.25,0-3.08-1.82-4.47-4.4-4.84A22.51,22.51,0,0,1,151.4,243.79Z"/><path class="cls-7" d="M170.05,227c0-9.06,0-18.12,0-27.17,0-4.9-.81-5.7-5.69-5.71h-5.84v16.62a4.51,4.51,0,0,1,3.51,4.92,4.41,4.41,0,0,1-3.51,4.55v7.27a22.6,22.6,0,0,1-.9,6.26c2.58.37,4.36,1.76,4.4,4.84.06,3.67-2.48,5.24-5.87,5.25H151.4a22.36,22.36,0,0,1-15.32,6.07H104.3c0,1.53,0,3.06,0,4.59,0,4,1.45,5.62,5.46,5.6q27.38-.15,54.76,0c4,0,5.64-1.51,5.58-5.5C170,245.35,170.05,236.15,170.05,227Z"/><path class="cls-8" d="M151.4,243.79q-16.53,0-33.05-.06c-3.43,0-5.91-1.57-5.84-5.26s2.64-4.93,6.09-4.9c6.22.06,12.45,0,18.68,0s12.46,0,18.68,0a10.88,10.88,0,0,1,1.65.11,22.6,22.6,0,0,0,.9-6.26v-7.27a10.15,10.15,0,0,1-2.66.33q-9.33,0-18.66,0c-6.22,0-12.44,0-18.66,0-3.42,0-6-1.21-6-5s2.51-5.13,5.9-5.14c12.59,0,25.17,0,37.76,0a8.8,8.8,0,0,1,2.35.29V194.07Q134.27,194,110,194c-4.8,0-5.71.93-5.71,5.68,0,16.72.07,33.45,0,50.17h31.78A22.36,22.36,0,0,0,151.4,243.79Z"/><path class="cls-6" d="M232.73,201.37c-5.37,0-10.75-.07-16.12,0-6.05.1-9.62,3.35-9.72,9.36q-.27,16.32,0,32.66a9.9,9.9,0,0,0,2.17,6.46h45.56V203.13a10.27,10.27,0,0,0-5.77-1.73C243.48,201.28,238.1,201.37,232.73,201.37Z"/><path class="cls-6" d="M254.62,249.86H209.06a8.82,8.82,0,0,0,6.74,2.84q16.74.38,33.5,0c5.57-.14,8.84-3.77,8.9-9.32q.18-16.34,0-32.66a9,9,0,0,0-3.58-7.58v46.73Z"/><path class="cls-7" d="M265.47,199.78c0-4.66-1.07-5.69-5.8-5.7h-5.05v9.06a9,9,0,0,1,3.58,7.58q.19,16.32,0,32.66c-.06,5.55-3.33,9.18-8.9,9.32q-16.74.39-33.5,0a8.82,8.82,0,0,1-6.74-2.84h-9.54c0,1.54,0,3.07,0,4.6,0,4,1.56,5.64,5.56,5.58,9.19-.12,18.4,0,27.6,0,8.91,0,17.83,0,26.75,0,5,0,6.05-1,6.06-5.87Q265.51,227,265.47,199.78Z"/><path class="cls-8" d="M206.89,243.4q-.27-16.32,0-32.66c.1-6,3.67-9.26,9.72-9.36,5.37-.08,10.75,0,16.12,0s10.75-.09,16.12,0a10.27,10.27,0,0,1,5.77,1.73v-9.06Q230,194,205.32,194c-4.7,0-5.8,1.08-5.8,5.68,0,16.72,0,33.45,0,50.17h9.54A9.9,9.9,0,0,1,206.89,243.4Z"/><path class="cls-6" d="M207.93,344.31c6.78-.05,13.55,0,20.32,0s13.26-.06,19.89,0c3.58.05,6.19-1.07,6.47-5,.21-3.11-2.31-5.15-6.38-5.17q-20.1-.09-40.21,0c-4.17,0-6.37,2-6.17,5.29C202.07,343.23,204.53,344.34,207.93,344.31Z"/><path class="cls-6" d="M240,369.27c4.55,0,7-1.83,7.05-5s-2.34-5.1-6.84-5.12c-10.61,0-21.22,0-31.83,0-3.45,0-6.31.75-6.49,4.93-.14,3.32,1.94,5.1,6.28,5.19,5.37.1,10.75,0,16.12,0S234.71,369.33,240,369.27Z"/><path class="cls-6" d="M207.2,319.49q12.06.12,24.1,0c3.31,0,5.49-1.79,5.43-5.15s-2.25-5-5.59-5H207.46c-3.31,0-5.49,1.46-5.58,4.92S203.91,319.46,207.2,319.49Z"/><path class="cls-6" d="M151.06,303.39a35.67,35.67,0,0,0-35.86,36.23c.15,19.82,16.48,36,36.08,35.72a36,36,0,0,0-.22-71.95Z"/><path class="cls-8" d="M254.62,352.2V292.49q-72.12,0-144.24,0c-5.44,0-6.07.65-6.07,6.14q0,39,0,78H230.25A24.37,24.37,0,0,0,254.62,352.2Zm-47.16-42.82h23.68c3.34,0,5.53,1.61,5.59,5s-2.12,5.12-5.43,5.15q-12,.09-24.1,0c-3.29,0-5.41-1.73-5.32-5.19S204.15,309.38,207.46,309.38Zm.56,24.77q20.1-.09,40.21,0c4.07,0,6.59,2.06,6.38,5.17-.28,3.93-2.89,5.05-6.47,5-6.63-.08-13.26,0-19.89,0s-13.54,0-20.32,0c-3.4,0-5.86-1.08-6.08-4.87C201.65,336.12,203.85,334.17,208,334.15Zm-56.74,41.19c-19.6.26-35.93-15.9-36.08-35.72a35.87,35.87,0,1,1,36.08,35.72Zm56.84-6.08c-4.34-.09-6.42-1.87-6.28-5.19.18-4.18,3-4.94,6.49-4.93,10.61,0,21.22,0,31.83,0,4.5,0,6.91,1.9,6.84,5.12s-2.5,4.94-7.05,5c-5.24.06-10.47,0-15.71,0S213.49,369.36,208.12,369.26Z"/><path class="cls-7" d="M259.45,292.5h-4.83V352.2a24.37,24.37,0,0,1-24.37,24.37H104.34v3.13c0,5.92.33,6.24,6.32,6.24H185q37.38,0,74.75,0c5,0,5.74-.72,5.74-5.59q0-41,0-82C265.47,293.48,264.44,292.5,259.45,292.5Z"/><path class="cls-6" d="M399.94,334a3.78,3.78,0,0,0-2.23-4.8v7.78A7.17,7.17,0,0,0,399.94,334Z"/><path class="cls-6" d="M392.59,328.33q-36.72,0-73.45,0c-1.26,0-2.93-.22-3.69.46-1.53,1.36-3.6,3.33-3.51,4.95s2.34,3.37,4,4.49c1,.66,2.76.24,4.17.24q17.83,0,35.66,0h33.55c2.12,0,4.46.48,6.3-.26a8.43,8.43,0,0,0,2.06-1.28v-7.78a6.62,6.62,0,0,0-1.34-.48A17,17,0,0,0,392.59,328.33Z"/><path class="cls-6" d="M368.92,353.5v0c-8.19,0-16.39.06-24.58,0-3.51,0-5.8,1.35-6.17,4.91-.33,3,2.36,5.25,6.3,5.27q24.79.07,49.59,0a7.85,7.85,0,0,0,3.65-.8v-8.7a7.93,7.93,0,0,0-3.78-.73C385.6,353.55,377.26,353.5,368.92,353.5Z"/><path class="cls-6" d="M400.1,358.28a4.58,4.58,0,0,0-2.39-4.07v8.7A4.46,4.46,0,0,0,400.1,358.28Z"/><path class="cls-6" d="M400.1,308.22a4.47,4.47,0,0,0-2.39-4.18v8.78A4.54,4.54,0,0,0,400.1,308.22Z"/><path class="cls-6" d="M400.2,275.35q.09-31.2,0-62.39c0-3.73-.8-6.39-2.49-8.15v78.46C399.36,281.47,400.19,278.84,400.2,275.35Z"/><path class="cls-6" d="M326.74,353.55c-3.39-.08-6.78-.1-10.16,0a4.66,4.66,0,0,0-4.88,4.8c-.14,3,1.66,4.76,4.5,5.2a35.89,35.89,0,0,0,5.49.05v0a42,42,0,0,0,5.5-.05c2.86-.36,4.73-2.1,4.68-5C331.81,355.42,329.93,353.63,326.74,353.55Z"/><path class="cls-6" d="M317.52,313.53c10.46.05,20.93.08,31.39,0,3.57,0,6.17-2.51,5.79-5.39-.45-3.28-2.51-4.82-5.89-4.77-5.23.09-10.47,0-15.7,0s-10.18.06-15.27,0c-3.48-.06-6,1.25-6.12,4.89S314.09,313.51,317.52,313.53Z"/><path class="cls-6" d="M380.88,303.38c-4.66,0-9.31,0-14,0-3.39,0-5.51,1.63-5.54,5s2.22,5.13,5.49,5.15c9.31.09,18.63.12,27.94,0a6.6,6.6,0,0,0,2.91-.67V304a7.07,7.07,0,0,0-3.28-.66Z"/><path class="cls-6" d="M389.32,202.1c-11-.06-22.07,0-33.11,0-11.32,0-22.64-.06-33.95,0-7.23,0-10.63,3.53-10.64,10.74q0,31.18,0,62.39c0,7.23,3.65,11,10.95,11q33.32.11,66.63,0c3.88,0,6.7-1,8.51-3V204.81C396,203,393.21,202.13,389.32,202.1Z"/><path class="cls-7" d="M408.42,200.3c0-5.41-.75-6.22-6-6.23h-4.69v10.74c1.69,1.76,2.48,4.42,2.49,8.15q.09,31.18,0,62.39c0,3.49-.84,6.12-2.49,7.92V304a4.47,4.47,0,0,1,2.39,4.18,4.54,4.54,0,0,1-2.39,4.6v16.34a3.78,3.78,0,0,1,2.23,4.8,7.17,7.17,0,0,1-2.23,3v17.27a4.58,4.58,0,0,1,2.39,4.07,4.46,4.46,0,0,1-2.39,4.63v13.66H303.35v3.22c0,5.49.66,6.15,6,6.15h93c5.62,0,6.05-.44,6.05-6.08q0-45,0-90Q408.42,245.08,408.42,200.3Z"/><path class="cls-8" d="M397.71,362.91a7.85,7.85,0,0,1-3.65.8q-24.8.06-49.59,0c-3.94,0-6.63-2.24-6.3-5.27.37-3.56,2.66-5,6.17-4.91,8.19.08,16.39,0,24.58,0v0c8.34,0,16.68.05,25,0a7.93,7.93,0,0,1,3.78.73V336.94a8.43,8.43,0,0,1-2.06,1.28c-1.84.74-4.18.25-6.3.26H355.8q-17.82,0-35.66,0c-1.41,0-3.16.42-4.17-.24-1.69-1.12-4-2.9-4-4.49s2-3.59,3.51-4.95c.76-.68,2.43-.45,3.69-.46q36.74,0,73.45,0a17,17,0,0,1,3.78.35,6.62,6.62,0,0,1,1.34.48V312.82a6.6,6.6,0,0,1-2.91.67c-9.31.14-18.63.11-27.94,0-3.27,0-5.51-1.77-5.49-5.15s2.15-5,5.54-5c4.66,0,9.31,0,14,0h13.55a7.07,7.07,0,0,1,3.28.66V283.27c-1.81,2-4.63,3-8.51,3q-33.31.11-66.63,0c-7.3,0-10.94-3.79-10.95-11q0-31.2,0-62.39c0-7.21,3.41-10.69,10.64-10.74,11.31-.08,22.63,0,33.95,0,11,0,22.07-.05,33.11,0,3.89,0,6.63.88,8.39,2.71V194.07q-44.13,0-88.27-.06c-5.15,0-6.16,1-6.16,6.22q0,88.17.07,176.34h94.36Zm-79.87-59.56c5.09.09,10.18,0,15.27,0s10.47.06,15.7,0c3.38-.05,5.44,1.49,5.89,4.77.38,2.88-2.22,5.36-5.79,5.39-10.46.1-20.93.07-31.39,0-3.43,0-5.91-1.66-5.8-5.29S314.36,303.29,317.84,303.35Zm9.35,60.24a42,42,0,0,1-5.5.05v0a35.89,35.89,0,0,1-5.49-.05c-2.84-.44-4.64-2.24-4.5-5.2a4.66,4.66,0,0,1,4.88-4.8c3.38-.12,6.77-.1,10.16,0,3.19.08,5.07,1.87,5.13,5C331.92,361.49,330.05,363.23,327.19,363.59Z"/><path class="cls-6" d="M108.69,270.37c9.48.06,19,0,28.46,0s19,0,28.45,0c8.76-.05,14.81-5.31,14.93-14q.42-29.29,0-58.61c-.11-8.6-6.19-14.12-14.81-14.15q-28.67-.1-57.34,0c-8.66,0-14.38,5.86-14.4,14.43q-.06,28.88,0,57.76C94,264.69,99.72,270.31,108.69,270.37Z"/><path class="cls-6" d="M418.77,380.76q0-45.43,0-90.87,0-45.21,0-90.44c0-10.5-5.39-15.83-16-15.83q-46.92,0-93.84,0c-10.37,0-16,5.63-16,16q0,90.43,0,180.88c0,10.37,5.27,15.91,15.54,15.94q47.55.12,95.11,0C413.72,396.39,418.77,391,418.77,380.76Z"/><path class="cls-6" d="M259.82,282.1H180.45q-35.87,0-71.74,0c-8.93,0-14.7,5.69-14.71,14.48,0,28.58-.14,57.17.16,85.74,0,3.34,1.85,7.06,3.87,9.87,2.86,4,7.65,4.3,12.31,4.29q37.35-.08,74.71,0c24.9,0,49.8,0,74.71,0,10.88,0,16.17-5.39,16.18-16.17q0-41,0-81.92C275.93,287.56,270.51,282.1,259.82,282.1Z"/><path class="cls-6" d="M260.56,183.63q-28-.07-56,0c-9.59,0-15.36,5.76-15.38,15.26q0,28.2,0,56.42c0,9.34,5.71,15,15.07,15.07s18.66,0,28,0,18.66,0,28,0c9.9,0,15.65-5.63,15.67-15.41q.09-28,0-56C275.89,189.45,270.06,183.65,260.56,183.63Z"/><path class="cls-9" d="M435.31,350.22V162.16h-363V411.21h302A61,61,0,0,0,435.31,350.22ZM94,198.08c0-8.57,5.74-14.39,14.4-14.43q28.66-.15,57.34,0c8.62,0,14.7,5.55,14.81,14.15q.38,29.31,0,58.61c-.12,8.66-6.17,13.92-14.93,14-9.48.05-19,0-28.45,0s-19,.05-28.46,0c-9-.06-14.67-5.68-14.69-14.53Q93.94,227,94,198.08Zm181.94,182.2c0,10.78-5.3,16.14-16.18,16.17-24.91.06-49.81,0-74.71,0s-49.81,0-74.71,0c-4.66,0-9.45-.3-12.31-4.29-2-2.81-3.83-6.53-3.87-9.87-.3-28.57-.19-57.16-.16-85.74,0-8.79,5.78-14.47,14.71-14.48q35.87-.06,71.74,0h79.37c10.69,0,16.11,5.46,16.12,16.26Q276,339.33,275.94,380.28Zm0-125.31c0,9.78-5.77,15.38-15.67,15.41-9.33,0-18.66,0-28,0s-18.67,0-28,0-15.06-5.73-15.07-15.07q-.06-28.22,0-56.42c0-9.5,5.79-15.24,15.38-15.26q28,0,56,0c9.5,0,15.33,5.82,15.36,15.34Q276,227,275.92,255Zm32.52,141.46c-10.27,0-15.54-5.57-15.54-15.94q0-90.44,0-180.88c0-10.36,5.66-16,16-16q46.92,0,93.84,0c10.61,0,16,5.33,16,15.83q0,45.23,0,90.44,0,45.44,0,90.87c0,10.26-5,15.63-15.22,15.66Q356,396.57,308.44,396.43Z"/><path class="cls-10" d="M435.31,162.16V350.22a61,61,0,0,1-61,61h-302v6.56H440.42V162.16Z"/></g></svg>