<svg xmlns="http://www.w3.org/2000/svg" viewBox="0 0 512 512"><defs><style>.cls-1{fill:#df9226;}.cls-2{fill:none;}.cls-3{fill:#2a2c64;}</style></defs><g id="Layer_1" data-name="Layer 1"><path class="cls-1" d="M325.34,432.74c-3.39-6.49-6.63-12.6-9.78-18.75-5.63-10.94-16.63-16.38-28.88-15-30.39,3.4-60.41,2.36-89.38-8.79-30.44-11.72-55.31-30.56-73.11-58.11-18.85-29.17-25.34-61-19.19-95.24,5-27.85,18.15-51.58,38.21-71.42,25.41-25.14,56.14-39.6,91.51-43.73,44.56-5.2,85.09,5.48,120.77,32.93,22.83,17.56,39.12,40,48.16,67.53,5.16,15.69,6.66,31.85,6.07,48.23-.63,17.58-4.44,34.57-10.39,51.09-5.4,15-14.27,27.83-25.63,38.88-12,11.66-23.23,23.9-31.23,38.7-5.51,10.2-10.49,20.69-15.71,31.06C326.37,430.87,326,431.62,325.34,432.74ZM256.15,240.89a20.86,20.86,0,1,0,21,20.57A20.84,20.84,0,0,0,256.15,240.89Zm-75.75,0a20.86,20.86,0,1,0,20.68,20.55A20.88,20.88,0,0,0,180.4,240.9Zm152,0a20.86,20.86,0,0,0-.23,41.71,20.86,20.86,0,1,0,.23-41.71Z"/><path class="cls-2" d="M37.83,202.64v.79C37.84,203.18,37.84,202.92,37.83,202.64Z"/><path class="cls-1" d="M35.32,207.05C17,217.89,6.78,234,6,255.33s8.19,38.34,26,50.09c3.75,2.49,5.41,4.86,5.84,8.48V203.43C37.73,205.07,37,206.07,35.32,207.05Z"/><path class="cls-2" d="M474,199.89v-1.64A14.94,14.94,0,0,0,474,199.89Z"/><path class="cls-3" d="M474,198.25c.41-9.76-5.69-17.9-14.78-21.42a5.18,5.18,0,0,1-2.68-2.53,264.18,264.18,0,0,0-26.17-48.58,3.82,3.82,0,0,1-.42-2.86c2.55-8.18.92-15.34-4.59-21.87a251.23,251.23,0,0,0-38-36.74c-34.84-27-74.13-42.62-118.17-45.7A205.83,205.83,0,0,0,197.39,26c-46,13.23-83.31,39.5-113.72,76-5,6.06-6.17,13-3.84,20.54a4.09,4.09,0,0,1-.37,3.13,267,267,0,0,0-26.57,49.57,8.12,8.12,0,0,1-2.45,2.55c-2.76,2.39-5.95,4.39-8.28,7.14-4.26,5-4.68,11.33-4.33,17.64,0,.28,0,.54,0,.79V313.9a20.35,20.35,0,0,1,.11,2.77c-.27,10.4,6.67,19,16.63,21.55A3.66,3.66,0,0,1,57.44,341a190.15,190.15,0,0,0,20.78,42.51q39.9,60.75,109.39,82.24c8.55,2.64,17.37,4.39,26.25,6.6.13.6.32,1.47.53,2.35a25.16,25.16,0,1,0,30.78-30.23A25,25,0,0,0,217.3,456c-1,1.66-2,2.08-3.66,1.64-10.82-2.92-22-5-32.39-8.95-48.73-18.62-83.79-52-105.43-99.49-1.89-4.13-3.43-8.41-5.13-12.64,9-5.45,12-13.33,11.94-23.23q-.31-56.44,0-112.91c0-8.76-2.84-15.78-10.09-21.13.18-.59.27-1,.44-1.44a238.59,238.59,0,0,1,21.65-39.71,4,4,0,0,1,3.08-1.27,21.79,21.79,0,0,0,19.24-8.32c19-22.92,41.81-41.07,69.12-53.17,35.67-15.8,72.52-19.27,110.38-9.42,38.82,10.1,70.32,31.72,96,62.12,5.21,6.17,11.47,9.41,19.55,8.68a3.48,3.48,0,0,1,3.68,1.9,254.05,254.05,0,0,1,21.35,39.57,2.72,2.72,0,0,1-.71,3.68,20.77,20.77,0,0,0-6.93,15.57q-.07,59.83,0,119.67a22.19,22.19,0,0,0,18.92,21.68c11.41,1.53,22-5.18,24.79-16.1a34.62,34.62,0,0,0,.87-7.3V199.89A14.94,14.94,0,0,1,474,198.25Z"/><path class="cls-1" d="M480,209.21c-4-2.61-5.8-5.07-6-9.32V315.38c0-1.22.06-2.45.08-3.66.05-1.92.43-3,2.29-4a50.33,50.33,0,0,0,8.29-5.54C514.94,277.72,512.67,230.29,480,209.21Z"/></g></svg>