<svg xmlns="http://www.w3.org/2000/svg" viewBox="0 0 512 512"><defs><style>.cls-1{fill:#2a2c64;}.cls-2{fill:#df9226;}</style></defs><g id="Layer_1" data-name="Layer 1"><path class="cls-1" d="M191,301.57a1060,1060,0,0,0,37.65,120.76l1.33-.12c1.29-9.53,2.63-19.06,3.88-28.59,1.49-11.35,3-22.68,4.28-34.05.39-3.4,1.68-4.63,5.17-4.53,8.37.22,16.76.25,25.13,0,3.7-.12,5.06,1.1,5.5,4.76,2.26,19,4.75,37.93,7.2,56.89a18.65,18.65,0,0,0,1.7,5.62,961.47,961.47,0,0,0,38.26-120.91c8.58,2.79,16.64,5.35,24.66,8.05,26,8.76,52.05,17.4,77.95,26.46,10.78,3.77,20.31,9.79,27.26,19.2a34.4,34.4,0,0,1,7.09,21c0,17.1.23,34.2-.18,51.29a53.2,53.2,0,0,1-3.21,16.44c-4.55,12.58-14.55,19.22-27.89,19.24-27.53.06-55.07,0-82.6,0l-254.45,0c-22.86,0-35.61-12.77-35.71-35.86-.07-15.39.48-30.8-.16-46.17-.77-18.2,7.38-31.23,22.74-39.23,11.25-5.87,23.49-9.95,35.54-14.11,25-8.64,50.11-16.8,75.19-25.14C188.31,302.26,189.29,302.05,191,301.57Z"/><path class="cls-2" d="M369.69,194.75l44.66,15.85c6.91,2.45,13.85,4.82,20.72,7.37,16,5.94,23.19,23,16.19,38-6.84,14.71-24.48,20.14-39.09,11.94q-27.89-15.67-55.71-31.48c-1.62-.91-3.27-1.77-5.24-2.84-23.43,30.39-54.15,47.06-92.59,48-27.2.64-51.76-7.81-73.38-24.42-43.9-33.73-57.51-95.25-32.1-144.71A117,117,0,0,1,289.79,53.56C336.87,67.25,386.92,120.44,369.69,194.75ZM349,165.36A92.44,92.44,0,0,0,256.41,73c-50.57.06-91.93,41.68-92,92.6-.12,50.69,41.8,92.23,93,92.15C307.55,257.61,349.07,215.8,349,165.36Z"/><path class="cls-2" d="M256.43,313c5.29,0,10.61-.37,15.84.17a10.71,10.71,0,0,1,6.48,3.62c4.71,5.71,3.82,11.32.92,18.23-3.6,8.59-8.22,11.92-17.38,10.79-6.89-.84-14,0-21-.31a7.15,7.15,0,0,1-4.91-3.07c-2.26-3.77-3.71-8-5.82-11.9-1.73-3.18-1.19-5.79.06-9.1,2.57-6.82,6.81-9.51,14-8.53C248.53,313.47,252.51,313,256.43,313Z"/><path class="cls-1" d="M208.19,195.53q-10,0-15.49-5.49t-5.46-15.41h11.41q0,5,2.55,7.73a9.31,9.31,0,0,0,7.2,2.76q4.68,0,7.23-2.74t2.55-7.75V135.81h10.95v38.82q0,10-5.53,15.43T208.19,195.53Zm-3.49-49.64V135.81H224v10.08Z"/><path class="cls-1" d="M259,195.53q-22.44,0-22.44-29.86Q236.6,135,259,135t22.44,30.69Q281.48,195.54,259,195.53Zm0-10.45q10.95,0,10.95-19.41,0-20.23-10.95-20.24t-11,20.24Q248.09,185.08,259,185.08Z"/><path class="cls-1" d="M289.86,194.7V135.81h10.95V194.7Zm7.54-28.95v-4.06h16.34v4.06Zm2.82-2.82v-4.39h8a8.8,8.8,0,0,0,5.83-1.68,6.18,6.18,0,0,0,2-5,5.19,5.19,0,0,0-2.1-4.5q-2.1-1.52-6.28-1.51h-7.26l-1-10.08h8.67q9.3,0,14.37,3.79t5.09,10.81q0,6-3.94,9.27t-11.16,3.25Zm0,31.77V184.62h10.5a10.46,10.46,0,0,0,7-2.11,7.39,7.39,0,0,0,2.48-5.93,7,7,0,0,0-2.61-5.85c-1.74-1.38-4.22-2.07-7.42-2.07h-9.75l-1-4.4h16.26q7.68,0,11.84,3.73t4.17,10.54q0,7.71-4.83,11.94t-13.71,4.23Z"/></g></svg>