<svg xmlns="http://www.w3.org/2000/svg" viewBox="0 0 512 512"><defs><style>.cls-1{fill:#ffc71c;}.cls-2{fill:#eba22f;}.cls-3{fill:#fff;}.cls-4{fill:#edf2fa;}.cls-5{fill:#2a2c64;}.cls-6{fill:#f05665;}.cls-7{fill:#df9226;}.cls-8{fill:#48b4a9;}.cls-9{fill:#8e8e8e;}</style></defs><g id="Layer_1" data-name="Layer 1"><path class="cls-1" d="M460.77,161.94H50.43a21,21,0,0,0-21,21V398.74H53.46a56.41,56.41,0,1,1,112.82,0H340.62a56.41,56.41,0,1,1,112.82,0H481.8V183A21,21,0,0,0,460.77,161.94Z"/><rect class="cls-2" x="290.42" y="161.94" width="29.16" height="236.8"/><path class="cls-2" d="M63.82,190c0-6.7,12.91-28.05,21-28.05H50.43a21,21,0,0,0-21,21V398.74H53.46a56.11,56.11,0,0,1,10.36-32.56Z"/><rect class="cls-3" x="75.11" y="204.62" width="169.13" height="59.17"/><rect class="cls-3" x="324.18" y="204.62" width="35.27" height="59.17"/><rect class="cls-3" x="397.03" y="196.68" width="84.78" height="75.06" rx="1.3"/><polygon class="cls-4" points="397.03 270.14 479.25 193.49 397.03 193.49 397.03 270.14"/><path class="cls-5" d="M480.21,279.68H398.62a9.54,9.54,0,0,1-9.53-9.54V198.27a9.54,9.54,0,0,1,9.53-9.53h81.59a9.55,9.55,0,0,1,9.54,9.53v71.87A9.55,9.55,0,0,1,480.21,279.68ZM405,263.79h68.89V204.62H405Z"/><rect class="cls-1" x="156.09" y="114.77" width="78.4" height="47.17"/><path class="cls-6" d="M398,130.71h39a1,1,0,0,1,1,1v30.26a0,0,0,0,1,0,0H397a0,0,0,0,1,0,0V131.69A1,1,0,0,1,398,130.71Z"/><rect class="cls-7" x="131.94" y="56.85" width="126.69" height="57.93"/><path class="cls-5" d="M456.79,331.15a7.94,7.94,0,0,1-7.94-7.94V304.36a7.94,7.94,0,1,1,15.88,0v18.85A8,8,0,0,1,456.79,331.15Z"/><path class="cls-7" d="M258.63,65.05l88.71-6.5a2.34,2.34,0,0,1,2.52,2.34v51.32a2.35,2.35,0,0,1-2.56,2.34l-88.67-7.75Z"/><path class="cls-8" d="M476.82,76.22c-14.64-7.87-40.92-9.19-68.49,3.72,13,4.51,30.17,10.81,39.64,15.65a42.66,42.66,0,0,1,7.39,5.25c4.65,3.81,9.45,7.74,15.93,7.74,7.69,0,16-6,16-19.3C487.25,84.54,483.45,79.78,476.82,76.22Z"/><path class="cls-9" d="M397,342.33a56.41,56.41,0,1,0,56.41,56.41A56.41,56.41,0,0,0,397,342.33Zm0,82.23a25.82,25.82,0,1,1,25.81-25.82A25.82,25.82,0,0,1,397,424.56Z"/><path class="cls-5" d="M397,463.09a64.35,64.35,0,1,1,64.35-64.35A64.41,64.41,0,0,1,397,463.09Zm0-112.82a48.47,48.47,0,1,0,48.47,48.47A48.53,48.53,0,0,0,397,350.27Zm0,82.23a33.76,33.76,0,1,1,33.75-33.76A33.81,33.81,0,0,1,397,432.5Zm0-51.63a17.87,17.87,0,1,0,17.87,17.87A17.9,17.9,0,0,0,397,380.87Z"/><path class="cls-9" d="M109.87,342.33a56.41,56.41,0,1,0,56.41,56.41A56.42,56.42,0,0,0,109.87,342.33Zm0,82.23a25.82,25.82,0,1,1,25.82-25.82A25.82,25.82,0,0,1,109.87,424.56Z"/><path class="cls-5" d="M109.87,463.09a64.35,64.35,0,1,1,64.35-64.35A64.42,64.42,0,0,1,109.87,463.09Zm0-112.82a48.47,48.47,0,1,0,48.47,48.47A48.53,48.53,0,0,0,109.87,350.27Zm0,82.23a33.76,33.76,0,1,1,33.76-33.76A33.8,33.8,0,0,1,109.87,432.5Zm0-51.63a17.87,17.87,0,1,0,17.88,17.87A17.89,17.89,0,0,0,109.87,380.87Z"/><polygon class="cls-4" points="67.17 270.14 129.31 193.49 67.17 193.49 67.17 270.14"/><polygon class="cls-4" points="128.6 270.14 190.75 193.49 128.6 193.49 128.6 270.14"/><polygon class="cls-4" points="190.03 270.14 244.05 193.49 190.03 193.49 190.03 270.14"/><path class="cls-5" d="M498.06,390.8h-8.31V183a29,29,0,0,0-29-29H445.92V131.9a9.13,9.13,0,0,0-9.13-9.13H398.22a9.14,9.14,0,0,0-9.13,9.13V154H242.43V122.71h24.14v-7.24l80,7c.3,0,.6,0,.89,0a10.29,10.29,0,0,0,10.3-10.29V60.89a10.27,10.27,0,0,0-11-10.26l-80.19,5.88v-7.6H124v73.8h24.14V154H98.24a7.94,7.94,0,0,0,0,15.88H282.48V332.45a7.94,7.94,0,0,0,15.88,0V169.88H460.77A13.11,13.11,0,0,1,473.86,183V390.8h-13a64.36,64.36,0,0,0-127.73,0h-34.8V360.18a7.94,7.94,0,0,0-15.88,0V390.8H173.74A64.36,64.36,0,0,0,46,390.8H37.34V183a13.11,13.11,0,0,1,13.09-13.1H70.27a7.94,7.94,0,0,0,0-15.88H50.43a29,29,0,0,0-29,29V390.8H13.94a7.94,7.94,0,0,0,0,15.88H61.4v-7.94a48.47,48.47,0,1,1,96.94,0v7.94H348.56v-7.94a48.47,48.47,0,0,1,96.94,0v7.94h52.56a7.94,7.94,0,0,0,0-15.88ZM266.57,72.43l75.35-5.52v39.2l-75.35-6.58Zm-126.69,34.4v-42H250.69v42H139.88ZM164,154V122.71h62.52V154ZM405,154V138.65H430V154Z"/><path class="cls-5" d="M365.8,279.68h-48a9.55,9.55,0,0,1-9.54-9.54V198.27a9.55,9.55,0,0,1,9.54-9.53h48a9.55,9.55,0,0,1,9.53,9.53v71.87A9.55,9.55,0,0,1,365.8,279.68Zm-41.62-15.89h35.27V204.62H324.18Z"/><path class="cls-5" d="M250.58,188.74H68.76a9.55,9.55,0,0,0-9.54,9.53v71.87a9.55,9.55,0,0,0,9.54,9.54H250.58a9.55,9.55,0,0,0,9.54-9.54V198.27A9.55,9.55,0,0,0,250.58,188.74Zm-67.06,15.88v59.17H137.25V204.62Zm-108.41,0h46.26v59.17H75.11Zm169.12,59.17H199.4V204.62h44.83Z"/><path class="cls-5" d="M471.29,124.47c-12.15,0-20.48-6.83-26-11.34a35.06,35.06,0,0,0-4.56-3.4c-15.07-7.71-53.89-20.26-54.28-20.39l-15.71-5.07,13.77-9.11c38.36-25.38,77.78-24.78,99.82-12.93,11.94,6.42,18.79,16.28,18.79,27.05C503.13,109.34,489.44,124.47,471.29,124.47Zm-63-44.53c13,4.51,30.17,10.81,39.64,15.65a42.66,42.66,0,0,1,7.39,5.25c4.65,3.81,9.45,7.74,15.93,7.74,7.69,0,16-6,16-19.3,0-4.74-3.8-9.5-10.43-13.06C462.18,68.35,435.9,67,408.33,79.94Z"/></g></svg>