<svg xmlns="http://www.w3.org/2000/svg" viewBox="0 0 512 512"><defs><style>.cls-1{fill:#2a2c64;}.cls-2{fill:#ffc71c;}.cls-3{fill:#f05665;}.cls-4{fill:#df9226;}</style></defs><g id="Layer_1" data-name="Layer 1"><path class="cls-1" d="M150.25,190.57a22.5,22.5,0,0,1,31.82-31.82l51.47,51.5V69.84a22.46,22.46,0,1,1,44.92,0V210.25L330,158.73a22.5,22.5,0,1,1,31.83,31.82l-89.86,89.86a22.47,22.47,0,0,1-31.77.06l0-.06Z"/><path class="cls-2" d="M299.69,265.17l-27.76,27.76a22.47,22.47,0,0,1-31.77.06l0-.06-27.77-27.76H83.77V391.83H428.23V265.17Z"/><path class="cls-1" d="M435.71,242.07H368.32a22.47,22.47,0,0,0,0,44.93h59.91V391.83H83.77V287h59.91a22.47,22.47,0,0,0,0-44.93H76.29a37.45,37.45,0,0,0-37.45,37.44V399.32a37.45,37.45,0,0,0,37.45,37.44H435.71a37.45,37.45,0,0,0,37.45-37.44V279.51A37.45,37.45,0,0,0,435.71,242.07Z"/><circle class="cls-3" cx="368.32" cy="339.42" r="29.95"/><rect class="cls-4" x="83.77" y="369.37" width="344.45" height="22.46"/></g></svg>