<svg xmlns="http://www.w3.org/2000/svg" viewBox="0 0 512 512"><defs><style>.cls-1{fill:#f05665;}.cls-2{fill:#2a2c64;}.cls-3{fill:#df9226;}.cls-4{fill:#fff;}</style></defs><g id="Layer_1" data-name="Layer 1"><polygon class="cls-1" points="346.02 81.95 346.02 143 409.11 143 348.61 72.59 346.02 81.95"/><path class="cls-2" d="M256.11,456.62h-176c-5.09,0-10.19.08-15.29,0-5.6-.14-8.59-3.17-8.84-8.72-.07-1.38,0-2.76,0-4.14q0-114.09-.11-228.17c0-6.06,1.9-10.07,6.92-13.41C71,196.65,78.83,190.48,87,184.86c3-2,3.92-4.32,3.91-7.87-.14-36.72-.09-73.44-.08-110.15,0-8.43,2.56-11.23,11.07-11.29,20.15-.13,40.31-.07,60.46-.07,58,0,116,.1,173.92-.13,7.52,0,12.74,2.16,17.77,8,21,24.31,42.58,48.1,63.73,72.27a15.2,15.2,0,0,1,3.34,8.84c.38,11.16.22,22.35,0,33.53a6.92,6.92,0,0,0,3.38,6.47c8.69,6.09,17.19,12.47,25.9,18.55,4,2.77,5.72,6.14,5.72,11.09q-.17,115.54-.08,231.08c0,8.95-2.51,11.44-11.57,11.44ZM352.68,87.83l-.94.44c0,14.2.05,28.4,0,42.59,0,2.89,1.6,3,3.71,3q12.63,0,25.25,0c1.86,0,3.72.2,5.51.3V151H346.58c-9.47,0-12.06-2.55-12.06-11.95q0-30.63,0-61.27v-5.1h-6.39q-107.83,0-215.68-.09c-3.83,0-5,1.11-5,4.88.09,51.05,0,102.09.17,153.14a7.25,7.25,0,0,0,2.59,5.07q57.78,42.87,115.7,85.55a5.15,5.15,0,0,0,5.62.68c15.87-6,31.8-6.13,47.55.4,2.82,1.17,4.72.73,7.07-1Q343.73,278.64,401.38,236a8.16,8.16,0,0,0,2.95-5.67q.29-40.56,0-81.12a9.71,9.71,0,0,0-2.28-5.86c-10.53-12-21.26-23.9-31.91-35.83Q361.4,97.71,352.68,87.83Zm58.95,351.39c-2.06-1.66-3.08-2.54-4.16-3.33Q346.77,390.94,286,346c-19.81-14.63-40.74-14.93-61-1.17C182.8,373.42,142.65,404.72,102.49,436c-1,.78-1.87,1.73-3.44,3.2ZM298.68,333.43,438.49,436.85V230.24ZM73.45,435.72,211,331.69,73.45,230.2ZM433.56,212.09l-11.74-8.52V220.8ZM90.28,220.83V203.56l-11.82,8.6C82.66,215.23,86.23,217.86,90.28,220.83Z"/><path class="cls-3" d="M411.63,439.22H99.05c1.57-1.47,2.44-2.42,3.44-3.2,40.16-31.3,80.31-62.6,122.49-91.17,20.31-13.76,41.24-13.46,61,1.17q60.74,44.91,121.44,89.87C408.55,436.68,409.57,437.56,411.63,439.22Z"/><path class="cls-3" d="M298.68,333.43,438.49,230.24V436.85Z"/><path class="cls-3" d="M73.45,435.72V230.2L211,331.69Z"/><path class="cls-1" d="M433.56,212.09l-11.74,8.71V203.57Z"/><path class="cls-1" d="M90.28,220.83c-4-3-7.62-5.6-11.82-8.67l11.82-8.6Z"/><path class="cls-2" d="M284.15,223.07c-9.78,8.84-20.81,12.8-33.42,11.17A37.86,37.86,0,0,1,227,221.87a39.62,39.62,0,0,1-2.83-50.29c9.36-13,30.32-23.23,54-9.76.31-1.67.6-3.19.93-5h15.73a5.21,5.21,0,0,1,.5,1.52c.07,13.66.1,27.31.18,41a67.29,67.29,0,0,0,.42,8.64c.86,6.3,5.1,9.67,11.4,9.35,5.44-.28,9.51-4.49,9.72-10.36.46-13.14.36-26.16-5.6-38.42-11-22.68-36.3-36.71-59.94-34.87-27.62,2.15-50.37,23.49-55.36,48-9.1,44.7,28.54,80.36,69,74a62.43,62.43,0,0,0,30.36-13.77l10.91,12.86a74.32,74.32,0,0,1-34.18,17,78.5,78.5,0,0,1-93.35-63.5c-6.1-34.17,12.33-69,43.78-83.91,45.11-21.38,100.69,4.47,110.15,57.22,1.77,9.87,1.53,20.38.49,30.41-1.15,11.12-8.71,18.25-19.28,21.4s-19.84.24-27.68-7.41A28,28,0,0,1,284.15,223.07Zm-5.9-28c0-12.73-9.81-22.67-22.34-22.63a22.88,22.88,0,0,0-22.52,22.81,22.53,22.53,0,0,0,22.49,22.29C268.66,217.55,278.25,207.92,278.25,195Z"/><path class="cls-4" d="M401.65,142.88l.13.12a10,10,0,0,1,2.58,6.22q.22,40.56,0,81.12a8.16,8.16,0,0,1-2.95,5.67Q343.83,278.77,286.1,321.3c-2.35,1.74-4.25,2.18-7.07,1-15.75-6.53-31.68-6.38-47.55-.4a5.15,5.15,0,0,1-5.62-.68q-57.84-42.8-115.7-85.55a7.25,7.25,0,0,1-2.59-5.07c-.14-51.05-.08-102.09-.17-153.14,0-3.77,1.21-4.89,5-4.88q107.84.16,215.68.09h6.39v5.1q0,30.63,0,61.27c0,9.4,2.59,11.95,12.06,11.95h39.59v-8Zm-117.5,80.19a28,28,0,0,0,2.23,2.84c7.84,7.65,17.16,10.54,27.68,7.41s18.13-10.28,19.28-21.4c1-10,1.28-20.54-.49-30.41-9.46-52.75-65-78.6-110.15-57.22C191.25,139.2,172.82,174,178.92,208.2a78.5,78.5,0,0,0,93.35,63.5,74.32,74.32,0,0,0,34.18-17l-10.91-12.86a62.43,62.43,0,0,1-30.36,13.77c-40.49,6.4-78.13-29.26-69-74,5-24.51,27.74-45.85,55.36-48,23.64-1.84,48.91,12.19,59.94,34.87,6,12.26,6.06,25.28,5.6,38.42-.21,5.87-4.28,10.08-9.72,10.36-6.3.32-10.54-3.05-11.4-9.35a67.29,67.29,0,0,1-.42-8.64c-.08-13.66-.11-27.31-.18-41a5.21,5.21,0,0,0-.5-1.52H279.1c-.33,1.78-.62,3.3-.93,5-23.67-13.47-44.63-3.2-54,9.76A39.62,39.62,0,0,0,227,221.87a37.86,37.86,0,0,0,23.72,12.37C263.34,235.87,274.37,231.91,284.15,223.07Z"/><path class="cls-4" d="M278.25,195c0,12.9-9.59,22.53-22.37,22.47a22.53,22.53,0,0,1-22.49-22.29,22.88,22.88,0,0,1,22.52-22.81C268.44,172.35,278.25,182.29,278.25,195Z"/></g></svg>