<svg xmlns="http://www.w3.org/2000/svg" viewBox="0 0 512 512"><defs><style>.cls-1{fill:#606161;}.cls-2{fill:#6d6d6d;}.cls-3{opacity:0.07;}.cls-4{fill:#828f9f;}.cls-5{fill:#fff;}.cls-6{fill:#df9226;}.cls-7{fill:#444883;}.cls-8{fill:#9acc60;}.cls-10,.cls-9{opacity:0.21;}</style></defs><g id="Layer_1" data-name="Layer 1"><path class="cls-1" d="M405.81,62.33H324.07l-250.95,251v99.5a34.37,34.37,0,0,0,34.37,34.37H405.81a34.37,34.37,0,0,0,34.37-34.37V96.7A34.36,34.36,0,0,0,405.81,62.33Z"/><path class="cls-2" d="M107.49,62.33A34.37,34.37,0,0,0,73.12,96.7V313.28l251-250.95Z"/><rect class="cls-3" x="122.58" y="248.51" width="70.3" height="70.3" rx="6.49"/><rect class="cls-3" x="224.89" y="248.51" width="70.3" height="70.3" rx="6.49"/><rect class="cls-3" x="122.58" y="343.42" width="70.3" height="70.3" rx="6.49"/><rect class="cls-3" x="224.89" y="343.42" width="70.3" height="70.3" rx="6.49"/><rect class="cls-3" x="327.2" y="248.51" width="70.3" height="70.3" rx="6.49"/><rect class="cls-3" x="327.2" y="343.42" width="70.3" height="70.3" rx="6.49"/><rect class="cls-4" x="119.74" y="245.67" width="70.3" height="70.3" rx="6.49"/><rect class="cls-4" x="222.05" y="245.67" width="70.3" height="70.3" rx="6.49"/><rect class="cls-4" x="119.74" y="340.58" width="70.3" height="70.3" rx="6.49"/><rect class="cls-4" x="222.05" y="340.58" width="70.3" height="70.3" rx="6.49"/><polygon class="cls-5" points="173.49 275.14 160.59 275.14 160.59 262.23 149.21 262.23 149.21 275.14 136.3 275.14 136.3 286.51 149.21 286.51 149.21 299.42 160.59 299.42 160.59 286.51 173.49 286.51 173.49 275.14"/><polygon class="cls-5" points="266.33 263.65 257.21 272.78 248.08 263.65 240.04 271.7 249.16 280.83 240.04 289.95 248.08 298 257.21 288.87 266.33 298 274.38 289.95 265.25 280.83 274.38 271.7 266.33 263.65"/><rect class="cls-6" x="324.37" y="245.67" width="70.3" height="70.3" rx="6.49"/><rect class="cls-7" x="324.37" y="340.58" width="70.3" height="70.3" rx="6.49"/><rect class="cls-5" x="136.3" y="370.05" width="37.19" height="11.38"/><rect class="cls-5" x="238.61" y="370.05" width="37.19" height="11.38"/><rect class="cls-5" x="340.93" y="361.68" width="37.19" height="11.38"/><rect class="cls-5" x="340.93" y="379.07" width="37.19" height="11.38"/><circle class="cls-5" cx="257.21" cy="360.24" r="4.58"/><circle class="cls-5" cx="257.21" cy="391.23" r="4.58"/><path class="cls-5" d="M345.34,282.46c0-12.48,8.58-19.58,18-19.58a16.45,16.45,0,0,1,11.57,4.92l-5.16,6.3c-1.83-1.6-3.66-2.75-6.18-2.75-4.35,0-8.13,4-8.13,10.77,0,7,3.21,10.87,8,10.87a9.3,9.3,0,0,0,6.75-3.2l5.15,6.18a15.71,15.71,0,0,1-12.25,5.5C353.58,301.47,345.34,295.17,345.34,282.46Z"/><rect class="cls-8" x="119.74" y="102.69" width="280.48" height="102.47"/><rect class="cls-9" x="119.74" y="102.69" width="280.48" height="9.96"/><g class="cls-10"><path d="M301.32,180.26V130.32h23.83a9.69,9.69,0,0,1,7.11,3,9.81,9.81,0,0,1,3,7.18v3.85a9.84,9.84,0,0,1-3,7.2,9.68,9.68,0,0,1-7.13,3h-4.3l13.76,23.66a3.94,3.94,0,0,1,.64,2.08,3.13,3.13,0,0,1-1,2.35,3.36,3.36,0,0,1-2.38,1,3.3,3.3,0,0,1-3.05-1.79L313,154.55h-4.87v25.71a3.18,3.18,0,0,1-1,2.38,3.36,3.36,0,0,1-2.43,1,3.35,3.35,0,0,1-3.37-3.36Zm6.74-32.45h17.09a3.36,3.36,0,0,0,3.37-3.37v-3.93a3.36,3.36,0,0,0-3.37-3.37H308.06Z"/><path d="M350.86,180.26V130.32h23.9a9.72,9.72,0,0,1,7.12,3,9.85,9.85,0,0,1,3,7.18v12.63a10.14,10.14,0,0,1-10.11,10.11H357.67v17a3.35,3.35,0,0,1-3.37,3.36,3.33,3.33,0,0,1-2.44-1A3.2,3.2,0,0,1,350.86,180.26Zm6.81-23.75h17.09a3.4,3.4,0,0,0,3.37-3.37V140.51a3.4,3.4,0,0,0-3.37-3.37H357.67Z"/></g></g></svg>