<svg xmlns="http://www.w3.org/2000/svg" viewBox="0 0 512 512"><defs><style>.cls-1{fill:#df9226;}.cls-2{fill:#ffc71c;}.cls-3,.cls-4{fill:#606161;}.cls-3{opacity:0.25;}.cls-5{fill:#48b4a9;}.cls-6{fill:none;}.cls-7{fill:#444883;}.cls-8{fill:#2a2c64;}</style></defs><g id="Layer_1" data-name="Layer 1"><path class="cls-1" d="M240.11,305.2,273,113.56A15.11,15.11,0,0,1,287.85,101h13.37l-22.8-29.93a14,14,0,0,0-17.59-4L158.26,120a14,14,0,0,0-6.95,16.7L205.8,309a17.71,17.71,0,0,0,25,10.4l10-5.14A18.93,18.93,0,0,1,240.11,305.2Z"/><path class="cls-2" d="M292.29,109a14,14,0,0,0-13.83,11.67L247.93,298.75a17.71,17.71,0,0,0,17.46,20.7h85.72V109Z"/><path class="cls-1" d="M453,298.66l-31.46-178A14,14,0,0,0,407.7,109H351.11V319.45h84.43A17.71,17.71,0,0,0,453,298.66Z"/><path class="cls-3" d="M264.51,102.57,228.07,315.12a21,21,0,0,0-.21,5.41,18.37,18.37,0,0,0,2.94-1.17l10-5.14a18.93,18.93,0,0,1-.65-9L273,113.56A15.11,15.11,0,0,1,287.85,101h13.37l-9.41-12.36H281A16.75,16.75,0,0,0,264.51,102.57Z"/><path class="cls-4" d="M228.7,396.11a36.06,36.06,0,1,0,36.05,36.05A36,36,0,0,0,228.7,396.11Zm0,51.74a15.69,15.69,0,1,1,15.68-15.69A15.69,15.69,0,0,1,228.7,447.85Z"/><path class="cls-4" d="M393.77,396.11a36.06,36.06,0,1,0,36.05,36.05A36.05,36.05,0,0,0,393.77,396.11Zm0,51.74a15.69,15.69,0,1,1,15.68-15.69A15.68,15.68,0,0,1,393.77,447.85Z"/><circle class="cls-4" cx="312.57" cy="134.17" r="10.14"/><circle class="cls-4" cx="387.76" cy="134.17" r="10.14"/><path class="cls-5" d="M387.76,136.48a4.86,4.86,0,0,1-4.86-4.86V100.87a32.74,32.74,0,0,0-65.47,0v30.75a4.86,4.86,0,0,1-9.72,0V100.87a42.46,42.46,0,0,1,84.91,0v30.75A4.86,4.86,0,0,1,387.76,136.48Z"/><circle class="cls-4" cx="187.81" cy="133.06" r="10.14"/><circle class="cls-4" cx="254.63" cy="98.6" r="10.14"/><path class="cls-5" d="M186.64,135.65a4.86,4.86,0,0,1-4.32-2.63l-14.1-27.33a42.45,42.45,0,0,1,75.46-38.92l14.1,27.33a4.86,4.86,0,0,1-8.64,4.46L235.05,71.23a32.74,32.74,0,0,0-58.19,30L191,128.57a4.85,4.85,0,0,1-2.09,6.54A4.78,4.78,0,0,1,186.64,135.65Z"/><polygon class="cls-6" points="157.14 271.92 167.51 309.77 221.46 309.77 216.53 271.92 157.14 271.92"/><polygon class="cls-6" points="242.7 309.77 298.03 309.77 298.03 271.92 237.76 271.92 242.7 309.77"/><polygon class="cls-6" points="235.02 250.87 298.03 250.87 298.03 223.67 231.48 223.67 235.02 250.87"/><polygon class="cls-6" points="319.08 309.77 372.55 309.77 377.21 271.92 319.08 271.92 319.08 309.77"/><path class="cls-6" d="M233.44,330.83H173.28l11.12,40.6a4.92,4.92,0,0,0,4.75,3.62H307.71V330.83H233.44Z"/><polygon class="cls-6" points="203.61 172.78 129.98 172.78 138.15 202.62 207.5 202.62 203.61 172.78"/><polygon class="cls-6" points="210.24 223.67 143.92 223.67 151.37 250.87 213.79 250.87 210.24 223.67"/><polygon class="cls-6" points="224.84 172.78 228.73 202.62 298.03 202.62 298.03 172.78 224.84 172.78"/><polygon class="cls-6" points="406.94 202.62 453.51 202.62 458.86 172.78 410.61 172.78 406.94 202.62"/><polygon class="cls-6" points="393.77 309.77 434.32 309.77 441.1 271.92 398.42 271.92 393.77 309.77"/><polygon class="cls-6" points="401.01 250.87 444.87 250.87 449.74 223.67 404.35 223.67 401.01 250.87"/><polygon class="cls-6" points="319.08 250.87 379.8 250.87 383.14 223.67 319.08 223.67 319.08 250.87"/><polygon class="cls-6" points="319.08 202.62 385.73 202.62 389.4 172.78 319.08 172.78 319.08 202.62"/><path class="cls-7" d="M444.7,396.11a10.82,10.82,0,0,0,11-10.21,10.53,10.53,0,0,0-10.52-10.85H307.71v21.06Z"/><path class="cls-8" d="M124.21,151.72l-12.08-44.09A13.84,13.84,0,0,0,98.79,97.45H41.33a10.82,10.82,0,0,0-11,10.2,10.53,10.53,0,0,0,10.52,10.86h49.6A3.65,3.65,0,0,1,94,121.2L167.38,389a9.66,9.66,0,0,0,9.32,7.11h131V375.05H189.15a4.92,4.92,0,0,1-4.75-3.62l-11.12-40.6H307.71V151.72ZM130,172.78h73.63l3.89,29.84H138.15Zm13.94,50.89h66.32l3.55,27.2H151.37Zm23.59,86.1-10.37-37.85h59.39l4.93,37.85Zm130.52,0H242.7l-4.94-37.85H298Zm0-58.9H235l-3.54-27.2H298Zm-69.3-48.25-3.89-29.84H298v29.84Z"/><path class="cls-7" d="M469.43,151.72H307.71V330.83H443.88a9.64,9.64,0,0,0,9.48-7.94l18.91-105.55a10.47,10.47,0,0,0,.87-4.19c0-.19,0-.36,0-.54l8.33-46.52A12.22,12.22,0,0,0,469.43,151.72Zm-96.88,158H319.08V271.92h58.13Zm7.25-58.9H319.08v-27.2h64.06Zm5.93-48.25H319.08V172.78H389.4Zm48.59,107.15H393.77l4.65-37.85H441.1Zm10.55-58.9H401l3.34-27.2h45.39Zm8.64-48.25H406.94l3.67-29.84h48.25Z"/></g></svg>