<svg xmlns="http://www.w3.org/2000/svg" viewBox="0 0 512 512"><defs><style>.cls-1{fill:#eba22f;}.cls-2{fill:#444883;}.cls-3{fill:#2a2c64;}.cls-4{fill:#ffc71c;}.cls-5{fill:#df9226;}</style></defs><g id="Layer_1" data-name="Layer 1"><circle class="cls-1" cx="411.18" cy="169.14" r="55.7"/><path class="cls-2" d="M358.42,280.59c-15.47-15.48-52-30.35-96.87-31.5,19,6.65,33.75,15.3,42.58,24.13,18.52,18.52,16.79,47.66,16.79,47.66L313.8,386a40.92,40.92,0,0,1-11.71,24.49h29.25a35.71,35.71,0,0,0,35.5-31.82L373,322S374.53,296.7,358.42,280.59Z"/><path class="cls-3" d="M320.92,320.88s1.73-29.14-16.79-47.66c-8.83-8.83-23.62-17.48-42.58-24.13-1.84,0-3.68-.08-5.55-.08-47.36,0-86.31,15.47-102.42,31.58S139,322,139,322l6.19,56.59a35.71,35.71,0,0,0,35.5,31.82H302.09A40.92,40.92,0,0,0,313.8,386Z"/><path class="cls-3" d="M256,92.12a69.61,69.61,0,0,0-20.43,3,69.68,69.68,0,0,1,0,133.23A69.67,69.67,0,1,0,256,92.12Z"/><ellipse class="cls-2" cx="235.57" cy="161.79" rx="49.24" ry="66.61"/><path class="cls-1" d="M99.61,113.44a55.38,55.38,0,0,0-15,2.06,55.7,55.7,0,0,1,0,107.29,55.7,55.7,0,1,0,15-109.35Z"/><ellipse class="cls-4" cx="84.61" cy="169.14" rx="40.71" ry="53.65"/><ellipse class="cls-4" cx="427.39" cy="169.14" rx="40.71" ry="53.65"/><path class="cls-4" d="M120.3,264.62c6.48-6.48,15.78-12.89,27.32-18.67a162.27,162.27,0,0,0-48-7.06c-37.87,0-69,12.37-81.9,25.25S6,297.28,6,297.28l5,45.25A28.55,28.55,0,0,0,39.36,368h66.89L101,319.53S99,286,120.3,264.62Z"/><path class="cls-4" d="M494.29,264.14c-12.88-12.88-44-25.25-81.9-25.25a162.27,162.27,0,0,0-48,7.06c11.55,5.78,20.84,12.19,27.32,18.67,21.35,21.34,19.35,54.91,19.35,54.91L405.75,368h66.89A28.55,28.55,0,0,0,501,342.53l5-45.25S507.17,277,494.29,264.14Z"/><path class="cls-5" d="M124.21,321.06s-1.69-28.53,16.45-46.67c6.63-6.63,16.71-13.16,29.42-18.78A109.76,109.76,0,0,0,147.62,246c-11.54,5.78-20.84,12.19-27.32,18.67C99,286,101,319.53,101,319.53l5.3,48.45h23.1Z"/><path class="cls-5" d="M391.7,264.62c-6.48-6.48-15.77-12.89-27.32-18.67a109.76,109.76,0,0,0-22.46,9.66c12.71,5.62,22.79,12.15,29.42,18.78,18.14,18.14,16.45,46.67,16.45,46.67L382.65,368h23.1l5.3-48.45S413.05,286,391.7,264.62Z"/></g></svg>