<?xml version="1.0" encoding="iso-8859-1"?>
<!-- Generator: Adobe Illustrator 19.0.0, SVG Export Plug-In . SVG Version: 6.00 Build 0)  -->
<svg version="1.1" id="Layer_1" xmlns="http://www.w3.org/2000/svg" xmlns:xlink="http://www.w3.org/1999/xlink" x="0px" y="0px"
	 viewBox="0 0 512 512" style="enable-background:new 0 0 512 512;" xml:space="preserve">
<path style="fill:#F2F2F2;" d="M256,512C114.512,512,0,397.503,0,256C0,114.512,114.497,0,256,0c141.488,0,256,114.497,256,256
	C512,397.488,397.503,512,256,512z"/>
<path style="fill:#AEB6BD;" d="M256,0v512c141.503,0,256-114.512,256-256C512,114.497,397.488,0,256,0z"/>
<path style="fill:#40596B;" d="M256,455.111C146.21,455.111,56.889,365.79,56.889,256S146.21,56.889,256,56.889
	S455.111,146.21,455.111,256S365.79,455.111,256,455.111z"/>
<path style="fill:#364C5C;" d="M256,56.889v398.222c109.79,0,199.111-89.321,199.111-199.111S365.79,56.889,256,56.889z"/>
<path style="fill:#2C3E4E;" d="M280.587,256c0,9.425,7.641,17.067,17.067,17.067h156.718c0.985-11.539,0.986-22.581,0-34.133
	H297.654C288.229,238.933,280.587,246.575,280.587,256z"/>
<path style="fill:#364C5C;" d="M231.287,238.933H57.628c-0.985,11.539-0.986,22.581,0,34.133h173.659
	c9.425,0,17.067-7.641,17.067-17.067C248.354,246.575,240.713,238.933,231.287,238.933z"/>
<path style="fill:#FFD15C;" d="M228.196,283.805c-26.111-26.115-16.567-70.146,17.194-83.605l73.618-29.385
	c13.898-5.548,27.723,8.288,22.176,22.179l-27.682,69.335C296.209,305.795,251.648,307.253,228.196,283.805z"/>
<path style="fill:#F8B64C;" d="M319.009,170.813L256,195.964v102.187c21.667,3.726,45.813-6.44,57.503-35.823l27.682-69.335
	C346.732,179.101,332.907,165.266,319.009,170.813z"/>
<g>
</g>
<g>
</g>
<g>
</g>
<g>
</g>
<g>
</g>
<g>
</g>
<g>
</g>
<g>
</g>
<g>
</g>
<g>
</g>
<g>
</g>
<g>
</g>
<g>
</g>
<g>
</g>
<g>
</g>
</svg>
