<svg xmlns="http://www.w3.org/2000/svg" viewBox="0 0 400 600"><defs><style>.cls-1{fill:#ffc71c;opacity:0.39;}.cls-2{fill:#f6f7f8;}.cls-3{fill:#e0e1e2;}.cls-4{fill:#d1d2d3;}.cls-5{fill:#444883;}.cls-6{fill:#2a2c64;}.cls-7{fill:#eba22f;}.cls-8{fill:#df9226;}.cls-9{fill:none;}</style></defs><g id="Layer_1" data-name="Layer 1"><rect class="cls-1" width="400" height="600" rx="27.26"/><rect class="cls-2" x="7.51" y="8.78" width="384.99" height="582.44" rx="24.12"/><path class="cls-3" d="M373.63,480.52c-2.62-22.2-15.13-47.63-33.47-68-20.39-22.67-45.21-36.59-69.88-39.18l-3.59-.38-3.05,1.93A118.68,118.68,0,0,1,200,393.28V414a139.42,139.42,0,0,0,71.48-19.63c36.19,5.83,69.54,43.52,79.18,77H200V492.1H375Z"/><path class="cls-4" d="M49.34,471.37c9.64-33.47,43-71.16,79.18-77A139.42,139.42,0,0,0,200,414V393.28a118.68,118.68,0,0,1-63.64-18.42l-3.05-1.93-3.59.38c-24.67,2.59-49.49,16.51-69.88,39.18-18.34,20.4-30.85,45.83-33.47,68L25,492.1H200V471.37Z"/><path class="cls-3" d="M331.66,239.56A131.66,131.66,0,0,1,200,371.23V107.9A131.66,131.66,0,0,1,331.66,239.56Z"/><path class="cls-4" d="M200,107.9V371.23a131.67,131.67,0,0,1,0-263.33Z"/><path class="cls-5" d="M130.81,383.62c-47.93,5-89.38,57.73-94.15,98.11H200V403.65A128.84,128.84,0,0,1,130.81,383.62Z"/><path class="cls-6" d="M269.19,383.62a128.84,128.84,0,0,1-69.19,20v78.08H363.34C358.57,441.35,317.12,388.66,269.19,383.62Z"/><path class="cls-5" d="M117.09,281H200v-163a121.51,121.51,0,0,0,0,243V332.25A92.66,92.66,0,0,1,117.09,281Z"/><path class="cls-6" d="M321.5,239.56A121.5,121.5,0,0,0,200,118.06V281h82.91A92.66,92.66,0,0,1,200,332.25v28.82A121.51,121.51,0,0,0,321.5,239.56Z"/><path class="cls-7" d="M200,332.25V281H117.09A92.66,92.66,0,0,0,200,332.25Z"/><path class="cls-8" d="M282.91,281H200v51.22A92.66,92.66,0,0,0,282.91,281Z"/><path class="cls-9" d="M350.66,471.37c-9.64-33.47-43-71.16-79.18-77A139.42,139.42,0,0,1,200,414v57.36Z"/><path class="cls-9" d="M49.34,471.37H200V414a139.42,139.42,0,0,1-71.48-19.63C92.33,400.21,59,437.9,49.34,471.37Z"/></g></svg>