<svg id="Layer_1" data-name="Layer 1" xmlns="http://www.w3.org/2000/svg" viewBox="0 0 300 180"><defs><style>.cls-1{fill:#c4c6c7;}.cls-2{fill:#d9dadb;}</style></defs><path class="cls-1" d="M184.32,42.89c-6.73,2.3-12.8,2.9-19,1.48-6.57-1.5-6.74-1.7-5.66-8.76.21,0,.46-.08.62,0,10.28,5.81,19.93,3.27,29.3-2.3,2.25-1.34,3.91-1,5.13,1.25q11.37,21.33,22.67,42.69a5.88,5.88,0,0,1,.36,3.44c-1.85,11.22-9.75,18.55-21.32,19.58-6,.54-12,.39-17.7-1.91-7.42-3-11.75-8.54-12.78-16.4a11.81,11.81,0,0,1,1.2-6.49C172.57,64.83,178.27,54.3,184.32,42.89Zm25.17,32.8c-6-11.21-11.78-21.87-17.75-33l-17.84,33Z"/><path class="cls-1" d="M140.55,35.13c.22,8.6,1.76,7.87-7,9.3-5.52.91-11.35,0-17-.18a12.79,12.79,0,0,0,.7,1.63c5.15,9.71,10.23,19.46,15.55,29.08A11.47,11.47,0,0,1,134,83.43c-2.08,9.42-8.78,15.28-19.74,16.72-6.3.82-12.64.68-18.64-1.9-8.06-3.46-12.16-9.92-13.39-18.35A6,6,0,0,1,83,76.52q10.91-20.65,21.91-41.24c1.75-3.28,2.9-3.29,6.2-1.47C120.52,39,130.16,41.47,140.55,35.13ZM126.19,75.71l-17.89-33-17.72,33Z"/><path class="cls-1" d="M113,129.63c-.79-8.4,5.23-15.32,13.17-15.35q24-.11,48.05,0c7.08,0,13,6,13.43,13.06.17,2.78-1.65,2.28-3.21,2.28q-23.85,0-47.71,0H113Z"/><path class="cls-2" d="M152.77,108h-5.62c-.07-1-.19-2-.19-2.91q0-36.14.06-72.27a5.68,5.68,0,0,1,1.53-3.9c1.48-1.3,3.81-.14,4.31,1.85a9.56,9.56,0,0,1,.13,2.28q0,35.81,0,71.61C153,105.74,152.85,106.8,152.77,108Z"/><path class="cls-2" d="M97.83,151.22v-9.8h2.8a3.11,3.11,0,0,1,2,.6,2,2,0,0,1,.74,1.64,2.35,2.35,0,0,1-1.69,2.32v0a2.49,2.49,0,0,1,1.58.75,2.29,2.29,0,0,1,.6,1.64,2.57,2.57,0,0,1-.9,2,3.39,3.39,0,0,1-2.28.78ZM99,142.46v3.16h1.18a2.25,2.25,0,0,0,1.48-.45,1.6,1.6,0,0,0,.54-1.29,1.28,1.28,0,0,0-.47-1.07,2.3,2.3,0,0,0-1.4-.35Zm0,4.19v3.53h1.56a2.34,2.34,0,0,0,1.57-.48,1.64,1.64,0,0,0,.55-1.31,1.49,1.49,0,0,0-.59-1.3,3,3,0,0,0-1.77-.44Z"/><path class="cls-2" d="M104.72,151.22l3.76-9.8h1.19l3.77,9.8h-1.27l-1-2.63h-4.24l-.94,2.63Zm2.6-3.66h3.49l-1.59-4.3a2.08,2.08,0,0,1-.08-.26c0-.11,0-.24-.07-.39h0a3.49,3.49,0,0,1-.07.37,1.87,1.87,0,0,1-.08.28Z"/><path class="cls-2" d="M121.94,150.55a5.84,5.84,0,0,1-1.56.62,6.87,6.87,0,0,1-1.72.21,4.53,4.53,0,0,1-3.42-1.3,4.94,4.94,0,0,1-1.27-3.63,5.07,5.07,0,0,1,1.42-3.79,5,5,0,0,1,3.64-1.41,6.52,6.52,0,0,1,1.51.17A6.06,6.06,0,0,1,122,142l-.47.93a4.93,4.93,0,0,0-1.2-.46,5.61,5.61,0,0,0-1.27-.14,3.77,3.77,0,0,0-2.76,1.07,4,4,0,0,0-1.09,3,4.19,4.19,0,0,0,1,3,3.49,3.49,0,0,0,2.68,1,5.27,5.27,0,0,0,1.08-.11,3.31,3.31,0,0,0,.91-.35v-2.74h-2.14v-1h3.29Z"/><path class="cls-2" d="M125.37,151.22h-1.15v-9.8h1.15Z"/><path class="cls-2" d="M126.81,151.22l3.76-9.8h1.19l3.77,9.8h-1.27l-1-2.63H129l-.93,2.63Zm2.6-3.66h3.48l-1.58-4.3a1.15,1.15,0,0,1-.08-.26c0-.11,0-.24-.07-.39h0c0,.13,0,.26-.07.37s-.06.2-.09.28Z"/><path class="cls-2" d="M144.88,151.22h-1.41l-5.05-7.81-.17-.31a2.92,2.92,0,0,1-.14-.31h0a4.15,4.15,0,0,1,0,.49c0,.23,0,.51,0,.86v7.08H137v-9.8h1.49l4.91,7.69.26.4.14.25h0a3.75,3.75,0,0,1-.05-.57c0-.24,0-.53,0-.87v-6.9h1.15Z"/><path class="cls-2" d="M159.6,151.22h-2.21v-4h-4.06v4h-2.21v-9.8h2.21v3.91h4.06v-3.91h2.21Z"/><path class="cls-2" d="M169.83,147a4.75,4.75,0,0,1-1,3.32,4.06,4.06,0,0,1-3.09,1.1,3.9,3.9,0,0,1-3-1.08,4.65,4.65,0,0,1-1-3.25v-5.64h2.21v5.68a2.88,2.88,0,0,0,.47,1.79,1.67,1.67,0,0,0,1.39.59,1.64,1.64,0,0,0,1.37-.57,2.76,2.76,0,0,0,.46-1.72v-5.77h2.2Z"/><path class="cls-2" d="M180.08,151.22h-2.75L174.47,147a1.46,1.46,0,0,1-.11-.2l-.15-.34h0v4.72H172v-9.8h2.21V146h0c0-.06.06-.14.11-.23s.1-.2.16-.31l2.71-4h2.56L176.38,146Z"/><path class="cls-2" d="M189,147a4.75,4.75,0,0,1-1,3.32,4.06,4.06,0,0,1-3.09,1.1,3.9,3.9,0,0,1-3-1.08,4.65,4.65,0,0,1-1-3.25v-5.64h2.21v5.68a2.88,2.88,0,0,0,.47,1.79,1.67,1.67,0,0,0,1.39.59,1.64,1.64,0,0,0,1.37-.57,2.76,2.76,0,0,0,.46-1.72v-5.77H189Z"/><path class="cls-2" d="M202.35,151.22h-2.18v-5.87c0-.31,0-.64,0-1s0-.72.06-1.1h-.06c-.06.3-.11.56-.16.77s-.1.39-.14.52l-2.3,6.67h-1.81l-2.33-6.6c0-.09-.07-.25-.13-.48s-.11-.52-.18-.88h-.06c0,.48,0,.93.06,1.36s0,.81,0,1.18v5.42h-2v-9.8h3.23l2,5.81a5.24,5.24,0,0,1,.2.64c.06.21.11.43.15.65h0l.19-.7c.07-.22.13-.42.2-.61l2-5.79h3.16Z"/><path class="cls-2" d="M101.83,162.24l.59-1.11a3.64,3.64,0,0,0,.83.38,2.55,2.55,0,0,0,.74.1,1.18,1.18,0,0,0,.75-.2.74.74,0,0,0,.05-1,1.78,1.78,0,0,0-.72-.29,3.35,3.35,0,0,1-1.54-.69,1.6,1.6,0,0,1-.48-1.24,1.8,1.8,0,0,1,.62-1.37,2.51,2.51,0,0,1,1.75-.56,4.05,4.05,0,0,1,.92.1,4.11,4.11,0,0,1,.85.31l-.53,1.13a3.28,3.28,0,0,0-.69-.3,2.18,2.18,0,0,0-.6-.09,1.16,1.16,0,0,0-.67.17.59.59,0,0,0,0,.93,2.63,2.63,0,0,0,.79.28,3,3,0,0,1,1.49.7,1.77,1.77,0,0,1,.45,1.3,1.86,1.86,0,0,1-.63,1.46,2.7,2.7,0,0,1-1.84.56,4.81,4.81,0,0,1-1.1-.14A4.43,4.43,0,0,1,101.83,162.24Z"/><path class="cls-2" d="M111.21,162.66h-3.8v-6.34h3.65v1.16h-2.22v1.41h2.07v1.16h-2.07v1.45h2.37Z"/><path class="cls-2" d="M117.47,162.66h-1.78l-1.85-2.7-.07-.13c0-.06-.06-.13-.1-.22h0v3h-1.42v-6.34h1.42v2.94h0a1.07,1.07,0,0,0,.07-.15l.11-.2,1.75-2.59h1.66l-2.18,3Z"/><path class="cls-2" d="M123.24,162.66h-1.61l-.85-1.56a2.23,2.23,0,0,0-.4-.58.82.82,0,0,0-.47-.22h-.39v2.36H118.1v-6.34h2.26a2.76,2.76,0,0,1,1.72.45,1.59,1.59,0,0,1,.58,1.35,1.63,1.63,0,0,1-.37,1.08,2.19,2.19,0,0,1-1,.68v0a1.08,1.08,0,0,1,.53.37,3.69,3.69,0,0,1,.42.58Zm-3.72-5.27v1.83h.62a1,1,0,0,0,.74-.27.94.94,0,0,0,.28-.69.8.8,0,0,0-.25-.65,1.06,1.06,0,0,0-.74-.22Z"/><path class="cls-2" d="M127.8,162.66H124v-6.34h3.65v1.16h-2.22v1.41h2.07v1.16h-2.07v1.45h2.37Z"/><path class="cls-2" d="M133.33,157.48h-1.8v5.18H130.1v-5.18h-1.8v-1.16h5Z"/><path class="cls-2" d="M132.88,162.66l2.3-6.34h1.7l2.25,6.34h-1.56l-.43-1.32h-2.29l-.43,1.32Zm2.28-2.44h1.65l-.69-2.2c0-.08-.05-.16-.07-.22s0-.14,0-.24h0c0,.09,0,.17,0,.23s0,.14-.07.22Z"/><path class="cls-2" d="M145.06,162.66h-1.61l-.84-1.56a2.23,2.23,0,0,0-.41-.58.82.82,0,0,0-.47-.22h-.39v2.36h-1.42v-6.34h2.26a2.79,2.79,0,0,1,1.73.45,1.83,1.83,0,0,1,.2,2.43,2.11,2.11,0,0,1-1,.68v0a1.12,1.12,0,0,1,.53.37,3.62,3.62,0,0,1,.41.58Zm-3.72-5.27v1.83H142a1,1,0,0,0,.74-.27.94.94,0,0,0,.28-.69.82.82,0,0,0-.24-.65,1.1,1.1,0,0,0-.75-.22Z"/><path class="cls-2" d="M147.25,162.66h-1.43v-6.34h1.43Z"/><path class="cls-2" d="M148,162.66l2.3-6.34H152l2.25,6.34H152.7l-.43-1.32H150l-.43,1.32Zm2.28-2.44h1.65l-.69-2.2c0-.08-.05-.16-.07-.22s0-.14,0-.24h0c0,.09,0,.17,0,.23s0,.14-.07.22Z"/><path class="cls-2" d="M158.86,157.48h-1.81v5.18h-1.43v-5.18h-1.8v-1.16h5Z"/><path class="cls-2" d="M162.21,162.66v-6.34h2.24a3.65,3.65,0,0,1,2.53.77,3,3,0,0,1,.85,2.32,3.13,3.13,0,0,1-.92,2.36,3.42,3.42,0,0,1-2.46.89Zm1.43-5.18v4h.7a1.92,1.92,0,0,0,1.46-.56,2.1,2.1,0,0,0,.53-1.51,1.92,1.92,0,0,0-.53-1.43,2,2,0,0,0-1.47-.52Z"/><path class="cls-2" d="M168.06,162.66l2.31-6.34h1.69l2.25,6.34h-1.55l-.43-1.32H170l-.42,1.32Zm2.28-2.44H172l-.7-2.2c0-.08-.05-.16-.07-.22s0-.14,0-.24h0c0,.09,0,.17,0,.23s0,.14-.06.22Z"/><path class="cls-2" d="M178.9,162.66h-3.8v-6.34h3.65v1.16h-2.22v1.41h2.07v1.16h-2.07v1.45h2.37Z"/><path class="cls-2" d="M185.06,162.66h-1.61l-.85-1.56a2,2,0,0,0-.41-.58.77.77,0,0,0-.47-.22h-.38v2.36h-1.43v-6.34h2.26a2.77,2.77,0,0,1,1.73.45,1.59,1.59,0,0,1,.58,1.35,1.63,1.63,0,0,1-.37,1.08,2.19,2.19,0,0,1-1,.68v0a1.08,1.08,0,0,1,.53.37,4.47,4.47,0,0,1,.42.58Zm-3.72-5.27v1.83H182a1,1,0,0,0,.74-.27.94.94,0,0,0,.28-.69.83.83,0,0,0-.25-.65,1.07,1.07,0,0,0-.75-.22Z"/><path class="cls-2" d="M185.14,162.66l2.3-6.34h1.69l2.26,6.34h-1.56l-.43-1.32h-2.29l-.43,1.32Zm2.28-2.44h1.65l-.7-2.2c0-.08,0-.16-.06-.22a1.19,1.19,0,0,1,0-.24h0c0,.09,0,.17,0,.23s0,.14-.07.22Z"/><path class="cls-2" d="M197.66,162.66h-1.44v-2.58H193.6v2.58h-1.42v-6.34h1.42v2.53h2.62v-2.53h1.44Z"/></svg>