<svg id="Layer_1" data-name="Layer 1" xmlns="http://www.w3.org/2000/svg" viewBox="0 0 180 180"><defs><style>.cls-1{fill:#4b4b4b;}.cls-2{fill:gray;}</style></defs><path class="cls-1" d="M29.6,128.5a3.88,3.88,0,0,1,0-6.94v-5a3.88,3.88,0,0,1,0-6.94V72H13.85A13.85,13.85,0,0,0,0,85.84v9.34A13.85,13.85,0,0,0,13.85,109v30s3.65,6.7,10.5,6.7c5.61,0,5.25-6.7,5.25-6.7Z"/><path class="cls-1" d="M93.47,46.89C79.41,64,68.11,72,52.78,72H35.29v37H52.78c18.82,0,31.83,13.57,40.69,24.73Z"/><path class="cls-1" d="M98.2,40.92v99c0,1.09.59,1.69,2.08,1.69s1.93-.47,1.93-1.59V40.86c0-1.28-2-1.5-2-1.5C99.23,39.35,98.2,39.74,98.2,40.92Z"/><path class="cls-2" d="M122.21,103.27l6.82,6.82c15-10.33,15-35,0-44.16l-6.87,6.9c5.12,3.66,8.38,9.13,8.38,15.24S127.3,99.62,122.21,103.27Z"/><path class="cls-2" d="M160.54,34.23,153.81,41c22.44,28.19,19.49,69.74,0,93.86l6.73,6.74C185.44,121.57,187.52,56.83,160.54,34.23Z"/><path class="cls-2" d="M138.49,119.55l7.22,7.22c20-16.81,17.29-65.58-.07-77.55l-7.38,7.42C155,70.42,153.62,106.3,138.49,119.55Z"/></svg>