<svg id="Layer_1" data-name="Layer 1" xmlns="http://www.w3.org/2000/svg" viewBox="0 0 300 180"><defs><style>.cls-1{fill:#2c2c64;}.cls-2{fill:#282528;}.cls-3{fill:#e69e1c;}</style></defs><path d="M9.92,150.68v-8.41h2.39a2.7,2.7,0,0,1,1.73.52,1.74,1.74,0,0,1,.63,1.41,2,2,0,0,1-.38,1.24,2.14,2.14,0,0,1-1.07.75v0a2.15,2.15,0,0,1,1.36.64,2,2,0,0,1,.51,1.41,2.22,2.22,0,0,1-.77,1.75,2.92,2.92,0,0,1-2,.67Zm1-7.52v2.72h1a1.91,1.91,0,0,0,1.27-.39,1.36,1.36,0,0,0,.46-1.1,1.07,1.07,0,0,0-.4-.92,2,2,0,0,0-1.2-.31Zm0,3.6v3h1.34a2,2,0,0,0,1.34-.41,1.42,1.42,0,0,0,.48-1.13,1.3,1.3,0,0,0-.51-1.12,2.62,2.62,0,0,0-1.52-.37Z"/><path d="M15.82,150.68l3.23-8.41h1l3.24,8.41H22.21l-.85-2.25H17.72l-.8,2.25Zm2.23-3.14h3l-1.36-3.68a1,1,0,0,1-.07-.23c0-.1,0-.21-.06-.34h0a2.21,2.21,0,0,1-.07.32,1.49,1.49,0,0,1-.07.25Z"/><path d="M30.58,150.1a5.31,5.31,0,0,1-1.33.54,5.94,5.94,0,0,1-1.48.18,3.87,3.87,0,0,1-2.93-1.12,4.24,4.24,0,0,1-1.09-3.11A4.36,4.36,0,0,1,25,143.34a4.22,4.22,0,0,1,3.12-1.21,5.31,5.31,0,0,1,1.29.15,5.23,5.23,0,0,1,1.22.46l-.4.79a4.51,4.51,0,0,0-1-.39,4.73,4.73,0,0,0-1.09-.12,3.24,3.24,0,0,0-2.37.92,3.46,3.46,0,0,0-.93,2.58,3.57,3.57,0,0,0,.82,2.55,3,3,0,0,0,2.29.86,4.42,4.42,0,0,0,.92-.09,3.24,3.24,0,0,0,.79-.3v-2.36H27.76v-.89h2.82Z"/><path d="M33.52,150.68h-1v-8.41h1Z"/><path d="M34.75,150.68,38,142.27h1l3.23,8.41H41.14l-.85-2.25H36.65l-.8,2.25ZM37,147.54h3l-1.36-3.68a1.09,1.09,0,0,1-.06-.23c0-.1,0-.21-.07-.34h0c0,.12,0,.23-.06.32s0,.18-.08.25Z"/><path d="M50.24,150.68H49L44.71,144a1.74,1.74,0,0,1-.15-.26c0-.09-.09-.18-.12-.27h0a3,3,0,0,1,0,.42c0,.19,0,.44,0,.74v6.07h-1v-8.41h1.27l4.21,6.6.22.34a1.28,1.28,0,0,1,.12.22h0c0-.12,0-.29,0-.49s0-.46,0-.75v-5.92h1Z"/><path d="M57.48,147.92v2.76H55.59v-8.41h3a3.56,3.56,0,0,1,2.38.69,2.57,2.57,0,0,1,.79,2.06,2.64,2.64,0,0,1-.91,2.1,3.53,3.53,0,0,1-2.43.8Zm0-4.19v2.76h.75a1.63,1.63,0,0,0,1.13-.35,1.36,1.36,0,0,0,.38-1,1.29,1.29,0,0,0-.38-1,1.62,1.62,0,0,0-1.13-.34Z"/><path d="M69.79,150.68H67.65l-1.12-2.07a2.92,2.92,0,0,0-.54-.76,1,1,0,0,0-.63-.3h-.51v3.13H63v-8.41h3a3.7,3.7,0,0,1,2.3.6,2.1,2.1,0,0,1,.76,1.78,2.23,2.23,0,0,1-.49,1.45,2.89,2.89,0,0,1-1.35.89v0a1.61,1.61,0,0,1,.7.5,4.43,4.43,0,0,1,.55.78Zm-4.94-7v2.43h.82a1.34,1.34,0,0,0,1-.37,1.25,1.25,0,0,0,.37-.91,1.08,1.08,0,0,0-.33-.86,1.48,1.48,0,0,0-1-.29Z"/><path d="M74.23,150.82a3.92,3.92,0,0,1-2.94-1.17,4.23,4.23,0,0,1-1.14-3.06,4.54,4.54,0,0,1,1.16-3.23,4,4,0,0,1,3-1.23,3.83,3.83,0,0,1,2.91,1.18,4.35,4.35,0,0,1,1.11,3.11,4.43,4.43,0,0,1-1.15,3.19A4,4,0,0,1,74.23,150.82Zm0-1.63a1.92,1.92,0,0,0,1.56-.71,3,3,0,0,0,.57-2,3.2,3.2,0,0,0-.56-2,1.79,1.79,0,0,0-1.52-.73,1.9,1.9,0,0,0-1.58.75,3.13,3.13,0,0,0-.59,2,3,3,0,0,0,.59,2A1.86,1.86,0,0,0,74.26,149.19Z"/><path d="M85.19,143.81H82.8v6.87H80.9v-6.87H78.51v-1.54h6.68Z"/><path d="M89.43,150.82a3.92,3.92,0,0,1-2.94-1.17,4.22,4.22,0,0,1-1.13-3.06,4.53,4.53,0,0,1,1.15-3.23,4,4,0,0,1,3.06-1.23,3.83,3.83,0,0,1,2.91,1.18,4.35,4.35,0,0,1,1.11,3.11,4.47,4.47,0,0,1-1.15,3.19A4,4,0,0,1,89.43,150.82Zm0-1.63a1.9,1.9,0,0,0,1.55-.71,3,3,0,0,0,.58-2,3.27,3.27,0,0,0-.56-2,1.8,1.8,0,0,0-1.52-.73,1.91,1.91,0,0,0-1.59.75,3.13,3.13,0,0,0-.58,2,3,3,0,0,0,.58,2A1.88,1.88,0,0,0,89.47,149.19Z"/><path d="M101.94,150.68H99.58l-2.45-3.58a.87.87,0,0,1-.09-.17l-.14-.3h0v4.05H95v-8.41h1.9v3.9h0s.06-.12.1-.2.08-.17.14-.27l2.32-3.43h2.2l-2.89,4Z"/><path d="M106,150.82a3.92,3.92,0,0,1-2.94-1.17,4.27,4.27,0,0,1-1.13-3.06,4.53,4.53,0,0,1,1.15-3.23,4,4,0,0,1,3.06-1.23,3.83,3.83,0,0,1,2.91,1.18,4.35,4.35,0,0,1,1.11,3.11,4.43,4.43,0,0,1-1.15,3.19A4,4,0,0,1,106,150.82Zm0-1.63a1.9,1.9,0,0,0,1.55-.71,3,3,0,0,0,.58-2,3.27,3.27,0,0,0-.56-2,1.8,1.8,0,0,0-1.52-.73,1.92,1.92,0,0,0-1.59.75,3.13,3.13,0,0,0-.58,2,3,3,0,0,0,.58,2A1.89,1.89,0,0,0,106,149.19Z"/><path d="M116.53,150.68h-5v-8.41h1.9v6.87h3.11Z"/><path d="M121,150.68v-8.41h3a4.77,4.77,0,0,1,3.35,1,3.93,3.93,0,0,1,1.12,3.07,4.11,4.11,0,0,1-1.22,3.13,4.46,4.46,0,0,1-3.25,1.18Zm1.89-6.87v5.33h.94a2.55,2.55,0,0,0,1.93-.74,2.78,2.78,0,0,0,.7-2,2.55,2.55,0,0,0-.69-1.89,2.67,2.67,0,0,0-1.95-.69Z"/><path d="M128.73,150.68l3.06-8.41H134l3,8.41H135l-.57-1.76h-3l-.57,1.76Zm3-3.23H134l-.92-2.92q-.06-.18-.09-.3a2,2,0,0,1-.05-.32h0c0,.12,0,.22-.06.31a3,3,0,0,1-.09.29Z"/><path d="M145.63,150.68h-1.91l-3.46-5.28L140,145l-.16-.29h0c0,.15,0,.34,0,.56s0,.49,0,.8v4.62h-1.79v-8.41h2l3.34,5.12c.07.11.14.23.22.34l.2.34h0a3.55,3.55,0,0,1,0-.43c0-.2,0-.43,0-.72v-4.65h1.79Z"/><path d="M157.82,150.68h-2.36L153,147.1a.87.87,0,0,1-.09-.17c0-.08-.08-.18-.13-.3h0v4.05h-1.9v-8.41h1.9v3.9h0l.09-.2.14-.27,2.32-3.43h2.2l-2.89,4Z"/><path d="M161.86,150.82a3.93,3.93,0,0,1-3-1.17,4.27,4.27,0,0,1-1.13-3.06,4.53,4.53,0,0,1,1.15-3.23,4,4,0,0,1,3.06-1.23,3.83,3.83,0,0,1,2.91,1.18,4.35,4.35,0,0,1,1.11,3.11,4.43,4.43,0,0,1-1.15,3.19A4,4,0,0,1,161.86,150.82Zm0-1.63a1.9,1.9,0,0,0,1.55-.71,3,3,0,0,0,.58-2,3.27,3.27,0,0,0-.56-2,1.8,1.8,0,0,0-1.52-.73,1.89,1.89,0,0,0-1.58.75,3.13,3.13,0,0,0-.59,2,3,3,0,0,0,.59,2A1.86,1.86,0,0,0,161.89,149.19Z"/><path d="M177,150.68h-1.87v-5c0-.27,0-.56,0-.86s0-.61.05-.94h-.05c0,.26-.09.48-.13.66s-.09.34-.13.45l-2,5.72h-1.55l-2-5.66c0-.08-.06-.21-.11-.41s-.1-.45-.15-.76H169q0,.61.06,1.17c0,.36,0,.7,0,1v4.65H167.4v-8.41h2.78l1.71,5c.07.19.13.37.18.55l.12.56h0c.05-.21.11-.41.16-.6s.11-.36.17-.52l1.72-5H177Z"/><path d="M185.74,147a4.07,4.07,0,0,1-.88,2.84,3.45,3.45,0,0,1-2.65.94,3.37,3.37,0,0,1-2.57-.92,4,4,0,0,1-.85-2.79v-4.84h1.9v4.88a2.43,2.43,0,0,0,.4,1.53,1.41,1.41,0,0,0,1.19.51,1.43,1.43,0,0,0,1.18-.49,2.36,2.36,0,0,0,.39-1.48v-4.95h1.89Z"/><path d="M195.13,150.68h-1.91l-3.47-5.28-.26-.41-.16-.29h0c0,.15,0,.34,0,.56s0,.49,0,.8v4.62h-1.78v-8.41h2l3.33,5.12.22.34.2.34h0a3.14,3.14,0,0,1,0-.43c0-.2,0-.43,0-.72v-4.65h1.79Z"/><path d="M198.94,150.68h-1.89v-8.41h1.89Z"/><path d="M207.81,150.68h-2.37L203,147.1l-.09-.17c0-.08-.08-.18-.13-.3h0v4.05h-1.89v-8.41h1.89v3.9h0s.06-.12.1-.2a1.76,1.76,0,0,1,.14-.27l2.32-3.43h2.19l-2.88,4Z"/><path d="M207.73,150.68l3.06-8.41H213l3,8.41H214l-.57-1.76h-3l-.56,1.76Zm3-3.23H213l-.93-2.92c0-.12-.06-.22-.09-.3a2,2,0,0,1-.05-.32h0c0,.12,0,.22-.06.31l-.08.29Z"/><path d="M216.39,150.12l.78-1.47a5.13,5.13,0,0,0,1.1.51,3.93,3.93,0,0,0,1,.13,1.63,1.63,0,0,0,1-.26.89.89,0,0,0,.32-.72.85.85,0,0,0-.26-.66,2.34,2.34,0,0,0-.95-.39,4.52,4.52,0,0,1-2-.91,2.15,2.15,0,0,1-.64-1.66,2.35,2.35,0,0,1,.82-1.81,3.34,3.34,0,0,1,2.32-.75,5.57,5.57,0,0,1,1.22.14,5.44,5.44,0,0,1,1.13.41l-.71,1.5a3.33,3.33,0,0,0-.91-.39,2.93,2.93,0,0,0-.8-.12,1.51,1.51,0,0,0-.88.22.74.74,0,0,0-.32.64.7.7,0,0,0,.29.59,3.31,3.31,0,0,0,1,.37,4.06,4.06,0,0,1,2,.93,2.37,2.37,0,0,1,.61,1.73,2.44,2.44,0,0,1-.84,1.93,3.56,3.56,0,0,1-2.44.74,6.27,6.27,0,0,1-1.46-.18A5.5,5.5,0,0,1,216.39,150.12Z"/><path d="M225.69,150.68H223.8v-8.41h1.89Z"/><path d="M232.81,147.92v2.76h-1.9v-8.41h3a3.54,3.54,0,0,1,2.38.69,2.57,2.57,0,0,1,.8,2.06,2.65,2.65,0,0,1-.92,2.1,3.51,3.51,0,0,1-2.43.8Zm0-4.19v2.76h.74a1.61,1.61,0,0,0,1.13-.35,1.33,1.33,0,0,0,.38-1,1.26,1.26,0,0,0-.38-1,1.61,1.61,0,0,0-1.13-.34Z"/><path d="M240.18,150.68h-1.89v-8.41h1.89Z"/><path d="M251.66,150.68h-1.87v-5c0-.27,0-.56,0-.86s0-.61.05-.94h0c0,.26-.1.48-.14.66a2.27,2.27,0,0,1-.13.45l-2,5.72H246L244,145c0-.08-.06-.21-.1-.41s-.1-.45-.16-.76h-.05q0,.61.06,1.17c0,.36,0,.7,0,1v4.65h-1.7v-8.41h2.77l1.72,5c.07.19.12.37.17.55s.09.37.13.56h0c.06-.21.11-.41.16-.6l.17-.52,1.72-5h2.7Z"/><path d="M255.47,147.92v2.76h-1.9v-8.41h3a3.54,3.54,0,0,1,2.38.69,2.57,2.57,0,0,1,.79,2.06,2.64,2.64,0,0,1-.91,2.1,3.53,3.53,0,0,1-2.43.8Zm0-4.19v2.76h.74a1.63,1.63,0,0,0,1.13-.35,1.33,1.33,0,0,0,.38-1,1.26,1.26,0,0,0-.38-1,1.62,1.62,0,0,0-1.13-.34Z"/><path d="M262.84,150.68h-1.9v-8.41h1.9Z"/><path d="M272.31,150.68h-1.92l-3.46-5.28-.26-.41-.16-.29h0c0,.15,0,.34,0,.56s0,.49,0,.8v4.62h-1.78v-8.41h2l3.33,5.12.22.34.2.34h0c0-.09,0-.24,0-.43s0-.43,0-.72v-4.65h1.79Z"/><path d="M273.32,150.68l3.06-8.41h2.25l3,8.41h-2.07l-.57-1.76h-3l-.56,1.76Zm3-3.23h2.2l-.93-2.92c0-.12-.06-.22-.09-.3a2,2,0,0,1,0-.32h-.05c0,.12,0,.22-.06.31l-.08.29Z"/><path d="M290.22,150.68h-1.91l-3.46-5.28-.26-.41-.16-.29h0c0,.15,0,.34,0,.56s0,.49,0,.8v4.62h-1.79v-8.41h2l3.34,5.12c.07.11.14.23.22.34l.2.34h0c0-.09,0-.24,0-.43s0-.43,0-.72v-4.65h1.78Z"/><path d="M101.83,162.24l.59-1.11a3.64,3.64,0,0,0,.83.38,2.55,2.55,0,0,0,.74.1,1.18,1.18,0,0,0,.75-.2.74.74,0,0,0,.05-1,1.78,1.78,0,0,0-.72-.29,3.35,3.35,0,0,1-1.54-.69,1.61,1.61,0,0,1-.48-1.24,1.8,1.8,0,0,1,.62-1.37,2.51,2.51,0,0,1,1.75-.56,4.05,4.05,0,0,1,.92.1,4.11,4.11,0,0,1,.85.31l-.53,1.13a3.28,3.28,0,0,0-.69-.3,2.18,2.18,0,0,0-.6-.09,1.16,1.16,0,0,0-.67.17.55.55,0,0,0-.24.48.52.52,0,0,0,.22.44,2.34,2.34,0,0,0,.79.29,3,3,0,0,1,1.49.7,1.77,1.77,0,0,1,.45,1.3,1.86,1.86,0,0,1-.63,1.46,2.7,2.7,0,0,1-1.84.56,4.81,4.81,0,0,1-1.1-.14A4.43,4.43,0,0,1,101.83,162.24Z"/><path d="M111.21,162.66h-3.8v-6.34h3.65v1.16h-2.22v1.41h2.07v1.16h-2.07v1.45h2.37Z"/><path d="M117.47,162.66h-1.78l-1.85-2.7-.07-.13c0-.06-.06-.13-.1-.22h0v3h-1.42v-6.34h1.42v2.94h0a1.07,1.07,0,0,0,.07-.15l.11-.2,1.75-2.59h1.66l-2.18,3Z"/><path d="M123.24,162.66h-1.61l-.85-1.56a2.23,2.23,0,0,0-.4-.58.82.82,0,0,0-.47-.22h-.39v2.36H118.1v-6.34h2.26a2.76,2.76,0,0,1,1.72.45,1.59,1.59,0,0,1,.58,1.35,1.63,1.63,0,0,1-.37,1.08,2.19,2.19,0,0,1-1,.68v0a1.08,1.08,0,0,1,.53.37,3.69,3.69,0,0,1,.42.58Zm-3.72-5.27v1.83h.62a1,1,0,0,0,.74-.27.94.94,0,0,0,.28-.69.8.8,0,0,0-.25-.65,1.06,1.06,0,0,0-.74-.22Z"/><path d="M127.8,162.66H124v-6.34h3.65v1.16h-2.22v1.41h2.07v1.16h-2.07v1.45h2.37Z"/><path d="M133.33,157.48h-1.8v5.18H130.1v-5.18h-1.8v-1.16h5Z"/><path d="M132.88,162.66l2.3-6.34h1.7l2.25,6.34h-1.56l-.43-1.32h-2.29l-.43,1.32Zm2.28-2.44h1.65l-.69-2.2-.07-.22c0-.06,0-.14,0-.24h0c0,.09,0,.16,0,.23s0,.14-.07.21Z"/><path d="M145.06,162.66h-1.61l-.84-1.56a2.23,2.23,0,0,0-.41-.58.82.82,0,0,0-.47-.22h-.39v2.36h-1.42v-6.34h2.26a2.79,2.79,0,0,1,1.73.45,1.83,1.83,0,0,1,.2,2.43,2.11,2.11,0,0,1-1,.68v0a1.12,1.12,0,0,1,.53.37,3.62,3.62,0,0,1,.41.58Zm-3.72-5.27v1.83H142a1,1,0,0,0,.74-.27.94.94,0,0,0,.28-.69.82.82,0,0,0-.24-.65,1.1,1.1,0,0,0-.75-.22Z"/><path d="M147.25,162.66h-1.43v-6.34h1.43Z"/><path d="M148,162.66l2.3-6.34H152l2.25,6.34H152.7l-.43-1.32H150l-.43,1.32Zm2.28-2.44h1.65l-.69-2.2-.07-.22c0-.06,0-.14,0-.24h0c0,.09,0,.16,0,.23s0,.14-.07.21Z"/><path d="M158.86,157.48h-1.81v5.18h-1.43v-5.18h-1.8v-1.16h5Z"/><path d="M162.21,162.66v-6.34h2.24a3.65,3.65,0,0,1,2.53.77,3,3,0,0,1,.85,2.32,3.13,3.13,0,0,1-.92,2.36,3.42,3.42,0,0,1-2.46.89Zm1.43-5.18v4h.7a1.92,1.92,0,0,0,1.46-.56,2.1,2.1,0,0,0,.53-1.51,1.92,1.92,0,0,0-.53-1.43,2,2,0,0,0-1.47-.52Z"/><path d="M168.06,162.66l2.31-6.34h1.69l2.25,6.34h-1.55l-.43-1.32H170l-.42,1.32Zm2.28-2.44H172l-.7-2.2-.07-.22c0-.06,0-.14,0-.24h0c0,.09,0,.16,0,.23s0,.14-.06.21Z"/><path d="M178.9,162.66h-3.8v-6.34h3.65v1.16h-2.22v1.41h2.07v1.16h-2.07v1.45h2.37Z"/><path d="M185.06,162.66h-1.61l-.85-1.56a2,2,0,0,0-.41-.58.77.77,0,0,0-.47-.22h-.38v2.36h-1.43v-6.34h2.26a2.77,2.77,0,0,1,1.73.45,1.59,1.59,0,0,1,.58,1.35,1.63,1.63,0,0,1-.37,1.08,2.19,2.19,0,0,1-1,.68v0a1.08,1.08,0,0,1,.53.37,4.47,4.47,0,0,1,.42.58Zm-3.72-5.27v1.83H182a1,1,0,0,0,.74-.27.94.94,0,0,0,.28-.69.83.83,0,0,0-.25-.65,1.07,1.07,0,0,0-.75-.22Z"/><path d="M185.14,162.66l2.3-6.34h1.69l2.26,6.34h-1.56l-.43-1.32h-2.29l-.43,1.32Zm2.28-2.44h1.65l-.7-2.2a2.18,2.18,0,0,0-.06-.22,1.19,1.19,0,0,1,0-.24h0c0,.09,0,.16,0,.23s0,.14-.07.21Z"/><path d="M197.66,162.66h-1.44v-2.58H193.6v2.58h-1.42v-6.34h1.42v2.53h2.62v-2.53h1.44Z"/><path class="cls-1" d="M104,103.05a3,3,0,0,1,0-5.28V93.93a3,3,0,0,1,0-5.28V60H92A10.55,10.55,0,0,0,81.42,70.55v7.11A10.55,10.55,0,0,0,92,88.21V111.1s2.78,5.11,8,5.11c4.28,0,4-5.11,4-5.11Z"/><path class="cls-2" d="M152.64,40.87c-10.71,13-19.32,19.12-31,19.12H108.31V88.21h13.33c14.34,0,24.25,10.35,31,18.85Z"/><path class="cls-1" d="M156.25,36.32v75.43c0,.83.45,1.28,1.59,1.28s1.47-.36,1.47-1.2V36.27c0-1-1.53-1.15-1.53-1.15C157,35.12,156.25,35.42,156.25,36.32Z"/><path class="cls-3" d="M174.55,83.83,179.74,89c11.43-7.86,11.42-26.64,0-33.65l-5.23,5.26a13.76,13.76,0,0,1,0,23.2Z"/><path class="cls-3" d="M203.75,31.21l-5.13,5.17c17.1,21.47,14.85,53.14,0,71.52l5.13,5.13C222.72,97.77,224.31,48.44,203.75,31.21Z"/><path class="cls-3" d="M187,96.24l5.5,5.49c15.27-12.8,13.17-50,0-59.09l-5.63,5.65C199.54,58.8,198.48,86.14,187,96.24Z"/></svg>