<svg id="Layer_1" data-name="Layer 1" xmlns="http://www.w3.org/2000/svg" viewBox="0 0 300 180"><defs><style>.cls-1{fill:#d9dadb;}.cls-2{fill:#c4c6c7;}</style></defs><path class="cls-1" d="M20.38,151.22v-9.87h2.81a3.09,3.09,0,0,1,2,.61A2,2,0,0,1,26,143.6a2.42,2.42,0,0,1-.46,1.46,2.45,2.45,0,0,1-1.25.89v0a2.52,2.52,0,0,1,1.6.76,2.29,2.29,0,0,1,.6,1.65,2.58,2.58,0,0,1-.91,2.05,3.37,3.37,0,0,1-2.3.79Zm1.15-8.83v3.19h1.19a2.21,2.21,0,0,0,1.49-.46,1.58,1.58,0,0,0,.54-1.29,1.26,1.26,0,0,0-.47-1.08,2.33,2.33,0,0,0-1.41-.36Zm0,4.23v3.55H23.1a2.35,2.35,0,0,0,1.58-.48,1.63,1.63,0,0,0,.56-1.32,1.51,1.51,0,0,0-.59-1.31,3,3,0,0,0-1.79-.44Z"/><path class="cls-1" d="M27.32,151.22l3.78-9.87h1.2l3.8,9.87H34.82l-1-2.64H29.55l-.95,2.64Zm2.61-3.68h3.51l-1.59-4.33a1.25,1.25,0,0,1-.08-.27l-.08-.4h0c0,.14-.05.27-.07.38s-.06.2-.09.29Z"/><path class="cls-1" d="M44.66,150.54a6.45,6.45,0,0,1-1.57.63,7,7,0,0,1-1.74.21,4.59,4.59,0,0,1-3.44-1.3,5.06,5.06,0,0,1-1.28-3.67,5.12,5.12,0,0,1,1.43-3.81,5,5,0,0,1,3.67-1.42,6.68,6.68,0,0,1,1.52.17,6.3,6.3,0,0,1,1.43.54l-.48.94a5.09,5.09,0,0,0-1.2-.46,5.23,5.23,0,0,0-1.28-.14,3.84,3.84,0,0,0-2.79,1.07,4.1,4.1,0,0,0-1.09,3,4.22,4.22,0,0,0,1,3,3.53,3.53,0,0,0,2.7,1,4.7,4.7,0,0,0,1.08-.12,3.19,3.19,0,0,0,.92-.35v-2.76H41.34v-1.05h3.32Z"/><path class="cls-1" d="M48.11,151.22H47v-9.87h1.16Z"/><path class="cls-1" d="M49.56,151.22l3.79-9.87h1.2l3.8,9.87H57.07l-1-2.64H51.79l-.94,2.64Zm2.62-3.68h3.51l-1.6-4.33a1.31,1.31,0,0,1-.07-.27c0-.11-.05-.24-.08-.4h0a3.25,3.25,0,0,1-.07.38,2,2,0,0,1-.09.29Z"/><path class="cls-1" d="M67.76,151.22H66.34l-5.08-7.87a3.14,3.14,0,0,1-.18-.31,2.92,2.92,0,0,1-.14-.31h0a4.16,4.16,0,0,1,0,.5c0,.22,0,.51,0,.86v7.13H59.8v-9.87h1.5l4.94,7.74c.11.16.2.3.26.41a1.38,1.38,0,0,1,.14.25h0a5.71,5.71,0,0,1,0-.58c0-.24,0-.53,0-.87v-7h1.16Z"/><path class="cls-1" d="M78.22,151.39A4.59,4.59,0,0,1,74.76,150a5,5,0,0,1-1.33-3.6,5.3,5.3,0,0,1,1.35-3.78,4.69,4.69,0,0,1,3.6-1.45,4.48,4.48,0,0,1,3.41,1.38,5.12,5.12,0,0,1,1.31,3.65A5.24,5.24,0,0,1,81.75,150,4.66,4.66,0,0,1,78.22,151.39Zm0-1.92a2.24,2.24,0,0,0,1.82-.83,3.54,3.54,0,0,0,.68-2.3A3.82,3.82,0,0,0,80.1,144a2.12,2.12,0,0,0-1.79-.85,2.25,2.25,0,0,0-1.86.87,3.73,3.73,0,0,0-.68,2.33,3.66,3.66,0,0,0,.68,2.32A2.22,2.22,0,0,0,78.26,149.47Z"/><path class="cls-1" d="M92.76,151.22H90.24l-1.31-2.43a3.43,3.43,0,0,0-.64-.9,1.21,1.21,0,0,0-.73-.34H87v3.67H84.74v-9.87h3.52a4.33,4.33,0,0,1,2.7.7,2.47,2.47,0,0,1,.9,2.09,2.65,2.65,0,0,1-.58,1.7,3.47,3.47,0,0,1-1.59,1v0a1.83,1.83,0,0,1,.83.57,6.17,6.17,0,0,1,.65.92ZM87,143v2.86h1a1.55,1.55,0,0,0,1.16-.43,1.47,1.47,0,0,0,.44-1.08,1.25,1.25,0,0,0-.39-1A1.71,1.71,0,0,0,88,143Z"/><path class="cls-1" d="M101.91,150.48a6.31,6.31,0,0,1-1.6.67,7.78,7.78,0,0,1-2,.24,5.43,5.43,0,0,1-3.73-1.23,4.73,4.73,0,0,1-1.4-3.72,5.29,5.29,0,0,1,1.42-3.76,5.12,5.12,0,0,1,3.92-1.5,8.55,8.55,0,0,1,1.73.16,9.11,9.11,0,0,1,1.66.5l-.7,1.72a8.51,8.51,0,0,0-1.32-.4,7.35,7.35,0,0,0-1.37-.12,2.93,2.93,0,0,0-2.19.83,3.4,3.4,0,0,0-.8,2.47,3.17,3.17,0,0,0,.8,2.41,2.86,2.86,0,0,0,2.09.78,3.84,3.84,0,0,0,.71-.06,2.4,2.4,0,0,0,.55-.16v-1.94h-2v-1.78h4.2Z"/><path class="cls-1" d="M102.77,151.22l3.59-9.87H109l3.51,9.87h-2.42l-.67-2.06h-3.58l-.66,2.06Zm3.55-3.79h2.58L107.81,144c0-.14-.07-.26-.09-.35a2.38,2.38,0,0,1-.07-.38h-.05c0,.14,0,.26-.08.36a3.09,3.09,0,0,1-.1.34Z"/><path class="cls-1" d="M122.62,151.22h-2.24l-4.07-6.2-.3-.48-.2-.34h0c0,.17,0,.39,0,.66s0,.58,0,.93v5.43h-2.1v-9.87h2.4l3.92,6c.08.13.17.26.25.4s.17.27.24.4h0a4.37,4.37,0,0,1,0-.51c0-.23,0-.51,0-.84v-5.46h2.1Z"/><path class="cls-1" d="M127.11,151.22h-2.23v-9.87h2.23Z"/><path class="cls-1" d="M128.55,150.56l.92-1.72a5.43,5.43,0,0,0,1.29.59,4,4,0,0,0,1.15.16,1.83,1.83,0,0,0,1.18-.31,1.14,1.14,0,0,0,.08-1.62,2.67,2.67,0,0,0-1.12-.45,5.27,5.27,0,0,1-2.4-1.08,2.51,2.51,0,0,1-.75-1.94,2.74,2.74,0,0,1,1-2.13,3.89,3.89,0,0,1,2.72-.88,6.28,6.28,0,0,1,1.43.17,6,6,0,0,1,1.33.48l-.83,1.75a5,5,0,0,0-1.07-.46,3.69,3.69,0,0,0-.94-.14,1.76,1.76,0,0,0-1,.27.85.85,0,0,0-.37.75.8.8,0,0,0,.34.69,4,4,0,0,0,1.22.44,4.65,4.65,0,0,1,2.32,1.08,2.79,2.79,0,0,1,.72,2,2.86,2.86,0,0,1-1,2.27,4.21,4.21,0,0,1-2.87.87,7,7,0,0,1-1.71-.22A5.48,5.48,0,0,1,128.55,150.56Z"/><path class="cls-1" d="M136.2,151.22l3.59-9.87h2.64l3.51,9.87h-2.43l-.66-2.06h-3.58l-.67,2.06Zm3.55-3.79h2.58L141.24,144c0-.14-.07-.26-.1-.35s0-.22-.06-.38H141c0,.14-.05.26-.07.36s-.06.22-.1.34Z"/><path class="cls-1" d="M146.36,150.56l.93-1.72a5.43,5.43,0,0,0,1.29.59,4,4,0,0,0,1.15.16,1.83,1.83,0,0,0,1.18-.31,1,1,0,0,0,.38-.84,1,1,0,0,0-.31-.78,2.56,2.56,0,0,0-1.11-.45,5.27,5.27,0,0,1-2.4-1.08,2.51,2.51,0,0,1-.75-1.94,2.74,2.74,0,0,1,1-2.13,3.87,3.87,0,0,1,2.72-.88,6.28,6.28,0,0,1,1.43.17,6,6,0,0,1,1.33.48l-.83,1.75a5,5,0,0,0-1.07-.46,3.69,3.69,0,0,0-.94-.14,1.74,1.74,0,0,0-1,.27.85.85,0,0,0-.37.75.8.8,0,0,0,.34.69,3.86,3.86,0,0,0,1.22.44,4.69,4.69,0,0,1,2.32,1.08,2.79,2.79,0,0,1,.72,2,2.86,2.86,0,0,1-1,2.27,4.21,4.21,0,0,1-2.87.87,7,7,0,0,1-1.71-.22A5.66,5.66,0,0,1,146.36,150.56Z"/><path class="cls-1" d="M157.3,151.22h-2.23v-9.87h2.23Z"/><path class="cls-1" d="M171.53,151.22l-1.11-1a6.1,6.1,0,0,1-1.62.92,5.78,5.78,0,0,1-1.84.28,4.42,4.42,0,0,1-2.67-.77,2.61,2.61,0,0,1-1.06-2.25,2.34,2.34,0,0,1,.61-1.69,5.46,5.46,0,0,1,1.64-1.15,4.5,4.5,0,0,1-.81-1.05,2.14,2.14,0,0,1-.25-1,1.92,1.92,0,0,1,.84-1.68,3.67,3.67,0,0,1,2.15-.59,3.32,3.32,0,0,1,2.06.6,1.87,1.87,0,0,1,.8,1.55,2.1,2.1,0,0,1-.41,1.27,4.42,4.42,0,0,1-1.64,1.13l2.32,2.1a3.56,3.56,0,0,0,.68-1.26,5.68,5.68,0,0,0,.17-1.41h1.93a5.4,5.4,0,0,1-.35,2,5.86,5.86,0,0,1-1.2,1.83l2.51,2.28Zm-2.31-2.17-2.66-2.49a3.16,3.16,0,0,0-.79.66,1.59,1.59,0,0,0-.33,1.05,1.34,1.34,0,0,0,.45,1.06,1.71,1.71,0,0,0,1.18.4,3.82,3.82,0,0,0,1.11-.15A3.66,3.66,0,0,0,169.22,149.05Zm-2-4.28a3.11,3.11,0,0,0,.87-.52,1,1,0,0,0,.29-.77.75.75,0,0,0-.28-.63,1.14,1.14,0,0,0-1.4,0,.82.82,0,0,0-.29.63,1.05,1.05,0,0,0,.19.58A4.38,4.38,0,0,0,167.18,144.77Z"/><path class="cls-1" d="M186.23,143.16h-2.82v8.06h-2.23v-8.06h-2.8v-1.81h7.85Z"/><path class="cls-1" d="M185.52,151.22l3.59-9.87h2.64l3.51,9.87h-2.42l-.67-2.06h-3.58l-.66,2.06Zm3.55-3.79h2.58L190.57,144a2.89,2.89,0,0,1-.1-.35,2.38,2.38,0,0,1-.07-.38h-.05c0,.14,0,.26-.08.36a1.81,1.81,0,0,1-.1.34Z"/><path class="cls-1" d="M202.44,143.16h-2.82v8.06h-2.23v-8.06h-2.8v-1.81h7.85Z"/><path class="cls-1" d="M201.73,151.22l3.59-9.87H208l3.51,9.87h-2.42l-.67-2.06H204.8l-.66,2.06Zm3.55-3.79h2.58L206.77,144c0-.14-.07-.26-.1-.35s0-.22-.06-.38h-.06a2.56,2.56,0,0,1-.07.36,3.09,3.09,0,0,1-.1.34Z"/><path class="cls-1" d="M222.47,151.22h-5.88v-9.87h2.22v8.07h3.66Z"/><path class="cls-1" d="M223.05,151.22l3.59-9.87h2.64l3.51,9.87h-2.42l-.67-2.06h-3.58l-.66,2.06Zm3.55-3.79h2.58L228.1,144a2.89,2.89,0,0,1-.1-.35,2.38,2.38,0,0,1-.07-.38h-.05c0,.14,0,.26-.08.36a3.09,3.09,0,0,1-.1.34Z"/><path class="cls-1" d="M242.2,151.22h-2.78L236.54,147s-.06-.11-.1-.2-.1-.2-.16-.34h0v4.75H234v-9.87h2.23v4.57h0l.11-.23c.05-.09.1-.2.17-.32l2.72-4h2.59l-3.4,4.65Z"/><path class="cls-1" d="M242.37,150.56l.92-1.72a5.81,5.81,0,0,0,1.29.59,4,4,0,0,0,1.16.16,1.8,1.8,0,0,0,1.17-.31,1,1,0,0,0,.38-.84,1,1,0,0,0-.3-.78,2.61,2.61,0,0,0-1.12-.45,5.27,5.27,0,0,1-2.4-1.08,2.51,2.51,0,0,1-.75-1.94,2.74,2.74,0,0,1,1-2.13,3.89,3.89,0,0,1,2.72-.88,6.22,6.22,0,0,1,1.43.17,6.1,6.1,0,0,1,1.34.48l-.83,1.75a5.06,5.06,0,0,0-1.08-.46,3.63,3.63,0,0,0-.94-.14,1.71,1.71,0,0,0-1,.27.85.85,0,0,0-.38.75.82.82,0,0,0,.34.69,3.94,3.94,0,0,0,1.23.44,4.69,4.69,0,0,1,2.32,1.08,3.18,3.18,0,0,1-.28,4.31,4.18,4.18,0,0,1-2.86.87,7.06,7.06,0,0,1-1.72-.22A5.71,5.71,0,0,1,242.37,150.56Z"/><path class="cls-1" d="M250,151.22l3.59-9.87h2.64l3.51,9.87h-2.42l-.67-2.06h-3.58l-.66,2.06Zm3.55-3.79h2.58L255.06,144c0-.14-.07-.26-.1-.35s0-.22-.06-.38h-.06a2.56,2.56,0,0,1-.07.36,3.09,3.09,0,0,1-.1.34Z"/><path class="cls-1" d="M269.87,151.22h-2.24l-4.07-6.2-.3-.48c-.09-.14-.15-.25-.2-.34h0c0,.17,0,.39,0,.66s0,.58,0,.93v5.43H261v-9.87h2.4l3.92,6c.08.13.17.26.25.4s.17.27.24.4h0a4.37,4.37,0,0,1,0-.51c0-.23,0-.51,0-.84v-5.46h2.1Z"/><path class="cls-1" d="M271.07,151.22l3.6-9.87h2.63l3.51,9.87h-2.42l-.67-2.06h-3.58l-.66,2.06Zm3.55-3.79h2.59L276.12,144c0-.14-.08-.26-.1-.35a2.38,2.38,0,0,1-.07-.38h-.05c0,.14,0,.26-.07.36s-.06.22-.1.34Z"/><path class="cls-1" d="M101.83,162.24l.59-1.11a3.64,3.64,0,0,0,.83.38,2.55,2.55,0,0,0,.74.1,1.18,1.18,0,0,0,.75-.2.74.74,0,0,0,.05-1,1.78,1.78,0,0,0-.72-.29,3.35,3.35,0,0,1-1.54-.69,1.6,1.6,0,0,1-.48-1.24,1.8,1.8,0,0,1,.62-1.37,2.51,2.51,0,0,1,1.75-.56,4.05,4.05,0,0,1,.92.1,4.11,4.11,0,0,1,.85.31l-.53,1.13a3.28,3.28,0,0,0-.69-.3,2.18,2.18,0,0,0-.6-.09,1.16,1.16,0,0,0-.67.17.59.59,0,0,0,0,.93,2.63,2.63,0,0,0,.79.28,3,3,0,0,1,1.49.7,1.77,1.77,0,0,1,.45,1.3,1.86,1.86,0,0,1-.63,1.46,2.7,2.7,0,0,1-1.84.56,4.81,4.81,0,0,1-1.1-.14A4.43,4.43,0,0,1,101.83,162.24Z"/><path class="cls-1" d="M111.21,162.66h-3.8v-6.34h3.65v1.16h-2.22v1.41h2.07v1.16h-2.07v1.45h2.37Z"/><path class="cls-1" d="M117.47,162.66h-1.78l-1.85-2.7-.07-.13c0-.06-.06-.13-.1-.22h0v3h-1.42v-6.34h1.42v2.94h0a1.07,1.07,0,0,0,.07-.15l.11-.2,1.75-2.59h1.66l-2.18,3Z"/><path class="cls-1" d="M123.24,162.66h-1.61l-.85-1.56a2.23,2.23,0,0,0-.4-.58.82.82,0,0,0-.47-.22h-.39v2.36H118.1v-6.34h2.26a2.76,2.76,0,0,1,1.72.45,1.59,1.59,0,0,1,.58,1.35,1.63,1.63,0,0,1-.37,1.08,2.19,2.19,0,0,1-1,.68v0a1.08,1.08,0,0,1,.53.37,3.69,3.69,0,0,1,.42.58Zm-3.72-5.27v1.83h.62a1,1,0,0,0,.74-.27.94.94,0,0,0,.28-.69.8.8,0,0,0-.25-.65,1.06,1.06,0,0,0-.74-.22Z"/><path class="cls-1" d="M127.8,162.66H124v-6.34h3.65v1.16h-2.22v1.41h2.07v1.16h-2.07v1.45h2.37Z"/><path class="cls-1" d="M133.33,157.48h-1.8v5.18H130.1v-5.18h-1.8v-1.16h5Z"/><path class="cls-1" d="M132.88,162.66l2.3-6.34h1.7l2.25,6.34h-1.56l-.43-1.32h-2.29l-.43,1.32Zm2.28-2.44h1.65l-.69-2.2c0-.08-.05-.16-.07-.22s0-.14,0-.24h0c0,.09,0,.17,0,.23s0,.14-.07.22Z"/><path class="cls-1" d="M145.06,162.66h-1.61l-.84-1.56a2.23,2.23,0,0,0-.41-.58.82.82,0,0,0-.47-.22h-.39v2.36h-1.42v-6.34h2.26a2.79,2.79,0,0,1,1.73.45,1.83,1.83,0,0,1,.2,2.43,2.11,2.11,0,0,1-1,.68v0a1.12,1.12,0,0,1,.53.37,3.62,3.62,0,0,1,.41.58Zm-3.72-5.27v1.83H142a1,1,0,0,0,.74-.27.94.94,0,0,0,.28-.69.82.82,0,0,0-.24-.65,1.1,1.1,0,0,0-.75-.22Z"/><path class="cls-1" d="M147.25,162.66h-1.43v-6.34h1.43Z"/><path class="cls-1" d="M148,162.66l2.3-6.34H152l2.25,6.34H152.7l-.43-1.32H150l-.43,1.32Zm2.28-2.44h1.65l-.69-2.2c0-.08-.05-.16-.07-.22s0-.14,0-.24h0c0,.09,0,.17,0,.23s0,.14-.07.22Z"/><path class="cls-1" d="M158.86,157.48h-1.81v5.18h-1.43v-5.18h-1.8v-1.16h5Z"/><path class="cls-1" d="M162.21,162.66v-6.34h2.24a3.65,3.65,0,0,1,2.53.77,3,3,0,0,1,.85,2.32,3.13,3.13,0,0,1-.92,2.36,3.42,3.42,0,0,1-2.46.89Zm1.43-5.18v4h.7a1.92,1.92,0,0,0,1.46-.56,2.1,2.1,0,0,0,.53-1.51,1.92,1.92,0,0,0-.53-1.43,2,2,0,0,0-1.47-.52Z"/><path class="cls-1" d="M168.06,162.66l2.31-6.34h1.69l2.25,6.34h-1.55l-.43-1.32H170l-.42,1.32Zm2.28-2.44H172l-.7-2.2c0-.08-.05-.16-.07-.22s0-.14,0-.24h0c0,.09,0,.17,0,.23s0,.14-.06.22Z"/><path class="cls-1" d="M178.9,162.66h-3.8v-6.34h3.65v1.16h-2.22v1.41h2.07v1.16h-2.07v1.45h2.37Z"/><path class="cls-1" d="M185.06,162.66h-1.61l-.85-1.56a2,2,0,0,0-.41-.58.77.77,0,0,0-.47-.22h-.38v2.36h-1.43v-6.34h2.26a2.77,2.77,0,0,1,1.73.45,1.59,1.59,0,0,1,.58,1.35,1.63,1.63,0,0,1-.37,1.08,2.19,2.19,0,0,1-1,.68v0a1.08,1.08,0,0,1,.53.37,4.47,4.47,0,0,1,.42.58Zm-3.72-5.27v1.83H182a1,1,0,0,0,.74-.27.94.94,0,0,0,.28-.69.83.83,0,0,0-.25-.65,1.07,1.07,0,0,0-.75-.22Z"/><path class="cls-1" d="M185.14,162.66l2.3-6.34h1.69l2.26,6.34h-1.56l-.43-1.32h-2.29l-.43,1.32Zm2.28-2.44h1.65l-.7-2.2c0-.08,0-.16-.06-.22a1.19,1.19,0,0,1,0-.24h0c0,.09,0,.17,0,.23s0,.14-.07.22Z"/><path class="cls-1" d="M197.66,162.66h-1.44v-2.58H193.6v2.58h-1.42v-6.34h1.42v2.53h2.62v-2.53h1.44Z"/><rect class="cls-2" x="135.7" y="106.21" width="28.6" height="21.31" rx="3.26"/><rect class="cls-1" x="96.23" y="106.21" width="28.6" height="21.31" rx="3.26"/><rect class="cls-2" x="175.17" y="106.21" width="28.6" height="21.31" rx="3.26"/><polygon class="cls-2" points="151.89 71.47 151.89 36.95 146.14 36.95 146.14 71.47 107.66 71.47 107.66 74.35 107.66 77.22 107.66 106.21 113.41 106.21 113.41 77.22 146.14 77.22 146.14 106.21 151.89 106.21 151.89 77.22 186.59 77.22 186.59 106.21 192.34 106.21 192.34 77.22 192.34 74.35 192.34 71.47 151.89 71.47"/><rect class="cls-1" x="135.7" y="15.63" width="28.6" height="21.31" rx="3.26"/></svg>