<svg id="Layer_1" data-name="Layer 1" xmlns="http://www.w3.org/2000/svg" viewBox="0 0 300 180"><defs><style>.cls-1{fill:#e69e1c;}.cls-2{fill:#282528;}.cls-3{fill:#2c2c64;}</style></defs><path d="M24.45,133.74v-9.1H27a2.88,2.88,0,0,1,1.87.56,1.86,1.86,0,0,1,.69,1.52,2.21,2.21,0,0,1-.42,1.35,2.25,2.25,0,0,1-1.15.81v0a2.38,2.38,0,0,1,1.47.7,2.13,2.13,0,0,1,.55,1.53,2.41,2.41,0,0,1-.83,1.89,3.15,3.15,0,0,1-2.12.72Zm1.07-8.14v2.94h1.09a2.06,2.06,0,0,0,1.37-.42,1.46,1.46,0,0,0,.51-1.19,1.19,1.19,0,0,0-.44-1,2.15,2.15,0,0,0-1.3-.33Zm0,3.9v3.28H27a2.16,2.16,0,0,0,1.46-.45,1.53,1.53,0,0,0,.52-1.22,1.43,1.43,0,0,0-.55-1.21,2.87,2.87,0,0,0-1.65-.4Z"/><path d="M30.85,133.74l3.49-9.1h1.1l3.51,9.1H37.77l-.92-2.44h-4L32,133.74Zm2.41-3.4H36.5l-1.48-4a1.64,1.64,0,0,1-.07-.25c0-.1,0-.22-.07-.36h0a3.09,3.09,0,0,1-.07.35,1.34,1.34,0,0,1-.08.26Z"/><path d="M40.29,133.74v-9.1H42.8a5.17,5.17,0,0,1,3.61,1.11,4.29,4.29,0,0,1,1.2,3.33,4.46,4.46,0,0,1-1.33,3.38,5,5,0,0,1-3.58,1.28Zm1.06-8.14v7.18h1.36a3.87,3.87,0,0,0,2.79-1,3.62,3.62,0,0,0,1-2.72,3.42,3.42,0,0,0-.93-2.62,3.89,3.89,0,0,0-2.79-.88Z"/><path d="M48,133.74l3.49-9.1h1.11l3.5,9.1H55L54,131.3H50.09l-.87,2.44Zm2.41-3.4h3.24l-1.47-4a1,1,0,0,1-.07-.25c0-.1,0-.22-.07-.36h0a3.09,3.09,0,0,1-.07.35,1.38,1.38,0,0,1-.07.26Z"/><path d="M64.81,133.74H63.5l-4.69-7.25-.16-.29c0-.09-.09-.19-.13-.28h0a3.18,3.18,0,0,1,0,.45c0,.21,0,.47,0,.8v6.57H57.47v-9.1h1.38l4.56,7.14.24.37.13.24h0c0-.13,0-.31,0-.53s0-.5,0-.81v-6.41h1.07Z"/><path d="M72.65,130.76v3H70.6v-9.1h3.21a3.87,3.87,0,0,1,2.58.74,2.79,2.79,0,0,1,.87,2.24,2.87,2.87,0,0,1-1,2.27,3.86,3.86,0,0,1-2.64.87Zm0-4.55v3h.81a1.77,1.77,0,0,0,1.23-.37,1.5,1.5,0,0,0,.41-1.14,1.44,1.44,0,0,0-.41-1.11,1.82,1.82,0,0,0-1.23-.37Z"/><path d="M84.05,133.74H78.59v-9.1h5.25v1.67h-3.2v2h3V130h-3v2.08h3.41Z"/><path d="M92.9,133.74H90.59l-1.22-2.24a3.49,3.49,0,0,0-.58-.83,1.15,1.15,0,0,0-.68-.31h-.55v3.38h-2v-9.1h3.25a4,4,0,0,1,2.48.64,2.32,2.32,0,0,1,.83,1.94,2.43,2.43,0,0,1-.53,1.56,3.11,3.11,0,0,1-1.46,1v0a1.79,1.79,0,0,1,.76.54,5.89,5.89,0,0,1,.6.84Zm-5.34-7.57v2.64h.89a1.41,1.41,0,0,0,1.06-.4,1.34,1.34,0,0,0,.4-1,1.17,1.17,0,0,0-.35-.93,1.6,1.6,0,0,0-1.08-.32Z"/><path d="M99.45,133.74H94v-9.1h5.25v1.67H96v2h3V130H96v2.08h3.41Z"/><path d="M109.1,133.74H107L103.28,128l-.28-.44c-.08-.12-.13-.23-.18-.31h0c0,.16,0,.36,0,.61s0,.53,0,.86v5h-1.94v-9.1h2.21l3.61,5.54.24.37.22.37h0a3.73,3.73,0,0,1,0-.47c0-.21,0-.47,0-.78v-5h1.94Z"/><path d="M118,133.3a7.79,7.79,0,0,1-1.39.46,7.46,7.46,0,0,1-1.46.14,4.62,4.62,0,0,1-3.35-1.19,4.56,4.56,0,0,1-1.22-3.41,4.76,4.76,0,0,1,1.33-3.44,4.68,4.68,0,0,1,3.52-1.37,6.57,6.57,0,0,1,2.5.43l-.6,1.66a4.69,4.69,0,0,0-.9-.25,5.49,5.49,0,0,0-.94-.08,2.67,2.67,0,0,0-1.93.79,2.78,2.78,0,0,0-.82,2.12,3.11,3.11,0,0,0,.71,2.16,2.53,2.53,0,0,0,2,.78,4,4,0,0,0,.82-.1,5.1,5.1,0,0,0,1-.35Z"/><path d="M118.32,133.74l3.31-9.1h2.43l3.24,9.1h-2.24l-.61-1.9h-3.3l-.61,1.9Zm3.27-3.5H124l-1-3.16a3.29,3.29,0,0,1-.09-.32,2.12,2.12,0,0,1-.06-.34h0c0,.12,0,.23-.07.33a3.19,3.19,0,0,1-.09.31Z"/><path d="M136.62,133.74h-2.06L130.8,128l-.28-.44-.17-.31h0c0,.16,0,.36,0,.61s0,.53,0,.86v5h-1.93v-9.1h2.2l3.62,5.54.23.37c.08.13.16.25.22.37h0a3.73,3.73,0,0,1,0-.47c0-.21,0-.47,0-.78v-5h1.93Z"/><path d="M137.73,133.74l3.31-9.1h2.43l3.24,9.1h-2.23l-.62-1.9h-3.3l-.61,1.9Zm3.27-3.5h2.38l-1-3.16a3.29,3.29,0,0,1-.09-.32c0-.09,0-.2-.06-.34h0a2.72,2.72,0,0,1-.07.33,3.19,3.19,0,0,1-.09.31Z"/><path d="M146.87,133.74l3.31-9.1h2.43l3.24,9.1h-2.23l-.62-1.9h-3.3l-.61,1.9Zm3.27-3.5h2.38l-1-3.16a3.29,3.29,0,0,1-.09-.32c0-.09,0-.2-.06-.34h-.05a2.72,2.72,0,0,1-.07.33,3.19,3.19,0,0,1-.09.31Z"/><path d="M165.18,133.74h-2.07L159.35,128c-.1-.17-.2-.31-.27-.44a2.92,2.92,0,0,1-.18-.31h0c0,.16,0,.36,0,.61s0,.53,0,.86v5H157v-9.1h2.21l3.61,5.54.24.37c.07.13.15.25.22.37h0a3.73,3.73,0,0,1,0-.47c0-.21,0-.47,0-.78v-5h1.94Z"/><path d="M172.9,130.76v3h-2.05v-9.1h3.21a3.91,3.91,0,0,1,2.58.74,2.81,2.81,0,0,1,.86,2.24,2.87,2.87,0,0,1-1,2.27,3.86,3.86,0,0,1-2.64.87Zm0-4.55v3h.8a1.76,1.76,0,0,0,1.23-.37,1.5,1.5,0,0,0,.41-1.14,1.44,1.44,0,0,0-.41-1.11,1.81,1.81,0,0,0-1.23-.37Z"/><path d="M184.29,133.74h-5.46v-9.1h5.25v1.67h-3.2v2h3V130h-3v2.08h3.41Z"/><path d="M196.12,133.74h-2v-5.45c0-.29,0-.6,0-.92s0-.67,0-1h0q-.08.42-.15.72a3.89,3.89,0,0,1-.13.48l-2.14,6.19H190l-2.17-6.12q0-.14-.12-.45c-.05-.21-.11-.49-.17-.82h-.06c0,.44.05.87.07,1.26s0,.76,0,1.1v5h-1.85v-9.1h3l1.86,5.39a4.62,4.62,0,0,1,.19.6c0,.2.09.4.13.6h0c.06-.23.12-.44.18-.64s.12-.39.19-.57l1.85-5.38h2.93Z"/><path d="M198.19,133.74v-9.1h3.31a4,4,0,0,1,2.35.58,1.89,1.89,0,0,1,.82,1.63,2,2,0,0,1-.44,1.28,2.34,2.34,0,0,1-1.12.76v0a2.16,2.16,0,0,1,1.4.69A2.08,2.08,0,0,1,205,131a2.43,2.43,0,0,1-.9,2,3.72,3.72,0,0,1-2.44.73Zm2.05-7.59v2.22h.9a1.51,1.51,0,0,0,1-.3,1,1,0,0,0,.37-.84.94.94,0,0,0-.38-.81,1.91,1.91,0,0,0-1.12-.27Zm0,3.74v2.34h1.11a1.72,1.72,0,0,0,1.12-.33,1.12,1.12,0,0,0,.4-.9,1,1,0,0,0-.4-.81,1.79,1.79,0,0,0-1.11-.3Z"/><path d="M205.55,133.74l3.31-9.1h2.43l3.24,9.1h-2.24l-.61-1.9h-3.3l-.61,1.9Zm3.27-3.5h2.38l-1-3.16a3.29,3.29,0,0,1-.09-.32,1.39,1.39,0,0,1-.06-.34H210c0,.12-.05.23-.07.33a3.19,3.19,0,0,1-.09.31Z"/><path d="M223.85,133.74h-2.07L218,128l-.28-.44-.17-.31h0c0,.16,0,.36,0,.61s0,.53,0,.86v5h-1.93v-9.1h2.2l3.62,5.54.23.37c.08.13.16.25.22.37h0a3.73,3.73,0,0,1,0-.47c0-.21,0-.47,0-.78v-5h1.93Z"/><path d="M233.41,133.06a5.74,5.74,0,0,1-1.47.61,6.7,6.7,0,0,1-1.85.23,5,5,0,0,1-3.44-1.14,4.33,4.33,0,0,1-1.29-3.42,4.86,4.86,0,0,1,1.31-3.47,4.72,4.72,0,0,1,3.61-1.38,8,8,0,0,1,1.6.14,7.6,7.6,0,0,1,1.53.47l-.64,1.58a7.27,7.27,0,0,0-1.22-.37,7.15,7.15,0,0,0-1.27-.11,2.69,2.69,0,0,0-2,.76,3.13,3.13,0,0,0-.75,2.28,3,3,0,0,0,.74,2.23,2.7,2.7,0,0,0,1.93.71,4.43,4.43,0,0,0,.66-.05,2.35,2.35,0,0,0,.51-.15v-1.79h-1.82v-1.63h3.87Z"/><path d="M242.6,129.8a4.37,4.37,0,0,1-1,3.08,3.72,3.72,0,0,1-2.86,1,3.58,3.58,0,0,1-2.78-1,4.3,4.3,0,0,1-.93-3v-5.24h2.06v5.28a2.66,2.66,0,0,0,.43,1.66,1.56,1.56,0,0,0,1.29.55,1.55,1.55,0,0,0,1.28-.53,2.57,2.57,0,0,0,.42-1.6v-5.36h2Z"/><path d="M252.77,133.74H250.7L247,128c-.11-.17-.21-.31-.28-.44a2.92,2.92,0,0,1-.18-.31h0c0,.16,0,.36,0,.61s0,.53,0,.86v5h-1.94v-9.1h2.21l3.61,5.54.24.37.22.37h0a4.22,4.22,0,0,1,0-.47c0-.21,0-.47,0-.78v-5h1.94Z"/><path d="M253.87,133.74l3.31-9.1h2.44l3.23,9.1h-2.23l-.62-1.9h-3.3l-.61,1.9Zm3.28-3.5h2.38l-1-3.16c0-.12-.06-.23-.09-.32s0-.2-.06-.34h-.05a2.72,2.72,0,0,1-.07.33,3.19,3.19,0,0,1-.09.31Z"/><path d="M272.18,133.74h-2.07L266.36,128c-.11-.17-.21-.31-.28-.44a2.92,2.92,0,0,1-.18-.31h0c0,.16,0,.36,0,.61s0,.53,0,.86v5H264v-9.1h2.21l3.61,5.54.24.37.22.37h0a4.22,4.22,0,0,1,0-.47c0-.21,0-.47,0-.78v-5h1.94Z"/><path d="M276,132.14l-.93,3.21h-1.56l.64-3.21Z"/><path d="M43,146.36v3H41v-9.1h3.21a3.87,3.87,0,0,1,2.58.74,2.78,2.78,0,0,1,.86,2.24,2.86,2.86,0,0,1-1,2.27,3.86,3.86,0,0,1-2.64.87Zm0-4.55v3h.81a1.74,1.74,0,0,0,1.23-.38,1.47,1.47,0,0,0,.41-1.13,1.44,1.44,0,0,0-.41-1.11,1.84,1.84,0,0,0-1.23-.37Z"/><path d="M54.41,149.34H49v-9.1H54.2v1.67H51v2h3v1.67H51v2.08h3.41Z"/><path d="M64.06,149.34H62l-3.76-5.72-.28-.44-.17-.31h0c0,.16,0,.36,0,.61s0,.53,0,.86v5H55.87v-9.1h2.21l3.61,5.54.24.37c.07.13.15.25.21.37h0a3.73,3.73,0,0,1,0-.47c0-.21,0-.47,0-.78v-5h1.94Z"/><path d="M71.6,149.34H66.14v-9.1h5.25v1.67h-3.2v2h3v1.67h-3v2.08H71.6Z"/><path d="M78.48,149.34H73.06v-9.1h2v7.44h3.37Z"/><path d="M81.75,149.34h-2v-9.1h2Z"/><path d="M90.21,141.91h-2.6v7.43H85.55v-7.43H83v-1.67h7.24Z"/><path d="M93.49,149.34h-2v-9.1h2Z"/><path d="M94.58,149.34l3.31-9.1h2.44l3.23,9.1h-2.23l-.62-1.9h-3.3l-.61,1.9Zm3.28-3.5h2.38l-1-3.16a3.29,3.29,0,0,1-.09-.32c0-.09,0-.2-.06-.34h0a2.72,2.72,0,0,1-.07.33,3.19,3.19,0,0,1-.09.31Z"/><path d="M112.89,149.34h-2.07l-3.75-5.72c-.11-.17-.21-.31-.28-.44a2.92,2.92,0,0,1-.18-.31h0c0,.16,0,.36,0,.61s0,.53,0,.86v5H104.7v-9.1h2.21l3.61,5.54.24.37.22.37h0a3.73,3.73,0,0,1,0-.47c0-.21,0-.47,0-.78v-5h1.94Z"/><path d="M118.56,149.34v-9.1h3.22a5.23,5.23,0,0,1,3.64,1.11,4.25,4.25,0,0,1,1.21,3.32,4.5,4.5,0,0,1-1.32,3.4,4.88,4.88,0,0,1-3.53,1.27Zm2-7.43v5.77h1a2.74,2.74,0,0,0,2.09-.8,3,3,0,0,0,.76-2.18,2.76,2.76,0,0,0-.75-2,2.88,2.88,0,0,0-2.11-.74Z"/><path d="M127,149.34l3.31-9.1h2.43l3.24,9.1h-2.24l-.61-1.9h-3.3l-.61,1.9Zm3.27-3.5h2.38l-1-3.16a3.29,3.29,0,0,1-.09-.32,1.39,1.39,0,0,1-.06-.34h-.05c0,.12,0,.23-.07.33a3.19,3.19,0,0,1-.09.31Z"/><path d="M145.27,149.34H143.2l-3.75-5.72-.28-.44-.17-.31h0c0,.16,0,.36,0,.61s0,.53,0,.86v5h-1.93v-9.1h2.2l3.62,5.54.23.37c.08.13.16.25.22.37h0a3.73,3.73,0,0,1,0-.47c0-.21,0-.47,0-.78v-5h1.93Z"/><path d="M153,146.36v3h-2.05v-9.1h3.21a3.87,3.87,0,0,1,2.58.74,2.78,2.78,0,0,1,.86,2.24,2.86,2.86,0,0,1-1,2.27,3.86,3.86,0,0,1-2.64.87Zm0-4.55v3h.81a1.74,1.74,0,0,0,1.23-.38,1.47,1.47,0,0,0,.41-1.13,1.44,1.44,0,0,0-.41-1.11,1.84,1.84,0,0,0-1.23-.37Z"/><path d="M164.39,149.34h-5.46v-9.1h5.25v1.67H161v2h3v1.67h-3v2.08h3.41Z"/><path d="M174,149.34H172l-3.76-5.72-.28-.44-.17-.31h0c0,.16,0,.36,0,.61s0,.53,0,.86v5h-1.93v-9.1h2.21l3.61,5.54.23.37c.08.13.16.25.22.37h0a3.73,3.73,0,0,1,0-.47c0-.21,0-.47,0-.78v-5H174Z"/><path d="M183.59,148.66a5.6,5.6,0,0,1-1.47.61,7.1,7.1,0,0,1-1.85.23,5,5,0,0,1-3.44-1.14,4.32,4.32,0,0,1-1.28-3.42,4.85,4.85,0,0,1,1.3-3.47,4.72,4.72,0,0,1,3.61-1.38,8,8,0,0,1,1.6.14,7.6,7.6,0,0,1,1.53.47l-.64,1.58a7.27,7.27,0,0,0-1.22-.37,7.15,7.15,0,0,0-1.27-.11,2.65,2.65,0,0,0-2,.76,3.13,3.13,0,0,0-.75,2.28,3,3,0,0,0,.74,2.23,2.7,2.7,0,0,0,1.93.71,4.33,4.33,0,0,0,.66-.05,2.35,2.35,0,0,0,.51-.15v-1.79h-1.82v-1.63h3.87Z"/><path d="M190.82,149.34h-5.46v-9.1h5.25v1.67h-3.2v2h3v1.67h-3v2.08h3.41Z"/><path d="M202.65,149.34h-2v-5.45c0-.29,0-.6,0-.92s0-.67.06-1h0c-.05.28-.1.51-.15.72a2.58,2.58,0,0,1-.14.48l-2.13,6.19h-1.67l-2.17-6.12q0-.14-.12-.45c-.05-.21-.11-.49-.17-.82H194c0,.44.05.87.07,1.26s0,.76,0,1.1v5h-1.85v-9.1h3l1.86,5.39a4.62,4.62,0,0,1,.19.6c0,.2.09.4.13.6h0c.06-.23.12-.44.18-.64s.12-.4.18-.57l1.86-5.38h2.93Z"/><path d="M204.72,149.34v-9.1H208a4,4,0,0,1,2.35.58,1.88,1.88,0,0,1,.81,1.63,2,2,0,0,1-.43,1.28,2.34,2.34,0,0,1-1.12.76v0a2.16,2.16,0,0,1,1.4.69,2.08,2.08,0,0,1,.52,1.41,2.43,2.43,0,0,1-.9,2,3.74,3.74,0,0,1-2.44.73Zm2.05-7.59V144h.9a1.53,1.53,0,0,0,1-.3,1.07,1.07,0,0,0,.37-.84.94.94,0,0,0-.38-.81,1.91,1.91,0,0,0-1.12-.27Zm0,3.74v2.34h1.11a1.69,1.69,0,0,0,1.11-.33,1.1,1.1,0,0,0,.41-.9,1,1,0,0,0-.4-.81,1.79,1.79,0,0,0-1.11-.3Z"/><path d="M212.08,149.34l3.31-9.1h2.43l3.24,9.1h-2.24l-.61-1.9h-3.3l-.61,1.9Zm3.27-3.5h2.38l-1-3.16a3.29,3.29,0,0,1-.09-.32,1.39,1.39,0,0,1-.06-.34h-.05c0,.12-.05.23-.07.33a3.19,3.19,0,0,1-.09.31Z"/><path d="M230.38,149.34h-2.07l-3.75-5.72-.28-.44-.18-.31h0c0,.16,0,.36,0,.61s0,.53,0,.86v5h-1.94v-9.1h2.21l3.62,5.54.23.37.22.37h0a3.73,3.73,0,0,1,0-.47c0-.21,0-.47,0-.78v-5h1.93Z"/><path d="M239.93,148.66a5.53,5.53,0,0,1-1.46.61,7.15,7.15,0,0,1-1.85.23,5,5,0,0,1-3.44-1.14,4.33,4.33,0,0,1-1.29-3.42,4.86,4.86,0,0,1,1.31-3.47,4.72,4.72,0,0,1,3.61-1.38,8.15,8.15,0,0,1,1.6.14,7.33,7.33,0,0,1,1.52.47l-.64,1.58a6.91,6.91,0,0,0-1.21-.37,7.15,7.15,0,0,0-1.27-.11,2.69,2.69,0,0,0-2,.76,3.17,3.17,0,0,0-.74,2.28,3,3,0,0,0,.74,2.23,2.69,2.69,0,0,0,1.93.71,4.43,4.43,0,0,0,.66-.05,2.35,2.35,0,0,0,.51-.15v-1.79h-1.83v-1.63h3.87Z"/><path d="M240.73,149.34l3.31-9.1h2.43l3.24,9.1h-2.23l-.62-1.9h-3.3l-.61,1.9Zm3.27-3.5h2.38l-1-3.16a3.29,3.29,0,0,1-.09-.32c0-.09,0-.2-.06-.34h0a2.72,2.72,0,0,1-.07.33,3.19,3.19,0,0,1-.09.31Z"/><path d="M259,149.34H257l-3.76-5.72-.28-.44-.17-.31h0c0,.16,0,.36,0,.61s0,.53,0,.86v5h-1.93v-9.1h2.21l3.61,5.54.24.37c.07.13.15.25.21.37h0a3.73,3.73,0,0,1,0-.47c0-.21,0-.47,0-.78v-5H259Z"/><path d="M104.25,162.66h-1.78l-1.85-2.7-.07-.13-.1-.22h0v3H99v-6.34h1.43v2.94h0l.07-.15.11-.2,1.75-2.59H104l-2.17,3Z"/><path d="M107.29,162.77a3,3,0,0,1-2.22-.89,3.18,3.18,0,0,1-.85-2.31,3.45,3.45,0,0,1,.86-2.43,3,3,0,0,1,2.31-.92,2.88,2.88,0,0,1,2.19.88,3.3,3.3,0,0,1,.84,2.35,3.34,3.34,0,0,1-.87,2.4A3,3,0,0,1,107.29,162.77Zm0-1.24a1.39,1.39,0,0,0,1.17-.53,2.27,2.27,0,0,0,.44-1.48,2.48,2.48,0,0,0-.42-1.53,1.38,1.38,0,0,0-1.15-.55,1.42,1.42,0,0,0-1.19.57,2.74,2.74,0,0,0,0,3A1.41,1.41,0,0,0,107.31,161.53Z"/><path d="M115.55,157.48h-1.81v5.18h-1.43v-5.18h-1.79v-1.16h5Z"/><path d="M115.1,162.66l2.3-6.34h1.69l2.25,6.34h-1.55l-.43-1.32h-2.3l-.42,1.32Zm2.27-2.44H119l-.7-2.2c0-.09,0-.16-.06-.22a1.19,1.19,0,0,1,0-.24h0a1.32,1.32,0,0,1,0,.23,1,1,0,0,1-.06.21Z"/><path d="M129.07,157.48h-1.8v5.18h-1.43v-5.18H124v-1.16h5Z"/><path d="M128.62,162.66l2.3-6.34h1.69l2.26,6.34h-1.56l-.43-1.32h-2.29l-.43,1.32Zm2.28-2.44h1.65l-.7-2.2a2.18,2.18,0,0,0-.06-.22,1.19,1.19,0,0,1,0-.24h0c0,.09,0,.16,0,.23s0,.14-.07.21Z"/><path d="M141.35,162.66h-1.44l-2.61-4-.19-.31-.12-.22h0c0,.11,0,.25,0,.43s0,.37,0,.6v3.48h-1.34v-6.34h1.53l2.52,3.86.16.26a1.65,1.65,0,0,1,.15.25h0a2.33,2.33,0,0,1,0-.32c0-.15,0-.33,0-.55v-3.5h1.34Z"/><path d="M145.45,160.58a2.15,2.15,0,0,1-.57,1.63,2.22,2.22,0,0,1-1.62.55,3,3,0,0,1-.59-.06,3.18,3.18,0,0,1-.62-.2l.44-1.08a1.59,1.59,0,0,0,.32.12,1,1,0,0,0,.32.05.81.81,0,0,0,.65-.24,1.13,1.13,0,0,0,.21-.77l0-4.26h1.42Z"/><path d="M152,159.91a3,3,0,0,1-.66,2.14,2.6,2.6,0,0,1-2,.72,2.52,2.52,0,0,1-1.93-.7,3,3,0,0,1-.65-2.1v-3.65h1.43V160a1.86,1.86,0,0,0,.3,1.15,1.07,1.07,0,0,0,.91.38,1.05,1.05,0,0,0,.88-.37,1.73,1.73,0,0,0,.29-1.11v-3.73H152Z"/><path d="M159.06,162.66h-1.43l-2.61-4c-.08-.12-.15-.22-.2-.31l-.12-.22h0c0,.11,0,.25,0,.43s0,.37,0,.6v3.48h-1.35v-6.34h1.53l2.52,3.86.16.26c.06.08.11.17.16.25h0a2.33,2.33,0,0,1,0-.32c0-.15,0-.33,0-.55v-3.5h1.34Z"/><path d="M165.71,162.18a4,4,0,0,1-1,.43,5.15,5.15,0,0,1-1.28.16,3.48,3.48,0,0,1-2.4-.8,3,3,0,0,1-.89-2.38,3.4,3.4,0,0,1,.9-2.41,3.32,3.32,0,0,1,2.52-1,5.52,5.52,0,0,1,1.11.1,5.28,5.28,0,0,1,1.06.32l-.44,1.11a4.53,4.53,0,0,0-.85-.26,4.88,4.88,0,0,0-.88-.08,1.91,1.91,0,0,0-1.41.53,2.21,2.21,0,0,0-.51,1.58,2.05,2.05,0,0,0,.51,1.55,1.85,1.85,0,0,0,1.34.5,2.13,2.13,0,0,0,.46,0,1.11,1.11,0,0,0,.35-.1v-1.24H163v-1.14h2.69Z"/><path d="M168.37,160.58v2.08h-1.43v-6.34h2.24a2.69,2.69,0,0,1,1.79.52,1.93,1.93,0,0,1,.6,1.55,2,2,0,0,1-.69,1.59,2.67,2.67,0,0,1-1.83.6Zm0-3.16v2.08h.56a1.22,1.22,0,0,0,.85-.26,1,1,0,0,0,.29-.79,1,1,0,0,0-.29-.78,1.22,1.22,0,0,0-.85-.25Z"/><path d="M173.92,162.66H172.5v-6.34h1.42Z"/><path d="M181.06,162.66h-1.44l-2.61-4c-.08-.12-.14-.22-.19-.31a2,2,0,0,1-.13-.22h0c0,.11,0,.25,0,.43s0,.37,0,.6v3.48h-1.35v-6.34h1.54l2.51,3.86c.06.08.11.17.17.26l.15.25h0c0-.07,0-.18,0-.32s0-.33,0-.55v-3.5h1.35Z"/><path d="M181.83,162.66l2.31-6.34h1.69l2.25,6.34h-1.56l-.42-1.32h-2.3l-.42,1.32Zm2.28-2.44h1.65l-.69-2.2-.07-.22c0-.06,0-.14,0-.24h0c0,.09,0,.16-.05.23s0,.14-.07.21Z"/><path d="M194.56,162.66h-1.43l-2.61-4c-.08-.12-.15-.22-.2-.31l-.12-.22h0c0,.11,0,.25,0,.43s0,.37,0,.6v3.48h-1.35v-6.34h1.53l2.52,3.86.16.26c.06.08.11.17.16.25h0a2.33,2.33,0,0,1,0-.32c0-.15,0-.33,0-.55v-3.5h1.34Z"/><path d="M201.21,162.18a4,4,0,0,1-1,.43,5.15,5.15,0,0,1-1.28.16,3.48,3.48,0,0,1-2.4-.8,3,3,0,0,1-.89-2.38,3.4,3.4,0,0,1,.9-2.41,3.32,3.32,0,0,1,2.52-1,5.52,5.52,0,0,1,1.11.1,5.28,5.28,0,0,1,1.06.32l-.44,1.11a4.53,4.53,0,0,0-.85-.26,4.88,4.88,0,0,0-.88-.08,1.91,1.91,0,0,0-1.41.53,2.21,2.21,0,0,0-.51,1.58,2.05,2.05,0,0,0,.51,1.55,1.85,1.85,0,0,0,1.34.5,2.13,2.13,0,0,0,.46,0,1.11,1.11,0,0,0,.35-.1v-1.24h-1.26v-1.14h2.69Z"/><rect class="cls-1" x="151.6" y="22.68" width="8.58" height="8"/><rect class="cls-1" x="162.09" y="40.8" width="8.36" height="7.92"/><rect class="cls-1" x="182.99" y="49.67" width="8.58" height="7.78"/><rect class="cls-1" x="151.45" y="76.3" width="8.66" height="8.14"/><rect class="cls-1" x="162.09" y="94.2" width="8.36" height="8.36"/><path class="cls-2" d="M193.88,17.25H149.09a3.62,3.62,0,0,0-3.62,3.62v93h52v-93A3.62,3.62,0,0,0,193.88,17.25ZM159.49,111H152v-6.77h7.53Zm0-9.35H152V94.9h7.53Zm0-9H152V86h7.53Zm0-9H152V77h7.53Zm0-9H152V68.05h7.53Zm0-8.95H152V59.1h7.53Zm0-9H152V50.15h7.53Zm0-8.94H152V41.2h7.53Zm0-8.95H152V32.25h7.53Zm0-9H152V23.31h7.53ZM170,101.67h-7.53V94.9H170Zm0-9h-7.53V86H170Zm0-9h-7.53V77H170Zm0-9h-7.53V68.05H170Zm0-8.95h-7.53V59.1H170Zm0-9h-7.53V50.15H170ZM170,48h-7.53V41.2H170ZM170,39h-7.53V32.25H170Zm0-9h-7.53V23.31H170Zm10.51,71.59H173V94.9h7.53Zm0-9H173V86h7.53Zm0-9H173V77h7.53Zm0-9H173V68.05h7.53Zm0-8.95H173V59.1h7.53Zm0-9H173V50.15h7.53Zm0-8.94H173V41.2h7.53Zm0-8.95H173V32.25h7.53Zm0-9H173V23.31h7.53ZM191,111h-7.53v-6.77H191Zm0-9.35h-7.53V94.9H191Zm0-9h-7.53V86H191Zm0-9h-7.53V77H191Zm0-9h-7.53V68.05H191Zm0-8.95h-7.53V59.1H191Zm0-9h-7.53V50.15H191ZM191,48h-7.53V41.2H191ZM191,39h-7.53V32.25H191Zm0-9h-7.53V23.31H191Z"/><rect class="cls-1" x="119.37" y="58.5" width="7.53" height="12.03"/><rect class="cls-1" x="108.81" y="72" width="7.53" height="12.03"/><rect class="cls-1" x="129.93" y="98.99" width="7.53" height="12.03"/><path class="cls-3" d="M140.89,51.68h-35.5a2.88,2.88,0,0,0-2.89,2.88v59.32h41.27V54.56A2.88,2.88,0,0,0,140.89,51.68ZM116.34,111h-7.53V99h7.53Zm0-13.5h-7.53v-12h7.53Zm0-13.49h-7.53V72h7.53Zm0-13.5h-7.53v-12h7.53Zm10.56,27h-7.53v-12h7.53Zm0-13.49h-7.53V72h7.53Zm0-13.5h-7.53v-12h7.53ZM137.47,111h-7.54V99h7.54Zm0-13.5h-7.54v-12h7.54Zm0-13.49h-7.54V72h7.54Zm0-13.5h-7.54v-12h7.54Z"/></svg>