<svg id="Layer_1" data-name="Layer 1" xmlns="http://www.w3.org/2000/svg" viewBox="0 0 180 180"><defs><style>.cls-1{fill:#c4c6c7;}.cls-2{fill:#4b4b4b;}.cls-3{fill:gray;}</style></defs><rect class="cls-1" x="92.98" y="10.11" width="15.99" height="14.89"/><rect class="cls-1" x="112.52" y="43.86" width="15.58" height="14.76"/><rect class="cls-1" x="151.46" y="60.39" width="15.99" height="14.48"/><rect class="cls-1" x="92.7" y="109.99" width="16.12" height="15.17"/><rect class="cls-1" x="112.52" y="143.33" width="15.58" height="15.58"/><path class="cls-2" d="M171.74,0H88.3a6.74,6.74,0,0,0-6.74,6.74V180h96.92V6.74A6.74,6.74,0,0,0,171.74,0ZM107.67,174.67h-14V162.05h14Zm0-17.42h-14V144.63h14Zm0-16.67h-14V128h14Zm0-16.67h-14V111.29h14Zm0-16.67h-14V94.62h14Zm0-16.67h-14V78h14Zm0-16.67h-14V61.28h14Zm0-16.67h-14V44.61h14Zm0-16.67h-14V27.94h14Zm0-16.67h-14V11.27h14Zm19.58,133.36h-14V144.63h14Zm0-16.67h-14V128h14Zm0-16.67h-14V111.29h14Zm0-16.67h-14V94.62h14Zm0-16.67h-14V78h14Zm0-16.67h-14V61.28h14Zm0-16.67h-14V44.61h14Zm0-16.67h-14V27.94h14Zm0-16.67h-14V11.27h14Zm19.57,133.36h-14V144.63h14Zm0-16.67h-14V128h14Zm0-16.67h-14V111.29h14Zm0-16.67h-14V94.62h14Zm0-16.67h-14V78h14Zm0-16.67h-14V61.28h14Zm0-16.67h-14V44.61h14Zm0-16.67h-14V27.94h14Zm0-16.67h-14V11.27h14Zm19.57,150.78h-14V162.05h14Zm0-17.42h-14V144.63h14Zm0-16.67h-14V128h14Zm0-16.67h-14V111.29h14Zm0-16.67h-14V94.62h14Zm0-16.67h-14V78h14Zm0-16.67h-14V61.28h14Zm0-16.67h-14V44.61h14Zm0-16.67h-14V27.94h14Zm0-16.67h-14V11.27h14Z"/><rect class="cls-1" x="32.95" y="76.84" width="14.03" height="22.41"/><rect class="cls-1" x="13.27" y="101.98" width="14.03" height="22.41"/><rect class="cls-1" x="52.62" y="152.26" width="14.03" height="22.41"/><path class="cls-3" d="M73,64.13H6.89A5.37,5.37,0,0,0,1.52,69.5V180H78.4V69.5A5.37,5.37,0,0,0,73,64.13ZM27.3,174.67h-14V152.26h14Zm0-25.14h-14V127.12h14Zm0-25.14h-14V102h14Zm0-25.14h-14V76.84h14ZM47,149.53H33V127.12H47Zm0-25.14H33V102H47Zm0-25.14H33V76.84H47Zm19.68,75.42h-14V152.26h14Zm0-25.14h-14V127.12h14Zm0-25.14h-14V102h14Zm0-25.14h-14V76.84h14Z"/></svg>