<svg id="Layer_1" data-name="Layer 1" xmlns="http://www.w3.org/2000/svg" viewBox="0 0 180 180"><defs><style>.cls-1{fill:#d9dadb;}.cls-2{fill:#e69e1c;}.cls-3{fill:#b97d00;}.cls-4{fill:#fff;}.cls-5{fill:#282528;}.cls-6{fill:#2c2c64;}.cls-7{fill:#1f1f44;}</style></defs><circle class="cls-1" cx="90" cy="95.07" r="84.93"/><path class="cls-2" d="M58.54,153.44a3,3,0,0,0,2.33-2.54v-6.66L43.94,133.5c-3.08,2.49-6.26,3.62-8.29,3.62s-5.23-1.13-8.31-3.61L10.43,144.24v6.66a3,3,0,0,0,2.34,2.54Z"/><path class="cls-3" d="M27.35,133.51s4.33,4.84,8.1,4.84c3.42,0,8.5-4.85,8.5-4.85Z"/><path class="cls-4" d="M35.65,102.27c-8.82,0-11.18,8.2-11.18,13,0,12.19,9.21,16.48,11.18,16.48s11.18-4.29,11.18-16.48C46.83,113.14,46.29,102.27,35.65,102.27Z"/><path class="cls-5" d="M47.7,129.59a23.43,23.43,0,0,0,4.45-14.27c0-9.14-5.1-18.37-16.5-18.37s-16.49,9.52-16.49,18.37a23.43,23.43,0,0,0,4.44,14.27L5.11,141.32v9.58c0,3.63,3.35,7.86,7.66,7.86H58.54c4.31,0,7.65-4.23,7.65-7.86v-9.58ZM35.65,102.27c10.64,0,11.18,10.87,11.18,13A17.67,17.67,0,0,1,42.11,128l-.31.31c-2.71,2.68-5.45,3.51-6.15,3.51a3.37,3.37,0,0,1-.4,0l-.43-.11-.13,0-.43-.16a1.72,1.72,0,0,1-.29-.11l-.31-.13L33.1,131l-.11-.06c-3.42-1.81-8.52-6.5-8.52-15.57C24.47,110.47,26.83,102.27,35.65,102.27ZM60.87,150.9a3,3,0,0,1-2.33,2.54H12.77a3,3,0,0,1-2.34-2.54v-6.66l16.91-10.73a16.58,16.58,0,0,0,6.82,3.43,3.89,3.89,0,0,0,.56.1l.25,0a5.59,5.59,0,0,0,.68.05,5.75,5.75,0,0,0,.69-.05l.22,0,.62-.11.5-.12.08,0a15.74,15.74,0,0,0,4.36-2l.25-.16.56-.38c.3-.21.59-.43.88-.66l.13-.1,16.93,10.74Z"/><path class="cls-6" d="M166.08,153.44a3,3,0,0,0,2.33-2.54v-6.66L151.48,133.5c-3.07,2.49-6.26,3.62-8.29,3.62s-5.23-1.13-8.3-3.61L118,144.24v6.66a3,3,0,0,0,2.34,2.54Z"/><path class="cls-7" d="M134.89,133.51s4.33,4.84,8.09,4.84c3.43,0,8.5-4.85,8.5-4.85Z"/><path class="cls-4" d="M143.19,102.27c-8.82,0-11.17,8.2-11.17,13,0,12.19,9.2,16.48,11.17,16.48s11.18-4.29,11.18-16.48C154.37,113.14,153.83,102.27,143.19,102.27Z"/><path class="cls-5" d="M155.24,129.59a23.43,23.43,0,0,0,4.45-14.27c0-9.14-5.1-18.37-16.5-18.37s-16.49,9.52-16.49,18.37a23.43,23.43,0,0,0,4.45,14.27l-18.49,11.73v9.58c0,3.63,3.34,7.86,7.65,7.86h45.77c4.31,0,7.65-4.23,7.65-7.86v-9.58Zm-12.05-27.32c10.64,0,11.18,10.87,11.18,13A17.71,17.71,0,0,1,149.66,128l-.32.31c-2.71,2.68-5.45,3.51-6.15,3.51a3.37,3.37,0,0,1-.4,0l-.43-.11-.12,0c-.14,0-.29-.1-.44-.16a1.72,1.72,0,0,1-.29-.11l-.31-.13-.55-.27-.12-.06c-3.42-1.81-8.51-6.5-8.51-15.57C132,110.47,134.37,102.27,143.19,102.27Zm25.22,48.63a3,3,0,0,1-2.33,2.54H120.31A3,3,0,0,1,118,150.9v-6.66l16.92-10.73a16.49,16.49,0,0,0,6.81,3.43,3.89,3.89,0,0,0,.56.1,1.15,1.15,0,0,0,.26,0,5.29,5.29,0,0,0,.67.05,5.6,5.6,0,0,0,.69-.05l.22,0,.62-.11.5-.12.08,0a15.78,15.78,0,0,0,4.37-2l.25-.16.56-.38.88-.66.12-.1,16.93,10.74Z"/><path class="cls-5" d="M113.49,110.08l-20.81-16V73.71a3.19,3.19,0,0,0-6.38,0V93.48L65.45,110.12a3.19,3.19,0,1,0,4,5L89.11,99.4l20.49,15.74a3.14,3.14,0,0,0,1.94.66,3.19,3.19,0,0,0,1.95-5.72Z"/><path class="cls-6" d="M112,56.49c1.06,0,2.34-1.57,2.34-2.55V47.29L97.36,36.55c-3.07,2.49-6.26,3.62-8.28,3.62S83.84,39,80.77,36.56L63.85,47.29v6.65c0,1,1.28,2.55,2.34,2.55Z"/><path class="cls-7" d="M80.77,36.56s4.33,4.84,8.09,4.84c3.43,0,8.5-4.85,8.5-4.85Z"/><path class="cls-4" d="M89.08,5.32c-8.83,0-11.18,8.2-11.18,13.05,0,12.18,9.2,16.48,11.18,16.48s11.17-4.3,11.17-16.48C100.25,16.19,99.71,5.32,89.08,5.32Z"/><path class="cls-5" d="M101.12,32.64a23.45,23.45,0,0,0,4.45-14.27C105.57,9.22,100.47,0,89.08,0s-16.5,9.52-16.5,18.37A23.45,23.45,0,0,0,77,32.64L58.54,44.37v9.57c0,3.64,3.34,7.86,7.65,7.86H112c4.31,0,7.65-4.22,7.65-7.86V44.37Zm-12-27.32c10.63,0,11.17,10.87,11.17,13.05A17.71,17.71,0,0,1,95.54,31l-.32.31c-2.7,2.68-5.45,3.51-6.14,3.51a2.17,2.17,0,0,1-.41-.05c-.13,0-.27-.06-.43-.1l-.12,0-.44-.15-.29-.11-.31-.14c-.18-.08-.36-.16-.55-.26l-.12-.06C83,32.13,77.9,27.44,77.9,18.37,77.9,13.52,80.25,5.32,89.08,5.32ZM114.3,53.94c0,1-1.28,2.55-2.34,2.55H66.19c-1.06,0-2.34-1.57-2.34-2.55V47.29L80.77,36.56A16.49,16.49,0,0,0,87.58,40c.2,0,.38.08.57.1l.25,0a5.45,5.45,0,0,0,.68.05,5.59,5.59,0,0,0,.68-.05l.22,0A4.76,4.76,0,0,0,90.6,40c.17,0,.33-.07.51-.12l.08,0a16.17,16.17,0,0,0,4.36-2l.25-.17.56-.37c.29-.21.58-.43.88-.67l.12-.09L114.3,47.29Z"/></svg>