<svg id="Layer_1" data-name="Layer 1" xmlns="http://www.w3.org/2000/svg" viewBox="0 0 300 180"><defs><style>.cls-1{fill:#ececec;}.cls-2{fill:#d9dadb;}.cls-3{fill:#b6b6b6;}.cls-4{fill:#fff;}.cls-5{fill:#c4c6c7;}</style></defs><circle class="cls-1" cx="150" cy="66.82" r="48.6"/><path class="cls-2" d="M132,100.22a1.73,1.73,0,0,0,1.33-1.46V95l-9.69-6.15a8.39,8.39,0,0,1-4.74,2.07,8.34,8.34,0,0,1-4.75-2.06L104.47,95v3.8a1.73,1.73,0,0,0,1.33,1.46Z"/><path class="cls-3" d="M114.15,88.82s2.48,2.77,4.64,2.77c1.95,0,4.86-2.78,4.86-2.78Z"/><path class="cls-4" d="M118.9,70.94c-5.05,0-6.4,4.69-6.4,7.47,0,7,5.27,9.43,6.4,9.43s6.4-2.46,6.4-9.43C125.3,77.16,125,70.94,118.9,70.94Z"/><path class="cls-5" d="M125.79,86.57a13.35,13.35,0,0,0,2.55-8.16c0-5.23-2.92-10.51-9.44-10.51s-9.44,5.44-9.44,10.51A13.35,13.35,0,0,0,112,86.57l-10.58,6.71v5.48a4.68,4.68,0,0,0,4.37,4.5H132a4.68,4.68,0,0,0,4.37-4.5V93.28ZM118.9,70.94c6.09,0,6.4,6.22,6.4,7.47a10.15,10.15,0,0,1-2.7,7.24l-.18.18a6.63,6.63,0,0,1-3.52,2l-.23,0-.25-.06-.07,0-.25-.09a1,1,0,0,1-.16-.06l-.18-.08-.32-.15-.06,0c-2-1-4.88-3.72-4.88-8.91C112.5,75.63,113.85,70.94,118.9,70.94Zm14.43,27.82a1.73,1.73,0,0,1-1.33,1.46H105.8a1.73,1.73,0,0,1-1.33-1.46V95l9.68-6.14a9.32,9.32,0,0,0,3.9,2l.32.06h.14l.39,0a2.66,2.66,0,0,0,.39,0h.13l.35-.06.29-.07,0,0a8.86,8.86,0,0,0,2.49-1.14l.15-.09.32-.22c.17-.11.33-.24.5-.37l.07-.06L133.33,95Z"/><path class="cls-2" d="M193.53,100.22a1.72,1.72,0,0,0,1.34-1.46V95l-9.69-6.15a6.48,6.48,0,0,1-9.49,0L166,95v3.8a1.73,1.73,0,0,0,1.33,1.46Z"/><path class="cls-3" d="M175.69,88.82s2.47,2.77,4.63,2.77c2,0,4.86-2.78,4.86-2.78Z"/><path class="cls-4" d="M180.44,70.94c-5.05,0-6.4,4.69-6.4,7.47,0,7,5.27,9.43,6.4,9.43s6.39-2.46,6.39-9.43C186.83,77.16,186.53,70.94,180.44,70.94Z"/><path class="cls-5" d="M187.33,86.57a13.35,13.35,0,0,0,2.55-8.16c0-5.23-2.92-10.51-9.44-10.51S171,73.34,171,78.41a13.41,13.41,0,0,0,2.54,8.16L163,93.28v5.48a4.69,4.69,0,0,0,4.38,4.5h26.19a4.68,4.68,0,0,0,4.38-4.5V93.28Zm-6.89-15.63c6.09,0,6.39,6.22,6.39,7.47a10.15,10.15,0,0,1-2.69,7.24l-.18.18a6.63,6.63,0,0,1-3.52,2l-.23,0-.25-.06-.07,0-.25-.09-.17-.06-.17-.08-.32-.15-.07,0c-1.95-1-4.87-3.72-4.87-8.91C174,75.63,175.39,70.94,180.44,70.94Zm14.43,27.82a1.72,1.72,0,0,1-1.34,1.46H167.34A1.73,1.73,0,0,1,166,98.76V95l9.68-6.14a9.35,9.35,0,0,0,3.89,2l.33.06h.14l.39,0,.39,0H181l.35-.06.29-.07.05,0a8.86,8.86,0,0,0,2.49-1.14l.15-.09.32-.22.5-.37.07-.06L194.87,95Z"/><path class="cls-5" d="M163.44,75.41l-11.91-9.15V54.6a1.83,1.83,0,1,0-3.65,0V65.91L136,75.43a1.82,1.82,0,1,0,2.28,2.85l11.26-9,11.73,9a1.83,1.83,0,0,0,2.22-2.9Z"/><path class="cls-2" d="M162.57,44.74a1.73,1.73,0,0,0,1.33-1.45V39.48l-9.69-6.15a8.32,8.32,0,0,1-4.74,2.07,8.34,8.34,0,0,1-4.75-2.06L135,39.48v3.81a1.73,1.73,0,0,0,1.33,1.45Z"/><path class="cls-3" d="M144.72,33.34s2.47,2.77,4.63,2.77c2,0,4.86-2.78,4.86-2.78Z"/><path class="cls-4" d="M149.47,15.46c-5.05,0-6.4,4.69-6.4,7.47,0,7,5.27,9.43,6.4,9.43s6.4-2.46,6.4-9.43C155.87,21.68,155.56,15.46,149.47,15.46Z"/><path class="cls-5" d="M156.36,31.09a13.35,13.35,0,0,0,2.55-8.16c0-5.23-2.92-10.51-9.44-10.51S140,17.87,140,22.93a13.35,13.35,0,0,0,2.55,8.16L132,37.81v5.48a4.67,4.67,0,0,0,4.37,4.49h26.2a4.67,4.67,0,0,0,4.37-4.49V37.81Zm-6.89-15.63c6.09,0,6.4,6.22,6.4,7.47a10.15,10.15,0,0,1-2.7,7.24l-.18.18a6.63,6.63,0,0,1-3.52,2l-.23,0-.25-.06-.07,0-.25-.08-.16-.07-.18-.07-.32-.16-.06,0c-2-1-4.88-3.72-4.88-8.91C143.07,20.15,144.42,15.46,149.47,15.46ZM163.9,43.29a1.73,1.73,0,0,1-1.33,1.45h-26.2A1.73,1.73,0,0,1,135,43.29V39.48l9.68-6.14a9.32,9.32,0,0,0,3.9,2l.32.06.14,0,.39,0,.39,0,.13,0,.35-.06.29-.07h.05a8.91,8.91,0,0,0,2.49-1.15l.15-.09.32-.21.5-.38.07-.06,9.69,6.15Z"/><path class="cls-2" d="M8.22,133.74v-9.1h2.59a2.9,2.9,0,0,1,1.87.56,1.85,1.85,0,0,1,.69,1.52,2.21,2.21,0,0,1-.42,1.35,2.25,2.25,0,0,1-1.15.81v0a2.38,2.38,0,0,1,1.47.7,2.13,2.13,0,0,1,.55,1.53A2.4,2.4,0,0,1,13,133a3.12,3.12,0,0,1-2.11.72Zm1.06-8.14v2.94h1.09a2.07,2.07,0,0,0,1.38-.42,1.45,1.45,0,0,0,.5-1.19,1.15,1.15,0,0,0-.44-1,2.13,2.13,0,0,0-1.3-.33Zm0,3.9v3.28h1.45a2.18,2.18,0,0,0,1.46-.45,1.52,1.52,0,0,0,.51-1.22,1.41,1.41,0,0,0-.55-1.21,2.81,2.81,0,0,0-1.64-.4Z"/><path class="cls-2" d="M14.61,133.74l3.49-9.1h1.11l3.5,9.1H21.53l-.92-2.44H16.67l-.87,2.44Zm2.42-3.4h3.23l-1.47-4a1.64,1.64,0,0,1-.07-.25c0-.1,0-.22-.07-.36h0c0,.13-.05.24-.07.35a1.34,1.34,0,0,1-.08.26Z"/><path class="cls-2" d="M24.05,133.74v-9.1h2.52a5.14,5.14,0,0,1,3.6,1.11,4.25,4.25,0,0,1,1.21,3.32A4.47,4.47,0,0,1,30,132.46a5,5,0,0,1-3.58,1.28Zm1.07-8.14v7.18h1.36a3.83,3.83,0,0,0,2.78-1,3.59,3.59,0,0,0,1-2.72,3.42,3.42,0,0,0-.93-2.62,3.91,3.91,0,0,0-2.79-.88Z"/><path class="cls-2" d="M31.8,133.74l3.49-9.1h1.1l3.51,9.1H38.72l-.92-2.44H33.85L33,133.74Zm2.41-3.4h3.24l-1.48-4c0-.06,0-.14-.07-.25s0-.22-.07-.36h0a3.09,3.09,0,0,1-.07.35,1.34,1.34,0,0,1-.08.26Z"/><path class="cls-2" d="M48.57,133.74h-1.3l-4.69-7.26a3.28,3.28,0,0,1-.29-.57h0a3.54,3.54,0,0,1,0,.46c0,.21,0,.47,0,.79v6.58H41.24v-9.1h1.38l4.56,7.14c.09.15.17.27.24.37l.13.24h0a5.06,5.06,0,0,1,0-.53c0-.23,0-.5,0-.81v-6.41h1.06Z"/><path class="cls-2" d="M61.9,133.74H59.35l-2.66-3.88-.1-.18-.14-.32h0v4.38H54.37v-9.1h2.05v4.22h0l.1-.22.15-.29,2.52-3.71H61.6l-3.13,4.29Z"/><path class="cls-2" d="M68.26,133.74H62.81v-9.1h5.25v1.67h-3.2v2h3V130h-3v2.08h3.4Z"/><path class="cls-2" d="M71.77,130.76v3h-2v-9.1h3.22a3.91,3.91,0,0,1,2.58.74,2.81,2.81,0,0,1,.86,2.24,2.87,2.87,0,0,1-1,2.27,3.86,3.86,0,0,1-2.64.87Zm0-4.55v3h.81a1.71,1.71,0,0,0,1.23-.38,1.47,1.47,0,0,0,.41-1.13,1.44,1.44,0,0,0-.41-1.11,1.81,1.81,0,0,0-1.23-.37Z"/><path class="cls-2" d="M83.17,133.74H77.71v-9.1H83v1.67h-3.2v2h3V130h-3v2.08h3.41Z"/><path class="cls-2" d="M92.1,133.06a5.46,5.46,0,0,1-1.47.61,7.08,7.08,0,0,1-1.84.23,5,5,0,0,1-3.45-1.14,4.36,4.36,0,0,1-1.28-3.42,4.85,4.85,0,0,1,1.3-3.47A4.75,4.75,0,0,1,89,124.49a8,8,0,0,1,1.59.14,7.6,7.6,0,0,1,1.53.47l-.64,1.58a7,7,0,0,0-1.22-.37A7.12,7.12,0,0,0,89,126.2a2.68,2.68,0,0,0-2,.76,3.13,3.13,0,0,0-.74,2.28,3,3,0,0,0,.73,2.23,2.7,2.7,0,0,0,1.93.71,4.23,4.23,0,0,0,.66-.05,2.06,2.06,0,0,0,.51-.15v-1.79H88.23v-1.63H92.1Z"/><path class="cls-2" d="M92.89,133.74l3.32-9.1h2.43l3.23,9.1H99.64l-.62-1.9h-3.3l-.61,1.9Zm3.28-3.5h2.38l-1-3.16-.1-.32c0-.09,0-.2-.06-.34h0l-.06.33-.1.31Z"/><path class="cls-2" d="M114.5,124.64l-2.41,9.1h-2.27l-1.51-5.84a3.41,3.41,0,0,1-.09-.48,3.19,3.19,0,0,1,0-.54h0c0,.21,0,.4-.07.56a2.63,2.63,0,0,1-.1.46l-1.54,5.84h-2.37l-2.39-9.1h2.24l1.28,6.06a4.3,4.3,0,0,1,.07.45c0,.18,0,.37,0,.59h0a4.7,4.7,0,0,1,.06-.51c0-.18.07-.36.12-.56l1.65-6h2.2l1.49,6.11.08.41c0,.17,0,.36.07.57h0a4.4,4.4,0,0,1,0-.51c0-.16,0-.33.08-.51l1.26-6.07Z"/><path class="cls-2" d="M114.22,133.74l3.31-9.1H120l3.23,9.1H121l-.62-1.9h-3.3l-.61,1.9Zm3.28-3.5h2.38l-1-3.16c0-.12-.06-.23-.09-.32s0-.2-.06-.34h0a2.72,2.72,0,0,1-.07.33,3.19,3.19,0,0,1-.09.31Z"/><path class="cls-2" d="M126.39,133.74h-2v-9.1h2Z"/><path class="cls-2" d="M127.48,133.74l3.31-9.1h2.44l3.23,9.1h-2.23l-.62-1.9h-3.3l-.61,1.9Zm3.28-3.5h2.38l-1-3.16c0-.12-.07-.23-.09-.32s0-.2-.06-.34h0a2.72,2.72,0,0,1-.07.33,3.19,3.19,0,0,1-.09.31Z"/><path class="cls-2" d="M145.79,133.74h-2.07L140,128c-.11-.17-.21-.31-.28-.44a2.92,2.92,0,0,1-.18-.31h0c0,.16,0,.36,0,.61s0,.53,0,.86v5H137.6v-9.1h2.21l3.61,5.54.24.37.22.37h0c0-.1,0-.26,0-.47s0-.47,0-.78v-5h1.94Z"/><path class="cls-2" d="M151.46,133.74v-9.1h3.22a5.23,5.23,0,0,1,3.64,1.11,4.25,4.25,0,0,1,1.21,3.32,4.5,4.5,0,0,1-1.32,3.4,4.88,4.88,0,0,1-3.53,1.27Zm2-7.43v5.77h1a2.74,2.74,0,0,0,2.09-.8,3,3,0,0,0,.76-2.18,2.76,2.76,0,0,0-.75-2,2.88,2.88,0,0,0-2.11-.74Z"/><path class="cls-2" d="M159.87,133.74l3.31-9.1h2.43l3.24,9.1h-2.24l-.61-1.9h-3.3l-.61,1.9Zm3.27-3.5h2.38l-1-3.16a3.29,3.29,0,0,1-.09-.32,2.12,2.12,0,0,1-.06-.34h-.05c0,.12,0,.23-.07.33a3.19,3.19,0,0,1-.09.31Z"/><path class="cls-2" d="M178.17,133.74H176.1L172.35,128l-.28-.44-.17-.31h0c0,.16,0,.36,0,.61s0,.53,0,.86v5H170v-9.1h2.2l3.62,5.54.23.37c.08.13.16.25.22.37h0a3.73,3.73,0,0,1,0-.47c0-.21,0-.47,0-.78v-5h1.93Z"/><path class="cls-2" d="M185.89,130.76v3h-2v-9.1h3.21a3.87,3.87,0,0,1,2.58.74,2.78,2.78,0,0,1,.86,2.24,2.86,2.86,0,0,1-1,2.27,3.86,3.86,0,0,1-2.64.87Zm0-4.55v3h.81a1.74,1.74,0,0,0,1.23-.38,1.47,1.47,0,0,0,.41-1.13,1.44,1.44,0,0,0-.41-1.11,1.84,1.84,0,0,0-1.23-.37Z"/><path class="cls-2" d="M197.29,133.74h-5.46v-9.1h5.25v1.67h-3.2v2h3V130h-3v2.08h3.41Z"/><path class="cls-2" d="M206.93,133.74h-2.06L201.11,128l-.28-.44-.17-.31h0c0,.16,0,.36,0,.61s0,.53,0,.86v5h-1.93v-9.1H201l3.61,5.54.24.37c.07.13.15.25.21.37h0a3.73,3.73,0,0,1,0-.47c0-.21,0-.47,0-.78v-5h1.93Z"/><path class="cls-2" d="M216.49,133.06a5.6,5.6,0,0,1-1.47.61,7.08,7.08,0,0,1-1.84.23,5,5,0,0,1-3.45-1.14,4.32,4.32,0,0,1-1.28-3.42,4.85,4.85,0,0,1,1.3-3.47,4.72,4.72,0,0,1,3.61-1.38,8,8,0,0,1,1.6.14,7.6,7.6,0,0,1,1.53.47l-.64,1.58a7.27,7.27,0,0,0-1.22-.37,7.15,7.15,0,0,0-1.27-.11,2.67,2.67,0,0,0-2,.76,3.13,3.13,0,0,0-.75,2.28,3,3,0,0,0,.74,2.23,2.7,2.7,0,0,0,1.93.71,4.23,4.23,0,0,0,.66-.05,2.35,2.35,0,0,0,.51-.15v-1.79h-1.82v-1.63h3.87Z"/><path class="cls-2" d="M223.72,133.74h-5.46v-9.1h5.25v1.67h-3.2v2h3V130h-3v2.08h3.41Z"/><path class="cls-2" d="M235.55,133.74h-2v-5.45c0-.29,0-.6,0-.92s0-.67.06-1h0c-.05.28-.1.51-.15.72a3.89,3.89,0,0,1-.13.48l-2.14,6.19h-1.67l-2.17-6.12q0-.14-.12-.45c0-.21-.11-.49-.17-.82h-.06c0,.44.05.87.07,1.26s0,.76,0,1.1v5h-1.85v-9.1h3L230,130a4.62,4.62,0,0,1,.19.6c.05.2.09.4.13.6h0c.06-.23.12-.44.18-.64s.12-.4.18-.57l1.86-5.38h2.93Z"/><path class="cls-2" d="M237.62,133.74v-9.1h3.31a4,4,0,0,1,2.35.58,1.88,1.88,0,0,1,.81,1.63,2,2,0,0,1-.43,1.28,2.34,2.34,0,0,1-1.12.76v0a2.16,2.16,0,0,1,1.4.69,2.08,2.08,0,0,1,.52,1.41,2.43,2.43,0,0,1-.9,2,3.74,3.74,0,0,1-2.44.73Zm2-7.59v2.22h.9a1.53,1.53,0,0,0,1-.3,1.07,1.07,0,0,0,.37-.84.94.94,0,0,0-.38-.81,1.91,1.91,0,0,0-1.12-.27Zm0,3.74v2.34h1.11a1.69,1.69,0,0,0,1.11-.33,1.1,1.1,0,0,0,.41-.9,1,1,0,0,0-.4-.81,1.79,1.79,0,0,0-1.11-.3Z"/><path class="cls-2" d="M245,133.74l3.31-9.1h2.43l3.24,9.1h-2.24l-.61-1.9h-3.3l-.61,1.9Zm3.27-3.5h2.38l-1-3.16a3.29,3.29,0,0,1-.09-.32,1.39,1.39,0,0,1-.06-.34h0c0,.12-.05.23-.07.33a3.19,3.19,0,0,1-.09.31Z"/><path class="cls-2" d="M263.28,133.74h-2.07L257.46,128l-.28-.44-.17-.31h0c0,.16,0,.36,0,.61s0,.53,0,.86v5H255.1v-9.1h2.2l3.62,5.54.23.37c.08.13.16.25.22.37h0a3.73,3.73,0,0,1,0-.47c0-.21,0-.47,0-.78v-5h1.93Z"/><path class="cls-2" d="M272.84,133.06a5.74,5.74,0,0,1-1.47.61,7.15,7.15,0,0,1-1.85.23,5,5,0,0,1-3.44-1.14,4.33,4.33,0,0,1-1.29-3.42,4.86,4.86,0,0,1,1.31-3.47,4.72,4.72,0,0,1,3.61-1.38,8.15,8.15,0,0,1,1.6.14,7.6,7.6,0,0,1,1.53.47l-.65,1.58a6.91,6.91,0,0,0-1.21-.37,7.15,7.15,0,0,0-1.27-.11,2.69,2.69,0,0,0-2,.76,3.17,3.17,0,0,0-.74,2.28,3,3,0,0,0,.74,2.23,2.69,2.69,0,0,0,1.93.71,4.43,4.43,0,0,0,.66-.05,2.35,2.35,0,0,0,.51-.15v-1.79H269v-1.63h3.88Z"/><path class="cls-2" d="M273.63,133.74l3.31-9.1h2.43l3.24,9.1h-2.23l-.62-1.9h-3.3l-.61,1.9Zm3.27-3.5h2.38l-1-3.16a3.29,3.29,0,0,1-.09-.32c0-.09,0-.2-.06-.34h-.05a2.72,2.72,0,0,1-.07.33,3.19,3.19,0,0,1-.09.31Z"/><path class="cls-2" d="M291.94,133.74h-2.07L286.11,128c-.1-.17-.2-.31-.27-.44a2.92,2.92,0,0,1-.18-.31h0c0,.16,0,.36,0,.61s0,.53,0,.86v5h-1.93v-9.1H286l3.61,5.54.24.37c.07.13.15.25.21.37h0a3.73,3.73,0,0,1,0-.47c0-.21,0-.47,0-.78v-5h1.94Z"/><path class="cls-2" d="M72.57,148.74l.85-1.6a5.22,5.22,0,0,0,1.19.55,3.79,3.79,0,0,0,1.07.15,1.68,1.68,0,0,0,1.08-.29,1,1,0,0,0,.07-1.49,2.42,2.42,0,0,0-1-.42,4.79,4.79,0,0,1-2.22-1,2.32,2.32,0,0,1-.69-1.79,2.55,2.55,0,0,1,.89-2,3.61,3.61,0,0,1,2.51-.81,5.73,5.73,0,0,1,2.55.59l-.77,1.62a4.07,4.07,0,0,0-1-.42,3,3,0,0,0-.86-.13,1.66,1.66,0,0,0-1,.24.79.79,0,0,0-.34.69.73.73,0,0,0,.31.64,3.6,3.6,0,0,0,1.13.4,4.32,4.32,0,0,1,2.14,1,2.54,2.54,0,0,1,.66,1.87,2.64,2.64,0,0,1-.91,2.1,3.92,3.92,0,0,1-2.65.8,6.91,6.91,0,0,1-1.58-.2A5.62,5.62,0,0,1,72.57,148.74Z"/><path class="cls-2" d="M88,145.4a4.33,4.33,0,0,1-1,3.07,3.72,3.72,0,0,1-2.87,1,3.61,3.61,0,0,1-2.78-1,4.36,4.36,0,0,1-.92-3v-5.24h2v5.28a2.72,2.72,0,0,0,.43,1.66,1.57,1.57,0,0,0,1.3.55,1.5,1.5,0,0,0,1.27-.54A2.52,2.52,0,0,0,86,145.6v-5.36h2Z"/><path class="cls-2" d="M100.38,149.34h-2v-5.45c0-.29,0-.6,0-.92s0-.67.06-1h-.05c-.06.28-.11.51-.15.72a3.68,3.68,0,0,1-.14.48L96,149.34H94.28l-2.17-6.12-.11-.45c0-.21-.11-.49-.17-.82h-.06c0,.44,0,.87.06,1.26s0,.76,0,1.1v5H90v-9.1h3l1.86,5.39c.07.2.14.4.19.6s.09.4.13.6h0c.06-.23.12-.44.18-.64s.12-.4.18-.57l1.86-5.38h2.93Z"/><path class="cls-2" d="M102.45,149.34v-9.1h3.31a4,4,0,0,1,2.34.58,1.85,1.85,0,0,1,.82,1.63,2,2,0,0,1-.44,1.28,2.27,2.27,0,0,1-1.11.76v0a2.11,2.11,0,0,1,1.39.69,2,2,0,0,1,.52,1.41,2.45,2.45,0,0,1-.89,2,3.75,3.75,0,0,1-2.45.73Zm2-7.59V144h.9a1.55,1.55,0,0,0,1-.3,1.06,1.06,0,0,0,.36-.84.93.93,0,0,0-.37-.81,1.93,1.93,0,0,0-1.12-.27Zm0,3.74v2.34h1.11a1.71,1.71,0,0,0,1.11-.33,1.1,1.1,0,0,0,.4-.9,1,1,0,0,0-.39-.81,1.83,1.83,0,0,0-1.11-.3Z"/><path class="cls-2" d="M116.24,149.34h-5.46v-9.1H116v1.67h-3.2v2h3v1.67h-3v2.08h3.41Z"/><path class="cls-2" d="M125.09,149.34h-2.31l-1.22-2.24a3.23,3.23,0,0,0-.58-.83,1.12,1.12,0,0,0-.68-.31h-.55v3.38h-2v-9.1H121a4,4,0,0,1,2.48.64,2.29,2.29,0,0,1,.83,1.94,2.38,2.38,0,0,1-.53,1.56,3.11,3.11,0,0,1-1.46,1v0a1.79,1.79,0,0,1,.76.54,5.89,5.89,0,0,1,.6.84Zm-5.34-7.57v2.64h.89a1.45,1.45,0,0,0,1.07-.4,1.37,1.37,0,0,0,.39-1,1.17,1.17,0,0,0-.35-.94,1.64,1.64,0,0,0-1.07-.31Z"/><path class="cls-2" d="M129.77,149.34v-9.1H133a5.2,5.2,0,0,1,3.63,1.11,4.25,4.25,0,0,1,1.22,3.32,4.47,4.47,0,0,1-1.33,3.4,4.84,4.84,0,0,1-3.52,1.27Zm2-7.43v5.77h1a2.76,2.76,0,0,0,2.09-.8,3,3,0,0,0,.76-2.18,2.76,2.76,0,0,0-.75-2,2.92,2.92,0,0,0-2.11-.74Z"/><path class="cls-2" d="M138.18,149.34l3.32-9.1h2.43l3.24,9.1h-2.24l-.61-1.9H141l-.61,1.9Zm3.28-3.5h2.38l-1-3.16-.1-.32c0-.09,0-.21-.06-.34h-.05q0,.18-.06.33l-.1.31Z"/><path class="cls-2" d="M154.18,140.24l-3,5.86v3.24h-2.05v-3.2l-2.88-5.9h2.34l1.47,3.39s0,.12.07.24.08.29.13.51h0a3.19,3.19,0,0,1,.09-.41,1.85,1.85,0,0,1,.11-.31l1.49-3.42Z"/><path class="cls-2" d="M153.26,149.34l3.31-9.1H159l3.24,9.1H160l-.62-1.9h-3.3l-.61,1.9Zm3.27-3.5h2.38l-1-3.16a3.29,3.29,0,0,1-.09-.32c0-.09,0-.21-.06-.34h0a2.72,2.72,0,0,1-.07.33,3.19,3.19,0,0,1-.09.31Z"/><path class="cls-2" d="M177.34,149.34h-2v-5.45c0-.29,0-.6,0-.92s0-.67.06-1h0c-.06.28-.11.51-.15.72a3.68,3.68,0,0,1-.14.48l-2.13,6.19h-1.68l-2.17-6.12-.11-.45c-.05-.21-.11-.49-.17-.82h-.06c0,.44.05.87.06,1.26s0,.76,0,1.1v5H167v-9.1h3l1.86,5.39a4.56,4.56,0,0,1,.18.6c.05.2.1.4.14.6h0c.06-.23.12-.44.18-.64s.12-.4.18-.57l1.86-5.38h2.93Z"/><path class="cls-2" d="M178.43,149.34l3.31-9.1h2.43l3.24,9.1h-2.23l-.62-1.9h-3.3l-.61,1.9Zm3.27-3.5h2.38l-1-3.16a3.29,3.29,0,0,1-.09-.32c0-.09,0-.21-.06-.34h-.05c0,.12,0,.23-.07.33a3.19,3.19,0,0,1-.09.31Z"/><path class="cls-2" d="M196.73,149.34h-2.06l-3.76-5.72-.28-.44-.17-.31h0c0,.16,0,.36,0,.61s0,.53,0,.86v5h-1.93v-9.1h2.21l3.61,5.54.23.37c.08.13.16.25.22.37h0a3.73,3.73,0,0,1,0-.47c0-.21,0-.47,0-.78v-5h1.93Z"/><path class="cls-2" d="M206.24,145.4a4.33,4.33,0,0,1-1,3.07,3.71,3.71,0,0,1-2.86,1,3.62,3.62,0,0,1-2.79-1,4.36,4.36,0,0,1-.92-3v-5.24h2.06v5.28a2.66,2.66,0,0,0,.43,1.66,1.55,1.55,0,0,0,1.29.55,1.5,1.5,0,0,0,1.27-.54,2.45,2.45,0,0,0,.43-1.59v-5.36h2.05Z"/><path class="cls-2" d="M207.47,148.74l.85-1.6a5.08,5.08,0,0,0,1.2.55,3.67,3.67,0,0,0,1.06.15,1.68,1.68,0,0,0,1.08-.29,1,1,0,0,0,.07-1.49,2.42,2.42,0,0,0-1-.42,4.79,4.79,0,0,1-2.22-1,2.32,2.32,0,0,1-.69-1.79,2.55,2.55,0,0,1,.89-2,3.62,3.62,0,0,1,2.51-.81,5.73,5.73,0,0,1,2.55.59L213,142.3a4.07,4.07,0,0,0-1-.42,3,3,0,0,0-.86-.13,1.66,1.66,0,0,0-1,.24.79.79,0,0,0-.34.69.73.73,0,0,0,.31.64,3.6,3.6,0,0,0,1.13.4,4.32,4.32,0,0,1,2.14,1,2.54,2.54,0,0,1,.66,1.87,2.64,2.64,0,0,1-.91,2.1,3.91,3.91,0,0,1-2.64.8,6.92,6.92,0,0,1-1.59-.2A5.62,5.62,0,0,1,207.47,148.74Z"/><path class="cls-2" d="M217.56,149.34H215.5v-9.1h2.06Z"/><path class="cls-2" d="M218.65,149.34l3.31-9.1h2.43l3.24,9.1h-2.24l-.61-1.9h-3.3l-.61,1.9Zm3.27-3.5h2.38l-1-3.16a3.29,3.29,0,0,1-.09-.32,1.49,1.49,0,0,1-.06-.34h-.05c0,.12,0,.23-.07.33a3.19,3.19,0,0,1-.09.31Z"/><path class="cls-2" d="M104.25,162.65h-1.78L100.62,160l-.07-.13-.1-.22h0v3H99v-6.33h1.43v2.94h0l.07-.15.11-.2,1.75-2.59H104l-2.17,3Z"/><path class="cls-2" d="M107.29,162.77a3,3,0,0,1-2.22-.89,3.18,3.18,0,0,1-.85-2.31,3.45,3.45,0,0,1,.86-2.43,3,3,0,0,1,2.31-.92,2.88,2.88,0,0,1,2.19.88,3.29,3.29,0,0,1,.84,2.34,3.35,3.35,0,0,1-.87,2.41A3,3,0,0,1,107.29,162.77Zm0-1.24a1.39,1.39,0,0,0,1.17-.53,2.27,2.27,0,0,0,.44-1.48,2.48,2.48,0,0,0-.42-1.53,1.38,1.38,0,0,0-1.15-.55,1.42,1.42,0,0,0-1.19.57,2.74,2.74,0,0,0,0,3A1.41,1.41,0,0,0,107.31,161.53Z"/><path class="cls-2" d="M115.55,157.48h-1.81v5.17h-1.43v-5.17h-1.79v-1.16h5Z"/><path class="cls-2" d="M115.1,162.65l2.3-6.33h1.69l2.25,6.33h-1.55l-.43-1.32h-2.3l-.42,1.32Zm2.27-2.43H119l-.7-2.2c0-.09,0-.16-.06-.22a1.19,1.19,0,0,1,0-.24h0a1.32,1.32,0,0,1,0,.23,1,1,0,0,1-.06.21Z"/><path class="cls-2" d="M129.07,157.48h-1.8v5.17h-1.43v-5.17H124v-1.16h5Z"/><path class="cls-2" d="M128.62,162.65l2.3-6.33h1.69l2.26,6.33h-1.56l-.43-1.32h-2.29l-.43,1.32Zm2.28-2.43h1.65l-.7-2.2a2.18,2.18,0,0,0-.06-.22,1.19,1.19,0,0,1,0-.24h0c0,.09,0,.16,0,.23s0,.14-.07.21Z"/><path class="cls-2" d="M141.35,162.65h-1.44l-2.61-4-.19-.31-.12-.22h0c0,.11,0,.25,0,.42s0,.38,0,.61v3.47h-1.34v-6.33h1.53l2.52,3.86.16.26a1.65,1.65,0,0,1,.15.25h0a2.38,2.38,0,0,1,0-.33c0-.14,0-.32,0-.54v-3.5h1.34Z"/><path class="cls-2" d="M145.45,160.58a2.15,2.15,0,0,1-.57,1.63,2.22,2.22,0,0,1-1.62.55,3,3,0,0,1-.59-.06,3.18,3.18,0,0,1-.62-.2l.44-1.08a1.59,1.59,0,0,0,.32.12,1,1,0,0,0,.32.05.81.81,0,0,0,.65-.24,1.13,1.13,0,0,0,.21-.77l0-4.26h1.42Z"/><path class="cls-2" d="M152,159.91a3,3,0,0,1-.66,2.14,2.6,2.6,0,0,1-2,.72,2.52,2.52,0,0,1-1.93-.7,3,3,0,0,1-.65-2.1v-3.65h1.43V160a1.86,1.86,0,0,0,.3,1.15,1.09,1.09,0,0,0,.91.38,1.05,1.05,0,0,0,.88-.37,1.75,1.75,0,0,0,.29-1.11v-3.73H152Z"/><path class="cls-2" d="M159.06,162.65h-1.43l-2.61-4c-.08-.12-.15-.22-.2-.31l-.12-.22h0q0,.16,0,.42c0,.18,0,.38,0,.61v3.47h-1.35v-6.33h1.53l2.52,3.86.16.26c.06.08.11.17.16.25h0a2.38,2.38,0,0,1,0-.33c0-.14,0-.32,0-.54v-3.5h1.34Z"/><path class="cls-2" d="M165.71,162.18a4,4,0,0,1-1,.43,5.15,5.15,0,0,1-1.28.16,3.48,3.48,0,0,1-2.4-.8,3,3,0,0,1-.89-2.38,3.38,3.38,0,0,1,.9-2.41,3.32,3.32,0,0,1,2.52-1,5.52,5.52,0,0,1,1.11.1,5.28,5.28,0,0,1,1.06.32l-.44,1.1a5.33,5.33,0,0,0-.85-.25,4.88,4.88,0,0,0-.88-.08,1.91,1.91,0,0,0-1.41.53,2.21,2.21,0,0,0-.51,1.58,2.07,2.07,0,0,0,.51,1.55,1.85,1.85,0,0,0,1.34.5,2.13,2.13,0,0,0,.46,0,1.11,1.11,0,0,0,.35-.1v-1.24H163v-1.14h2.69Z"/><path class="cls-2" d="M168.37,160.58v2.07h-1.43v-6.33h2.24a2.64,2.64,0,0,1,1.79.52,1.93,1.93,0,0,1,.6,1.55,2,2,0,0,1-.69,1.59,2.67,2.67,0,0,1-1.83.6Zm0-3.16v2.08h.56a1.17,1.17,0,0,0,.85-.27,1.19,1.19,0,0,0,0-1.56,1.22,1.22,0,0,0-.85-.25Z"/><path class="cls-2" d="M173.92,162.65H172.5v-6.33h1.42Z"/><path class="cls-2" d="M181.06,162.65h-1.44l-2.61-4c-.08-.12-.14-.22-.19-.31a2,2,0,0,1-.13-.22h0c0,.11,0,.25,0,.42s0,.38,0,.61v3.47h-1.35v-6.33h1.54l2.51,3.86c.06.08.11.17.17.26l.15.25h0q0-.1,0-.33c0-.14,0-.32,0-.54v-3.5h1.35Z"/><path class="cls-2" d="M181.83,162.65l2.31-6.33h1.69l2.25,6.33h-1.56l-.42-1.32h-2.3l-.42,1.32Zm2.28-2.43h1.65l-.69-2.2-.07-.22c0-.06,0-.14,0-.24h0c0,.09,0,.16-.05.23s0,.14-.07.21Z"/><path class="cls-2" d="M194.56,162.65h-1.43l-2.61-4c-.08-.12-.15-.22-.2-.31l-.12-.22h0q0,.16,0,.42c0,.18,0,.38,0,.61v3.47h-1.35v-6.33h1.53l2.52,3.86.16.26c.06.08.11.17.16.25h0a2.38,2.38,0,0,1,0-.33c0-.14,0-.32,0-.54v-3.5h1.34Z"/><path class="cls-2" d="M201.21,162.18a4,4,0,0,1-1,.43,5.15,5.15,0,0,1-1.28.16,3.48,3.48,0,0,1-2.4-.8,3,3,0,0,1-.89-2.38,3.38,3.38,0,0,1,.9-2.41,3.32,3.32,0,0,1,2.52-1,5.52,5.52,0,0,1,1.11.1,5.28,5.28,0,0,1,1.06.32l-.44,1.1a5.33,5.33,0,0,0-.85-.25,4.88,4.88,0,0,0-.88-.08,1.91,1.91,0,0,0-1.41.53,2.21,2.21,0,0,0-.51,1.58,2.07,2.07,0,0,0,.51,1.55,1.85,1.85,0,0,0,1.34.5,2.13,2.13,0,0,0,.46,0,1.11,1.11,0,0,0,.35-.1v-1.24h-1.26v-1.14h2.69Z"/></svg>