<svg id="Layer_1" data-name="Layer 1" xmlns="http://www.w3.org/2000/svg" viewBox="0 0 180 180"><defs><style>.cls-1{fill:#fafafa;}.cls-2{fill:#bfc1c2;}.cls-3{fill:#d4d5d6;}.cls-4{fill:#fff;}.cls-5{fill:gray;}</style></defs><path class="cls-1" d="M18.78,122.8c.13-1.64.69-2.39,1.9-2.67a2.53,2.53,0,0,1,2.94,1.45c.71,1.33,1.33,2.7,2,4,.23.44.1.61-.3.8q-3.63,1.74-7.25,3.53c-.39.2-.6.19-.8-.25-.53-1.19-1.1-2.36-1.67-3.52a2.54,2.54,0,0,1,.17-3.06A2.23,2.23,0,0,1,18.78,122.8Zm2.65-.8a1.17,1.17,0,0,0-1.2,1.47,6.79,6.79,0,0,0,.45,1.16c.78,1.73.93,1.77,2.54.73l.08,0c.22-.11.31-.26.19-.5-.41-.78-.8-1.58-1.23-2.35A.94.94,0,0,0,21.43,122Zm-4.51,3.2c.15.34.34.8.55,1.26.69,1.49.8,1.52,2.19.63.17-.11.39-.18.25-.46a12.44,12.44,0,0,0-1.2-2.25.91.91,0,0,0-1.13-.26A1,1,0,0,0,16.92,125.2Z"/><path class="cls-1" d="M128.12,22.11c1,1.64.65,3.17-.89,3.94a2.37,2.37,0,0,1-2.14,0c-1.42-.65-2.83-1.34-4.25-2-.36-.17-.48-.32-.27-.73q1.83-3.69,3.61-7.4c.16-.33.32-.42.67-.23,1.29.66,2.59,1.29,3.88,1.95a2.3,2.3,0,0,1,1.42,2.43,2.18,2.18,0,0,1-1.9,2C128.2,22,128.16,22.08,128.12,22.11Zm-2.42,2.41a1.23,1.23,0,0,0,1.14-1.66c-.17-.38-2.55-1.91-2.89-1.75-.59.28-.61,1-.94,1.51a3.13,3.13,0,0,0-.15.32c-.07.15-.09.3.09.38A17.26,17.26,0,0,0,125.7,24.52Zm2.59-4.7a1,1,0,0,0-.52-.95c-.33-.19-.68-.36-1-.53-1.42-.73-1.6-.64-2.09.9-.1.3,0,.43.22.54.7.32,1.37.69,2.09.95A1,1,0,0,0,128.29,19.82Z"/><path class="cls-1" d="M165.34,107.75c-1.34,1.16-3,1.4-4.43,2a2.1,2.1,0,0,1,1.45-2.56c.8-.31,1.6-.62,2.39-1a1.93,1.93,0,0,0,.66-.43c.72-.76.53-1.39-.46-1.63-.72-.17-1.44-.35-2.16-.49-.42-.09-.61-.2-.5-.7.29-1.33.26-1.32,1.56-1,2.33.55,4.66,1.1,7,1.6.65.14.81.36.62,1-.35,1.19-.56,2.42-.88,3.62-.48,1.83-1.3,2.54-2.74,2.46S165.61,109.7,165.34,107.75Zm1.45-.32a1.07,1.07,0,0,0,.62,1.1,1,1,0,0,0,1.24-.09,4.66,4.66,0,0,0,.89-3c0-.59-1-.35-1.58-.6l-.17,0c-.3-.11-.42,0-.48.3C167.16,105.88,167,106.66,166.79,107.43Z"/><path class="cls-1" d="M114.6,17.88c.6-1.83,1.18-3.42,1.62-5,.25-.88.7-.44,1.14-.34s.81.17.57.86q-1.31,3.77-2.47,7.58c-.19.59-.41.51-.87.42a1.63,1.63,0,0,1-1.44-1.51c-.37-1.82-.85-3.62-1.35-5.69-.32.94-.58,1.65-.81,2.38-.3.89-.63,1.79-.86,2.7-.16.63-.51.57-.91.34s-1.1,0-.77-.89c.87-2.51,1.67-5,2.46-7.59.17-.54.36-.54.87-.43a1.57,1.57,0,0,1,1.37,1.45c.33,1.71.79,3.39,1.2,5.09C114.39,17.37,114.47,17.52,114.6,17.88Z"/><path class="cls-1" d="M81.06,12c.1,1.31.19,2.62.29,3.93,0,.23.05.47.06.7A1,1,0,0,1,80,17.76c-.29-.07-.27-.27-.28-.47l-.57-8.24c0-.23-.08-.56.27-.54.6,0,1.27-.44,1.78.28,1.09,1.55,2.21,3.08,3.31,4.62.13.19.27.37.52.7.08-1.51-.17-2.84-.21-4.17,0-.21,0-.41-.06-.62C84.62,8.07,84.68,8,85.9,8c.37,0,.53.07.55.47q.26,4.08.56,8.16c0,.48-.14.57-.58.64a1.71,1.71,0,0,1-2-.87c-1-1.55-2.15-3-3.23-4.51Z"/><path class="cls-1" d="M140.58,30c-1,1.23-2.09,2.46-3.11,3.71-.35.43-.62.7-1.09.16-.35-.38-1-.54-.31-1.27,1.67-1.88,3.24-3.85,4.88-5.75.2-.24.36-.9.81-.52s1.28.55,1.12,1.5c-.36,2.1-.64,4.21-1,6.57,1.23-1.46,2.29-2.75,3.39-4,.18-.21.3-.72.68-.53a3.78,3.78,0,0,1,1.08.92c.16.18-.12.36-.25.5-1.73,2.07-3.47,4.11-5.18,6.19-.34.42-.51.33-.9.06a1.71,1.71,0,0,1-.79-2c.36-1.81.55-3.65.81-5.47Z"/><path class="cls-1" d="M159.63,53.25c-1.45.73-2.92,1.43-4.34,2.22-.64.34-.83,0-1-.45s-.62-.77.19-1.15c2.3-1.09,4.53-2.31,6.81-3.43.27-.14.66-.7.94-.17s1,1,.47,1.82c-1.1,1.74-2.15,3.53-3.22,5.3,0,.06,0,.13-.07.2l.21-.07c1.48-.74,3-1.43,4.42-2.23.89-.49.86.3,1.15.68s.1.69-.34.91c-2.35,1.17-4.69,2.37-7,3.58-.48.25-.67.16-.94-.3A1.73,1.73,0,0,1,157,58c1-1.5,1.87-3.08,2.79-4.62l.1-.18Z"/><path class="cls-1" d="M29.27,40.16,32.58,43c1,.83.94.82.09,1.72-.25.26-.42.34-.72.07-2.07-1.82-4.14-3.62-6.23-5.42-.34-.28-.27-.44,0-.77a1.68,1.68,0,0,1,2-.78c1.87.41,3.78.65,5.93,1-1.47-1.28-2.71-2.45-4-3.5-.76-.6-.2-.86.09-1.3.4-.59.68-.4,1.1,0,1.86,1.65,3.76,3.26,5.62,4.91.24.22.89.39.55.82s-.6,1.31-1.49,1.17l-5.17-.83L29.35,40Zm-.15-.24,0,0h.05Z"/><path class="cls-1" d="M10.93,88.15c1.64.14,3.27.32,4.91.41.69,0,.76.33.68.88s0,1-.79.91c-2.65-.28-5.3-.49-8-.7-.46,0-.54-.18-.55-.65A1.73,1.73,0,0,1,8.4,87.2a41,41,0,0,0,5-2.69c-1.59-.14-3.18-.34-4.77-.4-.93,0-1.09-.38-.93-1.19.09-.43.12-.67.68-.61q4,.41,8.05.71c.54,0,.56.26.55.73a1.78,1.78,0,0,1-1.22,1.77c-1.68.73-3.28,1.62-4.91,2.45Z"/><path class="cls-1" d="M18.53,56.9c1.47.75,2.92,1.55,4.42,2.23.78.36.38.72.2,1.17s-.41.75-1,.42c-2.22-1.18-4.48-2.28-6.71-3.45-.29-.15-1-.21-.74-.66s.27-1.42,1.28-1.47a62,62,0,0,0,6.28-.66c-1.46-.75-2.92-1.48-4.38-2.25-.26-.13-.76-.17-.68-.55a3.93,3.93,0,0,1,.65-1.25c.13-.18.32,0,.47.08,2.43,1.23,4.85,2.47,7.29,3.69.4.2.45.38.27.81a1.72,1.72,0,0,1-1.74,1.27c-1.86,0-3.71.29-5.57.45Z"/><path class="cls-1" d="M95.43,12.3c2,.06,2,.06,2,2.06s-.14,2.15-2.07,2.78a5.11,5.11,0,0,1-5.54-1.29A5.58,5.58,0,0,1,89.45,10a4.8,4.8,0,0,1,6.71-1.33,2.34,2.34,0,0,1,.66.71c.2.4.78.83.33,1.3a1.5,1.5,0,0,1-2-.33,2.5,2.5,0,0,0-4.06.39,4.12,4.12,0,0,0,0,3.86c.89,1.66,2.93,1.5,4.18.58.34-.25.18-.67.15-1s-.41-.21-.64-.25a1.57,1.57,0,0,0-.53,0c-.81.14-1-.21-1-1,0-.43.13-.65.61-.61S95,12.3,95.43,12.3Z"/><path class="cls-1" d="M38.91,36.54A5.41,5.41,0,0,1,34,31.85a4.94,4.94,0,0,1,3.82-4.91,3.39,3.39,0,0,1,1.23,0c.48.09,1.17.2,1.27.66s-.55.84-.85,1.26c-.15.23-.36.09-.55,0a2.19,2.19,0,0,0-2.59.84,2.31,2.31,0,0,0-.27,2.66,5.16,5.16,0,0,0,1.31,1.66,2.73,2.73,0,0,0,4.52-1.5c.14-.55-.21-.77-.48-1s-.49.14-.72.26a2.12,2.12,0,0,0-.4.34.92.92,0,0,1-1.55-.5c-.07-.24.07-.32.2-.43.79-.67,1.59-1.33,2.37-2,.3-.26.49-.21.72.08.6.73,1.21,1.45,1.82,2.18a.64.64,0,0,1,.17.64C43.44,34.35,41.3,36.57,38.91,36.54Z"/><path class="cls-1" d="M42.47,25c0-3,3.64-5.51,6.11-4.17.31.17.91.24.72.81a1.61,1.61,0,0,1-1.66.84,2.17,2.17,0,0,0-2.53.48,2.26,2.26,0,0,0-.74,2.48,4.94,4.94,0,0,0,1.37,2.25,2.75,2.75,0,0,0,4.47-1.21c.14-.47-.16-.73-.37-1s-.46,0-.67.12-.35.21-.53.32c-.67.42-1.3.12-1.46-.7,0-.24.11-.31.25-.4.9-.57,1.81-1.12,2.7-1.7.33-.22.46-.07.62.19.49.81,1,1.6,1.51,2.4a.73.73,0,0,1,.09.66,5.77,5.77,0,0,1-5.92,3.73A5.45,5.45,0,0,1,42.47,25Z"/><path class="cls-1" d="M13.87,101.92c2.55,0,3.84,1,4.29,3.2.21,1.07.36,2.16.59,3.23.09.42,0,.58-.44.65q-4,.69-8,1.41c-.46.09-.62,0-.69-.51-.15-1.09-.38-2.16-.54-3.24a3.53,3.53,0,0,1,2.41-4.2A7.28,7.28,0,0,1,13.87,101.92Zm.39,1.93c-.13,0-.42,0-.72.05-2.64.4-3.21,1.22-2.72,3.84.09.49.24.65.75.54,1.3-.26,2.62-.47,3.93-.71,1.5-.27,1.5-.28,1.19-1.79S15.9,103.83,14.26,103.85Z"/><path class="cls-1" d="M166.43,81.3c-2.35,0-3.59-1-4.09-3-.27-1.12-.43-2.27-.69-3.39-.11-.45.06-.55.45-.63q4-.75,7.92-1.54c.47-.09.67,0,.75.52.18,1.14.46,2.26.64,3.4a3.53,3.53,0,0,1-2.32,4A7.51,7.51,0,0,1,166.43,81.3Zm-.31-1.91c.19,0,.52,0,.83-.09,2.65-.45,3.17-1.25,2.64-3.88-.12-.59-.36-.6-.82-.5-1.3.28-2.6.52-3.91.78s-1.43.29-1.11,1.74S164.57,79.42,166.12,79.39Z"/><path class="cls-1" d="M167,98.17c.06-.8.13-1.59.17-2.39,0-.21.13-.55-.2-.59a13.87,13.87,0,0,0-2-.1c-.3,0-.23.36-.24.58-.09,1.27-.22,2.54-.25,3.81,0,.85-.55.61-1,.64-.63,0-.62-.31-.58-.78.16-1.89.3-3.78.4-5.67,0-.51.19-.65.69-.61,2.63.2,5.26.39,7.89.54.6,0,.73.27.68.82-.15,1.83-.29,3.66-.37,5.49,0,.74-.47.58-.9.58s-.77-.1-.7-.7c.11-1.06.09-2.13.24-3.18s-.13-1.24-1.07-1.27c-.71,0-1,.09-1,.87,0,1-.15,2-.17,3,0,.68-.32.73-.89.7s-.84-.14-.71-.77a6.37,6.37,0,0,0,.07-1Z"/><path class="cls-1" d="M18,61.81c-.29.87-.56,1.68-.84,2.49-.66,1.88-.65,1.87,1.24,2.38.4.11.57,0,.7-.37.4-1.21.86-2.4,1.23-3.61.18-.59.41-.73,1-.51s.78.33.54,1c-.67,1.77-1.26,3.57-1.85,5.37-.16.49-.38.57-.84.4q-3.81-1.34-7.64-2.62c-.41-.14-.47-.32-.33-.71.64-1.81,1.29-3.62,1.88-5.45.25-.77.67-.31,1-.23s.68.22.46.78c-.44,1.12-.76,2.3-1.21,3.42-.24.62-.07.86.5,1a3.2,3.2,0,0,1,.68.23c.4.21.56.06.69-.33.36-1.13.76-2.24,1.15-3.36.08-.24.14-.58.52-.4S17.84,61.37,18,61.81Z"/><path class="cls-1" d="M132.64,25.84c-.28.12-.36.39-.5.59-1,1.39-1,1.39.36,2.36.8.57,1.58,1.16,2.41,1.67.6.36.27.66,0,1s-.31.81-.91.37c-1.6-1.17-3.23-2.3-4.87-3.41-.41-.29-.37-.48-.12-.84,1.56-2.2,3.11-4.4,4.64-6.62.25-.36.42-.43.82-.14q2.32,1.7,4.73,3.3c.62.42.14.68-.06,1s-.34.76-.91.32c-1-.76-2-1.41-3-2.16-.43-.32-.7-.34-1,.16a3.2,3.2,0,0,1-.46.65c-.33.37-.19.58.17.82.91.61,1.77,1.29,2.7,1.86.66.39.45.69.14,1.18s-.59.48-1,.15c-.88-.66-1.79-1.27-2.69-1.89C132.94,26,132.79,26,132.64,25.84Z"/><path class="cls-1" d="M165.65,123.82a10.45,10.45,0,0,1-.58,1.16c-.39.58-.72,0-1-.13a14,14,0,0,1-1.84-.87c-.4-.22-.61-.2-.8.25-.33.76-.7,1.5-1.09,2.23-.23.42-.12.62.29.81.75.33,1.48.73,2.24,1.07.38.17.44.34.26.73-.55,1.24-.53,1.25-1.73.67-2.2-1.08-4.39-2.18-6.62-3.22-.62-.28-.53-.61-.23-1s.15-1.28,1.09-.71c.78.48,1.66.79,2.46,1.23.45.24.64.17.84-.31A19.26,19.26,0,0,1,160,123.6c.26-.46.13-.67-.31-.87-.87-.38-1.7-.84-2.56-1.22-.4-.18-.43-.36-.27-.75.54-1.24.52-1.24,1.74-.65l6.53,3.19C165.31,123.41,165.62,123.43,165.65,123.82Z"/><path class="cls-1" d="M160.78,70.47l-.21-.56c-.49-1.33-.51-1.35.6-2.29.45-.38.66-.7.34-1.27a6.22,6.22,0,0,1-.36-1c-.58-1.63-.58-1.64-2.33-1.71-.37,0-.61-.08-.72-.48s-.31-.88-.49-1.38c.85,0,1.61,0,2.38,0,2.31,0,4.61.12,6.92.15.46,0,.76.12.82.59s.76,1,.13,1.61C165.54,66.22,163.2,68.31,160.78,70.47Zm1.43-6.8c.24.66.47,1.26.67,1.87.1.3.22.39.49.15l2.37-2Z"/><path class="cls-1" d="M163.13,82.81c3.05,1.07,6,2.09,8.9,3.1a.58.58,0,0,1,.46.73c-.11.53.4,1.24-.34,1.57-2.74,1.24-5.51,2.44-8.26,3.67-.43.19-.48,0-.52-.36-.16-1.45-.18-1.49,1.19-2,.67-.25,1-.58.83-1.29a3.17,3.17,0,0,1,0-1c.18-1.34-.26-2.19-1.71-2.34-.37,0-.54-.28-.51-.68S163.13,83.38,163.13,82.81Zm3.94,5.65,3.22-1.34-1.45-.48C166.56,85.93,166.56,85.93,167.07,88.46Z"/><path class="cls-1" d="M16.69,92.79c.13.46-.13.71-.61.93-1.39.62-1.38.65-1.3,2.18l0,.54c.13,1.58.13,1.58,1.63,2a2,2,0,0,1,.76,2c-.13.23-.31.1-.46,0-2.88-.89-5.76-1.77-8.63-2.68-.77-.25-.32-1-.47-1.46s.12-.74.55-.94l6.87-3.31.32-.16C16.63,91.35,16.63,91.35,16.69,92.79ZM13.13,95.1l-1.57.68-1.67.79,3,.88c.41.12.45-.09.42-.41C13.24,96.42,13.19,95.81,13.13,95.1Z"/><path class="cls-1" d="M69.69,19.9c.41-2.53.8-4.92,1.18-7.31.1-.61.23-1.22.29-1.84s.26-.63.73-.81c1-.4,1.56,0,2.11.84,1.37,2.17,2.83,4.29,4.29,6.41.41.6.4.77-.37,1a1.33,1.33,0,0,1-1.85-.89c-.28-.62-.69-.9-1.39-.6a5.11,5.11,0,0,1-1,.2c-1.69.32-1.71.32-2,2-.08.46-.23.67-.7.72A12.82,12.82,0,0,0,69.69,19.9Zm3.11-7.69a2.27,2.27,0,0,0-.28,1.2c-.08.7-.58,1.66-.17,2s1.36-.17,2.08-.29c0,0,0-.08.12-.17Z"/><path class="cls-1" d="M98.19,17.35c1.64-2.68,3.26-5.36,4.89-8,.44-.73,1-.1,1.52-.14s.71.24.8.73c.48,2.38,1,4.75,1.49,7.13a4.11,4.11,0,0,1,.12.61c0,.45.48,1.09.09,1.29s-1-.1-1.54-.2-.35-.5-.42-.79c-.3-1.47-.29-1.47-1.78-1.72a1.13,1.13,0,0,1-.18,0c-1.32-.47-2.39-.34-2.86,1.21-.07.23-.24.44-.54.33A7.47,7.47,0,0,1,98.19,17.35Zm3.89-3,2,.35c.3.06.45,0,.38-.35-.18-1-.35-2-.56-3.14Z"/><path class="cls-1" d="M153.58,53.23c-.36-.48-.65-.92-1-1.32s0-.65.17-.93c.82-1.29.83-1.28-.08-2.52l-.25-.36c-1-1.35-1-1.35-2.57-.93-.49.13-1.72-.89-1.61-1.35,0-.2.26-.2.42-.24,2.83-.75,5.66-1.48,8.48-2.26a.73.73,0,0,1,1,.47c.22.45,1,.71.5,1.42C157,47.85,155.29,50.51,153.58,53.23Zm.93-4.95,2-3-3.47,1Z"/><path class="cls-1" d="M56,25.28a2.54,2.54,0,0,1-2.23-1.14,64.57,64.57,0,0,1-3-5.91c-.15-.28-.06-.42.2-.54a5.91,5.91,0,0,0,.8-.39c.41-.26.59-.13.79.29.75,1.6,1.54,3.19,2.34,4.77a1.73,1.73,0,0,0,2.78.74,1.37,1.37,0,0,0,.57-2c-.76-1.67-1.51-3.34-2.38-4.95-.56-1,.34-.92.75-1.22s.73-.14,1,.35c.7,1.5,1.45,3,2.15,4.47,1.17,2.5.65,3.89-1.85,5A4.46,4.46,0,0,1,56,25.28Z"/><path class="cls-1" d="M160.79,109.81c2.51,2,4.91,4,7.32,6a.62.62,0,0,1,.16.92c-.27.46,0,1.27-.91,1.32l-9.44.62c.19-.6.36-1.11.51-1.63s.51-.32.81-.33c1.82-.11,1.43.17,2-1.57a2.41,2.41,0,0,1,.08-.25c.64-1.19.64-2.21-.78-2.85a.53.53,0,0,1-.27-.74C160.45,110.83,160.6,110.38,160.79,109.81Zm5.28,6.51-1.42-1.11c-1.46-1.13-1.46-1.13-2,.65a1.15,1.15,0,0,1-.06.17c-.16.38,0,.46.36.44C163.93,116.41,164.87,116.38,166.07,116.32Z"/><path class="cls-1" d="M26.49,53.6C24.62,51,22.83,48.5,21,46a.75.75,0,0,1,.08-1.09c.36-.4.4-1.14,1.27-1,2.46.53,4.94,1,7.4,1.48l1.7.34a6,6,0,0,1-.84,1.46c-.23.41-.57.17-.87.11-1.5-.3-1.5-.3-2.35,1-.1.15-.21.29-.3.44-.86,1.33-.89,1.35.09,2.59a.78.78,0,0,1,0,1.15A11.11,11.11,0,0,0,26.49,53.6Zm-1.26-4.79c.4-.62.75-1.16,1.11-1.69.14-.22.27-.41-.13-.49l-3.14-.69Z"/><path class="cls-1" d="M19.17,109.81a11.31,11.31,0,0,0,.44,1.26.8.8,0,0,1-.29,1.13c-1.2,1-1.18,1-.68,2.5.05.14.1.28.14.42.51,1.52.51,1.52,2.14,1.58.54,0,1.36,1.26,1.15,1.74-.11.27-.36.14-.54.14-2.92-.11-5.85-.24-8.77-.34-.41,0-.62-.18-.66-.55-.06-.54-.77-1.07-.16-1.61C14.3,114,16.7,111.94,19.17,109.81Zm-4.89,6.55v.21h3.34l-.79-2.28Z"/><path class="cls-1" d="M12.47,69a2.8,2.8,0,0,1,2.86,3.56,16.52,16.52,0,0,1-.4,1.72c-.12.44,0,.65.46.74.75.16,1.49.39,2.23.55.38.09.55.18.45.65-.28,1.33-.25,1.34-1.61,1-2.35-.58-4.7-1.19-7-1.75-.51-.12-.69-.27-.52-.82.39-1.3.6-2.65,1.07-3.93A2.43,2.43,0,0,1,12.47,69Zm1.24,3.4A1.2,1.2,0,0,0,12.87,71a1.13,1.13,0,0,0-1.4.46,6.61,6.61,0,0,0-.65,2.09c-.06.23.12.29.28.37,1.71.83,2.45.42,2.61-1.46Z"/><path class="cls-1" d="M148.06,43.79a4.17,4.17,0,0,1-3.65-5.89,6,6,0,0,1,3.46-3,3.82,3.82,0,0,1,4.11.91,3.68,3.68,0,0,1,1.29,3.83c-.11.37-.08,1.08-.75.94a1.28,1.28,0,0,1-1-1.54,1.94,1.94,0,0,0-.65-2.08,2,2,0,0,0-2.31-.34A5.56,5.56,0,0,0,146,38.88a1.93,1.93,0,0,0,.19,2.32,1.85,1.85,0,0,0,2.13.66c.81-.23,1.08,0,1.36,1.09.2.78-.52.54-.84.71A2.1,2.1,0,0,1,148.06,43.79Z"/><path class="cls-1" d="M63.36,22.06c-.29.05-.33-.16-.4-.36q-1.34-3.9-2.68-7.79c-.11-.32-.11-.51.26-.58a1,1,0,0,0,.33-.12c.74-.39,1.14-.29,1.41.63.52,1.81,1.22,3.58,1.79,5.38.22.69.5.84,1.18.56,1-.42,2.07-.7,3.09-1.1.52-.19.59.16.63.46s.61.77-.08,1c-1.78.64-3.57,1.25-5.36,1.87Z"/><path class="cls-2" d="M18.26,141a69.74,69.74,0,0,1-6.15-9.86,86.19,86.19,0,0,1-9-26.46A87.8,87.8,0,0,1,3,76.2,88.25,88.25,0,0,1,65.07,5.53,88.05,88.05,0,0,1,147.9,23.68a86.8,86.8,0,0,1,26.23,40.17,84.91,84.91,0,0,1,3.58,18.08,87.74,87.74,0,0,1-16.08,59.33,4.38,4.38,0,0,1-.36.39L143.8,128.52a78,78,0,0,0,4.35-7c7.75-14.54,10-29.92,6.35-46-4.52-19.71-15.91-34.43-33.68-44a63.63,63.63,0,0,0-41.24-6.8,64.35,64.35,0,0,0-41,23.69C27.93,61.59,23.13,76.8,24,93.76a64.83,64.83,0,0,0,6.69,25.51,84.66,84.66,0,0,0,5,8.58ZM159.6,57.52l-.14-.13c1.07-1.77,2.12-3.56,3.22-5.3.51-.81-.19-1.28-.47-1.82s-.67,0-.94.17c-2.28,1.12-4.51,2.34-6.81,3.43-.81.38-.35.73-.19,1.15s.38.79,1,.45c1.42-.79,2.89-1.49,4.34-2.22l.11.15C158.82,54.94,158,56.52,157,58a1.73,1.73,0,0,0-.08,2.14c.27.46.46.55.94.3,2.33-1.21,4.67-2.41,7-3.58.44-.22.71-.43.34-.91s-.26-1.17-1.15-.68C162.58,56.09,161.08,56.78,159.6,57.52ZM18.78,122.8a2.23,2.23,0,0,0-3,.32,2.54,2.54,0,0,0-.17,3.06c.57,1.16,1.14,2.33,1.67,3.52.2.44.41.45.8.25q3.62-1.78,7.25-3.53c.4-.19.53-.36.3-.8-.7-1.34-1.32-2.71-2-4a2.53,2.53,0,0,0-2.94-1.45C19.47,120.41,18.91,121.16,18.78,122.8ZM128.12,22.11s.08-.09.13-.1a2.18,2.18,0,0,0,1.9-2,2.3,2.3,0,0,0-1.42-2.43c-1.29-.66-2.59-1.29-3.88-1.95-.35-.19-.51-.1-.67.23q-1.79,3.7-3.61,7.4c-.21.41-.09.56.27.73,1.42.66,2.83,1.35,4.25,2a2.37,2.37,0,0,0,2.14,0C128.77,25.28,129.12,23.75,128.12,22.11Zm37.22,85.64c.27,2,1,2.79,2.51,2.88s2.26-.63,2.74-2.46c.32-1.2.53-2.43.88-3.62.19-.64,0-.86-.62-1-2.34-.5-4.67-1-7-1.6-1.3-.3-1.27-.31-1.56,1-.11.5.08.61.5.7.72.14,1.44.32,2.16.49,1,.24,1.18.87.46,1.63a1.93,1.93,0,0,1-.66.43c-.79.34-1.59.65-2.39,1a2.1,2.1,0,0,0-1.45,2.56C162.39,109.15,164,108.91,165.34,107.75ZM114.6,17.88c-.13-.36-.21-.51-.25-.67-.41-1.7-.87-3.38-1.2-5.09a1.57,1.57,0,0,0-1.37-1.45c-.51-.11-.7-.11-.87.43-.79,2.55-1.59,5.08-2.46,7.59-.33.93.42.7.77.89s.75.29.91-.34c.23-.91.56-1.81.86-2.7.23-.73.49-1.44.81-2.38.5,2.07,1,3.87,1.35,5.69a1.63,1.63,0,0,0,1.44,1.51c.46.09.68.17.87-.42q1.17-3.81,2.47-7.58c.24-.69-.12-.75-.57-.86s-.89-.54-1.14.34C115.78,14.46,115.2,16.05,114.6,17.88ZM81.06,12l.18-.05c1.08,1.5,2.22,3,3.23,4.51a1.71,1.71,0,0,0,2,.87c.44-.07.62-.16.58-.64q-.3-4.08-.56-8.16c0-.4-.18-.47-.55-.47-1.22,0-1.28,0-1.17,1.28,0,.21.06.41.06.62,0,1.33.29,2.66.21,4.17-.25-.33-.39-.51-.52-.7-1.1-1.54-2.22-3.07-3.31-4.62-.51-.72-1.18-.27-1.78-.28-.35,0-.28.31-.27.54l.57,8.24c0,.2,0,.4.28.47a1,1,0,0,0,1.44-1.15c0-.23,0-.47-.06-.7C81.25,14.6,81.16,13.29,81.06,12Zm59.52,18,.16.06c-.26,1.82-.45,3.66-.81,5.47a1.71,1.71,0,0,0,.79,2c.39.27.56.36.9-.06,1.71-2.08,3.45-4.12,5.18-6.19.13-.14.41-.32.25-.5a3.78,3.78,0,0,0-1.08-.92c-.38-.19-.5.32-.68.53-1.1,1.26-2.16,2.55-3.39,4,.34-2.36.62-4.47,1-6.57.16-.95-.66-1.11-1.12-1.5s-.61.28-.81.52c-1.64,1.9-3.21,3.87-4.88,5.75-.65.73,0,.89.31,1.27.47.54.74.27,1.09-.16C138.49,32.42,139.54,31.19,140.58,30ZM29.27,40.16l.08-.18.92.12,5.17.83c.89.14,1.12-.68,1.49-1.17s-.31-.6-.55-.82c-1.86-1.65-3.76-3.26-5.62-4.91-.42-.37-.7-.56-1.1,0-.29.44-.85.7-.09,1.3,1.34,1,2.58,2.22,4,3.5-2.15-.35-4.06-.59-5.93-1a1.68,1.68,0,0,0-2,.78c-.23.33-.3.49,0,.77,2.09,1.8,4.16,3.6,6.23,5.42.3.27.47.19.72-.07.85-.9.86-.89-.09-1.72Zm-18.34,48,0-.18c1.63-.83,3.23-1.72,4.91-2.45A1.78,1.78,0,0,0,17,83.75c0-.47,0-.68-.55-.73q-4-.3-8-.71c-.56-.06-.59.18-.68.61-.16.81,0,1.16.93,1.19,1.59.06,3.18.26,4.77.4a41,41,0,0,1-5,2.69A1.73,1.73,0,0,0,7.22,89c0,.47.09.61.55.65,2.66.21,5.31.42,8,.7.83.09.72-.42.79-.91s0-.85-.68-.88C14.2,88.47,12.57,88.29,10.93,88.15Zm7.6-31.25v-.17c1.86-.16,3.71-.41,5.57-.45A1.72,1.72,0,0,0,25.85,55c.18-.43.13-.61-.27-.81-2.44-1.22-4.86-2.46-7.29-3.69-.15-.08-.34-.26-.47-.08a3.93,3.93,0,0,0-.65,1.25c-.08.38.42.42.68.55,1.46.77,2.92,1.5,4.38,2.25a62,62,0,0,1-6.28.66c-1,0-1,.9-1.28,1.47s.45.51.74.66c2.23,1.17,4.49,2.27,6.71,3.45.62.33.82.09,1-.42s.58-.81-.2-1.17C21.45,58.45,20,57.65,18.53,56.9Zm76.9-44.6c-.48,0-1,0-1.43,0s-.56.18-.61.61c-.09.77.14,1.12,1,1a1.57,1.57,0,0,1,.53,0c.23,0,.61-.15.64.25s.19.75-.15,1c-1.25.92-3.29,1.08-4.18-.58a4.12,4.12,0,0,1,0-3.86,2.5,2.5,0,0,1,4.06-.39,1.5,1.5,0,0,0,2,.33c.45-.47-.13-.9-.33-1.3a2.34,2.34,0,0,0-.66-.71A4.8,4.8,0,0,0,89.45,10a5.58,5.58,0,0,0,.37,5.88,5.11,5.11,0,0,0,5.54,1.29c1.93-.63,2-.77,2.07-2.78S97.47,12.36,95.43,12.3ZM38.91,36.54c2.39,0,4.53-2.19,5.12-4.48a.64.64,0,0,0-.17-.64c-.61-.73-1.22-1.45-1.82-2.18-.23-.29-.42-.34-.72-.08-.78.68-1.58,1.34-2.37,2-.13.11-.27.19-.2.43a.92.92,0,0,0,1.55.5,2.12,2.12,0,0,1,.4-.34c.23-.12.38-.59.72-.26s.62.5.48,1a2.73,2.73,0,0,1-4.52,1.5,5.16,5.16,0,0,1-1.31-1.66,2.31,2.31,0,0,1,.27-2.66,2.19,2.19,0,0,1,2.59-.84c.19.06.4.2.55,0,.3-.42,1-.77.85-1.26s-.79-.57-1.27-.66a3.39,3.39,0,0,0-1.23,0A4.94,4.94,0,0,0,34,31.85,5.41,5.41,0,0,0,38.91,36.54ZM42.47,25a5.45,5.45,0,0,0,4,5.08,5.77,5.77,0,0,0,5.92-3.73.73.73,0,0,0-.09-.66c-.51-.8-1-1.59-1.51-2.4-.16-.26-.29-.41-.62-.19-.89.58-1.8,1.13-2.7,1.7-.14.09-.3.16-.25.4.16.82.79,1.12,1.46.7.18-.11.35-.23.53-.32s.43-.45.67-.12.51.55.37,1a2.75,2.75,0,0,1-4.47,1.21,4.94,4.94,0,0,1-1.37-2.25A2.26,2.26,0,0,1,45.11,23a2.17,2.17,0,0,1,2.53-.48,1.61,1.61,0,0,0,1.66-.84c.19-.57-.41-.64-.72-.81C46.11,19.51,42.45,22,42.47,25Zm-28.6,76.9a7.28,7.28,0,0,0-2.41.54,3.53,3.53,0,0,0-2.41,4.2c.16,1.08.39,2.15.54,3.24.07.46.23.6.69.51q4-.72,8-1.41c.42-.07.53-.23.44-.65-.23-1.07-.38-2.16-.59-3.23C17.71,103,16.42,101.92,13.87,101.92ZM166.43,81.3a7.51,7.51,0,0,0,2.66-.6,3.53,3.53,0,0,0,2.32-4c-.18-1.14-.46-2.26-.64-3.4-.08-.52-.28-.61-.75-.52q-4,.8-7.92,1.54c-.39.08-.56.18-.45.63.26,1.12.42,2.27.69,3.39C162.84,80.35,164.08,81.3,166.43,81.3ZM167,98.17h0a6.37,6.37,0,0,1-.07,1c-.13.63.18.73.71.77s.89,0,.89-.7c0-1,.19-2,.17-3,0-.78.27-.89,1-.87.94,0,1.19.37,1.07,1.27s-.13,2.12-.24,3.18c-.07.6.2.71.7.7s.87.16.9-.58c.08-1.83.22-3.66.37-5.49.05-.55-.08-.78-.68-.82-2.63-.15-5.26-.34-7.89-.54-.5,0-.66.1-.69.61-.1,1.89-.24,3.78-.4,5.67,0,.47,0,.82.58.78.48,0,1,.21,1-.64,0-1.27.16-2.54.25-3.81,0-.22-.06-.57.24-.58a13.87,13.87,0,0,1,2,.1c.33,0,.21.38.2.59C167.15,96.58,167.08,97.37,167,98.17ZM18,61.81c-.2-.44-.71-.39-1.08-.56s-.44.16-.52.4c-.39,1.12-.79,2.23-1.15,3.36-.13.39-.29.54-.69.33a3.2,3.2,0,0,0-.68-.23c-.57-.13-.74-.37-.5-1,.45-1.12.77-2.3,1.21-3.42.22-.56,0-.69-.46-.78s-.79-.54-1,.23c-.59,1.83-1.24,3.64-1.88,5.45-.14.39-.08.57.33.71q3.83,1.29,7.64,2.62c.46.17.68.09.84-.4.59-1.8,1.18-3.6,1.85-5.37.24-.64,0-.78-.54-1s-.82-.08-1,.51c-.37,1.21-.83,2.4-1.23,3.61-.13.4-.3.48-.7.37-1.89-.51-1.9-.5-1.24-2.38C17.48,63.49,17.75,62.68,18,61.81Zm114.6-36c.15.11.3.2.44.31.9.62,1.81,1.23,2.69,1.89.44.33.69.37,1-.15s.52-.79-.14-1.18c-.93-.57-1.79-1.25-2.7-1.86-.36-.24-.5-.45-.17-.82a3.2,3.2,0,0,0,.46-.65c.26-.5.53-.48,1-.16,1,.75,2.06,1.4,3,2.16.57.44.71,0,.91-.32s.68-.55.06-1q-2.4-1.61-4.73-3.3c-.4-.29-.57-.22-.82.14-1.53,2.22-3.08,4.42-4.64,6.62-.25.36-.29.55.12.84,1.64,1.11,3.27,2.24,4.87,3.41.6.44.69-.1.91-.37s.58-.61,0-1c-.83-.51-1.61-1.1-2.41-1.67-1.37-1-1.37-1-.36-2.36C132.28,26.23,132.36,26,132.64,25.84Zm33,98c0-.39-.34-.41-.56-.52l-6.53-3.19c-1.22-.59-1.2-.59-1.74.65-.16.39-.13.57.27.75.86.38,1.69.84,2.56,1.22.44.2.57.41.31.87a19.26,19.26,0,0,0-1.05,2.14c-.2.48-.39.55-.84.31-.8-.44-1.68-.75-2.46-1.23-.94-.57-.82.37-1.09.71s-.39.71.23,1c2.23,1,4.42,2.14,6.62,3.22,1.2.58,1.18.57,1.73-.67.18-.39.12-.56-.26-.73-.76-.34-1.49-.74-2.24-1.07-.41-.19-.52-.39-.29-.81.39-.73.76-1.47,1.09-2.23.19-.45.4-.47.8-.25a14,14,0,0,0,1.84.87c.31.13.64.71,1,.13A10.45,10.45,0,0,0,165.65,123.82Zm-4.87-53.35c2.42-2.16,4.76-4.25,7.08-6.34.63-.57-.06-1.07-.13-1.61s-.36-.59-.82-.59c-2.31,0-4.61-.1-6.92-.15-.77,0-1.53,0-2.38,0,.18.5.37.93.49,1.38s.35.47.72.48c1.75.07,1.75.08,2.33,1.71a6.22,6.22,0,0,0,.36,1c.32.57.11.89-.34,1.27-1.11.94-1.09,1-.6,2.29Zm2.35,12.34c0,.57,0,1,0,1.45s.14.64.51.68c1.45.15,1.89,1,1.71,2.34a3.17,3.17,0,0,0,0,1c.14.71-.16,1-.83,1.29-1.37.49-1.35.53-1.19,2,0,.37.09.55.52.36,2.75-1.23,5.52-2.43,8.26-3.67.74-.33.23-1,.34-1.57a.58.58,0,0,0-.46-.73C169.1,84.9,166.18,83.88,163.13,82.81Zm-146.44,10c-.06-1.44-.06-1.44-1.31-.85l-.32.16L8.19,95.41c-.43.2-.7.45-.55.94s-.3,1.21.47,1.46c2.87.91,5.75,1.79,8.63,2.68.15.05.33.18.46,0a2,2,0,0,0-.76-2c-1.5-.45-1.5-.45-1.63-2l0-.54c-.08-1.53-.09-1.56,1.3-2.18C16.56,93.5,16.82,93.25,16.69,92.79Zm53-72.89A12.82,12.82,0,0,1,71,19.61c.47-.05.62-.26.7-.72.28-1.68.3-1.68,2-2a5.11,5.11,0,0,0,1-.2c.7-.3,1.11,0,1.39.6a1.33,1.33,0,0,0,1.85.89c.77-.22.78-.39.37-1C76.83,15.07,75.37,13,74,10.78c-.55-.88-1.07-1.24-2.11-.84-.47.18-.68.34-.73.81S71,12,70.87,12.59C70.49,15,70.1,17.37,69.69,19.9Zm28.5-2.55a7.47,7.47,0,0,0,1.59.38c.3.11.47-.1.54-.33.47-1.55,1.54-1.68,2.86-1.21a1.13,1.13,0,0,0,.18,0c1.49.25,1.48.25,1.78,1.72.07.29,0,.7.42.79s1.16.4,1.54.2-.09-.84-.09-1.29a4.11,4.11,0,0,0-.12-.61c-.5-2.38-1-4.75-1.49-7.13-.09-.49-.32-.78-.8-.73s-1.08-.59-1.52.14C101.45,12,99.83,14.67,98.19,17.35Zm55.39,35.88c1.71-2.72,3.37-5.38,5-8,.45-.71-.28-1-.5-1.42a.73.73,0,0,0-1-.47c-2.82.78-5.65,1.51-8.48,2.26-.16,0-.38,0-.42.24-.11.46,1.12,1.48,1.61,1.35,1.59-.42,1.59-.42,2.57.93l.25.36c.91,1.24.9,1.23.08,2.52-.18.28-.52.53-.17.93S153.22,52.75,153.58,53.23ZM56,25.28a4.46,4.46,0,0,0,1.83-.47c2.5-1.15,3-2.54,1.85-5-.7-1.5-1.45-3-2.15-4.47-.22-.49-.45-.74-1-.35s-1.31.21-.75,1.22c.87,1.61,1.62,3.28,2.38,4.95a1.37,1.37,0,0,1-.57,2,1.73,1.73,0,0,1-2.78-.74c-.8-1.58-1.59-3.17-2.34-4.77-.2-.42-.38-.55-.79-.29a5.91,5.91,0,0,1-.8.39c-.26.12-.35.26-.2.54a64.57,64.57,0,0,0,3,5.91A2.54,2.54,0,0,0,56,25.28Zm104.82,84.53c-.19.57-.34,1-.5,1.46a.53.53,0,0,0,.27.74c1.42.64,1.42,1.66.78,2.85a2.41,2.41,0,0,0-.08.25c-.59,1.74-.2,1.46-2,1.57-.3,0-.68-.13-.81.33s-.32,1-.51,1.63l9.44-.62c.87,0,.64-.86.91-1.32a.62.62,0,0,0-.16-.92C165.7,113.83,163.3,111.86,160.79,109.81ZM26.49,53.6a11.11,11.11,0,0,1,.71-1.05.78.78,0,0,0,0-1.15c-1-1.24-1-1.26-.09-2.59.09-.15.2-.29.3-.44.85-1.3.85-1.3,2.35-1,.3.06.64.3.87-.11a6,6,0,0,0,.84-1.46l-1.7-.34c-2.46-.49-4.94-1-7.4-1.48-.87-.19-.91.55-1.27,1A.75.75,0,0,0,21,46C22.83,48.5,24.62,51,26.49,53.6Zm-7.32,56.21c-2.47,2.13-4.87,4.18-7.23,6.27-.61.54.1,1.07.16,1.61,0,.37.25.54.66.55,2.92.1,5.85.23,8.77.34.18,0,.43.13.54-.14.21-.48-.61-1.72-1.15-1.74-1.63-.06-1.63-.06-2.14-1.58,0-.14-.09-.28-.14-.42-.5-1.5-.52-1.51.68-2.5a.8.8,0,0,0,.29-1.13A11.31,11.31,0,0,1,19.17,109.81ZM12.47,69A2.43,2.43,0,0,0,10,70.69c-.47,1.28-.68,2.63-1.07,3.93-.17.55,0,.7.52.82,2.35.56,4.7,1.17,7.05,1.75,1.36.34,1.33.33,1.61-1,.1-.47-.07-.56-.45-.65-.74-.16-1.48-.39-2.23-.55-.46-.09-.58-.3-.46-.74a16.52,16.52,0,0,0,.4-1.72A2.8,2.8,0,0,0,12.47,69ZM148.06,43.79a2.1,2.1,0,0,0,.78-.13c.32-.17,1,.07.84-.71-.28-1.11-.55-1.32-1.36-1.09a1.85,1.85,0,0,1-2.13-.66,1.93,1.93,0,0,1-.19-2.32,5.56,5.56,0,0,1,2.54-2.28,2,2,0,0,1,2.31.34A1.94,1.94,0,0,1,151.5,39a1.28,1.28,0,0,0,1,1.54c.67.14.64-.57.75-.94A3.68,3.68,0,0,0,152,35.79a3.82,3.82,0,0,0-4.11-.91,6,6,0,0,0-3.46,3A4.17,4.17,0,0,0,148.06,43.79ZM63.36,22.06l.17,0c1.79-.62,3.58-1.23,5.36-1.87.69-.24.12-.68.08-1s-.11-.65-.63-.46c-1,.4-2.08.68-3.09,1.1-.68.28-1,.13-1.18-.56-.57-1.8-1.27-3.57-1.79-5.38-.27-.92-.67-1-1.41-.63a1,1,0,0,1-.33.12c-.37.07-.37.26-.26.58Q61.63,17.8,63,21.7C63,21.9,63.07,22.11,63.36,22.06Z"/><path class="cls-2" d="M21.43,122a.94.94,0,0,1,.83.46c.43.77.82,1.57,1.23,2.35.12.24,0,.39-.19.5l-.08,0c-1.61,1-1.76,1-2.54-.73a6.79,6.79,0,0,1-.45-1.16A1.17,1.17,0,0,1,21.43,122Z"/><path class="cls-2" d="M16.92,125.2a1,1,0,0,1,.66-1.08.91.91,0,0,1,1.13.26,12.44,12.44,0,0,1,1.2,2.25c.14.28-.08.35-.25.46-1.39.89-1.5.86-2.19-.63C17.26,126,17.07,125.54,16.92,125.2Z"/><path class="cls-2" d="M125.7,24.52a17.26,17.26,0,0,1-2.75-1.2c-.18-.08-.16-.23-.09-.38a3.13,3.13,0,0,1,.15-.32c.33-.5.35-1.23.94-1.51.34-.16,2.72,1.37,2.89,1.75A1.23,1.23,0,0,1,125.7,24.52Z"/><path class="cls-2" d="M128.29,19.82a1,1,0,0,1-1.32.91c-.72-.26-1.39-.63-2.09-.95-.26-.11-.32-.24-.22-.54.49-1.54.67-1.63,2.09-.9.34.17.69.34,1,.53A1,1,0,0,1,128.29,19.82Z"/><path class="cls-2" d="M166.79,107.43c.17-.77.37-1.55.52-2.33.06-.31.18-.41.48-.3l.17,0c.53.25,1.59,0,1.58.6a4.66,4.66,0,0,1-.89,3,1,1,0,0,1-1.24.09A1.07,1.07,0,0,1,166.79,107.43Z"/><path class="cls-2" d="M159.6,57.52l-.21.07c0-.07.05-.14.07-.2Z"/><path class="cls-2" d="M159.63,53.25l.21,0-.1.18Z"/><polygon class="cls-2" points="29.11 39.92 29.13 39.97 29.08 39.96 29.11 39.92"/><path class="cls-2" d="M14.26,103.85c1.64,0,2.1.38,2.43,1.93s.31,1.52-1.19,1.79c-1.31.24-2.63.45-3.93.71-.51.11-.66,0-.75-.54-.49-2.62.08-3.44,2.72-3.84C13.84,103.86,14.13,103.86,14.26,103.85Z"/><path class="cls-2" d="M166.12,79.39c-1.55,0-2-.39-2.37-2s-.32-1.46,1.11-1.74,2.61-.5,3.91-.78c.46-.1.7-.09.82.5.53,2.63,0,3.43-2.64,3.88C166.64,79.35,166.31,79.37,166.12,79.39Z"/><path class="cls-2" d="M162.21,63.67h3.53l-2.37,2c-.27.24-.39.15-.49-.15C162.68,64.93,162.45,64.33,162.21,63.67Z"/><path class="cls-2" d="M167.07,88.46c-.51-2.53-.51-2.53,1.77-1.82l1.45.48Z"/><path class="cls-2" d="M13.13,95.1c.06.71.11,1.32.17,1.94,0,.32,0,.53-.42.41l-3-.88,1.67-.79Z"/><path class="cls-2" d="M72.8,12.21,74.55,15c-.07.09-.09.16-.12.17-.72.12-1.62.67-2.08.29s.09-1.3.17-2A2.27,2.27,0,0,1,72.8,12.21Z"/><path class="cls-2" d="M102.08,14.4l1.8-3.14c.21,1.19.38,2.16.56,3.14.07.34-.08.41-.38.35Z"/><path class="cls-2" d="M154.51,48.28l-1.47-2,3.47-1Z"/><path class="cls-2" d="M166.07,116.32c-1.2.06-2.14.09-3.09.15-.34,0-.52-.06-.36-.44a1.15,1.15,0,0,0,.06-.17c.51-1.78.51-1.78,2-.65Z"/><path class="cls-2" d="M25.23,48.81l-2.16-2.87,3.14.69c.4.08.27.27.13.49C26,47.65,25.63,48.19,25.23,48.81Z"/><path class="cls-2" d="M14.28,116.36l2.54-2.07.79,2.28H14.27Z"/><path class="cls-2" d="M13.71,72.37v.08c-.16,1.88-.9,2.29-2.61,1.46-.16-.08-.34-.14-.28-.37a6.61,6.61,0,0,1,.65-2.09,1.13,1.13,0,0,1,1.4-.46A1.2,1.2,0,0,1,13.71,72.37Z"/><path class="cls-1" d="M60.69,158.77a8.45,8.45,0,0,1-2.13,4.66,1.92,1.92,0,0,1-2,.57A5.36,5.36,0,0,1,54,162.87c-.79-.82.34-1.67.63-2.48.57-1.59,1.33-3.1,2-4.65.17-.4.32-.57.77-.32.65.35,1.35.59,2,.94A2.34,2.34,0,0,1,60.69,158.77Z"/><path class="cls-1" d="M140.52,143.86l4.19,2-2.51,2.38c-.62-1.46-1.2-2.85-1.79-4.23Z"/><path class="cls-1" d="M140.41,144v-.21l.1.1Z"/><path class="cls-2" d="M90,109.91H39.36c-.54,0-.62-.14-.3-.6,1.18-1.73,2.33-3.49,3.5-5.23l9.58-14.19,13.8-20.42q4.77-7.05,9.54-14.1,7-10.32,13.92-20.67c.6-.89.6-.89,1.21,0Q96.85,44,103.1,53.25q7,10.34,13.93,20.65l14.85,22q4.44,6.59,8.87,13.16c.16.23.51.46.35.75s-.55.12-.83.12Z"/><path class="cls-3" d="M90,154a64,64,0,1,1,64-64A64,64,0,0,1,90,154Zm55.36-42c-.2-.32-.34-.57-.5-.8L134.26,95.49,96.37,39.39c-2-2.9-3.93-5.78-5.85-8.7-.46-.7-.69-.57-1,0-.25.43-.56.83-.84,1.25l-51.28,75.9c-.9,1.33-1.79,2.68-2.74,4.1Zm-39.86,11.51.65-.3a2.82,2.82,0,0,0,.55-5,5.47,5.47,0,0,0-3.44-1c-2.91,0-5.81,0-8.71,0-.7,0-.82.23-.81.86q0,5.91,0,11.81c0,.6.12.82.77.81,2.6,0,5.21,0,7.82,0a14.07,14.07,0,0,0,3.77-.47,3.55,3.55,0,0,0,2.6-3.25c0-1.56-.73-2.57-2.44-3.17Zm-46.09,0,.34-.21a2.81,2.81,0,0,0,2-2.81,3,3,0,0,0-2.11-2.79,6.3,6.3,0,0,0-2.61-.48c-2.87,0-5.75,0-8.62,0-.59,0-.83.11-.82.77,0,4,0,7.94,0,11.91,0,.57.16.76.75.75,2.7,0,5.39,0,8.09,0a11,11,0,0,0,3.6-.48,3.45,3.45,0,0,0,2.45-2.79,2.93,2.93,0,0,0-1.1-2.92A6.75,6.75,0,0,0,59.4,123.5Zm58.11.37c0,2,0,4,0,6,0,.56.13.77.74.76,2.31,0,4.62,0,6.93,0A7.85,7.85,0,0,0,130.4,129c2.11-1.83,2.21-4.23,1.81-6.7a5.62,5.62,0,0,0-5.16-5,13.19,13.19,0,0,0-1.77-.14c-2.34,0-4.68,0-7,0-.67,0-.77.23-.76.82C117.53,120,117.51,121.92,117.51,123.87Zm-46.22,0c0,2,0,4,0,6,0,.59.15.78.74.76,1.18,0,2.37,0,3.55,0,.62,0,.75-.22.72-.78,0-1,0-1.95,0-2.93,0-1.44-.19-1.26,1.27-1.27a13.58,13.58,0,0,0,4.83-.53,3.91,3.91,0,0,0,2.62-4,3.68,3.68,0,0,0-2.87-3.61,7.67,7.67,0,0,0-2.18-.32c-2.64,0-5.27,0-7.91,0-.65,0-.77.24-.76.83C71.31,120,71.29,121.92,71.29,123.88Z"/><path class="cls-3" d="M100.79,125a7,7,0,0,1,1.85.14c.57.17,1,.47,1.06,1.14a1.23,1.23,0,0,1-1,1.29,6.53,6.53,0,0,1-3.5.12c-.93-.26-.25-1.43-.41-2.17-.1-.45.21-.54.59-.52S100.26,125,100.79,125Z"/><path class="cls-3" d="M100.42,122.5c-1.65,0-1.58,0-1.67-1.52-.06-1,.28-1.18,1.13-1.08.67.08,1.36,0,2,.11a1.15,1.15,0,0,1,1.16,1.21A1.17,1.17,0,0,1,102,122.4,8.83,8.83,0,0,1,100.42,122.5Z"/><path class="cls-3" d="M54.65,125a7.06,7.06,0,0,1,1.89.14,1.23,1.23,0,0,1,1,1.19,1.22,1.22,0,0,1-.89,1.19,12,12,0,0,1-3.69.23.29.29,0,0,1-.32-.33v-2c0-.32.18-.39.45-.39Z"/><path class="cls-3" d="M54.37,119.91a5.37,5.37,0,0,1,1.65.15,1.09,1.09,0,0,1,.89,1.08,1.11,1.11,0,0,1-.85,1.2,5.51,5.51,0,0,1-3.06.08c-.82-.25-.2-1.34-.35-2-.08-.41.2-.49.55-.48S53.9,119.91,54.37,119.91Z"/><path class="cls-3" d="M122.51,123.91c0-1,0-2,0-3,0-.51.17-.65.66-.66,3.27-.11,4.26.86,4.2,4.16,0,1.9-.66,2.88-2,3.09-.73.1-1.47.09-2.21.15-.46,0-.67-.15-.61-.61v-3.11Z"/><path class="cls-3" d="M76.28,121.39c0-1.51,0-1.52,1.52-1.45a5.66,5.66,0,0,1,1.3.18,1.35,1.35,0,0,1,1.05,1.28,1.31,1.31,0,0,1-1,1.33,7.18,7.18,0,0,1-2.53.21c-.33,0-.37-.24-.37-.49S76.28,121.74,76.28,121.39Z"/><path class="cls-4" d="M143.8,128.52a71.72,71.72,0,0,1-9,10.13,65.31,65.31,0,0,1-34.15,16.61,66,66,0,0,1-64.22-26.51c-.22-.31-.47-.6-.71-.9L18.26,141a18.68,18.68,0,0,0,1.81,2.52c16.66,21.09,38.39,32.64,65.22,34.41a84.21,84.21,0,0,0,30.28-3.64,87.61,87.61,0,0,0,40.48-26,57.33,57.33,0,0,0,5.22-6.6Z"/><path class="cls-5" d="M90,180a90,90,0,1,1,90-89.72A90,90,0,0,1,90,180Zm71.31-38.33a4.38,4.38,0,0,0,.36-.39,87.74,87.74,0,0,0,16.08-59.33,84.91,84.91,0,0,0-3.58-18.08A88.28,88.28,0,0,0,94.22,2a87.86,87.86,0,0,0-67.65,26.9A86.52,86.52,0,0,0,3,76.2a87.8,87.8,0,0,0,.13,28.48,86.19,86.19,0,0,0,9,26.46A69.74,69.74,0,0,0,18.26,141a18.68,18.68,0,0,0,1.81,2.52c16.66,21.09,38.39,32.64,65.22,34.41a84.21,84.21,0,0,0,30.28-3.64,87.61,87.61,0,0,0,40.48-26A57.33,57.33,0,0,0,161.27,141.65Z"/><path class="cls-5" d="M143.8,128.52a71.72,71.72,0,0,1-9,10.13,65.31,65.31,0,0,1-34.15,16.61,66,66,0,0,1-64.22-26.51c-.22-.31-.47-.6-.71-.9a84.66,84.66,0,0,1-5-8.58A64.83,64.83,0,0,1,24,93.76c-.86-17,3.94-32.17,14.63-45.34a64.35,64.35,0,0,1,41-23.69,63.63,63.63,0,0,1,41.24,6.8c17.77,9.58,29.16,24.3,33.68,44,3.67,16,1.4,31.42-6.35,46A78,78,0,0,1,143.8,128.52ZM90,154A64,64,0,1,0,26.06,90,64,64,0,0,0,90,154Z"/><path class="cls-5" d="M145.35,112H34.62c1-1.42,1.84-2.77,2.74-4.1L88.64,32c.28-.42.59-.82.84-1.25.35-.61.58-.74,1,0,1.92,2.92,3.9,5.8,5.85,8.7l37.89,56.1,10.59,15.69C145,111.41,145.15,111.66,145.35,112ZM90,109.91h50.32c.28,0,.67.16.83-.12s-.19-.52-.35-.75q-4.42-6.59-8.87-13.16L117,73.9q-7-10.32-13.93-20.65Q96.85,44,90.61,34.72c-.61-.91-.61-.91-1.21,0Q82.44,45,75.48,55.37q-4.76,7.07-9.54,14.1L52.14,89.89l-9.58,14.19c-1.17,1.74-2.32,3.5-3.5,5.23-.32.46-.24.62.3.6H90Z"/><path class="cls-5" d="M105.49,123.49l.76.27c1.71.6,2.48,1.61,2.44,3.17a3.55,3.55,0,0,1-2.6,3.25,14.07,14.07,0,0,1-3.77.47c-2.61,0-5.22,0-7.82,0-.65,0-.78-.21-.77-.81q0-5.9,0-11.81c0-.63.11-.87.81-.86,2.9,0,5.8,0,8.71,0a5.47,5.47,0,0,1,3.44,1,2.82,2.82,0,0,1-.55,5Zm-4.7,1.54c-.53,0-1,0-1.42,0s-.69.07-.59.52c.16.74-.52,1.91.41,2.17a6.53,6.53,0,0,0,3.5-.12,1.23,1.23,0,0,0,1-1.29c0-.67-.49-1-1.06-1.14A7,7,0,0,0,100.79,125Zm-.37-2.53a8.83,8.83,0,0,0,1.56-.1,1.17,1.17,0,0,0,1.09-1.18,1.15,1.15,0,0,0-1.16-1.21c-.67-.08-1.36,0-2-.11-.85-.1-1.19.13-1.13,1.08C98.84,122.5,98.77,122.5,100.42,122.5Z"/><path class="cls-5" d="M59.4,123.5a6.75,6.75,0,0,1,2,.92,2.93,2.93,0,0,1,1.1,2.92,3.45,3.45,0,0,1-2.45,2.79,11,11,0,0,1-3.6.48c-2.7,0-5.39,0-8.09,0-.59,0-.75-.18-.75-.75,0-4,0-7.94,0-11.91,0-.66.23-.78.82-.77,2.87,0,5.75,0,8.62,0a6.3,6.3,0,0,1,2.61.48,3,3,0,0,1,2.11,2.79,2.81,2.81,0,0,1-2,2.81ZM54.65,125H53.1c-.27,0-.46.07-.45.39v2a.29.29,0,0,0,.32.33,12,12,0,0,0,3.69-.23,1.22,1.22,0,0,0,.89-1.19,1.23,1.23,0,0,0-1-1.19A7.06,7.06,0,0,0,54.65,125Zm-.28-5.13c-.47,0-.82,0-1.17,0s-.63.07-.55.48c.15.69-.47,1.78.35,2a5.51,5.51,0,0,0,3.06-.08,1.11,1.11,0,0,0,.85-1.2,1.09,1.09,0,0,0-.89-1.08A5.37,5.37,0,0,0,54.37,119.91Z"/><path class="cls-5" d="M117.51,123.87c0-2,0-3.91,0-5.86,0-.59.09-.83.76-.82,2.34,0,4.68,0,7,0a13.19,13.19,0,0,1,1.77.14,5.62,5.62,0,0,1,5.16,5c.4,2.47.3,4.87-1.81,6.7a7.85,7.85,0,0,1-5.23,1.63c-2.31.07-4.62,0-6.93,0-.61,0-.75-.2-.74-.76C117.53,127.9,117.51,125.88,117.51,123.87Zm5,0V127c-.06.46.15.64.61.61.74-.06,1.48,0,2.21-.15,1.37-.21,2-1.19,2-3.09.06-3.3-.93-4.27-4.2-4.16-.49,0-.68.15-.66.66C122.53,121.89,122.51,122.9,122.51,123.91Z"/><path class="cls-5" d="M71.29,123.88c0-2,0-3.91,0-5.86,0-.59.11-.84.76-.83,2.64,0,5.27,0,7.91,0a7.67,7.67,0,0,1,2.18.32A3.68,3.68,0,0,1,85,121.15a3.91,3.91,0,0,1-2.62,4,13.58,13.58,0,0,1-4.83.53c-1.46,0-1.25-.17-1.27,1.27,0,1,0,2,0,2.93,0,.56-.1.81-.72.78-1.18,0-2.37,0-3.55,0-.59,0-.75-.17-.74-.76C71.31,127.9,71.29,125.89,71.29,123.88Zm5-2.49c0,.35,0,.71,0,1.06s0,.49.37.49a7.18,7.18,0,0,0,2.53-.21,1.31,1.31,0,0,0,1-1.33,1.35,1.35,0,0,0-1.05-1.28,5.66,5.66,0,0,0-1.3-.18C76.28,119.87,76.28,119.88,76.28,121.39Z"/><path class="cls-5" d="M31.68,149.12l-1.78-1.74.79-4.5a1.83,1.83,0,0,1,.06-.19l.12-.32,0,0-3,3L26.44,144l6.19-6.33,1.42,1.4L31.18,142l0,0,.21-.08.31-.1L36,141l1.65,1.62-5.09.85Z"/><path class="cls-5" d="M34.77,151.84a4.13,4.13,0,0,1-1.62-2.91,4.43,4.43,0,0,1,1.11-3.26,4.79,4.79,0,0,1,3.08-1.87,4.26,4.26,0,0,1,3.32,1,4,4,0,0,1,1.59,2.9A4.55,4.55,0,0,1,41.1,151,4.69,4.69,0,0,1,38,152.85,4.18,4.18,0,0,1,34.77,151.84Zm1.12-1.31a2,2,0,0,0,1.74.45,3.18,3.18,0,0,0,1.77-1.22,3.35,3.35,0,0,0,.89-2,1.89,1.89,0,0,0-.76-1.6,2,2,0,0,0-1.79-.44,3.79,3.79,0,0,0-2.62,3.23A2,2,0,0,0,35.89,150.53Z"/><path class="cls-5" d="M48.16,152.38l-2.1-1.4-4,6-1.66-1.11,4-6-2.08-1.4.9-1.35L49.06,151Z"/><path class="cls-5" d="M43.42,158l7.11-6.17L52.6,153l-1.55,9.26-1.9-1,.37-1.91-2.8-1.56L45.3,159Zm4.43-1.42,2,1.12.64-3.16.08-.32a3.1,3.1,0,0,1,.11-.32l0,0-.22.25-.22.22Z"/><path class="cls-5" d="M63.18,159.41l-2.35-.93-2.64,6.73-1.86-.73L59,157.75l-2.34-.92.6-1.51,6.54,2.58Z"/><path class="cls-5" d="M59.75,165.9l5.64-7.55,2.26.68.47,9.38L66,167.78,66,165.85l-3.07-.93-1.1,1.6Zm4-2.34,2.22.66L66,161v-.33c0-.09,0-.2,0-.33l0,0c-.06.11-.11.21-.16.29a2.85,2.85,0,0,1-.17.26Z"/><path class="cls-5" d="M77,170.12l-2-.37-2.54-6.15-.18-.47-.12-.33h0a5.77,5.77,0,0,1-.08.59c0,.24-.08.51-.14.83L71,169l-1.85-.35,1.66-8.69,2.11.4,2.44,5.95c0,.13.1.27.16.4s.1.26.14.39h0c0-.11,0-.26,0-.46s.08-.45.13-.75l.92-4.8,1.85.35Z"/><path class="cls-5" d="M82.75,167.83a3,3,0,0,1-1,2.18,3.11,3.11,0,0,1-2.33.51,3.9,3.9,0,0,1-.81-.17,3.83,3.83,0,0,1-.83-.38l.77-1.43a2.51,2.51,0,0,0,.43.22,1.42,1.42,0,0,0,.44.11,1.16,1.16,0,0,0,.94-.22,1.62,1.62,0,0,0,.41-1l.7-5.91,2,.22Z"/><path class="cls-5" d="M91.47,167.34a4.3,4.3,0,0,1-1,3,3.61,3.61,0,0,1-2.82.89A3.54,3.54,0,0,1,85,170.13a4.17,4.17,0,0,1-.79-3l.18-5.09,2,.07-.18,5.13a2.65,2.65,0,0,0,.36,1.62A1.75,1.75,0,0,0,89,169a2.47,2.47,0,0,0,.46-1.54l.19-5.2,2,.07Z"/><path class="cls-5" d="M101.2,170.5l-2,.16-4.08-5.24L94.8,165l-.2-.29h0a5.67,5.67,0,0,1,.08.59c0,.24.06.51.08.83l.4,4.85-1.87.15-.73-8.81,2.14-.18,3.94,5.08.26.34a3.64,3.64,0,0,1,.24.35h0a3.88,3.88,0,0,1-.08-.45c0-.2,0-.45-.07-.75l-.4-4.88,1.88-.15Z"/><path class="cls-5" d="M110.18,168.13a5.33,5.33,0,0,1-1.28.87,7.09,7.09,0,0,1-1.72.56,4.89,4.89,0,0,1-3.5-.44,4.24,4.24,0,0,1-1.87-3,4.71,4.71,0,0,1,.6-3.55,4.6,4.6,0,0,1,3.18-2,8.77,8.77,0,0,1,1.55-.16,7.85,7.85,0,0,1,1.55.16l-.32,1.63a6.73,6.73,0,0,0-1.23-.12,6,6,0,0,0-1.22.13,2.61,2.61,0,0,0-1.79,1.11,3.08,3.08,0,0,0-.28,2.31,2.88,2.88,0,0,0,1.13,2,2.58,2.58,0,0,0,2,.32,4.23,4.23,0,0,0,.62-.17,1.89,1.89,0,0,0,.45-.24l-.33-1.7-1.74.34-.31-1.56,3.7-.73Z"/><path class="cls-5" d="M112.94,165l.82,2.79-1.91.56-2.51-8.49,3-.88a3.81,3.81,0,0,1,2.61,0,2.71,2.71,0,0,1,1.41,1.85,2.8,2.8,0,0,1-.29,2.39,3.82,3.82,0,0,1-2.22,1.54Zm-1.25-4.23.82,2.79.75-.23a1.68,1.68,0,0,0,1-.69,1.4,1.4,0,0,0,.07-1.17,1.37,1.37,0,0,0-.68-.92,1.77,1.77,0,0,0-1.25,0Z"/><path class="cls-5" d="M120.84,165.47l-1.87.68-3-8.32,1.88-.68Z"/><path class="cls-5" d="M129.8,161.64l-1.83.83-5.61-3.58-.42-.28-.28-.21h0c.08.14.17.31.28.53l.35.76,2,4.43-1.72.77-3.63-8.07,2-.88,5.41,3.48.36.23.34.24h0a4.54,4.54,0,0,1-.23-.4c-.09-.18-.19-.41-.32-.68l-2-4.47,1.71-.77Z"/><path class="cls-5" d="M130.73,161.19l-1.7-9.26,2-1.2,7.19,6-1.87,1.1-1.45-1.29-2.77,1.62.43,1.9Zm1-4.55,2-1.17-2.39-2.15-.24-.23c-.06-.06-.13-.15-.22-.26l0,0a3,3,0,0,1,.11.31c0,.09.05.19.07.3Z"/><path class="cls-5" d="M145.53,151.41l-1.62,1.2-6.24-2.28-.47-.18-.32-.14h0l.38.45c.15.19.32.41.51.67l2.9,3.9-1.51,1.12-5.28-7.1,1.72-1.28,6,2.23.4.15.38.16h0c-.07-.07-.17-.19-.3-.35l-.46-.6-2.92-3.92,1.51-1.13Z"/><path class="cls-5" d="M151.91,144.71a5.19,5.19,0,0,1-.64,1.41,7,7,0,0,1-1.17,1.38,4.91,4.91,0,0,1-3.21,1.46,4.24,4.24,0,0,1-3.18-1.6,4.7,4.7,0,0,1-1.35-3.33,4.58,4.58,0,0,1,1.66-3.38,8.72,8.72,0,0,1,1.24-1,7.59,7.59,0,0,1,1.4-.67l.58,1.55a6.41,6.41,0,0,0-2.09,1.3,2.62,2.62,0,0,0-.93,1.87,3.06,3.06,0,0,0,1,2.12,2.88,2.88,0,0,0,2,1.1,2.6,2.6,0,0,0,1.84-.76,3.73,3.73,0,0,0,.44-.47,2.18,2.18,0,0,0,.27-.44L148.55,144l-1.3,1.2-1.08-1.17,2.77-2.55Z"/></svg>