<svg id="Layer_1" data-name="Layer 1" xmlns="http://www.w3.org/2000/svg" viewBox="0 0 300 180"><defs><style>.cls-1{fill:#4b4b4b;}.cls-2{fill:#fafafa;}.cls-3{fill:gray;}.cls-4{fill:#fff;}.cls-5{fill:#282428;}</style></defs><path class="cls-1" d="M14.41,149.34v-8.4H16.8a2.63,2.63,0,0,1,1.73.52,1.72,1.72,0,0,1,.64,1.4,2,2,0,0,1-.39,1.24,2.09,2.09,0,0,1-1.07.75v0a2.1,2.1,0,0,1,1.36.64,2,2,0,0,1,.51,1.41,2.19,2.19,0,0,1-.77,1.74,2.87,2.87,0,0,1-1.95.67Zm1-7.51v2.71h1a1.91,1.91,0,0,0,1.27-.39,1.34,1.34,0,0,0,.46-1.1,1.08,1.08,0,0,0-.4-.92,2,2,0,0,0-1.2-.3Zm0,3.6v3h1.34a2,2,0,0,0,1.34-.41,1.4,1.4,0,0,0,.48-1.12A1.3,1.3,0,0,0,18,145.8a2.52,2.52,0,0,0-1.52-.37Z"/><path class="cls-1" d="M20.31,149.34l3.23-8.4h1l3.23,8.4H26.7l-.85-2.25H22.21l-.8,2.25Zm2.23-3.13h3l-1.36-3.69a1.63,1.63,0,0,1-.07-.23c0-.09,0-.2-.06-.33h0c0,.12,0,.22-.06.31a2.5,2.5,0,0,1-.08.25Z"/><path class="cls-1" d="M29,149.34v-8.4h2.32a4.77,4.77,0,0,1,3.33,1A4,4,0,0,1,35.79,145a4.14,4.14,0,0,1-1.23,3.13,4.59,4.59,0,0,1-3.31,1.18Zm1-7.51v6.62h1.26a3.56,3.56,0,0,0,2.57-.88,3.34,3.34,0,0,0,.92-2.51,3.16,3.16,0,0,0-.86-2.42,3.63,3.63,0,0,0-2.58-.81Z"/><path class="cls-1" d="M36.18,149.34l3.22-8.4h1l3.23,8.4H42.56l-.85-2.25H38.07l-.8,2.25Zm2.22-3.13h3L40,142.52a1.84,1.84,0,0,1-.06-.23c0-.09,0-.2-.07-.33h0c0,.12,0,.22-.06.31a1.23,1.23,0,0,1-.08.25Z"/><path class="cls-1" d="M51.66,149.34H50.45l-4.32-6.7-.15-.26-.12-.26h0q0,.13,0,.42c0,.19,0,.43,0,.73v6.07h-1v-8.4h1.28l4.2,6.59c.09.14.17.25.22.35a1.28,1.28,0,0,1,.12.21h0a4.16,4.16,0,0,1-.05-.49c0-.21,0-.45,0-.74v-5.92h1Z"/><path class="cls-1" d="M58.9,146.59v2.75H57v-8.4h3a3.61,3.61,0,0,1,2.38.68,2.59,2.59,0,0,1,.79,2.07,2.67,2.67,0,0,1-.91,2.1,3.58,3.58,0,0,1-2.43.8Zm0-4.2v2.76h.75a1.58,1.58,0,0,0,1.13-.35,1.35,1.35,0,0,0,.38-1,1.33,1.33,0,0,0-.38-1,1.62,1.62,0,0,0-1.13-.34Z"/><path class="cls-1" d="M69.42,149.34h-5v-8.4h4.85v1.54h-3v1.87H69v1.53H66.27v1.93h3.15Z"/><path class="cls-1" d="M78.33,149.34H76.42L73,144.06c-.1-.15-.18-.29-.25-.4l-.17-.3h0c0,.15,0,.34,0,.57s0,.49,0,.79v4.62H70.77v-8.4h2l3.33,5.11.22.35.2.34h0a3.33,3.33,0,0,1,0-.44c0-.19,0-.43,0-.71v-4.65h1.79Z"/><path class="cls-1" d="M79.35,149.34l3.06-8.4h2.24l3,8.4H85.58L85,147.59H82l-.56,1.75Zm3-3.23h2.2l-.93-2.92-.08-.29c0-.09,0-.19-.06-.32h0q0,.18-.06.3c0,.09,0,.19-.08.29Z"/><path class="cls-1" d="M96.25,149.34H94.34l-3.47-5.28-.26-.4c-.07-.12-.12-.22-.16-.3h0q0,.22,0,.57c0,.22,0,.49,0,.79v4.62H88.69v-8.4h2l3.33,5.11.22.35.2.34h0a3.33,3.33,0,0,1,0-.44c0-.19,0-.43,0-.71v-4.65h1.79Z"/><path class="cls-1" d="M105.06,148.71a5.18,5.18,0,0,1-1.35.57,6.49,6.49,0,0,1-1.7.21,4.62,4.62,0,0,1-3.18-1.05,4,4,0,0,1-1.19-3.17,4.47,4.47,0,0,1,1.2-3.19,4.36,4.36,0,0,1,3.34-1.28,7.11,7.11,0,0,1,2.88.56l-.59,1.47a5.91,5.91,0,0,0-1.12-.34,6.12,6.12,0,0,0-1.17-.11,2.47,2.47,0,0,0-1.86.71,2.89,2.89,0,0,0-.69,2.1,2.74,2.74,0,0,0,.68,2.05,2.46,2.46,0,0,0,1.78.66,3.67,3.67,0,0,0,.61-.05,1.88,1.88,0,0,0,.47-.13v-1.65h-1.68v-1.52h3.57Z"/><path class="cls-1" d="M113.6,148.71a5.4,5.4,0,0,1-1.36.57,6.49,6.49,0,0,1-1.7.21,4.62,4.62,0,0,1-3.18-1.05,4,4,0,0,1-1.19-3.17,4.43,4.43,0,0,1,1.21-3.19,4.32,4.32,0,0,1,3.33-1.28,7.52,7.52,0,0,1,1.47.13,7.61,7.61,0,0,1,1.42.43l-.6,1.47a5.91,5.91,0,0,0-1.12-.34,6.12,6.12,0,0,0-1.17-.11,2.49,2.49,0,0,0-1.86.71,2.89,2.89,0,0,0-.69,2.1,2.7,2.7,0,0,0,.69,2.05,2.42,2.42,0,0,0,1.77.66,3.67,3.67,0,0,0,.61-.05,1.88,1.88,0,0,0,.47-.13v-1.65H110v-1.52h3.58Z"/><path class="cls-1" d="M122.08,145.7a4,4,0,0,1-.88,2.84,3.46,3.46,0,0,1-2.65,1,3.34,3.34,0,0,1-2.56-.92,4,4,0,0,1-.86-2.8v-4.83H117v4.87a2.43,2.43,0,0,0,.4,1.53,1.65,1.65,0,0,0,2.37,0,2.36,2.36,0,0,0,.39-1.48v-4.94h1.89Z"/><path class="cls-1" d="M128.91,149.34h-5v-8.4h1.89v6.87h3.11Z"/><path class="cls-1" d="M129.4,149.34l3.06-8.4h2.25l3,8.4h-2.06l-.57-1.75h-3l-.57,1.75Zm3-3.23h2.19l-.92-2.92c0-.11-.06-.21-.09-.29a2.16,2.16,0,0,1-.05-.32h-.05q0,.18-.06.3a1.9,1.9,0,0,1-.09.29Z"/><path class="cls-1" d="M146.3,149.34h-1.91l-3.46-5.28-.26-.4c-.07-.12-.12-.22-.16-.3h0c0,.15,0,.34,0,.57s0,.49,0,.79v4.62h-1.79v-8.4h2l3.34,5.11.22.35.2.34h0a3.76,3.76,0,0,1,0-.44c0-.19,0-.43,0-.71v-4.65h1.78Z"/><path class="cls-1" d="M155.12,148.71a5.11,5.11,0,0,1-1.36.57,6.43,6.43,0,0,1-1.7.21,4.62,4.62,0,0,1-3.18-1.05,4,4,0,0,1-1.18-3.17,4.47,4.47,0,0,1,1.2-3.19,4.34,4.34,0,0,1,3.34-1.28,7.52,7.52,0,0,1,1.47.13,7.75,7.75,0,0,1,1.41.43l-.59,1.47a5.94,5.94,0,0,0-2.29-.45,2.49,2.49,0,0,0-1.87.71,2.93,2.93,0,0,0-.68,2.1,2.74,2.74,0,0,0,.68,2.05,2.46,2.46,0,0,0,1.78.66,3.67,3.67,0,0,0,.61-.05,1.88,1.88,0,0,0,.47-.13v-1.65h-1.68v-1.52h3.57Z"/><path class="cls-1" d="M155.85,149.34l3.06-8.4h2.25l3,8.4h-2.06l-.57-1.75h-3l-.57,1.75Zm3-3.23h2.19l-.92-2.92a3,3,0,0,1-.09-.29,2.16,2.16,0,0,1-.05-.32h0q0,.18-.06.3a1.9,1.9,0,0,1-.09.29Z"/><path class="cls-1" d="M172.75,149.34h-1.91l-3.46-5.28-.26-.4c-.07-.12-.12-.22-.16-.3h0c0,.15,0,.34,0,.57s0,.49,0,.79v4.62h-1.79v-8.4h2l3.34,5.11.22.35.2.34h0a3.76,3.76,0,0,1,0-.44c0-.19,0-.43,0-.71v-4.65h1.79Z"/><path class="cls-1" d="M178,149.34v-8.4H181a3.74,3.74,0,0,1,2.16.53A1.74,1.74,0,0,1,184,143a1.83,1.83,0,0,1-.4,1.18,2.08,2.08,0,0,1-1,.7v0a2,2,0,0,1,1.29.64,1.88,1.88,0,0,1,.48,1.3,2.27,2.27,0,0,1-.82,1.84,3.46,3.46,0,0,1-2.26.67Zm1.9-7v2h.83a1.37,1.37,0,0,0,.92-.28.92.92,0,0,0,.34-.77.88.88,0,0,0-.35-.75,1.8,1.8,0,0,0-1-.25Zm0,3.46V148h1a1.6,1.6,0,0,0,1-.31,1,1,0,0,0,.37-.83.9.9,0,0,0-.36-.75,1.73,1.73,0,0,0-1-.27Z"/><path class="cls-1" d="M190.72,149.34h-5v-8.4h4.84v1.54h-3v1.87h2.75v1.53h-2.75v1.93h3.15Z"/><path class="cls-1" d="M199.62,149.34h-1.91l-3.46-5.28-.26-.4c-.07-.12-.12-.22-.16-.3h0c0,.15,0,.34,0,.57s0,.49,0,.79v4.62h-1.79v-8.4h2l3.34,5.11.22.35.2.34h0a3.76,3.76,0,0,1,0-.44c0-.19,0-.43,0-.71v-4.65h1.78Z"/><path class="cls-1" d="M207.86,148.93a6.43,6.43,0,0,1-1.28.43,7.08,7.08,0,0,1-1.34.13,4.29,4.29,0,0,1-3.1-1.1,4.19,4.19,0,0,1-1.12-3.14,4.41,4.41,0,0,1,1.23-3.19,4.32,4.32,0,0,1,3.24-1.26,7.37,7.37,0,0,1,1.21.09,6.33,6.33,0,0,1,1.1.31l-.55,1.53a4.07,4.07,0,0,0-.84-.23,4.61,4.61,0,0,0-.86-.07,2.48,2.48,0,0,0-1.78.72,2.57,2.57,0,0,0-.76,2,2.86,2.86,0,0,0,.66,2,2.33,2.33,0,0,0,1.81.72,3.37,3.37,0,0,0,.75-.1,4.33,4.33,0,0,0,1-.32Z"/><path class="cls-1" d="M208.13,149.34l3.06-8.4h2.24l3,8.4h-2.06l-.57-1.75h-3l-.56,1.75Zm3-3.23h2.2l-.92-2.92a3,3,0,0,1-.09-.29c0-.09,0-.19-.06-.32h0q0,.18-.06.3c0,.09-.05.19-.09.29Z"/><path class="cls-1" d="M225,149.34h-1.91l-3.46-5.28c-.11-.15-.19-.29-.26-.4l-.17-.3h0c0,.15,0,.34,0,.57s0,.49,0,.79v4.62h-1.79v-8.4h2l3.33,5.11.22.35c.08.11.14.23.21.34h0a3.33,3.33,0,0,1,0-.44c0-.19,0-.43,0-.71v-4.65H225Z"/><path class="cls-1" d="M226.05,149.34l3.06-8.4h2.24l3,8.4h-2.06l-.57-1.75h-3.05l-.56,1.75Zm3-3.23h2.2l-.93-2.92-.08-.29c0-.09,0-.19-.06-.32h0a1.67,1.67,0,0,1-.07.3c0,.09-.05.19-.08.29Z"/><path class="cls-1" d="M238.7,149.34v-8.4h3a4.81,4.81,0,0,1,3.35,1,4,4,0,0,1,1.12,3.07,4.16,4.16,0,0,1-1.22,3.14,4.5,4.5,0,0,1-3.25,1.17Zm1.89-6.86v5.33h.94a2.55,2.55,0,0,0,1.93-.74,2.78,2.78,0,0,0,.7-2,2.55,2.55,0,0,0-.69-1.89,2.67,2.67,0,0,0-1.95-.69Z"/><path class="cls-1" d="M246.46,149.34l3.06-8.4h2.25l3,8.4h-2.06l-.57-1.75h-3l-.57,1.75Zm3-3.23h2.19l-.92-2.92a3,3,0,0,1-.09-.29,2.16,2.16,0,0,1,0-.32h-.05q0,.18-.06.3a1.9,1.9,0,0,1-.09.29Z"/><path class="cls-1" d="M260.84,149.34h-5v-8.4h4.85v1.54h-3v1.87h2.75v1.53h-2.75v1.93h3.15Z"/><path class="cls-1" d="M269,149.34h-2.14l-1.12-2.07a3.11,3.11,0,0,0-.54-.76,1,1,0,0,0-.63-.29h-.51v3.12h-1.89v-8.4h3a3.73,3.73,0,0,1,2.29.59,2.13,2.13,0,0,1,.77,1.79,2.24,2.24,0,0,1-.49,1.44,2.9,2.9,0,0,1-1.35.9v0a1.58,1.58,0,0,1,.7.49,5,5,0,0,1,.55.78Zm-4.94-7v2.43h.82a1.34,1.34,0,0,0,1-.37,1.28,1.28,0,0,0,.37-.92,1.09,1.09,0,0,0-.33-.86,1.48,1.48,0,0,0-1-.28Z"/><path class="cls-1" d="M269.12,149.34l3.06-8.4h2.24l3,8.4h-2.06l-.57-1.75h-3l-.56,1.75Zm3-3.23h2.2l-.92-2.92a3,3,0,0,1-.09-.29c0-.09,0-.19-.06-.32h0q0,.18-.06.3c0,.09-.05.19-.09.29Z"/><path class="cls-1" d="M285.73,149.34h-1.9v-3.42h-3.48v3.42h-1.89v-8.4h1.89v3.35h3.48v-3.35h1.9Z"/><path class="cls-1" d="M104.25,162.66h-1.78l-1.85-2.7-.07-.13-.1-.22h0v3H99v-6.34h1.43v2.94h0l.07-.15.11-.2,1.75-2.59H104l-2.17,3Z"/><path class="cls-1" d="M107.29,162.76a3,3,0,0,1-2.22-.88,3.18,3.18,0,0,1-.85-2.31,3.45,3.45,0,0,1,.86-2.43,3,3,0,0,1,2.31-.92,2.88,2.88,0,0,1,2.19.88,3.29,3.29,0,0,1,.84,2.34,3.35,3.35,0,0,1-.87,2.41A3,3,0,0,1,107.29,162.76Zm0-1.23a1.39,1.39,0,0,0,1.17-.53,2.27,2.27,0,0,0,.44-1.48,2.48,2.48,0,0,0-.42-1.53,1.38,1.38,0,0,0-1.15-.55,1.42,1.42,0,0,0-1.19.57,2.74,2.74,0,0,0,0,3A1.41,1.41,0,0,0,107.31,161.53Z"/><path class="cls-1" d="M115.55,157.48h-1.81v5.18h-1.43v-5.18h-1.79v-1.16h5Z"/><path class="cls-1" d="M115.1,162.66l2.3-6.34h1.69l2.25,6.34h-1.55l-.43-1.32h-2.3l-.42,1.32Zm2.27-2.44H119l-.7-2.2c0-.09,0-.16-.06-.22a1.19,1.19,0,0,1,0-.24h0a1.32,1.32,0,0,1,0,.23,1.15,1.15,0,0,1-.06.21Z"/><path class="cls-1" d="M129.07,157.48h-1.8v5.18h-1.43v-5.18H124v-1.16h5Z"/><path class="cls-1" d="M128.62,162.66l2.3-6.34h1.69l2.26,6.34h-1.56l-.43-1.32h-2.29l-.43,1.32Zm2.28-2.44h1.65l-.7-2.2a2.18,2.18,0,0,0-.06-.22,1.19,1.19,0,0,1,0-.24h0c0,.09,0,.16,0,.23l-.07.21Z"/><path class="cls-1" d="M141.35,162.66h-1.44l-2.61-4-.19-.31-.12-.22h0c0,.11,0,.25,0,.43s0,.37,0,.59v3.49h-1.34v-6.34h1.53l2.52,3.86.16.26a1.65,1.65,0,0,1,.15.25h0a2.38,2.38,0,0,1,0-.33c0-.14,0-.32,0-.54v-3.5h1.34Z"/><path class="cls-1" d="M145.45,160.58a2.15,2.15,0,0,1-.57,1.63,2.22,2.22,0,0,1-1.62.55,3,3,0,0,1-.59-.06,3.18,3.18,0,0,1-.62-.2l.44-1.08a1.59,1.59,0,0,0,.32.12,1,1,0,0,0,.32.05.81.81,0,0,0,.65-.24,1.13,1.13,0,0,0,.21-.77l0-4.26h1.42Z"/><path class="cls-1" d="M152,159.91a3,3,0,0,1-.66,2.14,2.6,2.6,0,0,1-2,.71,2.51,2.51,0,0,1-1.93-.69,3,3,0,0,1-.65-2.1v-3.65h1.43V160a1.86,1.86,0,0,0,.3,1.15,1.07,1.07,0,0,0,.91.38,1.05,1.05,0,0,0,.88-.37,1.73,1.73,0,0,0,.29-1.11v-3.73H152Z"/><path class="cls-1" d="M159.06,162.66h-1.43l-2.61-4c-.08-.12-.15-.22-.2-.31l-.12-.22h0c0,.11,0,.25,0,.43s0,.37,0,.59v3.49h-1.35v-6.34h1.53l2.52,3.86.16.26c.06.08.11.17.16.25h0a2.38,2.38,0,0,1,0-.33c0-.14,0-.32,0-.54v-3.5h1.34Z"/><path class="cls-1" d="M165.71,162.18a4,4,0,0,1-1,.43,5.17,5.17,0,0,1-1.28.15A3.47,3.47,0,0,1,161,162a3,3,0,0,1-.89-2.38,3.38,3.38,0,0,1,.9-2.41,3.32,3.32,0,0,1,2.52-1,5.52,5.52,0,0,1,1.11.1,5.28,5.28,0,0,1,1.06.32l-.44,1.11a4.53,4.53,0,0,0-.85-.26,4.12,4.12,0,0,0-.88-.08,1.91,1.91,0,0,0-1.41.53,2.21,2.21,0,0,0-.51,1.58,2.05,2.05,0,0,0,.51,1.55,1.85,1.85,0,0,0,1.34.5,2.13,2.13,0,0,0,.46,0,1.11,1.11,0,0,0,.35-.1v-1.24H163v-1.14h2.69Z"/><path class="cls-1" d="M168.37,160.58v2.08h-1.43v-6.34h2.24a2.69,2.69,0,0,1,1.79.52,1.93,1.93,0,0,1,.6,1.55,2,2,0,0,1-.69,1.59,2.67,2.67,0,0,1-1.83.6Zm0-3.16v2.08h.56a1.22,1.22,0,0,0,.85-.26,1,1,0,0,0,.29-.79,1,1,0,0,0-.29-.78,1.22,1.22,0,0,0-.85-.25Z"/><path class="cls-1" d="M173.92,162.66H172.5v-6.34h1.42Z"/><path class="cls-1" d="M181.06,162.66h-1.44l-2.61-4c-.08-.12-.14-.22-.19-.31a2,2,0,0,1-.13-.22h0c0,.11,0,.25,0,.43s0,.37,0,.59v3.49h-1.35v-6.34h1.54l2.51,3.86c.06.08.11.17.17.26l.15.25h0q0-.1,0-.33c0-.14,0-.32,0-.54v-3.5h1.35Z"/><path class="cls-1" d="M181.83,162.66l2.31-6.34h1.69l2.25,6.34h-1.56l-.42-1.32h-2.3l-.42,1.32Zm2.28-2.44h1.65l-.69-2.2-.07-.22c0-.06,0-.14,0-.24h0c0,.09,0,.16-.05.23l-.07.21Z"/><path class="cls-1" d="M194.56,162.66h-1.43l-2.61-4c-.08-.12-.15-.22-.2-.31l-.12-.22h0c0,.11,0,.25,0,.43s0,.37,0,.59v3.49h-1.35v-6.34h1.53l2.52,3.86.16.26c.06.08.11.17.16.25h0a2.38,2.38,0,0,1,0-.33c0-.14,0-.32,0-.54v-3.5h1.34Z"/><path class="cls-1" d="M201.21,162.18a4,4,0,0,1-1,.43,5.17,5.17,0,0,1-1.28.15,3.47,3.47,0,0,1-2.4-.79,3,3,0,0,1-.89-2.38,3.38,3.38,0,0,1,.9-2.41,3.32,3.32,0,0,1,2.52-1,5.52,5.52,0,0,1,1.11.1,5.28,5.28,0,0,1,1.06.32l-.44,1.11a4.53,4.53,0,0,0-.85-.26,4.12,4.12,0,0,0-.88-.08,1.91,1.91,0,0,0-1.41.53,2.21,2.21,0,0,0-.51,1.58,2.05,2.05,0,0,0,.51,1.55,1.85,1.85,0,0,0,1.34.5,2.13,2.13,0,0,0,.46,0,1.11,1.11,0,0,0,.35-.1v-1.24h-1.26v-1.14h2.69Z"/><path class="cls-2" d="M106.47,91.17c.08-1,.43-1.46,1.17-1.63a1.55,1.55,0,0,1,1.79.89c.44.81.82,1.65,1.25,2.47.14.27.06.37-.19.49-1.48.71-2.95,1.43-4.43,2.16-.23.12-.37.11-.49-.16-.32-.72-.67-1.44-1-2.15a1.53,1.53,0,0,1,.11-1.87A1.36,1.36,0,0,1,106.47,91.17Zm1.63-.48a.72.72,0,0,0-.74.9,3.88,3.88,0,0,0,.28.71c.47,1,.56,1.08,1.55.44l0,0a.2.2,0,0,0,.12-.3c-.25-.48-.49-1-.76-1.44A.58.58,0,0,0,108.1,90.69Zm-2.76,2,.33.77c.43.91.5.93,1.34.39.11-.07.24-.11.16-.28a7,7,0,0,0-.74-1.38.56.56,0,0,0-.69-.16A.62.62,0,0,0,105.34,92.64Z"/><path class="cls-2" d="M173.3,29.65a1.55,1.55,0,0,1-.55,2.4,1.47,1.47,0,0,1-1.31,0l-2.59-1.23c-.22-.1-.29-.19-.17-.44.75-1.5,1.48-3,2.21-4.53.1-.2.19-.25.41-.14.78.41,1.58.79,2.37,1.19a1.42,1.42,0,0,1,.87,1.49,1.33,1.33,0,0,1-1.16,1.19A.18.18,0,0,0,173.3,29.65Zm-1.48,1.47a.75.75,0,0,0,.69-1A4.23,4.23,0,0,0,170.75,29c-.36.17-.38.62-.58.93a1.63,1.63,0,0,0-.09.19c0,.09-.05.18,0,.23A11.27,11.27,0,0,0,171.82,31.12Zm1.58-2.87a.57.57,0,0,0-.32-.58c-.2-.12-.41-.23-.62-.33-.87-.45-1-.39-1.28.55-.06.18,0,.26.13.33.43.19.85.42,1.28.58A.61.61,0,0,0,173.4,28.25Z"/><path class="cls-2" d="M196,82a8.55,8.55,0,0,1-2.71,1.22,1.3,1.3,0,0,1,.89-1.57l1.46-.58a1.56,1.56,0,0,0,.4-.27c.44-.46.33-.85-.28-1-.44-.11-.88-.22-1.32-.31-.25,0-.37-.12-.3-.42.17-.81.15-.81.95-.62,1.43.33,2.85.67,4.28,1,.39.09.49.22.38.62-.21.72-.35,1.47-.54,2.2-.3,1.12-.79,1.56-1.67,1.51S196.2,83.17,196,82Zm.89-.2a.63.63,0,0,0,.38.67.58.58,0,0,0,.75,0,2.78,2.78,0,0,0,.54-1.83c0-.36-.63-.21-1-.36a.38.38,0,0,0-.1,0c-.18-.07-.26,0-.29.18C197.15,80.84,197,81.31,196.93,81.78Z"/><path class="cls-2" d="M165,27.06c.37-1.12.72-2.09,1-3.08.14-.54.42-.27.69-.21s.5.11.35.53c-.53,1.53-1,3.08-1.51,4.63-.11.36-.25.31-.54.25a1,1,0,0,1-.87-.92c-.23-1.11-.52-2.21-.83-3.48-.19.58-.35,1-.5,1.46s-.38,1.09-.52,1.65c-.1.38-.31.35-.55.21s-.68,0-.48-.54c.54-1.54,1-3.09,1.51-4.64.1-.34.22-.33.53-.27a1,1,0,0,1,.84.89c.2,1,.48,2.07.73,3.11C164.91,26.75,165,26.84,165,27.06Z"/><path class="cls-2" d="M144.54,23.45c.06.8.11,1.6.17,2.4,0,.15,0,.29,0,.44,0,.55-.33.83-.88.69-.18,0-.16-.16-.17-.28-.12-1.68-.23-3.36-.35-5,0-.14,0-.34.16-.33.37,0,.78-.27,1.1.17.66.95,1.34,1.89,2,2.83l.32.43c.05-.93-.11-1.74-.13-2.56,0-.12,0-.25,0-.37-.07-.77,0-.8.72-.79.22,0,.32.05.33.3.11,1.66.22,3.32.34,5,0,.29-.08.35-.35.39a1,1,0,0,1-1.2-.53c-.62-.95-1.31-1.84-2-2.76Z"/><path class="cls-2" d="M180.91,34.44c-.64.75-1.28,1.5-1.9,2.27-.21.26-.38.43-.67.1s-.58-.34-.19-.78c1-1.15,2-2.35,3-3.52.13-.14.23-.54.5-.31s.78.33.68.92c-.21,1.28-.38,2.57-.6,4,.76-.89,1.41-1.68,2.08-2.45.11-.13.18-.44.42-.32a2.27,2.27,0,0,1,.65.55c.1.12-.07.23-.15.32-1.05,1.26-2.12,2.51-3.16,3.78-.21.25-.32.2-.55,0a1,1,0,0,1-.49-1.22c.22-1.1.34-2.23.5-3.34Z"/><path class="cls-2" d="M192.55,48.67c-.89.45-1.78.88-2.65,1.36-.39.21-.51,0-.62-.28s-.38-.47.11-.7c1.4-.66,2.77-1.41,4.16-2.1.17-.08.41-.42.58-.1s.59.62.28,1.11c-.67,1.07-1.31,2.16-2,3.24l0,.13.12,0c.91-.45,1.82-.87,2.71-1.36.54-.3.52.19.7.42s.06.42-.21.55q-2.16,1.08-4.29,2.19c-.29.15-.41.1-.58-.18a1.08,1.08,0,0,1,0-1.31c.62-.92,1.15-1.88,1.71-2.83l.06-.1Z"/><path class="cls-2" d="M112.89,40.67l2,1.77c.58.5.57.5,0,1.05-.15.16-.25.2-.43,0-1.27-1.11-2.54-2.22-3.81-3.31-.21-.18-.17-.27,0-.48a1,1,0,0,1,1.23-.47c1.14.25,2.31.39,3.62.61-.89-.78-1.65-1.5-2.47-2.14-.47-.37-.12-.52.06-.79s.41-.25.67,0c1.14,1,2.29,2,3.43,3,.15.13.55.24.34.5s-.37.8-.91.72l-3.16-.51-.56-.08Zm-.1-.14,0,0h0Z"/><path class="cls-2" d="M101.68,70c1,.09,2,.2,3,.25.42,0,.47.2.42.54s0,.61-.49.56c-1.61-.17-3.24-.3-4.86-.43-.28,0-.33-.12-.34-.4a1.06,1.06,0,0,1,.72-1.1,25.51,25.51,0,0,0,3.09-1.64c-1-.09-1.94-.21-2.92-.25-.56,0-.66-.23-.56-.72.05-.27.07-.41.41-.38,1.64.17,3.28.31,4.92.44.33,0,.35.16.34.44a1.08,1.08,0,0,1-.75,1.08c-1,.45-2,1-3,1.5Z"/><path class="cls-2" d="M106.32,50.91c.9.45,1.79.94,2.7,1.36.48.22.24.44.12.71s-.24.46-.62.26c-1.36-.72-2.74-1.4-4.1-2.11-.18-.09-.59-.13-.46-.4s.17-.87.78-.9a36.47,36.47,0,0,0,3.85-.41c-.9-.45-1.79-.9-2.68-1.37-.16-.08-.47-.1-.42-.34a2.42,2.42,0,0,1,.4-.76c.08-.11.2,0,.29,0,1.48.75,3,1.51,4.45,2.25.25.13.28.23.17.5a1.05,1.05,0,0,1-1.07.77c-1.13,0-2.26.18-3.4.28Z"/><path class="cls-2" d="M153.32,23.65c1.24,0,1.24,0,1.22,1.26s-.08,1.31-1.26,1.7a3.14,3.14,0,0,1-3.39-.79,3.43,3.43,0,0,1-.22-3.6,2.93,2.93,0,0,1,4.09-.81,1.4,1.4,0,0,1,.41.43c.12.25.47.51.2.8a.91.91,0,0,1-1.19-.2,1.52,1.52,0,0,0-2.48.24,2.5,2.5,0,0,0,0,2.36,1.69,1.69,0,0,0,2.55.35c.21-.15.11-.41.1-.61s-.25-.13-.39-.15a.92.92,0,0,0-.33,0c-.49.09-.63-.13-.58-.6,0-.26.08-.4.38-.37S153,23.65,153.32,23.65Z"/><path class="cls-2" d="M118.78,38.46a3.32,3.32,0,0,1-3-2.86,3,3,0,0,1,2.34-3,1.89,1.89,0,0,1,.75,0c.3,0,.72.12.78.4s-.34.51-.52.77-.22.06-.34,0a1.35,1.35,0,0,0-1.58.52,1.42,1.42,0,0,0-.17,1.63,3.14,3.14,0,0,0,.81,1,1.67,1.67,0,0,0,2.76-.92c.08-.33-.13-.47-.3-.64s-.3.09-.44.16a1.57,1.57,0,0,0-.24.21.56.56,0,0,1-.95-.31c0-.14,0-.2.12-.26.49-.41,1-.81,1.45-1.23.18-.16.3-.13.44,0,.36.45.74.89,1.11,1.33a.4.4,0,0,1,.11.4A3.56,3.56,0,0,1,118.78,38.46Z"/><path class="cls-2" d="M121,31.42c0-1.83,2.23-3.37,3.74-2.55.19.11.55.15.44.5a1,1,0,0,1-1,.51,1.34,1.34,0,0,0-1.55.29,1.41,1.41,0,0,0-.46,1.52,3.09,3.09,0,0,0,.85,1.38,1.67,1.67,0,0,0,2.72-.74c.09-.29-.09-.45-.22-.63s-.28,0-.41.08a3.37,3.37,0,0,0-.32.19.56.56,0,0,1-.9-.42c0-.15.07-.2.16-.25.55-.35,1.1-.68,1.65-1,.2-.14.27,0,.37.12.3.49.61,1,.92,1.47a.4.4,0,0,1,.06.4,3.53,3.53,0,0,1-3.61,2.28A3.34,3.34,0,0,1,121,31.42Z"/><path class="cls-2" d="M103.47,78.42c1.57,0,2.35.63,2.63,2,.13.66.22,1.32.36,2,.05.25,0,.35-.27.39-1.64.28-3.27.57-4.91.87-.28,0-.38,0-.42-.32-.09-.66-.23-1.31-.33-2A2.17,2.17,0,0,1,102,78.74,4.5,4.5,0,0,1,103.47,78.42Zm.24,1.17c-.07,0-.25,0-.43,0-1.62.24-2,.74-1.67,2.35.06.29.15.39.46.32.8-.16,1.6-.28,2.4-.43s.92-.17.73-1.09S104.71,79.59,103.71,79.59Z"/><path class="cls-2" d="M196.71,65.82a2.23,2.23,0,0,1-2.5-1.83c-.17-.68-.27-1.38-.42-2.07-.07-.27,0-.33.27-.38l4.84-.94c.29-.06.41,0,.46.32.11.69.28,1.37.39,2.07a2.16,2.16,0,0,1-1.41,2.46A4.67,4.67,0,0,1,196.71,65.82Zm-.19-1.17.51-.06c1.61-.27,1.93-.76,1.61-2.37-.08-.36-.22-.37-.51-.3-.79.17-1.58.31-2.38.47s-.87.18-.68,1.07S195.57,64.66,196.52,64.65Z"/><path class="cls-2" d="M197.07,76.13c0-.49.08-1,.1-1.47,0-.13.08-.33-.12-.36a10.3,10.3,0,0,0-1.24-.06c-.19,0-.15.22-.16.36-.05.77-.13,1.55-.14,2.33,0,.52-.35.37-.63.38s-.39-.18-.36-.47c.09-1.16.18-2.31.25-3.47,0-.31.11-.39.42-.37,1.6.13,3.21.24,4.82.33.36,0,.44.17.41.5-.09,1.12-.17,2.24-.22,3.36,0,.45-.29.35-.56.35s-.46-.06-.42-.42c.07-.65.06-1.31.14-2s-.07-.76-.65-.77-.6,0-.6.52c0,.62-.09,1.23-.1,1.84,0,.42-.2.45-.54.43s-.52-.08-.44-.47a2.93,2.93,0,0,0,0-.59Z"/><path class="cls-2" d="M106,53.9l-.52,1.53c-.4,1.15-.4,1.14.76,1.45.25.07.35,0,.43-.23.24-.73.52-1.46.75-2.2.11-.36.25-.45.61-.32s.47.21.33.6c-.41,1.08-.77,2.18-1.13,3.28-.1.3-.23.35-.52.25-1.55-.55-3.1-1.08-4.66-1.61-.25-.08-.29-.19-.21-.43.4-1.11.8-2.21,1.16-3.33.15-.47.4-.19.63-.14s.42.14.28.47c-.27.69-.46,1.41-.74,2.1-.15.37,0,.52.31.6a2.83,2.83,0,0,1,.41.14c.25.13.35,0,.42-.2.23-.69.47-1.37.71-2,0-.15.08-.36.32-.25S105.9,53.64,106,53.9Z"/><path class="cls-2" d="M176.06,31.93c-.17.06-.22.23-.31.35-.62.85-.62.85.22,1.45.49.34,1,.71,1.48,1s.16.41,0,.6-.19.49-.56.23c-1-.72-2-1.41-3-2.09-.26-.17-.23-.29-.08-.51q1.43-2,2.84-4c.15-.22.25-.26.5-.08.95.69,1.91,1.36,2.89,2,.38.26.08.42,0,.6s-.22.46-.56.19c-.6-.46-1.25-.86-1.86-1.32-.26-.2-.43-.21-.59.1a1.8,1.8,0,0,1-.28.4c-.2.22-.12.35.1.5.56.37,1.09.79,1.66,1.13.39.25.27.43.08.72s-.36.3-.63.1c-.54-.4-1.09-.78-1.64-1.16Z"/><path class="cls-2" d="M196.23,91.8a5.93,5.93,0,0,1-.36.71c-.23.36-.43,0-.63-.08a9.53,9.53,0,0,1-1.12-.53c-.24-.14-.37-.12-.49.15-.2.46-.43.92-.67,1.36-.13.26-.07.38.18.5.47.2.91.44,1.37.65.24.11.27.21.16.45-.33.75-.32.76-1,.41-1.35-.66-2.69-1.34-4.05-2-.38-.17-.33-.37-.14-.6s.09-.79.67-.44,1,.48,1.5.75c.27.15.39.1.51-.18.19-.45.41-.89.64-1.32.16-.28.08-.4-.19-.53-.53-.23-1-.51-1.56-.75-.25-.1-.27-.21-.16-.45.32-.76.31-.76,1.06-.4l4,2C196,91.55,196.21,91.56,196.23,91.8Z"/><path class="cls-2" d="M193.25,59.2l-.12-.35c-.3-.81-.31-.82.37-1.4.27-.23.4-.43.2-.77a5.48,5.48,0,0,1-.22-.61c-.35-1-.35-1-1.42-1-.23,0-.38-.05-.44-.29s-.19-.54-.3-.85h1.45c1.41,0,2.82.08,4.23.1.28,0,.46.07.5.36s.47.63.08,1Zm.88-4.16c.15.4.28.77.41,1.14.06.19.13.24.3.1L196.29,55Z"/><path class="cls-2" d="M194.69,66.74c1.86.65,3.65,1.28,5.44,1.89a.36.36,0,0,1,.28.45c-.07.32.25.75-.21,1-1.67.76-3.36,1.49-5,2.24-.26.12-.29,0-.31-.22-.1-.88-.12-.91.72-1.21.42-.15.6-.35.51-.79a2,2,0,0,1,0-.59c.11-.82-.16-1.34-1-1.43-.23,0-.34-.17-.32-.42S194.69,67.09,194.69,66.74Zm2.41,3.45,2-.82-.89-.29C196.79,68.64,196.79,68.64,197.1,70.19Z"/><path class="cls-2" d="M105.2,72.84c.08.28-.08.43-.37.56-.86.39-.85.4-.8,1.34,0,.11,0,.22,0,.32.08,1,.08,1,1,1.25a1.18,1.18,0,0,1,.47,1.2c-.08.14-.19.06-.28,0-1.76-.54-3.52-1.08-5.28-1.64-.47-.15-.19-.59-.28-.89s.07-.45.34-.57l4.19-2,.2-.09C105.16,72,105.16,72,105.2,72.84ZM103,74.25l-1,.42c-.31.13-.61.28-1,.48l1.83.53c.25.08.27-.05.26-.25C103.09,75.06,103.06,74.68,103,74.25Z"/><path class="cls-2" d="M137.59,28.29c.25-1.54.48-3,.72-4.46.06-.38.14-.75.18-1.13s.16-.38.44-.49c.64-.25,1,0,1.3.51.83,1.33,1.72,2.62,2.61,3.92.26.36.25.46-.22.6a.81.81,0,0,1-1.13-.54.58.58,0,0,0-.85-.37,2.29,2.29,0,0,1-.59.12c-1,.2-1.05.2-1.21,1.23-.05.28-.15.41-.43.44A7.11,7.11,0,0,0,137.59,28.29Zm1.9-4.7a1.35,1.35,0,0,0-.17.74c0,.42-.36,1-.11,1.22s.84-.11,1.27-.18c0,0,0-.05.08-.1Z"/><path class="cls-2" d="M155,26.74l3-4.92c.27-.44.62-.06.93-.09s.43.16.49.45c.29,1.46.6,2.91.91,4.36a2.41,2.41,0,0,1,.07.37c0,.28.3.67.06.79s-.62-.06-.94-.13-.22-.3-.26-.48c-.18-.89-.18-.89-1.09-1.05h-.1c-.81-.29-1.46-.21-1.75.74-.05.13-.15.26-.33.2S155.33,26.92,155,26.74Zm2.37-1.81,1.21.22c.19,0,.28,0,.24-.22-.11-.59-.22-1.19-.35-1.91Z"/><path class="cls-2" d="M188.85,48.66c-.21-.29-.39-.56-.6-.8s0-.4.1-.57c.51-.79.51-.79,0-1.54l-.16-.22c-.6-.83-.6-.83-1.57-.57-.3.07-1.05-.55-1-.83,0-.12.15-.12.26-.15,1.72-.45,3.45-.9,5.18-1.38a.46.46,0,0,1,.6.29c.13.28.58.43.3.87C190.91,45.38,189.9,47,188.85,48.66Zm.57-3,1.22-1.84-2.12.61Z"/><path class="cls-2" d="M129.2,31.58a1.53,1.53,0,0,1-1.36-.7c-.75-1.13-1.23-2.41-1.86-3.6-.09-.18,0-.27.13-.34a3.07,3.07,0,0,0,.48-.24c.25-.15.36-.08.49.18.46,1,.94,1.95,1.43,2.91a1.06,1.06,0,0,0,1.7.46.83.83,0,0,0,.35-1.21c-.47-1-.93-2-1.46-3-.34-.62.21-.56.46-.74s.44-.09.58.21c.43.92.89,1.82,1.31,2.73.72,1.53.4,2.38-1.13,3.08A2.58,2.58,0,0,1,129.2,31.58Z"/><path class="cls-2" d="M193.26,83.24c1.53,1.25,3,2.45,4.48,3.64a.39.39,0,0,1,.09.57c-.16.28,0,.77-.55.81l-5.77.37c.11-.36.22-.67.31-1s.31-.2.49-.21c1.12-.06.87.11,1.24-1a1,1,0,0,1,0-.16c.39-.73.39-1.34-.48-1.74a.32.32,0,0,1-.17-.45C193.06,83.86,193.14,83.59,193.26,83.24Zm3.22,4-.86-.68c-.89-.69-.89-.69-1.2.4a1,1,0,0,0,0,.1c-.1.23,0,.28.22.27C195.18,87.27,195.76,87.25,196.48,87.22Z"/><path class="cls-2" d="M111.19,48.89c-1.15-1.59-2.24-3.12-3.35-4.63a.46.46,0,0,1,0-.67c.22-.25.25-.7.78-.58,1.5.32,3,.6,4.52.9l1,.21a4.08,4.08,0,0,1-.52.89c-.14.25-.34.11-.53.07-.92-.19-.92-.19-1.44.61l-.18.27c-.53.81-.54.83.06,1.58a.47.47,0,0,1,0,.7A7.34,7.34,0,0,0,111.19,48.89ZM110.42,46c.24-.38.46-.71.67-1,.09-.14.17-.25-.07-.3l-1.92-.42Z"/><path class="cls-2" d="M106.71,83.24A6.07,6.07,0,0,0,107,84c.15.3.07.48-.18.69-.73.6-.73.61-.42,1.52l.09.26c.31.93.31.93,1.31,1,.32,0,.83.77.7,1.06s-.22.09-.33.09l-5.36-.21c-.25,0-.38-.11-.41-.33s-.47-.66-.1-1C103.74,85.79,105.21,84.54,106.71,83.24Zm-3,4v.13h2l-.48-1.4Z"/><path class="cls-2" d="M102.62,58.28a1.71,1.71,0,0,1,1.75,2.17c-.06.36-.15.71-.24,1.06s0,.39.27.45c.46.09.91.24,1.37.34.23.05.33.11.27.39-.17.82-.15.82-1,.61l-4.31-1.07c-.31-.07-.42-.16-.32-.5.24-.79.37-1.62.66-2.4A1.48,1.48,0,0,1,102.62,58.28Zm.76,2.08a.73.73,0,0,0-.52-.84.68.68,0,0,0-.85.28,4,4,0,0,0-.4,1.27c0,.14.07.18.17.23,1,.51,1.5.26,1.6-.89Z"/><path class="cls-2" d="M185.48,42.89a2.55,2.55,0,0,1-2.23-3.6,3.64,3.64,0,0,1,2.12-1.84,2.31,2.31,0,0,1,2.51.56,2.22,2.22,0,0,1,.78,2.33c-.06.23,0,.66-.45.58a.79.79,0,0,1-.63-.94,1.2,1.2,0,0,0-.39-1.28,1.25,1.25,0,0,0-1.42-.2,3.48,3.48,0,0,0-1.55,1.39,1.18,1.18,0,0,0,.12,1.42,1.11,1.11,0,0,0,1.3.4c.5-.14.66,0,.83.67.12.47-.32.33-.51.43A1.19,1.19,0,0,1,185.48,42.89Z"/><path class="cls-2" d="M133.72,29.61c-.18,0-.2-.1-.24-.22-.55-1.59-1.09-3.17-1.65-4.76-.06-.19-.06-.31.17-.35a.68.68,0,0,0,.2-.07c.45-.25.7-.19.86.38.32,1.11.75,2.18,1.1,3.29.13.42.3.51.72.34.61-.26,1.26-.43,1.89-.67.31-.12.35.1.38.28s.37.47-.05.62l-3.27,1.14Z"/><path class="cls-1" d="M106.16,102.3a42.2,42.2,0,0,1-3.76-6A52.87,52.87,0,0,1,96.92,80.1a53.84,53.84,0,0,1,14.31-46.29,53,53,0,0,1,23.54-14.3,52.38,52.38,0,0,1,17.81-2.13,53.91,53.91,0,0,1,48.83,37.77A52,52,0,0,1,203.6,66.2a53.69,53.69,0,0,1-9.83,36.26,1.2,1.2,0,0,1-.22.23l-10.67-8a48.59,48.59,0,0,0,2.66-4.29,39.39,39.39,0,0,0,3.87-28.09A39.35,39.35,0,0,0,168.83,35.4a38.88,38.88,0,0,0-25.2-4.16,40.42,40.42,0,0,0-34,42.19A39.73,39.73,0,0,0,113.75,89a50.88,50.88,0,0,0,3.07,5.24Zm86.37-51-.08-.08c.65-1.08,1.29-2.17,2-3.24.31-.49-.11-.78-.28-1.11s-.41,0-.58.1c-1.39.69-2.76,1.44-4.16,2.1-.49.23-.21.45-.11.7s.23.49.62.28c.87-.48,1.76-.91,2.65-1.36l.07.09c-.56,1-1.09,1.91-1.71,2.83a1.08,1.08,0,0,0,0,1.31c.17.28.29.33.58.18q2.13-1.11,4.29-2.19c.27-.13.43-.26.21-.55s-.16-.72-.7-.42C194.35,50.41,193.44,50.83,192.53,51.28ZM106.47,91.17a1.36,1.36,0,0,0-1.81.2,1.53,1.53,0,0,0-.11,1.87c.35.71.7,1.43,1,2.15.12.27.26.28.49.16,1.48-.73,3-1.45,4.43-2.16.25-.12.33-.22.19-.49-.43-.82-.81-1.66-1.25-2.47a1.55,1.55,0,0,0-1.79-.89C106.9,89.71,106.55,90.17,106.47,91.17ZM173.3,29.65a.18.18,0,0,1,.08-.07,1.33,1.33,0,0,0,1.16-1.19,1.42,1.42,0,0,0-.87-1.49c-.79-.4-1.59-.78-2.37-1.19-.22-.11-.31-.06-.41.14-.73,1.52-1.46,3-2.21,4.53-.12.25-.05.34.17.44l2.59,1.23a1.47,1.47,0,0,0,1.31,0A1.55,1.55,0,0,0,173.3,29.65ZM196,82c.16,1.19.63,1.7,1.54,1.76s1.37-.39,1.67-1.51c.19-.73.33-1.48.54-2.2.11-.4,0-.53-.38-.62-1.43-.3-2.85-.64-4.28-1-.8-.19-.78-.19-.95.62-.07.3,0,.37.3.42.44.09.88.2,1.32.31.61.14.72.53.28,1a1.56,1.56,0,0,1-.4.27l-1.46.58a1.3,1.3,0,0,0-.89,1.57A8.55,8.55,0,0,0,196,82ZM165,27.06c-.08-.22-.12-.31-.15-.41-.25-1-.53-2.07-.73-3.11a1,1,0,0,0-.84-.89c-.31-.06-.43-.07-.53.27-.48,1.55-1,3.1-1.51,4.64-.2.56.26.42.48.54s.45.17.55-.21c.14-.56.34-1.1.52-1.65s.31-.88.5-1.46c.31,1.27.6,2.37.83,3.48a1,1,0,0,0,.87.92c.29.06.43.11.54-.25.47-1.55,1-3.1,1.51-4.63.15-.42-.08-.46-.35-.53s-.55-.33-.69.21C165.75,25,165.4,25.94,165,27.06Zm-20.49-3.61.11,0c.66.92,1.35,1.81,2,2.76a1,1,0,0,0,1.2.53c.27,0,.38-.1.35-.39-.12-1.66-.23-3.32-.34-5,0-.25-.11-.29-.33-.3-.75,0-.79,0-.72.79,0,.12,0,.25,0,.37,0,.82.18,1.63.13,2.56l-.32-.43c-.68-.94-1.36-1.88-2-2.83-.32-.44-.73-.16-1.1-.17-.21,0-.17.19-.16.33.12,1.68.23,3.36.35,5,0,.12,0,.24.17.28.55.14.91-.14.88-.69,0-.15,0-.29,0-.44C144.65,25.05,144.6,24.25,144.54,23.45Zm36.37,11,.1,0c-.16,1.11-.28,2.24-.5,3.34A1,1,0,0,0,181,39c.23.17.34.22.55,0,1-1.27,2.11-2.52,3.16-3.78.08-.09.25-.2.15-.32a2.27,2.27,0,0,0-.65-.55c-.24-.12-.31.19-.42.32-.67.77-1.32,1.56-2.08,2.45.22-1.44.39-2.73.6-4,.1-.59-.4-.68-.68-.92s-.37.17-.5.31c-1,1.17-1.95,2.37-3,3.52-.39.44,0,.54.19.78s.46.16.67-.1C179.63,35.94,180.27,35.19,180.91,34.44Zm-68,6.23,0-.11.56.08,3.16.51c.54.08.68-.42.91-.72s-.19-.37-.34-.5c-1.14-1-2.29-2-3.43-3-.26-.23-.43-.35-.67,0s-.53.42-.06.79c.82.64,1.58,1.36,2.47,2.14-1.31-.22-2.48-.36-3.62-.61a1,1,0,0,0-1.23.47c-.14.21-.18.3,0,.48,1.27,1.09,2.54,2.2,3.81,3.31.18.16.28.12.43,0,.52-.55.53-.55,0-1.05ZM101.68,70l0-.11c1-.5,2-1,3-1.5a1.08,1.08,0,0,0,.75-1.08c0-.28,0-.41-.34-.44-1.64-.13-3.28-.27-4.92-.44-.34,0-.36.11-.41.38-.1.49,0,.7.56.72,1,0,2,.16,2.92.25a25.51,25.51,0,0,1-3.09,1.64,1.06,1.06,0,0,0-.72,1.1c0,.28.06.37.34.4,1.62.13,3.25.26,4.86.43.51.05.44-.26.49-.56s0-.52-.42-.54C103.68,70.2,102.68,70.09,101.68,70Zm4.64-19.09V50.8c1.14-.1,2.27-.25,3.4-.28a1.05,1.05,0,0,0,1.07-.77c.11-.27.08-.37-.17-.5-1.49-.74-3-1.5-4.45-2.25-.09,0-.21-.16-.29,0a2.42,2.42,0,0,0-.4.76c0,.24.26.26.42.34.89.47,1.78.92,2.68,1.37a36.47,36.47,0,0,1-3.85.41c-.61,0-.61.55-.78.9s.28.31.46.4c1.36.71,2.74,1.39,4.1,2.11.38.2.5,0,.62-.26s.36-.49-.12-.71C108.11,51.85,107.22,51.36,106.32,50.91Zm47-27.26c-.29,0-.59,0-.87,0s-.35.11-.38.37c0,.47.09.69.58.6a.92.92,0,0,1,.33,0c.14,0,.37-.1.39.15s.11.46-.1.61a1.69,1.69,0,0,1-2.55-.35,2.5,2.5,0,0,1,0-2.36,1.52,1.52,0,0,1,2.48-.24.91.91,0,0,0,1.19.2c.27-.29-.08-.55-.2-.8a1.4,1.4,0,0,0-.41-.43,2.93,2.93,0,0,0-4.09.81,3.43,3.43,0,0,0,.22,3.6,3.14,3.14,0,0,0,3.39.79c1.18-.39,1.24-.48,1.26-1.7S154.56,23.68,153.32,23.65ZM118.78,38.46a3.56,3.56,0,0,0,3.13-2.73.4.4,0,0,0-.11-.4c-.37-.44-.75-.88-1.11-1.33-.14-.18-.26-.21-.44,0-.47.42-1,.82-1.45,1.23-.08.06-.16.12-.12.26a.56.56,0,0,0,.95.31,1.57,1.57,0,0,1,.24-.21c.14-.07.23-.36.44-.16s.38.31.3.64a1.67,1.67,0,0,1-2.76.92,3.14,3.14,0,0,1-.81-1,1.42,1.42,0,0,1,.17-1.63,1.35,1.35,0,0,1,1.58-.52c.12,0,.24.13.34,0s.58-.47.52-.77-.48-.35-.78-.4a1.89,1.89,0,0,0-.75,0,3,3,0,0,0-2.34,3A3.32,3.32,0,0,0,118.78,38.46Zm2.17-7a3.34,3.34,0,0,0,2.43,3.11A3.53,3.53,0,0,0,127,32.25a.4.4,0,0,0-.06-.4c-.31-.49-.62-1-.92-1.47-.1-.16-.17-.26-.37-.12-.55.36-1.1.69-1.65,1-.09.05-.19.1-.16.25a.56.56,0,0,0,.9.42,3.37,3.37,0,0,1,.32-.19c.13-.07.26-.28.41-.08s.31.34.22.63a1.67,1.67,0,0,1-2.72.74,3.09,3.09,0,0,1-.85-1.38,1.41,1.41,0,0,1,.46-1.52,1.34,1.34,0,0,1,1.55-.29,1,1,0,0,0,1-.51c.11-.35-.25-.39-.44-.5C123.18,28.05,120.94,29.59,121,31.42Zm-17.48,47a4.5,4.5,0,0,0-1.47.32,2.17,2.17,0,0,0-1.47,2.57c.1.67.24,1.32.33,2,0,.28.14.37.42.32,1.64-.3,3.27-.59,4.91-.87.26,0,.32-.14.27-.39-.14-.66-.23-1.32-.36-2C105.82,79.05,105,78.42,103.47,78.42Zm93.24-12.6a4.67,4.67,0,0,0,1.63-.37A2.16,2.16,0,0,0,199.75,63c-.11-.7-.28-1.38-.39-2.07-.05-.33-.17-.38-.46-.32l-4.84.94c-.24.05-.34.11-.27.38.15.69.25,1.39.42,2.07A2.23,2.23,0,0,0,196.71,65.82Zm.36,10.31h0a2.93,2.93,0,0,1,0,.59c-.08.39.11.45.44.47s.54,0,.54-.43c0-.61.11-1.22.1-1.84,0-.47.17-.54.6-.52s.73.22.65.77-.07,1.3-.14,2c0,.36.12.43.42.42s.54.1.56-.35c.05-1.12.13-2.24.22-3.36,0-.33,0-.47-.41-.5-1.61-.09-3.22-.2-4.82-.33-.31,0-.41.06-.42.37-.07,1.16-.16,2.31-.25,3.47,0,.29,0,.5.36.47s.61.14.63-.38c0-.78.09-1.56.14-2.33,0-.14,0-.35.16-.36a10.3,10.3,0,0,1,1.24.06c.2,0,.13.23.12.36C197.15,75.15,197.1,75.64,197.07,76.13ZM106,53.9c-.13-.26-.44-.23-.66-.34s-.27.1-.32.25c-.24.68-.48,1.36-.71,2-.07.24-.17.33-.42.2a2.83,2.83,0,0,0-.41-.14c-.35-.08-.46-.23-.31-.6.28-.69.47-1.41.74-2.1.14-.33,0-.42-.28-.47s-.48-.33-.63.14c-.36,1.12-.76,2.22-1.16,3.33-.08.24,0,.35.21.43,1.56.53,3.11,1.06,4.66,1.61.29.1.42.05.52-.25.36-1.1.72-2.2,1.13-3.28.14-.39,0-.48-.33-.6s-.5,0-.61.32c-.23.74-.51,1.47-.75,2.2-.08.25-.18.3-.43.23-1.16-.31-1.16-.3-.76-1.45Zm70-22,.27.18c.55.38,1.1.76,1.64,1.16.27.2.42.22.63-.1s.31-.47-.08-.72c-.57-.34-1.1-.76-1.66-1.13-.22-.15-.3-.28-.1-.5a1.8,1.8,0,0,0,.28-.4c.16-.31.33-.3.59-.1.61.46,1.26.86,1.86,1.32.34.27.43,0,.56-.19s.41-.34,0-.6c-1-.65-1.94-1.32-2.89-2-.25-.18-.35-.14-.5.08q-1.41,2-2.84,4c-.15.22-.18.34.08.51,1,.68,2,1.37,3,2.09.37.26.42-.07.56-.23s.35-.37,0-.6-1-.67-1.48-1c-.84-.6-.84-.6-.22-1.45C175.84,32.16,175.89,32,176.06,31.93ZM196.23,91.8c0-.24-.21-.25-.34-.32l-4-2c-.75-.36-.74-.36-1.06.4-.11.24-.09.35.16.45.53.24,1,.52,1.56.75.27.13.35.25.19.53-.23.43-.45.87-.64,1.32-.12.28-.24.33-.51.18-.49-.27-1-.46-1.5-.75s-.51.23-.67.44-.24.43.14.6c1.36.63,2.7,1.31,4.05,2,.73.35.72.34,1-.41.11-.24.08-.34-.16-.45-.46-.21-.9-.45-1.37-.65-.25-.12-.31-.24-.18-.5.24-.44.47-.9.67-1.36.12-.27.25-.29.49-.15a9.53,9.53,0,0,0,1.12.53c.2.08.4.44.63.08A5.93,5.93,0,0,0,196.23,91.8Zm-3-32.6,4.33-3.88c.39-.35,0-.65-.08-1s-.22-.36-.5-.36c-1.41,0-2.82-.07-4.23-.1h-1.45c.11.31.22.58.3.85s.21.29.44.29c1.07,0,1.07,0,1.42,1a5.48,5.48,0,0,0,.22.61c.2.34.07.54-.2.77-.68.58-.67.59-.37,1.4Zm1.44,7.54c0,.35,0,.62,0,.88s.09.4.32.42c.88.09,1.15.61,1,1.43a2,2,0,0,0,0,.59c.09.44-.09.64-.51.79-.84.3-.82.33-.72,1.21,0,.23,0,.34.31.22,1.69-.75,3.38-1.48,5-2.24.46-.21.14-.64.21-1a.36.36,0,0,0-.28-.45C198.34,68,196.55,67.39,194.69,66.74Zm-89.49,6.1c0-.88,0-.88-.8-.52l-.2.09-4.19,2c-.27.12-.43.27-.34.57s-.19.74.28.89c1.76.56,3.52,1.1,5.28,1.64.09,0,.2.11.28,0a1.18,1.18,0,0,0-.47-1.2c-.91-.28-.91-.28-1-1.25,0-.1,0-.21,0-.32,0-.94-.06-.95.8-1.34C105.12,73.27,105.28,73.12,105.2,72.84Zm32.39-44.55a7.11,7.11,0,0,1,.82-.17c.28,0,.38-.16.43-.44.16-1,.18-1,1.21-1.23a2.29,2.29,0,0,0,.59-.12.58.58,0,0,1,.85.37.81.81,0,0,0,1.13.54c.47-.14.48-.24.22-.6-.89-1.3-1.78-2.59-2.61-3.92-.34-.54-.66-.76-1.3-.51-.28.11-.41.2-.44.49s-.12.75-.18,1.13C138.07,25.29,137.84,26.75,137.59,28.29ZM155,26.74c.32.18.66.12,1,.23s.28-.07.33-.2c.29-.95.94-1,1.75-.74h.1c.91.16.91.16,1.09,1.05,0,.18,0,.43.26.48s.71.25.94.13,0-.51-.06-.79a2.41,2.41,0,0,0-.07-.37c-.31-1.45-.62-2.9-.91-4.36-.06-.29-.2-.47-.49-.45s-.66-.35-.93.09Zm33.84,21.92c1.05-1.66,2.06-3.28,3.09-4.9.28-.44-.17-.59-.3-.87a.46.46,0,0,0-.6-.29c-1.73.48-3.46.93-5.18,1.38-.11,0-.24,0-.26.15-.07.28.68.9,1,.83,1-.26,1-.26,1.57.57l.16.22c.55.75.55.75,0,1.54-.1.17-.31.32-.1.57S188.64,48.37,188.85,48.66ZM129.2,31.58a2.58,2.58,0,0,0,1.12-.29c1.53-.7,1.85-1.55,1.13-3.08-.42-.91-.88-1.81-1.31-2.73-.14-.3-.28-.45-.58-.21s-.8.12-.46.74c.53,1,1,2,1.46,3a.83.83,0,0,1-.35,1.21,1.06,1.06,0,0,1-1.7-.46c-.49-1-1-1.93-1.43-2.91-.13-.26-.24-.33-.49-.18a3.07,3.07,0,0,1-.48.24c-.16.07-.22.16-.13.34.63,1.19,1.11,2.47,1.86,3.6A1.53,1.53,0,0,0,129.2,31.58Zm64.06,51.66c-.12.35-.2.62-.31.89a.32.32,0,0,0,.17.45c.87.4.87,1,.48,1.74a1,1,0,0,0,0,.16c-.37,1.06-.12.89-1.24,1-.18,0-.41-.07-.49.21s-.2.63-.31,1l5.77-.37c.53,0,.39-.53.55-.81a.39.39,0,0,0-.09-.57C196.26,85.69,194.79,84.49,193.26,83.24ZM111.19,48.89a7.34,7.34,0,0,1,.43-.65.47.47,0,0,0,0-.7c-.6-.75-.59-.77-.06-1.58l.18-.27c.52-.8.52-.8,1.44-.61.19,0,.39.18.53-.07a4.08,4.08,0,0,0,.52-.89l-1-.21c-1.51-.3-3-.58-4.52-.9-.53-.12-.56.33-.78.58a.46.46,0,0,0,0,.67C109,45.77,110,47.3,111.19,48.89Zm-4.48,34.35c-1.5,1.3-3,2.55-4.42,3.83-.37.33.07.66.1,1s.16.32.41.33l5.36.21c.11,0,.26.08.33-.09s-.38-1.05-.7-1.06c-1,0-1,0-1.31-1l-.09-.26c-.31-.91-.31-.92.42-1.52.25-.21.33-.39.18-.69A6.07,6.07,0,0,1,106.71,83.24Zm-4.09-25a1.48,1.48,0,0,0-1.53,1c-.29.78-.42,1.61-.66,2.4-.1.34,0,.43.32.5l4.31,1.07c.83.21.81.21,1-.61.06-.28,0-.34-.27-.39-.46-.1-.91-.25-1.37-.34-.28-.06-.35-.18-.27-.45s.18-.7.24-1.06A1.71,1.71,0,0,0,102.62,58.28Zm82.86-15.39a1.19,1.19,0,0,0,.48-.08c.19-.1.63,0,.51-.43-.17-.68-.33-.81-.83-.67a1.11,1.11,0,0,1-1.3-.4,1.18,1.18,0,0,1-.12-1.42,3.48,3.48,0,0,1,1.55-1.39,1.25,1.25,0,0,1,1.42.2,1.2,1.2,0,0,1,.39,1.28.79.79,0,0,0,.63.94c.41.08.39-.35.45-.58a2.22,2.22,0,0,0-.78-2.33,2.31,2.31,0,0,0-2.51-.56,3.64,3.64,0,0,0-2.12,1.84A2.55,2.55,0,0,0,185.48,42.89ZM133.72,29.61l.11,0,3.27-1.14c.42-.15.07-.42.05-.62s-.07-.4-.38-.28c-.63.24-1.28.41-1.89.67-.42.17-.59.08-.72-.34-.35-1.11-.78-2.18-1.1-3.29-.16-.57-.41-.63-.86-.38a.68.68,0,0,1-.2.07c-.23,0-.23.16-.17.35.56,1.59,1.1,3.17,1.65,4.76C133.52,29.51,133.54,29.64,133.72,29.61Z"/><path class="cls-1" d="M108.1,90.69a.58.58,0,0,1,.5.28c.27.47.51,1,.76,1.44a.2.2,0,0,1-.12.3l0,0c-1,.64-1.08.61-1.55-.44a3.88,3.88,0,0,1-.28-.71A.72.72,0,0,1,108.1,90.69Z"/><path class="cls-1" d="M105.34,92.64a.62.62,0,0,1,.4-.66.56.56,0,0,1,.69.16,7,7,0,0,1,.74,1.38c.08.17,0,.21-.16.28-.84.54-.91.52-1.34-.39Z"/><path class="cls-1" d="M171.82,31.12a11.27,11.27,0,0,1-1.69-.74c-.1-.05-.09-.14,0-.23a1.63,1.63,0,0,1,.09-.19c.2-.31.22-.76.58-.93a4.23,4.23,0,0,1,1.76,1.07A.75.75,0,0,1,171.82,31.12Z"/><path class="cls-1" d="M173.4,28.25a.61.61,0,0,1-.81.55c-.43-.16-.85-.39-1.28-.58-.15-.07-.19-.15-.13-.33.3-.94.41-1,1.28-.55.21.1.42.21.62.33A.57.57,0,0,1,173.4,28.25Z"/><path class="cls-1" d="M196.93,81.78c.1-.47.22-.94.32-1.42,0-.19.11-.25.29-.18a.38.38,0,0,1,.1,0c.33.15,1,0,1,.36a2.78,2.78,0,0,1-.54,1.83.58.58,0,0,1-.75,0A.63.63,0,0,1,196.93,81.78Z"/><path class="cls-1" d="M192.53,51.28l-.12,0,0-.13Z"/><path class="cls-1" d="M192.55,48.67h.13l-.06.1Z"/><polygon class="cls-1" points="112.79 40.53 112.8 40.56 112.77 40.55 112.79 40.53"/><path class="cls-1" d="M103.71,79.59c1,0,1.29.24,1.49,1.19s.19.92-.73,1.09-1.6.27-2.4.43c-.31.07-.4,0-.46-.32-.29-1.61,0-2.11,1.67-2.35C103.46,79.6,103.64,79.6,103.71,79.59Z"/><path class="cls-1" d="M196.52,64.65c-1,0-1.24-.24-1.45-1.19s-.19-.89.68-1.07,1.59-.3,2.38-.47c.29-.07.43-.06.51.3.32,1.61,0,2.1-1.61,2.37Z"/><path class="cls-1" d="M194.13,55h2.16l-1.45,1.24c-.17.14-.24.09-.3-.1C194.41,55.81,194.28,55.44,194.13,55Z"/><path class="cls-1" d="M197.1,70.19c-.31-1.55-.31-1.55,1.08-1.11l.89.29Z"/><path class="cls-1" d="M103,74.25c0,.43.07.81.11,1.18,0,.2,0,.33-.26.25L101,75.15c.42-.2.72-.35,1-.48Z"/><path class="cls-1" d="M139.49,23.59l1.07,1.68c0,.05-.06.1-.08.1-.43.07-1,.41-1.27.18s.06-.8.11-1.22A1.35,1.35,0,0,1,139.49,23.59Z"/><path class="cls-1" d="M157.38,24.93l1.1-1.91c.13.72.24,1.32.35,1.91,0,.21-.05.25-.24.22Z"/><path class="cls-1" d="M189.42,45.64l-.9-1.23,2.12-.61Z"/><path class="cls-1" d="M196.48,87.22c-.72,0-1.3,0-1.88.09-.21,0-.32,0-.22-.27a1,1,0,0,1,0-.1c.31-1.09.31-1.09,1.2-.4Z"/><path class="cls-1" d="M110.42,46l-1.32-1.75,1.92.42c.24,0,.16.16.07.3C110.88,45.25,110.66,45.58,110.42,46Z"/><path class="cls-1" d="M103.72,87.24,105.28,86l.48,1.4h-2Z"/><path class="cls-1" d="M103.38,60.36v0c-.1,1.15-.55,1.4-1.6.89-.1,0-.21-.09-.17-.23a4,4,0,0,1,.4-1.27.68.68,0,0,1,.85-.28A.73.73,0,0,1,103.38,60.36Z"/><path class="cls-2" d="M132.09,113.16a5.19,5.19,0,0,1-1.3,2.85,1.18,1.18,0,0,1-1.19.34,3.3,3.3,0,0,1-1.63-.68c-.48-.51.21-1,.39-1.52.34-1,.81-1.89,1.21-2.84.1-.25.19-.35.46-.2s.83.36,1.23.58A1.42,1.42,0,0,1,132.09,113.16Z"/><path class="cls-2" d="M180.87,104.05l2.56,1.19-1.53,1.46-1.09-2.59Z"/><path class="cls-2" d="M180.81,104.11V104l.05.07Z"/><path class="cls-1" d="M150,83.3H119.06c-.34,0-.38-.09-.19-.37.72-1.06,1.42-2.13,2.14-3.19l5.85-8.67q4.21-6.24,8.44-12.49L141.13,50l8.5-12.63c.37-.54.37-.54.74,0Q154.2,43,158,48.67l8.52,12.62,9.07,13.43,5.43,8c.09.14.31.28.21.46s-.34.07-.51.07Z"/><path class="cls-3" d="M150,110.23a39.1,39.1,0,1,1,39.07-39.09A39.09,39.09,0,0,1,150,110.23Zm33.82-25.66c-.12-.2-.2-.35-.3-.5l-6.47-9.58L153.89,40.2c-1.19-1.77-2.4-3.53-3.57-5.31-.29-.43-.43-.35-.64,0s-.34.51-.51.77L117.83,82.06c-.55.81-1.09,1.63-1.67,2.51Zm-24.36,7,.4-.18a1.73,1.73,0,0,0,.34-3.07,3.41,3.41,0,0,0-2.1-.59c-1.78,0-3.55,0-5.33,0-.42,0-.5.14-.49.52q0,3.62,0,7.22c0,.37.07.5.47.5,1.59,0,3.18,0,4.78,0a8.27,8.27,0,0,0,2.31-.29,2.14,2.14,0,0,0,1.58-2,1.87,1.87,0,0,0-1.49-1.94Zm-28.16,0,.21-.12a1.71,1.71,0,0,0,1.24-1.72,1.84,1.84,0,0,0-1.29-1.71,3.91,3.91,0,0,0-1.59-.29c-1.75,0-3.51,0-5.27,0-.36,0-.5.07-.5.47,0,2.43,0,4.85,0,7.28,0,.35.1.47.46.46h4.94a7,7,0,0,0,2.2-.29A2.13,2.13,0,0,0,133.2,94a1.82,1.82,0,0,0-.67-1.79A4.35,4.35,0,0,0,131.3,91.6Zm35.51.23c0,1.23,0,2.46,0,3.69,0,.35.07.47.45.47,1.41,0,2.82,0,4.23,0a4.81,4.81,0,0,0,3.2-1c1.29-1.12,1.35-2.58,1.11-4.09a3.44,3.44,0,0,0-3.16-3,7.85,7.85,0,0,0-1.08-.08c-1.43,0-2.86,0-4.29,0-.41,0-.47.14-.47.5C166.82,89.44,166.81,90.64,166.81,91.83Zm-28.24,0c0,1.23,0,2.46,0,3.69,0,.36.09.48.45.47.73,0,1.45,0,2.17,0,.38,0,.46-.14.44-.48,0-.59,0-1.19,0-1.79,0-.88-.12-.77.77-.77a8.38,8.38,0,0,0,3-.33A2.41,2.41,0,0,0,147,90.17,2.27,2.27,0,0,0,145.19,88a4.61,4.61,0,0,0-1.33-.2c-1.61,0-3.22,0-4.83,0-.41,0-.48.15-.47.5C138.58,89.45,138.57,90.64,138.57,91.83Z"/><path class="cls-3" d="M156.59,92.54a4.43,4.43,0,0,1,1.13.08c.35.11.64.29.65.7a.75.75,0,0,1-.61.79,3.94,3.94,0,0,1-2.15.07c-.56-.15-.15-.87-.24-1.32-.06-.28.12-.33.36-.32Z"/><path class="cls-3" d="M156.37,91c-1,0-1,0-1-.93,0-.58.18-.72.7-.65s.83,0,1.24.06a.71.71,0,0,1,.71.74c0,.41-.27.63-.67.72A4.61,4.61,0,0,1,156.37,91Z"/><path class="cls-3" d="M128.4,92.54a4.29,4.29,0,0,1,1.15.09.75.75,0,0,1,.62.73.72.72,0,0,1-.55.72,7.39,7.39,0,0,1-2.25.15c-.13,0-.19-.08-.19-.21,0-.41,0-.83,0-1.24,0-.2.11-.24.28-.24Z"/><path class="cls-3" d="M128.23,89.41a3.68,3.68,0,0,1,1,.09.72.72,0,0,1,0,1.39,3.32,3.32,0,0,1-1.87,0c-.5-.15-.12-.81-.21-1.24-.06-.25.12-.3.33-.29S127.94,89.41,128.23,89.41Z"/><path class="cls-3" d="M169.87,91.85c0-.61,0-1.23,0-1.84,0-.31.1-.4.41-.41,2-.06,2.6.53,2.56,2.55,0,1.16-.4,1.76-1.24,1.88-.44.07-.9.06-1.35.1-.28,0-.41-.09-.37-.38v-1.9Z"/><path class="cls-3" d="M141.62,90.31c0-.92,0-.92.92-.88a3.51,3.51,0,0,1,.8.11.82.82,0,0,1,.64.78.79.79,0,0,1-.59.81,4.26,4.26,0,0,1-1.55.13c-.2,0-.22-.14-.22-.3Z"/><path class="cls-4" d="M182.88,94.67a43.78,43.78,0,0,1-5.51,6.19A39.83,39.83,0,0,1,156.5,111a40.34,40.34,0,0,1-39.25-16.2c-.14-.19-.29-.37-.43-.55l-10.66,8a12,12,0,0,0,1.1,1.54c10.19,12.89,23.47,20,39.86,21a51.08,51.08,0,0,0,18.5-2.22,53.49,53.49,0,0,0,24.74-15.91,33.72,33.72,0,0,0,3.19-4Z"/><path class="cls-5" d="M150,126.12a55,55,0,1,1,55-54.83A55,55,0,0,1,150,126.12Zm43.57-23.43a1.2,1.2,0,0,0,.22-.23A53.69,53.69,0,0,0,203.6,66.2a52,52,0,0,0-2.19-11.05,53.91,53.91,0,0,0-48.83-37.77,52.38,52.38,0,0,0-17.81,2.13A53.87,53.87,0,0,0,96.84,62.7a53.47,53.47,0,0,0,.08,17.4,52.87,52.87,0,0,0,5.48,16.17,42.2,42.2,0,0,0,3.76,6,12,12,0,0,0,1.1,1.54c10.19,12.89,23.47,20,39.86,21a51.08,51.08,0,0,0,18.5-2.22,53.49,53.49,0,0,0,24.74-15.91A33.72,33.72,0,0,0,193.55,102.69Z"/><path class="cls-5" d="M182.88,94.67a43.78,43.78,0,0,1-5.51,6.19A39.83,39.83,0,0,1,156.5,111a40.34,40.34,0,0,1-39.25-16.2c-.14-.19-.29-.37-.43-.55A50.88,50.88,0,0,1,113.75,89a40.46,40.46,0,0,1,4.85-43.3,39.37,39.37,0,0,1,25-14.48,38.88,38.88,0,0,1,25.2,4.16,39.35,39.35,0,0,1,20.58,26.89,39.39,39.39,0,0,1-3.87,28.09A48.59,48.59,0,0,1,182.88,94.67ZM150,110.23a39.1,39.1,0,1,0-39.07-39.1A39.09,39.09,0,0,0,150,110.23Z"/><path class="cls-5" d="M183.82,84.57H116.16c.58-.88,1.12-1.7,1.67-2.51l31.34-46.38c.17-.26.36-.51.51-.77s.35-.45.64,0c1.17,1.78,2.38,3.54,3.57,5.31l23.16,34.29,6.47,9.58C183.62,84.22,183.7,84.37,183.82,84.57ZM150,83.3h30.75c.17,0,.41.1.51-.07s-.12-.32-.21-.46l-5.43-8-9.07-13.43L158,48.67q-3.81-5.66-7.63-11.32c-.37-.55-.37-.55-.74,0L141.13,50l-5.83,8.61q-4.23,6.24-8.44,12.49L121,79.74c-.72,1.06-1.42,2.13-2.14,3.19-.19.28-.15.38.19.37H150Z"/><path class="cls-5" d="M159.46,91.6l.47.16a1.87,1.87,0,0,1,1.49,1.94,2.14,2.14,0,0,1-1.58,2,8.27,8.27,0,0,1-2.31.29c-1.6,0-3.19,0-4.78,0-.4,0-.47-.13-.47-.5q0-3.6,0-7.22c0-.38.07-.53.49-.52,1.78,0,3.55,0,5.33,0a3.41,3.41,0,0,1,2.1.59,1.73,1.73,0,0,1-.34,3.07Zm-2.87.94h-.86c-.24,0-.42,0-.36.32.09.45-.32,1.17.24,1.32a3.94,3.94,0,0,0,2.15-.07.75.75,0,0,0,.61-.79c0-.41-.3-.59-.65-.7A4.43,4.43,0,0,0,156.59,92.54ZM156.37,91a4.61,4.61,0,0,0,.95-.06c.4-.09.67-.31.67-.72a.71.71,0,0,0-.71-.74c-.41,0-.83,0-1.24-.06s-.73.07-.7.65C155.4,91,155.36,91,156.37,91Z"/><path class="cls-5" d="M131.3,91.6a4.35,4.35,0,0,1,1.23.56A1.82,1.82,0,0,1,133.2,94a2.13,2.13,0,0,1-1.5,1.71,7,7,0,0,1-2.2.29h-4.94c-.36,0-.46-.11-.46-.46,0-2.43,0-4.85,0-7.28,0-.4.14-.47.5-.47,1.76,0,3.52,0,5.27,0a3.91,3.91,0,0,1,1.59.29,1.84,1.84,0,0,1,1.29,1.71,1.71,1.71,0,0,1-1.24,1.72Zm-2.9.94h-1c-.17,0-.28,0-.28.24,0,.41,0,.83,0,1.24,0,.13.06.21.19.21a7.39,7.39,0,0,0,2.25-.15.72.72,0,0,0,.55-.72.75.75,0,0,0-.62-.73A4.29,4.29,0,0,0,128.4,92.54Zm-.17-3.13c-.29,0-.51,0-.72,0s-.39,0-.33.29c.09.43-.29,1.09.21,1.24a3.32,3.32,0,0,0,1.87,0,.72.72,0,0,0,0-1.39A3.68,3.68,0,0,0,128.23,89.41Z"/><path class="cls-5" d="M166.81,91.83c0-1.19,0-2.39,0-3.58,0-.36.06-.51.47-.5,1.43,0,2.86,0,4.29,0a7.85,7.85,0,0,1,1.08.08,3.44,3.44,0,0,1,3.16,3c.24,1.51.18,3-1.11,4.09a4.81,4.81,0,0,1-3.2,1c-1.41,0-2.82,0-4.23,0-.38,0-.46-.12-.45-.47C166.82,94.29,166.81,93.06,166.81,91.83Zm3.06,0v1.9c0,.29.09.4.37.38.45,0,.91,0,1.35-.1.84-.12,1.22-.72,1.24-1.88,0-2-.57-2.61-2.56-2.55-.31,0-.42.1-.41.41C169.88,90.62,169.87,91.24,169.87,91.85Z"/><path class="cls-5" d="M138.57,91.83c0-1.19,0-2.38,0-3.58,0-.35.06-.51.47-.5,1.61,0,3.22,0,4.83,0a4.61,4.61,0,0,1,1.33.2A2.27,2.27,0,0,1,147,90.17a2.41,2.41,0,0,1-1.61,2.45,8.38,8.38,0,0,1-3,.33c-.89,0-.76-.11-.77.77,0,.6,0,1.2,0,1.79,0,.34-.06.49-.44.48-.72,0-1.44,0-2.17,0-.36,0-.46-.11-.45-.47C138.58,94.29,138.57,93.06,138.57,91.83Zm3.05-1.52V91c0,.16,0,.3.22.3a4.26,4.26,0,0,0,1.55-.13.79.79,0,0,0,.59-.81.82.82,0,0,0-.64-.78,3.51,3.51,0,0,0-.8-.11C141.62,89.39,141.62,89.39,141.62,90.31Z"/><path class="cls-5" d="M114.36,107.26l-1.09-1.06.49-2.75a.35.35,0,0,1,0-.12s0-.12.07-.19v0L112,105l-.87-.85,3.78-3.86.87.85-1.75,1.79h0l.13,0,.19-.06,2.61-.53,1,1-3.11.52Z"/><path class="cls-5" d="M116.25,108.92a2.5,2.5,0,0,1-1-1.78,2.68,2.68,0,0,1,.68-2,2.89,2.89,0,0,1,1.88-1.14,2.59,2.59,0,0,1,2,.63,2.45,2.45,0,0,1,1,1.77,2.76,2.76,0,0,1-.71,2,2.84,2.84,0,0,1-1.87,1.13A2.56,2.56,0,0,1,116.25,108.92Zm.68-.8a1.21,1.21,0,0,0,1.06.28,1.94,1.94,0,0,0,1.09-.75,2.07,2.07,0,0,0,.54-1.24,1.14,1.14,0,0,0-.46-1,1.22,1.22,0,0,0-1.09-.27,2.33,2.33,0,0,0-1.61,2A1.22,1.22,0,0,0,116.93,108.12Z"/><path class="cls-5" d="M124.43,109.26l-1.28-.87-2.47,3.67-1-.68,2.46-3.67-1.27-.85.55-.83,3.57,2.4Z"/><path class="cls-5" d="M121.53,112.68l4.35-3.77,1.26.7-1,5.66-1.16-.64.23-1.16-1.71-1-.86.81Zm2.71-.87,1.24.69.39-1.93c0-.08,0-.14,0-.2a1,1,0,0,1,.06-.19l0,0-.13.15a1.85,1.85,0,0,1-.14.14Z"/><path class="cls-5" d="M133.61,113.55l-1.44-.57-1.61,4.11-1.14-.44,1.62-4.11-1.43-.57.36-.92,4,1.57Z"/><path class="cls-5" d="M131.52,117.51,135,112.9l1.38.42.29,5.73-1.27-.38,0-1.19-1.88-.56-.67,1Zm2.46-1.43,1.35.41,0-2v-.2s0-.12,0-.2h0a1.31,1.31,0,0,1-.09.17l-.11.16Z"/><path class="cls-5" d="M142,120.1l-1.2-.23-1.56-3.76-.11-.29-.07-.2h0c0,.09,0,.21,0,.36s-.05.31-.09.5l-.55,2.92-1.13-.22,1-5.31,1.29.25,1.49,3.63.1.25a2.25,2.25,0,0,1,.08.24h0a1.91,1.91,0,0,1,0-.28c0-.12,0-.27.08-.45l.56-2.94,1.13.21Z"/><path class="cls-5" d="M145.57,118.7a1.86,1.86,0,0,1-.64,1.33,1.9,1.9,0,0,1-1.42.31,2.68,2.68,0,0,1-1-.33l.47-.88a2.26,2.26,0,0,0,.26.14,1.07,1.07,0,0,0,.27.06.69.69,0,0,0,.57-.14,1,1,0,0,0,.26-.63l.42-3.61,1.21.13Z"/><path class="cls-5" d="M150.9,118.4a2.59,2.59,0,0,1-.63,1.8,2.24,2.24,0,0,1-1.73.55,2.17,2.17,0,0,1-1.63-.65,2.59,2.59,0,0,1-.48-1.82l.11-3.11,1.22,0-.11,3.13a1.55,1.55,0,0,0,.22,1,.9.9,0,0,0,.76.36.89.89,0,0,0,.76-.29,1.52,1.52,0,0,0,.29-.94l.11-3.18,1.22,0Z"/><path class="cls-5" d="M156.84,120.32l-1.22.1-2.5-3.2-.19-.25-.12-.18h0c0,.09,0,.21,0,.35s0,.32.05.51l.24,3-1.14.09-.45-5.39,1.31-.11,2.41,3.11.16.21.15.21h0c0-.07,0-.16,0-.28s0-.28-.05-.46l-.24-3,1.14-.1Z"/><path class="cls-5" d="M162.33,118.88a3.24,3.24,0,0,1-.78.53,4.46,4.46,0,0,1-1.05.34,2.93,2.93,0,0,1-2.14-.27,2.54,2.54,0,0,1-1.14-1.85,2.89,2.89,0,0,1,.36-2.17,2.84,2.84,0,0,1,1.95-1.22,5.39,5.39,0,0,1,.95-.1,4.56,4.56,0,0,1,.94.1l-.19,1a4.17,4.17,0,0,0-.75-.08,4,4,0,0,0-.75.08,1.58,1.58,0,0,0-1.09.68,1.84,1.84,0,0,0-.17,1.41,1.73,1.73,0,0,0,.68,1.21,1.6,1.6,0,0,0,1.21.2,2.9,2.9,0,0,0,.38-.11,1.36,1.36,0,0,0,.27-.14l-.2-1-1.06.2-.19-1,2.26-.44Z"/><path class="cls-5" d="M164,117l.5,1.7-1.17.35-1.53-5.19,1.83-.54a2.36,2.36,0,0,1,1.6,0,1.67,1.67,0,0,1,.86,1.13,1.69,1.69,0,0,1-.18,1.46,2.32,2.32,0,0,1-1.36.94Zm-.77-2.59.51,1.71.46-.14a1,1,0,0,0,.63-.42.86.86,0,0,0,0-.71.83.83,0,0,0-.42-.57,1.09,1.09,0,0,0-.76,0Z"/><path class="cls-5" d="M168.85,117.25l-1.15.42-1.83-5.09,1.14-.41Z"/><path class="cls-5" d="M174.32,114.91l-1.12.51-3.42-2.19-.26-.17-.18-.13h0a3,3,0,0,1,.17.32l.22.47,1.22,2.71-1.05.47L167.67,112l1.2-.53,3.3,2.12.22.14.21.15h0a1.17,1.17,0,0,1-.14-.24c-.06-.11-.12-.25-.2-.42l-1.22-2.73,1.05-.47Z"/><path class="cls-5" d="M174.89,114.64l-1-5.66,1.25-.74,4.39,3.7-1.14.67-.89-.79-1.69,1L176,114Zm.63-2.78,1.22-.72-1.47-1.31-.14-.14-.13-.16h0l.07.19c0,.06,0,.12,0,.19Z"/><path class="cls-5" d="M183.93,108.66l-1,.74-3.82-1.4-.29-.11-.19-.09h0a2.59,2.59,0,0,1,.24.28l.31.4,1.77,2.39-.92.69-3.23-4.34,1.06-.79,3.68,1.36.25.1.23.1h0l-.19-.21-.28-.37-1.79-2.4.93-.69Z"/><path class="cls-5" d="M187.83,104.57a3.43,3.43,0,0,1-.39.86,4.17,4.17,0,0,1-.71.84,3,3,0,0,1-2,.89,2.59,2.59,0,0,1-2-1,2.88,2.88,0,0,1-.82-2,2.76,2.76,0,0,1,1-2.06,4.38,4.38,0,0,1,.76-.58,4.49,4.49,0,0,1,.85-.42l.36,1a4.78,4.78,0,0,0-.68.33,4.1,4.1,0,0,0-.59.46,1.59,1.59,0,0,0-.58,1.15,1.86,1.86,0,0,0,.6,1.29A1.74,1.74,0,0,0,185,106a1.6,1.6,0,0,0,1.13-.47,2.26,2.26,0,0,0,.26-.29,1.34,1.34,0,0,0,.17-.27l-.73-.78-.79.74-.66-.72L186,102.6Z"/></svg>