<svg id="Layer_1" data-name="Layer 1" xmlns="http://www.w3.org/2000/svg" viewBox="0 0 180 180"><defs><style>.cls-1{fill:#4b4b4b;}.cls-2{fill:gray;}.cls-3{fill:#c4c6c7;}</style></defs><path class="cls-1" d="M107.74,162.82h.86v-3.3h-.85a.27.27,0,0,1-.19-.08.25.25,0,0,1-.09-.2.27.27,0,0,1,.09-.2.27.27,0,0,1,.19-.08h1.41v3.86h.55v-1.17a.31.31,0,0,1,.28-.28.28.28,0,0,1,.2.08.26.26,0,0,1,.08.2v1.44a.27.27,0,0,1-.28.28h-2.25a.26.26,0,0,1-.2-.08.3.3,0,0,1-.08-.2.27.27,0,0,1,.28-.27Z"/><path class="cls-1" d="M135.47,163.37h-2.54v-1.92a.54.54,0,0,1,.16-.4.56.56,0,0,1,.4-.17h1.69v-1.36h-2a.27.27,0,0,1-.28-.28.3.3,0,0,1,.08-.2.28.28,0,0,1,.2-.08h2a.54.54,0,0,1,.4.17.54.54,0,0,1,.17.39v1.36a.58.58,0,0,1-.57.57h-1.69v1.37h2a.26.26,0,0,1,.2.08.27.27,0,0,1,.08.19.28.28,0,0,1-.08.2A.26.26,0,0,1,135.47,163.37Z"/><path class="cls-1" d="M161.21,159.52v1a.81.81,0,0,1-.23.59.85.85,0,0,1,.23.57v1.09a.53.53,0,0,1-.16.39.57.57,0,0,1-.4.16h-2a.26.26,0,0,1-.2-.08.28.28,0,0,1-.08-.2.27.27,0,0,1,.08-.19.26.26,0,0,1,.2-.08h2v-1.09a.32.32,0,0,0-.08-.21.3.3,0,0,0-.2-.08h-1.12a.28.28,0,0,1-.2-.08.24.24,0,0,1-.08-.2.26.26,0,0,1,.08-.2.28.28,0,0,1,.2-.08h1.13a.27.27,0,0,0,.19-.08.27.27,0,0,0,.09-.2v-1.08h-2a.3.3,0,0,1-.2-.08.28.28,0,0,1-.08-.2.27.27,0,0,1,.28-.28h2a.58.58,0,0,1,.56.56Z"/><path class="cls-1" d="M109.31,144.45v-1.16h-1.69V140.6a.27.27,0,0,1,.09-.2.25.25,0,0,1,.2-.09.28.28,0,0,1,.2.09.3.3,0,0,1,.08.2v2.13h1.12v-1.64a.24.24,0,0,1,.08-.2.25.25,0,0,1,.2-.09.25.25,0,0,1,.19.09.24.24,0,0,1,.08.2v1.64a.24.24,0,0,1,.2.08.24.24,0,0,1,.08.19.27.27,0,0,1-.28.28v1.17a.24.24,0,0,1-.08.2.24.24,0,0,1-.19.08.27.27,0,0,1-.28-.28Z"/><path class="cls-1" d="M134,144.18h1.29v-1.37h-1.69v-2.49h2a.3.3,0,0,1,.2.08.32.32,0,0,1,.08.2.27.27,0,0,1-.28.28h-1.4v1.37h1.12a.53.53,0,0,1,.39.16.54.54,0,0,1,.17.4v1.37a.54.54,0,0,1-.17.39.51.51,0,0,1-.39.16H134a.85.85,0,0,1-.37-.08l-.42-.17a.26.26,0,0,1-.17-.27.29.29,0,0,1,.07-.2.27.27,0,0,1,.19-.08.54.54,0,0,1,.19,0l.37.16A.37.37,0,0,0,134,144.18Z"/><path class="cls-1" d="M158.68,140.32H159a.27.27,0,0,1,.28.28.3.3,0,0,1-.08.2.32.32,0,0,1-.2.08v1.85h2a.24.24,0,0,1,.19.08.27.27,0,0,1,.09.2v1.44a.25.25,0,0,1-.09.2.26.26,0,0,1-.2.08h-2.24a.24.24,0,0,1-.2-.08.25.25,0,0,1-.09-.2V140.6a.27.27,0,0,1,.09-.2A.28.28,0,0,1,158.68,140.32Zm.27,3v.89h1.69v-.89Z"/><path class="cls-1" d="M107.47,122.21V122a.24.24,0,0,1,.08-.2.28.28,0,0,1,.2-.08h2.53v1.71a.28.28,0,0,1-.1.23l-1,.88v1.3a.3.3,0,0,1-.08.2.27.27,0,0,1-.4,0,.25.25,0,0,1-.09-.19v-1.41a.34.34,0,0,1,.1-.25l1-.87v-1H108a.29.29,0,0,1-.48.16A.27.27,0,0,1,107.47,122.21Z"/><path class="cls-1" d="M132.92,125.53v-1.36a.54.54,0,0,1,.16-.4.55.55,0,0,1,.4-.16V122a.3.3,0,0,1,.08-.2.28.28,0,0,1,.2-.08h1.14a.27.27,0,0,1,.28.28v1.65a.53.53,0,0,1,.39.16.54.54,0,0,1,.17.4v1.37a.58.58,0,0,1-.56.56h-1.7a.52.52,0,0,1-.4-.18A.53.53,0,0,1,132.92,125.53Zm.56-1.36v1.37h1.7v-1.37Zm.56-1.93v1.37h.58v-1.37Z"/><path class="cls-1" d="M88.4,77.83V178.4H180V77.83Zm31.09,89.38H98.21V154.83h21.28Zm0-18.64H98.21V136.19h21.28Zm0-18.64H98.21V117.55h21.28ZM145,167.21H123.66V154.83H145Zm0-18.64H123.66V136.19H145Zm0-18.64H123.66V117.55H145Zm25.45,37.28H149.12V154.83H170.4Zm0-18.64H149.12V136.19H170.4Zm0-18.64H149.12V117.55H170.4Zm0-22.89H98.21V87.6H170.4Z"/><path class="cls-1" d="M160.93,126.09h-.28a.27.27,0,0,1-.28-.28.26.26,0,0,1,.08-.2.28.28,0,0,1,.2-.08v-1.85h-2a.26.26,0,0,1-.2-.08.28.28,0,0,1-.08-.2V122a.27.27,0,0,1,.08-.19.26.26,0,0,1,.2-.08h2.25a.24.24,0,0,1,.19.08.25.25,0,0,1,.09.19v3.86a.27.27,0,0,1-.09.2A.27.27,0,0,1,160.93,126.09Zm-.28-3v-.88H159v.88Z"/><path class="cls-1" d="M159.89,102.05v-9a1.47,1.47,0,0,1,1.44-1.44H166a1.33,1.33,0,0,1,1,.43,1.35,1.35,0,0,1,.43,1v9A1.47,1.47,0,0,1,166,103.5h-4.65a1.36,1.36,0,0,1-1-.43A1.39,1.39,0,0,1,159.89,102.05Zm6.06,0V93.17h-4.56V102Z"/><polygon class="cls-1" points="15.27 150.44 15.27 10.23 0 10.23 0 164.28 15.27 164.28 77.62 164.28 77.62 150.44 15.27 150.44"/><polygon class="cls-2" points="92.47 66.88 109.71 66.88 109.71 54.72 92.47 66.88"/><polygon class="cls-2" points="45.35 70.51 28.66 84.1 28.66 138.83 50.91 138.83 50.91 74.96 45.35 70.51"/><polygon class="cls-2" points="65.02 86.24 58.53 81.05 58.53 138.83 80.78 138.83 80.78 75.12 65.02 86.24"/><polygon class="cls-2" points="117.32 49.35 117.32 66.88 139.58 66.88 139.58 33.79 139.22 33.9 117.32 49.35"/><polygon class="cls-3" points="132.73 6.87 137.16 9.61 65.42 60.22 45.29 44.12 28.66 57.66 28.66 70.04 45.34 56.45 65.06 72.22 142.7 17.46 143.8 22.55 156.85 1.6 132.73 6.87"/></svg>