<svg id="Layer_1" data-name="Layer 1" xmlns="http://www.w3.org/2000/svg" viewBox="0 0 300 180"><defs><style>.cls-1{fill:#282528;}.cls-2{fill:#2c2c64;}.cls-3{fill:#e69e1c;}</style></defs><path d="M43.48,133.74v-9.1h2.6a2.91,2.91,0,0,1,1.87.56,1.88,1.88,0,0,1,.68,1.52,2.16,2.16,0,0,1-1.57,2.16v0a2.38,2.38,0,0,1,1.47.7,2.13,2.13,0,0,1,.56,1.53,2.4,2.4,0,0,1-.84,1.89,3.15,3.15,0,0,1-2.12.72Zm1.07-8.14v2.94h1.09a2.11,2.11,0,0,0,1.38-.42,1.48,1.48,0,0,0,.5-1.19,1.19,1.19,0,0,0-.44-1,2.15,2.15,0,0,0-1.3-.33Zm0,3.9v3.28H46a2.14,2.14,0,0,0,1.46-.45,1.5,1.5,0,0,0,.52-1.22,1.43,1.43,0,0,0-.55-1.21,2.87,2.87,0,0,0-1.65-.4Z"/><path d="M49.88,133.74l3.49-9.1h1.1l3.51,9.1H56.8l-.92-2.44h-4l-.87,2.44Zm2.41-3.4h3.24l-1.47-4a1.48,1.48,0,0,1-.08-.25q0-.15-.06-.36h0a3.09,3.09,0,0,1-.07.35,1.34,1.34,0,0,1-.08.26Z"/><path d="M59.32,133.74v-9.1h2.51a5.17,5.17,0,0,1,3.61,1.11,4.29,4.29,0,0,1,1.2,3.33,4.46,4.46,0,0,1-1.33,3.38,5,5,0,0,1-3.58,1.28Zm1.06-8.14v7.18h1.36a3.86,3.86,0,0,0,2.79-1,3.62,3.62,0,0,0,1-2.72,3.42,3.42,0,0,0-.93-2.62,3.91,3.91,0,0,0-2.79-.88Z"/><path d="M67.06,133.74l3.49-9.1h1.11l3.5,9.1H74l-.92-2.44H69.12l-.87,2.44Zm2.41-3.4h3.24l-1.47-4a1,1,0,0,1-.07-.25c0-.1,0-.22-.07-.36h0c0,.13,0,.24-.06.35s-.05.19-.08.26Z"/><path d="M83.84,133.74H82.53l-4.68-7.25c-.06-.1-.12-.19-.17-.29s-.09-.19-.13-.29h0a4,4,0,0,1,0,.46c0,.21,0,.47,0,.79v6.58H76.5v-9.1h1.38l4.56,7.14.24.37.13.24h0a3.29,3.29,0,0,1,0-.53c0-.23,0-.5,0-.81v-6.41h1.07Z"/><path d="M91.68,130.76v3H89.63v-9.1h3.22a3.91,3.91,0,0,1,2.58.74,2.81,2.81,0,0,1,.86,2.24,2.87,2.87,0,0,1-1,2.27,3.86,3.86,0,0,1-2.64.87Zm0-4.55v3h.81a1.76,1.76,0,0,0,1.23-.37,1.5,1.5,0,0,0,.41-1.14,1.44,1.44,0,0,0-.41-1.11,1.81,1.81,0,0,0-1.23-.37Z"/><path d="M103.08,133.74H97.62v-9.1h5.25v1.67h-3.2v2h3V130h-3v2.08h3.41Z"/><path d="M112.73,133.74h-2.07L106.91,128c-.11-.17-.21-.31-.28-.44a2.92,2.92,0,0,1-.18-.31h0c0,.16,0,.36,0,.61s0,.53,0,.86v5h-1.93v-9.1h2.21l3.61,5.54.24.37.22.37h0a3.73,3.73,0,0,1,0-.47c0-.21,0-.47,0-.78v-5h1.94Z"/><path d="M122.28,133.06a5.46,5.46,0,0,1-1.47.61,6.67,6.67,0,0,1-1.84.23,5,5,0,0,1-3.45-1.14,4.36,4.36,0,0,1-1.28-3.42,4.85,4.85,0,0,1,1.3-3.47,4.75,4.75,0,0,1,3.62-1.38,8,8,0,0,1,1.59.14,7.6,7.6,0,0,1,1.53.47l-.64,1.58a7,7,0,0,0-1.22-.37,7.12,7.12,0,0,0-1.26-.11,2.68,2.68,0,0,0-2,.76,3.13,3.13,0,0,0-.75,2.28,3,3,0,0,0,.74,2.23,2.7,2.7,0,0,0,1.93.71,4.23,4.23,0,0,0,.66-.05,2.06,2.06,0,0,0,.51-.15v-1.79h-1.82v-1.63h3.87Z"/><path d="M129.51,133.74h-5.46v-9.1h5.25v1.67h-3.2v2h3V130h-3v2.08h3.41Z"/><path d="M136.39,133.74H131v-9.1H133v7.44h3.37Z"/><path d="M141.14,133.9a4.24,4.24,0,0,1-3.19-1.27,4.59,4.59,0,0,1-1.23-3.32,4.91,4.91,0,0,1,1.25-3.49,4.33,4.33,0,0,1,3.31-1.33,4.14,4.14,0,0,1,3.16,1.27,4.71,4.71,0,0,1,1.2,3.37,4.83,4.83,0,0,1-1.25,3.46A4.29,4.29,0,0,1,141.14,133.9Zm0-1.77a2.07,2.07,0,0,0,1.68-.77,3.28,3.28,0,0,0,.62-2.12,3.55,3.55,0,0,0-.6-2.2,2,2,0,0,0-1.65-.79,2.08,2.08,0,0,0-1.72.81,3.38,3.38,0,0,0-.63,2.14,3.33,3.33,0,0,0,.63,2.14A2,2,0,0,0,141.18,132.13Z"/><path d="M152.57,133.74h-5.42v-9.1h2v7.44h3.37Z"/><path d="M153.1,133.74l3.32-9.1h2.43l3.24,9.1h-2.24l-.61-1.9h-3.31l-.6,1.9Zm3.28-3.5h2.38l-1-3.16-.1-.32c0-.09,0-.2-.06-.34h0l-.06.33-.1.31Z"/><path d="M162.24,133.74l3.32-9.1H168l3.24,9.1H169l-.61-1.9h-3.3l-.61,1.9Zm3.28-3.5h2.38l-1-3.16a3.29,3.29,0,0,1-.09-.32,1.39,1.39,0,0,1-.06-.34h-.06q0,.18-.06.33c0,.09-.06.19-.09.31Z"/><path d="M180.55,133.74h-2.07L174.73,128l-.28-.44c-.08-.12-.13-.23-.18-.31h0c0,.16,0,.36,0,.61s0,.53,0,.86v5h-1.94v-9.1h2.21l3.61,5.54.24.37.22.37h0a3.73,3.73,0,0,1,0-.47c0-.21,0-.47,0-.78v-5h1.94Z"/><path d="M193.76,133.74H191.2l-2.66-3.88-.1-.18-.14-.32h0v4.38h-2.05v-9.1h2.05v4.22h0l.1-.22c0-.08.1-.18.16-.29l2.51-3.71h2.38l-3.13,4.29Z"/><path d="M200.11,133.74h-5.45v-9.1h5.25v1.67h-3.2v2h3V130h-3v2.08h3.4Z"/><path d="M209,129.8a4.33,4.33,0,0,1-1,3.07,3.72,3.72,0,0,1-2.87,1,3.61,3.61,0,0,1-2.78-1,4.35,4.35,0,0,1-.92-3v-5.24h2.05v5.28a2.65,2.65,0,0,0,.44,1.66,1.79,1.79,0,0,0,2.56,0,2.57,2.57,0,0,0,.42-1.6v-5.36H209Z"/><path d="M209.71,133.74l3.32-9.1h2.43l3.23,9.1h-2.23l-.62-1.9h-3.3l-.61,1.9Zm3.28-3.5h2.38l-1-3.16-.1-.32c0-.09,0-.2-.06-.34h-.05q0,.18-.06.33l-.1.31Z"/><path d="M228,133.74H226L222.2,128c-.11-.17-.21-.31-.28-.44a2.92,2.92,0,0,1-.18-.31h0c0,.16,0,.36,0,.61s0,.53,0,.86v5h-1.94v-9.1H222l3.61,5.54.24.37.22.37h0a4.22,4.22,0,0,1,0-.47c0-.21,0-.47,0-.78v-5H228Z"/><path d="M237.57,133.06a5.46,5.46,0,0,1-1.47.61,6.62,6.62,0,0,1-1.84.23,5,5,0,0,1-3.45-1.14,4.36,4.36,0,0,1-1.28-3.42,4.85,4.85,0,0,1,1.3-3.47,4.75,4.75,0,0,1,3.62-1.38,8,8,0,0,1,1.59.14,7.6,7.6,0,0,1,1.53.47l-.64,1.58a7,7,0,0,0-1.22-.37,7.12,7.12,0,0,0-1.26-.11,2.69,2.69,0,0,0-2,.76,3.13,3.13,0,0,0-.74,2.28,3,3,0,0,0,.74,2.23,2.66,2.66,0,0,0,1.92.71,4.23,4.23,0,0,0,.66-.05,2.06,2.06,0,0,0,.51-.15v-1.79H233.7v-1.63h3.87Z"/><path d="M238.37,133.74l3.31-9.1h2.43l3.24,9.1h-2.24l-.61-1.9h-3.3l-.61,1.9Zm3.27-3.5H244l-1-3.16a3.29,3.29,0,0,1-.09-.32,1.39,1.39,0,0,1-.06-.34h-.05c0,.12,0,.23-.07.33s-.06.19-.09.31Z"/><path d="M256.67,133.74H254.6L250.85,128l-.28-.44-.18-.31h0c0,.16,0,.36,0,.61s0,.53,0,.86v5h-1.94v-9.1h2.21l3.61,5.54c.09.12.16.25.24.37l.22.37h0a3.73,3.73,0,0,1,0-.47c0-.21,0-.47,0-.78v-5h1.93Z"/><path d="M91,149.34v-9.1h3.22a5.23,5.23,0,0,1,3.64,1.11,4.25,4.25,0,0,1,1.21,3.32,4.5,4.5,0,0,1-1.32,3.4,4.87,4.87,0,0,1-3.53,1.27Zm2-7.43v5.77h1a2.74,2.74,0,0,0,2.09-.8,3,3,0,0,0,.76-2.18,2.76,2.76,0,0,0-.75-2,2.88,2.88,0,0,0-2.11-.74Z"/><path d="M99.41,149.34l3.31-9.1h2.43l3.24,9.1h-2.23l-.62-1.9h-3.3l-.61,1.9Zm3.27-3.5h2.38l-1-3.16a3.29,3.29,0,0,1-.09-.32c0-.09,0-.2-.06-.34h0c0,.12,0,.23-.07.33a3.19,3.19,0,0,1-.09.31Z"/><path d="M117.72,149.34h-2.07l-3.76-5.72-.28-.44-.17-.31h0c0,.16,0,.36,0,.61s0,.53,0,.86v5h-1.93v-9.1h2.21l3.61,5.54.24.37c.07.13.15.25.21.37h0a3.73,3.73,0,0,1,0-.47c0-.21,0-.47,0-.78v-5h1.94Z"/><path d="M122.41,149.34l3.31-9.1h2.43l3.24,9.1h-2.24l-.61-1.9h-3.3l-.61,1.9Zm3.27-3.5h2.38l-1-3.16a3.29,3.29,0,0,1-.09-.32,1.39,1.39,0,0,1-.06-.34h0c0,.12,0,.23-.07.33s-.06.19-.09.31Z"/><path d="M131.78,148.74l.85-1.6a5.22,5.22,0,0,0,1.19.55,3.74,3.74,0,0,0,1.07.15,1.68,1.68,0,0,0,1.08-.29.93.93,0,0,0,.35-.77.91.91,0,0,0-.28-.72,2.47,2.47,0,0,0-1-.42,4.8,4.8,0,0,1-2.21-1,2.33,2.33,0,0,1-.7-1.79,2.52,2.52,0,0,1,.9-2,3.61,3.61,0,0,1,2.51-.81,5.73,5.73,0,0,1,2.55.59l-.77,1.62a4.07,4.07,0,0,0-1-.42,3.1,3.1,0,0,0-.86-.13,1.66,1.66,0,0,0-1,.24.79.79,0,0,0-.34.69.73.73,0,0,0,.31.64,3.6,3.6,0,0,0,1.13.4,4.36,4.36,0,0,1,2.14,1,2.54,2.54,0,0,1,.66,1.87,2.67,2.67,0,0,1-.91,2.1,3.92,3.92,0,0,1-2.65.8,6.91,6.91,0,0,1-1.58-.2A5.48,5.48,0,0,1,131.78,148.74Z"/><path d="M145.27,149.34h-5.46v-9.1h5.25v1.67h-3.2v2h3v1.67h-3v2.08h3.41Z"/><path d="M153.23,141.91h-2.6v7.43h-2v-7.43H146v-1.67h7.24Z"/><path d="M158.05,149.34v-9.1h3.22a5.23,5.23,0,0,1,3.64,1.11,4.25,4.25,0,0,1,1.21,3.32,4.5,4.5,0,0,1-1.32,3.4,4.87,4.87,0,0,1-3.53,1.27Zm2-7.43v5.77h1a2.78,2.78,0,0,0,2.1-.8,3.07,3.07,0,0,0,.75-2.18,2.76,2.76,0,0,0-.75-2,2.88,2.88,0,0,0-2.11-.74Z"/><path d="M166.46,149.34l3.31-9.1h2.43l3.24,9.1h-2.23l-.62-1.9h-3.3l-.61,1.9Zm3.27-3.5h2.38l-1-3.16a3.29,3.29,0,0,1-.09-.32c0-.09,0-.2-.06-.34h-.05c0,.12,0,.23-.07.33a3.19,3.19,0,0,1-.09.31Z"/><path d="M182,149.34h-5.46v-9.1h5.25v1.67h-3.2v2h3v1.67h-3v2.08H182Z"/><path d="M190.89,149.34h-2.32l-1.21-2.24a3.23,3.23,0,0,0-.59-.83,1.1,1.1,0,0,0-.67-.31h-.55v3.38H183.5v-9.1h3.25a4,4,0,0,1,2.48.64,2.32,2.32,0,0,1,.83,1.94,2.43,2.43,0,0,1-.53,1.56,3.16,3.16,0,0,1-1.46,1v0a1.71,1.71,0,0,1,.75.54,4.64,4.64,0,0,1,.6.84Zm-5.34-7.57v2.64h.88a1.43,1.43,0,0,0,1.07-.4,1.34,1.34,0,0,0,.4-1,1.21,1.21,0,0,0-.35-.94,1.66,1.66,0,0,0-1.08-.31Z"/><path d="M191,149.34l3.32-9.1h2.43l3.24,9.1h-2.24l-.61-1.9h-3.3l-.61,1.9Zm3.28-3.5h2.38l-1-3.16-.1-.32a2.27,2.27,0,0,1-.05-.34h-.06q0,.18-.06.33c0,.09-.06.19-.09.31Z"/><path d="M209,149.34h-2.06v-3.71h-3.77v3.71h-2v-9.1h2v3.63h3.77v-3.63H209Z"/><path d="M104.25,162.66h-1.78l-1.85-2.7-.07-.13-.1-.22h0v3H99v-6.34h1.43v2.94h0l.07-.15.11-.2,1.75-2.59H104l-2.17,3Z"/><path d="M107.29,162.77a3,3,0,0,1-2.22-.89,3.18,3.18,0,0,1-.85-2.31,3.45,3.45,0,0,1,.86-2.43,3,3,0,0,1,2.31-.92,2.88,2.88,0,0,1,2.19.88,3.3,3.3,0,0,1,.84,2.35,3.34,3.34,0,0,1-.87,2.4A3,3,0,0,1,107.29,162.77Zm0-1.24a1.39,1.39,0,0,0,1.17-.53,2.27,2.27,0,0,0,.44-1.48,2.48,2.48,0,0,0-.42-1.53,1.38,1.38,0,0,0-1.15-.55,1.42,1.42,0,0,0-1.19.57,2.74,2.74,0,0,0,0,3A1.41,1.41,0,0,0,107.31,161.53Z"/><path d="M115.55,157.48h-1.81v5.18h-1.43v-5.18h-1.79v-1.16h5Z"/><path d="M115.1,162.66l2.3-6.34h1.69l2.25,6.34h-1.55l-.43-1.33h-2.3l-.42,1.33Zm2.27-2.44H119l-.7-2.2c0-.09,0-.16-.06-.22a1.19,1.19,0,0,1,0-.24h0a1.32,1.32,0,0,1,0,.23,1,1,0,0,1-.06.21Z"/><path d="M129.07,157.48h-1.8v5.18h-1.43v-5.18H124v-1.16h5Z"/><path d="M128.62,162.66l2.3-6.34h1.69l2.26,6.34h-1.56l-.43-1.33h-2.29l-.43,1.33Zm2.28-2.44h1.65l-.7-2.2a2.18,2.18,0,0,0-.06-.22,1.19,1.19,0,0,1,0-.24h0c0,.09,0,.16,0,.23s0,.14-.07.21Z"/><path d="M141.35,162.66h-1.44l-2.61-4-.19-.31-.12-.22h0c0,.11,0,.25,0,.43s0,.37,0,.6v3.48h-1.34v-6.34h1.53l2.52,3.86.16.26a1.65,1.65,0,0,1,.15.25h0a2.33,2.33,0,0,1,0-.32c0-.15,0-.33,0-.55v-3.5h1.34Z"/><path d="M145.45,160.58a2.15,2.15,0,0,1-.57,1.63,2.22,2.22,0,0,1-1.62.55,3,3,0,0,1-.59-.06,3.18,3.18,0,0,1-.62-.2l.44-1.08a1.59,1.59,0,0,0,.32.12,1,1,0,0,0,.32.05.81.81,0,0,0,.65-.24,1.13,1.13,0,0,0,.21-.77l0-4.26h1.42Z"/><path d="M152,159.91a3,3,0,0,1-.66,2.14,2.6,2.6,0,0,1-2,.72,2.52,2.52,0,0,1-1.93-.7,3,3,0,0,1-.65-2.1v-3.65h1.43V160a1.86,1.86,0,0,0,.3,1.15,1.07,1.07,0,0,0,.91.38,1.05,1.05,0,0,0,.88-.37,1.75,1.75,0,0,0,.29-1.11v-3.73H152Z"/><path d="M159.06,162.66h-1.43l-2.61-4c-.08-.12-.15-.22-.2-.31l-.12-.22h0c0,.11,0,.25,0,.43s0,.37,0,.6v3.48h-1.35v-6.34h1.53l2.52,3.86.16.26c.06.08.11.17.16.25h0a2.33,2.33,0,0,1,0-.32c0-.15,0-.33,0-.55v-3.5h1.34Z"/><path d="M165.71,162.18a4,4,0,0,1-1,.43,5.15,5.15,0,0,1-1.28.16,3.48,3.48,0,0,1-2.4-.8,3,3,0,0,1-.89-2.38,3.38,3.38,0,0,1,.9-2.41,3.32,3.32,0,0,1,2.52-1,5.52,5.52,0,0,1,1.11.1,5.28,5.28,0,0,1,1.06.32l-.44,1.1a5.33,5.33,0,0,0-.85-.25,4.88,4.88,0,0,0-.88-.08,1.91,1.91,0,0,0-1.41.53,2.21,2.21,0,0,0-.51,1.58,2.07,2.07,0,0,0,.51,1.55,1.85,1.85,0,0,0,1.34.5,2.13,2.13,0,0,0,.46,0,1.11,1.11,0,0,0,.35-.1v-1.24H163v-1.14h2.69Z"/><path d="M168.37,160.58v2.08h-1.43v-6.34h2.24a2.64,2.64,0,0,1,1.79.52,1.93,1.93,0,0,1,.6,1.55,2,2,0,0,1-.69,1.59,2.67,2.67,0,0,1-1.83.6Zm0-3.16v2.08h.56a1.22,1.22,0,0,0,.85-.26,1,1,0,0,0,.29-.79,1,1,0,0,0-.29-.78,1.22,1.22,0,0,0-.85-.25Z"/><path d="M173.92,162.66H172.5v-6.34h1.42Z"/><path d="M181.06,162.66h-1.44l-2.61-4c-.08-.12-.14-.22-.19-.31a2,2,0,0,1-.13-.22h0c0,.11,0,.25,0,.43s0,.37,0,.6v3.48h-1.35v-6.34h1.54l2.51,3.86c.06.08.11.17.17.26l.15.25h0c0-.07,0-.18,0-.32s0-.33,0-.55v-3.5h1.35Z"/><path d="M181.83,162.66l2.31-6.34h1.69l2.25,6.34h-1.56l-.42-1.33h-2.3l-.42,1.33Zm2.28-2.44h1.65l-.69-2.2-.07-.22c0-.06,0-.14,0-.24h0c0,.09,0,.16-.05.23s0,.14-.07.21Z"/><path d="M194.56,162.66h-1.43l-2.61-4c-.08-.12-.15-.22-.2-.31l-.12-.22h0c0,.11,0,.25,0,.43s0,.37,0,.6v3.48h-1.35v-6.34h1.53l2.52,3.86.16.26c.06.08.11.17.16.25h0a2.33,2.33,0,0,1,0-.32c0-.15,0-.33,0-.55v-3.5h1.34Z"/><path d="M201.21,162.18a4,4,0,0,1-1,.43,5.15,5.15,0,0,1-1.28.16,3.48,3.48,0,0,1-2.4-.8,3,3,0,0,1-.89-2.38,3.38,3.38,0,0,1,.9-2.41,3.32,3.32,0,0,1,2.52-1,5.52,5.52,0,0,1,1.11.1,5.28,5.28,0,0,1,1.06.32l-.44,1.1a5.33,5.33,0,0,0-.85-.25,4.88,4.88,0,0,0-.88-.08,1.91,1.91,0,0,0-1.41.53,2.21,2.21,0,0,0-.51,1.58,2.07,2.07,0,0,0,.51,1.55,1.85,1.85,0,0,0,1.34.5,2.13,2.13,0,0,0,.46,0,1.11,1.11,0,0,0,.35-.1v-1.24h-1.26v-1.14h2.69Z"/><path class="cls-1" d="M160.26,105.8h.49v-1.91h-.49a.13.13,0,0,1-.11,0,.15.15,0,0,1,0-.22.13.13,0,0,1,.11-.05h.82v2.23h.32v-.68a.13.13,0,0,1,0-.11.16.16,0,0,1,.11-.05.14.14,0,0,1,.11.05.13.13,0,0,1,.05.11V106a.13.13,0,0,1-.05.11.14.14,0,0,1-.11.05h-1.3a.17.17,0,0,1-.12-.05.16.16,0,0,1,0-.12.15.15,0,0,1,0-.11A.16.16,0,0,1,160.26,105.8Z"/><path class="cls-1" d="M176.29,106.12h-1.47V105a.33.33,0,0,1,.1-.24.31.31,0,0,1,.22-.09h1v-.79H175a.12.12,0,0,1-.11,0,.15.15,0,0,1,0-.22.12.12,0,0,1,.11-.05h1.15a.36.36,0,0,1,.24.09.33.33,0,0,1,.09.23v.79a.32.32,0,0,1-.09.23.37.37,0,0,1-.24.1h-1v.79h1.15a.15.15,0,0,1,.11,0,.15.15,0,0,1,0,.12.13.13,0,0,1,0,.11A.16.16,0,0,1,176.29,106.12Z"/><path class="cls-1" d="M191.17,103.89v.61a.45.45,0,0,1-.13.34.48.48,0,0,1,.13.33v.63a.31.31,0,0,1-.32.32H189.7a.17.17,0,0,1-.16-.16.18.18,0,0,1,.05-.12.15.15,0,0,1,.11,0h1.14v-.63a.16.16,0,0,0,0-.12.18.18,0,0,0-.12,0H190a.15.15,0,0,1-.11,0,.18.18,0,0,1,0-.12.16.16,0,0,1,0-.11.13.13,0,0,1,.11,0h.65a.17.17,0,0,0,.12-.05.16.16,0,0,0,0-.11v-.63h-1.16a.13.13,0,0,1-.11,0,.15.15,0,0,1,0-.22.13.13,0,0,1,.11-.05h1.16a.31.31,0,0,1,.32.32Z"/><path class="cls-1" d="M161.16,95.18v-.67h-1V93a.16.16,0,0,1,.05-.11.13.13,0,0,1,.11,0,.13.13,0,0,1,.12,0,.16.16,0,0,1,.05.11v1.23h.64v-.94a.17.17,0,0,1,.05-.12.16.16,0,0,1,.11-.05.17.17,0,0,1,.17.17v.94a.17.17,0,0,1,.16.16.17.17,0,0,1-.05.12.15.15,0,0,1-.11,0v.68a.18.18,0,0,1-.05.12.16.16,0,0,1-.12,0,.15.15,0,0,1-.11,0A.18.18,0,0,1,161.16,95.18Z"/><path class="cls-1" d="M175.42,95h.74v-.79h-1V92.79h1.13a.17.17,0,0,1,.12,0,.16.16,0,0,1,.05.11.17.17,0,0,1-.05.12.16.16,0,0,1-.12,0h-.81v.79h.65a.34.34,0,0,1,.33.33V95a.34.34,0,0,1-.1.23.32.32,0,0,1-.23.09h-.74a.47.47,0,0,1-.22,0l-.24-.1a.14.14,0,0,1-.1-.15.17.17,0,0,1,0-.12.15.15,0,0,1,.11,0l.11,0,.22.09Z"/><path class="cls-1" d="M189.71,92.79h.16a.16.16,0,0,1,.11,0A.13.13,0,0,1,190,93a.13.13,0,0,1-.05.12.15.15,0,0,1-.11,0v1.07H191a.16.16,0,0,1,.11,0,.17.17,0,0,1,0,.12v.83a.18.18,0,0,1,0,.12.16.16,0,0,1-.12,0h-1.29a.13.13,0,0,1-.12,0,.16.16,0,0,1-.05-.11V93a.16.16,0,0,1,.05-.11A.17.17,0,0,1,189.71,92.79Zm.16,1.72V95h1v-.51Z"/><path class="cls-1" d="M160.1,82.32v-.14a.17.17,0,0,1,.16-.16h1.47v1a.16.16,0,0,1-.06.13l-.6.51v.75a.15.15,0,0,1,0,.12.14.14,0,0,1-.11,0,.21.21,0,0,1-.12,0,.16.16,0,0,1,0-.12v-.81a.16.16,0,0,1,.05-.14l.6-.51v-.6h-1a.15.15,0,0,1-.16.14.16.16,0,0,1-.11,0A.13.13,0,0,1,160.1,82.32Z"/><path class="cls-1" d="M174.81,84.24v-.79a.34.34,0,0,1,.1-.23.32.32,0,0,1,.23-.09v-.95a.17.17,0,0,1,.05-.12.16.16,0,0,1,.11,0H176a.16.16,0,0,1,.11,0,.13.13,0,0,1,.05.12v.95a.33.33,0,0,1,.23.09.32.32,0,0,1,.09.23v.79a.32.32,0,0,1-.09.23.34.34,0,0,1-.23.1h-1a.33.33,0,0,1-.23-.1A.37.37,0,0,1,174.81,84.24Zm.33-.79v.79h1v-.79Zm.32-1.11v.79h.34v-.79Z"/><path class="cls-1" d="M149.08,56.66v58.15h53V56.66Zm18,51.68h-12.3v-7.16h12.3Zm0-10.78h-12.3V90.4h12.3Zm0-10.78h-12.3V79.62h12.3Zm14.72,21.56H169.46v-7.16h12.31Zm0-10.78H169.46V90.4h12.31Zm0-10.78H169.46V79.62h12.31Zm14.72,21.56H184.18v-7.16h12.31Zm0-10.78H184.18V90.4h12.31Zm0-10.78H184.18V79.62h12.31Zm0-13.23H154.75V62.31h41.74Z"/><path class="cls-1" d="M191,84.56h-.16a.13.13,0,0,1-.12,0,.14.14,0,0,1,0-.11.16.16,0,0,1,0-.11.13.13,0,0,1,.12-.05V83.17h-1.14a.15.15,0,0,1-.12,0,.15.15,0,0,1,0-.11v-.84a.15.15,0,0,1,0-.11.18.18,0,0,1,.12,0H191a.17.17,0,0,1,.16.16V84.4a.14.14,0,0,1,0,.11A.13.13,0,0,1,191,84.56Zm-.16-1.71v-.51h-1v.51Z"/><path class="cls-1" d="M190.41,70.66V65.49a.84.84,0,0,1,.83-.83h2.7a.78.78,0,0,1,.58.24.79.79,0,0,1,.25.59v5.17a.85.85,0,0,1-.84.84h-2.69a.78.78,0,0,1-.59-.25A.81.81,0,0,1,190.41,70.66Zm3.5,0v-5.1h-2.63v5.1Z"/><polygon class="cls-1" points="106.79 98.64 106.79 17.57 97.96 17.57 97.96 106.65 106.79 106.65 142.84 106.65 142.84 98.64 106.79 98.64"/><polygon class="cls-2" points="151.43 50.33 161.39 50.33 161.39 43.3 151.43 50.33"/><polygon class="cls-2" points="124.18 52.43 114.53 60.29 114.53 91.93 127.4 91.93 127.4 55 124.18 52.43"/><polygon class="cls-2" points="135.56 61.52 131.8 58.52 131.8 91.93 144.67 91.93 144.67 55.09 135.56 61.52"/><polygon class="cls-2" points="165.8 40.19 165.8 50.33 178.67 50.33 178.67 31.2 178.46 31.26 165.8 40.19"/><polygon class="cls-3" points="174.71 15.63 177.27 17.22 135.79 46.48 124.15 37.17 114.53 45 114.53 52.16 124.18 44.3 135.58 53.41 180.47 21.75 181.1 24.7 188.65 12.58 174.71 15.63"/></svg>