<svg id="Layer_1" data-name="Layer 1" xmlns="http://www.w3.org/2000/svg" viewBox="0 0 300 180"><defs><style>.cls-1{fill:gray;}.cls-2{fill:#4b4b4b;}</style></defs><path class="cls-1" d="M59.83,133.74v-9.1h2.6a2.91,2.91,0,0,1,1.87.56,1.85,1.85,0,0,1,.69,1.52,2.23,2.23,0,0,1-.42,1.35,2.27,2.27,0,0,1-1.16.81v0a2.35,2.35,0,0,1,1.47.7,2.13,2.13,0,0,1,.56,1.52,2.4,2.4,0,0,1-.84,1.9,3.13,3.13,0,0,1-2.12.72Zm1.07-8.14v2.94H62a2.11,2.11,0,0,0,1.38-.42,1.48,1.48,0,0,0,.5-1.19,1.17,1.17,0,0,0-.44-1,2.15,2.15,0,0,0-1.3-.33Zm0,3.9v3.28h1.45a2.13,2.13,0,0,0,1.45-.45,1.5,1.5,0,0,0,.52-1.22,1.41,1.41,0,0,0-.55-1.21,2.79,2.79,0,0,0-1.65-.4Z"/><path class="cls-1" d="M66.23,133.74l3.49-9.1h1.11l3.5,9.1H73.15l-.92-2.44H68.29l-.87,2.44Zm2.41-3.4h3.24l-1.47-4a1,1,0,0,1-.07-.25c0-.1,0-.22-.07-.36h0c0,.13,0,.24-.06.34a2.3,2.3,0,0,1-.08.27Z"/><path class="cls-1" d="M75.67,133.74v-9.1h2.51a5.15,5.15,0,0,1,3.61,1.11,4.28,4.28,0,0,1,1.2,3.32,4.47,4.47,0,0,1-1.33,3.39,5,5,0,0,1-3.58,1.28Zm1.07-8.14v7.18h1.35a3.84,3.84,0,0,0,2.79-1,3.59,3.59,0,0,0,1-2.72,3.42,3.42,0,0,0-.93-2.62,3.91,3.91,0,0,0-2.79-.88Z"/><path class="cls-1" d="M83.41,133.74l3.49-9.1H88l3.5,9.1H90.33l-.92-2.44H85.47l-.87,2.44Zm2.41-3.4h3.24l-1.47-4a1,1,0,0,1-.07-.25c0-.1,0-.22-.07-.36h0c0,.13,0,.24-.06.34a2.3,2.3,0,0,1-.08.27Z"/><path class="cls-1" d="M100.19,133.74H98.88l-4.68-7.26a1.56,1.56,0,0,1-.16-.28,1.51,1.51,0,0,1-.13-.29h0c0,.1,0,.25,0,.46s0,.47,0,.79v6.58H92.85v-9.1h1.39l4.55,7.14.24.37a1.51,1.51,0,0,1,.13.24h0a5.06,5.06,0,0,1,0-.53c0-.23,0-.5,0-.81v-6.41h1.07Z"/><path class="cls-1" d="M108,130.76v3H106v-9.1h3.21a3.86,3.86,0,0,1,2.58.74,2.8,2.8,0,0,1,.86,2.24,2.88,2.88,0,0,1-1,2.27,3.86,3.86,0,0,1-2.64.87Zm0-4.55v3h.8a1.71,1.71,0,0,0,1.23-.38,1.47,1.47,0,0,0,.41-1.13,1.44,1.44,0,0,0-.41-1.11,1.76,1.76,0,0,0-1.23-.37Z"/><path class="cls-1" d="M119.43,133.74H114v-9.1h5.25v1.67H116v2h3V130h-3v2.08h3.41Z"/><path class="cls-1" d="M129.08,133.74H127L123.26,128c-.11-.17-.21-.31-.28-.44a2.92,2.92,0,0,1-.18-.31h0a4.73,4.73,0,0,1,0,.6c0,.25,0,.54,0,.87v5h-1.94v-9.1h2.21l3.61,5.54.24.37.22.37h0a4.22,4.22,0,0,1,0-.47c0-.21,0-.47,0-.78v-5h1.94Z"/><path class="cls-1" d="M138.63,133.05a5.17,5.17,0,0,1-1.47.62,7.08,7.08,0,0,1-1.84.23,5,5,0,0,1-3.45-1.14,4.36,4.36,0,0,1-1.28-3.43,4.85,4.85,0,0,1,1.3-3.46,4.75,4.75,0,0,1,3.62-1.38,8,8,0,0,1,1.59.14,8.24,8.24,0,0,1,1.53.46l-.64,1.59a7,7,0,0,0-1.22-.37,7.12,7.12,0,0,0-1.26-.11,2.68,2.68,0,0,0-2,.76,3.13,3.13,0,0,0-.74,2.28,3,3,0,0,0,.74,2.23,2.66,2.66,0,0,0,1.92.71,4.23,4.23,0,0,0,.66-.05,2.6,2.6,0,0,0,.51-.15v-1.79h-1.82v-1.64h3.87Z"/><path class="cls-1" d="M145.86,133.74H140.4v-9.1h5.25v1.67h-3.2v2h3V130h-3v2.08h3.41Z"/><path class="cls-1" d="M152.74,133.74h-5.42v-9.1h2.05v7.44h3.37Z"/><path class="cls-1" d="M157.49,133.9a4.29,4.29,0,0,1-3.19-1.27,4.59,4.59,0,0,1-1.23-3.32,4.91,4.91,0,0,1,1.25-3.49,4.34,4.34,0,0,1,3.32-1.33,4.12,4.12,0,0,1,3.15,1.27,4.7,4.7,0,0,1,1.2,3.36,4.76,4.76,0,0,1-1.25,3.46A4.26,4.26,0,0,1,157.49,133.9Zm0-1.77a2,2,0,0,0,1.68-.77,3.23,3.23,0,0,0,.62-2.12,3.55,3.55,0,0,0-.6-2.2,2,2,0,0,0-1.65-.79,2.05,2.05,0,0,0-1.71.81,3.33,3.33,0,0,0-.64,2.14,3.27,3.27,0,0,0,.64,2.14A2,2,0,0,0,157.53,132.13Z"/><path class="cls-1" d="M168.92,133.74H163.5v-9.1h2.05v7.44h3.37Z"/><path class="cls-1" d="M169.46,133.74l3.31-9.1h2.43l3.24,9.1H176.2l-.61-1.9h-3.3l-.61,1.9Zm3.27-3.5h2.38l-1-3.16a3.29,3.29,0,0,1-.09-.32,1.48,1.48,0,0,1-.06-.35h-.05c0,.13,0,.24-.07.34s-.06.19-.09.31Z"/><path class="cls-1" d="M178.6,133.74l3.31-9.1h2.43l3.24,9.1h-2.24l-.61-1.9h-3.3l-.61,1.9Zm3.27-3.5h2.38l-1-3.16a3.29,3.29,0,0,1-.09-.32,1.48,1.48,0,0,1-.06-.35h0c0,.13-.05.24-.07.34a3.19,3.19,0,0,1-.09.31Z"/><path class="cls-1" d="M196.9,133.74h-2.07L191.08,128l-.28-.44-.18-.31h0c0,.16,0,.36,0,.6s0,.54,0,.87v5h-1.94v-9.1h2.21l3.61,5.54c.09.12.16.25.24.37l.22.37h0a3.73,3.73,0,0,1,0-.47c0-.21,0-.47,0-.78v-5h1.93Z"/><path class="cls-1" d="M204.62,130.76v3h-2.05v-9.1h3.21a3.82,3.82,0,0,1,2.58.74,2.77,2.77,0,0,1,.86,2.24,2.91,2.91,0,0,1-1,2.27,3.86,3.86,0,0,1-2.64.87Zm0-4.55v3h.81a1.74,1.74,0,0,0,1.23-.38,1.47,1.47,0,0,0,.41-1.13,1.44,1.44,0,0,0-.41-1.11,1.79,1.79,0,0,0-1.23-.37Z"/><path class="cls-1" d="M208.81,133.74l3.31-9.1h2.44l3.23,9.1h-2.23l-.62-1.9h-3.3l-.61,1.9Zm3.28-3.5h2.38l-1-3.16c0-.12-.07-.23-.09-.32s0-.21-.06-.35h-.05a2.53,2.53,0,0,1-.07.34,3.19,3.19,0,0,1-.09.31Z"/><path class="cls-1" d="M223.23,130.76a3.15,3.15,0,0,1-.82,2.35,3.22,3.22,0,0,1-2.32.78,5.1,5.1,0,0,1-.86-.08,4.76,4.76,0,0,1-.88-.29L219,132a3.57,3.57,0,0,0,.46.18,1.73,1.73,0,0,0,.47.06,1.2,1.2,0,0,0,.93-.33,1.73,1.73,0,0,0,.31-1.11l0-6.12h2Z"/><path class="cls-1" d="M223.85,133.74l3.31-9.1h2.43l3.24,9.1H230.6l-.62-1.9h-3.3l-.61,1.9Zm3.27-3.5h2.38l-1-3.16a3.29,3.29,0,0,1-.09-.32c0-.09,0-.21-.06-.35h0c0,.13-.05.24-.07.34a3.19,3.19,0,0,1-.09.31Z"/><path class="cls-1" d="M241.5,133.74h-2.56l-2.65-3.88a1.3,1.3,0,0,1-.1-.18c0-.09-.09-.19-.14-.32h0v4.38H234v-9.1H236v4.22h0c0-.06.06-.13.1-.22l.15-.29,2.52-3.71h2.38l-3.13,4.29Z"/><path class="cls-1" d="M74.09,149.34v-9.1h3.23a5.3,5.3,0,0,1,3.64,1.1,4.32,4.32,0,0,1,1.21,3.33,4.5,4.5,0,0,1-1.32,3.4,4.88,4.88,0,0,1-3.53,1.27Zm2-7.43v5.77h1a2.74,2.74,0,0,0,2.09-.8A3,3,0,0,0,80,144.7a2.76,2.76,0,0,0-.75-2,2.9,2.9,0,0,0-2.11-.74Z"/><path class="cls-1" d="M82.5,149.34l3.32-9.1h2.43l3.24,9.1H89.25l-.61-1.9h-3.3l-.61,1.9Zm3.28-3.5h2.38l-1-3.16-.1-.32a2.43,2.43,0,0,1,0-.35H87q0,.19-.06.33c0,.1-.06.2-.09.32Z"/><path class="cls-1" d="M100.81,149.34H98.74L95,143.62l-.28-.44-.18-.31h0c0,.16,0,.36,0,.6s0,.54,0,.87v5H92.62v-9.1h2.21l3.61,5.54.24.37.22.37h0a3.73,3.73,0,0,1,0-.47c0-.21,0-.47,0-.78v-5h1.94Z"/><path class="cls-1" d="M113.87,149.34h-2.31l-1.21-2.24a3.49,3.49,0,0,0-.59-.83,1.12,1.12,0,0,0-.68-.31h-.55v3.38h-2v-9.1h3.25a4,4,0,0,1,2.49.64,2.3,2.3,0,0,1,.82,1.93,2.39,2.39,0,0,1-.53,1.57,3.11,3.11,0,0,1-1.46,1v0a1.71,1.71,0,0,1,.76.54,5.89,5.89,0,0,1,.6.84Zm-5.34-7.57v2.64h.89a1.49,1.49,0,0,0,1.07-.4,1.38,1.38,0,0,0,.4-1,1.18,1.18,0,0,0-.36-.94,1.64,1.64,0,0,0-1.07-.31Z"/><path class="cls-1" d="M120.43,149.34H115v-9.1h5.25v1.67H117v2h3v1.66h-3v2.09h3.41Z"/><path class="cls-1" d="M128.39,141.91h-2.6v7.43h-2.06v-7.43h-2.58v-1.67h7.24Z"/><path class="cls-1" d="M137,149.34h-2.32l-1.21-2.24a3.23,3.23,0,0,0-.59-.83,1.1,1.1,0,0,0-.67-.31h-.55v3.38h-2v-9.1h3.25a4,4,0,0,1,2.48.64,2.31,2.31,0,0,1,.83,1.93,2.44,2.44,0,0,1-.53,1.57,3.11,3.11,0,0,1-1.46,1v0a1.71,1.71,0,0,1,.76.54,5.89,5.89,0,0,1,.6.84Zm-5.34-7.57v2.64h.89a1.47,1.47,0,0,0,1.06-.4,1.34,1.34,0,0,0,.4-1,1.21,1.21,0,0,0-.35-.94,1.66,1.66,0,0,0-1.08-.31Z"/><path class="cls-1" d="M140.15,149.34H138.1v-9.1h2.05Z"/><path class="cls-1" d="M142.22,149.34v-9.1h3.32a4.09,4.09,0,0,1,2.34.57,1.88,1.88,0,0,1,.82,1.64,2,2,0,0,1-.44,1.28,2.25,2.25,0,0,1-1.12.76v0a2.14,2.14,0,0,1,1.4.69,2,2,0,0,1,.52,1.41,2.45,2.45,0,0,1-.89,2,3.77,3.77,0,0,1-2.45.73Zm2.05-7.59V144h.91a1.5,1.5,0,0,0,1-.31,1,1,0,0,0,.36-.83.93.93,0,0,0-.37-.81,1.94,1.94,0,0,0-1.13-.27Zm0,3.74v2.34h1.12a1.71,1.71,0,0,0,1.11-.33,1.1,1.1,0,0,0,.4-.9,1,1,0,0,0-.39-.81,1.83,1.83,0,0,0-1.11-.3Z"/><path class="cls-1" d="M158,145.4a4.35,4.35,0,0,1-1,3.07,3.69,3.69,0,0,1-2.86,1,3.62,3.62,0,0,1-2.78-1,4.33,4.33,0,0,1-.93-3v-5.23h2.06v5.28a2.68,2.68,0,0,0,.43,1.66,1.56,1.56,0,0,0,1.29.55,1.54,1.54,0,0,0,1.28-.54,2.53,2.53,0,0,0,.42-1.6v-5.35h2Z"/><path class="cls-1" d="M159.22,148.74l.85-1.6a4.86,4.86,0,0,0,1.19.55,3.67,3.67,0,0,0,1.06.15,1.73,1.73,0,0,0,1.09-.29.93.93,0,0,0,.34-.77.91.91,0,0,0-.28-.72,2.24,2.24,0,0,0-1-.42,4.79,4.79,0,0,1-2.22-1,2.34,2.34,0,0,1-.69-1.79,2.58,2.58,0,0,1,.89-2,3.62,3.62,0,0,1,2.51-.81,5.92,5.92,0,0,1,2.55.6l-.76,1.62a5,5,0,0,0-1-.43,3.49,3.49,0,0,0-.87-.12,1.66,1.66,0,0,0-1,.24.79.79,0,0,0-.34.69.74.74,0,0,0,.32.64,3.43,3.43,0,0,0,1.12.4,4.4,4.4,0,0,1,2.14,1,2.58,2.58,0,0,1,.66,1.88,2.64,2.64,0,0,1-.91,2.1,3.91,3.91,0,0,1-2.64.8,6.84,6.84,0,0,1-1.58-.2A5.84,5.84,0,0,1,159.22,148.74Z"/><path class="cls-1" d="M169.3,149.34h-2.05v-9.1h2.05Z"/><path class="cls-1" d="M175,149.34v-9.1h3.23a5.25,5.25,0,0,1,3.63,1.1,4.29,4.29,0,0,1,1.22,3.33,4.47,4.47,0,0,1-1.33,3.4,4.84,4.84,0,0,1-3.52,1.27Zm2.05-7.43v5.77h1a2.76,2.76,0,0,0,2.09-.8,3,3,0,0,0,.76-2.18,2.76,2.76,0,0,0-.75-2,2.92,2.92,0,0,0-2.11-.74Z"/><path class="cls-1" d="M183.36,149.34l3.32-9.1h2.43l3.23,9.1h-2.23l-.62-1.9h-3.3l-.61,1.9Zm3.28-3.5H189l-1-3.16-.1-.32c0-.09,0-.21-.06-.35h-.05q0,.19-.06.33l-.1.32Z"/><path class="cls-1" d="M198.94,149.34h-5.46v-9.1h5.25v1.67h-3.2v2h3v1.66h-3v2.09h3.41Z"/><path class="cls-1" d="M207.79,149.34h-2.31l-1.21-2.24a3.49,3.49,0,0,0-.59-.83A1.12,1.12,0,0,0,203,146h-.55v3.38h-2v-9.1h3.25a4,4,0,0,1,2.49.64,2.3,2.3,0,0,1,.82,1.93,2.39,2.39,0,0,1-.53,1.57,3.11,3.11,0,0,1-1.46,1v0a1.71,1.71,0,0,1,.76.54,5.89,5.89,0,0,1,.6.84Zm-5.34-7.57v2.64h.89a1.49,1.49,0,0,0,1.07-.4,1.38,1.38,0,0,0,.4-1,1.18,1.18,0,0,0-.36-.94,1.64,1.64,0,0,0-1.07-.31Z"/><path class="cls-1" d="M207.91,149.34l3.31-9.1h2.43l3.24,9.1h-2.23l-.62-1.9h-3.3l-.61,1.9Zm3.27-3.5h2.38l-1-3.16c0-.13-.07-.23-.09-.32s0-.21-.06-.35h0c0,.13-.05.24-.07.33a2.66,2.66,0,0,1-.09.32Z"/><path class="cls-1" d="M225.9,149.34h-2.05v-3.71h-3.77v3.71H218v-9.1h2.05v3.63h3.77v-3.63h2.05Z"/><path class="cls-1" d="M104.25,162.65h-1.78L100.62,160l-.07-.13-.1-.22h0v3H99v-6.33h1.43v2.94h0l.07-.15.11-.2,1.75-2.59H104l-2.17,3Z"/><path class="cls-1" d="M107.29,162.76a3,3,0,0,1-2.22-.88,3.18,3.18,0,0,1-.85-2.31,3.45,3.45,0,0,1,.86-2.43,3,3,0,0,1,2.31-.92,2.88,2.88,0,0,1,2.19.88,3.29,3.29,0,0,1,.84,2.34,3.35,3.35,0,0,1-.87,2.41A3,3,0,0,1,107.29,162.76Zm0-1.23a1.39,1.39,0,0,0,1.17-.53,2.27,2.27,0,0,0,.44-1.48,2.48,2.48,0,0,0-.42-1.53,1.38,1.38,0,0,0-1.15-.55,1.42,1.42,0,0,0-1.19.57,2.74,2.74,0,0,0,0,3A1.41,1.41,0,0,0,107.31,161.53Z"/><path class="cls-1" d="M115.55,157.48h-1.81v5.17h-1.43v-5.17h-1.79v-1.16h5Z"/><path class="cls-1" d="M115.1,162.65l2.3-6.33h1.69l2.25,6.33h-1.55l-.43-1.32h-2.3l-.42,1.32Zm2.27-2.43H119l-.7-2.2c0-.09,0-.16-.06-.22a1.19,1.19,0,0,1,0-.24h0a1.32,1.32,0,0,1,0,.23,1.15,1.15,0,0,1-.06.21Z"/><path class="cls-1" d="M129.07,157.48h-1.8v5.17h-1.43v-5.17H124v-1.16h5Z"/><path class="cls-1" d="M128.62,162.65l2.3-6.33h1.69l2.26,6.33h-1.56l-.43-1.32h-2.29l-.43,1.32Zm2.28-2.43h1.65l-.7-2.2a2.18,2.18,0,0,0-.06-.22,1.19,1.19,0,0,1,0-.24h0c0,.09,0,.16,0,.23l-.07.21Z"/><path class="cls-1" d="M141.35,162.65h-1.44l-2.61-4-.19-.31-.12-.22h0c0,.11,0,.25,0,.42s0,.38,0,.6v3.48h-1.34v-6.33h1.53l2.52,3.86.16.26a1.65,1.65,0,0,1,.15.25h0a2.38,2.38,0,0,1,0-.33c0-.14,0-.32,0-.54v-3.5h1.34Z"/><path class="cls-1" d="M145.45,160.58a2.15,2.15,0,0,1-.57,1.63,2.22,2.22,0,0,1-1.62.55,3,3,0,0,1-.59-.06,3.18,3.18,0,0,1-.62-.2l.44-1.08a1.59,1.59,0,0,0,.32.12,1,1,0,0,0,.32.05.81.81,0,0,0,.65-.24,1.13,1.13,0,0,0,.21-.77l0-4.26h1.42Z"/><path class="cls-1" d="M152,159.91a3,3,0,0,1-.66,2.14,2.6,2.6,0,0,1-2,.71,2.51,2.51,0,0,1-1.93-.69,3,3,0,0,1-.65-2.11v-3.64h1.43V160a1.86,1.86,0,0,0,.3,1.15,1.09,1.09,0,0,0,.91.38,1.05,1.05,0,0,0,.88-.37,1.75,1.75,0,0,0,.29-1.11v-3.73H152Z"/><path class="cls-1" d="M159.06,162.65h-1.43l-2.61-4c-.08-.12-.15-.22-.2-.31l-.12-.22h0q0,.16,0,.42c0,.18,0,.38,0,.6v3.48h-1.35v-6.33h1.53l2.52,3.86.16.26c.06.08.11.17.16.25h0a2.38,2.38,0,0,1,0-.33c0-.14,0-.32,0-.54v-3.5h1.34Z"/><path class="cls-1" d="M165.71,162.18a4,4,0,0,1-1,.43,5.17,5.17,0,0,1-1.28.15A3.47,3.47,0,0,1,161,162a3,3,0,0,1-.89-2.38,3.38,3.38,0,0,1,.9-2.41,3.32,3.32,0,0,1,2.52-1,5.52,5.52,0,0,1,1.11.1,5.28,5.28,0,0,1,1.06.32l-.44,1.1a5.33,5.33,0,0,0-.85-.25,4.12,4.12,0,0,0-.88-.08,1.91,1.91,0,0,0-1.41.53,2.19,2.19,0,0,0-.51,1.58,2.07,2.07,0,0,0,.51,1.55,1.85,1.85,0,0,0,1.34.5,2.13,2.13,0,0,0,.46,0,1.11,1.11,0,0,0,.35-.1v-1.24H163v-1.14h2.69Z"/><path class="cls-1" d="M168.37,160.58v2.07h-1.43v-6.33h2.24a2.64,2.64,0,0,1,1.79.52,1.93,1.93,0,0,1,.6,1.55,2,2,0,0,1-.69,1.59,2.67,2.67,0,0,1-1.83.6Zm0-3.16v2.08h.56a1.17,1.17,0,0,0,.85-.27,1.19,1.19,0,0,0,0-1.56,1.22,1.22,0,0,0-.85-.25Z"/><path class="cls-1" d="M173.92,162.65H172.5v-6.33h1.42Z"/><path class="cls-1" d="M181.06,162.65h-1.44l-2.61-4c-.08-.12-.14-.22-.19-.31a2,2,0,0,1-.13-.22h0c0,.11,0,.25,0,.42s0,.38,0,.6v3.48h-1.35v-6.33h1.54l2.51,3.86c.06.08.11.17.17.26l.15.25h0q0-.1,0-.33c0-.14,0-.32,0-.54v-3.5h1.35Z"/><path class="cls-1" d="M181.83,162.65l2.31-6.33h1.69l2.25,6.33h-1.56l-.42-1.32h-2.3l-.42,1.32Zm2.28-2.43h1.65l-.69-2.2-.07-.22c0-.06,0-.14,0-.24h0c0,.09,0,.16-.05.23l-.07.21Z"/><path class="cls-1" d="M194.56,162.65h-1.43l-2.61-4c-.08-.12-.15-.22-.2-.31l-.12-.22h0q0,.16,0,.42c0,.18,0,.38,0,.6v3.48h-1.35v-6.33h1.53l2.52,3.86.16.26c.06.08.11.17.16.25h0a2.38,2.38,0,0,1,0-.33c0-.14,0-.32,0-.54v-3.5h1.34Z"/><path class="cls-1" d="M201.21,162.18a4,4,0,0,1-1,.43,5.17,5.17,0,0,1-1.28.15,3.47,3.47,0,0,1-2.4-.79,3,3,0,0,1-.89-2.38,3.38,3.38,0,0,1,.9-2.41,3.32,3.32,0,0,1,2.52-1,5.52,5.52,0,0,1,1.11.1,5.28,5.28,0,0,1,1.06.32l-.44,1.1a5.33,5.33,0,0,0-.85-.25,4.12,4.12,0,0,0-.88-.08,1.91,1.91,0,0,0-1.41.53,2.19,2.19,0,0,0-.51,1.58,2.07,2.07,0,0,0,.51,1.55,1.85,1.85,0,0,0,1.34.5,2.13,2.13,0,0,0,.46,0,1.11,1.11,0,0,0,.35-.1v-1.24h-1.26v-1.14h2.69Z"/><path class="cls-2" d="M167.63,17c-3.49-1.25-4.61-4.13-6.9-4.24-11.33-.53-15.3.76-18,1.44s-7.8,5.34-9.32,6.29a5.47,5.47,0,0,1-3.18.75A16.93,16.93,0,0,1,127.7,27a51.72,51.72,0,0,0,8.86,6.89h24.17c5.79-6.08,9.43-12.26,10.38-18.56C169.89,16.45,168.45,17.25,167.63,17Zm-33.29,9.89a20.46,20.46,0,0,1-3.08-4.51,35.19,35.19,0,0,1,7.27,8A14.06,14.06,0,0,1,134.34,26.84Zm25.95-4.24c-.59,2.67-1.19,5.49-2.82,7.76,1.4-5.21,1.94-10.83,3.56-16A37.86,37.86,0,0,1,160.29,22.6Z"/><path class="cls-1" d="M126.37,43.75a1.41,1.41,0,0,1-1.11-.53,1.43,1.43,0,0,1,.21-2L131,36.75c-2.42-.28-5-.69-7.23-1.13a1.42,1.42,0,0,1,.56-2.79,89.68,89.68,0,0,0,10.36,1.43,1.42,1.42,0,0,1,.79,2.52l-8.2,6.65A1.43,1.43,0,0,1,126.37,43.75Z"/><polygon class="cls-2" points="138.4 79.2 141.41 79.2 140.07 74.5 138.4 79.2"/><polygon class="cls-2" points="154.7 79.2 157.71 79.2 156.37 74.5 154.7 79.2"/><path class="cls-2" d="M161.22,36.39H138.38C107.46,61.58,97.74,114.81,150,114.81,198.24,114.81,196.42,63.45,161.22,36.39ZM133.94,78.56a5.68,5.68,0,0,1-2.33.42c-.54,0-1,0-1.33,0v2.67a4.72,4.72,0,0,0,0,.78.84.84,0,0,0,.14.37.69.69,0,0,0,.27.23,2.44,2.44,0,0,0,.56.16v.55H126.8v-.55a2.74,2.74,0,0,0,.48-.18.59.59,0,0,0,.27-.27,1,1,0,0,0,.11-.43,6.19,6.19,0,0,0,0-.67V74.42c0-.27,0-.49,0-.66a1.05,1.05,0,0,0-.11-.44.7.7,0,0,0-.27-.27,2.18,2.18,0,0,0-.49-.19v-.55h4.85a5.36,5.36,0,0,1,3.16.76,2.67,2.67,0,0,1,1.05,2.32,3.64,3.64,0,0,1-.49,1.93A3.06,3.06,0,0,1,133.94,78.56Zm11.95,5.15h-4.61v-.55a1.15,1.15,0,0,0,.64-.24.71.71,0,0,0,.21-.55,3.07,3.07,0,0,0-.06-.57c0-.21-.1-.48-.19-.8l-.23-.82h-3.56l-.28.79a5.88,5.88,0,0,0-.19.65,2.84,2.84,0,0,0-.08.66c0,.55.29.84.87.88v.55h-3.56v-.55a1.07,1.07,0,0,0,.54-.22,1.77,1.77,0,0,0,.42-.5,4.75,4.75,0,0,0,.41-.91l3.49-9.28h2.23l2.75,9.36a7.56,7.56,0,0,0,.31.89,1.14,1.14,0,0,0,.33.42,1.26,1.26,0,0,0,.56.24ZM151,72.86a1.73,1.73,0,0,0-.51.2.88.88,0,0,0-.25.26,1.21,1.21,0,0,0-.11.39,6,6,0,0,0,0,.71v8.36a6.37,6.37,0,0,1-.14,1.46,2.78,2.78,0,0,1-.46,1,3.73,3.73,0,0,1-1,.93,8,8,0,0,1-1.87.81l-.42-1a3.78,3.78,0,0,0,.76-.43,1.42,1.42,0,0,0,.36-.43,1.93,1.93,0,0,0,.16-.58,8.07,8.07,0,0,0,0-1v-9.1c0-.27,0-.49,0-.66a1.23,1.23,0,0,0-.11-.44.7.7,0,0,0-.27-.27,2.18,2.18,0,0,0-.49-.19v-.55H151Zm11.16,10.85h-4.61v-.55a1.15,1.15,0,0,0,.64-.24.71.71,0,0,0,.21-.55,3.07,3.07,0,0,0-.06-.57c0-.21-.1-.48-.19-.8l-.23-.82h-3.56l-.28.79a5.88,5.88,0,0,0-.19.65,2.84,2.84,0,0,0-.08.66c0,.55.29.84.87.88v.55h-3.56v-.55a1.07,1.07,0,0,0,.54-.22,1.77,1.77,0,0,0,.42-.5,4.75,4.75,0,0,0,.41-.91L156,72.25h2.23L161,81.61a7.56,7.56,0,0,0,.31.89,1.14,1.14,0,0,0,.33.42,1.26,1.26,0,0,0,.56.24Zm11.95,0h-4.52v-.55A.68.68,0,0,0,170,83a.32.32,0,0,0,.1-.25.84.84,0,0,0,0-.27,1.68,1.68,0,0,0-.18-.38c-.09-.16-.28-.47-.57-.91l-1.28-2c-.16-.23-.29-.42-.4-.55a1.12,1.12,0,0,0-.35-.29,1,1,0,0,0-.47-.09h-.17v3.31c0,.2,0,.38,0,.55a1.52,1.52,0,0,0,.07.41.72.72,0,0,0,.14.26.77.77,0,0,0,.27.19,2.16,2.16,0,0,0,.41.14v.55h-4.39v-.55a2.89,2.89,0,0,0,.49-.18.59.59,0,0,0,.27-.27,1.23,1.23,0,0,0,.11-.43,6.19,6.19,0,0,0,0-.67V74.42a5.86,5.86,0,0,0,0-.66,1.24,1.24,0,0,0-.1-.44.7.7,0,0,0-.27-.27,2.29,2.29,0,0,0-.5-.19v-.55h4.39v.55a1.81,1.81,0,0,0-.52.2.73.73,0,0,0-.24.26,1.21,1.21,0,0,0-.11.39,5.53,5.53,0,0,0,0,.71v3h.18a2,2,0,0,0,.61-.08,1.49,1.49,0,0,0,.46-.31,12,12,0,0,0,.92-1q.67-.8,1-1.23a3.27,3.27,0,0,0,.41-.71,1.37,1.37,0,0,0,.12-.55.57.57,0,0,0-.2-.46.9.9,0,0,0-.55-.18v-.55h4.26v.57a1.9,1.9,0,0,0-.54.18,2.31,2.31,0,0,0-.52.38,9.69,9.69,0,0,0-.74.77L169.53,77l2.92,4.48c.21.33.4.6.54.8a5.65,5.65,0,0,0,.39.46,1.2,1.2,0,0,0,.33.25,2,2,0,0,0,.43.17Z"/><path class="cls-2" d="M132.36,73.51a2.7,2.7,0,0,0-1.18-.22c-.39,0-.69,0-.9,0V78H131a3,3,0,0,0,1.32-.24,1.52,1.52,0,0,0,.74-.76,3.53,3.53,0,0,0,.23-1.39,3.47,3.47,0,0,0-.23-1.38A1.43,1.43,0,0,0,132.36,73.51Z"/></svg>