<svg id="Layer_1" data-name="Layer 1" xmlns="http://www.w3.org/2000/svg" viewBox="0 0 180 180"><defs><style>.cls-1{fill:#282528;}.cls-2{fill:#e69e1c;}</style></defs><path class="cls-1" d="M121,7.69C114.9,5.49,112.93.41,108.9.22,89-.71,82,1.55,77.28,2.75S63.53,12.16,60.87,13.83a9.58,9.58,0,0,1-5.61,1.33,30.28,30.28,0,0,1-4.53,10.28c3.65,3.85,9.22,8,15.61,12.14H108.9C119.1,26.86,125.5,16,127.17,4.89,125,6.81,122.48,8.21,121,7.69ZM62.43,25.1A36,36,0,0,1,57,17.16c5.18,3.85,9.07,9,12.8,14.15C66.83,29.91,64.6,27.46,62.43,25.1Zm45.69-7.47c-1,4.71-2.1,9.67-5,13.68,2.46-9.18,3.41-19.07,6.27-28.15A67,67,0,0,1,108.12,17.63Z"/><path class="cls-2" d="M48.39,54.87a2.5,2.5,0,0,1-1.58-4.44l9.7-7.87c-4.27-.51-8.84-1.22-12.73-2a2.5,2.5,0,1,1,1-4.9A159.8,159.8,0,0,0,63,38.17a2.5,2.5,0,0,1,1.4,4.43L50,54.31A2.46,2.46,0,0,1,48.39,54.87Z"/><polygon class="cls-1" points="69.58 117.3 74.87 117.3 72.52 109.02 69.58 117.3"/><polygon class="cls-1" points="98.28 117.3 103.58 117.3 101.22 109.02 98.28 117.3"/><path class="cls-1" d="M109.76,41.91H69.54C15.1,86.27-2,180,90,180,174.94,180,171.74,89.57,109.76,41.91Zm-48,74.27a10.12,10.12,0,0,1-4.12.74q-1.43,0-2.34-.06v4.7a8.5,8.5,0,0,0,.08,1.38,1.77,1.77,0,0,0,.24.65,1.25,1.25,0,0,0,.49.4,3.6,3.6,0,0,0,1,.28v1H49.14v-1A3.73,3.73,0,0,0,50,124a1.07,1.07,0,0,0,.47-.47,2,2,0,0,0,.2-.76c0-.31,0-.7,0-1.17V108.88c0-.46,0-.85,0-1.17a2,2,0,0,0-.19-.76,1.14,1.14,0,0,0-.47-.48,3.71,3.71,0,0,0-.88-.33v-1h8.55a9.54,9.54,0,0,1,5.57,1.33,4.72,4.72,0,0,1,1.85,4.1,6.43,6.43,0,0,1-.87,3.39A5.45,5.45,0,0,1,61.73,116.18Zm21,9.06H74.64v-1a1.93,1.93,0,0,0,1.13-.43,1.2,1.2,0,0,0,.37-1,6.61,6.61,0,0,0-.1-1c-.07-.37-.19-.84-.34-1.41L75.3,119H69l-.48,1.4a11.18,11.18,0,0,0-.34,1.14,4.88,4.88,0,0,0-.13,1.17c0,1,.51,1.47,1.53,1.54v1H63.32v-1a1.86,1.86,0,0,0,.95-.38A3.14,3.14,0,0,0,65,123a9.1,9.1,0,0,0,.72-1.61l6.13-16.33H75.8l4.85,16.47a12,12,0,0,0,.55,1.56,2,2,0,0,0,.57.75,2.34,2.34,0,0,0,1,.42Zm9.06-19.1a3.42,3.42,0,0,0-.9.35,1.25,1.25,0,0,0-.43.46,2.2,2.2,0,0,0-.2.68,9.42,9.42,0,0,0-.06,1.25v14.73a11.14,11.14,0,0,1-.24,2.57,4.77,4.77,0,0,1-.81,1.75,6.52,6.52,0,0,1-1.81,1.63,13.73,13.73,0,0,1-3.3,1.44l-.73-1.8a6.51,6.51,0,0,0,1.33-.75,2.3,2.3,0,0,0,.63-.76,3.55,3.55,0,0,0,.29-1,12.9,12.9,0,0,0,.09-1.77v-16c0-.46,0-.85,0-1.17a2.16,2.16,0,0,0-.19-.76,1.14,1.14,0,0,0-.47-.48,3.71,3.71,0,0,0-.88-.33v-1h7.72Zm19.65,19.1h-8.12v-1a1.93,1.93,0,0,0,1.13-.43,1.2,1.2,0,0,0,.37-1,6.61,6.61,0,0,0-.1-1c-.07-.37-.19-.84-.34-1.41L104,119H97.72l-.48,1.4a11.18,11.18,0,0,0-.34,1.14,4.88,4.88,0,0,0-.13,1.17c0,1,.51,1.47,1.53,1.54v1H92v-1a1.86,1.86,0,0,0,1-.38,3.14,3.14,0,0,0,.75-.88,9.1,9.1,0,0,0,.72-1.61l6.14-16.33h3.92l4.85,16.47a12,12,0,0,0,.55,1.56,2.08,2.08,0,0,0,.57.75,2.33,2.33,0,0,0,1,.42Zm21,0h-8v-1a1.35,1.35,0,0,0,.68-.24.57.57,0,0,0,.17-.45,1.76,1.76,0,0,0-.06-.46,3.42,3.42,0,0,0-.32-.67c-.16-.3-.5-.84-1-1.62l-2.25-3.47a10,10,0,0,0-.72-1,2,2,0,0,0-.6-.5,1.75,1.75,0,0,0-.83-.16h-.29v5.84q0,.51,0,1a3.92,3.92,0,0,0,.11.72,1.43,1.43,0,0,0,.26.47,1.7,1.7,0,0,0,.46.33,4.16,4.16,0,0,0,.73.24v1h-7.72v-1A3.92,3.92,0,0,0,114,124a1.12,1.12,0,0,0,.47-.47,2.15,2.15,0,0,0,.2-.76c0-.31,0-.7,0-1.17V108.88c0-.46,0-.85,0-1.17a2,2,0,0,0-.19-.76,1.14,1.14,0,0,0-.47-.48,3.79,3.79,0,0,0-.87-.33v-1h7.72v1a3.38,3.38,0,0,0-.91.35,1.34,1.34,0,0,0-.43.46,2,2,0,0,0-.19.68,9.42,9.42,0,0,0-.06,1.25v5.23h.31a3.12,3.12,0,0,0,1.07-.15,2.42,2.42,0,0,0,.82-.53c.27-.25.81-.85,1.61-1.78s1.38-1.66,1.74-2.16a6.37,6.37,0,0,0,.73-1.25,2.68,2.68,0,0,0,.2-1,1,1,0,0,0-.34-.81,1.51,1.51,0,0,0-1-.31v-1H132v1a3.31,3.31,0,0,0-.95.31,4.74,4.74,0,0,0-.92.67,16.51,16.51,0,0,0-1.3,1.36l-4.42,4.94,5.14,7.88c.38.59.7,1.06,1,1.4a8.93,8.93,0,0,0,.68.82,2.47,2.47,0,0,0,.58.45,3.61,3.61,0,0,0,.76.28Z"/><path class="cls-1" d="M58.94,107.27a5,5,0,0,0-2.08-.38q-1,0-1.59,0v8.28h1.27a5.44,5.44,0,0,0,2.34-.42,2.64,2.64,0,0,0,1.28-1.33,6,6,0,0,0,.42-2.46,5.83,5.83,0,0,0-.42-2.43A2.61,2.61,0,0,0,58.94,107.27Z"/></svg>