<svg id="Layer_1" data-name="Layer 1" xmlns="http://www.w3.org/2000/svg" viewBox="0 0 300 180"><defs><style>.cls-1,.cls-3{fill:#4b4b4b;}.cls-2{fill:#c4c6c7;}.cls-2,.cls-3,.cls-4{fill-rule:evenodd;}.cls-4{fill:gray;}.cls-5{opacity:0.6;}</style></defs><path class="cls-1" d="M40,149.34v-8.4h2.32a4.77,4.77,0,0,1,3.33,1A4,4,0,0,1,46.75,145a4.11,4.11,0,0,1-1.24,3.13,4.55,4.55,0,0,1-3.3,1.18Zm1-7.51v6.62h1.25a3.57,3.57,0,0,0,2.58-.88,3.34,3.34,0,0,0,.92-2.51,3.16,3.16,0,0,0-.86-2.42,3.63,3.63,0,0,0-2.58-.81Z"/><path class="cls-1" d="M49.38,149.34h-1v-8.4h1Z"/><path class="cls-1" d="M58.37,149.34H57.16l-4.32-6.7a1.35,1.35,0,0,1-.15-.26,1.23,1.23,0,0,1-.12-.26h0a3,3,0,0,1,0,.42c0,.19,0,.43,0,.73v6.07h-1v-8.4h1.28l4.21,6.59.22.35.12.21h0a4.58,4.58,0,0,1,0-.49c0-.21,0-.45,0-.74v-5.92h1Z"/><path class="cls-1" d="M59.6,149.34l3.22-8.4h1l3.23,8.4H66l-.85-2.25H61.5l-.81,2.25Zm2.22-3.13h3l-1.36-3.69a1.84,1.84,0,0,1-.06-.23c0-.09,0-.2-.07-.33h0c0,.12,0,.22-.06.32s-.05.17-.07.24Z"/><path class="cls-1" d="M67.58,148.7l.48-.74a4,4,0,0,0,1,.48,3.92,3.92,0,0,0,1.2.16,2.09,2.09,0,0,0,1.26-.36,1.21,1.21,0,0,0,.49-1.05,1.29,1.29,0,0,0-.41-1,4.34,4.34,0,0,0-1.38-.71,5.11,5.11,0,0,1-1.75-1,1.85,1.85,0,0,1-.57-1.41,2.07,2.07,0,0,1,.74-1.67,2.84,2.84,0,0,1,1.94-.64,5.1,5.1,0,0,1,1.11.12,5.27,5.27,0,0,1,1.11.39l-.37.79a4.11,4.11,0,0,0-.93-.32,4.43,4.43,0,0,0-1-.1,1.87,1.87,0,0,0-1.19.35,1.21,1.21,0,0,0-.44,1,1.07,1.07,0,0,0,.4.88,4.91,4.91,0,0,0,1.35.67,4.74,4.74,0,0,1,1.82,1A2.06,2.06,0,0,1,73,147.1a2.23,2.23,0,0,1-.74,1.7,3,3,0,0,1-2.07.68,4.64,4.64,0,0,1-2.65-.78Z"/><path class="cls-1" d="M84.79,149.34H82.43L80,145.76a.52.52,0,0,1-.09-.17c0-.08-.09-.17-.14-.29h0v4H77.83v-8.4h1.89v3.9h0l.1-.2c0-.08.08-.17.14-.27l2.32-3.43h2.2l-2.89,4Z"/><path class="cls-1" d="M90.66,149.34h-5v-8.4h4.84v1.54H87.51v1.87h2.75v1.53H87.51v1.93h3.15Z"/><path class="cls-1" d="M92,149.34v-8.4h3a3.8,3.8,0,0,1,2.17.53A1.75,1.75,0,0,1,98,143a1.83,1.83,0,0,1-.4,1.18,2.1,2.1,0,0,1-1,.7v0a2,2,0,0,1,1.29.64,1.88,1.88,0,0,1,.48,1.3,2.24,2.24,0,0,1-.83,1.83,3.41,3.41,0,0,1-2.26.68Zm1.89-7v2h.83a1.37,1.37,0,0,0,.92-.28.92.92,0,0,0,.34-.77.88.88,0,0,0-.35-.75,1.8,1.8,0,0,0-1-.25Zm0,3.46V148h1a1.55,1.55,0,0,0,1-.31,1,1,0,0,0,.37-.83.88.88,0,0,0-.36-.75,1.71,1.71,0,0,0-1-.27Z"/><path class="cls-1" d="M106.55,145.7a4.07,4.07,0,0,1-.88,2.84,3.46,3.46,0,0,1-2.65,1,3.34,3.34,0,0,1-2.56-.92,4,4,0,0,1-.86-2.8v-4.83h1.9v4.87a2.43,2.43,0,0,0,.4,1.53,1.65,1.65,0,0,0,2.37,0,2.36,2.36,0,0,0,.39-1.48v-4.94h1.89Z"/><path class="cls-1" d="M108.38,149.34v-8.4h3a4.84,4.84,0,0,1,3.36,1,4,4,0,0,1,1.12,3.07,4.16,4.16,0,0,1-1.22,3.14,4.52,4.52,0,0,1-3.26,1.17Zm1.89-6.86v5.33h.94a2.55,2.55,0,0,0,1.93-.74,2.82,2.82,0,0,0,.7-2,2.52,2.52,0,0,0-.7-1.89,2.63,2.63,0,0,0-1.94-.69Z"/><path class="cls-1" d="M116.14,149.34l3.06-8.4h2.24l3,8.4h-2.06l-.57-1.75h-3l-.56,1.75Zm3-3.23h2.2l-.92-2.92a3,3,0,0,1-.09-.29c0-.09,0-.19-.06-.32h0q0,.18-.06.3c0,.09,0,.19-.09.29Z"/><path class="cls-1" d="M130.91,140.94l-2.74,5.41v3h-1.89v-3l-2.67-5.45h2.16l1.36,3.13.06.22c0,.11.08.27.13.47h0a3,3,0,0,1,.09-.38,1.83,1.83,0,0,1,.1-.28l1.37-3.16Z"/><path class="cls-1" d="M130.06,149.34l3.06-8.4h2.24l3,8.4h-2.06l-.57-1.75h-3.05l-.56,1.75Zm3-3.23h2.2l-.93-2.92-.08-.29c0-.09,0-.19-.06-.32h-.05q0,.18-.06.3c0,.09,0,.19-.08.29Z"/><path class="cls-1" d="M138.49,149.34l3.06-8.4h2.25l3,8.4h-2.07l-.57-1.75h-3l-.57,1.75Zm3-3.23h2.19l-.92-2.92c0-.11-.06-.21-.09-.29a2.16,2.16,0,0,1,0-.32h-.05q0,.18-.06.3c0,.09,0,.19-.08.29Z"/><path class="cls-1" d="M155.39,149.34h-1.91L150,144.06l-.26-.41a3.08,3.08,0,0,1-.16-.29h0c0,.15,0,.34,0,.57s0,.49,0,.79v4.62h-1.79v-8.4h2l3.34,5.11.22.35.2.34h0a3.76,3.76,0,0,1,0-.44c0-.19,0-.43,0-.71v-4.65h1.78Z"/><path class="cls-1" d="M160.62,149.34v-8.4h3a4.86,4.86,0,0,1,3.36,1,4,4,0,0,1,1.12,3.07,4.16,4.16,0,0,1-1.22,3.14,4.52,4.52,0,0,1-3.26,1.17Zm1.9-6.86v5.33h.94a2.55,2.55,0,0,0,1.93-.74,2.82,2.82,0,0,0,.7-2,2.56,2.56,0,0,0-.7-1.89,2.64,2.64,0,0,0-1.95-.69Z"/><path class="cls-1" d="M168.39,149.34l3.06-8.4h2.24l3,8.4h-2.06l-.57-1.75H171l-.56,1.75Zm3-3.23h2.2l-.93-2.92-.08-.29c0-.09,0-.19-.06-.32h0a1.67,1.67,0,0,1-.07.3c0,.09-.05.19-.08.29Z"/><path class="cls-1" d="M185.29,149.34h-1.91l-3.47-5.28c-.1-.15-.18-.29-.25-.41s-.13-.21-.17-.29h0c0,.15,0,.34,0,.57s0,.49,0,.79v4.62h-1.79v-8.4h2l3.33,5.11.22.35.2.34h0a3.33,3.33,0,0,1,0-.44c0-.19,0-.43,0-.71v-4.65h1.79Z"/><path class="cls-1" d="M192.41,146.59v2.75h-1.89v-8.4h3a3.62,3.62,0,0,1,2.39.68,2.59,2.59,0,0,1,.79,2.07,2.67,2.67,0,0,1-.91,2.1,3.59,3.59,0,0,1-2.44.8Zm0-4.2v2.76h.75a1.58,1.58,0,0,0,1.13-.35,1.35,1.35,0,0,0,.38-1,1.33,1.33,0,0,0-.38-1,1.68,1.68,0,0,0-1.13-.34Z"/><path class="cls-1" d="M196.28,149.34l3.06-8.4h2.24l3,8.4h-2.06l-.57-1.75h-3.05l-.56,1.75Zm3-3.23h2.2l-.93-2.92-.08-.29c0-.09,0-.19-.06-.32h0q0,.18-.06.3c0,.09-.05.19-.09.29Z"/><path class="cls-1" d="M212.45,149.34h-2.14l-1.12-2.07a3.11,3.11,0,0,0-.54-.76,1,1,0,0,0-.63-.29h-.51v3.12h-1.89v-8.4h3a3.73,3.73,0,0,1,2.29.59,2.14,2.14,0,0,1,.77,1.79,2.24,2.24,0,0,1-.49,1.44,2.9,2.9,0,0,1-1.35.9v0a1.58,1.58,0,0,1,.7.49,5,5,0,0,1,.55.78Zm-4.94-7v2.43h.82a1.34,1.34,0,0,0,1-.37,1.27,1.27,0,0,0,.37-.91,1.1,1.1,0,0,0-.33-.87,1.48,1.48,0,0,0-1-.28Z"/><path class="cls-1" d="M215.35,149.34h-1.9v-8.4h1.9Z"/><path class="cls-1" d="M228.25,140.94l-2.22,8.4h-2.1L222.54,144a3,3,0,0,1-.09-.45,3.87,3.87,0,0,1,0-.49h0c0,.19,0,.36-.06.52a3.26,3.26,0,0,1-.1.42l-1.43,5.39h-2.18l-2.21-8.4h2.07l1.18,5.59c0,.13,0,.27.07.42s0,.34,0,.55h0c0-.16,0-.31,0-.48s.07-.33.12-.51l1.52-5.57h2l1.38,5.64c0,.1,0,.23.07.38s0,.33.06.52h0c0-.15,0-.31,0-.46s.05-.31.08-.47l1.16-5.61Z"/><path class="cls-1" d="M231.21,149.34h-1.9v-8.4h1.9Z"/><path class="cls-1" d="M232.43,148.78l.79-1.47a4.73,4.73,0,0,0,1.1.51,3.46,3.46,0,0,0,1,.13,1.55,1.55,0,0,0,1-.26.87.87,0,0,0,.32-.71.8.8,0,0,0-.26-.66,2.09,2.09,0,0,0-1-.39,4.46,4.46,0,0,1-2-.92,2.11,2.11,0,0,1-.64-1.65,2.34,2.34,0,0,1,.83-1.81,3.31,3.31,0,0,1,2.31-.75,5.5,5.5,0,0,1,1.22.14,5,5,0,0,1,1.14.41l-.71,1.49a4.35,4.35,0,0,0-.92-.39,2.92,2.92,0,0,0-.79-.12,1.52,1.52,0,0,0-.89.23.71.71,0,0,0-.31.63.66.66,0,0,0,.29.59,3.17,3.17,0,0,0,1,.38,3.94,3.94,0,0,1,2,.92,2.35,2.35,0,0,1,.61,1.74,2.45,2.45,0,0,1-.84,1.93,3.61,3.61,0,0,1-2.44.74,5.86,5.86,0,0,1-1.46-.19A4.81,4.81,0,0,1,232.43,148.78Z"/><path class="cls-1" d="M238.94,149.34l3.06-8.4h2.24l3,8.4h-2.06l-.57-1.75h-3l-.56,1.75Zm3-3.23h2.2l-.92-2.92a3,3,0,0,1-.09-.29,2.16,2.16,0,0,1-.05-.32h0q0,.18-.06.3a1.9,1.9,0,0,1-.09.29Z"/><path class="cls-1" d="M253.34,142.48h-2.4v6.86H249v-6.86h-2.38v-1.54h6.68Z"/><path class="cls-1" d="M252.73,149.34l3.06-8.4H258l3,8.4H259l-.57-1.75h-3l-.56,1.75Zm3-3.23H258l-.93-2.92c0-.11-.06-.21-.09-.29a2.16,2.16,0,0,1-.05-.32h-.05q0,.18-.06.3c0,.09,0,.19-.08.29Z"/><path class="cls-1" d="M104.25,162.65h-1.78L100.62,160l-.07-.13-.1-.22h0v3H99v-6.33h1.43v2.94h0l.07-.15.11-.2,1.75-2.59H104l-2.17,3Z"/><path class="cls-1" d="M107.29,162.77a3,3,0,0,1-2.22-.89,3.19,3.19,0,0,1-.86-2.31,3.41,3.41,0,0,1,.87-2.43,3,3,0,0,1,2.31-.92,2.88,2.88,0,0,1,2.19.88,3.29,3.29,0,0,1,.84,2.34,3.35,3.35,0,0,1-.87,2.41A3,3,0,0,1,107.29,162.77Zm0-1.24a1.39,1.39,0,0,0,1.17-.53,2.27,2.27,0,0,0,.44-1.48,2.48,2.48,0,0,0-.42-1.53,1.38,1.38,0,0,0-1.15-.55,1.42,1.42,0,0,0-1.19.57,2.74,2.74,0,0,0,0,3A1.41,1.41,0,0,0,107.31,161.53Z"/><path class="cls-1" d="M115.55,157.48h-1.81v5.17h-1.43v-5.17h-1.79v-1.16h5Z"/><path class="cls-1" d="M115.09,162.65l2.31-6.33h1.69l2.25,6.33h-1.55l-.43-1.32h-2.3l-.42,1.32Zm2.28-2.43H119l-.7-2.2c0-.09,0-.16-.06-.22a1.19,1.19,0,0,1,0-.24h0a1.32,1.32,0,0,1,0,.23,1,1,0,0,1-.06.21Z"/><path class="cls-1" d="M129.07,157.48h-1.8v5.17h-1.44v-5.17H124v-1.16h5Z"/><path class="cls-1" d="M128.62,162.65l2.3-6.33h1.69l2.26,6.33h-1.56l-.43-1.32h-2.29l-.43,1.32Zm2.28-2.43h1.65l-.7-2.2a2.18,2.18,0,0,0-.06-.22,1.19,1.19,0,0,1,0-.24h0c0,.09,0,.16,0,.23s0,.14-.07.21Z"/><path class="cls-1" d="M141.35,162.65h-1.44l-2.61-4-.19-.31a1.72,1.72,0,0,1-.12-.22h0c0,.11,0,.25,0,.42s0,.38,0,.61v3.47h-1.34v-6.33h1.53l2.52,3.86.16.26a1.65,1.65,0,0,1,.15.25h0q0-.1,0-.33v-4h1.34Z"/><path class="cls-1" d="M145.45,160.58a2.15,2.15,0,0,1-.57,1.63,2.22,2.22,0,0,1-1.62.55,3,3,0,0,1-.59-.06,3.18,3.18,0,0,1-.62-.2l.44-1.08a1.59,1.59,0,0,0,.32.12,1,1,0,0,0,.32.05.81.81,0,0,0,.65-.24,1.13,1.13,0,0,0,.21-.77l0-4.26h1.42Z"/><path class="cls-1" d="M152,159.91a3,3,0,0,1-.66,2.14,2.6,2.6,0,0,1-2,.72,2.52,2.52,0,0,1-1.93-.7,3,3,0,0,1-.65-2.1v-3.65h1.43V160a1.86,1.86,0,0,0,.3,1.15,1.09,1.09,0,0,0,.9.38,1.06,1.06,0,0,0,.89-.37,1.75,1.75,0,0,0,.29-1.11v-3.73H152Z"/><path class="cls-1" d="M159.06,162.65h-1.44l-2.61-4-.19-.31-.12-.22h0q0,.16,0,.42v4.08h-1.34v-6.33h1.53l2.52,3.86.16.26c.06.08.11.17.16.25h0a2.38,2.38,0,0,1,0-.33c0-.14,0-.32,0-.54v-3.5h1.34Z"/><path class="cls-1" d="M165.71,162.18a4,4,0,0,1-1,.43,5.15,5.15,0,0,1-1.28.16,3.48,3.48,0,0,1-2.4-.8,3,3,0,0,1-.89-2.38,3.38,3.38,0,0,1,.9-2.41,3.32,3.32,0,0,1,2.52-1,5.59,5.59,0,0,1,1.11.1,5.28,5.28,0,0,1,1.06.32l-.45,1.1a5,5,0,0,0-.84-.25,4.88,4.88,0,0,0-.88-.08,1.91,1.91,0,0,0-1.41.53,2.21,2.21,0,0,0-.51,1.58,2.07,2.07,0,0,0,.51,1.55,1.85,1.85,0,0,0,1.34.5,2.13,2.13,0,0,0,.46,0,1.11,1.11,0,0,0,.35-.1v-1.24H163v-1.14h2.69Z"/><path class="cls-1" d="M168.37,160.58v2.07h-1.43v-6.33h2.24a2.64,2.64,0,0,1,1.79.52,1.93,1.93,0,0,1,.6,1.55,2,2,0,0,1-.69,1.59,2.67,2.67,0,0,1-1.83.6Zm0-3.16v2.08h.56a1.19,1.19,0,0,0,.85-.27,1.19,1.19,0,0,0,0-1.56,1.23,1.23,0,0,0-.85-.25Z"/><path class="cls-1" d="M173.92,162.65H172.5v-6.33h1.42Z"/><path class="cls-1" d="M181.06,162.65h-1.44l-2.61-4c-.08-.12-.14-.22-.19-.31a2,2,0,0,1-.13-.22h0c0,.11,0,.25,0,.42s0,.38,0,.61v3.47h-1.35v-6.33h1.54l2.51,3.86c.06.08.11.17.17.26l.15.25h0q0-.1,0-.33c0-.14,0-.32,0-.54v-3.5h1.35Z"/><path class="cls-1" d="M181.83,162.65l2.3-6.33h1.7l2.25,6.33h-1.56l-.43-1.32H183.8l-.43,1.32Zm2.28-2.43h1.65l-.69-2.2-.07-.22c0-.06,0-.14,0-.24h0c0,.09,0,.16,0,.23s0,.14-.07.21Z"/><path class="cls-1" d="M194.56,162.65h-1.44l-2.61-4-.19-.31-.12-.22h0q0,.16,0,.42v4.08h-1.34v-6.33h1.53l2.52,3.86.16.26c.06.08.11.17.16.25h0a2.38,2.38,0,0,1,0-.33c0-.14,0-.32,0-.54v-3.5h1.34Z"/><path class="cls-1" d="M201.21,162.18a4,4,0,0,1-1,.43,5.15,5.15,0,0,1-1.28.16,3.48,3.48,0,0,1-2.4-.8,3,3,0,0,1-.89-2.38,3.38,3.38,0,0,1,.9-2.41,3.32,3.32,0,0,1,2.52-1,5.59,5.59,0,0,1,1.11.1,5.28,5.28,0,0,1,1.06.32l-.45,1.1a5,5,0,0,0-.84-.25,4.88,4.88,0,0,0-.88-.08,1.91,1.91,0,0,0-1.41.53,2.21,2.21,0,0,0-.51,1.58,2.07,2.07,0,0,0,.51,1.55,1.85,1.85,0,0,0,1.34.5,2.13,2.13,0,0,0,.46,0,1.11,1.11,0,0,0,.35-.1v-1.24h-1.26v-1.14h2.69Z"/><path class="cls-2" d="M117.61,97.3c5.21-3.67,9-8.17,12.74-12.6a80.37,80.37,0,0,1,8.31-8.91,42.63,42.63,0,0,1,4.27-3.28C131.79,79,123.7,89.57,110,94c-10.63,3.43-19.88,2.37-30-1.71C91.18,99.4,105.9,100.45,117.61,97.3Z"/><path class="cls-3" d="M148.76,56.9C116.27,63.26,103.29,100,80.21,92.35A47.7,47.7,0,0,0,95.55,96c24.66-8,42.81-38.28,73.51-33.46,23.88,3.75,31.44,27.6,31.44,27.6C196.07,70.34,175.91,51.59,148.76,56.9Z"/><path class="cls-3" d="M205.08,90.75c2.09-31-24.11-45.54-52.23-42.64L176.61,39s42.64,8,28.47,51.78Z"/><path class="cls-2" d="M213.05,72.46c1.92-4.28-1.62-30.54-26.56-35.27l14.61-2.65s19.47,12.54,12,37.92Z"/><path class="cls-3" d="M217.17,56.28a27.47,27.47,0,0,0-.09-9.22,24.17,24.17,0,0,0-6.64-9c-1.62-.13-3.21-.2-4.78-.24a35.06,35.06,0,0,1,4.63,5.9c3.55,5.69,7,15.11,3.47,27.9a4.1,4.1,0,0,1-.29,1s-.62,1.83-1,1.72.17-2.05.17-2.05c.1-.33.2-.66.29-1,.51-3-.25-10-3.89-17a34.52,34.52,0,0,0-3.39-5.25c-3.89-3.8-9.43-7.39-17.21-10.11-2.06.34-4.05.75-6,1.2,6.17,2.24,15.83,7.06,21.45,16.51,5.46,9.18,6,20.69,1.65,34.19l-1.15,3.58.25-3.75c.83-12.31-2.87-22.8-10.68-30.35-.5-.48-1-.94-1.53-1.39-9.16-6.35-22.13-8.94-36.49-8.25-2.39,1.35-4.48,2.63-6.27,3.76,7.07-1.11,16.54-1,25.08,4.37A44.86,44.86,0,0,1,201,90l-.45.12A45.56,45.56,0,0,1,202,97.24c10.9-10,14.49-27.91,15.58-40.1C217.35,56.86,217.14,56.79,217.17,56.28Z"/><path class="cls-4" d="M168.79,112a102.56,102.56,0,0,0-55.12.16,180.94,180.94,0,0,1,55.12-.16Z"/><path class="cls-2" d="M147.24,102.45a21.27,21.27,0,0,1-.4-4.1,20.58,20.58,0,0,1,41.15,0c0,.47,0,.94-.05,1.4-4.69-24.63-39.13-18.33-40.7,2.7Z"/><path class="cls-4" d="M162.29,107.73a79.78,79.78,0,0,0-38.27,0,206.43,206.43,0,0,1,38.27,0Z"/><path class="cls-3" d="M96.39,105.32c25.82-2.93,31.16-19.21,42.58-29.18a35.11,35.11,0,0,1,25.73-9.08c17.1.82,28.57,17.15,24.34,30.88,0,0,3.94-14.67-14.41-22.31C155.25,67.55,143.5,85,135.19,94.4c-9.92,11.19-23.16,14.16-38.8,10.92Z"/><path class="cls-2" d="M217.62,56.37s2.66-13.27-6.19-19.77l7.82,1.48s2.5,6.93-1.63,18.29Z"/><g class="cls-5"><path d="M207.66,64c-.88-4-3.67-10.16-10.29-16.17a36.54,36.54,0,0,0-14-7.85l-1,.22c6.17,2.24,15.83,7.06,21.45,16.51,5.46,9.18,6,20.69,1.65,34.19l-1.12,3.48v.38C210.3,81.92,209.42,72,207.66,64Z"/><path d="M205.66,37.84a35.06,35.06,0,0,1,4.63,5.9c3.31,5.31,6.51,13.88,4.08,25.4a36.83,36.83,0,0,0,.59-15c-1.24-8.72-8.29-16.11-8.42-16.25Z"/><path d="M194.08,72.51C186.57,61.86,170,56.44,170,56.44h0a30.83,30.83,0,0,1,4.71,2.41A44.86,44.86,0,0,1,201,90l-.45.12A45.56,45.56,0,0,1,202,97.24C202.68,87.54,199.26,79.86,194.08,72.51Z"/><path d="M213.33,71.46c-.09.33-.18.66-.28,1A4.69,4.69,0,0,0,213.33,71.46Z"/><path d="M210.2,53.49C206,45.6,197.59,38.28,188.76,36.78h0l-2.27.41c23.44,4.44,28,27.91,26.84,34.27.31-1.16.57-2.28.78-3.38A37.4,37.4,0,0,0,210.2,53.49Z"/><path d="M205.12,90.11c2.19-18.21-5.59-25.75-8.87-29.38-13.91-15.39-39.18-14.24-39.18-14.24h0l-4.22,1.62c27.93-2.88,54,11.43,52.27,42Z"/><path d="M151.89,56.39c-1,.14-2.07.3-3.13.51-29,5.67-42.46,35.58-61.44,36.47h0c8.34.94,19.52-8.23,25-13.42C133.74,59.85,150.48,56.63,151.89,56.39Z"/><path d="M138.27,75.56c-4.21,4.16-10.5,11-14.47,15.19a64.91,64.91,0,0,1-8.07,7l1.88-.46c5.21-3.67,9-8.17,12.74-12.6a80.37,80.37,0,0,1,8.31-8.91,42.63,42.63,0,0,1,4.27-3.28C141.32,73.45,139.78,74.48,138.27,75.56Z"/></g></svg>