<svg id="Layer_1" data-name="Layer 1" xmlns="http://www.w3.org/2000/svg" viewBox="0 0 180 180"><defs><style>.cls-1{fill:#2c2c64;}.cls-1,.cls-2,.cls-3,.cls-4,.cls-5{fill-rule:evenodd;}.cls-2{fill:#282528;}.cls-3{fill:#e69e1c;}.cls-4{fill:#333;}.cls-5{opacity:0.21;}.cls-6{opacity:0.6;}</style></defs><path class="cls-1" d="M48.35,121.5c6.7-4.71,11.58-10.5,16.38-16.19A102.7,102.7,0,0,1,75.42,93.85a55.81,55.81,0,0,1,5.49-4.22C66.58,98,56.18,111.57,38.6,117.24,24.93,121.65,13,120.28,0,115,14.38,124.21,33.3,125.56,48.35,121.5Z"/><path class="cls-1" d="M88.41,69.56C46.63,77.74,29.94,125,.27,115.14A61.45,61.45,0,0,0,20,119.8c31.71-10.29,55.05-49.22,94.52-43,30.7,4.82,40.41,35.48,40.41,35.48C149.23,86.85,123.31,62.73,88.41,69.56Z"/><path class="cls-2" d="M160.82,113.09c2.69-39.88-31-58.55-67.15-54.82l30.54-11.76S179,56.75,160.82,113.09Z"/><path class="cls-3" d="M171.06,89.56c2.47-5.5-2.08-39.26-34.14-45.33l18.78-3.42s25,16.13,15.36,48.75Z"/><path class="cls-2" d="M176.36,68.77a35,35,0,0,0-.12-11.86,31,31,0,0,0-8.53-11.55c-2.09-.16-4.13-.25-6.14-.31a44.7,44.7,0,0,1,5.94,7.59c4.57,7.32,9,19.43,4.47,35.87a6,6,0,0,1-.37,1.3s-.8,2.35-1.34,2.21.22-2.62.22-2.62q.19-.65.36-1.29c.66-3.79-.31-12.85-5-21.82a43.42,43.42,0,0,0-4.35-6.76c-5-4.87-12.12-9.5-22.12-13-2.65.43-5.21,1-7.69,1.54C139.61,51,152,57.16,159.26,69.31c7,11.8,7.74,26.59,2.13,44l-1.49,4.6.32-4.82c1.07-15.83-3.68-29.32-13.73-39-.64-.62-1.29-1.21-2-1.79-11.77-8.17-28.45-11.5-46.9-10.61-3.08,1.74-5.77,3.39-8.07,4.83,9.09-1.42,21.26-1.26,32.25,5.62a57.7,57.7,0,0,1,33.71,40.05l-.58.16a59,59,0,0,1,1.91,9.14c14-12.88,18.62-35.89,20-51.56C176.59,69.52,176.32,69.43,176.36,68.77Z"/><path class="cls-4" d="M114.15,140.41c-22-6.39-48.81-6.34-70.85.2a232.16,232.16,0,0,1,70.85-.2Z"/><path class="cls-3" d="M86.46,128.13a26.46,26.46,0,1,1,52.38-5.27q0,.9-.06,1.8c-6-31.67-50.31-23.57-52.32,3.47Z"/><path class="cls-5" d="M105.8,134.92a102.48,102.48,0,0,0-49.2-.07,266,266,0,0,1,49.2.07Z"/><path class="cls-1" d="M21.07,131.81c33.2-3.75,40.07-24.7,54.74-37.51A45.2,45.2,0,0,1,108.9,82.62c22,1.06,36.74,22.06,31.3,39.71,0,0,5.06-18.86-18.53-28.69-24.92-10.38-40,12.08-50.71,24.13-12.75,14.4-29.78,18.22-49.89,14Z"/><path class="cls-3" d="M176.94,68.89s3.42-17.07-8-25.42L179,45.37s3.22,8.91-2.09,23.52Z"/><g class="cls-6"><path d="M164.14,78.68c-1.14-5.18-4.73-13.06-13.23-20.8a47,47,0,0,0-18-10.08c-.61.13-.61.14-1.21.28C139.61,51,152,57.16,159.26,69.31c7,11.8,7.74,26.59,2.13,44l-1.45,4.47v.49C167.53,101.73,166.4,89,164.14,78.68Z"/><path d="M161.57,45.05a44.7,44.7,0,0,1,5.94,7.59c4.26,6.84,8.38,17.85,5.25,32.66,1.91-6.86,1.56-13.66.76-19.31-1.59-11.22-10.66-20.71-10.83-20.9Z"/><path d="M146.67,89.63C137,76,115.74,69,115.74,69h0a41.22,41.22,0,0,1,6,3.1,57.7,57.7,0,0,1,33.71,40.05l-.58.16a59,59,0,0,1,1.91,9.14C157.73,109,153.34,99.09,146.67,89.63Z"/><path d="M171.43,88.28c-.12.43-.24.85-.37,1.28A5.68,5.68,0,0,0,171.43,88.28Z"/><path d="M167.39,65.18C162,55,151.19,45.62,139.83,43.7h0l-2.91.53c30.13,5.7,36,35.88,34.51,44.05.4-1.48.73-2.93,1-4.34A48.21,48.21,0,0,0,167.39,65.18Z"/><path d="M160.87,112.26c2.81-23.41-7.19-33.1-11.41-37.78-17.87-19.79-50.37-18.3-50.37-18.3h0l-5.42,2.09c35.9-3.7,69.36,14.68,67.19,54Z"/><path d="M92.44,68.91c-1.33.17-2.67.39-4,.65-37.3,7.3-54.6,45.75-79,46.9h0c10.72,1.2,25.1-10.59,32.2-17.26C69.1,73.36,90.62,69.22,92.44,68.91Z"/><path d="M74.92,93.55c-5.41,5.36-13.5,14.16-18.61,19.54a81.47,81.47,0,0,1-10.37,9c.81-.18,1.62-.38,2.41-.59,6.7-4.71,11.58-10.5,16.38-16.19A102.7,102.7,0,0,1,75.42,93.85a55.81,55.81,0,0,1,5.49-4.22C78.84,90.85,76.86,92.17,74.92,93.55Z"/></g></svg>