<svg id="Layer_1" data-name="Layer 1" xmlns="http://www.w3.org/2000/svg" viewBox="0 0 180 180"><defs><style>.cls-1{fill:#4b4b4b;}.cls-2{fill:gray;}</style></defs><circle class="cls-1" cx="90" cy="14.27" r="14.27"/><path class="cls-1" d="M125.53,16.08c-4.26,4-10.49,9.85-16.12,15A30.3,30.3,0,0,1,90,38.74a30.3,30.3,0,0,1-19.41-7.66c-5.63-5.15-11.86-11-16.12-15a1.21,1.21,0,0,0-1.9,1.44L80.28,70.61a2.09,2.09,0,0,0,1.84,1.11H97.88a2.09,2.09,0,0,0,1.84-1.11l27.71-53.09A1.21,1.21,0,0,0,125.53,16.08Z"/><circle class="cls-1" cx="90" cy="14.27" r="14.27"/><path class="cls-1" d="M125.53,16.08c-4.26,4-10.49,9.85-16.12,15A30.3,30.3,0,0,1,90,38.74a30.3,30.3,0,0,1-19.41-7.66c-5.63-5.15-11.86-11-16.12-15a1.21,1.21,0,0,0-1.9,1.44L80.28,70.61a2.09,2.09,0,0,0,1.84,1.11H97.88a2.09,2.09,0,0,0,1.84-1.11l27.71-53.09A1.21,1.21,0,0,0,125.53,16.08Z"/><circle class="cls-2" cx="24.36" cy="52.16" r="14.27"/><path class="cls-2" d="M43.7,22.3C45,28,47,36.3,48.63,43.76A30.35,30.35,0,0,1,45.55,64.4a30.34,30.34,0,0,1-16.33,13c-7.29,2.3-15.44,4.78-21.06,6.46a1.21,1.21,0,0,0,.3,2.37l59.83,2.54a2.09,2.09,0,0,0,1.89-1l3.94-6.82,3.94-6.82a2.1,2.1,0,0,0,0-2.15L45.9,21.37A1.21,1.21,0,0,0,43.7,22.3Z"/><circle class="cls-1" cx="24.36" cy="127.96" r="14.27"/><path class="cls-1" d="M8.16,96.28c5.62,1.69,13.77,4.16,21.06,6.46a30.34,30.34,0,0,1,16.33,13,30.35,30.35,0,0,1,3.08,20.64C47,143.82,45,152.12,43.7,157.82a1.21,1.21,0,0,0,2.2.93L78,108.2a2.1,2.1,0,0,0,0-2.15l-3.94-6.82-3.94-6.82a2.09,2.09,0,0,0-1.89-1L8.46,93.91A1.21,1.21,0,0,0,8.16,96.28Z"/><circle class="cls-2" cx="90" cy="165.73" r="14.27"/><path class="cls-2" d="M54.47,163.92c4.26-4,10.49-9.85,16.12-15A30.3,30.3,0,0,1,90,141.26a30.3,30.3,0,0,1,19.41,7.66c5.63,5.15,11.86,11,16.12,15a1.21,1.21,0,0,0,1.9-1.44L99.72,109.39a2.09,2.09,0,0,0-1.84-1.11H82.12a2.09,2.09,0,0,0-1.84,1.11L52.57,162.48A1.21,1.21,0,0,0,54.47,163.92Z"/><circle class="cls-1" cx="155.64" cy="127.84" r="14.27"/><path class="cls-1" d="M136.3,157.7c-1.34-5.7-3.28-14-4.93-21.46a28.44,28.44,0,0,1,19.41-33.62c7.29-2.3,15.44-4.78,21.06-6.46a1.21,1.21,0,0,0-.3-2.37l-59.83-2.54a2.09,2.09,0,0,0-1.89,1l-3.94,6.82-3.94,6.82a2.1,2.1,0,0,0,0,2.15l32.11,50.55A1.21,1.21,0,0,0,136.3,157.7Z"/><circle class="cls-2" cx="155.64" cy="52.04" r="14.27"/><path class="cls-2" d="M171.84,83.72c-5.62-1.69-13.77-4.16-21.06-6.46a30.34,30.34,0,0,1-16.33-13,30.35,30.35,0,0,1-3.08-20.64C133,36.18,135,27.88,136.3,22.18a1.21,1.21,0,0,0-2.2-.93L102,71.8a2.1,2.1,0,0,0,0,2.15l3.94,6.82,3.94,6.82a2.09,2.09,0,0,0,1.89,1l59.83-2.54A1.21,1.21,0,0,0,171.84,83.72Z"/></svg>