<svg id="Layer_1" data-name="Layer 1" xmlns="http://www.w3.org/2000/svg" viewBox="0 0 300 180"><defs><style>.cls-1{fill:#bfc1c2;}.cls-2{fill:#d4d5d6;}</style></defs><path class="cls-1" d="M105.24,148v-9.8h2.7a5.59,5.59,0,0,1,3.89,1.19,4.66,4.66,0,0,1,1.3,3.59,4.79,4.79,0,0,1-1.44,3.64,5.34,5.34,0,0,1-3.85,1.38Zm1.15-8.76V147h1.46a4.16,4.16,0,0,0,3-1,3.85,3.85,0,0,0,1.07-2.93,3.67,3.67,0,0,0-1-2.82,4.23,4.23,0,0,0-3-.94Z"/><path class="cls-1" d="M116.2,148h-1.15v-9.8h1.15Z"/><path class="cls-1" d="M126.68,148h-1.41l-5-7.81-.17-.31a3,3,0,0,1-.15-.31h0a2.72,2.72,0,0,1,0,.49c0,.23,0,.51,0,.86V148h-1.15v-9.8h1.49l4.91,7.69c.1.16.19.29.25.4a1.14,1.14,0,0,1,.14.26h0c0-.15,0-.34,0-.58s0-.53,0-.87v-6.9h1.15Z"/><path class="cls-1" d="M128.12,148l3.76-9.8h1.19l3.77,9.8h-1.27l-1-2.62h-4.25L129.4,148Zm2.6-3.66h3.48l-1.58-4.3a1.15,1.15,0,0,1-.08-.26c0-.11,0-.24-.07-.39h0c0,.13-.05.26-.07.37s-.06.2-.09.28Z"/><path class="cls-1" d="M137.43,147.27l.57-.86a4.67,4.67,0,0,0,1.2.57,5.31,5.31,0,0,0,1.4.17,2.42,2.42,0,0,0,1.47-.42,1.58,1.58,0,0,0,.09-2.37,5,5,0,0,0-1.6-.84,6,6,0,0,1-2.05-1.12,2.18,2.18,0,0,1-.66-1.65,2.44,2.44,0,0,1,.86-1.95,3.34,3.34,0,0,1,2.27-.75,6.14,6.14,0,0,1,1.29.14,6.77,6.77,0,0,1,1.3.46l-.43.92a5.2,5.2,0,0,0-1.09-.37,5.27,5.27,0,0,0-1.15-.12,2.17,2.17,0,0,0-1.39.41,1.38,1.38,0,0,0-.52,1.15,1.23,1.23,0,0,0,.48,1,5.25,5.25,0,0,0,1.57.78,5.77,5.77,0,0,1,2.12,1.19,2.42,2.42,0,0,1,.64,1.77,2.6,2.6,0,0,1-.86,2,3.44,3.44,0,0,1-2.42.79,5.94,5.94,0,0,1-1.62-.21A5.78,5.78,0,0,1,137.43,147.27Z"/><path class="cls-1" d="M148.62,147.37l.91-1.71a6.08,6.08,0,0,0,1.29.59,4.24,4.24,0,0,0,1.14.15,1.86,1.86,0,0,0,1.17-.3,1,1,0,0,0,.38-.83,1,1,0,0,0-.3-.78,2.56,2.56,0,0,0-1.11-.45,5.33,5.33,0,0,1-2.39-1.07A2.52,2.52,0,0,1,149,141a2.77,2.77,0,0,1,1-2.12,3.88,3.88,0,0,1,2.7-.87,6.13,6.13,0,0,1,1.42.17,6,6,0,0,1,1.33.48l-.83,1.74a4.93,4.93,0,0,0-1.06-.46,3.69,3.69,0,0,0-.93-.14,1.82,1.82,0,0,0-1,.26.89.89,0,0,0-.37.75.79.79,0,0,0,.34.68,3.62,3.62,0,0,0,1.22.44,4.61,4.61,0,0,1,2.3,1.08,2.77,2.77,0,0,1,.71,2,2.87,2.87,0,0,1-1,2.25,4.15,4.15,0,0,1-2.85.86,7.38,7.38,0,0,1-1.7-.21A6.19,6.19,0,0,1,148.62,147.37Z"/><path class="cls-1" d="M161.41,148.19a4.54,4.54,0,0,1-3.43-1.37,4.88,4.88,0,0,1-1.33-3.57,5.27,5.27,0,0,1,1.35-3.76,4.63,4.63,0,0,1,3.57-1.44,4.42,4.42,0,0,1,3.39,1.38,5.07,5.07,0,0,1,1.3,3.62,5.2,5.2,0,0,1-1.35,3.73A4.6,4.6,0,0,1,161.41,148.19Zm0-1.91a2.21,2.21,0,0,0,1.81-.82,3.51,3.51,0,0,0,.67-2.29,3.86,3.86,0,0,0-.65-2.37,2.12,2.12,0,0,0-1.78-.85,2.19,2.19,0,0,0-1.84.88,4.2,4.2,0,0,0,0,4.61A2.19,2.19,0,0,0,161.45,146.28Z"/><path class="cls-1" d="M167.08,147.37l.92-1.71a6,6,0,0,0,1.28.59,4.26,4.26,0,0,0,1.15.15,1.85,1.85,0,0,0,1.16-.3,1.13,1.13,0,0,0,.08-1.61,2.56,2.56,0,0,0-1.11-.45,5.29,5.29,0,0,1-2.38-1.07,2.49,2.49,0,0,1-.75-1.93,2.77,2.77,0,0,1,1-2.12,3.92,3.92,0,0,1,2.71-.87,6.2,6.2,0,0,1,1.42.17,6.13,6.13,0,0,1,1.32.48l-.82,1.74A5,5,0,0,0,172,140a3.56,3.56,0,0,0-.93-.14,1.78,1.78,0,0,0-1,.26.87.87,0,0,0-.37.75.77.77,0,0,0,.34.68,3.55,3.55,0,0,0,1.21.44,4.61,4.61,0,0,1,2.3,1.08,2.73,2.73,0,0,1,.71,2,2.83,2.83,0,0,1-1,2.25,4.14,4.14,0,0,1-2.84.86,7.47,7.47,0,0,1-1.71-.21A6.34,6.34,0,0,1,167.08,147.37Z"/><path class="cls-1" d="M177.94,148h-2.21v-9.8h2.21Z"/><path class="cls-1" d="M179.11,148l3.57-9.8h2.62l3.49,9.8h-2.41l-.66-2h-3.56l-.65,2Zm3.53-3.77h2.56l-1.08-3.4c0-.14-.07-.25-.09-.35a2.23,2.23,0,0,1-.07-.37h-.05c0,.14,0,.26-.08.36a1.73,1.73,0,0,1-.1.33Z"/><path class="cls-1" d="M195.85,148H190v-9.8h2.21v8h3.63Z"/><path class="cls-1" d="M99.41,160.89h-2l-2-3-.08-.14c0-.07-.06-.15-.11-.25h0v3.37H93.61v-7h1.58v3.25h0l.08-.17c0-.06.07-.14.12-.22l1.93-2.86h1.83l-2.4,3.3Z"/><path class="cls-1" d="M102.77,161a3.26,3.26,0,0,1-2.45-1,3.55,3.55,0,0,1-.95-2.56,3.73,3.73,0,0,1,1-2.68,3.34,3.34,0,0,1,2.55-1,3.2,3.2,0,0,1,2.42,1,4.14,4.14,0,0,1,0,5.25A3.25,3.25,0,0,1,102.77,161Zm0-1.36a1.56,1.56,0,0,0,1.3-.59,2.49,2.49,0,0,0,.47-1.63,2.7,2.7,0,0,0-.46-1.69,1.5,1.5,0,0,0-1.27-.61,1.61,1.61,0,0,0-1.32.62,2.65,2.65,0,0,0-.49,1.65,2.61,2.61,0,0,0,.49,1.65A1.57,1.57,0,0,0,102.8,159.65Z"/><path class="cls-1" d="M111.91,155.17h-2v5.72h-1.58v-5.72h-2v-1.28h5.57Z"/><path class="cls-1" d="M111.41,160.89l2.54-7h1.87l2.49,7H116.6l-.48-1.46h-2.54l-.47,1.46Zm2.52-2.69h1.83l-.78-2.43c0-.1,0-.18-.07-.25s0-.15,0-.26h0c0,.1,0,.18,0,.25s0,.15-.07.24Z"/><path class="cls-1" d="M126.86,155.17h-2v5.72h-1.58v-5.72h-2v-1.28h5.57Z"/><path class="cls-1" d="M126.36,160.89l2.55-7h1.87l2.49,7h-1.72l-.48-1.46h-2.54l-.46,1.46Zm2.52-2.69h1.83l-.77-2.43-.08-.25c0-.07,0-.15,0-.26h0c0,.1,0,.18-.05.25s0,.15-.07.24Z"/><path class="cls-1" d="M140.44,160.89h-1.59l-2.89-4.4-.21-.34a1.62,1.62,0,0,1-.14-.24h0c0,.13,0,.28,0,.47s0,.41,0,.66v3.85h-1.49v-7h1.7l2.78,4.26.18.29.17.28h0q0-.12,0-.36c0-.16,0-.36,0-.6v-3.87h1.49Z"/><path class="cls-1" d="M145,158.6a2.37,2.37,0,0,1-.63,1.8,2.46,2.46,0,0,1-1.79.61,3.09,3.09,0,0,1-.66-.07,2.69,2.69,0,0,1-.68-.22l.48-1.19a2.28,2.28,0,0,0,.36.13,1,1,0,0,0,.36.05.91.91,0,0,0,.71-.26,1.23,1.23,0,0,0,.24-.85l0-4.71H145Z"/><path class="cls-1" d="M152.2,157.86a3.38,3.38,0,0,1-.73,2.37,2.9,2.9,0,0,1-2.21.78,2.79,2.79,0,0,1-2.14-.76,3.36,3.36,0,0,1-.71-2.33v-4H148V158a2.08,2.08,0,0,0,.33,1.28,1.22,1.22,0,0,0,1,.42,1.16,1.16,0,0,0,1-.41,1.92,1.92,0,0,0,.32-1.23v-4.12h1.58Z"/><path class="cls-1" d="M160,160.89h-1.59l-2.88-4.4-.22-.34c-.06-.09-.1-.17-.14-.24h0c0,.13,0,.28,0,.47s0,.41,0,.66v3.85h-1.49v-7h1.7l2.78,4.26.19.29.16.28h0q0-.12,0-.36c0-.16,0-.36,0-.6v-3.87H160Z"/><path class="cls-1" d="M167.37,160.37a4,4,0,0,1-1.13.47,5.27,5.27,0,0,1-1.42.17,3.88,3.88,0,0,1-2.65-.87,3.37,3.37,0,0,1-1-2.64,3.73,3.73,0,0,1,1-2.66,3.65,3.65,0,0,1,2.78-1.07,6.78,6.78,0,0,1,1.23.11,7.39,7.39,0,0,1,1.17.36l-.49,1.22a5.48,5.48,0,0,0-.94-.28,4.92,4.92,0,0,0-1-.09,2.07,2.07,0,0,0-1.55.59,2.43,2.43,0,0,0-.57,1.75,2.3,2.3,0,0,0,.56,1.71,2,2,0,0,0,1.49.55,2.47,2.47,0,0,0,.5,0,1.56,1.56,0,0,0,.4-.11v-1.38h-1.41V156.9h3Z"/><path class="cls-1" d="M170.31,158.6v2.29h-1.58v-7h2.48a3,3,0,0,1,2,.57,2.16,2.16,0,0,1,.66,1.72,2.2,2.2,0,0,1-.76,1.75,3,3,0,0,1-2,.67Zm0-3.5v2.3h.62a1.38,1.38,0,0,0,.95-.29,1.36,1.36,0,0,0,0-1.73,1.44,1.44,0,0,0-.95-.28Z"/><path class="cls-1" d="M176.45,160.89h-1.57v-7h1.57Z"/><path class="cls-1" d="M184.35,160.89h-1.6l-2.88-4.4-.22-.34a1.47,1.47,0,0,1-.13-.24h0c0,.13,0,.28,0,.47s0,.41,0,.66v3.85h-1.49v-7h1.7l2.77,4.26.19.29.17.28h0a2.93,2.93,0,0,1,0-.36c0-.16,0-.36,0-.6v-3.87h1.49Z"/><path class="cls-1" d="M185.19,160.89l2.55-7h1.87l2.49,7h-1.71l-.48-1.46h-2.54l-.47,1.46Zm2.52-2.69h1.84l-.78-2.43-.07-.25a1.43,1.43,0,0,1,0-.26h0c0,.1,0,.18-.05.25s0,.15-.07.24Z"/><path class="cls-1" d="M199.28,160.89h-1.6l-2.88-4.4-.22-.34c-.05-.09-.1-.17-.13-.24h0c0,.13,0,.28,0,.47s0,.41,0,.66v3.85H193v-7h1.7l2.78,4.26.18.29.17.28h0a1.6,1.6,0,0,1,0-.36c0-.16,0-.36,0-.6v-3.87h1.49Z"/><path class="cls-1" d="M206.63,160.37a4.26,4.26,0,0,1-1.13.47,5.32,5.32,0,0,1-1.42.17,3.86,3.86,0,0,1-2.65-.87,3.34,3.34,0,0,1-1-2.64,3.73,3.73,0,0,1,1-2.66,3.65,3.65,0,0,1,2.78-1.07,6.78,6.78,0,0,1,1.23.11,7.49,7.49,0,0,1,1.18.36l-.5,1.22a5.23,5.23,0,0,0-.94-.28,4.92,4.92,0,0,0-1-.09,2.07,2.07,0,0,0-1.55.59,2.43,2.43,0,0,0-.57,1.75,2.26,2.26,0,0,0,.57,1.71,2,2,0,0,0,1.48.55,2.64,2.64,0,0,0,.51,0,1.38,1.38,0,0,0,.39-.11v-1.38h-1.4V156.9h3Z"/><circle class="cls-1" cx="150" cy="27.54" r="8.32"/><path class="cls-1" d="M170.73,28.6c-2.49,2.34-6.12,5.74-9.41,8.75a16.57,16.57,0,0,1-22.64,0c-3.29-3-6.92-6.41-9.41-8.75a.71.71,0,0,0-1.11.84l16.17,31a1.21,1.21,0,0,0,1.07.65h9.2a1.21,1.21,0,0,0,1.07-.65l16.17-31A.71.71,0,0,0,170.73,28.6Z"/><circle class="cls-1" cx="150" cy="27.54" r="8.32"/><path class="cls-1" d="M170.73,28.6c-2.49,2.34-6.12,5.74-9.41,8.75a16.57,16.57,0,0,1-22.64,0c-3.29-3-6.92-6.41-9.41-8.75a.71.71,0,0,0-1.11.84l16.17,31a1.21,1.21,0,0,0,1.07.65h9.2a1.21,1.21,0,0,0,1.07-.65l16.17-31A.71.71,0,0,0,170.73,28.6Z"/><circle class="cls-2" cx="111.71" cy="49.65" r="8.32"/><path class="cls-2" d="M123,32.23c.78,3.33,1.91,8.17,2.88,12.52a17.75,17.75,0,0,1-1.8,12,17.65,17.65,0,0,1-9.53,7.57c-4.25,1.34-9,2.78-12.28,3.77a.71.71,0,0,0,.18,1.38L137.34,71a1.21,1.21,0,0,0,1.1-.6l2.29-4,2.3-4a1.21,1.21,0,0,0,0-1.26L124.27,31.69A.7.7,0,0,0,123,32.23Z"/><circle class="cls-1" cx="111.71" cy="93.86" r="8.32"/><path class="cls-1" d="M102.26,75.38c3.28,1,8,2.43,12.28,3.77a16.59,16.59,0,0,1,11.33,19.61c-1,4.35-2.1,9.2-2.88,12.52a.7.7,0,0,0,1.28.54L143,82.34a1.2,1.2,0,0,0,0-1.25l-2.3-4-2.29-4a1.22,1.22,0,0,0-1.1-.61L102.44,74A.71.71,0,0,0,102.26,75.38Z"/><circle class="cls-2" cx="150" cy="115.9" r="8.32"/><path class="cls-2" d="M129.27,114.84c2.49-2.34,6.12-5.74,9.41-8.75a16.57,16.57,0,0,1,22.64,0c3.29,3,6.92,6.41,9.41,8.75a.71.71,0,0,0,1.11-.84L155.67,83a1.21,1.21,0,0,0-1.07-.65h-9.2a1.21,1.21,0,0,0-1.07.65l-16.17,31A.71.71,0,0,0,129.27,114.84Z"/><circle class="cls-1" cx="188.29" cy="93.79" r="8.32"/><path class="cls-1" d="M177,111.21c-.79-3.32-1.91-8.17-2.88-12.52a16.6,16.6,0,0,1,11.32-19.61c4.25-1.34,9-2.78,12.29-3.77a.71.71,0,0,0-.18-1.38l-34.9-1.48a1.21,1.21,0,0,0-1.1.6l-2.3,4L157,81a1.21,1.21,0,0,0,0,1.26l18.74,29.48A.7.7,0,0,0,177,111.21Z"/><circle class="cls-2" cx="188.29" cy="49.58" r="8.32"/><path class="cls-2" d="M197.74,68.06c-3.28-1-8-2.43-12.29-3.77a17.67,17.67,0,0,1-9.52-7.57,17.69,17.69,0,0,1-1.8-12c1-4.35,2.09-9.2,2.88-12.52a.7.7,0,0,0-1.28-.54L157,61.1a1.21,1.21,0,0,0,0,1.26l2.29,4,2.3,4a1.2,1.2,0,0,0,1.1.61l34.9-1.48A.71.71,0,0,0,197.74,68.06Z"/></svg>