<svg id="Layer_1" data-name="Layer 1" xmlns="http://www.w3.org/2000/svg" viewBox="0 0 300 180"><defs><style>.cls-1{fill:#e0a326;}.cls-2{fill:#282428;}</style></defs><path d="M85.8,148v-9.8h2.71a5.61,5.61,0,0,1,3.89,1.19A4.66,4.66,0,0,1,93.69,143a4.8,4.8,0,0,1-1.44,3.64A5.33,5.33,0,0,1,88.4,148ZM87,139.26V147h1.46a4.17,4.17,0,0,0,3-1A3.89,3.89,0,0,0,92.49,143a3.71,3.71,0,0,0-1-2.82,4.24,4.24,0,0,0-3-.94Z"/><path d="M96.77,148H95.62v-9.8h1.15Z"/><path d="M107.25,148h-1.41l-5-7.81a3.07,3.07,0,0,1-.17-.31,2.92,2.92,0,0,1-.14-.31h0a4.15,4.15,0,0,1,0,.49c0,.23,0,.51,0,.86V148H99.35v-9.8h1.49l4.9,7.69.26.4c.07.11.11.2.14.25h0a3.75,3.75,0,0,1,0-.57c0-.24,0-.53,0-.87v-6.9h1.15Z"/><path d="M108.68,148l3.76-9.8h1.19l3.78,9.8h-1.28l-1-2.62H110.9L110,148Zm2.6-3.66h3.49l-1.59-4.3a1.05,1.05,0,0,1-.07-.26c0-.11,0-.24-.08-.39h0a3.49,3.49,0,0,1-.07.37,1.58,1.58,0,0,1-.08.28Z"/><path d="M118,147.27l.56-.86a4.32,4.32,0,0,0,1.2.56,5,5,0,0,0,1.41.18,2.46,2.46,0,0,0,1.47-.42,1.43,1.43,0,0,0,.58-1.22,1.47,1.47,0,0,0-.49-1.15,5.11,5.11,0,0,0-1.61-.84,5.8,5.8,0,0,1-2-1.12,2.15,2.15,0,0,1-.67-1.65,2.45,2.45,0,0,1,.87-1.95,3.32,3.32,0,0,1,2.27-.75,5.47,5.47,0,0,1,1.28.15,5.92,5.92,0,0,1,1.3.45l-.43.92a5,5,0,0,0-1.09-.37,5.11,5.11,0,0,0-1.14-.12,2.2,2.2,0,0,0-1.4.41,1.41,1.41,0,0,0-.51,1.15,1.24,1.24,0,0,0,.47,1,5.51,5.51,0,0,0,1.57.78,5.83,5.83,0,0,1,2.12,1.19,2.42,2.42,0,0,1,.64,1.77,2.57,2.57,0,0,1-.86,2,3.43,3.43,0,0,1-2.42.8,5.86,5.86,0,0,1-1.61-.22A5.78,5.78,0,0,1,118,147.27Z"/><path d="M132.19,144.81V148H130v-9.8h3.46a4.12,4.12,0,0,1,2.78.8,3,3,0,0,1,.93,2.4,3.11,3.11,0,0,1-1.06,2.45,4.13,4.13,0,0,1-2.85.94Zm0-4.9v3.22h.87a1.88,1.88,0,0,0,1.32-.4,1.57,1.57,0,0,0,.44-1.22,1.5,1.5,0,0,0-.44-1.2,1.88,1.88,0,0,0-1.32-.4Z"/><path d="M144.46,148h-5.88v-9.8h5.66V140h-3.45v2.18H144V144h-3.21v2.24h3.67Z"/><path d="M154.85,148h-2.23l-4-6.16c-.11-.18-.21-.34-.3-.47l-.19-.34h0c0,.17,0,.39.05.65s0,.58,0,.93V148H146v-9.8h2.38l3.89,6,.26.4.24.4h0a4.8,4.8,0,0,1,0-.51c0-.23,0-.51,0-.84v-5.42h2.08Z"/><path d="M157.1,148v-9.8h3.47a5.64,5.64,0,0,1,3.91,1.19,4.63,4.63,0,0,1,1.31,3.59,4.79,4.79,0,0,1-1.43,3.65,5.23,5.23,0,0,1-3.79,1.37Zm2.2-8v6.21h1.1a3,3,0,0,0,2.25-.86,3.31,3.31,0,0,0,.82-2.35,3,3,0,0,0-.81-2.2,3.08,3.08,0,0,0-2.28-.8Z"/><path d="M169.63,148h-2.21v-9.8h2.21Z"/><path d="M171.85,148v-9.8h3.48a5.64,5.64,0,0,1,3.91,1.19,4.63,4.63,0,0,1,1.31,3.59,4.83,4.83,0,0,1-1.43,3.65,5.25,5.25,0,0,1-3.79,1.37Zm2.21-8v6.21h1.1a3,3,0,0,0,2.25-.86,3.31,3.31,0,0,0,.81-2.35,2.93,2.93,0,0,0-.81-2.2,3,3,0,0,0-2.27-.8Z"/><path d="M184.38,148h-2.2v-9.8h2.2Z"/><path d="M194.73,148H192l-2.86-4.18s-.06-.1-.1-.19-.1-.21-.16-.35h0V148h-2.21v-9.8h2.21v4.54h0l.11-.23.17-.31,2.71-4h2.56L191,142.84Z"/><path d="M194.64,148l3.57-9.8h2.62l3.49,9.8h-2.41l-.66-2h-3.56l-.65,2Zm3.53-3.77h2.57l-1.08-3.4a2.45,2.45,0,0,1-.1-.35,2.23,2.23,0,0,1-.07-.37h-.05c0,.14-.05.26-.07.36s-.06.21-.1.33Z"/><path d="M214.36,148h-2.23l-4-6.16-.3-.47c-.08-.14-.15-.25-.19-.34h0c0,.17,0,.39,0,.65s0,.58,0,.93V148h-2.09v-9.8h2.38l3.89,6,.26.4c.08.13.16.26.23.4h0a4.8,4.8,0,0,1,0-.51c0-.23,0-.51,0-.84v-5.42h2.09Z"/><path d="M99.41,160.89h-2l-2-3-.08-.14c0-.07-.06-.15-.11-.25h0v3.37H93.61v-7h1.58v3.25h0l.08-.17c0-.06.07-.14.12-.22l1.93-2.86h1.83l-2.4,3.3Z"/><path d="M102.77,161a3.23,3.23,0,0,1-2.45-1,3.51,3.51,0,0,1-.95-2.55,3.73,3.73,0,0,1,1-2.68,3.34,3.34,0,0,1,2.55-1,3.2,3.2,0,0,1,2.42,1,4.14,4.14,0,0,1,0,5.25A3.25,3.25,0,0,1,102.77,161Zm0-1.36a1.56,1.56,0,0,0,1.3-.59,2.49,2.49,0,0,0,.47-1.63,2.7,2.7,0,0,0-.46-1.69,1.5,1.5,0,0,0-1.27-.61,1.61,1.61,0,0,0-1.32.62,2.65,2.65,0,0,0-.49,1.65,2.61,2.61,0,0,0,.49,1.65A1.57,1.57,0,0,0,102.8,159.65Z"/><path d="M111.91,155.17h-2v5.72h-1.58v-5.72h-2v-1.28h5.57Z"/><path d="M111.41,160.89l2.54-7h1.87l2.49,7H116.6l-.48-1.46h-2.54l-.47,1.46Zm2.52-2.69h1.83l-.78-2.43c0-.1,0-.18-.07-.25s0-.15,0-.26h0c0,.1,0,.18,0,.25s0,.15-.07.24Z"/><path d="M126.86,155.17h-2v5.72h-1.58v-5.72h-2v-1.28h5.57Z"/><path d="M126.36,160.89l2.55-7h1.87l2.49,7h-1.72l-.48-1.46h-2.54l-.46,1.46Zm2.52-2.69h1.83l-.77-2.43-.08-.25c0-.07,0-.15,0-.26h0c0,.1,0,.18-.05.25s0,.15-.07.24Z"/><path d="M140.44,160.89h-1.59l-2.89-4.4-.21-.34a1.62,1.62,0,0,1-.14-.24h0c0,.13,0,.28,0,.47s0,.41,0,.66v3.85h-1.49v-7h1.7l2.78,4.26.18.29.17.28h0q0-.12,0-.36c0-.16,0-.36,0-.6v-3.87h1.49Z"/><path d="M145,158.6a2.37,2.37,0,0,1-.63,1.8,2.46,2.46,0,0,1-1.79.61,3.09,3.09,0,0,1-.66-.07,2.69,2.69,0,0,1-.68-.22l.48-1.19a2.28,2.28,0,0,0,.36.13,1,1,0,0,0,.36.05.91.91,0,0,0,.71-.26,1.23,1.23,0,0,0,.24-.85l0-4.71H145Z"/><path d="M152.2,157.86a3.38,3.38,0,0,1-.73,2.37,2.9,2.9,0,0,1-2.21.78,2.79,2.79,0,0,1-2.14-.76,3.36,3.36,0,0,1-.71-2.33v-4H148V158a2.08,2.08,0,0,0,.33,1.28,1.22,1.22,0,0,0,1,.42,1.16,1.16,0,0,0,1-.41,1.92,1.92,0,0,0,.32-1.23v-4.12h1.58Z"/><path d="M160,160.89h-1.59l-2.88-4.4-.22-.34c-.06-.09-.1-.17-.14-.24h0c0,.13,0,.28,0,.47s0,.41,0,.66v3.85h-1.49v-7h1.7l2.78,4.26.19.29c.06.09.11.19.16.28h0q0-.12,0-.36c0-.16,0-.36,0-.6v-3.87H160Z"/><path d="M167.37,160.37a4,4,0,0,1-1.13.47,5.27,5.27,0,0,1-1.42.17,3.88,3.88,0,0,1-2.65-.87,3.37,3.37,0,0,1-1-2.64,3.73,3.73,0,0,1,1-2.66,3.65,3.65,0,0,1,2.78-1.07,6.78,6.78,0,0,1,1.23.11,7.39,7.39,0,0,1,1.17.36l-.49,1.22a5.48,5.48,0,0,0-.94-.28,4.92,4.92,0,0,0-1-.09,2.07,2.07,0,0,0-1.55.59,2.43,2.43,0,0,0-.57,1.75,2.3,2.3,0,0,0,.56,1.71,2,2,0,0,0,1.49.55,2.47,2.47,0,0,0,.5,0,1.56,1.56,0,0,0,.4-.11v-1.38h-1.41V156.9h3Z"/><path d="M170.31,158.6v2.29h-1.58v-7h2.48a3,3,0,0,1,2,.57,2.16,2.16,0,0,1,.66,1.72,2.2,2.2,0,0,1-.76,1.75,3,3,0,0,1-2,.67Zm0-3.5v2.3h.62a1.38,1.38,0,0,0,.95-.29,1.36,1.36,0,0,0,0-1.73,1.44,1.44,0,0,0-.95-.28Z"/><path d="M176.45,160.89h-1.57v-7h1.57Z"/><path d="M184.35,160.89h-1.6l-2.88-4.4-.22-.34a1.47,1.47,0,0,1-.13-.24h0c0,.13,0,.28,0,.47s0,.41,0,.66v3.85h-1.49v-7h1.7l2.77,4.26.19.29.17.28h0a2.93,2.93,0,0,1,0-.36c0-.16,0-.36,0-.6v-3.87h1.49Z"/><path d="M185.19,160.89l2.55-7h1.87l2.49,7h-1.71l-.48-1.46h-2.54l-.47,1.46Zm2.52-2.69h1.84l-.78-2.43-.07-.25a1.43,1.43,0,0,1,0-.26h0c0,.1,0,.18-.05.25s0,.15-.07.24Z"/><path d="M199.28,160.89h-1.6l-2.88-4.4-.22-.34c-.05-.09-.1-.17-.13-.24h0c0,.13,0,.28,0,.47s0,.41,0,.66v3.85H193v-7h1.7l2.78,4.26.18.29.17.28h0a1.6,1.6,0,0,1,0-.36c0-.16,0-.36,0-.6v-3.87h1.49Z"/><path d="M206.63,160.37a4.26,4.26,0,0,1-1.13.47,5.32,5.32,0,0,1-1.42.17,3.86,3.86,0,0,1-2.65-.87,3.34,3.34,0,0,1-1-2.64,3.73,3.73,0,0,1,1-2.66,3.65,3.65,0,0,1,2.78-1.07,6.78,6.78,0,0,1,1.23.11,7.49,7.49,0,0,1,1.18.36l-.5,1.22a5.23,5.23,0,0,0-.94-.28,4.92,4.92,0,0,0-1-.09,2.07,2.07,0,0,0-1.55.59,2.43,2.43,0,0,0-.57,1.75,2.26,2.26,0,0,0,.57,1.71,2,2,0,0,0,1.48.55,2.64,2.64,0,0,0,.51,0,1.38,1.38,0,0,0,.39-.11v-1.38h-1.4V156.9h3Z"/><path class="cls-1" d="M187.37,81.47c-.6-7.78-17.1-14-37.37-14s-36.77,6.23-37.37,14h0V105.8c0,8,16.74,14.44,37.4,14.44s37.4-6.47,37.4-14.44V81.47ZM150,111.72c-17.68,0-32-3.88-32-8.66s14.34-8.67,32-8.67,32,3.88,32,8.67S167.68,111.72,150,111.72Z"/><path class="cls-2" d="M91.92,93.27a7.42,7.42,0,0,0-1.75-5.14V70.57l15,6.54C108.45,66,127.27,57.5,150,57.5S191.55,66,194.83,77.11l38.3-16.7L150,22.62,66.87,60.41l19.54,8.52h0v19.2a8.45,8.45,0,0,0,0,10.27v9a7.46,7.46,0,0,0-1.74,5.13c0,1.88,1.49,3.55,2.89,7.69h1.77c.71-4.31,2.62-4.7,2.59-7.69a7.41,7.41,0,0,0-1.75-5.13v-9A7.41,7.41,0,0,0,91.92,93.27Z"/></svg>