<svg id="Layer_1" data-name="Layer 1" xmlns="http://www.w3.org/2000/svg" viewBox="0 0 300 180"><defs><style>.cls-1,.cls-3{font-size:13px;}.cls-1{font-family:SegoeUI-Semilight, Segoe UI;font-weight:300;}.cls-2,.cls-3,.cls-4{font-family:SegoeUI-Bold, Segoe UI;font-weight:700;}.cls-4{font-size:9.04px;}.cls-5{letter-spacing:-0.03em;}.cls-6{letter-spacing:-0.04em;}.cls-7{letter-spacing:-0.07em;}.cls-8{letter-spacing:-0.07em;}.cls-9{fill:#4b4b4b;}.cls-10{fill:#282428;}.cls-11{fill:#2d1b63;}.cls-12{fill:#e0a326;}</style></defs><text class="cls-1" transform="translate(60.47 133.74)">DINAS <tspan class="cls-2" x="40.14" y="0">KEPENDUDUKAN DAN</tspan></text><text class="cls-3" transform="translate(90.02 149.34)">PENCATATAN SIPIL</text><text class="cls-4" transform="translate(98.27 162.66)"><tspan class="cls-5">K</tspan><tspan class="cls-6" x="5.62" y="0">O</tspan><tspan class="cls-7" x="12.11" y="0">T</tspan><tspan x="16.79" y="0">A </tspan><tspan class="cls-8" x="25.64" y="0">T</tspan><tspan x="30.32" y="0">ANJUNGPINANG</tspan></text><path class="cls-9" d="M144.34,50.17a14.78,14.78,0,0,0-13.19,8.1,18.53,18.53,0,0,1,5.66,10.35,18.5,18.5,0,0,1,22.05-6.39A14.78,14.78,0,0,0,144.34,50.17Z"/><circle class="cls-10" cx="118.55" cy="71.87" r="14.78"/><circle class="cls-10" cx="151.88" cy="79.41" r="14.78"/><path class="cls-10" d="M162.57,94.51a18.29,18.29,0,0,1-21.38,0s-9.12,6-7.55,15.72c.69,4.27,9.25,6.43,17.92,6.43s17.36-2.14,18.56-6.43C172.32,102.37,162.57,94.51,162.57,94.51Z"/><path class="cls-10" d="M135.49,94.48A27.64,27.64,0,0,0,129.24,87a18.29,18.29,0,0,1-21.38,0s-9.12,6-7.55,15.72c.69,4.27,9.25,6.43,17.92,6.43a43.07,43.07,0,0,0,11.46-1.42A19.71,19.71,0,0,1,135.49,94.48Z"/><path class="cls-10" d="M192.13,79.41a18.29,18.29,0,0,1-21.38,0l-.32.23a18.48,18.48,0,0,1-5,12.38,30.79,30.79,0,0,1,6.92,8.75,45.71,45.71,0,0,0,8.73.79c8.62,0,17.35-2.13,18.56-6.43C201.88,87.27,192.13,79.41,192.13,79.41Z"/><path class="cls-11" d="M114.46,46.71a18.79,18.79,0,0,1,.33-3.46h0A14.78,14.78,0,0,0,100,58a14.63,14.63,0,0,0,1.51,6.51,18.6,18.6,0,0,1,14.26-11A18.35,18.35,0,0,1,114.46,46.71Z"/><path class="cls-11" d="M158.8,39.48a14.67,14.67,0,0,0-7.9,2.29,18.76,18.76,0,0,1,.67,4.94c0,.38,0,.76,0,1.14a18.59,18.59,0,0,1,11.35,16.63l-.31-.21a18.57,18.57,0,0,1,3.29,3,14.78,14.78,0,0,0-7.06-27.76Z"/><path class="cls-12" d="M181.44,49.54a14.76,14.76,0,0,0-4.53.71,18.25,18.25,0,0,1,.44,4,18.57,18.57,0,0,1-9.3,16.07l-.37-.62a14.78,14.78,0,1,0,13.76-20.17Z"/><path class="cls-9" d="M181.44,28.16a14.26,14.26,0,0,0-1.74.11,18.54,18.54,0,0,1-2,17.9,18.78,18.78,0,0,1,3.78-.4A18.48,18.48,0,0,1,194,50.7a14.78,14.78,0,0,0-12.58-22.54Z"/><path class="cls-12" d="M114.78,39.48c.38,0,.76,0,1.14,0h0A18.57,18.57,0,0,1,133,28.16a19.12,19.12,0,0,1,2.28.14,14.78,14.78,0,0,0-27.75,7.09,14.62,14.62,0,0,0,.94,5.19A18.44,18.44,0,0,1,114.78,39.48Z"/><polygon class="cls-12" points="114.79 43.25 114.79 43.25 114.79 43.25 114.79 43.25"/><path class="cls-10" d="M149.92,39.08v0Z"/><path class="cls-10" d="M150.29,40v0Z"/><path class="cls-10" d="M162.57,20.61a14.78,14.78,0,0,0-14.78,14.78s0,.09,0,.13a18.86,18.86,0,0,1,1.7,2.7,18.51,18.51,0,0,1,24.9,6,14.78,14.78,0,0,0-11.83-23.64Z"/><path class="cls-10" d="M150.62,40.86v0Z"/><path class="cls-10" d="M144.34,13.07a14.76,14.76,0,0,0-12.28,6.54,1.71,1.71,0,0,0-.23-.13,18.61,18.61,0,0,1,8.08,10h0A18.27,18.27,0,0,1,144.33,32a18.65,18.65,0,0,1,11.22-13.81A14.76,14.76,0,0,0,144.34,13.07Z"/><path class="cls-10" d="M128.11,56a18.58,18.58,0,0,1,19.68-9.25h0a14.78,14.78,0,1,0-28,6.65,18.45,18.45,0,0,1,8.77,2.92Z"/></svg>