<svg id="Layer_1" data-name="Layer 1" xmlns="http://www.w3.org/2000/svg" viewBox="0 0 180 180"><defs><style>.cls-1{fill:gray;}.cls-2{fill:#4b4b4b;}</style></defs><path class="cls-1" d="M80.16,64.33a25.67,25.67,0,0,0-22.9,14.08,32.17,32.17,0,0,1,9.83,18A32.18,32.18,0,0,1,105.4,85.28,25.68,25.68,0,0,0,80.16,64.33Z"/><circle class="cls-2" cx="35.36" cy="102.03" r="25.68"/><circle class="cls-2" cx="93.28" cy="115.15" r="25.68"/><path class="cls-2" d="M111.85,141.37q-9.28,6-18.57,6t-18.58-6s-15.84,10.38-13.11,27.32c1.2,7.43,16.07,11.17,31.13,11.17s30.16-3.7,32.25-11.17C128.79,155,111.85,141.37,111.85,141.37Z"/><path class="cls-2" d="M64.79,141.33a48.23,48.23,0,0,0-10.85-13.07q-9.28,6-18.58,6t-18.58-6S.94,138.64,3.67,155.58c1.2,7.42,16.07,11.17,31.14,11.17a74.78,74.78,0,0,0,19.9-2.47C54.86,154,60.23,146.13,64.79,141.33Z"/><path class="cls-2" d="M163.21,115.15q-9.28,6-18.57,6t-18.58-6s-.21.13-.56.39a32.11,32.11,0,0,1-8.6,21.52,53.37,53.37,0,0,1,12,15.2,80.51,80.51,0,0,0,15.17,1.37c15,0,30.16-3.7,32.25-11.16C180.15,128.81,163.21,115.15,163.21,115.15Z"/><path class="cls-2" d="M28.26,58.32a32.23,32.23,0,0,1,.57-6h0a25.7,25.7,0,0,0-23.06,37A32.34,32.34,0,0,1,30.52,70.16,32.14,32.14,0,0,1,28.26,58.32Z"/><path class="cls-2" d="M105.3,45.76a25.57,25.57,0,0,0-13.74,4,32,32,0,0,1,1.17,8.58q0,1-.06,2a32.3,32.3,0,0,1,19.71,28.9c-.17-.13-.35-.24-.52-.36A32.55,32.55,0,0,1,117.57,94,25.68,25.68,0,0,0,105.3,45.76Z"/><path class="cls-1" d="M144.64,63.24a25.87,25.87,0,0,0-7.87,1.23,32.71,32.71,0,0,1,.76,7,32.23,32.23,0,0,1-16.16,27.92c-.2-.36-.42-.71-.64-1.07a25.68,25.68,0,1,0,23.91-35.05Z"/><path class="cls-2" d="M144.64,26.09a27.2,27.2,0,0,0-3,.19,32.16,32.16,0,0,1-3.56,31.11,31.73,31.73,0,0,1,6.58-.71,32.13,32.13,0,0,1,21.85,8.57,25.67,25.67,0,0,0-21.85-39.16Z"/><path class="cls-1" d="M28.81,45.76c.66,0,1.32,0,2,.06h0A32.18,32.18,0,0,1,64.46,26.34,25.69,25.69,0,0,0,17.87,47.67,32,32,0,0,1,28.81,45.76Z"/><polygon class="cls-1" points="28.83 52.32 28.83 52.31 28.83 52.31 28.83 52.32"/><path class="cls-2" d="M89.86,45.06v0Z"/><path class="cls-2" d="M90.51,46.59v0Z"/><path class="cls-2" d="M111.85,13A25.68,25.68,0,0,0,86.17,38.65a1.79,1.79,0,0,0,0,.23,33.24,33.24,0,0,1,3,4.68A32.16,32.16,0,0,1,132.41,54,25.68,25.68,0,0,0,111.85,13Z"/><path class="cls-2" d="M91.08,48.15v0Z"/><path class="cls-2" d="M80.16-.14A25.64,25.64,0,0,0,58.84,11.23l-.4-.23a32.36,32.36,0,0,1,14,17.4h0a32.34,32.34,0,0,1,7.69,4.41,32.34,32.34,0,0,1,19.49-24A25.63,25.63,0,0,0,80.16-.14Z"/><path class="cls-2" d="M52,74.41a32.17,32.17,0,0,1,34.2-16.06v0a25.68,25.68,0,1,0-48.6,11.56A32,32,0,0,1,52.8,75C52.52,74.77,52.25,74.58,52,74.41Z"/></svg>