<svg id="Layer_1" data-name="Layer 1" xmlns="http://www.w3.org/2000/svg" viewBox="0 0 180 180"><defs><style>.cls-1{fill:#e0a326;}.cls-2{fill:#282428;}</style></defs><path class="cls-1" d="M130.46,100.87C129.81,92.45,112,85.71,90,85.71s-39.81,6.74-40.46,15.16h0v26.34c0,8.63,18.13,15.63,40.49,15.63s40.49-7,40.49-15.63V100.87ZM90,133.62c-19.14,0-34.66-4.2-34.66-9.38s15.52-9.38,34.66-9.38,34.66,4.2,34.66,9.38S109.14,133.62,90,133.62Z"/><path class="cls-2" d="M27.12,113.64a8.06,8.06,0,0,0-1.89-5.56v-19l16.24,7.08C45,84.13,65.39,74.91,90,74.91s45,9.22,48.53,21.24L180,78.07,90,37.16,0,78.07l21.16,9.22h0v20.79a9.12,9.12,0,0,0,0,11.12V129a8.06,8.06,0,0,0-1.89,5.56c0,2,1.61,3.84,3.13,8.32h1.91c.78-4.66,2.84-5.08,2.81-8.32A8.06,8.06,0,0,0,25.23,129V119.2A8.06,8.06,0,0,0,27.12,113.64Z"/></svg>