<svg id="Layer_1" data-name="Layer 1" xmlns="http://www.w3.org/2000/svg" viewBox="0 0 300 180"><defs><style>.cls-1{fill:#4b4b4b;}.cls-2{fill:#bfc1c2;}.cls-3{fill:#fff;}</style></defs><path class="cls-1" d="M75.58,148v-9.8h2.71a5.61,5.61,0,0,1,3.89,1.19A4.66,4.66,0,0,1,83.47,143,4.8,4.8,0,0,1,82,146.64,5.33,5.33,0,0,1,78.18,148Zm1.15-8.76V147h1.46a4.17,4.17,0,0,0,3-1A3.89,3.89,0,0,0,82.27,143a3.71,3.71,0,0,0-1-2.82,4.24,4.24,0,0,0-3-.94Z"/><path class="cls-1" d="M86.55,148H85.4v-9.8h1.15Z"/><path class="cls-1" d="M97,148H95.62l-5.05-7.81a3.07,3.07,0,0,1-.17-.31,2.92,2.92,0,0,1-.14-.31h0a4.15,4.15,0,0,1,0,.49c0,.23,0,.51,0,.86V148H89.13v-9.8h1.49l4.9,7.69.26.4c.07.11.11.2.14.25h0c0-.14,0-.33,0-.57s0-.53,0-.87v-6.9H97Z"/><path class="cls-1" d="M98.46,148l3.76-9.8h1.19l3.78,9.8h-1.28l-1-2.62h-4.24L99.74,148Zm2.6-3.66h3.49l-1.59-4.3a1.05,1.05,0,0,1-.07-.26c0-.11,0-.24-.08-.39h0a3.49,3.49,0,0,1-.07.37,1.58,1.58,0,0,1-.08.28Z"/><path class="cls-1" d="M107.78,147.27l.56-.86a4.32,4.32,0,0,0,1.2.56,5,5,0,0,0,1.41.18,2.46,2.46,0,0,0,1.47-.42,1.43,1.43,0,0,0,.58-1.22,1.47,1.47,0,0,0-.49-1.15,5.11,5.11,0,0,0-1.61-.84,5.8,5.8,0,0,1-2-1.12,2.15,2.15,0,0,1-.67-1.65,2.45,2.45,0,0,1,.87-1.95,3.32,3.32,0,0,1,2.27-.75,6,6,0,0,1,1.28.14,6.55,6.55,0,0,1,1.3.46l-.43.92a5,5,0,0,0-1.09-.37,5.11,5.11,0,0,0-1.14-.12,2.2,2.2,0,0,0-1.4.41,1.41,1.41,0,0,0-.51,1.15,1.24,1.24,0,0,0,.47,1,5.51,5.51,0,0,0,1.57.78,5.69,5.69,0,0,1,2.12,1.19,2.42,2.42,0,0,1,.64,1.77,2.57,2.57,0,0,1-.86,2,3.43,3.43,0,0,1-2.42.79,5.86,5.86,0,0,1-1.61-.21A5.78,5.78,0,0,1,107.78,147.27Z"/><path class="cls-1" d="M122,144.81V148h-2.21v-9.8h3.46a4.12,4.12,0,0,1,2.78.8,3,3,0,0,1,.93,2.4,3.11,3.11,0,0,1-1.06,2.45,4.13,4.13,0,0,1-2.85.94Zm0-4.9v3.22h.87a1.88,1.88,0,0,0,1.32-.4,1.56,1.56,0,0,0,.44-1.22,1.5,1.5,0,0,0-.44-1.2,1.93,1.93,0,0,0-1.32-.4Z"/><path class="cls-1" d="M134.24,148h-5.88v-9.8H134V140h-3.45v2.18h3.21V144h-3.21v2.24h3.67Z"/><path class="cls-1" d="M143.78,148h-2.5l-1.3-2.41a3.59,3.59,0,0,0-.63-.89,1.21,1.21,0,0,0-.73-.34H138V148h-2.21v-9.8h3.5a4.34,4.34,0,0,1,2.68.69,2.46,2.46,0,0,1,.89,2.08,2.62,2.62,0,0,1-.57,1.69,3.32,3.32,0,0,1-1.57,1v0a1.78,1.78,0,0,1,.81.57,5.45,5.45,0,0,1,.65.91ZM138,139.87v2.84h1a1.55,1.55,0,0,0,1.15-.43,1.44,1.44,0,0,0,.43-1.07,1.27,1.27,0,0,0-.38-1,1.69,1.69,0,0,0-1.16-.34Z"/><path class="cls-1" d="M153.44,148h-2.22v-4h-4.06v4H145v-9.8h2.21v3.91h4.06v-3.91h2.22Z"/><path class="cls-1" d="M163.67,143.78a4.69,4.69,0,0,1-1,3.31,4,4,0,0,1-3.08,1.1,3.89,3.89,0,0,1-3-1.08,4.65,4.65,0,0,1-1-3.25v-5.64h2.22v5.69a2.87,2.87,0,0,0,.46,1.78,1.94,1.94,0,0,0,2.77,0,2.76,2.76,0,0,0,.45-1.72v-5.77h2.21Z"/><path class="cls-1" d="M165.8,148v-9.8h3.57a4.34,4.34,0,0,1,2.52.62,2,2,0,0,1,.89,1.76,2.15,2.15,0,0,1-.47,1.37,2.5,2.5,0,0,1-1.21.83v0a2.39,2.39,0,0,1,1.51.74,2.24,2.24,0,0,1,.56,1.53,2.6,2.6,0,0,1-1,2.13,4,4,0,0,1-2.63.79Zm2.21-8.17v2.39h1a1.62,1.62,0,0,0,1.08-.33,1.12,1.12,0,0,0,.39-.9,1,1,0,0,0-.4-.87,2,2,0,0,0-1.21-.29Zm0,4v2.51h1.2a1.83,1.83,0,0,0,1.2-.35,1.19,1.19,0,0,0,.43-1,1,1,0,0,0-.42-.87,1.94,1.94,0,0,0-1.2-.32Z"/><path class="cls-1" d="M182.77,143.78a4.69,4.69,0,0,1-1,3.31,4,4,0,0,1-3.08,1.1,3.89,3.89,0,0,1-3-1.08,4.65,4.65,0,0,1-1-3.25v-5.64h2.22v5.69a2.87,2.87,0,0,0,.46,1.78,1.94,1.94,0,0,0,2.77,0,2.76,2.76,0,0,0,.45-1.72v-5.77h2.21Z"/><path class="cls-1" d="M193.72,148h-2.23l-4-6.16-.3-.47-.19-.34h0a5.49,5.49,0,0,1,0,.65c0,.27,0,.58,0,.93V148H184.9v-9.8h2.38l3.89,6,.26.4c.08.13.16.26.23.4h0a4.8,4.8,0,0,1,0-.51c0-.23,0-.51,0-.84v-5.42h2.08Z"/><path class="cls-1" d="M204,147.28a6,6,0,0,1-1.58.67,7.7,7.7,0,0,1-2,.24,5.39,5.39,0,0,1-3.71-1.23,4.65,4.65,0,0,1-1.38-3.68,5.27,5.27,0,0,1,1.4-3.74,5.12,5.12,0,0,1,3.9-1.49,8.42,8.42,0,0,1,1.71.16,8.79,8.79,0,0,1,1.65.5l-.69,1.71A7.45,7.45,0,0,0,202,140a7.32,7.32,0,0,0-1.36-.12,2.9,2.9,0,0,0-2.18.82,3.41,3.41,0,0,0-.8,2.45,3.2,3.2,0,0,0,.8,2.4,2.86,2.86,0,0,0,2.07.77,3.88,3.88,0,0,0,.72-.06,1.92,1.92,0,0,0,.54-.15V144.2h-2v-1.76H204Z"/><path class="cls-1" d="M204.86,148l3.57-9.8h2.62l3.49,9.8h-2.41l-.66-2h-3.56l-.65,2Zm3.53-3.77H211l-1.08-3.4a2.45,2.45,0,0,1-.1-.35,2.23,2.23,0,0,1-.07-.37h-.05c0,.14,0,.26-.07.36s-.06.21-.1.33Z"/><path class="cls-1" d="M224.58,148h-2.23l-4-6.16-.3-.47c-.08-.14-.15-.25-.19-.34h0c0,.17,0,.39,0,.65s0,.58,0,.93V148h-2.09v-9.8h2.38l3.89,6,.26.4c.08.13.16.26.23.4h0a4.8,4.8,0,0,1,0-.51c0-.23,0-.51,0-.84v-5.42h2.09Z"/><path class="cls-1" d="M99.41,160.89h-2l-2-3-.08-.14c0-.07-.06-.15-.11-.25h0v3.37H93.61v-7h1.58v3.25h0l.08-.17c0-.06.07-.14.12-.22l1.93-2.86h1.83l-2.4,3.3Z"/><path class="cls-1" d="M102.77,161a3.26,3.26,0,0,1-2.45-1,3.55,3.55,0,0,1-.95-2.56,3.73,3.73,0,0,1,1-2.68,3.34,3.34,0,0,1,2.55-1,3.17,3.17,0,0,1,2.42,1,3.58,3.58,0,0,1,.92,2.58,3.65,3.65,0,0,1-1,2.66A3.25,3.25,0,0,1,102.77,161Zm0-1.36a1.56,1.56,0,0,0,1.3-.59,2.49,2.49,0,0,0,.47-1.63,2.72,2.72,0,0,0-.46-1.69,1.5,1.5,0,0,0-1.27-.61,1.61,1.61,0,0,0-1.32.62,2.65,2.65,0,0,0-.49,1.65,2.59,2.59,0,0,0,.49,1.65A1.57,1.57,0,0,0,102.8,159.65Z"/><path class="cls-1" d="M111.91,155.18h-2v5.71h-1.58v-5.71h-2v-1.29h5.57Z"/><path class="cls-1" d="M111.41,160.89l2.54-7h1.87l2.49,7H116.6l-.48-1.46h-2.54l-.47,1.46Zm2.52-2.69h1.83l-.78-2.43c0-.1,0-.18-.07-.25s0-.15,0-.26h0c0,.1,0,.18,0,.25s0,.15-.07.24Z"/><path class="cls-1" d="M126.86,155.18h-2v5.71h-1.58v-5.71h-2v-1.29h5.57Z"/><path class="cls-1" d="M126.36,160.89l2.55-7h1.87l2.49,7h-1.72l-.48-1.46h-2.54l-.46,1.46Zm2.52-2.69h1.83l-.77-2.43-.08-.25c0-.07,0-.15,0-.26h0c0,.1,0,.18-.05.25s0,.15-.07.24Z"/><path class="cls-1" d="M140.44,160.89h-1.59l-2.89-4.4-.21-.34a1.62,1.62,0,0,1-.14-.24h0c0,.13,0,.28,0,.47s0,.41,0,.67v3.84h-1.49v-7h1.7l2.78,4.26.18.29.17.28h0q0-.12,0-.36c0-.16,0-.36,0-.6v-3.87h1.49Z"/><path class="cls-1" d="M145,158.6a2.37,2.37,0,0,1-.63,1.8,2.46,2.46,0,0,1-1.79.61,3.09,3.09,0,0,1-.66-.07,2.69,2.69,0,0,1-.68-.22l.48-1.19a2.28,2.28,0,0,0,.36.13,1,1,0,0,0,.36.05.87.87,0,0,0,.71-.26,1.22,1.22,0,0,0,.24-.85l0-4.71H145Z"/><path class="cls-1" d="M152.2,157.86a3.38,3.38,0,0,1-.73,2.37,2.9,2.9,0,0,1-2.21.78,2.79,2.79,0,0,1-2.14-.76,3.36,3.36,0,0,1-.71-2.33v-4H148V158a2.08,2.08,0,0,0,.33,1.28,1.22,1.22,0,0,0,1,.42,1.16,1.16,0,0,0,1-.41,1.92,1.92,0,0,0,.32-1.23v-4.12h1.58Z"/><path class="cls-1" d="M160,160.89h-1.59l-2.88-4.4-.22-.34c-.06-.09-.1-.17-.14-.24h0c0,.13,0,.28,0,.47s0,.41,0,.67v3.84h-1.49v-7h1.7l2.78,4.26.19.29.16.28h0q0-.12,0-.36c0-.16,0-.36,0-.6v-3.87H160Z"/><path class="cls-1" d="M167.37,160.37a4,4,0,0,1-1.13.47,5.27,5.27,0,0,1-1.42.17,3.88,3.88,0,0,1-2.65-.87,3.37,3.37,0,0,1-1-2.64,3.73,3.73,0,0,1,1-2.66,3.65,3.65,0,0,1,2.78-1.07,6.78,6.78,0,0,1,1.23.11,7.39,7.39,0,0,1,1.17.36l-.49,1.22a5.48,5.48,0,0,0-.94-.28,4.92,4.92,0,0,0-1-.09,2.07,2.07,0,0,0-1.55.59,2.43,2.43,0,0,0-.57,1.75,2.3,2.3,0,0,0,.56,1.71,2,2,0,0,0,1.49.55,2.47,2.47,0,0,0,.5,0,1.56,1.56,0,0,0,.4-.11v-1.38h-1.41V156.9h3Z"/><path class="cls-1" d="M170.31,158.6v2.29h-1.58v-7h2.48a3,3,0,0,1,2,.57,2.16,2.16,0,0,1,.66,1.72,2.2,2.2,0,0,1-.76,1.75,2.93,2.93,0,0,1-2,.67Zm0-3.5v2.3h.62a1.34,1.34,0,0,0,.95-.29,1.11,1.11,0,0,0,.31-.87,1.07,1.07,0,0,0-.31-.85,1.38,1.38,0,0,0-.95-.29Z"/><path class="cls-1" d="M176.45,160.89h-1.57v-7h1.57Z"/><path class="cls-1" d="M184.35,160.89h-1.6l-2.88-4.4-.22-.34a1.47,1.47,0,0,1-.13-.24h0c0,.13,0,.28,0,.47s0,.41,0,.67v3.84h-1.49v-7h1.7l2.77,4.26.19.29.17.28h0a2.93,2.93,0,0,1,0-.36c0-.16,0-.36,0-.6v-3.87h1.49Z"/><path class="cls-1" d="M185.19,160.89l2.55-7h1.87l2.49,7h-1.71l-.48-1.46h-2.54l-.47,1.46Zm2.52-2.69h1.84l-.78-2.43-.07-.25a1.43,1.43,0,0,1,0-.26h0c0,.1,0,.18-.05.25s0,.15-.07.24Z"/><path class="cls-1" d="M199.28,160.89h-1.6l-2.88-4.4-.22-.34c-.05-.09-.1-.17-.13-.24h0c0,.13,0,.28,0,.47s0,.41,0,.67v3.84H193v-7h1.7l2.78,4.26.18.29.17.28h0a1.6,1.6,0,0,1,0-.36c0-.16,0-.36,0-.6v-3.87h1.49Z"/><path class="cls-1" d="M206.63,160.37a4.26,4.26,0,0,1-1.13.47,5.32,5.32,0,0,1-1.42.17,3.86,3.86,0,0,1-2.65-.87,3.34,3.34,0,0,1-1-2.64,3.73,3.73,0,0,1,1-2.66,3.65,3.65,0,0,1,2.78-1.07,6.78,6.78,0,0,1,1.23.11,7.49,7.49,0,0,1,1.18.36l-.5,1.22a5.23,5.23,0,0,0-.94-.28,4.92,4.92,0,0,0-1-.09,2.07,2.07,0,0,0-1.55.59,2.43,2.43,0,0,0-.57,1.75,2.26,2.26,0,0,0,.57,1.71,2,2,0,0,0,1.48.55,2.64,2.64,0,0,0,.51,0,1.38,1.38,0,0,0,.39-.11v-1.38h-1.4V156.9h3Z"/><path class="cls-2" d="M148.58,130.53a2,2,0,0,0-.2-.9,40.28,40.28,0,0,0-5.62-10,21.9,21.9,0,0,0-9.15-6.87,56.24,56.24,0,0,1-7.92-3.66A49,49,0,0,1,112,97.28a48.52,48.52,0,0,1,40.37-78.69,47.66,47.66,0,0,1,17.22,4,48.43,48.43,0,0,1,28.85,40.65,56.41,56.41,0,0,1,.07,6.5c0,.31-.1.37-.38.36-.69,0-1.38,0-2.07,0-.22,0-.29.06-.31.29,0,.61-.09,1.23-.17,1.84,0,.22.06.26.23.29l2.1.38c.24,0,.34.11.3.38a56.11,56.11,0,0,1-1.24,6.3c-.07.26-.18.28-.39.24-.68-.13-1.36-.24-2-.38-.25,0-.37,0-.45.25a41,41,0,0,1-2.16,6c-.09.19-.06.27.13.37.64.32,1.27.67,1.92,1,.19.1.25.17.14.39a51,51,0,0,1-3.1,5.67c-.13.2-.21.24-.43.12-.62-.35-1.26-.66-1.88-1-.21-.12-.31-.08-.44.12a43.38,43.38,0,0,1-3.85,5c-.13.15-.13.23,0,.36.53.52,1,1,1.56,1.56.15.15.16.24,0,.4a51.54,51.54,0,0,1-4.7,4.53c-.16.14-.24.1-.37,0-.5-.52-1-1-1.52-1.54-.14-.15-.24-.2-.42,0a44.93,44.93,0,0,1-5.14,3.63c-.18.11-.2.2-.1.38.35.63.66,1.28,1,1.92.11.21.06.29-.13.41a57.4,57.4,0,0,1-5.7,2.88c-.27.11-.38.06-.5-.19-.3-.62-.64-1.22-.95-1.84-.09-.18-.16-.26-.39-.17a44.4,44.4,0,0,1-6,1.93c-.19,0-.22.12-.19.31.14.7.25,1.4.38,2.1,0,.23,0,.35-.25.41a52.17,52.17,0,0,1-6.31,1c-.23,0-.35,0-.39-.28-.09-.67-.23-1.33-.34-2,0-.27-.1-.38-.43-.35-.88.08-1.77.11-2.66.13-.31,0-.34.12-.34.39v9.59c0,2.54,0,5.08,0,7.62Zm0-26.11v-8a16.14,16.14,0,0,1,.22-2.86,9.36,9.36,0,0,1,4-6.46,14.43,14.43,0,0,1,6.31-2.21,32.61,32.61,0,0,1,6.7-.17l1.2.07a2.1,2.1,0,0,0-.86-.95,4.89,4.89,0,0,0-2.54-.78c-.94,0-1.87,0-2.8,0-.25,0-.35,0-.34-.32a11.66,11.66,0,0,0-.06-1.18,1.69,1.69,0,0,0-1.27-1.62,6.51,6.51,0,0,0-2-.29q-4.11,0-8.22,0c-.3,0-.39,0-.39-.38,0-2.89,0-5.78,0-8.67,0-.34-.08-.42-.42-.42H104.52l0,.1c4.79,5.48,10.59,9.24,17.9,10.52a4.16,4.16,0,0,1-1.23.61,6.92,6.92,0,0,1-4,.11l-3-.9c0,.07,0,.09,0,.11a38.34,38.34,0,0,0,33.59,24.71C148.72,105.45,148.72,105.44,148.57,104.42Zm27-34.29c-3.76,0-7.53,0-11.29,0a13,13,0,0,0-3.46.45,20.44,20.44,0,0,0-9.85,5.75,1.18,1.18,0,0,0-.34.87c0,.33.11.38.4.37,2.07,0,4.15,0,6.22,0a8.4,8.4,0,0,1,2.45.36,3.53,3.53,0,0,1,2.62,2.61c.09.39.26.45.6.44a7.72,7.72,0,0,1,3.95.86,4.21,4.21,0,0,1,2.31,2.84,6.52,6.52,0,0,1,0,2c0,.23-.07.3-.33.27a53.46,53.46,0,0,0-5.51-.36,20.61,20.61,0,0,0-7.19,1,7.75,7.75,0,0,0-4.6,4,10.86,10.86,0,0,0-.89,4.67v8.29c0,.28-.12.64.05.81s.55,0,.84,0a37.42,37.42,0,0,0,14-3.22,38.42,38.42,0,0,0,22.74-31.69c0-.32,0-.4-.37-.4Zm-59.93-2.71h11.06c.4,0,.42.1.34-.41a44.45,44.45,0,0,1,.73-17.94c.06-.24,0-.36-.23-.45a69,69,0,0,1-15.42-6.76c-.19-.11-.28-.1-.4.09-.67,1.06-1.32,2.12-1.92,3.22A45.7,45.7,0,0,0,104.15,67c0,.31.08.38.39.38C108.22,67.41,111.91,67.42,115.59,67.42Zm68.83,0c3.7,0,7.4,0,11.09,0,.26,0,.37,0,.36-.34a48.37,48.37,0,0,0-.65-7.69A45.63,45.63,0,0,0,188.41,42c-.16-.26-.27-.3-.54-.14a69.3,69.3,0,0,1-15.2,6.67c-.35.11-.44.21-.34.58a44,44,0,0,1,1.24,8.54,43.24,43.24,0,0,1-.56,9.37c0,.29,0,.36.32.36C177,67.41,180.73,67.42,184.42,67.42Zm-23.67,0c3.28,0,6.56,0,9.84,0,.2,0,.34,0,.38-.27a44.89,44.89,0,0,0,.54-4.61,43.28,43.28,0,0,0-1.12-12.88c-.09-.35-.2-.37-.51-.29A77.08,77.08,0,0,1,151,51.92c-.31,0-.36.1-.36.38q0,7.38,0,14.76c0,.3.08.36.37.36C154.22,67.41,157.49,67.42,160.75,67.42Zm-21.89,0c3.1,0,6.2,0,9.3,0,.33,0,.43-.07.42-.41,0-4.84,0-9.68,0-14.52,0-.55,0-.56-.54-.58l-.66,0c-2.5-.07-5-.28-7.46-.59a75.65,75.65,0,0,1-9.9-1.95c-.22-.06-.3,0-.35.2A42.94,42.94,0,0,0,128.43,60a44.39,44.39,0,0,0,.6,7c.06.35.15.42.49.42C132.63,67.41,135.74,67.42,138.86,67.42Zm9.68,56.07c0-.12,0-.15,0-.18q0-6.82,0-13.65c0-.26-.1-.3-.32-.32a34.39,34.39,0,0,1-4.52-.53,40.49,40.49,0,0,1-19.8-9.56,42,42,0,0,1-12.6-19.44.67.67,0,0,0-.48-.51c-1.81-.61-3.6-1.29-5.35-2-.07,0-.13-.1-.22,0,.1.41.19.81.29,1.22l.06.24a46,46,0,0,0,25,30c1.93.91,3.95,1.61,5.94,2.38a19,19,0,0,1,6.17,3.75,21.9,21.9,0,0,1,4.05,5.33C147.38,121.18,147.94,122.3,148.54,123.49Zm2.06-82.64v8.6c0,.53-.07.46.47.45a76.49,76.49,0,0,0,10.79-.9,72.93,72.93,0,0,0,7.58-1.6c.23-.06.32-.11.22-.36s-.22-.69-.34-1a47.93,47.93,0,0,0-8.49-15.12.5.5,0,0,0-.56-.21,47.26,47.26,0,0,1-9.33,1.09c-.3,0-.35.09-.35.37C150.6,35,150.6,38,150.6,40.85Zm-2,0c0-2.87,0-5.74,0-8.6,0-.36-.1-.47-.46-.48a45.84,45.84,0,0,1-8.41-1.05.4.4,0,0,0-.48.16A47.89,47.89,0,0,0,130.38,47c-.08.27-.06.36.24.44a76.28,76.28,0,0,0,17.65,2.48c.29,0,.31-.11.31-.34C148.57,46.64,148.58,43.73,148.58,40.81ZM128.2,46.73c.22,0,.19-.15.22-.25A49.27,49.27,0,0,1,137,30.41c.26-.32.26-.33-.16-.45a43.86,43.86,0,0,1-8.12-3.18.54.54,0,0,0-.6,0A46.13,46.13,0,0,0,113.2,39.75c-.2.27-.14.35.12.5a67.88,67.88,0,0,0,13.06,5.9ZM187,40l-.16-.23a46.23,46.23,0,0,0-15-13,.5.5,0,0,0-.54,0,43.52,43.52,0,0,1-8.15,3.2c-.4.11-.41.11-.14.45A49,49,0,0,1,171.6,46.5c.09.3.24.23.43.17a70.39,70.39,0,0,0,10.2-4c1.55-.76,3.07-1.57,4.55-2.45C186.86,40.15,187,40.14,187,40ZM169.31,25.52l-.21-.12a45.46,45.46,0,0,0-18.23-4.15c-.26,0-.28.08-.28.29,0,2.64,0,5.27,0,7.91,0,.24.06.31.31.3,1.48,0,3-.12,4.43-.29A44.92,44.92,0,0,0,165.81,27,37.67,37.67,0,0,0,169.31,25.52Zm-38.61,0,.37.18a45,45,0,0,0,17.24,4c.27,0,.27-.11.27-.31,0-2.55,0-5.11,0-7.66,0-.49,0-.49-.48-.48a45.47,45.47,0,0,0-14.16,2.86C132.86,24.54,131.8,25,130.7,25.51Zm27,44.65-.16,0h-6.65c-.23,0-.25.09-.25.29v4c0,.08,0,.18.07.25A22.24,22.24,0,0,1,157.66,70.16Z"/><path class="cls-1" d="M117.12,81.47a6.92,6.92,0,0,0,4-.11,4.16,4.16,0,0,0,1.23-.61c-7.31-1.28-13.11-5-17.9-10.52l0-.1h43.64c.34,0,.43.08.42.42,0,2.89,0,5.78,0,8.67,0,.33.09.38.39.38q4.11,0,8.22,0a6.51,6.51,0,0,1,2,.29,1.69,1.69,0,0,1,1.27,1.62,11.66,11.66,0,0,1,.06,1.18c0,.28.09.33.34.32.93,0,1.86,0,2.8,0a4.89,4.89,0,0,1,2.54.78,2.1,2.1,0,0,1,.86.95l-1.2-.07a32.61,32.61,0,0,0-6.7.17,14.43,14.43,0,0,0-6.31,2.21,9.36,9.36,0,0,0-4,6.46,16.14,16.14,0,0,0-.22,2.86v8a19.57,19.57,0,0,1-2.29-.26A35.83,35.83,0,0,1,131,98.1a40.92,40.92,0,0,1-11.24-11.8A30.29,30.29,0,0,1,117.12,81.47Zm40.86,1a1.18,1.18,0,0,0,1.16-1.18,1.18,1.18,0,1,0-2.36,0A1.18,1.18,0,0,0,158,82.45Z"/><path class="cls-1" d="M175.52,70.13h12.35c.33,0,.4.08.37.4a38.42,38.42,0,0,1-22.74,31.69,37.42,37.42,0,0,1-14,3.22c-.29,0-.65.16-.84,0s-.05-.53-.05-.81V96.3a10.86,10.86,0,0,1,.89-4.67,7.75,7.75,0,0,1,4.6-4,20.61,20.61,0,0,1,7.19-1,53.46,53.46,0,0,1,5.51.36c.26,0,.32,0,.33-.27a6.52,6.52,0,0,0,0-2,4.21,4.21,0,0,0-2.31-2.84,7.72,7.72,0,0,0-3.95-.86c-.34,0-.51,0-.6-.44a3.53,3.53,0,0,0-2.62-2.61,8.4,8.4,0,0,0-2.45-.36c-2.07,0-4.15,0-6.22,0-.29,0-.4,0-.4-.37a1.18,1.18,0,0,1,.34-.87,20.44,20.44,0,0,1,9.85-5.75,13,13,0,0,1,3.46-.45C168,70.15,171.76,70.13,175.52,70.13Z"/><path class="cls-1" d="M115.59,67.42c-3.68,0-7.37,0-11,0-.31,0-.39-.07-.39-.38a45.7,45.7,0,0,1,5.6-21.88c.6-1.1,1.25-2.16,1.92-3.22.12-.19.21-.2.4-.09a69,69,0,0,0,15.42,6.76c.28.09.29.21.23.45A44.45,44.45,0,0,0,127,67c.08.51.06.41-.34.41Z"/><path class="cls-1" d="M184.42,67.42c-3.69,0-7.39,0-11.09,0-.3,0-.37-.07-.32-.36a43.24,43.24,0,0,0,.56-9.37,44,44,0,0,0-1.24-8.54c-.1-.37,0-.47.34-.58a69.3,69.3,0,0,0,15.2-6.67c.27-.16.38-.12.54.14a45.63,45.63,0,0,1,6.81,17.35,48.37,48.37,0,0,1,.65,7.69c0,.3-.1.34-.36.34C191.82,67.41,188.12,67.42,184.42,67.42Z"/><path class="cls-1" d="M160.75,67.42c-3.26,0-6.53,0-9.79,0-.29,0-.37-.06-.37-.36q0-7.38,0-14.76c0-.28,0-.38.36-.38a77.08,77.08,0,0,0,18.93-2.55c.31-.08.42-.06.51.29a43.28,43.28,0,0,1,1.12,12.88,44.89,44.89,0,0,1-.54,4.61c0,.27-.18.27-.38.27C167.31,67.41,164,67.42,160.75,67.42Z"/><path class="cls-1" d="M138.86,67.42c-3.12,0-6.23,0-9.34,0-.34,0-.43-.07-.49-.42a44.39,44.39,0,0,1-.6-7,42.94,42.94,0,0,1,1.24-10.46c.05-.23.13-.26.35-.2a75.65,75.65,0,0,0,9.9,1.95c2.48.31,5,.52,7.46.59l.66,0c.54,0,.54,0,.54.58,0,4.84,0,9.68,0,14.52,0,.34-.09.41-.42.41C145.06,67.41,142,67.42,138.86,67.42Z"/><path class="cls-1" d="M148.54,123.49c-.6-1.19-1.16-2.31-1.77-3.39a21.9,21.9,0,0,0-4.05-5.33,19,19,0,0,0-6.17-3.75c-2-.77-4-1.47-5.94-2.38a46,46,0,0,1-25-30l-.06-.24c-.1-.41-.19-.81-.29-1.22.09-.07.15,0,.22,0,1.75.76,3.54,1.44,5.35,2a.67.67,0,0,1,.48.51,42,42,0,0,0,12.6,19.44,40.49,40.49,0,0,0,19.8,9.56,34.39,34.39,0,0,0,4.52.53c.22,0,.32.06.32.32q0,6.82,0,13.65S148.56,123.37,148.54,123.49Z"/><path class="cls-1" d="M150.6,40.85c0-2.9,0-5.81,0-8.71,0-.28,0-.37.35-.37a47.26,47.26,0,0,0,9.33-1.09.5.5,0,0,1,.56.21A47.93,47.93,0,0,1,169.32,46c.12.34.21.69.34,1s0,.3-.22.36a72.93,72.93,0,0,1-7.58,1.6,76.49,76.49,0,0,1-10.79.9c-.54,0-.47.08-.47-.45Z"/><path class="cls-1" d="M148.58,40.81c0,2.92,0,5.83,0,8.75,0,.23,0,.35-.31.34a76.28,76.28,0,0,1-17.65-2.48c-.3-.08-.32-.17-.24-.44a47.89,47.89,0,0,1,8.86-16.14.4.4,0,0,1,.48-.16,45.84,45.84,0,0,0,8.41,1.05c.36,0,.46.12.46.48C148.57,35.07,148.58,37.94,148.58,40.81Z"/><path class="cls-1" d="M128.2,46.73l-1.82-.58a67.88,67.88,0,0,1-13.06-5.9c-.26-.15-.32-.23-.12-.5a46.13,46.13,0,0,1,14.91-12.94.54.54,0,0,1,.6,0A43.86,43.86,0,0,0,136.83,30c.42.12.42.13.16.45a49.27,49.27,0,0,0-8.57,16.07C128.39,46.58,128.42,46.76,128.2,46.73Z"/><path class="cls-1" d="M187,40c0,.14-.13.15-.21.2-1.48.88-3,1.69-4.55,2.45a70.39,70.39,0,0,1-10.2,4c-.19.06-.34.13-.43-.17A49,49,0,0,0,163,30.42c-.27-.34-.26-.34.14-.45a43.52,43.52,0,0,0,8.15-3.2.5.5,0,0,1,.54,0,46.23,46.23,0,0,1,15,13Z"/><path class="cls-1" d="M169.31,25.52a37.67,37.67,0,0,1-3.5,1.47,44.92,44.92,0,0,1-10.48,2.47c-1.47.17-3,.25-4.43.29-.25,0-.31-.06-.31-.3,0-2.64,0-5.27,0-7.91,0-.21,0-.3.28-.29A45.46,45.46,0,0,1,169.1,25.4Z"/><path class="cls-1" d="M130.7,25.51c1.1-.53,2.16-1,3.24-1.37a45.47,45.47,0,0,1,14.16-2.86c.48,0,.48,0,.48.48,0,2.55,0,5.11,0,7.66,0,.2,0,.32-.27.31a45,45,0,0,1-17.24-4Z"/><path class="cls-3" d="M158,82.45a1.18,1.18,0,0,1-1.2-1.15,1.18,1.18,0,1,1,2.36,0A1.18,1.18,0,0,1,158,82.45Z"/></svg>