<svg id="Layer_1" data-name="Layer 1" xmlns="http://www.w3.org/2000/svg" viewBox="0 0 180 180"><defs><style>.cls-1{fill:#d4d5d6;}.cls-2{fill:#bfc1c2;}.cls-3{fill:#fff;}</style></defs><path class="cls-1" d="M87.72,180a3.22,3.22,0,0,0-.33-1.46,64.51,64.51,0,0,0-9-16,34.86,34.86,0,0,0-14.7-11.05,89.48,89.48,0,0,1-12.73-5.89,78.59,78.59,0,0,1-22-19.05A78.06,78.06,0,0,1,77.37,1,78.45,78.45,0,0,1,93.78.09a76.5,76.5,0,0,1,27.67,6.5,78.21,78.21,0,0,1,43,47.78,76.48,76.48,0,0,1,3.42,17.55,93.4,93.4,0,0,1,.12,10.45c0,.48-.18.58-.62.56-1.11,0-2.21,0-3.32,0-.36,0-.48.11-.5.47q-.09,1.49-.27,3c0,.34.08.41.36.46,1.13.2,2.25.43,3.37.61.39.07.54.18.48.61a84.73,84.73,0,0,1-2,10.13c-.11.41-.29.46-.63.39-1.08-.21-2.17-.4-3.25-.62-.4-.08-.6,0-.72.41a66.68,66.68,0,0,1-3.48,9.6c-.14.31-.1.44.21.6,1,.52,2,1.08,3.09,1.61.3.15.39.28.23.63a82.92,82.92,0,0,1-5,9.11c-.2.32-.34.38-.69.19-1-.56-2-1.06-3-1.61-.35-.2-.51-.12-.71.19a71.23,71.23,0,0,1-6.18,8.07c-.21.24-.21.37,0,.59.85.82,1.66,1.67,2.51,2.5.24.23.25.38,0,.63a81.4,81.4,0,0,1-7.56,7.3c-.26.22-.39.15-.59-.05-.81-.84-1.65-1.65-2.45-2.48-.23-.24-.39-.32-.68-.07a69.84,69.84,0,0,1-8.25,5.84c-.3.18-.32.31-.16.61.55,1,1.06,2.06,1.61,3.08.18.33.11.48-.2.66A89.45,89.45,0,0,1,120.4,150c-.43.18-.61.1-.8-.31-.48-1-1-2-1.52-2.95-.14-.29-.27-.41-.63-.27a68.72,68.72,0,0,1-9.56,3.09c-.31.08-.36.2-.3.51.22,1.12.39,2.25.6,3.37.07.37,0,.56-.4.66a83,83,0,0,1-10.14,1.65c-.38,0-.57,0-.63-.45-.14-1.08-.37-2.14-.54-3.21-.07-.43-.17-.62-.7-.57-1.41.13-2.84.19-4.26.22-.5,0-.56.19-.56.62,0,5.14,0,10.28,0,15.41q0,6.13,0,12.26Zm0-42c0-4.31,0-8.62,0-12.93a26.14,26.14,0,0,1,.35-4.59,15.1,15.1,0,0,1,6.45-10.39,23.27,23.27,0,0,1,10.14-3.55,53.1,53.1,0,0,1,10.77-.26l1.93.11a3.53,3.53,0,0,0-1.38-1.54,8,8,0,0,0-4.09-1.24c-1.5,0-3,0-4.5,0-.4,0-.56-.08-.55-.51a17.33,17.33,0,0,0-.09-1.91,2.73,2.73,0,0,0-2-2.61,10.87,10.87,0,0,0-3.15-.46c-4.41,0-8.81,0-13.22,0-.48,0-.63-.09-.62-.61,0-4.65,0-9.29,0-13.94,0-.55-.15-.67-.68-.67H16.91l-.06.16c7.69,8.8,17,14.84,28.76,16.92a7.28,7.28,0,0,1-2,1,11.23,11.23,0,0,1-6.47.18L32.32,99.7c0,.11,0,.15,0,.18a61.87,61.87,0,0,0,32.25,34.34,61,61,0,0,0,21.74,5.38C87.94,139.69,87.94,139.67,87.7,138ZM131,82.92c-6.05,0-12.1,0-18.16,0a21.06,21.06,0,0,0-5.54.72,32.91,32.91,0,0,0-15.85,9.26,1.84,1.84,0,0,0-.53,1.39c0,.52.16.6.63.6,3.34,0,6.67,0,10,0a13.8,13.8,0,0,1,3.93.58,5.67,5.67,0,0,1,4.21,4.19c.15.63.41.73,1,.71a12.49,12.49,0,0,1,6.35,1.39,6.76,6.76,0,0,1,3.7,4.56,10.36,10.36,0,0,1,0,3.24c0,.37-.12.49-.54.44a79.38,79.38,0,0,0-8.86-.57,32.89,32.89,0,0,0-11.56,1.65,12.42,12.42,0,0,0-7.38,6.43A17.27,17.27,0,0,0,91,125c0,4.44,0,8.88,0,13.32,0,.45-.2,1,.07,1.31s.89.06,1.35,0a60.4,60.4,0,0,0,22.53-5.17,61.74,61.74,0,0,0,36.54-50.92c0-.52-.07-.65-.59-.65C144.25,82.93,137.64,82.92,131,82.92ZM34.7,78.56H52.47c.65,0,.68.14.55-.67a69.66,69.66,0,0,1-.93-10.29,71,71,0,0,1,2.1-18.54c.09-.38.09-.58-.37-.72A111.65,111.65,0,0,1,29,37.47c-.31-.18-.44-.15-.64.15-1.08,1.69-2.13,3.4-3.08,5.16a73.44,73.44,0,0,0-9,35.18c0,.5.13.61.63.61C22.86,78.55,28.78,78.56,34.7,78.56Zm110.62,0h17.83c.41,0,.58-.07.58-.54a78.84,78.84,0,0,0-1.06-12.37,73.49,73.49,0,0,0-10.93-27.89c-.27-.41-.44-.48-.88-.22a110.77,110.77,0,0,1-24.43,10.72c-.56.18-.7.34-.55.94A71.61,71.61,0,0,1,127,78c-.08.47,0,.58.51.58C133.44,78.55,139.38,78.56,145.32,78.56Zm-38,0h15.8c.33,0,.55,0,.62-.42a71.13,71.13,0,0,0,.87-7.42A69.66,69.66,0,0,0,122.76,50c-.13-.56-.31-.6-.81-.46a124.07,124.07,0,0,1-30.43,4.1c-.49,0-.57.16-.57.6Q91,66.13,91,78c0,.48.13.58.59.58C96.79,78.55,102,78.56,107.28,78.56Zm-35.19,0c5,0,10,0,15,0,.53,0,.68-.11.68-.67,0-7.77,0-15.55,0-23.33,0-.89,0-.89-.86-.93l-1.07,0c-4-.12-8-.45-12-1a121.71,121.71,0,0,1-15.92-3.13c-.34-.09-.47,0-.56.32a70.09,70.09,0,0,0-2,16.82,71.87,71.87,0,0,0,1,11.24c.09.56.24.68.78.68C62.08,78.55,67.09,78.56,72.09,78.56Zm15.57,90.12c0-.2,0-.25,0-.3,0-7.31,0-14.62,0-21.93,0-.41-.16-.49-.52-.5a56.69,56.69,0,0,1-7.25-.86,65.06,65.06,0,0,1-31.84-15.36A67.45,67.45,0,0,1,27.88,98.49a1.11,1.11,0,0,0-.79-.83q-4.36-1.47-8.59-3.29c-.11-.05-.21-.17-.36-.06.16.66.32,1.32.47,2,0,.13.06.26.1.38a73.9,73.9,0,0,0,40.13,48.15c3.1,1.47,6.34,2.59,9.54,3.83a30.78,30.78,0,0,1,9.93,6,35,35,0,0,1,6.49,8.56C85.79,165,86.68,166.76,87.66,168.68ZM91,35.87V49.69c0,.85-.11.74.76.72A122.91,122.91,0,0,0,109.06,49a121.06,121.06,0,0,0,12.19-2.56c.36-.1.51-.19.35-.59s-.36-1.11-.54-1.66a77.46,77.46,0,0,0-13.66-24.3.8.8,0,0,0-.9-.33,74.73,74.73,0,0,1-15,1.74c-.49,0-.57.16-.57.61Q91,28.86,91,35.87Zm-3.25-.07c0-4.61,0-9.22,0-13.83,0-.58-.16-.75-.73-.77a72.35,72.35,0,0,1-13.52-1.68.68.68,0,0,0-.77.25A76.91,76.91,0,0,0,58.47,45.71c-.14.44-.09.59.39.71a122.85,122.85,0,0,0,28.36,4c.47,0,.5-.17.5-.55Q87.7,42.83,87.71,35.8ZM55,45.32c.35,0,.31-.25.36-.41A79.26,79.26,0,0,1,69.09,19.09c.42-.53.42-.53-.26-.72a70.91,70.91,0,0,1-13-5.12.91.91,0,0,0-1,0,74.36,74.36,0,0,0-24,20.81c-.33.44-.22.56.18.8a110.12,110.12,0,0,0,21,9.48Zm94.49-10.83-.26-.36a74.21,74.21,0,0,0-24-20.88.82.82,0,0,0-.88,0,70.57,70.57,0,0,1-13.1,5.14c-.64.18-.64.18-.21.73a78.58,78.58,0,0,1,13.75,25.83c.15.49.38.37.7.28a113.51,113.51,0,0,0,16.38-6.46c2.49-1.22,4.94-2.53,7.32-3.94C149.24,34.74,149.45,34.72,149.45,34.49ZM121,11.22,120.7,11A73.64,73.64,0,0,0,91.4,4.36c-.41,0-.45.14-.45.47q0,6.36,0,12.71c0,.39.1.5.5.49,2.38-.07,4.75-.2,7.12-.47a72.69,72.69,0,0,0,16.84-4C117.3,12.89,119.17,12.12,121,11.22Zm-62,0c.25.13.42.22.59.29A72.16,72.16,0,0,0,87.28,18c.43,0,.44-.17.44-.49q0-6.16,0-12.32c0-.78,0-.79-.76-.76A73.24,73.24,0,0,0,64.19,9C62.46,9.66,60.75,10.37,59,11.2ZM102.32,83l-.26,0c-3.56,0-7.13,0-10.69,0-.38,0-.41.16-.41.47,0,2.14,0,4.28,0,6.41,0,.13-.09.3.1.41A35.81,35.81,0,0,1,102.32,83Z"/><path class="cls-2" d="M37.16,101.15a11.23,11.23,0,0,0,6.47-.18,7.28,7.28,0,0,0,2-1c-11.74-2.08-21.07-8.12-28.76-16.92l.06-.16H87.05c.53,0,.68.12.68.67,0,4.65,0,9.29,0,13.94,0,.52.14.61.62.61,4.41,0,8.81,0,13.22,0a10.87,10.87,0,0,1,3.15.46,2.73,2.73,0,0,1,2,2.61,17.33,17.33,0,0,1,.09,1.91c0,.43.15.52.55.51,1.5,0,3,0,4.5,0a8,8,0,0,1,4.09,1.24,3.53,3.53,0,0,1,1.38,1.54l-1.93-.11a53.1,53.1,0,0,0-10.77.26,23.27,23.27,0,0,0-10.14,3.55,15.1,15.1,0,0,0-6.45,10.39,26.14,26.14,0,0,0-.35,4.59c0,4.31,0,8.62,0,12.93a28.38,28.38,0,0,1-3.68-.41,57.72,57.72,0,0,1-24.64-9.73,66.1,66.1,0,0,1-18.06-19A49.46,49.46,0,0,1,37.16,101.15Zm65.66,1.58a1.91,1.91,0,1,0-1.92-1.86A1.91,1.91,0,0,0,102.82,102.73Z"/><path class="cls-2" d="M131,82.92c6.62,0,13.23,0,19.85,0,.52,0,.64.13.59.65a61.74,61.74,0,0,1-36.54,50.92,60.4,60.4,0,0,1-22.53,5.17c-.46,0-1,.27-1.35,0s-.07-.86-.07-1.31c0-4.44,0-8.88,0-13.32a17.27,17.27,0,0,1,1.44-7.5,12.42,12.42,0,0,1,7.38-6.43,32.89,32.89,0,0,1,11.56-1.65,79.38,79.38,0,0,1,8.86.57c.42,0,.5-.07.54-.44a10.36,10.36,0,0,0,0-3.24,6.76,6.76,0,0,0-3.7-4.56,12.49,12.49,0,0,0-6.35-1.39c-.56,0-.82-.08-1-.71a5.67,5.67,0,0,0-4.21-4.19,13.8,13.8,0,0,0-3.93-.58c-3.34,0-6.67,0-10,0-.47,0-.64-.08-.63-.6a1.84,1.84,0,0,1,.53-1.39,32.91,32.91,0,0,1,15.85-9.26,21.06,21.06,0,0,1,5.54-.72C118.92,83,125,82.92,131,82.92Z"/><path class="cls-2" d="M34.7,78.56c-5.92,0-11.84,0-17.76,0-.5,0-.63-.11-.63-.61a73.44,73.44,0,0,1,9-35.18c.95-1.76,2-3.47,3.08-5.16.2-.3.33-.33.64-.15A111.65,111.65,0,0,0,53.82,48.34c.46.14.46.34.37.72a71,71,0,0,0-2.1,18.54A69.66,69.66,0,0,0,53,77.89c.13.81.1.67-.55.67Z"/><path class="cls-2" d="M145.32,78.56c-5.94,0-11.88,0-17.82,0-.49,0-.59-.11-.51-.58a71.61,71.61,0,0,0-1.11-28.78c-.15-.6,0-.76.55-.94a110.77,110.77,0,0,0,24.43-10.72c.44-.26.61-.19.88.22a73.49,73.49,0,0,1,10.93,27.89A78.84,78.84,0,0,1,163.73,78c0,.47-.17.54-.58.54Z"/><path class="cls-2" d="M107.28,78.56c-5.24,0-10.49,0-15.74,0-.46,0-.59-.1-.59-.58q0-11.86,0-23.73c0-.44.08-.6.57-.6A124.07,124.07,0,0,0,122,49.56c.5-.14.68-.1.81.46a69.66,69.66,0,0,1,1.81,20.7,71.13,71.13,0,0,1-.87,7.42c-.07.42-.29.42-.62.42Z"/><path class="cls-2" d="M72.09,78.56c-5,0-10,0-15,0-.54,0-.69-.12-.78-.68a71.87,71.87,0,0,1-1-11.24,70.09,70.09,0,0,1,2-16.82c.09-.37.22-.41.56-.32A121.71,121.71,0,0,0,73.8,52.64c4,.51,8,.84,12,1l1.07,0c.86,0,.86,0,.86.93,0,7.78,0,15.56,0,23.33,0,.56-.15.67-.68.67C82.06,78.55,77.08,78.56,72.09,78.56Z"/><path class="cls-2" d="M87.66,168.68c-1-1.92-1.87-3.71-2.86-5.45a35,35,0,0,0-6.49-8.56,30.78,30.78,0,0,0-9.93-6c-3.2-1.24-6.44-2.36-9.54-3.83A73.9,73.9,0,0,1,18.71,96.66c0-.12-.07-.25-.1-.38-.15-.65-.31-1.31-.47-2,.15-.11.25,0,.36.06q4.23,1.81,8.59,3.29a1.11,1.11,0,0,1,.79.83,67.45,67.45,0,0,0,20.23,31.24A65.06,65.06,0,0,0,80,145.09a56.69,56.69,0,0,0,7.25.86c.36,0,.52.09.52.5,0,7.31,0,14.62,0,21.93C87.71,168.43,87.69,168.48,87.66,168.68Z"/><path class="cls-2" d="M91,35.87q0-7,0-14c0-.45.08-.6.57-.61a74.73,74.73,0,0,0,15-1.74.8.8,0,0,1,.9.33,77.46,77.46,0,0,1,13.66,24.3c.18.55.32,1.12.54,1.66s0,.49-.35.59A121.06,121.06,0,0,1,109.06,49a122.91,122.91,0,0,1-17.34,1.45c-.87,0-.76.13-.76-.72Z"/><path class="cls-2" d="M87.71,35.8q0,7,0,14.06c0,.38,0,.56-.5.55a122.85,122.85,0,0,1-28.36-4c-.48-.12-.53-.27-.39-.71A76.91,76.91,0,0,1,72.71,19.77a.68.68,0,0,1,.77-.25A72.35,72.35,0,0,0,87,21.2c.57,0,.73.19.73.77C87.7,26.58,87.71,31.19,87.71,35.8Z"/><path class="cls-2" d="M55,45.32,52,44.38A110.12,110.12,0,0,1,31,34.9c-.4-.24-.51-.36-.18-.8a74.36,74.36,0,0,1,24-20.81.91.91,0,0,1,1,0,70.91,70.91,0,0,0,13,5.12c.68.19.68.19.26.72A79.26,79.26,0,0,0,55.32,44.91C55.27,45.07,55.31,45.37,55,45.32Z"/><path class="cls-2" d="M149.45,34.49c0,.23-.21.25-.34.33-2.38,1.41-4.83,2.72-7.32,3.94a113.51,113.51,0,0,1-16.38,6.46c-.32.09-.55.21-.7-.28A78.58,78.58,0,0,0,111,19.11c-.43-.55-.43-.55.21-.73a70.57,70.57,0,0,0,13.1-5.14.82.82,0,0,1,.88,0,74.21,74.21,0,0,1,24,20.88Z"/><path class="cls-2" d="M121,11.22c-1.86.9-3.73,1.67-5.62,2.37a72.69,72.69,0,0,1-16.84,4c-2.37.27-4.74.4-7.12.47-.4,0-.5-.1-.5-.49q0-6.36,0-12.71c0-.33,0-.48.45-.47A73.64,73.64,0,0,1,120.7,11Z"/><path class="cls-2" d="M59,11.2c1.77-.83,3.48-1.54,5.21-2.19A73.24,73.24,0,0,1,87,4.42c.76,0,.76,0,.76.76q0,6.16,0,12.32c0,.32,0,.51-.44.49a72.16,72.16,0,0,1-27.71-6.5C59.4,11.42,59.23,11.33,59,11.2Z"/><path class="cls-3" d="M102.82,102.73a1.91,1.91,0,1,1,0-3.81,1.91,1.91,0,0,1,0,3.81Z"/></svg>