<svg id="Layer_1" data-name="Layer 1" xmlns="http://www.w3.org/2000/svg" viewBox="0 0 180 180"><defs><style>.cls-1{fill:#c4c6c7;}.cls-2{fill:#d9dadb;}.cls-3{fill:#fff;}</style></defs><circle class="cls-1" cx="90" cy="90" r="90"/><path class="cls-2" d="M72.69,43.61c0-4.11,3.86-7.46,8.6-7.46s8.59,3.35,8.59,7.46V48a11.3,11.3,0,1,0-17.19,0Z"/><path class="cls-3" d="M81.29,37.59a7.21,7.21,0,0,0-7.2,7.2v66.14a7.2,7.2,0,1,0,14.39,0V44.79A7.2,7.2,0,0,0,81.29,37.59Z"/><path class="cls-3" d="M97.9,69.12a7.21,7.21,0,0,0-7.2,7.2v34.61a7.2,7.2,0,1,0,14.39,0V76.32A7.2,7.2,0,0,0,97.9,69.12Z"/><path class="cls-3" d="M114.66,75.84a7.21,7.21,0,0,0-7.2,7.2v27.89a7.2,7.2,0,1,0,14.39,0V83A7.21,7.21,0,0,0,114.66,75.84Z"/><path class="cls-3" d="M131.27,80.73a7.21,7.21,0,0,0-7.2,7.2v23a7.2,7.2,0,1,0,14.39,0v-23A7.21,7.21,0,0,0,131.27,80.73Z"/><path class="cls-3" d="M58.91,74.74a7.69,7.69,0,0,1,7.57,6.36l5,28.1a7.7,7.7,0,0,1-6.24,8.92,7.59,7.59,0,0,1-1.34.12,7.68,7.68,0,0,1-7.58-6.36l-5-28.1a7.71,7.71,0,0,1,7.59-9m0-1.12a8.93,8.93,0,0,0-1.55.13A8.83,8.83,0,0,0,50.21,84l5,28.1a8.82,8.82,0,0,0,8.69,7.29,8.91,8.91,0,0,0,1.54-.14A8.82,8.82,0,0,0,72.55,109l-5-28.1a8.81,8.81,0,0,0-8.68-7.29Z"/><path class="cls-3" d="M63.85,117.26a6.73,6.73,0,0,1-6.6-5.55l-5-28.1a6.71,6.71,0,1,1,13.22-2.33l5,28.1A6.71,6.71,0,0,1,65,117.15h0A6.73,6.73,0,0,1,63.85,117.26Zm-4.94-40.4a5.47,5.47,0,0,0-1,.08,5.58,5.58,0,0,0-4.53,6.47l5,28.1A5.58,5.58,0,0,0,64.83,116h0a5.58,5.58,0,0,0,4.53-6.47l-5-28.1a5.59,5.59,0,0,0-5.49-4.61Z"/><path class="cls-3" d="M95.19,30.4l-2.58,3a13.48,13.48,0,0,1-.29,15.07l2.55,3a17.28,17.28,0,0,0,.32-21Z"/><path class="cls-3" d="M99.76,25.16l-2.84,3.26a19.88,19.88,0,0,1-.34,25l2.8,3.27a24.13,24.13,0,0,0,.38-31.52Z"/><path class="cls-3" d="M103.8,20.51l-2.38,2.74A26.66,26.66,0,0,1,101,58.6l2.36,2.75a30.25,30.25,0,0,0,.41-40.84Z"/><path class="cls-3" d="M67.38,30.4l2.59,3a13.46,13.46,0,0,0,.28,15.07l-2.55,3a17.32,17.32,0,0,1-.32-21Z"/><path class="cls-3" d="M62.82,25.16l2.84,3.26a19.88,19.88,0,0,0,.34,25l-2.81,3.27a24.11,24.11,0,0,1-.37-31.52Z"/><path class="cls-3" d="M58.77,20.51l2.39,2.74a26.63,26.63,0,0,0,.39,35.35l-2.36,2.75a30.23,30.23,0,0,1-.42-40.84Z"/><path class="cls-3" d="M50.8,143.58h4.14v.92H53.33v5.85h-.92V144.5H50.8Z"/><path class="cls-3" d="M58.3,143.32l3.2,7h-1l-.79-1.73H56.86l-.77,1.73h-1Zm0,2.11-1.08,2.42h2.18Z"/><path class="cls-3" d="M62.29,143.31l5,5.15v-4.88h.93v7.09l-5-5.13v4.81h-.93Z"/><path class="cls-3" d="M71.19,143.59h.93v5c0,1.35-.57,2-1.69,2a2.44,2.44,0,0,1-1.15-.3l.45-.75a2.42,2.42,0,0,0,.73.15c.49,0,.73-.33.73-1Z"/><path class="cls-3" d="M73.77,143.59h.93v4.16a2.06,2.06,0,0,0,.44,1.43,1.59,1.59,0,0,0,1.26.51,1.64,1.64,0,0,0,1.26-.47,1.8,1.8,0,0,0,.45-1.31v-4.32H79v4.26a2.78,2.78,0,0,1-.71,2,2.46,2.46,0,0,1-1.89.74,2.56,2.56,0,0,1-1.93-.75,3.07,3.07,0,0,1-.73-2.23Z"/><path class="cls-3" d="M80.33,143.31l5,5.15v-4.88h.92v7.09l-5-5.13v4.81h-.92Z"/><path class="cls-3" d="M94.19,144.66l-.68.68a3.32,3.32,0,0,0-2.4-1,2.73,2.73,0,0,0-2,.77,2.6,2.6,0,0,0,0,3.72,2.78,2.78,0,0,0,2.12.81,2.37,2.37,0,0,0,2.55-1.76H91.94v-.93h2.89a4.77,4.77,0,0,1-.1,1.11,3.22,3.22,0,0,1-.38.91,3.49,3.49,0,0,1-.78.9,3.11,3.11,0,0,1-1,.56,4.39,4.39,0,0,1-1.33.17,3.66,3.66,0,0,1-2.8-1.1A3.54,3.54,0,0,1,87.35,147a3.43,3.43,0,0,1,1.07-2.54,3.58,3.58,0,0,1,2.59-1,4.76,4.76,0,0,1,1.65.27A4.44,4.44,0,0,1,94.19,144.66Z"/><path class="cls-3" d="M96.26,143.58h1.36a3,3,0,0,1,1.87.54,1.69,1.69,0,0,1,.7,1.41,1.8,1.8,0,0,1-.74,1.46,3.54,3.54,0,0,1-2.27.58v2.78h-.92Zm.92.81v2.37a3.31,3.31,0,0,0,1.54-.3,1,1,0,0,0,.51-.91,1.09,1.09,0,0,0-.38-.82A2.72,2.72,0,0,0,97.18,144.39Z"/><path class="cls-3" d="M101.47,143.58h.92v6.77h-.92Z"/><path class="cls-3" d="M103.83,143.31l5,5.15v-4.88h.92v7.09l-5-5.13v4.81h-.92Z"/><path class="cls-3" d="M113.67,143.32l3.2,7h-1l-.78-1.73h-2.88l-.78,1.73h-1Zm0,2.11-1.08,2.42h2.18Z"/><path class="cls-3" d="M117.67,143.31l5,5.15v-4.88h.93v7.09l-5-5.13v4.81h-.93Z"/><path class="cls-3" d="M131.54,144.66l-.69.68a3.32,3.32,0,0,0-2.4-1,2.75,2.75,0,0,0-2,.77,2.6,2.6,0,0,0,0,3.72,2.8,2.8,0,0,0,2.12.81,2.37,2.37,0,0,0,2.55-1.76h-1.83v-.93h2.89a5.5,5.5,0,0,1-.09,1.11,3.54,3.54,0,0,1-1.17,1.81,3,3,0,0,1-1,.56,4.34,4.34,0,0,1-1.33.17,3.66,3.66,0,0,1-2.8-1.1,3.53,3.53,0,0,1-1-2.52,3.39,3.39,0,0,1,1.07-2.54,3.55,3.55,0,0,1,2.59-1,4.84,4.84,0,0,1,1.65.27A4.63,4.63,0,0,1,131.54,144.66Z"/><path class="cls-3" d="M33,124.94h4.64a6.35,6.35,0,0,1,4.79,1.87,6.82,6.82,0,0,1,1.82,4.95,6.65,6.65,0,0,1-1.87,4.93,6.77,6.77,0,0,1-5,1.86H33Zm3,2.57v8.41h1.16a4.4,4.4,0,0,0,3-1,4.12,4.12,0,0,0,1.16-3.29,4.87,4.87,0,0,0-.56-2.36,2.82,2.82,0,0,0-1.62-1.4,6.11,6.11,0,0,0-2-.37Z"/><path class="cls-3" d="M46.37,124.94h2.94v13.61H46.37Z"/><path class="cls-3" d="M59.68,126.17l-1.83,2a5,5,0,0,0-2.07-.85,1.09,1.09,0,0,0-.84.37,1.19,1.19,0,0,0-.35.87c0,.68.61,1.26,1.82,1.75a12.24,12.24,0,0,1,2,1,3.68,3.68,0,0,1,1.15,1.28,3.54,3.54,0,0,1,.46,1.77,4,4,0,0,1-1.41,3.05,4.78,4.78,0,0,1-3.35,1.3,6.11,6.11,0,0,1-4.18-2L53,134.5a3.59,3.59,0,0,0,2.43,1.33,1.42,1.42,0,0,0,1-.47,1.35,1.35,0,0,0,.49-1c0-.71-.75-1.34-2.25-1.88a7.68,7.68,0,0,1-1.82-.88,3.06,3.06,0,0,1-.91-1.19,3.71,3.71,0,0,1-.37-1.61,3.9,3.9,0,0,1,1.18-2.94,4.31,4.31,0,0,1,3.09-1.13A5.38,5.38,0,0,1,59.68,126.17Z"/><path class="cls-3" d="M62.21,124.94h2.93v5.75h0l4.51-5.75h3.6l-5.17,6.5,5.39,7.11H70l-4.8-6.37h0v6.37H62.21Z"/><path class="cls-3" d="M73.9,131.73a6.66,6.66,0,0,1,2-5,6.5,6.5,0,0,1,4.73-2,7.06,7.06,0,0,1,5,11.94,6.66,6.66,0,0,1-4.94,2,6.59,6.59,0,0,1-4.9-2A6.87,6.87,0,0,1,73.9,131.73Zm6.86-4.23A3.38,3.38,0,0,0,78,128.68,4.64,4.64,0,0,0,77,131.82a4.28,4.28,0,0,0,1.07,3,3.45,3.45,0,0,0,2.69,1.2,3.57,3.57,0,0,0,2.77-1.18,4.5,4.5,0,0,0,1.05-3.11,4.45,4.45,0,0,0-1-3A3.64,3.64,0,0,0,80.76,127.5Z"/><circle class="cls-3" cx="80.76" cy="131.75" r="2.2"/><path class="cls-3" d="M136.74,131.73a6.66,6.66,0,0,1,2-5,6.5,6.5,0,0,1,4.73-2,7.06,7.06,0,0,1,5,11.94,6.66,6.66,0,0,1-4.94,2,6.57,6.57,0,0,1-4.9-2A6.87,6.87,0,0,1,136.74,131.73Zm6.86-4.23a3.38,3.38,0,0,0-2.75,1.18,4.64,4.64,0,0,0-1,3.14,4.28,4.28,0,0,0,1.07,3,3.45,3.45,0,0,0,2.69,1.2,3.54,3.54,0,0,0,2.76-1.18,5.06,5.06,0,0,0,0-6.16A3.64,3.64,0,0,0,143.6,127.5Z"/><circle class="cls-3" cx="143.6" cy="131.75" r="2.2"/><path class="cls-3" d="M91.05,124.94h3.48l2.55,8.16,2.56-8.16H103l1.75,13.61H102L100.75,129l-3,9.58H96.43l-3.08-9.66-1.13,9.66H89.37Z"/><path class="cls-3" d="M106.74,124.94h2.94v13.61h-2.94Z"/><path class="cls-3" d="M121.4,124.94h2.88v13.61h-2.86l-6.23-8.81v8.81h-2.93V124.94h2.9l6.24,8.75Z"/><path class="cls-3" d="M127,124.94h7.67v2.63H130v2.78h4.75V133H130v5.55H127Z"/><path class="cls-3" d="M149.79,125.8a6.13,6.13,0,0,1,0,12C153.15,134.65,152.82,128.31,149.79,125.8Z"/><path class="cls-3" d="M154.45,127.1a4.8,4.8,0,0,1,0,9.41C157.08,134,156.82,129.07,154.45,127.1Z"/></svg>