<svg id="Layer_1" data-name="Layer 1" xmlns="http://www.w3.org/2000/svg" viewBox="0 0 300 180"><defs><style>.cls-1{fill:#4b4b4b;}.cls-2{fill:gray;}</style></defs><path class="cls-1" d="M35.83,149.34v-8.4h2.33a4.77,4.77,0,0,1,3.33,1A4,4,0,0,1,42.6,145a4.11,4.11,0,0,1-1.24,3.13,4.55,4.55,0,0,1-3.3,1.18Zm1-7.51v6.62h1.25a3.59,3.59,0,0,0,2.58-.88,3.34,3.34,0,0,0,.92-2.51,3.16,3.16,0,0,0-.86-2.42,3.65,3.65,0,0,0-2.58-.81Z"/><path class="cls-1" d="M45.23,149.34h-1v-8.4h1Z"/><path class="cls-1" d="M54.22,149.34H53l-4.33-6.7a2.15,2.15,0,0,1-.14-.26,2.1,2.1,0,0,1-.13-.26h0a2.12,2.12,0,0,1,0,.42c0,.19,0,.43,0,.73v6.07h-1v-8.4h1.28l4.21,6.59.22.35.12.21h0a4.58,4.58,0,0,1,0-.49c0-.21,0-.45,0-.74v-5.92h1Z"/><path class="cls-1" d="M55.45,149.34l3.22-8.4h1l3.23,8.4H61.83L61,147.09H57.34l-.8,2.25Zm2.22-3.13h3l-1.36-3.69a1.84,1.84,0,0,1-.06-.23c0-.09,0-.2-.07-.33h0c0,.12,0,.22-.06.31a1.23,1.23,0,0,1-.08.25Z"/><path class="cls-1" d="M63.43,148.7l.48-.74a4.13,4.13,0,0,0,1,.48,4,4,0,0,0,1.21.16,2.09,2.09,0,0,0,1.26-.36,1.21,1.21,0,0,0,.49-1.05,1.25,1.25,0,0,0-.42-1,4.16,4.16,0,0,0-1.37-.71,5.11,5.11,0,0,1-1.75-1,1.83,1.83,0,0,1-.58-1.41,2.08,2.08,0,0,1,.75-1.67,2.84,2.84,0,0,1,1.94-.64,5.1,5.1,0,0,1,1.11.12,5.47,5.47,0,0,1,1.11.39l-.37.79a4,4,0,0,0-.94-.32,4.34,4.34,0,0,0-1-.1,1.87,1.87,0,0,0-1.19.35,1.18,1.18,0,0,0-.44,1,1.07,1.07,0,0,0,.4.88,4.91,4.91,0,0,0,1.35.67,4.82,4.82,0,0,1,1.82,1,2.1,2.1,0,0,1,.55,1.52,2.23,2.23,0,0,1-.74,1.7,3,3,0,0,1-2.07.68,4.72,4.72,0,0,1-1.39-.19A4.77,4.77,0,0,1,63.43,148.7Z"/><path class="cls-1" d="M80.64,149.34H78.27l-2.44-3.58a.75.75,0,0,1-.1-.17c0-.08-.08-.17-.13-.29h0v4H73.68v-8.4h1.89v3.9h0l.1-.2c0-.08.08-.17.14-.27l2.32-3.43h2.19l-2.88,4Z"/><path class="cls-1" d="M84.67,149.49a3.9,3.9,0,0,1-2.94-1.18,4.2,4.2,0,0,1-1.14-3.06A4.51,4.51,0,0,1,81.75,142a4,4,0,0,1,3.06-1.23A3.8,3.8,0,0,1,87.72,142a4.33,4.33,0,0,1,1.11,3.1,4.46,4.46,0,0,1-1.15,3.19A4,4,0,0,1,84.67,149.49Zm0-1.64a1.89,1.89,0,0,0,1.55-.7,3,3,0,0,0,.57-2,3.32,3.32,0,0,0-.55-2,1.82,1.82,0,0,0-1.53-.72,1.92,1.92,0,0,0-1.58.74,3.13,3.13,0,0,0-.58,2,3.09,3.09,0,0,0,.58,2A1.9,1.9,0,0,0,84.71,147.85Z"/><path class="cls-1" d="M99.8,149.34H97.93v-5c0-.27,0-.55,0-.85s0-.62.06-.94h0c0,.25-.1.47-.14.66a3.46,3.46,0,0,1-.12.45l-2,5.71H94.17l-2-5.65c0-.08-.06-.22-.11-.41s-.1-.45-.16-.76h-.05c0,.41.05.8.06,1.16s0,.7,0,1v4.65H90.22v-8.4H93l1.72,5a3.86,3.86,0,0,1,.17.55c.05.18.09.37.13.56h0c.06-.21.11-.41.17-.6a5.3,5.3,0,0,1,.17-.52l1.71-5H99.8Z"/><path class="cls-1" d="M108.56,145.7a4,4,0,0,1-.89,2.84,3.43,3.43,0,0,1-2.64,1,3.36,3.36,0,0,1-2.57-.92,4,4,0,0,1-.85-2.8v-4.83h1.89v4.87a2.5,2.5,0,0,0,.4,1.53,1.44,1.44,0,0,0,1.2.51,1.4,1.4,0,0,0,1.17-.49,2.36,2.36,0,0,0,.39-1.48v-4.94h1.9Z"/><path class="cls-1" d="M117.94,149.34H116l-3.46-5.28-.26-.41a3.08,3.08,0,0,1-.16-.29h0c0,.15,0,.34,0,.57s0,.49,0,.79v4.62h-1.79v-8.4h2l3.34,5.11.22.35.2.34h0a3.76,3.76,0,0,1,0-.44c0-.19,0-.43,0-.71v-4.65h1.78Z"/><path class="cls-1" d="M121.76,149.34h-1.9v-8.4h1.9Z"/><path class="cls-1" d="M130.62,149.34h-2.36l-2.45-3.58-.09-.17-.13-.29h0v4h-1.89v-8.4h1.89v3.9h0a1.13,1.13,0,0,1,.09-.2l.14-.27,2.32-3.43h2.2l-2.89,4Z"/><path class="cls-1" d="M130.55,149.34l3.06-8.4h2.24l3,8.4h-2.06l-.57-1.75h-3.05l-.56,1.75Zm3-3.23h2.19l-.92-2.92a3,3,0,0,1-.09-.29,2.16,2.16,0,0,1,0-.32h-.05q0,.18-.06.3a1.9,1.9,0,0,1-.09.29Z"/><path class="cls-1" d="M139.21,148.78l.78-1.47a4.92,4.92,0,0,0,1.1.51,3.51,3.51,0,0,0,1,.13,1.53,1.53,0,0,0,1-.26.85.85,0,0,0,.33-.71.84.84,0,0,0-.26-.66,2.09,2.09,0,0,0-.95-.39,4.51,4.51,0,0,1-2.05-.92,2.15,2.15,0,0,1-.64-1.65,2.34,2.34,0,0,1,.83-1.81,3.32,3.32,0,0,1,2.32-.75,5.41,5.41,0,0,1,1.21.14,5,5,0,0,1,1.14.41l-.71,1.49a4.29,4.29,0,0,0-.91-.39,3,3,0,0,0-.8-.12,1.49,1.49,0,0,0-.88.23.72.72,0,0,0-.32.63.69.69,0,0,0,.29.59,3.17,3.17,0,0,0,1,.38,3.89,3.89,0,0,1,2,.92,2.35,2.35,0,0,1,.61,1.74,2.45,2.45,0,0,1-.84,1.93,3.59,3.59,0,0,1-2.44.74,5.92,5.92,0,0,1-1.46-.19A4.86,4.86,0,0,1,139.21,148.78Z"/><path class="cls-1" d="M148.51,149.34h-1.89v-8.4h1.89Z"/><path class="cls-1" d="M153.73,149.34v-8.4h3a4.86,4.86,0,0,1,3.36,1,4,4,0,0,1,1.11,3.07,4.13,4.13,0,0,1-1.22,3.14,4.5,4.5,0,0,1-3.25,1.17Zm1.89-6.86v5.33h.94a2.53,2.53,0,0,0,1.93-.74,2.78,2.78,0,0,0,.7-2,2.55,2.55,0,0,0-.69-1.89,2.64,2.64,0,0,0-1.95-.69Z"/><path class="cls-1" d="M161.5,149.34l3.05-8.4h2.25l3,8.4h-2.07l-.56-1.75h-3l-.56,1.75Zm3-3.23h2.2l-.93-2.92a2.65,2.65,0,0,1-.08-.29,1.3,1.3,0,0,1-.06-.32h-.05q0,.18-.06.3c0,.09,0,.19-.08.29Z"/><path class="cls-1" d="M178.39,149.34h-1.91L173,144.06l-.26-.41a3.08,3.08,0,0,1-.16-.29h0q0,.22,0,.57c0,.22,0,.49,0,.79v4.62h-1.79v-8.4h2l3.34,5.11.22.35.2.34h0c0-.1,0-.24,0-.44s0-.43,0-.71v-4.65h1.78Z"/><path class="cls-1" d="M185.52,149.34h-1.89v-8.4h1.89Z"/><path class="cls-1" d="M195,149.34h-1.91l-3.47-5.28c-.1-.15-.18-.29-.25-.41s-.13-.21-.17-.29h0c0,.15,0,.34,0,.57s0,.49,0,.79v4.62h-1.79v-8.4h2l3.33,5.11.22.35.2.34h0a3.33,3.33,0,0,1,0-.44c0-.19,0-.43,0-.71v-4.65H195Z"/><path class="cls-1" d="M201.77,142.48h-3v2.06h2.73v1.54H198.8v3.26h-1.89v-8.4h4.86Z"/><path class="cls-1" d="M206.7,149.49a3.9,3.9,0,0,1-2.94-1.18,4.2,4.2,0,0,1-1.14-3.06,4.51,4.51,0,0,1,1.16-3.22,4,4,0,0,1,3.05-1.23,3.8,3.8,0,0,1,2.91,1.18,4.33,4.33,0,0,1,1.11,3.1,4.41,4.41,0,0,1-1.15,3.19A3.94,3.94,0,0,1,206.7,149.49Zm0-1.64a1.89,1.89,0,0,0,1.55-.7,3,3,0,0,0,.57-2,3.32,3.32,0,0,0-.55-2,1.84,1.84,0,0,0-1.53-.72,1.92,1.92,0,0,0-1.58.74,3.13,3.13,0,0,0-.59,2,3.09,3.09,0,0,0,.59,2A1.88,1.88,0,0,0,206.74,147.85Z"/><path class="cls-1" d="M219.08,149.34h-2.14l-1.12-2.07a3.11,3.11,0,0,0-.54-.76,1,1,0,0,0-.63-.29h-.51v3.12h-1.89v-8.4h3a3.73,3.73,0,0,1,2.29.59,2.13,2.13,0,0,1,.77,1.79,2.24,2.24,0,0,1-.49,1.44,2.9,2.9,0,0,1-1.35.9v0a1.58,1.58,0,0,1,.7.49,5,5,0,0,1,.55.78Zm-4.94-7v2.43H215a1.34,1.34,0,0,0,1-.37,1.27,1.27,0,0,0,.37-.91,1.1,1.1,0,0,0-.33-.87,1.48,1.48,0,0,0-1-.28Z"/><path class="cls-1" d="M229.66,149.34h-1.87v-5c0-.27,0-.55,0-.85s0-.62.05-.94h-.05c-.05.25-.1.47-.14.66a3.46,3.46,0,0,1-.12.45l-2,5.71H224l-2-5.65c0-.08-.06-.22-.11-.41s-.1-.45-.16-.76h0c0,.41,0,.8.06,1.16s0,.7,0,1v4.65h-1.71v-8.4h2.77l1.72,5a3.86,3.86,0,0,1,.17.55c0,.18.09.37.13.56h0c.05-.21.1-.41.16-.6a5.3,5.3,0,0,1,.17-.52l1.72-5h2.7Z"/><path class="cls-1" d="M230.66,149.34l3.06-8.4H236l3,8.4h-2.07l-.56-1.75h-3.05l-.56,1.75Zm3-3.23h2.2l-.93-2.92c0-.11-.06-.21-.09-.29a2.16,2.16,0,0,1-.05-.32h0q0,.18-.06.3c0,.09-.05.19-.08.29Z"/><path class="cls-1" d="M245.06,142.48h-2.4v6.86h-1.89v-6.86h-2.39v-1.54h6.68Z"/><path class="cls-1" d="M248.09,149.34H246.2v-8.4h1.89Z"/><path class="cls-1" d="M257,149.34h-2.37l-2.44-3.58a.75.75,0,0,1-.1-.17c0-.08-.08-.17-.13-.29h0v4H250v-8.4h1.89v3.9h0c0-.06.06-.13.1-.2s.08-.17.14-.27l2.32-3.43h2.19l-2.88,4Z"/><path class="cls-1" d="M256.89,149.34l3.05-8.4h2.25l3,8.4h-2.07l-.56-1.75H259.5l-.56,1.75Zm3-3.23h2.2l-.93-2.92-.08-.29a2,2,0,0,1-.06-.32H261q0,.18-.06.3c0,.09-.05.19-.08.29Z"/><path class="cls-1" d="M104.25,162.65h-1.78L100.62,160l-.07-.13-.1-.22h0v3H99v-6.33h1.43v2.94h0l.07-.15.11-.2,1.75-2.59H104l-2.17,3Z"/><path class="cls-1" d="M107.29,162.77a3,3,0,0,1-2.22-.89,3.19,3.19,0,0,1-.86-2.31,3.41,3.41,0,0,1,.87-2.43,3,3,0,0,1,2.31-.92,2.88,2.88,0,0,1,2.19.88,3.29,3.29,0,0,1,.84,2.34,3.35,3.35,0,0,1-.87,2.41A3,3,0,0,1,107.29,162.77Zm0-1.24a1.39,1.39,0,0,0,1.17-.53,2.27,2.27,0,0,0,.44-1.48,2.48,2.48,0,0,0-.42-1.53,1.38,1.38,0,0,0-1.15-.55,1.42,1.42,0,0,0-1.19.57,2.74,2.74,0,0,0,0,3A1.41,1.41,0,0,0,107.31,161.53Z"/><path class="cls-1" d="M115.55,157.48h-1.81v5.17h-1.43v-5.17h-1.79v-1.16h5Z"/><path class="cls-1" d="M115.09,162.65l2.31-6.33h1.69l2.25,6.33h-1.55l-.43-1.32h-2.3l-.42,1.32Zm2.28-2.43H119l-.7-2.2c0-.09,0-.16-.06-.22a1.19,1.19,0,0,1,0-.24h0a1.32,1.32,0,0,1,0,.23,1,1,0,0,1-.06.21Z"/><path class="cls-1" d="M129.07,157.48h-1.8v5.17h-1.44v-5.17H124v-1.16h5Z"/><path class="cls-1" d="M128.62,162.65l2.3-6.33h1.69l2.26,6.33h-1.56l-.43-1.32h-2.29l-.43,1.32Zm2.28-2.43h1.65l-.7-2.2a2.18,2.18,0,0,0-.06-.22,1.19,1.19,0,0,1,0-.24h0c0,.09,0,.16,0,.23s0,.14-.07.21Z"/><path class="cls-1" d="M141.35,162.65h-1.44l-2.61-4-.19-.31a1.72,1.72,0,0,1-.12-.22h0c0,.11,0,.25,0,.42s0,.38,0,.61v3.47h-1.34v-6.33h1.53l2.52,3.86.16.26a1.65,1.65,0,0,1,.15.25h0q0-.1,0-.33v-4h1.34Z"/><path class="cls-1" d="M145.45,160.58a2.15,2.15,0,0,1-.57,1.63,2.22,2.22,0,0,1-1.62.55,3,3,0,0,1-.59-.06,3.18,3.18,0,0,1-.62-.2l.44-1.08a1.59,1.59,0,0,0,.32.12,1,1,0,0,0,.32.05.81.81,0,0,0,.65-.24,1.13,1.13,0,0,0,.21-.77l0-4.26h1.42Z"/><path class="cls-1" d="M152,159.91a3,3,0,0,1-.66,2.14,2.6,2.6,0,0,1-2,.72,2.52,2.52,0,0,1-1.93-.7,3,3,0,0,1-.65-2.1v-3.65h1.43V160a1.86,1.86,0,0,0,.3,1.15,1.09,1.09,0,0,0,.9.38,1.06,1.06,0,0,0,.89-.37,1.75,1.75,0,0,0,.29-1.11v-3.73H152Z"/><path class="cls-1" d="M159.06,162.65h-1.44l-2.61-4-.19-.31-.12-.22h0q0,.16,0,.42v4.08h-1.34v-6.33h1.53l2.52,3.86.16.26c.06.08.11.17.16.25h0a2.38,2.38,0,0,1,0-.33c0-.14,0-.32,0-.54v-3.5h1.34Z"/><path class="cls-1" d="M165.71,162.18a4,4,0,0,1-1,.43,5.15,5.15,0,0,1-1.28.16,3.48,3.48,0,0,1-2.4-.8,3,3,0,0,1-.89-2.38,3.38,3.38,0,0,1,.9-2.41,3.32,3.32,0,0,1,2.52-1,5.59,5.59,0,0,1,1.11.1,5.28,5.28,0,0,1,1.06.32l-.45,1.1a5,5,0,0,0-.84-.25,4.88,4.88,0,0,0-.88-.08,1.91,1.91,0,0,0-1.41.53,2.21,2.21,0,0,0-.51,1.58,2.07,2.07,0,0,0,.51,1.55,1.85,1.85,0,0,0,1.34.5,2.13,2.13,0,0,0,.46,0,1.11,1.11,0,0,0,.35-.1v-1.24H163v-1.14h2.69Z"/><path class="cls-1" d="M168.37,160.58v2.07h-1.43v-6.33h2.24a2.64,2.64,0,0,1,1.79.52,1.93,1.93,0,0,1,.6,1.55,2,2,0,0,1-.69,1.59,2.67,2.67,0,0,1-1.83.6Zm0-3.16v2.08h.56a1.19,1.19,0,0,0,.85-.27,1.19,1.19,0,0,0,0-1.56,1.23,1.23,0,0,0-.85-.25Z"/><path class="cls-1" d="M173.92,162.65H172.5v-6.33h1.42Z"/><path class="cls-1" d="M181.06,162.65h-1.44l-2.61-4c-.08-.12-.14-.22-.19-.31a2,2,0,0,1-.13-.22h0c0,.11,0,.25,0,.42s0,.38,0,.61v3.47h-1.35v-6.33h1.54l2.51,3.86c.06.08.11.17.17.26l.15.25h0q0-.1,0-.33c0-.14,0-.32,0-.54v-3.5h1.35Z"/><path class="cls-1" d="M181.83,162.65l2.3-6.33h1.7l2.25,6.33h-1.56l-.43-1.32H183.8l-.43,1.32Zm2.28-2.43h1.65l-.69-2.2-.07-.22c0-.06,0-.14,0-.24h0c0,.09,0,.16,0,.23s0,.14-.07.21Z"/><path class="cls-1" d="M194.56,162.65h-1.44l-2.61-4-.19-.31-.12-.22h0q0,.16,0,.42v4.08h-1.34v-6.33h1.53l2.52,3.86.16.26c.06.08.11.17.16.25h0a2.38,2.38,0,0,1,0-.33c0-.14,0-.32,0-.54v-3.5h1.34Z"/><path class="cls-1" d="M201.21,162.18a4,4,0,0,1-1,.43,5.15,5.15,0,0,1-1.28.16,3.48,3.48,0,0,1-2.4-.8,3,3,0,0,1-.89-2.38,3.38,3.38,0,0,1,.9-2.41,3.32,3.32,0,0,1,2.52-1,5.59,5.59,0,0,1,1.11.1,5.28,5.28,0,0,1,1.06.32l-.45,1.1a5,5,0,0,0-.84-.25,4.88,4.88,0,0,0-.88-.08,1.91,1.91,0,0,0-1.41.53,2.21,2.21,0,0,0-.51,1.58,2.07,2.07,0,0,0,.51,1.55,1.85,1.85,0,0,0,1.34.5,2.13,2.13,0,0,0,.46,0,1.11,1.11,0,0,0,.35-.1v-1.24h-1.26v-1.14h2.69Z"/><circle class="cls-1" cx="145.72" cy="42.15" r="12.66"/><path class="cls-1" d="M163.52,71.84a8.48,8.48,0,0,0-8.47,8.47V117.4a8.47,8.47,0,1,0,16.93,0V80.31A8.47,8.47,0,0,0,163.52,71.84Z"/><path class="cls-1" d="M181.47,79.05A8.48,8.48,0,0,0,173,87.52V117.4a8.47,8.47,0,1,0,16.93,0V87.52A8.48,8.48,0,0,0,181.47,79.05Z"/><path class="cls-1" d="M199.27,84.29a8.47,8.47,0,0,0-8.46,8.46V117.4a8.47,8.47,0,1,0,16.93,0V92.75A8.47,8.47,0,0,0,199.27,84.29Z"/><rect class="cls-2" x="155.96" y="72.75" width="15.12" height="52.22" rx="7.56"/><path class="cls-2" d="M163.52,125.12a7.72,7.72,0,0,1-7.71-7.72V80.31a7.71,7.71,0,1,1,15.42,0V117.4A7.72,7.72,0,0,1,163.52,125.12Zm0-52.22a7.41,7.41,0,0,0-7.41,7.41V117.4a7.41,7.41,0,0,0,14.82,0V80.31A7.42,7.42,0,0,0,163.52,72.9Z"/><rect class="cls-2" x="173.91" y="79.95" width="15.12" height="45.01" rx="7.56"/><path class="cls-2" d="M181.48,125.12a7.72,7.72,0,0,1-7.72-7.72V87.52a7.72,7.72,0,1,1,15.43,0V117.4A7.72,7.72,0,0,1,181.48,125.12Zm0-45a7.41,7.41,0,0,0-7.41,7.41V117.4a7.41,7.41,0,0,0,7.4,7.41h0a7.41,7.41,0,0,0,7.4-7.41V87.52A7.41,7.41,0,0,0,181.48,80.11Z"/><rect class="cls-2" x="191.71" y="85.19" width="15.12" height="39.77" rx="7.56"/><path class="cls-2" d="M199.27,125.12a7.72,7.72,0,0,1-7.71-7.72V92.75a7.72,7.72,0,0,1,15.43,0V117.4A7.72,7.72,0,0,1,199.27,125.12Zm0-39.78a7.43,7.43,0,0,0-7.41,7.41V117.4a7.41,7.41,0,0,0,14.82,0V92.75A7.42,7.42,0,0,0,199.27,85.34Z"/><path class="cls-1" d="M121.74,78.62a8.23,8.23,0,0,1,8.11,6.82l5.32,30.11a8.26,8.26,0,0,1-6.69,9.56,8.66,8.66,0,0,1-1.44.12,8.23,8.23,0,0,1-8.12-6.81l-5.31-30.11a8.24,8.24,0,0,1,6.68-9.56,8.88,8.88,0,0,1,1.45-.13m0-1.2a9.3,9.3,0,0,0-1.66.14,9.45,9.45,0,0,0-7.66,11l5.31,30.11a9.44,9.44,0,0,0,9.31,7.81,10.11,10.11,0,0,0,1.65-.14,9.48,9.48,0,0,0,7.67-11L131,85.23a9.43,9.43,0,0,0-9.3-7.81Z"/><path class="cls-1" d="M127,124.18a7.2,7.2,0,0,1-7.07-5.94l-5.31-30.12a7.07,7.07,0,0,1,1.19-5.37,7.19,7.19,0,0,1,13,2.87l5.32,30.11a7.2,7.2,0,0,1-5.83,8.34h0A7.78,7.78,0,0,1,127,124.18Zm-5.29-43.29a6.2,6.2,0,0,0-1,.09,6,6,0,0,0-4.85,6.93L121.15,118a6,6,0,0,0,6.94,4.85h0a6,6,0,0,0,4.85-6.94l-5.32-30.11a6,6,0,0,0-5.88-4.94Z"/><path class="cls-1" d="M160.62,31.11l-2.77,3.19a14.43,14.43,0,0,1-.31,16.15l2.74,3.19a18.53,18.53,0,0,0,.34-22.53Z"/><path class="cls-1" d="M165.51,25.49l-3,3.5a21.31,21.31,0,0,1-.37,26.78l3,3.5a25.86,25.86,0,0,0,.4-33.78Z"/><path class="cls-1" d="M169.85,20.51l-2.56,2.94a28.55,28.55,0,0,1-.42,37.88l2.53,2.94a32.4,32.4,0,0,0,.45-43.76Z"/><path class="cls-1" d="M130.82,31.11l2.77,3.19a14.45,14.45,0,0,0,.3,16.15l-2.73,3.19a18.53,18.53,0,0,1-.34-22.53Z"/><path class="cls-1" d="M125.93,25.49l3,3.5a21.27,21.27,0,0,0,.37,26.78l-3,3.5a25.86,25.86,0,0,1-.4-33.78Z"/><path class="cls-1" d="M121.59,20.51l2.56,2.94a28.55,28.55,0,0,0,.42,37.88L122,64.27a32.4,32.4,0,0,1-.45-43.76Z"/><path class="cls-2" d="M145.72,30.05a12.1,12.1,0,1,0,12.1,12.1A12.12,12.12,0,0,0,145.72,30.05Z"/><path class="cls-1" d="M145.72,38.06a8.47,8.47,0,0,0-8.47,8.46V117.4a8.47,8.47,0,0,0,16.94,0V46.52A8.47,8.47,0,0,0,145.72,38.06Z"/><rect class="cls-2" x="138.16" y="38.96" width="15.12" height="86" rx="7.56"/><path class="cls-2" d="M145.72,125.12A7.72,7.72,0,0,1,138,117.4V46.52a7.71,7.71,0,0,1,15.42,0V117.4A7.72,7.72,0,0,1,145.72,125.12Zm0-86a7.42,7.42,0,0,0-7.41,7.41V117.4a7.41,7.41,0,0,0,14.82,0V46.52A7.43,7.43,0,0,0,145.72,39.11Z"/></svg>