<svg id="Layer_1" data-name="Layer 1" xmlns="http://www.w3.org/2000/svg" viewBox="0 0 180 180"><defs><style>.cls-1{fill:#d9dadb;}.cls-2{fill:#c4c6c7;}</style></defs><path class="cls-1" d="M123.85,88c-.65-.2-.64.8-.83,1.28C118.86,100,112.52,109,103,115.62a99,99,0,0,1-9.28,5.43c-.8.34-1.61.67-2.4,1-2.63,1.16-2.6,1.16-3.27-1.66a29.64,29.64,0,0,0-1.22-5.27s0-.11,0-.16,0,.11,0,.16a52.46,52.46,0,0,0,14.38-5.82A42.86,42.86,0,0,0,115,96.3a57.7,57.7,0,0,0,9-21.25,2.15,2.15,0,0,0,0-1.18c-.12-.35-.3-.72-.69-.73s-.38.45-.46.73a65.35,65.35,0,0,1-4.63,11.53c-6.51,12.94-17,20.7-31,24-.77.18-.92,0-1-.73-.22-2.44-.15-4.87-.19-7.31,0-.79.33-1,1-1.15a41.77,41.77,0,0,0,15-6.85,44.8,44.8,0,0,0,12-12.59c4.08-6.37,6.45-13.42,8.26-20.69.52-2.1-.36-3-2.48-2.46-2.87.69-5.71,1.5-8.5,2.47C95.12,65.71,83.87,76,79.42,92.9a.8.8,0,0,1-.9.69c-2.48.08-5,0-7.42-.14-.69,0-1.06-.2-.75-1s.39-1.47.59-2.2a45.42,45.42,0,0,1,7.79-16A43.73,43.73,0,0,1,93,62.33a67.29,67.29,0,0,1,12.69-5.27c.33-.1.84-.05.85-.47s-.48-.71-.9-.84a2.63,2.63,0,0,0-1.3.14,61.43,61.43,0,0,0-17.22,6.64c-11.82,6.73-19.11,16.88-22.48,30-2.61,0-5.07-.92-7.6-1.44-.55-.12-.36-.5-.22-.84l1.65-3.84c.19-.34.41-.68.58-1a55.93,55.93,0,0,1,14.8-19.13A61.29,61.29,0,0,1,90.5,56.82l1-.39c.2-.08.37-.19.28-.44a.44.44,0,0,0-.45-.32,8,8,0,0,0-.82.17A44.73,44.73,0,0,0,70.2,65.72,69.23,69.23,0,0,0,55.08,83.66c-.91,1.63-1.87,3.23-2.71,4.89-.41.83-.77,1-1.72.76A114.82,114.82,0,0,1,34.23,83c-8-3.78-16-7.62-22.93-13.3-1.75-1.44-2.78-1.27-4.33.41a23.05,23.05,0,0,0-3.21,4.73A44.85,44.85,0,0,0,.13,83.32c-.33,1.13,0,1.4,1.09,1.12a6.3,6.3,0,0,1,2.25-.12,28.47,28.47,0,0,1,5,1.16C13.37,87,18,89,22.81,90.86a194.52,194.52,0,0,0,24.06,7.56c.6.14,1,.22.72,1.06a75.46,75.46,0,0,0-3,9.85c-.14.64-.41.71-1,.62a142.23,142.23,0,0,1-32.17-8.66A31.54,31.54,0,0,0,6.34,99.6a8.69,8.69,0,0,0-4.95,0,1.54,1.54,0,0,0-1.2,1.81,30.51,30.51,0,0,0,3.75,10.91,1.46,1.46,0,0,0,1.94.7,6.94,6.94,0,0,1,3.78-.18c1.48.3,3,.53,4.46.89a153.89,153.89,0,0,0,27.81,4.43c.61,0,.81.19.74.85-.39,3.24-.86,6.48-1,9.75,0,.76-.5.69-1,.65-2.35-.19-4.7-.35-7-.6A150.45,150.45,0,0,1,13.56,125c-.34-.08-.75-.33-1,0a1,1,0,0,0,.17,1.12c.2.25.42.48.63.72,1.72,1.84,3.46,3.66,5.14,5.53A15.9,15.9,0,0,0,27,137.34a57,57,0,0,0,13.23,1c.82,0,1.09.2,1.09,1.06A85,85,0,0,0,41.7,149c.46,4.46,1.61,8.64,5,11.86,2.07,1.95,4.15,3.87,6.23,5.8.29.26.55.61,1,.67s1.1.14.82-.75c-.19-.61-.31-1.24-.46-1.86a134.46,134.46,0,0,1-4-25.38c0-.9.13-1.25,1.11-1.3a74.35,74.35,0,0,0,8.81-.94c1.12-.2,1.32.18,1.37,1.16a131.75,131.75,0,0,0,1.61,14.15c.94,5.83,2.53,11.52,3.61,17.32a9,9,0,0,1,0,3.8c-.4,1.72-.29,2.07,1.22,2.86a36.07,36.07,0,0,0,10,3.36,1.69,1.69,0,0,0,2.13-1.25,7.54,7.54,0,0,0,.28-3.43A28.84,28.84,0,0,0,78.23,168a145.33,145.33,0,0,1-8.47-31.48c-.15-.9.09-1.25,1-1.44,2.54-.55,5-1.35,7.48-2.14.9-.28,2-1.17,2.63-.71s.61,1.72.86,2.64A206.94,206.94,0,0,0,90,160a93.3,93.3,0,0,1,5,14.46,10.18,10.18,0,0,1,.33,3.56c-.28,2.17-.28,2.2,1.79,1.46a42.37,42.37,0,0,0,11.76-6.07c2.52-1.93,2.63-3,.63-5.44a59.5,59.5,0,0,1-5.56-8.09,166.11,166.11,0,0,1-8.84-17.65,100.58,100.58,0,0,1-4.86-13.36c-.13-.46-.38-.88.28-1.18,2.13-1,4.05-2.28,6.07-3.42a3.49,3.49,0,0,0,.44-.2,68.48,68.48,0,0,0,18.49-16.43,43,43,0,0,0,8.31-18.12C124,89,124.54,88.17,123.85,88Zm-36.7,4a42.05,42.05,0,0,1,4.13-11.7C96,71.45,103.45,65.91,112.43,62.1c2.32-1,4.7-1.79,7.1-2.54.63-.2,1-.26.76.63-2.58,8.29-6.17,16-12.47,22.19-5.59,5.48-12.4,8.61-20,10.18l-.48.12C86.82,92.69,87.1,92.26,87.15,92Zm-26.06,36.5c0,.68-.19,1-1,1-3-.15-6.05.13-9.08.19-.9,0-1.07-.31-1-1.1.06-1.48,0-3,0-4.43h.06c.09-1.6.21-3.19.26-4.78,0-.58.23-.76.79-.76,3.07,0,6.15,0,9.22,0,.6,0,.74.23.73.78Q61.06,123.91,61.09,128.46Zm1.46-26.37a84.78,84.78,0,0,0-1.06,8.56c-.05.73-.35,1-1.05.88a14.82,14.82,0,0,0-1.63,0c-2.28-.18-4.5-.38-6.73-.53-.6,0-.86-.18-.74-.86.56-3.14,1.12-6.28,1.9-9.38.16-.65.39-.92,1.14-.79,2.44.41,4.89.77,7.34,1.1C62.42,101.15,62.69,101.34,62.55,102.09Zm14.85-.54c.62,0,.75.14.73.71-.07,1.48-.08,2.95-.11,4.43h0c0,1.15,0,2.3,0,3.46,0,.6-.16.81-.78.87-2.74.26-5.47.44-8.21.54-.72,0-1-.14-1-.91.22-2.69.42-5.39.56-8.09,0-.81.38-1,1.1-.93,1.11.05,2.22,0,3.34,0C74.53,101.61,76,101.63,77.4,101.55Zm1.41,25c-3,.6-6,1.12-9,1.72-.82.16-1.15,0-1.18-.88-.07-1.48-.32-3-.3-4.41s-.46-2.57-.46-3.89c0-.48,0-.84.64-.88,3.15-.17,6.26-.64,9.21-1.09.67-.17.78.15.82.55.28,2.68.67,5.35,1.15,8C79.8,126.38,79.17,126.47,78.81,126.55Zm7.78-12a.94.94,0,0,1,.14.26A.94.94,0,0,0,86.59,114.58Z"/><path class="cls-2" d="M154.17,93.38h0a59.86,59.86,0,0,0,0-16.59C153.78,73.75,165,70,165,68c0-3-1.94-7.87-3-10.4h0c-1-2.56-3-7.38-5.17-9.54-1.41-1.41-12.12,3.83-13.9,1.32l0,0a60.2,60.2,0,0,0-5.47-6.33,58.76,58.76,0,0,0-6.29-5.48c-2.41-1.88,2.81-12.46,1.41-13.87-2.14-2.17-6.94-4.2-9.5-5.21h0c-2.52-1.1-7.35-3.09-10.4-3.08-2,0-5.86,11.25-8.9,10.76a59.79,59.79,0,0,0-16.58,0c-3,.47-6.85-10.79-8.84-10.8-3,0-7.88,1.94-10.4,3h0c-2.57,1-7.38,3-9.54,5.16C57,24.94,62.26,35.65,59.75,37.43l.09,0a60.5,60.5,0,0,0-6.35,5.48A59.75,59.75,0,0,0,48,49.15v0c-1.79,2.5-12.48-2.78-13.9-1.37-2.16,2.14-4.19,6.93-5.2,9.5h0c-1.11,2.52-3.09,7.35-3.09,10.4,0,2,11.28,5.87,10.77,8.9v-.06l-.21,1.62,14.23,5.12A44.81,44.81,0,1,1,96.1,129.74l5.15,14.31c.78-.08,1.55-.17,2.33-.27h-.06c3-.5,6.86,10.79,8.86,10.8,3.05,0,7.87-1.94,10.4-3h0c2.56-1,7.38-3,9.53-5.16,1.41-1.42-3.82-12.13-1.31-13.91l-.1.06a58.62,58.62,0,0,0,11.84-11.77v0c1.8-2.5,12.48,2.78,13.9,1.37,2.17-2.14,4.2-6.93,5.21-9.5h0c1.11-2.52,3.1-7.35,3.09-10.4C164.93,100.29,153.66,96.41,154.17,93.38Z"/><path class="cls-1" d="M180,2.85c0-2.3-.77-2.81-2.91-2.79-9,.1-18,.07-27,0-6.33,0-12.69-.38-18.63,2.46l-6.12,6.12c-.36,1.47-.85,2.9-1.29,4.35l1.25.53.09,0q2.53,1,4.57,2l.32.14h0a23.82,23.82,0,0,1,6.2,4.16c2.82,2.85,1.78,6.57.59,10.89-.28,1-.72,2.6-.94,3.75,1.2,1,2.37,2,3.49,3q2.55-2.53,5.11-5c1.89-1.86,3-3.38,2.3-6.45-1.08-4.5,2.58-8.61,7.14-9a8,8,0,0,1,8.74,8c0,4.51-4.16,9.22-8.25,7.87-5-1.66-6.92,1.34-9.52,3.92L142,40c1.37,1.42,2.7,2.92,4,4.5,1.16-.21,2.77-.65,3.77-.92,4.32-1.18,8.05-2.2,10.89.63,2.14,2.14,4.23,5.87,6.38,11.41l0,.09c0,.1.08.2.13.3,7.68-2.45,12.56-9.09,12.71-18.17C180.1,26.17,179.89,14.51,180,2.85Z"/></svg>