<svg id="Layer_1" data-name="Layer 1" xmlns="http://www.w3.org/2000/svg" viewBox="0 0 300 180"><defs><style>.cls-1{fill:#bfc1c2;}.cls-2{fill:#d9dadb;}.cls-3{fill:#c4c6c7;}</style></defs><path class="cls-1" d="M21.91,149.34v-8.4h2.32a4.77,4.77,0,0,1,3.33,1A4,4,0,0,1,28.67,145a4.14,4.14,0,0,1-1.23,3.13,4.55,4.55,0,0,1-3.3,1.18Zm1-7.51v6.62h1.25a3.55,3.55,0,0,0,2.57-.88,3.34,3.34,0,0,0,.92-2.51,3.12,3.12,0,0,0-.86-2.42,3.62,3.62,0,0,0-2.57-.81Z"/><path class="cls-1" d="M31.31,149.34h-1v-8.4h1Z"/><path class="cls-1" d="M40.29,149.34H39.08l-4.32-6.7-.15-.26-.12-.26h0q0,.13,0,.42c0,.19,0,.43,0,.73v6.07h-1v-8.4H34.8l4.2,6.59c.09.14.17.25.22.35a1.28,1.28,0,0,1,.12.21h0a4.16,4.16,0,0,1,0-.49c0-.21,0-.45,0-.74v-5.92h1Z"/><path class="cls-1" d="M41.52,149.34l3.23-8.4h1l3.24,8.4H47.91l-.85-2.25H43.42l-.8,2.25Zm2.23-3.13h3l-1.36-3.69a.9.9,0,0,1-.07-.23q0-.14-.06-.33h0a2.05,2.05,0,0,1-.07.31,1.26,1.26,0,0,1-.07.25Z"/><path class="cls-1" d="M49.51,148.7,50,148a4,4,0,0,0,1,.48,3.92,3.92,0,0,0,1.2.16,2.12,2.12,0,0,0,1.27-.36,1.22,1.22,0,0,0,.49-1.06,1.24,1.24,0,0,0-.42-1,4.38,4.38,0,0,0-1.37-.71,5.17,5.17,0,0,1-1.76-1,1.84,1.84,0,0,1-.57-1.41,2.1,2.1,0,0,1,.74-1.67,2.88,2.88,0,0,1,1.95-.64,5.08,5.08,0,0,1,1.1.12,5.27,5.27,0,0,1,1.11.39l-.36.79a4.18,4.18,0,0,0-.94-.32,4.34,4.34,0,0,0-1-.1,1.92,1.92,0,0,0-1.2.35,1.2,1.2,0,0,0-.44,1,1.08,1.08,0,0,0,.41.88,4.91,4.91,0,0,0,1.35.67,4.68,4.68,0,0,1,1.81,1A2.06,2.06,0,0,1,55,147.1a2.23,2.23,0,0,1-.73,1.7,3,3,0,0,1-2.08.68,4.65,4.65,0,0,1-1.38-.19A4.77,4.77,0,0,1,49.51,148.7Z"/><path class="cls-1" d="M61.65,146.59v2.75H59.76v-8.4h3a3.58,3.58,0,0,1,2.38.68,2.6,2.6,0,0,1,.8,2.07,2.7,2.7,0,0,1-.91,2.1,3.59,3.59,0,0,1-2.44.8Zm0-4.2v2.76h.74a1.59,1.59,0,0,0,1.14-.35,1.35,1.35,0,0,0,.38-1,1.33,1.33,0,0,0-.38-1,1.64,1.64,0,0,0-1.14-.34Z"/><path class="cls-1" d="M72.17,149.34h-5v-8.4H72v1.54H69v1.87h2.75v1.53H69v1.93h3.15Z"/><path class="cls-1" d="M80.34,149.34H78.2l-1.12-2.07a3.11,3.11,0,0,0-.54-.76,1,1,0,0,0-.62-.29h-.51v3.12h-1.9v-8.4h3a3.76,3.76,0,0,1,2.3.59,2.12,2.12,0,0,1,.76,1.79,2.19,2.19,0,0,1-.49,1.44,2.9,2.9,0,0,1-1.35.9v0a1.53,1.53,0,0,1,.7.49A5.1,5.1,0,0,1,79,147Zm-4.93-7v2.43h.82a1.3,1.3,0,0,0,1-.37,1.24,1.24,0,0,0,.37-.92,1.09,1.09,0,0,0-.33-.86,1.48,1.48,0,0,0-1-.28Z"/><path class="cls-1" d="M81.35,149.34v-8.4h3a4.81,4.81,0,0,1,3.35,1A4,4,0,0,1,88.8,145a4.13,4.13,0,0,1-1.22,3.14,4.5,4.5,0,0,1-3.25,1.17Zm1.89-6.86v5.33h.94a2.55,2.55,0,0,0,1.93-.74,2.78,2.78,0,0,0,.7-2,2.55,2.55,0,0,0-.69-1.89,2.67,2.67,0,0,0-2-.69Z"/><path class="cls-1" d="M89.11,149.34l3.06-8.4h2.24l3,8.4H95.34l-.57-1.75h-3l-.57,1.75Zm3-3.23h2.19l-.92-2.92a3,3,0,0,1-.09-.29,2.16,2.16,0,0,1,0-.32h0q0,.18-.06.3a1.9,1.9,0,0,1-.09.29Z"/><path class="cls-1" d="M105.23,148.71a5.18,5.18,0,0,1-1.35.57,6.57,6.57,0,0,1-1.71.21A4.59,4.59,0,0,1,99,148.44a4,4,0,0,1-1.19-3.17,4.47,4.47,0,0,1,1.2-3.19,4.36,4.36,0,0,1,3.34-1.28,7.52,7.52,0,0,1,1.47.13,7.75,7.75,0,0,1,1.41.43l-.59,1.47a5.94,5.94,0,0,0-2.29-.45,2.46,2.46,0,0,0-1.86.71,2.89,2.89,0,0,0-.69,2.1,2.74,2.74,0,0,0,.68,2.05,2.46,2.46,0,0,0,1.78.66,3.67,3.67,0,0,0,.61-.05,1.88,1.88,0,0,0,.47-.13v-1.65h-1.68v-1.52h3.57Z"/><path class="cls-1" d="M106,149.34l3.06-8.4h2.25l3,8.4h-2.06l-.57-1.75h-3l-.57,1.75Zm3-3.23h2.19l-.92-2.92c0-.11-.06-.21-.09-.29a2.16,2.16,0,0,1,0-.32h-.05q0,.18-.06.3a1.9,1.9,0,0,1-.09.29Z"/><path class="cls-1" d="M122.86,149.34H121l-3.46-5.28-.26-.4c-.07-.12-.12-.22-.16-.3h0c0,.15,0,.34,0,.57s0,.49,0,.79v4.62H115.3v-8.4h2l3.34,5.11.22.35.2.34h0a3.76,3.76,0,0,1,0-.44c0-.19,0-.43,0-.71v-4.65h1.78Z"/><path class="cls-1" d="M131.68,148.71a5.18,5.18,0,0,1-1.35.57,6.57,6.57,0,0,1-1.71.21,4.64,4.64,0,0,1-3.18-1.05,4,4,0,0,1-1.18-3.17,4.47,4.47,0,0,1,1.2-3.19,4.34,4.34,0,0,1,3.34-1.28,7.52,7.52,0,0,1,1.47.13,7.75,7.75,0,0,1,1.41.43l-.59,1.47a5.94,5.94,0,0,0-2.29-.45,2.49,2.49,0,0,0-1.87.71,2.93,2.93,0,0,0-.68,2.1,2.74,2.74,0,0,0,.68,2.05,2.46,2.46,0,0,0,1.78.66,3.67,3.67,0,0,0,.61-.05,1.88,1.88,0,0,0,.47-.13v-1.65h-1.68v-1.52h3.57Z"/><path class="cls-1" d="M132.41,149.34l3.06-8.4h2.25l3,8.4h-2.06l-.57-1.75h-3l-.57,1.75Zm3-3.23h2.19l-.92-2.92c0-.11-.06-.21-.09-.29a2.16,2.16,0,0,1-.05-.32h0q0,.18-.06.3a1.9,1.9,0,0,1-.09.29Z"/><path class="cls-1" d="M149.31,149.34H147.4l-3.46-5.28-.26-.4c-.07-.12-.12-.22-.16-.3h0c0,.15,0,.34,0,.57s0,.49,0,.79v4.62h-1.79v-8.4h2l3.34,5.11.22.35.2.34h0a3.76,3.76,0,0,1,0-.44c0-.19,0-.43,0-.71v-4.65h1.79Z"/><path class="cls-1" d="M154.54,149.34v-8.4h3a4.86,4.86,0,0,1,3.36,1A4,4,0,0,1,162,145a4.16,4.16,0,0,1-1.22,3.14,4.52,4.52,0,0,1-3.26,1.17Zm1.9-6.86v5.33h.93a2.57,2.57,0,0,0,1.94-.74,2.82,2.82,0,0,0,.69-2,2.55,2.55,0,0,0-.69-1.89,2.64,2.64,0,0,0-1.95-.69Z"/><path class="cls-1" d="M162.31,149.34l3.06-8.4h2.24l3,8.4h-2.06l-.57-1.75h-3.05l-.56,1.75Zm3-3.23h2.2l-.93-2.92-.08-.29c0-.09,0-.19-.06-.32h-.05a1.13,1.13,0,0,1-.06.3c0,.09,0,.19-.08.29Z"/><path class="cls-1" d="M179.21,149.34H177.3l-3.47-5.28c-.1-.15-.18-.29-.25-.4a2.59,2.59,0,0,1-.17-.3h0q0,.22,0,.57c0,.22,0,.49,0,.79v4.62h-1.78v-8.4h2l3.33,5.11.22.35.2.34h0a3.33,3.33,0,0,1,0-.44c0-.19,0-.43,0-.71v-4.65h1.79Z"/><path class="cls-1" d="M186.33,146.59v2.75h-1.89v-8.4h3a3.62,3.62,0,0,1,2.39.68,2.59,2.59,0,0,1,.79,2.07,2.67,2.67,0,0,1-.91,2.1,3.59,3.59,0,0,1-2.44.8Zm0-4.2v2.76h.75a1.58,1.58,0,0,0,1.13-.35,1.35,1.35,0,0,0,.38-1,1.33,1.33,0,0,0-.38-1,1.62,1.62,0,0,0-1.13-.34Z"/><path class="cls-1" d="M196.85,149.34h-5v-8.4h4.85v1.54h-3v1.87h2.75v1.53H193.7v1.93h3.15Z"/><path class="cls-1" d="M205,149.34h-2.14l-1.12-2.07a2.86,2.86,0,0,0-.54-.76,1,1,0,0,0-.62-.29h-.51v3.12H198.2v-8.4h3a3.73,3.73,0,0,1,2.29.59,2.12,2.12,0,0,1,.76,1.79,2.19,2.19,0,0,1-.49,1.44,2.85,2.85,0,0,1-1.35.9v0a1.6,1.6,0,0,1,.71.49,5,5,0,0,1,.55.78Zm-4.93-7v2.43h.82a1.3,1.3,0,0,0,1-.37,1.24,1.24,0,0,0,.37-.92,1.09,1.09,0,0,0-.33-.86,1.45,1.45,0,0,0-1-.28Z"/><path class="cls-1" d="M207.92,149.34H206v-8.4h1.89Z"/><path class="cls-1" d="M217.39,149.34h-1.91L212,144.06l-.26-.4c-.07-.12-.12-.22-.16-.3h0c0,.15,0,.34,0,.57s0,.49,0,.79v4.62h-1.79v-8.4h2l3.34,5.11.22.35.2.34h0a3.76,3.76,0,0,1,0-.44c0-.19,0-.43,0-.71v-4.65h1.79Z"/><path class="cls-1" d="M219.31,149.34v-8.4h3a4.86,4.86,0,0,1,3.36,1,4,4,0,0,1,1.12,3.07,4.16,4.16,0,0,1-1.22,3.14,4.52,4.52,0,0,1-3.26,1.17Zm1.9-6.86v5.33h.93a2.57,2.57,0,0,0,1.94-.74,2.82,2.82,0,0,0,.69-2,2.55,2.55,0,0,0-.69-1.89,2.64,2.64,0,0,0-2-.69Z"/><path class="cls-1" d="M235,145.7a4,4,0,0,1-.88,2.84,3.46,3.46,0,0,1-2.65,1,3.34,3.34,0,0,1-2.56-.92,4,4,0,0,1-.86-2.8v-4.83H230v4.87a2.43,2.43,0,0,0,.4,1.53,1.65,1.65,0,0,0,2.37,0,2.36,2.36,0,0,0,.39-1.48v-4.94H235Z"/><path class="cls-1" d="M236.15,148.78l.79-1.47a4.92,4.92,0,0,0,1.1.51,3.46,3.46,0,0,0,1,.13,1.53,1.53,0,0,0,1-.26.84.84,0,0,0,.32-.71.8.8,0,0,0-.26-.66,2.14,2.14,0,0,0-.94-.4,4.41,4.41,0,0,1-2-.91,2.11,2.11,0,0,1-.64-1.65,2.34,2.34,0,0,1,.83-1.81,3.31,3.31,0,0,1,2.31-.75,5.29,5.29,0,0,1,2.36.55l-.71,1.49a4.52,4.52,0,0,0-.91-.39,3,3,0,0,0-.8-.12,1.52,1.52,0,0,0-.89.23.71.71,0,0,0-.31.63.66.66,0,0,0,.29.59,3.17,3.17,0,0,0,1,.38,3.89,3.89,0,0,1,2,.92,2.35,2.35,0,0,1,.61,1.74,2.45,2.45,0,0,1-.84,1.93,3.59,3.59,0,0,1-2.44.74,5.92,5.92,0,0,1-1.46-.19A4.81,4.81,0,0,1,236.15,148.78Z"/><path class="cls-1" d="M249.46,142.48h-2.4v6.86h-1.9v-6.86h-2.38v-1.54h6.68Z"/><path class="cls-1" d="M257.42,149.34h-2.14l-1.12-2.07a2.66,2.66,0,0,0-.54-.76,1,1,0,0,0-.62-.29h-.51v3.12H250.6v-8.4h3a3.73,3.73,0,0,1,2.29.59,2.13,2.13,0,0,1,.77,1.79,2.19,2.19,0,0,1-.5,1.44,2.87,2.87,0,0,1-1.34.9v0a1.58,1.58,0,0,1,.7.49,5,5,0,0,1,.55.78Zm-4.93-7v2.43h.82a1.3,1.3,0,0,0,1-.37,1.24,1.24,0,0,0,.37-.92,1.09,1.09,0,0,0-.33-.86,1.45,1.45,0,0,0-1-.28Z"/><path class="cls-1" d="M260.32,149.34h-1.89v-8.4h1.89Z"/><path class="cls-1" d="M261.33,149.34l3.06-8.4h2.24l3,8.4h-2.06l-.57-1.75h-3.05l-.56,1.75Zm3-3.23h2.2l-.92-2.92a3,3,0,0,1-.09-.29,2.16,2.16,0,0,1-.05-.32h-.05q0,.18-.06.3a1.9,1.9,0,0,1-.09.29Z"/><path class="cls-1" d="M278.23,149.34h-1.91l-3.46-5.28c-.11-.15-.19-.29-.26-.4l-.17-.3h0c0,.15,0,.34,0,.57s0,.49,0,.79v4.62h-1.79v-8.4h2l3.33,5.11.22.35c.08.11.14.23.21.34h0a3.33,3.33,0,0,1,0-.44c0-.19,0-.43,0-.71v-4.65h1.79Z"/><path class="cls-1" d="M104.25,162.66h-1.78l-1.85-2.7-.07-.13c0-.06-.06-.13-.1-.22h0v3H99v-6.34h1.42v2.94h0a1.07,1.07,0,0,0,.07-.15l.11-.2,1.75-2.59H104l-2.18,3Z"/><path class="cls-1" d="M107.29,162.77a3,3,0,0,1-2.22-.89,3.18,3.18,0,0,1-.85-2.31,3.41,3.41,0,0,1,.87-2.43,3,3,0,0,1,2.3-.92,2.86,2.86,0,0,1,2.19.88,3.3,3.3,0,0,1,.84,2.35,3.34,3.34,0,0,1-.87,2.4A3,3,0,0,1,107.29,162.77Zm0-1.24a1.42,1.42,0,0,0,1.17-.53,2.27,2.27,0,0,0,.43-1.48,2.48,2.48,0,0,0-.42-1.53,1.38,1.38,0,0,0-1.15-.55,1.42,1.42,0,0,0-1.19.57,2.74,2.74,0,0,0,0,3A1.42,1.42,0,0,0,107.32,161.53Z"/><path class="cls-1" d="M115.55,157.48h-1.8v5.18h-1.43v-5.18h-1.8v-1.16h5Z"/><path class="cls-1" d="M115.1,162.66l2.3-6.34h1.69l2.26,6.34h-1.56l-.43-1.32h-2.29l-.43,1.32Zm2.28-2.44H119l-.7-2.2a2.18,2.18,0,0,0-.06-.22,1.19,1.19,0,0,1,0-.24h0c0,.09,0,.16,0,.23s0,.14-.07.21Z"/><path class="cls-1" d="M129.07,157.48h-1.8v5.18h-1.43v-5.18H124v-1.16h5Z"/><path class="cls-1" d="M128.62,162.66l2.3-6.34h1.7l2.25,6.34h-1.56l-.43-1.32h-2.29l-.43,1.32Zm2.28-2.44h1.65l-.69-2.2-.07-.22c0-.06,0-.14,0-.24h0c0,.09,0,.16,0,.23s0,.14-.07.21Z"/><path class="cls-1" d="M141.35,162.66h-1.44l-2.61-4-.19-.31-.12-.22h0c0,.11,0,.25,0,.43v4.08h-1.34v-6.34h1.53l2.52,3.86.16.26c.06.08.11.17.16.25h0a2.33,2.33,0,0,1,0-.32c0-.15,0-.33,0-.55v-3.5h1.34Z"/><path class="cls-1" d="M145.45,160.58a2.15,2.15,0,0,1-.57,1.63,2.22,2.22,0,0,1-1.61.55,3.05,3.05,0,0,1-.6-.06,3.18,3.18,0,0,1-.62-.2l.44-1.08a1.84,1.84,0,0,0,.32.12,1,1,0,0,0,.32.05.81.81,0,0,0,.65-.24,1.18,1.18,0,0,0,.22-.77l0-4.26h1.42Z"/><path class="cls-1" d="M152,159.91a3,3,0,0,1-.66,2.14,2.6,2.6,0,0,1-2,.72,2.52,2.52,0,0,1-1.93-.7,3,3,0,0,1-.65-2.1v-3.65h1.44V160a1.86,1.86,0,0,0,.3,1.15,1.06,1.06,0,0,0,.9.38,1,1,0,0,0,.88-.37,1.73,1.73,0,0,0,.3-1.11v-3.73H152Z"/><path class="cls-1" d="M159.07,162.66h-1.44l-2.61-4-.2-.31-.12-.22h0c0,.11,0,.25,0,.43s0,.37,0,.6v3.48h-1.35v-6.34h1.54l2.51,3.86.16.26c.06.08.11.17.16.25h0a2.33,2.33,0,0,1,0-.32c0-.15,0-.33,0-.55v-3.5h1.35Z"/><path class="cls-1" d="M165.71,162.18a4,4,0,0,1-1,.43,5.09,5.09,0,0,1-1.28.16,3.5,3.5,0,0,1-2.4-.8,3,3,0,0,1-.89-2.38,3.36,3.36,0,0,1,.91-2.41,3.28,3.28,0,0,1,2.51-1,5.52,5.52,0,0,1,1.11.1,5.28,5.28,0,0,1,1.06.32l-.44,1.11a4.53,4.53,0,0,0-.85-.26,4.79,4.79,0,0,0-.88-.08,1.87,1.87,0,0,0-1.4.53,2.17,2.17,0,0,0-.52,1.58,2.05,2.05,0,0,0,.51,1.55,1.87,1.87,0,0,0,1.34.5,2.13,2.13,0,0,0,.46,0,1.18,1.18,0,0,0,.36-.1v-1.24H163v-1.14h2.69Z"/><path class="cls-1" d="M168.37,160.58v2.08H167v-6.34h2.23a2.67,2.67,0,0,1,1.79.52,1.93,1.93,0,0,1,.6,1.55,2,2,0,0,1-.68,1.59,2.7,2.7,0,0,1-1.84.6Zm0-3.16v2.08h.56a1.26,1.26,0,0,0,.86-.26,1,1,0,0,0,.28-.79,1,1,0,0,0-.28-.78,1.26,1.26,0,0,0-.86-.25Z"/><path class="cls-1" d="M173.93,162.66H172.5v-6.34h1.43Z"/><path class="cls-1" d="M181.06,162.66h-1.44l-2.61-4-.19-.31a1.72,1.72,0,0,1-.12-.22h0c0,.11,0,.25,0,.43s0,.37,0,.6v3.48h-1.34v-6.34h1.53l2.51,3.86a2.33,2.33,0,0,1,.17.26,1.65,1.65,0,0,1,.15.25h0c0-.07,0-.18,0-.32v-4.05h1.34Z"/><path class="cls-1" d="M181.83,162.66l2.31-6.34h1.69l2.25,6.34h-1.55l-.43-1.32h-2.3l-.42,1.32Zm2.28-2.44h1.66l-.7-2.2-.07-.22c0-.06,0-.14,0-.24h0c0,.09,0,.16-.05.23l-.06.21Z"/><path class="cls-1" d="M194.57,162.66h-1.44l-2.61-4-.2-.31-.12-.22h0c0,.11,0,.25,0,.43s0,.37,0,.6v3.48h-1.35v-6.34h1.54l2.51,3.86.16.26c.06.08.11.17.16.25h0a2.33,2.33,0,0,1,0-.32c0-.15,0-.33,0-.55v-3.5h1.35Z"/><path class="cls-1" d="M201.21,162.18a4,4,0,0,1-1,.43,5.09,5.09,0,0,1-1.28.16,3.5,3.5,0,0,1-2.4-.8,3,3,0,0,1-.89-2.38,3.36,3.36,0,0,1,.91-2.41,3.28,3.28,0,0,1,2.51-1,5.52,5.52,0,0,1,1.11.1,5.28,5.28,0,0,1,1.06.32l-.44,1.11a4.53,4.53,0,0,0-.85-.26,4.79,4.79,0,0,0-.88-.08,1.87,1.87,0,0,0-1.4.53,2.17,2.17,0,0,0-.52,1.58,2.05,2.05,0,0,0,.51,1.55,1.87,1.87,0,0,0,1.34.5,2.13,2.13,0,0,0,.46,0,1.18,1.18,0,0,0,.36-.1v-1.24h-1.27v-1.14h2.69Z"/><path class="cls-2" d="M169.42,74.89c-.37-.12-.36.46-.47.73a31.79,31.79,0,0,1-11.51,15.14,58,58,0,0,1-5.33,3.12l-1.38.58c-1.5.67-1.49.67-1.87-.95a18.14,18.14,0,0,0-.7-3,.38.38,0,0,1,0-.1.38.38,0,0,0,0,.1,30.23,30.23,0,0,0,8.25-3.34,24.41,24.41,0,0,0,7.92-7.48,33.11,33.11,0,0,0,5.17-12.19,1.31,1.31,0,0,0,0-.68c-.07-.2-.18-.41-.4-.42s-.22.26-.26.42a38.31,38.31,0,0,1-2.66,6.62c-3.74,7.43-9.77,11.88-17.79,13.78-.44.1-.53,0-.57-.42-.13-1.4-.09-2.79-.11-4.19,0-.45.19-.57.58-.66A24.18,24.18,0,0,0,156.88,78a25.65,25.65,0,0,0,6.85-7.23,38.9,38.9,0,0,0,4.74-11.87c.3-1.2-.2-1.7-1.42-1.41q-2.48.59-4.88,1.41c-9.23,3.22-15.69,9.13-18.24,18.82a.46.46,0,0,1-.52.4c-1.42,0-2.84,0-4.26-.08-.39,0-.6-.12-.43-.58s.23-.84.34-1.26A26.13,26.13,0,0,1,143.53,67a25.16,25.16,0,0,1,8.21-6.81,38.68,38.68,0,0,1,7.29-3c.18,0,.48,0,.48-.27s-.27-.4-.51-.48a1.6,1.6,0,0,0-.75.08,35.45,35.45,0,0,0-9.88,3.81,26.53,26.53,0,0,0-12.9,17.19,23.12,23.12,0,0,1-4.36-.82c-.32-.07-.21-.29-.13-.48.32-.73.63-1.47,1-2.2.11-.2.23-.39.33-.6a32.09,32.09,0,0,1,8.5-11A34.93,34.93,0,0,1,150.29,57l.57-.23c.11,0,.21-.11.16-.25a.24.24,0,0,0-.26-.18,4.3,4.3,0,0,0-.47.09,25.74,25.74,0,0,0-11.66,5.68A39.83,39.83,0,0,0,130,72.42c-.52.93-1.08,1.85-1.56,2.81-.23.47-.43.6-1,.43A65.81,65.81,0,0,1,118,72.05c-4.6-2.17-9.19-4.37-13.16-7.63-1-.83-1.6-.73-2.49.24a12.82,12.82,0,0,0-1.84,2.71,25.32,25.32,0,0,0-2.08,4.85c-.19.65,0,.81.62.65a3.5,3.5,0,0,1,1.29-.07,16.7,16.7,0,0,1,2.88.66c2.8.85,5.48,2,8.22,3.09a111.1,111.1,0,0,0,13.81,4.34c.34.08.59.12.41.61A44.31,44.31,0,0,0,124,87.15c-.08.37-.23.41-.57.36a82.08,82.08,0,0,1-18.46-5,17.65,17.65,0,0,0-2.93-1,5,5,0,0,0-2.84,0,.89.89,0,0,0-.69,1,17.65,17.65,0,0,0,2.15,6.26.84.84,0,0,0,1.12.4,4,4,0,0,1,2.16-.1c.86.18,1.72.3,2.56.51a88,88,0,0,0,16,2.54c.35,0,.47.11.43.49-.22,1.86-.5,3.72-.58,5.6,0,.43-.28.39-.56.37-1.35-.11-2.69-.2-4-.34a86.83,86.83,0,0,1-11.53-2.2c-.19,0-.43-.19-.57,0a.57.57,0,0,0,.1.64c.12.14.24.28.37.41,1,1.06,2,2.1,2.94,3.18a9.22,9.22,0,0,0,4.86,2.82,33.25,33.25,0,0,0,7.59.58c.47,0,.62.11.62.6a50.31,50.31,0,0,0,.24,5.49,10.29,10.29,0,0,0,2.88,6.81c1.18,1.12,2.38,2.22,3.57,3.33.17.15.32.35.56.39s.63.07.47-.44c-.11-.35-.18-.71-.27-1.06a77.29,77.29,0,0,1-2.3-14.57c0-.52.07-.72.64-.75a40.8,40.8,0,0,0,5-.54c.64-.11.76.11.79.67a76.12,76.12,0,0,0,.92,8.12c.54,3.35,1.45,6.61,2.07,9.94a5.17,5.17,0,0,1,0,2.18c-.23,1-.17,1.19.7,1.65a20.9,20.9,0,0,0,5.71,1.92,1,1,0,0,0,1.23-.72,4.34,4.34,0,0,0,.15-2,16.1,16.1,0,0,0-1.24-4.07,83.71,83.71,0,0,1-4.86-18.06c-.08-.52.06-.72.58-.83a43.57,43.57,0,0,0,4.29-1.23c.51-.16,1.13-.67,1.5-.41s.36,1,.5,1.52A118.7,118.7,0,0,0,150,116.25a52.92,52.92,0,0,1,2.88,8.3,5.86,5.86,0,0,1,.19,2c-.16,1.25-.16,1.26,1,.84a24.43,24.43,0,0,0,6.75-3.48c1.44-1.11,1.51-1.74.36-3.13a33.48,33.48,0,0,1-3.19-4.64A94.78,94.78,0,0,1,153,106.05a56.08,56.08,0,0,1-2.79-7.66c-.08-.27-.22-.51.16-.68,1.22-.55,2.32-1.31,3.48-2a1.92,1.92,0,0,0,.25-.12,39,39,0,0,0,10.61-9.43,24.62,24.62,0,0,0,4.78-10.4C169.51,75.5,169.82,75,169.42,74.89Zm-21,2.29a23.94,23.94,0,0,1,2.36-6.71c2.69-5.06,7-8.24,12.14-10.42,1.33-.56,2.7-1,4.07-1.46.37-.11.6-.15.44.36-1.48,4.76-3.54,9.19-7.16,12.74a22.45,22.45,0,0,1-11.46,5.84l-.28.06C148.17,77.6,148.33,77.36,148.37,77.18Zm-15,20.95c0,.39-.11.6-.55.57-1.74-.08-3.48.08-5.21.11-.52,0-.61-.18-.6-.63,0-.85,0-1.7,0-2.54h0c.05-.92.12-1.83.15-2.75,0-.33.13-.43.45-.43,1.76,0,3.53,0,5.29,0,.34,0,.42.13.42.44C133.4,94.65,133.4,96.39,133.41,98.13ZM134.25,83a44.79,44.79,0,0,0-.61,4.91c0,.42-.2.55-.6.5s-.64,0-.94,0c-1.31-.11-2.58-.22-3.86-.31-.34,0-.49-.1-.42-.49.32-1.8.64-3.61,1.08-5.38.1-.37.23-.53.66-.46,1.4.24,2.8.45,4.21.63C134.17,82.46,134.33,82.57,134.25,83Zm8.52-.31c.35,0,.43.08.42.41,0,.84-.05,1.69-.07,2.53h0c0,.67,0,1.33,0,2,0,.35-.09.46-.45.5-1.57.15-3.14.25-4.72.31-.41,0-.57-.08-.54-.52.13-1.55.24-3.1.32-4.64,0-.47.22-.56.63-.54.64,0,1.28,0,1.92,0C141.12,82.72,142,82.73,142.77,82.69ZM143.58,97c-1.73.35-3.46.65-5.18,1-.47.09-.66,0-.68-.51,0-.84-.18-1.69-.17-2.53s-.26-1.47-.26-2.23c0-.28,0-.48.37-.5,1.8-.1,3.59-.37,5.28-.63.39-.1.45.09.47.31.16,1.55.39,3.08.66,4.6C144.15,96.94,143.79,97,143.58,97ZM148,90.17a.39.39,0,0,1,.08.14A.39.39,0,0,0,148,90.17Z"/><path class="cls-3" d="M186.83,78h0a34.89,34.89,0,0,0,0-9.52c-.25-1.75,6.19-3.93,6.2-5.07,0-1.75-1.12-4.52-1.75-6h0c-.57-1.47-1.73-4.23-3-5.47-.81-.81-7,2.19-8,.75l0,0A34.23,34.23,0,0,0,173.63,46c-1.38-1.07,1.61-7.15.81-8-1.23-1.24-4-2.4-5.45-3h0c-1.44-.63-4.21-1.77-6-1.77-1.15,0-3.37,6.46-5.11,6.18a34.42,34.42,0,0,0-9.51,0c-1.75.28-3.94-6.19-5.08-6.19-1.75,0-4.52,1.11-6,1.74h0c-1.47.58-4.23,1.73-5.47,3-.81.81,2.19,7,.75,8l.05,0a34.34,34.34,0,0,0-6.79,6.76v0c-1,1.43-7.16-1.6-8-.79-1.24,1.23-2.4,4-3,5.45h0c-.63,1.44-1.77,4.21-1.77,6,0,1.15,6.47,3.37,6.18,5.12v0q-.08.47-.12.93l8.16,2.94a25.71,25.71,0,1,1,26.1,26.69l3,8.21c.44,0,.89-.09,1.33-.15h0c1.74-.29,3.94,6.19,5.08,6.2,1.75,0,4.52-1.12,6-1.75h0c1.47-.58,4.24-1.73,5.47-3,.81-.81-2.19-7-.75-8l-.06,0a33.64,33.64,0,0,0,6.8-6.75h0c1-1.43,7.16,1.6,8,.79,1.24-1.23,2.41-4,3-5.45h0c.63-1.44,1.77-4.21,1.77-6C193,82,186.53,79.74,186.83,78Z"/><path class="cls-2" d="M201.65,26.05c0-1.32-.44-1.62-1.67-1.6-5.17.05-10.34,0-15.51,0-3.64,0-7.29-.21-10.7,1.42l-3.51,3.51c-.2.84-.48,1.66-.74,2.49l.72.31,0,0c1,.39,1.84.77,2.62,1.15l.19.08h0a13.64,13.64,0,0,1,3.56,2.39c1.62,1.63,1,3.77.34,6.25-.16.57-.41,1.49-.54,2.15.69.56,1.36,1.14,2,1.74l2.93-2.89c1.09-1.06,1.74-1.94,1.32-3.7a4.35,4.35,0,0,1,4.1-5.15,4.6,4.6,0,0,1,5,4.59c0,2.59-2.39,5.3-4.74,4.52-2.87-1-4,.77-5.46,2.25l-1.77,1.76c.79.82,1.55,1.68,2.28,2.59.66-.13,1.58-.38,2.16-.54,2.48-.67,4.62-1.25,6.25.37,1.23,1.23,2.43,3.37,3.66,6.54l0,.06.08.17c4.4-1.41,7.2-5.22,7.29-10.43C201.71,39.42,201.58,32.73,201.65,26.05Z"/></svg>