<svg id="Layer_1" data-name="Layer 1" xmlns="http://www.w3.org/2000/svg" viewBox="0 0 300 180"><defs><style>.cls-1{fill:#bfc1c2;}.cls-2{fill:#d9dadb;}.cls-3{fill:#c4c6c7;}</style></defs><path class="cls-1" d="M40.82,149.34v-8.4h2.32a4.77,4.77,0,0,1,3.33,1A4,4,0,0,1,47.58,145a4.13,4.13,0,0,1-1.23,3.12,4.55,4.55,0,0,1-3.3,1.18Zm1-7.51v6.62h1.25a3.55,3.55,0,0,0,2.57-.88,3.3,3.3,0,0,0,.92-2.51,3.12,3.12,0,0,0-.86-2.42,3.62,3.62,0,0,0-2.57-.81Z"/><path class="cls-1" d="M50.22,149.34h-1v-8.4h1Z"/><path class="cls-1" d="M59.2,149.34H58l-4.33-6.7-.15-.26-.12-.26h0a3.35,3.35,0,0,1,0,.42c0,.19,0,.43,0,.73v6.07h-1v-8.4h1.28l4.2,6.59c.09.14.17.25.22.35a1.28,1.28,0,0,1,.12.21h0a4.16,4.16,0,0,1-.05-.49c0-.21,0-.45,0-.74v-5.92h1Z"/><path class="cls-1" d="M60.43,149.34l3.23-8.4h1l3.23,8.4H66.82L66,147.09H62.33l-.8,2.25Zm2.23-3.13h3l-1.36-3.69a1.84,1.84,0,0,1-.06-.23c0-.09,0-.2-.07-.33h0c0,.12,0,.22-.06.32s0,.17-.08.24Z"/><path class="cls-1" d="M68.42,148.7l.48-.74a4.57,4.57,0,0,0,1,.49,4.38,4.38,0,0,0,1.2.15,2.1,2.1,0,0,0,1.27-.36,1.21,1.21,0,0,0,.49-1.05,1.26,1.26,0,0,0-.42-1,4.48,4.48,0,0,0-1.37-.71,5.17,5.17,0,0,1-1.76-1,1.85,1.85,0,0,1-.57-1.41,2.1,2.1,0,0,1,.74-1.67,2.88,2.88,0,0,1,1.95-.64,5,5,0,0,1,1.1.12,5.55,5.55,0,0,1,1.12.39l-.37.79a4.18,4.18,0,0,0-.94-.32,4.34,4.34,0,0,0-1-.1,1.87,1.87,0,0,0-1.19.35,1.18,1.18,0,0,0-.44,1,1.07,1.07,0,0,0,.4.88,4.91,4.91,0,0,0,1.35.67,5.1,5.1,0,0,1,1.82,1,2.11,2.11,0,0,1,.55,1.52,2.23,2.23,0,0,1-.74,1.7,3,3,0,0,1-2.08.68,4.65,4.65,0,0,1-1.38-.19A4.77,4.77,0,0,1,68.42,148.7Z"/><path class="cls-1" d="M85.62,149.34H83.26l-2.45-3.58-.09-.17-.13-.29h0v4H78.67v-8.4h1.89v3.9h0c0-.06.06-.13.09-.2l.15-.27,2.32-3.43h2.19l-2.89,4Z"/><path class="cls-1" d="M91.5,149.34h-5v-8.4H91.3v1.54h-3v1.87H91.1v1.53H88.35v1.93H91.5Z"/><path class="cls-1" d="M94.74,146.59v2.75h-1.9v-8.4h3a3.59,3.59,0,0,1,2.38.68,2.59,2.59,0,0,1,.79,2.07,2.67,2.67,0,0,1-.91,2.1,3.58,3.58,0,0,1-2.43.8Zm0-4.2v2.76h.74a1.58,1.58,0,0,0,1.13-.35,1.35,1.35,0,0,0,.38-1,1.33,1.33,0,0,0-.38-1,1.68,1.68,0,0,0-1.13-.34Z"/><path class="cls-1" d="M105.25,149.34h-5v-8.4h4.85v1.54h-3v1.87h2.74v1.53h-2.74v1.93h3.14Z"/><path class="cls-1" d="M116.17,149.34h-1.86v-5c0-.27,0-.55,0-.85s0-.62.06-.94h0c0,.25-.1.48-.14.66a3.46,3.46,0,0,1-.12.45l-2,5.71h-1.55l-2-5.65c0-.08-.06-.22-.11-.41s-.1-.45-.16-.76h0c0,.41,0,.8.06,1.16s0,.7,0,1v4.64H106.6v-8.4h2.77l1.72,5a3.86,3.86,0,0,1,.17.55c0,.18.09.37.13.56h0c.06-.21.11-.41.17-.6a5.3,5.3,0,0,1,.17-.52l1.71-5h2.7Z"/><path class="cls-1" d="M124.93,145.7a4,4,0,0,1-.88,2.84,3.45,3.45,0,0,1-2.64,1,3.36,3.36,0,0,1-2.57-.92,4,4,0,0,1-.85-2.8v-4.83h1.89v4.87a2.5,2.5,0,0,0,.4,1.53,1.44,1.44,0,0,0,1.2.51,1.4,1.4,0,0,0,1.17-.49,2.36,2.36,0,0,0,.39-1.48v-4.94h1.89Z"/><path class="cls-1" d="M126.76,149.34v-8.4h3a4.86,4.86,0,0,1,3.36,1,4,4,0,0,1,1.12,3.08,4.13,4.13,0,0,1-1.23,3.13,4.5,4.5,0,0,1-3.25,1.17Zm1.9-6.86v5.33h.93a2.53,2.53,0,0,0,1.93-.74,2.78,2.78,0,0,0,.7-2,2.55,2.55,0,0,0-.69-1.89,2.64,2.64,0,0,0-1.95-.69Z"/><path class="cls-1" d="M134.53,149.34l3.05-8.4h2.25l3,8.4h-2.07l-.56-1.75h-3.05l-.56,1.75Zm3-3.23h2.2l-.93-2.91-.08-.3a2,2,0,0,1-.06-.32h-.05q0,.18-.06.3c0,.09,0,.19-.08.29Z"/><path class="cls-1" d="M143,149.34l3.06-8.4h2.25l3,8.4h-2.06l-.57-1.75h-3l-.57,1.75Zm3-3.23h2.19l-.92-2.91q-.06-.18-.09-.3a2.16,2.16,0,0,1,0-.32h-.05q0,.18-.06.3a1.9,1.9,0,0,1-.09.29Z"/><path class="cls-1" d="M159.86,149.34H158l-3.46-5.28-.26-.4-.16-.29h0c0,.14,0,.33,0,.56s0,.49,0,.79v4.62H152.3v-8.4h2l3.34,5.11.22.35.2.34h0a3.76,3.76,0,0,1,0-.44c0-.19,0-.43,0-.71v-4.65h1.78Z"/><path class="cls-1" d="M165.09,149.34v-8.4h3a4.86,4.86,0,0,1,3.36,1,4,4,0,0,1,1.12,3.08,4.16,4.16,0,0,1-1.22,3.13,4.52,4.52,0,0,1-3.26,1.17Zm1.9-6.86v5.33h.93a2.52,2.52,0,0,0,1.93-.74,2.79,2.79,0,0,0,.71-2,2.56,2.56,0,0,0-.7-1.89,2.64,2.64,0,0,0-2-.69Z"/><path class="cls-1" d="M172.86,149.34l3.06-8.4h2.24l3,8.4h-2.06l-.57-1.75h-3.05l-.56,1.75Zm3-3.23h2.2l-.93-2.91-.08-.3c0-.09,0-.19-.06-.32h0c0,.12-.05.22-.07.3s-.05.19-.08.29Z"/><path class="cls-1" d="M189.76,149.34h-1.91l-3.47-5.28-.25-.4-.17-.29h0c0,.14,0,.33,0,.56s0,.49,0,.79v4.62H182.2v-8.4h2l3.33,5.11.22.35.2.34h0a3.33,3.33,0,0,1,0-.44c0-.19,0-.43,0-.71v-4.65h1.79Z"/><path class="cls-1" d="M198.54,149.49a3.9,3.9,0,0,1-2.94-1.18,4.2,4.2,0,0,1-1.14-3.06,4.51,4.51,0,0,1,1.16-3.22,4,4,0,0,1,3-1.23,3.8,3.8,0,0,1,2.91,1.18,4.33,4.33,0,0,1,1.11,3.1,4.46,4.46,0,0,1-1.15,3.2A4,4,0,0,1,198.54,149.49Zm0-1.64a1.89,1.89,0,0,0,1.55-.7,3,3,0,0,0,.57-2,3.32,3.32,0,0,0-.55-2,1.84,1.84,0,0,0-1.53-.72,1.92,1.92,0,0,0-1.58.74,3.13,3.13,0,0,0-.59,2,3.09,3.09,0,0,0,.59,2A1.88,1.88,0,0,0,198.58,147.85Z"/><path class="cls-1" d="M209.09,149.34h-5v-8.4H206v6.87h3.11Z"/><path class="cls-1" d="M209.58,149.34l3.06-8.4h2.25l3,8.4h-2.07l-.56-1.75H212.2l-.56,1.75Zm3-3.23h2.2l-.93-2.91c0-.12-.06-.22-.09-.3a2.16,2.16,0,0,1,0-.32h-.05q0,.18-.06.3c0,.09,0,.19-.08.29Z"/><path class="cls-1" d="M226.2,149.34h-1.9v-3.42h-3.48v3.42h-1.9v-8.4h1.9v3.35h3.48v-3.35h1.9Z"/><path class="cls-1" d="M234.94,149.34h-2.13l-1.12-2.07a2.87,2.87,0,0,0-.55-.76,1,1,0,0,0-.62-.29H230v3.12h-1.89v-8.4h3a3.73,3.73,0,0,1,2.29.59,2.14,2.14,0,0,1,.77,1.79,2.19,2.19,0,0,1-.5,1.44,2.82,2.82,0,0,1-1.34.9v0a1.58,1.58,0,0,1,.7.49,5,5,0,0,1,.55.78Zm-4.93-7v2.43h.82a1.34,1.34,0,0,0,1-.37,1.26,1.26,0,0,0,.36-.91,1.1,1.1,0,0,0-.32-.87,1.48,1.48,0,0,0-1-.28Z"/><path class="cls-1" d="M235.05,149.34l3.06-8.4h2.24l3,8.4h-2.06l-.57-1.75h-3.05l-.56,1.75Zm3-3.23h2.2l-.93-2.91-.08-.3c0-.09,0-.19-.06-.32h0a1.67,1.67,0,0,1-.07.3,1.82,1.82,0,0,1-.08.29Z"/><path class="cls-1" d="M251.17,148.71a5.11,5.11,0,0,1-1.36.57,6.43,6.43,0,0,1-1.7.21,4.62,4.62,0,0,1-3.18-1.05,4,4,0,0,1-1.18-3.16,4.48,4.48,0,0,1,1.2-3.2,4.33,4.33,0,0,1,3.34-1.28,7.66,7.66,0,0,1,1.47.13,7.75,7.75,0,0,1,1.41.43l-.59,1.47a6,6,0,0,0-1.13-.34,6.09,6.09,0,0,0-1.16-.11,2.49,2.49,0,0,0-1.87.71,2.93,2.93,0,0,0-.68,2.1,2.7,2.7,0,0,0,.68,2.05,2.45,2.45,0,0,0,1.78.66,3.76,3.76,0,0,0,.61-.05,2,2,0,0,0,.47-.13v-1.65h-1.69v-1.52h3.58Z"/><path class="cls-1" d="M251.9,149.34l3.06-8.4h2.24l3,8.4h-2.06l-.57-1.75h-3.05l-.56,1.75Zm3-3.23h2.2l-.92-2.91q-.06-.18-.09-.3a2.16,2.16,0,0,1-.05-.32H256q0,.18-.06.3c0,.09,0,.19-.09.29Z"/><path class="cls-1" d="M104.25,162.66h-1.78l-1.85-2.7-.07-.13c0-.06-.06-.13-.1-.22h0v3H99v-6.34h1.42v2.94h0a1.07,1.07,0,0,0,.07-.15l.11-.2,1.75-2.59H104l-2.18,3Z"/><path class="cls-1" d="M107.29,162.77a3,3,0,0,1-2.22-.89,3.18,3.18,0,0,1-.85-2.31,3.41,3.41,0,0,1,.87-2.43,3,3,0,0,1,2.3-.92,2.86,2.86,0,0,1,2.19.88,3.3,3.3,0,0,1,.84,2.35,3.34,3.34,0,0,1-.87,2.4A3,3,0,0,1,107.29,162.77Zm0-1.24a1.42,1.42,0,0,0,1.17-.53,2.27,2.27,0,0,0,.43-1.48,2.48,2.48,0,0,0-.42-1.53,1.38,1.38,0,0,0-1.15-.55,1.42,1.42,0,0,0-1.19.57,2.74,2.74,0,0,0,0,3A1.42,1.42,0,0,0,107.32,161.53Z"/><path class="cls-1" d="M115.55,157.48h-1.8v5.18h-1.43v-5.18h-1.8v-1.16h5Z"/><path class="cls-1" d="M115.1,162.66l2.3-6.34h1.69l2.26,6.34h-1.56l-.43-1.33h-2.29l-.43,1.33Zm2.28-2.44H119l-.7-2.2a2.18,2.18,0,0,0-.06-.22,1.19,1.19,0,0,1,0-.24h0c0,.09,0,.16,0,.23s0,.14-.07.21Z"/><path class="cls-1" d="M129.07,157.48h-1.8v5.18h-1.43v-5.18H124v-1.16h5Z"/><path class="cls-1" d="M128.62,162.66l2.3-6.34h1.7l2.25,6.34h-1.56l-.43-1.33h-2.29l-.43,1.33Zm2.28-2.44h1.65l-.69-2.2-.07-.22c0-.06,0-.14,0-.24h0c0,.09,0,.16,0,.23s0,.14-.07.21Z"/><path class="cls-1" d="M141.35,162.66h-1.44l-2.61-4-.19-.31-.12-.22h0c0,.11,0,.25,0,.43v4.08h-1.34v-6.34h1.53l2.52,3.86.16.26c.06.08.11.17.16.25h0a2.33,2.33,0,0,1,0-.32c0-.15,0-.33,0-.55v-3.5h1.34Z"/><path class="cls-1" d="M145.45,160.58a2.15,2.15,0,0,1-.57,1.63,2.22,2.22,0,0,1-1.61.55,3.05,3.05,0,0,1-.6-.06,3.18,3.18,0,0,1-.62-.2l.44-1.08a1.84,1.84,0,0,0,.32.12,1,1,0,0,0,.32.05.81.81,0,0,0,.65-.24,1.18,1.18,0,0,0,.22-.77l0-4.26h1.42Z"/><path class="cls-1" d="M152,159.91a3,3,0,0,1-.66,2.14,2.6,2.6,0,0,1-2,.72,2.52,2.52,0,0,1-1.93-.7,3,3,0,0,1-.65-2.1v-3.65h1.44V160a1.86,1.86,0,0,0,.3,1.15,1.06,1.06,0,0,0,.9.38,1,1,0,0,0,.88-.37,1.75,1.75,0,0,0,.3-1.11v-3.73H152Z"/><path class="cls-1" d="M159.07,162.66h-1.44l-2.61-4-.2-.31-.12-.22h0c0,.11,0,.25,0,.43s0,.37,0,.6v3.48h-1.35v-6.34h1.54l2.51,3.86.16.26c.06.08.11.17.16.25h0a2.33,2.33,0,0,1,0-.32c0-.15,0-.33,0-.55v-3.5h1.35Z"/><path class="cls-1" d="M165.71,162.18a4,4,0,0,1-1,.43,5.09,5.09,0,0,1-1.28.16,3.5,3.5,0,0,1-2.4-.8,3,3,0,0,1-.89-2.38,3.35,3.35,0,0,1,.91-2.41,3.28,3.28,0,0,1,2.51-1,5.52,5.52,0,0,1,1.11.1,5.28,5.28,0,0,1,1.06.32l-.44,1.11a4.53,4.53,0,0,0-.85-.26,4.79,4.79,0,0,0-.88-.08,1.87,1.87,0,0,0-1.4.53,2.17,2.17,0,0,0-.52,1.58,2.05,2.05,0,0,0,.51,1.55,1.87,1.87,0,0,0,1.34.5,2.13,2.13,0,0,0,.46,0,1.18,1.18,0,0,0,.36-.1v-1.24H163v-1.14h2.69Z"/><path class="cls-1" d="M168.37,160.58v2.08H167v-6.34h2.23a2.67,2.67,0,0,1,1.79.52,1.93,1.93,0,0,1,.6,1.55,2,2,0,0,1-.68,1.59,2.7,2.7,0,0,1-1.84.6Zm0-3.16v2.08h.56a1.26,1.26,0,0,0,.86-.26,1,1,0,0,0,.28-.79,1,1,0,0,0-.28-.78,1.26,1.26,0,0,0-.86-.25Z"/><path class="cls-1" d="M173.93,162.66H172.5v-6.34h1.43Z"/><path class="cls-1" d="M181.06,162.66h-1.44l-2.61-4-.19-.31a1.72,1.72,0,0,1-.12-.22h0c0,.11,0,.25,0,.43s0,.37,0,.6v3.48h-1.34v-6.34h1.53l2.51,3.86a2.33,2.33,0,0,1,.17.26,1.65,1.65,0,0,1,.15.25h0c0-.07,0-.18,0-.32v-4.05h1.34Z"/><path class="cls-1" d="M181.83,162.66l2.31-6.34h1.69l2.25,6.34h-1.55l-.43-1.33h-2.3l-.42,1.33Zm2.28-2.44h1.66l-.7-2.2-.07-.22c0-.06,0-.14,0-.24h0c0,.09,0,.16-.05.23l-.06.21Z"/><path class="cls-1" d="M194.57,162.66h-1.44l-2.61-4-.2-.31-.12-.22h0c0,.11,0,.25,0,.43s0,.37,0,.6v3.48h-1.35v-6.34h1.54l2.51,3.86.16.26c.06.08.11.17.16.25h0a2.33,2.33,0,0,1,0-.32c0-.15,0-.33,0-.55v-3.5h1.35Z"/><path class="cls-1" d="M201.21,162.18a4,4,0,0,1-1,.43,5.09,5.09,0,0,1-1.28.16,3.5,3.5,0,0,1-2.4-.8,3,3,0,0,1-.89-2.38,3.35,3.35,0,0,1,.91-2.41,3.28,3.28,0,0,1,2.51-1,5.52,5.52,0,0,1,1.11.1,5.28,5.28,0,0,1,1.06.32l-.44,1.11a4.53,4.53,0,0,0-.85-.26,4.79,4.79,0,0,0-.88-.08,1.87,1.87,0,0,0-1.4.53,2.17,2.17,0,0,0-.52,1.58,2.05,2.05,0,0,0,.51,1.55,1.87,1.87,0,0,0,1.34.5,2.13,2.13,0,0,0,.46,0,1.18,1.18,0,0,0,.36-.1v-1.24h-1.27v-1.14h2.69Z"/><path class="cls-2" d="M78.85,79.45c.43-.73.87-1.46,1.28-2.2.78-1.41,1.67-2.77,2.55-4.13s1.72-2.53,2.63-3.76c1-1.41,2.13-2.76,3.28-4.07s2.13-2.35,3.29-3.44a47.05,47.05,0,0,1,5.05-4.2,37.53,37.53,0,0,1,4-2.47,34.38,34.38,0,0,1,4.29-1.94,30,30,0,0,1,3.18-1c1-.26,2.08-.48,3.12-.68.38-.07.75-.11,1.13-.15a41.73,41.73,0,0,1,7.58-.14,33.36,33.36,0,0,1,3.6.43c1.12.21,2.24.43,3.35.67s2.47.6,3.69,1c1.55.46,3.08,1,4.6,1.54q2.75,1,5.43,2.18c2.37,1,4.68,2.13,7,3.25,1.55.76,3.08,1.53,4.6,2.34l.33.15c.81.41.81.41,1.51-.19,1-.86,2.05-1.75,3-2.67s2.11-2,3.13-3c1.46-1.46,2.89-2.93,4.3-4.44,1.84-2,3.61-4,5.31-6.05.39-.48.78-1,1.18-1.44a.44.44,0,0,0,.06-.5,12.17,12.17,0,0,0-2.05-3.36,10,10,0,0,0-2.87-2.28,11.21,11.21,0,0,0-2.46-1,12.55,12.55,0,0,0-3.56-.34,16.78,16.78,0,0,0-4.34.73,28.31,28.31,0,0,0-5.33,2.15,47.13,47.13,0,0,0-6.08,3.79c-1.19.88-2.36,1.79-3.49,2.74-.08.07-.15.18-.31.15a2.55,2.55,0,0,1,.35-.85q1.18-2.42,2.6-4.7c.32-.52.68-1,1-1.52.56-.87,1.19-1.67,1.82-2.49a29.24,29.24,0,0,1,2.8-3.09,24.38,24.38,0,0,1,4.83-3.68A18.62,18.62,0,0,1,158,29.17a17.75,17.75,0,0,1,4-.77,17.13,17.13,0,0,1,3.58.17,15.26,15.26,0,0,1,4.31,1.25A19,19,0,0,1,174,32.25a23.72,23.72,0,0,1,3.53,3.41A24.37,24.37,0,0,1,181.29,42a25.77,25.77,0,0,1,1.48,5.23A23.33,23.33,0,0,1,183,53a22.15,22.15,0,0,1-.82,4.4A25,25,0,0,1,180.38,62a25.41,25.41,0,0,1-2.8,4.23,28.22,28.22,0,0,1-2.89,3.1,32.22,32.22,0,0,1-3.05,2.53c-.08.06-.22.12-.19.23s.14.15.24.19l2.73,1.12c1.3.51,2.61,1,4,1.39,1,.3,1.94.62,2.93.84a31.31,31.31,0,0,0,3.5.66c.56.06,1.13.09,1.75.18a15,15,0,0,1-2.84,1.12,17,17,0,0,1-2.9.69,23,23,0,0,1-3.8.26,26.76,26.76,0,0,1-3.8-.26c-1.09-.17-2.17-.38-3.24-.64s-2.36-.63-3.54-1c-.73-.22-1.44-.51-2.17-.77-1.54-.56-3.06-1.19-4.57-1.84s-2.72-1.23-4.07-1.86l-3.23-1.52c-1-.46-2-.94-2.93-1.43-1.37-.68-2.76-1.31-4.15-1.94s-3-1.38-4.54-2c-1.31-.56-2.63-1.13-4-1.62s-2.67-.94-4-1.38-2.53-.79-3.82-1.11c-1-.24-2-.46-2.94-.66s-2-.3-3-.51a12.57,12.57,0,0,0-1.39-.15,43.76,43.76,0,0,0-7.33-.12,23.44,23.44,0,0,0-2.51.25c-1,.15-1.94.3-2.9.52s-1.82.41-2.72.65-1.56.47-2.33.75c-1.08.38-2.15.8-3.2,1.26a45.81,45.81,0,0,0-4.27,2.12,52.47,52.47,0,0,0-4.51,2.83q-2.19,1.52-4.26,3.2c-2,1.6-3.85,3.3-5.67,5.07-.76.75-1.52,1.51-2.25,2.3a10.87,10.87,0,0,0-.79.87Z"/><path class="cls-2" d="M183.6,45.67a11.94,11.94,0,0,1,1.27,1.48,56,56,0,0,1,4,5.71c1.26,2,2.38,4.16,3.44,6.31.56,1.16,1.08,2.33,1.64,3.49,1.08,2.26,2,4.58,3.27,6.78a17,17,0,0,0,2.65,3.77,6.58,6.58,0,0,0,4.79,2.15,12,12,0,0,0,4.15-.85A29.68,29.68,0,0,0,214,71.79c1.57-1,3.06-2,4.55-3.11.8-.57,1.57-1.19,2.35-1.79a.18.18,0,0,1,.21,0,2.77,2.77,0,0,1-.56,1c-1.15,1.67-2.3,3.33-3.5,5-1,1.34-2,2.66-3,4s-2.17,2.64-3.35,3.87a19.09,19.09,0,0,1-4.29,3.57,7.23,7.23,0,0,1-4.3,1.16A7.94,7.94,0,0,1,198.49,84a24,24,0,0,1-4.41-3.89c-.79-.84-1.56-1.69-2.31-2.57-1-1.12-1.9-2.28-2.84-3.42-1.27-1.52-2.5-3-3.8-4.54A4.07,4.07,0,0,0,181.49,68a10.08,10.08,0,0,0-2.51.75c-.65.25-1.26.59-1.88.9a.88.88,0,0,1-.37.1C184,63.2,186.07,55.13,183.6,45.67Z"/><path class="cls-2" d="M188.91,45.77a8.67,8.67,0,1,1,8.65,8.65A8.61,8.61,0,0,1,188.91,45.77Z"/><path class="cls-3" d="M136.6,81.2l.07.11Z"/><path class="cls-3" d="M136.27,80.71l.08.12Z"/><path class="cls-3" d="M139.76,85.07l.1.1Z"/><path class="cls-3" d="M136.49,81l.07.11Z"/><path class="cls-3" d="M136.83,81.52l.08.11Z"/><path class="cls-3" d="M137.06,81.84a1.13,1.13,0,0,0,.1.13A1.13,1.13,0,0,1,137.06,81.84Z"/><path class="cls-3" d="M136.71,81.36l.08.11Z"/><path class="cls-3" d="M136.94,81.68l.09.12Z"/><path class="cls-3" d="M135.74,79.86l.07.12Z"/><path class="cls-3" d="M135.56,79.54l.05.1Z"/><path class="cls-3" d="M135.47,79.38l.05.1Z"/><path class="cls-3" d="M135.65,79.7l.06.11Z"/><path class="cls-3" d="M135.38,79.22l.05.1Z"/><path class="cls-3" d="M135.83,80a.86.86,0,0,1,.1.16A.86.86,0,0,0,135.83,80Z"/><path class="cls-3" d="M136.16,80.54l.08.13Z"/><path class="cls-3" d="M136,80.35l.1.16Z"/><path class="cls-3" d="M135.93,80.18l.11.17Z"/><path class="cls-3" d="M137.42,82.32l.12.15Z"/><path class="cls-3" d="M138.45,83.59l.1.12Z"/><path class="cls-3" d="M138.7,83.88l.26.3Z"/><path class="cls-3" d="M138.57,83.73l.13.15Z"/><path class="cls-3" d="M137.17,82a3.92,3.92,0,0,0,.25.32A3.92,3.92,0,0,1,137.17,82Z"/><path class="cls-3" d="M139,84.2l.12.13Z"/><path class="cls-3" d="M139.51,84.79l.09.1Z"/><path class="cls-3" d="M139.64,84.93l.08.1Z"/><path class="cls-3" d="M139.25,84.51l.09.1Z"/><path class="cls-3" d="M139.38,84.65l.09.1Z"/><path class="cls-3" d="M139.11,84.36l.1.11Z"/><path class="cls-3" d="M137.69,82.67l.09.11Z"/><path class="cls-3" d="M137.56,82.5l.1.12Z"/><path class="cls-3" d="M135.3,79.06l0,.1Z"/><path class="cls-3" d="M137.82,82.82l.08.11Z"/><path class="cls-3" d="M138.32,83.44l.09.11Z"/><path class="cls-3" d="M137.94,83l.09.1Z"/><path class="cls-3" d="M138.19,83.29l.09.1Z"/><path class="cls-3" d="M138.07,83.13l.08.11Z"/><path class="cls-3" d="M136.38,80.88l.07.11Z"/><path class="cls-3" d="M134.31,74.85a.52.52,0,0,0,0,.11A.52.52,0,0,1,134.31,74.85Z"/><path class="cls-3" d="M134.36,74.56a.36.36,0,0,1,0,.1A.36.36,0,0,0,134.36,74.56Z"/><path class="cls-3" d="M134.33,74.69s0,.09,0,.14S134.32,74.74,134.33,74.69Z"/><path class="cls-3" d="M134.4,74.43a.24.24,0,0,0,0,.08A.24.24,0,0,1,134.4,74.43Z"/><path class="cls-3" d="M134.26,75.3v0Z"/><path class="cls-3" d="M134.44,74.3l0,.08Z"/><path class="cls-3" d="M134.26,75.58v0Z"/><path class="cls-3" d="M134.27,75.15a.28.28,0,0,1,0,.09A.28.28,0,0,0,134.27,75.15Z"/><path class="cls-3" d="M134.28,75a.28.28,0,0,1,0,.09A.28.28,0,0,0,134.28,75Z"/><path class="cls-3" d="M134.65,73.8a.25.25,0,0,0,0,.07A.25.25,0,0,1,134.65,73.8Z"/><path class="cls-3" d="M134.87,73.43l-.06.08Z"/><path class="cls-3" d="M134.78,73.56l0,.07Z"/><path class="cls-3" d="M134.48,74.17a.24.24,0,0,0,0,.08A.24.24,0,0,1,134.48,74.17Z"/><path class="cls-3" d="M134.71,73.68l0,.07Z"/><path class="cls-3" d="M135,73.28l-.09.11Z"/><path class="cls-3" d="M134.53,74.05l0,.07Z"/><path class="cls-3" d="M134.26,75.72a.28.28,0,0,0,0,.09A.28.28,0,0,1,134.26,75.72Z"/><path class="cls-3" d="M134.59,73.92l0,.07Z"/><path class="cls-3" d="M135.21,78.9l.06.1Z"/><path class="cls-3" d="M134.6,77.43l0,.09Z"/><path class="cls-3" d="M134.71,77.74l0,.09Z"/><path class="cls-3" d="M134.77,77.89a.49.49,0,0,0,0,.11A.49.49,0,0,1,134.77,77.89Z"/><path class="cls-3" d="M134.65,77.58a.69.69,0,0,0,0,.1A.69.69,0,0,1,134.65,77.58Z"/><path class="cls-3" d="M134.83,78.05l0,.12Z"/><path class="cls-3" d="M134.89,78.21c.05.1.1.21.14.31C135,78.42,134.94,78.31,134.89,78.21Z"/><path class="cls-3" d="M135.13,78.73l.06.11Z"/><path class="cls-3" d="M135.05,78.56l.06.12Z"/><path class="cls-3" d="M134.46,77l0,.1Z"/><path class="cls-3" d="M134.55,77.27l0,.09Z"/><path class="cls-3" d="M134.35,76.45l0,.15Z"/><path class="cls-3" d="M134.39,76.64a.43.43,0,0,0,0,.11A.43.43,0,0,1,134.39,76.64Z"/><path class="cls-3" d="M134.3,76.16s0,.06,0,.1S134.31,76.19,134.3,76.16Z"/><path class="cls-3" d="M134.32,76.3l0,.14Z"/><path class="cls-3" d="M134.5,77.12l0,.09Z"/><path class="cls-3" d="M134.28,76a.28.28,0,0,1,0,.09A.28.28,0,0,0,134.28,76Z"/><path class="cls-3" d="M134.42,76.81l0,.09Z"/><path class="cls-3" d="M134.27,75.87s0,0,0,.08S134.27,75.89,134.27,75.87Z"/><path class="cls-3" d="M141.5,86.86l.34.33Z"/><path class="cls-3" d="M143.35,88.6l0,0Z"/><path class="cls-3" d="M143.42,88.66l0,0Z"/><path class="cls-3" d="M142,87.31l.08.09Z"/><path class="cls-3" d="M141.39,86.75l.09.09Z"/><path class="cls-3" d="M141.84,87.19l.11.11Z"/><path class="cls-3" d="M141,86.4l.08.08Z"/><path class="cls-3" d="M140.92,86.28l.08.08Z"/><path class="cls-3" d="M143.54,88.77l0,0Z"/><path class="cls-3" d="M141.27,86.64l.09.08Z"/><path class="cls-3" d="M143.28,88.54l0,0Z"/><path class="cls-3" d="M143.48,88.72l0,0Z"/><path class="cls-3" d="M143,88.24l.07.06Z"/><path class="cls-3" d="M143,88.32l.06.05Z"/><path class="cls-3" d="M143.6,88.82l0,0Z"/><path class="cls-3" d="M142.49,87.81l.06.06Z"/><path class="cls-3" d="M142.58,87.9l.07.06Z"/><path class="cls-3" d="M142.08,87.42l.07.07Z"/><path class="cls-3" d="M142.76,88.06l.08.08Z"/><path class="cls-3" d="M142.67,88l.07.07Z"/><path class="cls-3" d="M143.21,88.47l0,0Z"/><path class="cls-3" d="M142.39,87.72l.06.06Z"/><path class="cls-3" d="M142.19,87.53l.07.06Z"/><path class="cls-3" d="M143.13,88.4l0,0Z"/><path class="cls-3" d="M142.29,87.62l.07.06Z"/><path class="cls-3" d="M142.85,88.15l.09.07Z"/><path class="cls-3" d="M131.51,78.19q-3.94,5.52-8.16,10.82c-1.65,2.07-3.33,4.1-5,6.12-.59.7-1.23,1.37-1.77,2.12a12.28,12.28,0,0,1-.87.91q-3.45,3.93-7.1,7.66c-2,2.1-4.13,4.16-6.28,6.17-1.74,1.62-3.49,3.23-5.28,4.8s-3.57,3.07-5.41,4.55c-2,1.63-4,3.23-6.12,4.78a5.56,5.56,0,0,0-1.21,1l.19-.08c2.86-1.41,5.71-2.83,8.54-4.3q4-2,7.87-4.16,6.09-3.33,12-6.94c2.25-1.36,4.47-2.77,6.67-4.21q6.27-4.11,12.27-8.63,4.09-3.11,8-6.43c1.19-1,2.37-2,3.54-3.09A25.32,25.32,0,0,1,131.51,78.19Z"/><path class="cls-3" d="M140.67,86l.09.1Z"/><path class="cls-3" d="M141.24,86.6l-.08-.08Z"/><path class="cls-3" d="M140,85.34l.12.12Z"/><path class="cls-3" d="M134.26,75.52v0Z"/><path class="cls-3" d="M140.14,85.47l.38.4Z"/><path class="cls-3" d="M140.54,85.89l.1.11Z"/><path class="cls-3" d="M139.89,85.21l.1.1Z"/><path class="cls-3" d="M140.79,86.15l.09.09Z"/><path class="cls-3" d="M144,89.18l-.22-.19-.15.1A.4.4,0,0,1,144,89.18Z"/><path class="cls-3" d="M142.84,88.14h0Z"/><path class="cls-3" d="M143.1,88.37l0,0Z"/><path class="cls-3" d="M134.74,73.63l0,.05Z"/><path class="cls-3" d="M134.41,76.75v0Z"/><path class="cls-3" d="M134.74,77.83l0,.06Z"/><path class="cls-3" d="M134.35,76.44h0Z"/><path class="cls-3" d="M134.67,73.75l0,0Z"/><path class="cls-3" d="M143.17,88.44l0,0Z"/><path class="cls-3" d="M134.38,76.6v0Z"/><path class="cls-3" d="M139.72,85l0,0Z"/><path class="cls-3" d="M134.45,76.9v0Z"/><path class="cls-3" d="M134.53,77.21l0,.06Z"/><path class="cls-3" d="M134.58,77.36l0,.07Z"/><path class="cls-3" d="M134.89,73.39l0,0Z"/><path class="cls-3" d="M134.63,77.52l0,.06Z"/><path class="cls-3" d="M142.94,88.22v0Z"/><path class="cls-3" d="M134.49,77.06v0Z"/><path class="cls-3" d="M134.81,73.51l0,0Z"/><path class="cls-3" d="M134.69,77.68l0,.06Z"/><path class="cls-3" d="M143,88.3l0,0Z"/><path class="cls-3" d="M143.45,88.69l0,0Z"/><path class="cls-3" d="M134.5,74.12l0,0Z"/><path class="cls-3" d="M134.29,75v0Z"/><path class="cls-3" d="M134.27,75.1v0Z"/><path class="cls-3" d="M143.51,88.75l0,0Z"/><path class="cls-3" d="M134.26,75.24v0Z"/><path class="cls-3" d="M134.38,74.51l0,0Z"/><path class="cls-3" d="M134.46,74.25l0,0Z"/><path class="cls-3" d="M134.31,74.83v0Z"/><path class="cls-3" d="M134.32,76.26v0Z"/><path class="cls-3" d="M143.57,88.8l0,0Z"/><path class="cls-3" d="M143.79,89l-.17-.15.17.15Z"/><path class="cls-3" d="M134.34,74.66v0Z"/><path class="cls-3" d="M134.41,74.38v0Z"/><path class="cls-3" d="M134.26,75.58v0Z"/><path class="cls-3" d="M134.28,76v0Z"/><path class="cls-3" d="M134.61,73.87l0,0Z"/><path class="cls-3" d="M143.25,88.51l0,0Z"/><path class="cls-3" d="M143.32,88.57l0,0Z"/><path class="cls-3" d="M134.29,76.1v0Z"/><path class="cls-3" d="M134.55,74l0,.06Z"/><path class="cls-3" d="M143.38,88.63l0,0Z"/><path class="cls-3" d="M141.16,86.52l0,0Z"/><path class="cls-3" d="M134.27,75.81v0Z"/><path class="cls-3" d="M134.26,75.66v0Z"/><path class="cls-3" d="M134.26,75.38v0Z"/><path class="cls-3" d="M136.24,80.67l0,0Z"/><path class="cls-3" d="M141.48,86.84l0,0Z"/><path class="cls-3" d="M137.9,82.93l0,0Z"/><path class="cls-3" d="M141,86.36l0,0Z"/><path class="cls-3" d="M137.78,82.78l0,0Z"/><path class="cls-3" d="M138.15,83.24l0,.05Z"/><path class="cls-3" d="M140.88,86.24l0,0Z"/><path class="cls-3" d="M138,83.08l0,0Z"/><path class="cls-3" d="M137.54,82.47l0,0Z"/><path class="cls-3" d="M137,81.8l0,0Z"/><path class="cls-3" d="M136.91,81.63l0,.05Z"/><path class="cls-3" d="M141.36,86.72l0,0Z"/><path class="cls-3" d="M137.16,82v0Z"/><path class="cls-3" d="M140.76,86.12l0,0Z"/><path class="cls-3" d="M141.24,86.6l0,0Z"/><path class="cls-3" d="M137.42,82.31h0Z"/><path class="cls-3" d="M137.66,82.62l0,0Z"/><path class="cls-3" d="M139.34,84.61l0,0Z"/><path class="cls-3" d="M139.21,84.47l0,0Z"/><path class="cls-3" d="M140.13,85.46h0Z"/><path class="cls-3" d="M140,85.31l0,0Z"/><path class="cls-3" d="M139.86,85.17l0,0Z"/><path class="cls-3" d="M139.6,84.89l0,0Z"/><path class="cls-3" d="M139.47,84.75l0,0Z"/><path class="cls-3" d="M140.64,86l0,0Z"/><path class="cls-3" d="M138.28,83.39l0,0Z"/><path class="cls-3" d="M138.55,83.71l0,0Z"/><path class="cls-3" d="M138.41,83.55l0,0Z"/><path class="cls-3" d="M139.09,84.33l0,0Z"/><path class="cls-3" d="M138.7,83.88Z"/><path class="cls-3" d="M139,84.18v0Z"/><path class="cls-3" d="M140.52,85.87l0,0Z"/><path class="cls-3" d="M135.81,80l0,0Z"/><path class="cls-3" d="M142.45,87.78l0,0Z"/><path class="cls-3" d="M135.35,79.16l0,.06Z"/><path class="cls-3" d="M135.27,79l0,.06Z"/><path class="cls-3" d="M135.43,79.32l0,.06Z"/><path class="cls-3" d="M135.52,79.48l0,.06Z"/><path class="cls-3" d="M135.61,79.64l0,.06Z"/><path class="cls-3" d="M142.36,87.68l0,0Z"/><path class="cls-3" d="M142.74,88.05h0Z"/><path class="cls-3" d="M134.88,78.17v0Z"/><path class="cls-3" d="M135,78.52l0,0Z"/><path class="cls-3" d="M135.71,79.81l0,0Z"/><path class="cls-3" d="M135.19,78.84l0,.06Z"/><path class="cls-3" d="M142.55,87.87l0,0Z"/><path class="cls-3" d="M142.65,88l0,0Z"/><path class="cls-3" d="M135.11,78.68l0,0Z"/><path class="cls-3" d="M136.56,81.15l0,0Z"/><path class="cls-3" d="M136.45,81l0,.05Z"/><path class="cls-3" d="M142,87.3h0Z"/><path class="cls-3" d="M136.35,80.83l0,0Z"/><path class="cls-3" d="M136.79,81.47l0,0Z"/><path class="cls-3" d="M142.26,87.59l0,0Z"/><path class="cls-3" d="M143.64,89.09a.53.53,0,0,0-.24.15Z"/><path class="cls-3" d="M141.84,87.19Z"/><path class="cls-3" d="M136.67,81.31l0,0Z"/><path class="cls-3" d="M142.05,87.4l0,0Z"/><path class="cls-3" d="M135.93,80.18Z"/><path class="cls-3" d="M134.81,78l0,0Z"/><path class="cls-3" d="M142.15,87.49l0,0Z"/><path class="cls-3" d="M136,80.35Z"/><path class="cls-3" d="M136.14,80.51l0,0Z"/><path class="cls-3" d="M143.62,88.84l0,0,0,0,0,0,0,0,0,0,0,0,0,0,0,0,0,0,0,0,0,0,0,0,0,0,0,0,0,0,0,0-.06-.05,0,0-.07-.06v0l-.09-.07h0l-.08-.08h0l-.07-.07,0,0-.07-.06,0,0-.06-.06,0,0-.06-.06,0,0-.07-.06,0,0-.07-.06,0,0-.07-.07,0,0-.08-.09h0l-.11-.11h0l-.34-.33,0,0-.09-.09,0,0-.09-.08,0,0-.08-.08,0,0L141,86.4l0,0-.08-.08,0,0-.09-.09,0,0-.09-.1,0,0-.1-.11,0,0-.38-.4h0l-.12-.12,0,0-.1-.1,0,0-.1-.1,0,0-.08-.1,0,0-.09-.1,0,0-.09-.1,0,0-.09-.1,0,0-.1-.11,0,0L139,84.2v0l-.26-.3h0l-.13-.15,0,0-.1-.12,0,0-.09-.11,0,0-.09-.1,0-.05-.08-.11,0,0-.09-.1,0,0-.08-.11,0,0-.09-.11,0,0-.1-.12,0,0-.12-.15h0a3.92,3.92,0,0,1-.25-.32v0a1.13,1.13,0,0,1-.1-.13l0,0-.09-.12,0-.05-.08-.11,0,0-.08-.11,0,0-.07-.11,0,0-.07-.11,0-.05-.07-.11,0,0-.08-.12,0,0-.08-.13,0,0-.1-.16h0l-.11-.17h0a.86.86,0,0,0-.1-.16l0,0-.07-.12,0,0-.06-.11,0-.06-.05-.1,0-.06-.05-.1,0-.06-.05-.1,0-.06,0-.1,0-.06-.06-.1,0-.06-.06-.11,0,0-.06-.12,0,0c0-.1-.09-.21-.14-.31v0l0-.12,0,0a.49.49,0,0,1,0-.11l0-.06,0-.09,0-.06a.69.69,0,0,1,0-.1l0-.06,0-.09,0-.07,0-.09,0-.06,0-.09v-.06l0-.1V76.9l0-.09v-.06a.43.43,0,0,1,0-.11v0l0-.15h0l0-.14v0s0-.07,0-.1V76.1a.28.28,0,0,0,0-.09V76s0-.06,0-.08v-.06a.28.28,0,0,1,0-.09v-.48a.28.28,0,0,0,0-.09V75.1a.28.28,0,0,0,0-.09V75a.52.52,0,0,1,0-.11v0s0-.09,0-.14v0a.36.36,0,0,0,0-.1l0,0a.24.24,0,0,1,0-.08v-.05l0-.08,0,0a.24.24,0,0,1,0-.08l0,0,0-.07,0-.06,0-.07,0,0a.25.25,0,0,1,0-.07l0,0,0-.07,0-.05,0-.07,0,0,.06-.08,0,0,.09-.11h0A20.85,20.85,0,0,0,133.75,75c-.74,1.07-1.49,2.13-2.24,3.18a25.32,25.32,0,0,0,11.89,11,.53.53,0,0,1,.24-.15l.15-.1Z"/><path class="cls-3" d="M176.09,98.13a33.49,33.49,0,0,0-5.5-7.25,75.05,75.05,0,0,0-6.18-5.78c-1.48-1.25-3-2.46-4.52-3.62l-1.64-1.24c8.45,3,16.88,3.35,25.31,0a8.05,8.05,0,0,0-1,.17,20.56,20.56,0,0,1-3.66.52,32.08,32.08,0,0,1-3.67,0,38.87,38.87,0,0,1-4.58-.5,47.13,47.13,0,0,1-6.32-1.59A80.5,80.5,0,0,1,156.83,76c-2.53-1.09-5-2.25-7.53-3.43-2.3-1.09-4.62-2.15-6.94-3.21-2.53-1.16-5.09-2.23-7.71-3.19a62.35,62.35,0,0,0-9.78-2.78,43.81,43.81,0,0,0-6.66-.76,38.7,38.7,0,0,0-7.13.43A38,38,0,0,0,103.8,65a49.51,49.51,0,0,0-11,5.82c-1.3.9-2.53,1.87-3.77,2.84-.62.49-1.21,1-1.81,1.55a.24.24,0,0,0,.16,0q2.61-1.8,5.36-3.4c1.48-.86,3-1.68,4.55-2.4A47.59,47.59,0,0,1,105,66.49a40.16,40.16,0,0,1,4.75-1,34.08,34.08,0,0,1,4.27-.41,42.81,42.81,0,0,1,5.06.13,45.86,45.86,0,0,1,5.21.81,45.08,45.08,0,0,1,5.67,1.6,71,71,0,0,1,7.78,3.19c.09,0,.21.06.21.17s-.12.11-.19.15a16.56,16.56,0,0,0-2.12,1.5,6,6,0,0,0-.66.68h0c-3.86,5,9,15.9,9,15.9,1.57,1.06,3.22,2,4.87,2.89,2,1.08,4,2,6,2.92a67.38,67.38,0,0,0,10,3.61,2.75,2.75,0,0,1,.88.26,12.91,12.91,0,0,1-2,1.47,44.76,44.76,0,0,1-8.78,4c-4.18,1.47-8.44,2.66-12.72,3.83l-2.23.61a1.42,1.42,0,0,0,.51.13c1.66.27,3.33.45,5,.64,1.43.16,2.87.28,4.3.4,2.27.19,4.54.34,6.82.39,2.52.07,5,.07,7.56-.11a36.21,36.21,0,0,0,6.56-.9,11.78,11.78,0,0,0,4.42-2.06,5.42,5.42,0,0,0,2.25-4.54A10.07,10.07,0,0,0,176.09,98.13Z"/></svg>