<svg id="Layer_1" data-name="Layer 1" xmlns="http://www.w3.org/2000/svg" viewBox="0 0 300 180"><defs><style>.cls-1{fill:#4b4b4b;}.cls-2{fill:gray;}</style></defs><path class="cls-1" d="M40.82,149.34v-8.4h2.32a4.77,4.77,0,0,1,3.33,1A4,4,0,0,1,47.58,145a4.13,4.13,0,0,1-1.23,3.12,4.55,4.55,0,0,1-3.3,1.18Zm1-7.51v6.62h1.25a3.55,3.55,0,0,0,2.57-.88,3.3,3.3,0,0,0,.92-2.51,3.12,3.12,0,0,0-.86-2.42,3.62,3.62,0,0,0-2.57-.81Z"/><path class="cls-1" d="M50.22,149.34h-1v-8.4h1Z"/><path class="cls-1" d="M59.2,149.34H58l-4.33-6.7-.15-.26-.12-.26h0a3.35,3.35,0,0,1,0,.42c0,.19,0,.43,0,.73v6.07h-1v-8.4h1.28l4.2,6.59c.09.14.17.25.22.35a1.28,1.28,0,0,1,.12.21h0a4.16,4.16,0,0,1-.05-.49c0-.21,0-.45,0-.74v-5.92h1Z"/><path class="cls-1" d="M60.43,149.34l3.23-8.4h1l3.23,8.4H66.82L66,147.09H62.33l-.8,2.25Zm2.23-3.13h3l-1.36-3.69a1.84,1.84,0,0,1-.06-.23c0-.09,0-.2-.07-.33h0c0,.12,0,.22-.06.32s0,.17-.08.24Z"/><path class="cls-1" d="M68.42,148.7l.48-.74a4.57,4.57,0,0,0,1,.49,4.38,4.38,0,0,0,1.2.15,2.1,2.1,0,0,0,1.27-.36,1.21,1.21,0,0,0,.49-1.05,1.26,1.26,0,0,0-.42-1,4.48,4.48,0,0,0-1.37-.71,5.17,5.17,0,0,1-1.76-1,1.85,1.85,0,0,1-.57-1.41,2.1,2.1,0,0,1,.74-1.67,2.88,2.88,0,0,1,1.95-.64,5,5,0,0,1,1.1.12,5.55,5.55,0,0,1,1.12.39l-.37.79a4.18,4.18,0,0,0-.94-.32,4.34,4.34,0,0,0-1-.1,1.87,1.87,0,0,0-1.19.35,1.18,1.18,0,0,0-.44,1,1.07,1.07,0,0,0,.4.88,4.91,4.91,0,0,0,1.35.67,5.1,5.1,0,0,1,1.82,1,2.11,2.11,0,0,1,.55,1.52,2.23,2.23,0,0,1-.74,1.7,3,3,0,0,1-2.08.68,4.65,4.65,0,0,1-1.38-.19A4.77,4.77,0,0,1,68.42,148.7Z"/><path class="cls-1" d="M85.62,149.34H83.26l-2.45-3.58-.09-.17-.13-.29h0v4H78.67v-8.4h1.89v3.9h0c0-.06.06-.13.09-.2l.15-.27,2.32-3.43h2.19l-2.89,4Z"/><path class="cls-1" d="M91.5,149.34h-5v-8.4H91.3v1.54h-3v1.87H91.1v1.53H88.35v1.93H91.5Z"/><path class="cls-1" d="M94.74,146.59v2.75h-1.9v-8.4h3a3.59,3.59,0,0,1,2.38.68,2.59,2.59,0,0,1,.79,2.07,2.67,2.67,0,0,1-.91,2.1,3.58,3.58,0,0,1-2.43.8Zm0-4.2v2.76h.74a1.58,1.58,0,0,0,1.13-.35,1.35,1.35,0,0,0,.38-1,1.33,1.33,0,0,0-.38-1,1.68,1.68,0,0,0-1.13-.34Z"/><path class="cls-1" d="M105.25,149.34h-5v-8.4h4.85v1.54h-3v1.87h2.74v1.53h-2.74v1.93h3.14Z"/><path class="cls-1" d="M116.17,149.34h-1.86v-5c0-.27,0-.55,0-.85s0-.62.06-.94h0c0,.25-.1.48-.14.66a3.46,3.46,0,0,1-.12.45l-2,5.71h-1.55l-2-5.65c0-.08-.06-.22-.11-.41s-.1-.45-.16-.76h0c0,.41,0,.8.06,1.16s0,.7,0,1v4.64H106.6v-8.4h2.77l1.72,5a3.86,3.86,0,0,1,.17.55c0,.18.09.37.13.56h0c.06-.21.11-.41.17-.6a5.3,5.3,0,0,1,.17-.52l1.71-5h2.7Z"/><path class="cls-1" d="M124.93,145.7a4,4,0,0,1-.88,2.84,3.45,3.45,0,0,1-2.64,1,3.36,3.36,0,0,1-2.57-.92,4,4,0,0,1-.85-2.8v-4.83h1.89v4.87a2.5,2.5,0,0,0,.4,1.53,1.44,1.44,0,0,0,1.2.51,1.4,1.4,0,0,0,1.17-.49,2.36,2.36,0,0,0,.39-1.48v-4.94h1.89Z"/><path class="cls-1" d="M126.76,149.34v-8.4h3a4.86,4.86,0,0,1,3.36,1,4,4,0,0,1,1.12,3.08,4.13,4.13,0,0,1-1.23,3.13,4.5,4.5,0,0,1-3.25,1.17Zm1.9-6.86v5.33h.93a2.53,2.53,0,0,0,1.93-.74,2.78,2.78,0,0,0,.7-2,2.55,2.55,0,0,0-.69-1.89,2.64,2.64,0,0,0-1.95-.69Z"/><path class="cls-1" d="M134.53,149.34l3.05-8.4h2.25l3,8.4h-2.07l-.56-1.75h-3.05l-.56,1.75Zm3-3.23h2.2l-.93-2.91-.08-.3a2,2,0,0,1-.06-.32h-.05q0,.18-.06.3c0,.09,0,.19-.08.29Z"/><path class="cls-1" d="M143,149.34l3.06-8.4h2.25l3,8.4h-2.06l-.57-1.75h-3l-.57,1.75Zm3-3.23h2.19l-.92-2.91q-.06-.18-.09-.3a2.16,2.16,0,0,1,0-.32h-.05q0,.18-.06.3a1.9,1.9,0,0,1-.09.29Z"/><path class="cls-1" d="M159.86,149.34H158l-3.46-5.28-.26-.4-.16-.29h0c0,.14,0,.33,0,.56s0,.49,0,.79v4.62H152.3v-8.4h2l3.34,5.11.22.35.2.34h0a3.76,3.76,0,0,1,0-.44c0-.19,0-.43,0-.71v-4.65h1.78Z"/><path class="cls-1" d="M165.09,149.34v-8.4h3a4.86,4.86,0,0,1,3.36,1,4,4,0,0,1,1.12,3.08,4.16,4.16,0,0,1-1.22,3.13,4.52,4.52,0,0,1-3.26,1.17Zm1.9-6.86v5.33h.93a2.52,2.52,0,0,0,1.93-.74,2.79,2.79,0,0,0,.71-2,2.56,2.56,0,0,0-.7-1.89,2.64,2.64,0,0,0-2-.69Z"/><path class="cls-1" d="M172.86,149.34l3.06-8.4h2.24l3,8.4h-2.06l-.57-1.75h-3.05l-.56,1.75Zm3-3.23h2.2l-.93-2.91-.08-.3c0-.09,0-.19-.06-.32h0c0,.12-.05.22-.07.3s-.05.19-.08.29Z"/><path class="cls-1" d="M189.76,149.34h-1.91l-3.47-5.28-.25-.4-.17-.29h0c0,.14,0,.33,0,.56s0,.49,0,.79v4.62H182.2v-8.4h2l3.33,5.11.22.35.2.34h0a3.33,3.33,0,0,1,0-.44c0-.19,0-.43,0-.71v-4.65h1.79Z"/><path class="cls-1" d="M198.54,149.49a3.9,3.9,0,0,1-2.94-1.18,4.2,4.2,0,0,1-1.14-3.06,4.51,4.51,0,0,1,1.16-3.22,4,4,0,0,1,3-1.23,3.8,3.8,0,0,1,2.91,1.18,4.33,4.33,0,0,1,1.11,3.1,4.46,4.46,0,0,1-1.15,3.2A4,4,0,0,1,198.54,149.49Zm0-1.64a1.89,1.89,0,0,0,1.55-.7,3,3,0,0,0,.57-2,3.32,3.32,0,0,0-.55-2,1.84,1.84,0,0,0-1.53-.72,1.92,1.92,0,0,0-1.58.74,3.13,3.13,0,0,0-.59,2,3.09,3.09,0,0,0,.59,2A1.88,1.88,0,0,0,198.58,147.85Z"/><path class="cls-1" d="M209.09,149.34h-5v-8.4H206v6.87h3.11Z"/><path class="cls-1" d="M209.58,149.34l3.06-8.4h2.25l3,8.4h-2.07l-.56-1.75H212.2l-.56,1.75Zm3-3.23h2.2l-.93-2.91c0-.12-.06-.22-.09-.3a2.16,2.16,0,0,1,0-.32h-.05q0,.18-.06.3c0,.09,0,.19-.08.29Z"/><path class="cls-1" d="M226.2,149.34h-1.9v-3.42h-3.48v3.42h-1.9v-8.4h1.9v3.35h3.48v-3.35h1.9Z"/><path class="cls-1" d="M234.94,149.34h-2.13l-1.12-2.07a2.87,2.87,0,0,0-.55-.76,1,1,0,0,0-.62-.29H230v3.12h-1.89v-8.4h3a3.73,3.73,0,0,1,2.29.59,2.14,2.14,0,0,1,.77,1.79,2.19,2.19,0,0,1-.5,1.44,2.82,2.82,0,0,1-1.34.9v0a1.58,1.58,0,0,1,.7.49,5,5,0,0,1,.55.78Zm-4.93-7v2.43h.82a1.34,1.34,0,0,0,1-.37,1.26,1.26,0,0,0,.36-.91,1.1,1.1,0,0,0-.32-.87,1.48,1.48,0,0,0-1-.28Z"/><path class="cls-1" d="M235.05,149.34l3.06-8.4h2.24l3,8.4h-2.06l-.57-1.75h-3.05l-.56,1.75Zm3-3.23h2.2l-.93-2.91-.08-.3c0-.09,0-.19-.06-.32h0a1.67,1.67,0,0,1-.07.3,1.82,1.82,0,0,1-.08.29Z"/><path class="cls-1" d="M251.17,148.71a5.11,5.11,0,0,1-1.36.57,6.43,6.43,0,0,1-1.7.21,4.62,4.62,0,0,1-3.18-1.05,4,4,0,0,1-1.18-3.16,4.48,4.48,0,0,1,1.2-3.2,4.33,4.33,0,0,1,3.34-1.28,7.66,7.66,0,0,1,1.47.13,7.75,7.75,0,0,1,1.41.43l-.59,1.47a6,6,0,0,0-1.13-.34,6.09,6.09,0,0,0-1.16-.11,2.49,2.49,0,0,0-1.87.71,2.93,2.93,0,0,0-.68,2.1,2.7,2.7,0,0,0,.68,2.05,2.45,2.45,0,0,0,1.78.66,3.76,3.76,0,0,0,.61-.05,2,2,0,0,0,.47-.13v-1.65h-1.69v-1.52h3.58Z"/><path class="cls-1" d="M251.9,149.34l3.06-8.4h2.24l3,8.4h-2.06l-.57-1.75h-3.05l-.56,1.75Zm3-3.23h2.2l-.92-2.91q-.06-.18-.09-.3a2.16,2.16,0,0,1-.05-.32H256q0,.18-.06.3c0,.09,0,.19-.09.29Z"/><path class="cls-1" d="M104.25,162.66h-1.78l-1.85-2.7-.07-.13c0-.06-.06-.13-.1-.22h0v3H99v-6.34h1.42v2.94h0a1.07,1.07,0,0,0,.07-.15l.11-.2,1.75-2.59H104l-2.18,3Z"/><path class="cls-1" d="M107.29,162.77a3,3,0,0,1-2.22-.89,3.18,3.18,0,0,1-.85-2.31,3.41,3.41,0,0,1,.87-2.43,3,3,0,0,1,2.3-.92,2.86,2.86,0,0,1,2.19.88,3.3,3.3,0,0,1,.84,2.35,3.34,3.34,0,0,1-.87,2.4A3,3,0,0,1,107.29,162.77Zm0-1.24a1.42,1.42,0,0,0,1.17-.53,2.27,2.27,0,0,0,.43-1.48,2.48,2.48,0,0,0-.42-1.53,1.38,1.38,0,0,0-1.15-.55,1.42,1.42,0,0,0-1.19.57,2.74,2.74,0,0,0,0,3A1.42,1.42,0,0,0,107.32,161.53Z"/><path class="cls-1" d="M115.55,157.48h-1.8v5.18h-1.43v-5.18h-1.8v-1.16h5Z"/><path class="cls-1" d="M115.1,162.66l2.3-6.34h1.69l2.26,6.34h-1.56l-.43-1.33h-2.29l-.43,1.33Zm2.28-2.44H119l-.7-2.2a2.18,2.18,0,0,0-.06-.22,1.19,1.19,0,0,1,0-.24h0c0,.09,0,.16,0,.23s0,.14-.07.21Z"/><path class="cls-1" d="M129.07,157.48h-1.8v5.18h-1.43v-5.18H124v-1.16h5Z"/><path class="cls-1" d="M128.62,162.66l2.3-6.34h1.7l2.25,6.34h-1.56l-.43-1.33h-2.29l-.43,1.33Zm2.28-2.44h1.65l-.69-2.2-.07-.22c0-.06,0-.14,0-.24h0c0,.09,0,.16,0,.23s0,.14-.07.21Z"/><path class="cls-1" d="M141.35,162.66h-1.44l-2.61-4-.19-.31-.12-.22h0c0,.11,0,.25,0,.43v4.08h-1.34v-6.34h1.53l2.52,3.86.16.26c.06.08.11.17.16.25h0a2.33,2.33,0,0,1,0-.32c0-.15,0-.33,0-.55v-3.5h1.34Z"/><path class="cls-1" d="M145.45,160.58a2.15,2.15,0,0,1-.57,1.63,2.22,2.22,0,0,1-1.61.55,3.05,3.05,0,0,1-.6-.06,3.18,3.18,0,0,1-.62-.2l.44-1.08a1.84,1.84,0,0,0,.32.12,1,1,0,0,0,.32.05.81.81,0,0,0,.65-.24,1.18,1.18,0,0,0,.22-.77l0-4.26h1.42Z"/><path class="cls-1" d="M152,159.91a3,3,0,0,1-.66,2.14,2.6,2.6,0,0,1-2,.72,2.52,2.52,0,0,1-1.93-.7,3,3,0,0,1-.65-2.1v-3.65h1.44V160a1.86,1.86,0,0,0,.3,1.15,1.06,1.06,0,0,0,.9.38,1,1,0,0,0,.88-.37,1.75,1.75,0,0,0,.3-1.11v-3.73H152Z"/><path class="cls-1" d="M159.07,162.66h-1.44l-2.61-4-.2-.31-.12-.22h0c0,.11,0,.25,0,.43s0,.37,0,.6v3.48h-1.35v-6.34h1.54l2.51,3.86.16.26c.06.08.11.17.16.25h0a2.33,2.33,0,0,1,0-.32c0-.15,0-.33,0-.55v-3.5h1.35Z"/><path class="cls-1" d="M165.71,162.18a4,4,0,0,1-1,.43,5.09,5.09,0,0,1-1.28.16,3.5,3.5,0,0,1-2.4-.8,3,3,0,0,1-.89-2.38,3.35,3.35,0,0,1,.91-2.41,3.28,3.28,0,0,1,2.51-1,5.52,5.52,0,0,1,1.11.1,5.28,5.28,0,0,1,1.06.32l-.44,1.11a4.53,4.53,0,0,0-.85-.26,4.79,4.79,0,0,0-.88-.08,1.87,1.87,0,0,0-1.4.53,2.17,2.17,0,0,0-.52,1.58,2.05,2.05,0,0,0,.51,1.55,1.87,1.87,0,0,0,1.34.5,2.13,2.13,0,0,0,.46,0,1.18,1.18,0,0,0,.36-.1v-1.24H163v-1.14h2.69Z"/><path class="cls-1" d="M168.37,160.58v2.08H167v-6.34h2.23a2.67,2.67,0,0,1,1.79.52,1.93,1.93,0,0,1,.6,1.55,2,2,0,0,1-.68,1.59,2.7,2.7,0,0,1-1.84.6Zm0-3.16v2.08h.56a1.26,1.26,0,0,0,.86-.26,1,1,0,0,0,.28-.79,1,1,0,0,0-.28-.78,1.26,1.26,0,0,0-.86-.25Z"/><path class="cls-1" d="M173.93,162.66H172.5v-6.34h1.43Z"/><path class="cls-1" d="M181.06,162.66h-1.44l-2.61-4-.19-.31a1.72,1.72,0,0,1-.12-.22h0c0,.11,0,.25,0,.43s0,.37,0,.6v3.48h-1.34v-6.34h1.53l2.51,3.86a2.33,2.33,0,0,1,.17.26,1.65,1.65,0,0,1,.15.25h0c0-.07,0-.18,0-.32v-4.05h1.34Z"/><path class="cls-1" d="M181.83,162.66l2.31-6.34h1.69l2.25,6.34h-1.55l-.43-1.33h-2.3l-.42,1.33Zm2.28-2.44h1.66l-.7-2.2-.07-.22c0-.06,0-.14,0-.24h0c0,.09,0,.16-.05.23l-.06.21Z"/><path class="cls-1" d="M194.57,162.66h-1.44l-2.61-4-.2-.31-.12-.22h0c0,.11,0,.25,0,.43s0,.37,0,.6v3.48h-1.35v-6.34h1.54l2.51,3.86.16.26c.06.08.11.17.16.25h0a2.33,2.33,0,0,1,0-.32c0-.15,0-.33,0-.55v-3.5h1.35Z"/><path class="cls-1" d="M201.21,162.18a4,4,0,0,1-1,.43,5.09,5.09,0,0,1-1.28.16,3.5,3.5,0,0,1-2.4-.8,3,3,0,0,1-.89-2.38,3.35,3.35,0,0,1,.91-2.41,3.28,3.28,0,0,1,2.51-1,5.52,5.52,0,0,1,1.11.1,5.28,5.28,0,0,1,1.06.32l-.44,1.11a4.53,4.53,0,0,0-.85-.26,4.79,4.79,0,0,0-.88-.08,1.87,1.87,0,0,0-1.4.53,2.17,2.17,0,0,0-.52,1.58,2.05,2.05,0,0,0,.51,1.55,1.87,1.87,0,0,0,1.34.5,2.13,2.13,0,0,0,.46,0,1.18,1.18,0,0,0,.36-.1v-1.24h-1.27v-1.14h2.69Z"/><path class="cls-2" d="M78.85,79.53c.43-.73.87-1.46,1.28-2.2.78-1.42,1.67-2.77,2.55-4.13s1.72-2.53,2.63-3.77c1-1.4,2.13-2.76,3.28-4.06a46.44,46.44,0,0,1,3.29-3.44,47.14,47.14,0,0,1,5.05-4.21,39.14,39.14,0,0,1,4-2.46,36,36,0,0,1,4.29-1.95,29.91,29.91,0,0,1,3.18-1c1-.26,2.08-.48,3.12-.68.38-.07.75-.12,1.13-.16a43.61,43.61,0,0,1,7.58-.14,36.1,36.1,0,0,1,3.6.44c1.12.2,2.24.43,3.35.67s2.47.6,3.69,1c1.55.45,3.08,1,4.6,1.54,1.83.67,3.64,1.41,5.43,2.18,2.37,1,4.68,2.12,7,3.25,1.55.75,3.08,1.52,4.6,2.34l.33.15c.81.4.81.4,1.51-.19,1-.87,2.05-1.76,3-2.67s2.11-2,3.13-3q2.19-2.19,4.3-4.44c1.84-2,3.61-4,5.31-6,.39-.48.78-1,1.18-1.44a.44.44,0,0,0,.06-.5,12.17,12.17,0,0,0-2.05-3.36,10,10,0,0,0-2.87-2.28A11.76,11.76,0,0,0,164,38a12.92,12.92,0,0,0-3.56-.33,16.78,16.78,0,0,0-4.34.73,27.65,27.65,0,0,0-5.33,2.15,47.13,47.13,0,0,0-6.08,3.79c-1.19.87-2.36,1.79-3.49,2.74-.08.07-.15.17-.31.14a2.41,2.41,0,0,1,.35-.84q1.18-2.41,2.6-4.71c.32-.51.68-1,1-1.51.56-.87,1.19-1.68,1.82-2.49a29.24,29.24,0,0,1,2.8-3.09,24,24,0,0,1,4.83-3.68A18.62,18.62,0,0,1,158,29.25a18.33,18.33,0,0,1,4-.78,16.48,16.48,0,0,1,3.58.18,15.24,15.24,0,0,1,4.31,1.24A19.42,19.42,0,0,1,174,32.33a23.24,23.24,0,0,1,3.53,3.41,24.37,24.37,0,0,1,3.81,6.37,25.77,25.77,0,0,1,1.48,5.23,23.27,23.27,0,0,1,.24,5.77,22.11,22.11,0,0,1-.82,4.41,25,25,0,0,1-1.81,4.53,25.41,25.41,0,0,1-2.8,4.23,28.22,28.22,0,0,1-2.89,3.1,30.67,30.67,0,0,1-3.05,2.52c-.08.07-.22.12-.19.24s.14.15.24.19c.91.37,1.82.75,2.73,1.11,1.3.52,2.61,1,4,1.4,1,.3,1.94.62,2.93.84a31.31,31.31,0,0,0,3.5.66c.56.06,1.13.09,1.75.18a15.64,15.64,0,0,1-2.84,1.12,16.07,16.07,0,0,1-2.9.68,23,23,0,0,1-3.8.27,25.37,25.37,0,0,1-3.8-.27c-1.09-.17-2.17-.37-3.24-.64s-2.36-.62-3.54-1c-.73-.22-1.44-.51-2.17-.77q-2.31-.86-4.57-1.85c-1.37-.59-2.72-1.22-4.07-1.85l-3.23-1.52c-1-.46-2-1-2.93-1.43-1.37-.68-2.76-1.31-4.15-2s-3-1.37-4.54-2c-1.31-.57-2.63-1.13-4-1.62s-2.67-1-4-1.39-2.53-.78-3.82-1.1c-1-.24-2-.46-2.94-.66s-2-.3-3-.51a12.57,12.57,0,0,0-1.39-.15,44.85,44.85,0,0,0-7.33-.13c-.84.06-1.68.12-2.51.25s-1.94.3-2.9.52-1.82.42-2.72.66-1.56.47-2.33.74c-1.08.39-2.15.81-3.2,1.26q-2.19,1-4.27,2.13c-1.55.87-3.06,1.81-4.51,2.82S89,70.23,87.63,71.35c-2,1.6-3.85,3.29-5.67,5.07-.76.75-1.52,1.51-2.25,2.3a10.87,10.87,0,0,0-.79.87Z"/><path class="cls-2" d="M183.6,45.75a12.66,12.66,0,0,1,1.27,1.47,55.09,55.09,0,0,1,4,5.72c1.26,2,2.38,4.16,3.44,6.31.56,1.15,1.08,2.33,1.64,3.49,1.08,2.26,2,4.58,3.27,6.77a16.54,16.54,0,0,0,2.65,3.77,6.54,6.54,0,0,0,4.79,2.15,11.77,11.77,0,0,0,4.15-.84A29.68,29.68,0,0,0,214,71.87c1.57-1,3.06-2,4.55-3.11.8-.58,1.57-1.19,2.35-1.79a.18.18,0,0,1,.21,0,2.86,2.86,0,0,1-.56,1c-1.15,1.66-2.3,3.33-3.5,5-1,1.33-2,2.66-3,4s-2.17,2.63-3.35,3.86a18.83,18.83,0,0,1-4.29,3.57,7.17,7.17,0,0,1-4.3,1.17,8.05,8.05,0,0,1-3.64-1.35,24.79,24.79,0,0,1-4.41-3.89c-.79-.84-1.56-1.69-2.31-2.57-1-1.13-1.9-2.28-2.84-3.42-1.27-1.52-2.5-3-3.8-4.54a4.08,4.08,0,0,0-3.64-1.54,10.54,10.54,0,0,0-2.51.76,19,19,0,0,0-1.88.9,1.06,1.06,0,0,1-.37.09C184,63.28,186.07,55.21,183.6,45.75Z"/><path class="cls-2" d="M188.91,45.85a8.67,8.67,0,1,1,8.65,8.65A8.61,8.61,0,0,1,188.91,45.85Z"/><path class="cls-1" d="M136.6,81.28l.07.1Z"/><path class="cls-1" d="M136.27,80.79a1,1,0,0,0,.08.11A1,1,0,0,1,136.27,80.79Z"/><path class="cls-1" d="M139.76,85.15l.1.1Z"/><path class="cls-1" d="M136.49,81.12l.07.1Z"/><path class="cls-1" d="M136.83,81.6l.08.11Z"/><path class="cls-1" d="M137.06,81.91l.1.14Z"/><path class="cls-1" d="M136.71,81.44l.08.1Z"/><path class="cls-1" d="M136.94,81.76l.09.11Z"/><path class="cls-1" d="M135.74,79.94l.07.12Z"/><path class="cls-1" d="M135.56,79.62l.05.1Z"/><path class="cls-1" d="M135.47,79.46l.05.1Z"/><path class="cls-1" d="M135.65,79.78l.06.11Z"/><path class="cls-1" d="M135.38,79.3l.05.1Z"/><path class="cls-1" d="M135.83,80.1l.1.15Z"/><path class="cls-1" d="M136.16,80.62l.08.12Z"/><path class="cls-1" d="M136,80.42a.86.86,0,0,0,.1.16A.86.86,0,0,1,136,80.42Z"/><path class="cls-1" d="M135.93,80.26l.11.16Z"/><path class="cls-1" d="M137.42,82.4l.12.15Z"/><path class="cls-1" d="M138.45,83.66l.1.13Z"/><path class="cls-1" d="M138.7,84l.26.3Z"/><path class="cls-1" d="M138.57,83.81l.13.15Z"/><path class="cls-1" d="M137.17,82.07l.25.32Z"/><path class="cls-1" d="M139,84.27l.12.13Z"/><path class="cls-1" d="M139.51,84.87l.09.1Z"/><path class="cls-1" d="M139.64,85l.08.1Z"/><path class="cls-1" d="M139.25,84.59l.09.1Z"/><path class="cls-1" d="M139.38,84.73l.09.1Z"/><path class="cls-1" d="M139.11,84.43l.1.11Z"/><path class="cls-1" d="M137.69,82.74l.09.11Z"/><path class="cls-1" d="M137.56,82.58l.1.12Z"/><path class="cls-1" d="M135.3,79.14l0,.1Z"/><path class="cls-1" d="M137.82,82.9l.08.11Z"/><path class="cls-1" d="M138.32,83.51l.09.11Z"/><path class="cls-1" d="M137.94,83.06l.09.1Z"/><path class="cls-1" d="M138.19,83.36l.09.11Z"/><path class="cls-1" d="M138.07,83.21l.08.1Z"/><path class="cls-1" d="M136.38,81l.07.1Z"/><path class="cls-1" d="M134.31,74.93a.43.43,0,0,0,0,.11A.43.43,0,0,1,134.31,74.93Z"/><path class="cls-1" d="M134.36,74.64a.29.29,0,0,1,0,.09A.29.29,0,0,0,134.36,74.64Z"/><path class="cls-1" d="M134.33,74.77s0,.09,0,.13S134.32,74.81,134.33,74.77Z"/><path class="cls-1" d="M134.4,74.51a.19.19,0,0,0,0,.08A.19.19,0,0,1,134.4,74.51Z"/><path class="cls-1" d="M134.26,75.37v0Z"/><path class="cls-1" d="M134.44,74.38l0,.07Z"/><path class="cls-1" d="M134.26,75.66v0Z"/><path class="cls-1" d="M134.27,75.23a.19.19,0,0,1,0,.08A.19.19,0,0,0,134.27,75.23Z"/><path class="cls-1" d="M134.28,75.09a.28.28,0,0,1,0,.09A.28.28,0,0,0,134.28,75.09Z"/><path class="cls-1" d="M134.65,73.88a.16.16,0,0,0,0,.07A.16.16,0,0,1,134.65,73.88Z"/><path class="cls-1" d="M134.87,73.51l-.06.08Z"/><path class="cls-1" d="M134.78,73.63a.16.16,0,0,1,0,.07A.16.16,0,0,0,134.78,73.63Z"/><path class="cls-1" d="M134.48,74.25a.19.19,0,0,0,0,.07A.19.19,0,0,1,134.48,74.25Z"/><path class="cls-1" d="M134.71,73.75a.16.16,0,0,1,0,.07A.16.16,0,0,0,134.71,73.75Z"/><path class="cls-1" d="M135,73.36l-.09.11Z"/><path class="cls-1" d="M134.53,74.12l0,.08Z"/><path class="cls-1" d="M134.26,75.8a.19.19,0,0,0,0,.08A.19.19,0,0,1,134.26,75.8Z"/><path class="cls-1" d="M134.59,74a.25.25,0,0,0,0,.07A.25.25,0,0,1,134.59,74Z"/><path class="cls-1" d="M135.21,79l.06.1Z"/><path class="cls-1" d="M134.6,77.5l0,.1Z"/><path class="cls-1" d="M134.71,77.81l0,.1Z"/><path class="cls-1" d="M134.77,78a.42.42,0,0,0,0,.1A.42.42,0,0,1,134.77,78Z"/><path class="cls-1" d="M134.65,77.66a.36.36,0,0,0,0,.09A.36.36,0,0,1,134.65,77.66Z"/><path class="cls-1" d="M134.83,78.13l0,.12Z"/><path class="cls-1" d="M134.89,78.28c.05.11.1.21.14.32C135,78.49,134.94,78.39,134.89,78.28Z"/><path class="cls-1" d="M135.13,78.81l.06.11Z"/><path class="cls-1" d="M135.05,78.64l.06.12Z"/><path class="cls-1" d="M134.46,77l0,.09Z"/><path class="cls-1" d="M134.55,77.35l0,.09Z"/><path class="cls-1" d="M134.35,76.53l0,.15Z"/><path class="cls-1" d="M134.39,76.72a.52.52,0,0,0,0,.11A.52.52,0,0,1,134.39,76.72Z"/><path class="cls-1" d="M134.3,76.23s0,.07,0,.1S134.31,76.27,134.3,76.23Z"/><path class="cls-1" d="M134.32,76.38l0,.14Z"/><path class="cls-1" d="M134.5,77.19l0,.1Z"/><path class="cls-1" d="M134.28,76.09a.28.28,0,0,1,0,.09A.28.28,0,0,0,134.28,76.09Z"/><path class="cls-1" d="M134.42,76.88l0,.1Z"/><path class="cls-1" d="M134.27,75.94s0,.06,0,.09S134.27,76,134.27,75.94Z"/><path class="cls-1" d="M141.5,86.94l.34.33Z"/><path class="cls-1" d="M143.35,88.68l0,0Z"/><path class="cls-1" d="M143.42,88.74l0,0Z"/><path class="cls-1" d="M142,87.39l.08.08Z"/><path class="cls-1" d="M141.39,86.83l.09.09Z"/><path class="cls-1" d="M141.84,87.27l.11.1Z"/><path class="cls-1" d="M141,86.48l.08.08Z"/><path class="cls-1" d="M140.92,86.36l.08.08Z"/><path class="cls-1" d="M143.54,88.85l0,0Z"/><path class="cls-1" d="M141.27,86.71l.09.09Z"/><path class="cls-1" d="M143.28,88.61l0,0Z"/><path class="cls-1" d="M143.48,88.79l0,0Z"/><path class="cls-1" d="M143,88.32l.07.06Z"/><path class="cls-1" d="M143,88.4l.06,0Z"/><path class="cls-1" d="M143.6,88.9l0,0Z"/><path class="cls-1" d="M142.49,87.89l.06.06Z"/><path class="cls-1" d="M142.58,88l.07.06Z"/><path class="cls-1" d="M142.08,87.5l.07.07Z"/><path class="cls-1" d="M142.76,88.14l.08.08Z"/><path class="cls-1" d="M142.67,88.06l.07.06Z"/><path class="cls-1" d="M143.21,88.55l0,0Z"/><path class="cls-1" d="M142.39,87.79l.06.06Z"/><path class="cls-1" d="M142.19,87.6l.07.07Z"/><path class="cls-1" d="M143.13,88.48l0,0Z"/><path class="cls-1" d="M142.29,87.7l.07.06Z"/><path class="cls-1" d="M142.85,88.22l.09.08Z"/><path class="cls-1" d="M131.51,78.27q-3.94,5.51-8.16,10.82c-1.65,2.07-3.33,4.09-5,6.11-.59.71-1.23,1.38-1.77,2.13-.23.31-.59.59-.87.91q-3.45,3.92-7.1,7.66c-2,2.1-4.13,4.16-6.28,6.16-1.74,1.63-3.49,3.24-5.28,4.81s-3.57,3.07-5.41,4.55q-3,2.44-6.12,4.77a6.23,6.23,0,0,0-1.21,1l.19-.07q4.29-2.11,8.54-4.3,4-2,7.87-4.16c4.06-2.23,8.07-4.53,12-6.94,2.25-1.36,4.47-2.77,6.67-4.21q6.27-4.11,12.27-8.63,4.09-3.12,8-6.43,1.78-1.53,3.54-3.09A25.32,25.32,0,0,1,131.51,78.27Z"/><path class="cls-1" d="M140.67,86.1l.09.1Z"/><path class="cls-1" d="M141.24,86.68l-.08-.08Z"/><path class="cls-1" d="M140,85.42l.12.12Z"/><path class="cls-1" d="M134.26,75.6v0Z"/><path class="cls-1" d="M140.14,85.55l.38.4Z"/><path class="cls-1" d="M140.54,86l.1.1Z"/><path class="cls-1" d="M139.89,85.28l.1.11Z"/><path class="cls-1" d="M140.79,86.23l.09.09Z"/><path class="cls-1" d="M144,89.26l-.22-.2-.15.1A.44.44,0,0,1,144,89.26Z"/><path class="cls-1" d="M142.84,88.22h0Z"/><path class="cls-1" d="M143.1,88.45l0,0Z"/><path class="cls-1" d="M134.74,73.7l0,0Z"/><path class="cls-1" d="M134.41,76.83v0Z"/><path class="cls-1" d="M134.74,77.91l0,.06Z"/><path class="cls-1" d="M134.35,76.52h0Z"/><path class="cls-1" d="M134.67,73.82l0,.06Z"/><path class="cls-1" d="M143.17,88.52l0,0Z"/><path class="cls-1" d="M134.38,76.68v0Z"/><path class="cls-1" d="M139.72,85.11l0,0Z"/><path class="cls-1" d="M134.45,77v0Z"/><path class="cls-1" d="M134.53,77.29l0,.06Z"/><path class="cls-1" d="M134.58,77.44l0,.06Z"/><path class="cls-1" d="M134.89,73.47l0,0Z"/><path class="cls-1" d="M134.63,77.6l0,.06Z"/><path class="cls-1" d="M142.94,88.3v0Z"/><path class="cls-1" d="M134.49,77.13v0Z"/><path class="cls-1" d="M134.81,73.59l0,0Z"/><path class="cls-1" d="M134.69,77.75l0,.06Z"/><path class="cls-1" d="M143,88.38l0,0Z"/><path class="cls-1" d="M143.45,88.77l0,0Z"/><path class="cls-1" d="M134.5,74.2l0,0Z"/><path class="cls-1" d="M134.29,75v0Z"/><path class="cls-1" d="M134.27,75.18v0Z"/><path class="cls-1" d="M143.51,88.82l0,0Z"/><path class="cls-1" d="M134.26,75.31v0Z"/><path class="cls-1" d="M134.38,74.59l0,0Z"/><path class="cls-1" d="M134.46,74.32l0,.06Z"/><path class="cls-1" d="M134.31,74.9v0Z"/><path class="cls-1" d="M134.32,76.33v0Z"/><path class="cls-1" d="M143.57,88.87l0,0Z"/><path class="cls-1" d="M143.79,89.06l-.17-.14.17.14Z"/><path class="cls-1" d="M134.34,74.73v0Z"/><path class="cls-1" d="M134.41,74.45v0Z"/><path class="cls-1" d="M134.26,75.66v0Z"/><path class="cls-1" d="M134.28,76v0Z"/><path class="cls-1" d="M134.61,74l0,0Z"/><path class="cls-1" d="M143.25,88.59l0,0Z"/><path class="cls-1" d="M143.32,88.65l0,0Z"/><path class="cls-1" d="M134.29,76.18v0Z"/><path class="cls-1" d="M134.55,74.07l0,.05Z"/><path class="cls-1" d="M143.38,88.71l0,0Z"/><path class="cls-1" d="M141.16,86.6l0,0Z"/><path class="cls-1" d="M134.27,75.88v0Z"/><path class="cls-1" d="M134.26,75.74v0Z"/><path class="cls-1" d="M134.26,75.45v0Z"/><path class="cls-1" d="M136.24,80.74l0,.05Z"/><path class="cls-1" d="M141.48,86.92l0,0Z"/><path class="cls-1" d="M137.9,83l0,0Z"/><path class="cls-1" d="M141,86.44l0,0Z"/><path class="cls-1" d="M137.78,82.85l0,.05Z"/><path class="cls-1" d="M138.15,83.31l0,0Z"/><path class="cls-1" d="M140.88,86.32l0,0Z"/><path class="cls-1" d="M138,83.16l0,0Z"/><path class="cls-1" d="M137.54,82.55l0,0Z"/><path class="cls-1" d="M137,81.87l0,0Z"/><path class="cls-1" d="M136.91,81.71l0,.05Z"/><path class="cls-1" d="M141.36,86.8l0,0Z"/><path class="cls-1" d="M137.16,82.05v0Z"/><path class="cls-1" d="M140.76,86.2l0,0Z"/><path class="cls-1" d="M141.24,86.68l0,0Z"/><path class="cls-1" d="M137.42,82.39h0Z"/><path class="cls-1" d="M137.66,82.7l0,0Z"/><path class="cls-1" d="M139.34,84.69l0,0Z"/><path class="cls-1" d="M139.21,84.54l0,0Z"/><path class="cls-1" d="M140.13,85.54h0Z"/><path class="cls-1" d="M140,85.39l0,0Z"/><path class="cls-1" d="M139.86,85.25l0,0Z"/><path class="cls-1" d="M139.6,85l0,0Z"/><path class="cls-1" d="M139.47,84.83l0,0Z"/><path class="cls-1" d="M140.64,86.07l0,0Z"/><path class="cls-1" d="M138.28,83.47l0,0Z"/><path class="cls-1" d="M138.55,83.79l0,0Z"/><path class="cls-1" d="M138.41,83.62l0,0Z"/><path class="cls-1" d="M139.09,84.4l0,0Z"/><path class="cls-1" d="M138.7,84Z"/><path class="cls-1" d="M139,84.26h0Z"/><path class="cls-1" d="M140.52,86l0,0Z"/><path class="cls-1" d="M135.81,80.06l0,0Z"/><path class="cls-1" d="M142.45,87.85l0,0Z"/><path class="cls-1" d="M135.35,79.24l0,.06Z"/><path class="cls-1" d="M135.27,79.08l0,.06Z"/><path class="cls-1" d="M135.43,79.4l0,.06Z"/><path class="cls-1" d="M135.52,79.56l0,.06Z"/><path class="cls-1" d="M135.61,79.72l0,.06Z"/><path class="cls-1" d="M142.36,87.76l0,0Z"/><path class="cls-1" d="M142.74,88.12l0,0Z"/><path class="cls-1" d="M134.88,78.25v0Z"/><path class="cls-1" d="M135,78.6l0,0Z"/><path class="cls-1" d="M135.71,79.89l0,0Z"/><path class="cls-1" d="M135.19,78.92l0,.06Z"/><path class="cls-1" d="M142.55,88l0,0Z"/><path class="cls-1" d="M142.65,88l0,0Z"/><path class="cls-1" d="M135.11,78.76l0,0Z"/><path class="cls-1" d="M136.56,81.22l0,.06Z"/><path class="cls-1" d="M136.45,81.06l0,.06Z"/><path class="cls-1" d="M142,87.37l0,0Z"/><path class="cls-1" d="M136.35,80.9l0,.06Z"/><path class="cls-1" d="M136.79,81.54l0,.06Z"/><path class="cls-1" d="M142.26,87.67l0,0Z"/><path class="cls-1" d="M143.64,89.16a.67.67,0,0,0-.24.16Z"/><path class="cls-1" d="M141.84,87.27Z"/><path class="cls-1" d="M136.67,81.38l0,.06Z"/><path class="cls-1" d="M142.05,87.47l0,0Z"/><path class="cls-1" d="M135.93,80.25h0Z"/><path class="cls-1" d="M134.81,78.07l0,.06Z"/><path class="cls-1" d="M142.15,87.57l0,0Z"/><path class="cls-1" d="M136,80.42Z"/><path class="cls-1" d="M136.14,80.58l0,0Z"/><path class="cls-1" d="M143.62,88.92l0,0,0,0,0,0,0,0,0,0,0,0,0,0,0,0,0,0,0,0,0,0,0,0,0,0,0,0,0,0,0,0-.06,0,0,0-.07-.06v0l-.09-.08h0l-.08-.08,0,0-.07-.06,0,0-.07-.06,0,0-.06-.06,0,0-.06-.06,0,0-.07-.06,0,0-.07-.07,0,0-.07-.07,0,0-.08-.08,0,0-.11-.1h0l-.34-.33,0,0-.09-.09,0,0-.09-.09,0,0-.08-.08,0,0-.08-.08,0,0-.08-.08,0,0-.09-.09,0,0-.09-.1,0,0-.1-.1,0,0-.38-.4h0l-.12-.12,0,0-.1-.11,0,0-.1-.1,0,0-.08-.1,0,0-.09-.1,0,0-.09-.1,0,0-.09-.1,0,0-.1-.11,0,0-.12-.13h0l-.26-.3h0l-.13-.15,0,0-.1-.13,0,0-.09-.11,0,0-.09-.11,0,0-.08-.1,0,0-.09-.1,0,0-.08-.11,0-.05-.09-.11,0,0-.1-.12,0,0-.12-.15h0l-.25-.32v0l-.1-.14,0,0-.09-.11,0-.05-.08-.11,0-.06-.08-.1,0-.06-.07-.1,0-.06-.07-.1,0-.06-.07-.1,0-.06a1,1,0,0,1-.08-.11l0-.05-.08-.12,0,0a.86.86,0,0,1-.1-.16h0l-.11-.16h0l-.1-.15,0,0-.07-.12,0,0-.06-.11,0-.06-.05-.1,0-.06-.05-.1,0-.06-.05-.1,0-.06,0-.1,0-.06-.06-.1,0-.06-.06-.11,0,0-.06-.12,0,0c0-.11-.09-.21-.14-.32v0l0-.12,0-.06a.42.42,0,0,1,0-.1l0-.06,0-.1,0-.06a.36.36,0,0,1,0-.09l0-.06,0-.1,0-.06,0-.09,0-.06,0-.1v-.06l0-.09V77l0-.1v0a.52.52,0,0,1,0-.11v0l0-.15h0l0-.14v0s0-.06,0-.1v0a.28.28,0,0,0,0-.09V76s0-.06,0-.09v-.06a.19.19,0,0,1,0-.08v-.49a.19.19,0,0,0,0-.08v0a.28.28,0,0,0,0-.09v0a.43.43,0,0,1,0-.11v0s0-.09,0-.13v0a.29.29,0,0,0,0-.09l0,0a.19.19,0,0,1,0-.08v-.06l0-.07,0-.06a.19.19,0,0,1,0-.07l0,0,0-.08,0-.05a.25.25,0,0,1,0-.07l0,0a.16.16,0,0,1,0-.07l0-.06a.16.16,0,0,0,0-.07l0,0a.16.16,0,0,0,0-.07l0,0,.06-.08,0,0,.09-.11h0a20.85,20.85,0,0,0-1.23,1.73c-.74,1.07-1.49,2.12-2.24,3.18a25.32,25.32,0,0,0,11.89,11,.67.67,0,0,1,.24-.16l.15-.1Z"/><path class="cls-1" d="M176.09,98.21a33.25,33.25,0,0,0-5.5-7.25,75.05,75.05,0,0,0-6.18-5.78c-1.48-1.25-3-2.46-4.52-3.62l-1.64-1.24c8.45,3,16.88,3.35,25.31,0a8.05,8.05,0,0,0-1,.17,20.54,20.54,0,0,1-3.66.51,32.07,32.07,0,0,1-3.67.05,38.87,38.87,0,0,1-4.58-.5A48.69,48.69,0,0,1,164.37,79a80.5,80.5,0,0,1-7.54-2.85c-2.53-1.09-5-2.26-7.53-3.44-2.3-1.08-4.62-2.14-6.94-3.2-2.53-1.16-5.09-2.23-7.71-3.19a62.35,62.35,0,0,0-9.78-2.78,42.58,42.58,0,0,0-6.66-.76,37.9,37.9,0,0,0-14.41,2.32,50,50,0,0,0-11,5.83c-1.3.89-2.53,1.87-3.77,2.84-.62.49-1.21,1-1.81,1.54a.16.16,0,0,0,.16,0q2.61-1.8,5.36-3.39c1.48-.86,3-1.68,4.55-2.41A49.55,49.55,0,0,1,105,66.56a42.22,42.22,0,0,1,4.75-1,34.08,34.08,0,0,1,4.27-.41,45,45,0,0,1,5.06.12,48.21,48.21,0,0,1,5.21.81,48.73,48.73,0,0,1,5.67,1.6,75.15,75.15,0,0,1,7.78,3.19c.09.05.21.06.21.18s-.12.1-.19.15a15.62,15.62,0,0,0-2.12,1.5,6,6,0,0,0-.66.68h0c-3.86,5,9,15.9,9,15.9,1.57,1,3.22,2,4.87,2.89,2,1.07,4,2,6,2.92a67.34,67.34,0,0,0,10,3.6,3.06,3.06,0,0,1,.88.27,13.59,13.59,0,0,1-2,1.47,44.76,44.76,0,0,1-8.78,4c-4.18,1.47-8.44,2.66-12.72,3.82l-2.23.62a1.67,1.67,0,0,0,.51.13c1.66.27,3.33.45,5,.64,1.43.15,2.87.28,4.3.4,2.27.19,4.54.33,6.82.39,2.52.07,5,.06,7.56-.12a35.33,35.33,0,0,0,6.56-.89,11.94,11.94,0,0,0,4.42-2.06,5.44,5.44,0,0,0,2.25-4.54A10.07,10.07,0,0,0,176.09,98.21Z"/></svg>