<svg id="Layer_1" data-name="Layer 1" xmlns="http://www.w3.org/2000/svg" viewBox="0 0 180 180"><defs><style>.cls-1{fill:gray;}.cls-2{fill:#4b4b4b;}</style></defs><path class="cls-1" d="M0,92.2c.54-.93,1.1-1.85,1.62-2.79,1-1.79,2.12-3.5,3.22-5.22S7,81,8.18,79.42c1.3-1.77,2.69-3.49,4.14-5.14s2.7-3,4.16-4.35a59.19,59.19,0,0,1,6.4-5.32,46.67,46.67,0,0,1,5.06-3.11A43.48,43.48,0,0,1,33.37,59a40,40,0,0,1,4-1.25c1.3-.32,2.62-.6,3.94-.85.47-.09.95-.15,1.42-.2a54,54,0,0,1,9.6-.18,43.48,43.48,0,0,1,4.55.56c1.41.25,2.83.54,4.24.85,1.57.34,3.13.75,4.66,1.2,2,.58,3.9,1.25,5.83,2C74,62,76.23,62.9,78.5,63.87c3,1.28,5.93,2.69,8.85,4.11,2,1,3.91,1.93,5.83,3l.41.2c1,.51,1,.5,1.91-.24,1.3-1.1,2.59-2.23,3.83-3.39s2.68-2.5,4-3.8q2.76-2.77,5.44-5.62c2.32-2.48,4.56-5,6.71-7.65.5-.61,1-1.23,1.49-1.83A.53.53,0,0,0,117,48a15.14,15.14,0,0,0-2.59-4.25,12.5,12.5,0,0,0-3.64-2.89,14.25,14.25,0,0,0-3.11-1.22,16.19,16.19,0,0,0-4.5-.43,21.77,21.77,0,0,0-5.49.93A35.47,35.47,0,0,0,91,42.85a58.16,58.16,0,0,0-7.69,4.8c-1.51,1.1-3,2.25-4.42,3.46-.1.09-.19.22-.39.18a3.36,3.36,0,0,1,.44-1.07q1.5-3.06,3.29-5.95c.4-.65.87-1.27,1.28-1.91.71-1.1,1.51-2.12,2.3-3.16a38.44,38.44,0,0,1,3.54-3.9,30.78,30.78,0,0,1,6.11-4.66,24.71,24.71,0,0,1,4.65-2.05,23.34,23.34,0,0,1,5.1-1,21.36,21.36,0,0,1,4.52.23,19,19,0,0,1,5.45,1.57,23.89,23.89,0,0,1,5.16,3.08,29,29,0,0,1,4.47,4.32,30.74,30.74,0,0,1,4.82,8,33.09,33.09,0,0,1,1.87,6.62,29.29,29.29,0,0,1,.3,7.3,27.21,27.21,0,0,1-1,5.57,30.59,30.59,0,0,1-2.29,5.73,31.19,31.19,0,0,1-3.54,5.35,35.5,35.5,0,0,1-3.64,3.92,40.81,40.81,0,0,1-3.87,3.2c-.1.08-.28.15-.24.29s.17.19.31.25c1.15.46,2.3,1,3.45,1.41,1.65.65,3.31,1.25,5,1.76,1.23.38,2.46.79,3.71,1.06a41.19,41.19,0,0,0,4.43.84c.71.07,1.43.12,2.22.23a19.63,19.63,0,0,1-3.6,1.42,22,22,0,0,1-3.67.86,28.53,28.53,0,0,1-4.81.33,32,32,0,0,1-4.8-.33c-1.38-.22-2.74-.47-4.1-.81s-3-.79-4.47-1.22c-.93-.28-1.83-.64-2.75-1-2-.71-3.87-1.5-5.78-2.33-1.73-.75-3.44-1.55-5.15-2.34L93,81.07c-1.25-.59-2.48-1.2-3.72-1.81-1.73-.86-3.49-1.66-5.25-2.47s-3.81-1.74-5.73-2.57c-1.66-.72-3.33-1.43-5-2s-3.38-1.2-5.09-1.75-3.21-1-4.84-1.4c-1.23-.3-2.47-.58-3.72-.83s-2.51-.38-3.75-.65a14.63,14.63,0,0,0-1.75-.19,56.29,56.29,0,0,0-9.27-.16c-1.07.07-2.13.15-3.18.32-1.23.2-2.46.38-3.68.66s-2.29.53-3.43.83-2,.59-3,.94c-1.36.48-2.7,1-4,1.59-1.85.81-3.65,1.7-5.41,2.69q-2.94,1.65-5.71,3.57c-1.85,1.29-3.64,2.64-5.39,4.06q-3.74,3-7.16,6.41C3,89.21,2,90.17,1.09,91.17a11.54,11.54,0,0,0-1,1.1Z"/><path class="cls-1" d="M132.51,49.47a16.55,16.55,0,0,1,1.6,1.86,72.39,72.39,0,0,1,5,7.23c1.58,2.58,3,5.26,4.34,8,.71,1.46,1.37,2.95,2.07,4.41,1.38,2.86,2.61,5.8,4.14,8.58a21.64,21.64,0,0,0,3.35,4.76A8.27,8.27,0,0,0,159.11,87a14.78,14.78,0,0,0,5.26-1.07A37.85,37.85,0,0,0,171,82.51c2-1.21,3.87-2.58,5.76-3.94,1-.73,2-1.5,3-2.27a.24.24,0,0,1,.27-.06,3.6,3.6,0,0,1-.71,1.23c-1.45,2.11-2.91,4.21-4.43,6.28-1.24,1.68-2.5,3.36-3.82,5s-2.74,3.33-4.23,4.89a23.51,23.51,0,0,1-5.43,4.51,9.11,9.11,0,0,1-5.45,1.48,10.22,10.22,0,0,1-4.6-1.71A30.75,30.75,0,0,1,145.75,93c-1-1.06-2-2.14-2.92-3.25-1.22-1.42-2.39-2.88-3.59-4.33-1.6-1.91-3.16-3.86-4.8-5.74a5.18,5.18,0,0,0-4.61-1.94,13.15,13.15,0,0,0-3.17,1,26,26,0,0,0-2.38,1.14,1.16,1.16,0,0,1-.47.12C133,71.64,135.62,61.43,132.51,49.47Z"/><path class="cls-1" d="M139.21,49.59a11,11,0,1,1,10.95,10.94A10.91,10.91,0,0,1,139.21,49.59Z"/><path class="cls-2" d="M73.05,94.41l.09.13Z"/><path class="cls-2" d="M72.64,93.79l.09.14Z"/><path class="cls-2" d="M77.05,99.3l.12.13Z"/><path class="cls-2" d="M72.91,94.21l.09.13Z"/><path class="cls-2" d="M73.34,94.81l.1.14Z"/><path class="cls-2" d="M73.63,95.21a1.09,1.09,0,0,0,.13.17A1.09,1.09,0,0,1,73.63,95.21Z"/><path class="cls-2" d="M73.19,94.61l.1.13Z"/><path class="cls-2" d="M73.48,95l.11.15Z"/><path class="cls-2" d="M72,92.71l.09.15Z"/><path class="cls-2" d="M71.73,92.31l.07.13Z"/><path class="cls-2" d="M71.62,92.11a.75.75,0,0,0,.07.12A.75.75,0,0,1,71.62,92.11Z"/><path class="cls-2" d="M71.84,92.51a1,1,0,0,1,.08.14A1,1,0,0,0,71.84,92.51Z"/><path class="cls-2" d="M71.51,91.9a.83.83,0,0,0,.07.13A.83.83,0,0,1,71.51,91.9Z"/><path class="cls-2" d="M72.08,92.91l.12.2Z"/><path class="cls-2" d="M72.49,93.58l.11.15Z"/><path class="cls-2" d="M72.34,93.33l.12.2Z"/><path class="cls-2" d="M72.21,93.12a2.39,2.39,0,0,0,.13.21A2.39,2.39,0,0,1,72.21,93.12Z"/><path class="cls-2" d="M74.09,95.83l.14.18Z"/><path class="cls-2" d="M75.38,97.42l.14.16Z"/><path class="cls-2" d="M75.7,97.8l.33.38Z"/><path class="cls-2" d="M75.54,97.61c.06.06.11.13.16.19S75.6,97.67,75.54,97.61Z"/><path class="cls-2" d="M73.77,95.41c.11.13.21.27.31.4C74,95.68,73.88,95.54,73.77,95.41Z"/><path class="cls-2" d="M76.05,98.2l.15.16Z"/><path class="cls-2" d="M76.73,99l.11.13Z"/><path class="cls-2" d="M76.89,99.13l.11.12Z"/><path class="cls-2" d="M76.4,98.59l.12.13Z"/><path class="cls-2" d="M76.56,98.77l.12.13Z"/><path class="cls-2" d="M76.23,98.4l.12.14Z"/><path class="cls-2" d="M74.43,96.26a1.34,1.34,0,0,1,.11.14A1.34,1.34,0,0,0,74.43,96.26Z"/><path class="cls-2" d="M74.27,96.05l.12.16Z"/><path class="cls-2" d="M71.4,91.7l.07.12Z"/><path class="cls-2" d="M74.59,96.46l.11.13Z"/><path class="cls-2" d="M75.23,97.24l.11.13Z"/><path class="cls-2" d="M74.75,96.66l.11.13Z"/><path class="cls-2" d="M75.07,97.05l.11.13Z"/><path class="cls-2" d="M74.91,96.85A.69.69,0,0,0,75,97,.69.69,0,0,1,74.91,96.85Z"/><path class="cls-2" d="M72.77,94l.09.13Z"/><path class="cls-2" d="M70.15,86.38a.59.59,0,0,0,0,.14A.59.59,0,0,1,70.15,86.38Z"/><path class="cls-2" d="M70.22,86l0,.12Z"/><path class="cls-2" d="M70.18,86.18l0,.16Z"/><path class="cls-2" d="M70.26,85.84s0,.07,0,.11S70.25,85.88,70.26,85.84Z"/><path class="cls-2" d="M70.09,86.94v0Z"/><path class="cls-2" d="M70.31,85.68l0,.1Z"/><path class="cls-2" d="M70.09,87.3v0Z"/><path class="cls-2" d="M70.1,86.76v0Z"/><path class="cls-2" d="M70.12,86.58s0,.07,0,.11S70.12,86.61,70.12,86.58Z"/><path class="cls-2" d="M70.58,85l0,.09Z"/><path class="cls-2" d="M70.86,84.58a.36.36,0,0,0-.07.1A.36.36,0,0,1,70.86,84.58Z"/><path class="cls-2" d="M70.75,84.74a.41.41,0,0,1,0,.09A.41.41,0,0,0,70.75,84.74Z"/><path class="cls-2" d="M70.37,85.52l0,.09Z"/><path class="cls-2" d="M70.66,84.89a.41.41,0,0,1,0,.09A.41.41,0,0,0,70.66,84.89Z"/><path class="cls-2" d="M71,84.39a.76.76,0,0,0-.11.14A.76.76,0,0,1,71,84.39Z"/><path class="cls-2" d="M70.43,85.36l0,.09Z"/><path class="cls-2" d="M70.09,87.48s0,.07,0,.1S70.09,87.51,70.09,87.48Z"/><path class="cls-2" d="M70.5,85.2l0,.09Z"/><path class="cls-2" d="M71.3,91.49l.06.13Z"/><path class="cls-2" d="M70.52,89.63l0,.12Z"/><path class="cls-2" d="M70.66,90l0,.12Z"/><path class="cls-2" d="M70.73,90.22a1.12,1.12,0,0,1,0,.13A1.12,1.12,0,0,0,70.73,90.22Z"/><path class="cls-2" d="M70.59,89.83a.56.56,0,0,0,0,.12A.56.56,0,0,1,70.59,89.83Z"/><path class="cls-2" d="M70.81,90.42l.06.16Z"/><path class="cls-2" d="M70.89,90.62l.18.4Z"/><path class="cls-2" d="M71.2,91.29l.06.13Z"/><path class="cls-2" d="M71.09,91.07a1,1,0,0,1,.07.15A1,1,0,0,0,71.09,91.07Z"/><path class="cls-2" d="M70.35,89.05l0,.11Z"/><path class="cls-2" d="M70.46,89.44l0,.11Z"/><path class="cls-2" d="M70.2,88.4a1.29,1.29,0,0,0,0,.19A1.29,1.29,0,0,1,70.2,88.4Z"/><path class="cls-2" d="M70.25,88.64l0,.14Z"/><path class="cls-2" d="M70.14,88s0,.08,0,.12S70.15,88.07,70.14,88Z"/><path class="cls-2" d="M70.17,88.21l0,.18Z"/><path class="cls-2" d="M70.4,89.24l0,.12Z"/><path class="cls-2" d="M70.12,87.84s0,.08,0,.12S70.12,87.88,70.12,87.84Z"/><path class="cls-2" d="M70.3,88.85l0,.12Z"/><path class="cls-2" d="M70.1,87.66a.41.41,0,0,1,0,.11A.41.41,0,0,0,70.1,87.66Z"/><path class="cls-2" d="M79.25,101.57l.43.41Z"/><path class="cls-2" d="M81.59,103.77l0,0Z"/><path class="cls-2" d="M81.67,103.84l0,0Z"/><path class="cls-2" d="M79.84,102.14l.11.1Z"/><path class="cls-2" d="M79.11,101.43l.11.11Z"/><path class="cls-2" d="M79.68,102l.13.13Z"/><path class="cls-2" d="M78.66,101l.11.11Z"/><path class="cls-2" d="M78.51,100.83l.11.11Z"/><path class="cls-2" d="M81.83,104l0,0Z"/><path class="cls-2" d="M79,101.28l.11.11Z"/><path class="cls-2" d="M81.5,103.69l0,0Z"/><path class="cls-2" d="M81.75,103.91l0,0Z"/><path class="cls-2" d="M81.09,103.31l.08.08Z"/><path class="cls-2" d="M81.2,103.41l.07.07Z"/><path class="cls-2" d="M81.9,104.05l0,0Z"/><path class="cls-2" d="M80.5,102.76l.08.08Z"/><path class="cls-2" d="M80.61,102.87l.09.08Z"/><path class="cls-2" d="M80,102.28l.1.09Z"/><path class="cls-2" d="M80.85,103.09l.1.09Z"/><path class="cls-2" d="M80.73,103l.09.08Z"/><path class="cls-2" d="M81.41,103.6l0,.05Z"/><path class="cls-2" d="M80.37,102.65l.09.08Z"/><path class="cls-2" d="M80.12,102.41l.08.08Z"/><path class="cls-2" d="M81.31,103.51l0,0Z"/><path class="cls-2" d="M80.25,102.53l.08.08Z"/><path class="cls-2" d="M81,103.19l.1.1Z"/><path class="cls-2" d="M66.61,90.6q-5,7-10.33,13.69c-2.07,2.61-4.21,5.17-6.35,7.73-.75.9-1.55,1.74-2.25,2.69-.29.4-.74.75-1.09,1.15q-4.37,5-9,9.69-3.87,4-7.93,7.8c-2.2,2.05-4.42,4.09-6.69,6.08s-4.52,3.88-6.83,5.76c-2.55,2.05-5.13,4.07-7.75,6a7.2,7.2,0,0,0-1.53,1.22l.25-.1c3.61-1.78,7.22-3.59,10.8-5.44,3.33-1.72,6.65-3.46,9.94-5.26q7.71-4.21,15.21-8.78,4.26-2.58,8.43-5.32,7.95-5.21,15.53-10.92,5.18-3.93,10.14-8.14c1.51-1.28,3-2.59,4.48-3.91A32,32,0,0,1,66.61,90.6Z"/><path class="cls-2" d="M78.2,100.51l.11.12Z"/><path class="cls-2" d="M78.92,101.24l-.11-.1Z"/><path class="cls-2" d="M77.37,99.64l.14.16Z"/><path class="cls-2" d="M70.09,87.22v0Z"/><path class="cls-2" d="M77.53,99.81l.48.5Z"/><path class="cls-2" d="M78,100.34l.13.13Z"/><path class="cls-2" d="M77.21,99.47l.12.14Z"/><path class="cls-2" d="M78.36,100.67l.11.11Z"/><path class="cls-2" d="M82.43,104.51l-.29-.25-.19.12A.56.56,0,0,1,82.43,104.51Z"/><path class="cls-2" d="M81,103.18h0Z"/><path class="cls-2" d="M81.27,103.48l0,0Z"/><path class="cls-2" d="M70.7,84.83l0,.06Z"/><path class="cls-2" d="M70.28,88.78l0,.07Z"/><path class="cls-2" d="M70.7,90.15l0,.07Z"/><path class="cls-2" d="M70.2,88.39h0Z"/><path class="cls-2" d="M70.61,85l0,.06Z"/><path class="cls-2" d="M81.36,103.56l0,0Z"/><path class="cls-2" d="M70.24,88.59v0Z"/><path class="cls-2" d="M77,99.25l0,0Z"/><path class="cls-2" d="M70.33,89l0,.08Z"/><path class="cls-2" d="M70.43,89.36l0,.08Z"/><path class="cls-2" d="M70.49,89.55l0,.08Z"/><path class="cls-2" d="M70.89,84.53l0,0Z"/><path class="cls-2" d="M70.56,89.75l0,.08Z"/><path class="cls-2" d="M81.06,103.29l0,0Z"/><path class="cls-2" d="M70.38,89.16l0,.08Z"/><path class="cls-2" d="M70.79,84.68l0,.06Z"/><path class="cls-2" d="M70.63,90l0,.08Z"/><path class="cls-2" d="M81.17,103.39l0,0Z"/><path class="cls-2" d="M81.71,103.88l0,0Z"/><path class="cls-2" d="M70.4,85.45l0,.07Z"/><path class="cls-2" d="M70.13,86.52v0Z"/><path class="cls-2" d="M70.11,86.69s0,0,0,.07S70.11,86.71,70.11,86.69Z"/><path class="cls-2" d="M81.79,104l0,0Z"/><path class="cls-2" d="M70.1,86.86v0Z"/><path class="cls-2" d="M70.24,86s0,0,0,.06S70.23,86,70.24,86Z"/><path class="cls-2" d="M70.34,85.61l0,.07Z"/><path class="cls-2" d="M70.15,86.34v0Z"/><path class="cls-2" d="M70.16,88.15v0Z"/><path class="cls-2" d="M81.87,104l0,0Z"/><path class="cls-2" d="M82.14,104.26l-.21-.19.21.19Z"/><path class="cls-2" d="M70.19,86.13v0Z"/><path class="cls-2" d="M70.28,85.78a.14.14,0,0,1,0,.06A.14.14,0,0,0,70.28,85.78Z"/><path class="cls-2" d="M70.09,87.3v0Z"/><path class="cls-2" d="M70.11,87.77v0Z"/><path class="cls-2" d="M70.53,85.13l0,.07Z"/><path class="cls-2" d="M81.46,103.65l0,0Z"/><path class="cls-2" d="M81.55,103.73l0,0Z"/><path class="cls-2" d="M70.13,88v0Z"/><path class="cls-2" d="M70.46,85.29l0,.07Z"/><path class="cls-2" d="M81.63,103.8l0,0Z"/><path class="cls-2" d="M78.81,101.14l0,0Z"/><path class="cls-2" d="M70.1,87.58v0Z"/><path class="cls-2" d="M70.09,87.4v0Z"/><path class="cls-2" d="M70.09,87v0Z"/><path class="cls-2" d="M72.6,93.73l0,.06Z"/><path class="cls-2" d="M79.22,101.54l0,0Z"/><path class="cls-2" d="M74.7,96.59l0,.07Z"/><path class="cls-2" d="M78.62,100.94l0,0Z"/><path class="cls-2" d="M74.54,96.4l0,.06Z"/><path class="cls-2" d="M75,97l0,.07Z"/><path class="cls-2" d="M78.47,100.78l0,0Z"/><path class="cls-2" d="M74.86,96.79l0,.06Z"/><path class="cls-2" d="M74.23,96l0,0Z"/><path class="cls-2" d="M73.59,95.16l0,0Z"/><path class="cls-2" d="M73.44,95l0,.06Z"/><path class="cls-2" d="M79.07,101.39l0,0Z"/><path class="cls-2" d="M73.76,95.38v0Z"/><path class="cls-2" d="M78.31,100.63l0,0Z"/><path class="cls-2" d="M78.92,101.24l0,0Z"/><path class="cls-2" d="M74.08,95.81v0Z"/><path class="cls-2" d="M74.39,96.21l0,.05Z"/><path class="cls-2" d="M76.52,98.72l0,0Z"/><path class="cls-2" d="M76.35,98.54l.05,0Z"/><path class="cls-2" d="M77.51,99.8h0Z"/><path class="cls-2" d="M77.33,99.61l0,0Z"/><path class="cls-2" d="M77.17,99.43l0,0Z"/><path class="cls-2" d="M76.84,99.08l0,0Z"/><path class="cls-2" d="M76.68,98.9l0,0Z"/><path class="cls-2" d="M78.16,100.47l0,0Z"/><path class="cls-2" d="M75.18,97.18l0,.06Z"/><path class="cls-2" d="M75.52,97.58l0,0Z"/><path class="cls-2" d="M75.34,97.37l0,0Z"/><path class="cls-2" d="M76.2,98.36l0,0Z"/><path class="cls-2" d="M75.7,97.8Z"/><path class="cls-2" d="M76,98.18l0,0Z"/><path class="cls-2" d="M78,100.31l0,0Z"/><path class="cls-2" d="M72.05,92.86l0,0Z"/><path class="cls-2" d="M80.46,102.73l0,0Z"/><path class="cls-2" d="M71.47,91.82l0,.08Z"/><path class="cls-2" d="M71.36,91.62l0,.08Z"/><path class="cls-2" d="M71.58,92l0,.08Z"/><path class="cls-2" d="M71.69,92.23l0,.08Z"/><path class="cls-2" d="M71.8,92.44l0,.07Z"/><path class="cls-2" d="M80.33,102.61l0,0Z"/><path class="cls-2" d="M80.82,103.07l0,0Z"/><path class="cls-2" d="M70.87,90.58l0,0Z"/><path class="cls-2" d="M71.07,91l0,0Z"/><path class="cls-2" d="M71.92,92.65l0,.06Z"/><path class="cls-2" d="M71.26,91.42l0,.07Z"/><path class="cls-2" d="M80.58,102.84l0,0Z"/><path class="cls-2" d="M80.7,103l0,0Z"/><path class="cls-2" d="M71.16,91.22l0,.07Z"/><path class="cls-2" d="M73,94.34l0,.07Z"/><path class="cls-2" d="M72.86,94.13l0,.08Z"/><path class="cls-2" d="M79.81,102.12l0,0Z"/><path class="cls-2" d="M72.73,93.93l0,.07Z"/><path class="cls-2" d="M73.29,94.74l0,.07Z"/><path class="cls-2" d="M80.2,102.49l0,0Z"/><path class="cls-2" d="M82,104.38a.93.93,0,0,0-.3.19Z"/><path class="cls-2" d="M79.68,102h0Z"/><path class="cls-2" d="M73.14,94.54l0,.07Z"/><path class="cls-2" d="M80,102.24l0,0Z"/><path class="cls-2" d="M72.2,93.11h0Z"/><path class="cls-2" d="M70.78,90.35l0,.07Z"/><path class="cls-2" d="M80.08,102.37l0,0Z"/><path class="cls-2" d="M72.34,93.33Z"/><path class="cls-2" d="M72.46,93.53l0,0Z"/><path class="cls-2" d="M81.93,104.07l0,0,0,0,0,0,0,0,0,0,0,0,0,0,0,0,0,0,0,0,0,0,0,0,0-.05,0,0,0,0,0,0-.07-.07,0,0-.08-.08,0,0-.1-.1h0l-.1-.09,0,0-.09-.08,0,0-.09-.08,0,0-.08-.08,0,0-.09-.08,0,0-.08-.08,0,0-.08-.08,0,0-.1-.09,0,0-.11-.1,0,0-.13-.13h0l-.43-.41,0,0-.11-.11,0,0-.11-.11,0,0-.11-.1,0,0-.11-.11,0,0-.11-.11,0,0-.11-.11,0,0-.11-.12,0,0-.13-.13,0,0-.48-.5h0l-.14-.16,0,0-.12-.14,0,0-.12-.13,0,0-.11-.12,0,0L76.73,99l0,0-.12-.13,0,0-.12-.13-.05,0-.12-.14,0,0-.15-.16,0,0-.33-.38h0c0-.06-.1-.13-.16-.19l0,0-.14-.16,0,0-.11-.13,0-.06-.11-.13L75,97a.69.69,0,0,1-.11-.13l0-.06-.11-.13,0-.07-.11-.13,0-.06a1.34,1.34,0,0,0-.11-.14l0-.05-.12-.16,0,0-.14-.18v0c-.1-.13-.2-.27-.31-.4v0a1.09,1.09,0,0,1-.13-.17l0,0L73.48,95l0-.06-.1-.14,0-.07-.1-.13,0-.07-.09-.13,0-.07-.09-.13,0-.08L72.77,94l0-.07-.09-.14,0-.06-.11-.15,0,0-.12-.2h0a2.39,2.39,0,0,1-.13-.21h0l-.12-.2,0,0L72,92.71l0-.06a1,1,0,0,0-.08-.14l0-.07-.07-.13,0-.08a.75.75,0,0,1-.07-.12l0-.08a.83.83,0,0,1-.07-.13l0-.08-.07-.12,0-.08-.06-.13,0-.07-.06-.13,0-.07a1,1,0,0,0-.07-.15l0,0-.18-.4,0,0-.06-.16,0-.07a1.12,1.12,0,0,0,0-.13l0-.07,0-.12,0-.08a.56.56,0,0,1,0-.12l0-.08,0-.12,0-.08,0-.11,0-.08,0-.12,0-.08,0-.11,0-.08,0-.12,0-.07,0-.14v0a1.29,1.29,0,0,1,0-.19h0l0-.18v-.06s0-.08,0-.12V88s0-.08,0-.12v-.07a.41.41,0,0,0,0-.11v-.08s0-.07,0-.1v-.72s0-.05,0-.07,0-.08,0-.11v-.06a.59.59,0,0,1,0-.14v0l0-.16v-.05l0-.12s0,0,0-.06,0-.07,0-.11a.14.14,0,0,0,0-.06l0-.1,0-.07,0-.09,0-.07,0-.09,0-.07,0-.09,0-.07,0-.09,0-.06a.41.41,0,0,0,0-.09l0-.06a.41.41,0,0,0,0-.09l0-.06a.36.36,0,0,1,.07-.1l0,0a.76.76,0,0,1,.11-.14h0c-.58.68-1,1.45-1.56,2.19-.93,1.35-1.88,2.69-2.83,4a32,32,0,0,0,15,14,.93.93,0,0,1,.3-.19l.19-.12Z"/><path class="cls-2" d="M123,115.83a42,42,0,0,0-7-9.18,95,95,0,0,0-7.83-7.31c-1.86-1.58-3.75-3.11-5.71-4.57l-2.08-1.57c10.69,3.76,21.36,4.23,32,0-.4.06-.81.12-1.22.21a25.85,25.85,0,0,1-4.62.66,42.23,42.23,0,0,1-4.64.06,50.92,50.92,0,0,1-5.8-.64,61.19,61.19,0,0,1-8-2,99.66,99.66,0,0,1-9.53-3.61c-3.2-1.38-6.37-2.85-9.52-4.34-2.92-1.38-5.85-2.71-8.78-4.05q-4.8-2.2-9.75-4a78.31,78.31,0,0,0-12.38-3.51,53,53,0,0,0-8.42-1,47,47,0,0,0-9,.54,48.26,48.26,0,0,0-9.22,2.39,63,63,0,0,0-13.86,7.38c-1.64,1.13-3.21,2.35-4.78,3.58-.78.62-1.52,1.31-2.28,2a.25.25,0,0,0,.2,0q3.3-2.28,6.77-4.29c1.88-1.09,3.79-2.13,5.76-3a62.69,62.69,0,0,1,9.71-3.63,53.25,53.25,0,0,1,6-1.29A44.48,44.48,0,0,1,44.48,74a54.88,54.88,0,0,1,6.41.16,58.42,58.42,0,0,1,6.58,1,59.32,59.32,0,0,1,7.18,2,94.47,94.47,0,0,1,9.84,4c.12,0,.27.08.27.22s-.15.13-.24.19a19.38,19.38,0,0,0-2.68,1.9,6.2,6.2,0,0,0-.84.86h0c-4.88,6.33,11.43,20.12,11.43,20.12,2,1.33,4.06,2.5,6.15,3.65,2.47,1.36,5,2.56,7.59,3.69a83.56,83.56,0,0,0,12.67,4.56,3.81,3.81,0,0,1,1.13.33,16.74,16.74,0,0,1-2.57,1.86,56.91,56.91,0,0,1-11.11,5C91,125.49,85.61,127,80.2,128.47l-2.82.78a1.92,1.92,0,0,0,.63.15c2.11.35,4.22.58,6.34.81,1.81.2,3.63.36,5.44.51,2.87.24,5.74.43,8.62.5,3.19.08,6.38.08,9.56-.15a45.29,45.29,0,0,0,8.3-1.13,15,15,0,0,0,5.59-2.61,6.86,6.86,0,0,0,2.85-5.74A12.73,12.73,0,0,0,123,115.83Z"/></svg>