<svg id="Layer_1" data-name="Layer 1" xmlns="http://www.w3.org/2000/svg" viewBox="0 0 180 180"><defs><style>.cls-1{fill:#4b4b4b;}.cls-2{fill:gray;}</style></defs><circle class="cls-1" cx="62.96" cy="68.9" r="21.43"/><path class="cls-1" d="M128.53,50.83a21.35,21.35,0,0,0-22.87-.06v0C90.83,57.36,92.23,78,97.94,89.69l5.25-4.45a21.4,21.4,0,0,0,27.67,0l5.21,4.42C141.76,78,143.16,57.53,128.53,50.83Z"/><path class="cls-2" d="M92.54,60.73A22.27,22.27,0,0,1,100.6,50V42.59h16.25c6.42,0,6.42-21.53,0-21.53H100.6V4.81c0-6.41-21.53-6.41-21.53,0V21.06H62.5c-6,0-6,21.54,0,21.53H79.07v7.7A24.63,24.63,0,0,1,87,63.51a27.28,27.28,0,0,0,4.7.08A27.69,27.69,0,0,1,92.54,60.73ZM79.71,30.64V28.57c0-.73,1-5.3,5.06-5.3,3.75,0,5.06,2.06,5.06,2.06s1.32-2.06,5.06-2.06c4.11,0,5.06,4.57,5.06,5.3v2.07c0,2-10.12,11.84-10.12,11.84S79.71,32.65,79.71,30.64Z"/><path class="cls-1" d="M137.66,98.35a18.66,18.66,0,0,0-8.9-4.2c-4,0-7.53.45-11.72.45s-8.09-.45-11.72-.45a18.66,18.66,0,0,0-8.9,4.2A39.59,39.59,0,0,0,90,105.71a39.59,39.59,0,0,0-6.42-7.36,18.66,18.66,0,0,0-8.9-4.2,27.81,27.81,0,0,1-23.44,0,18.66,18.66,0,0,0-8.9,4.2c-14.22,12.55-18,37.13-17.22,41.45a5.88,5.88,0,0,0,5.78,4.82,6.41,6.41,0,0,0,1.06-.09A5.87,5.87,0,0,0,36.73,138c0-2.37,2-14.58,7.83-24v51.32c0,8.14,4.83,14.74,13,14.74h22V154.63a34.6,34.6,0,0,0-4.54,14,3.41,3.41,0,0,1-2.77,3.8,4.32,4.32,0,0,1-.62.05,3.41,3.41,0,0,1-3.35-2.8c-.45-2.5,1.74-16.77,10-24a11,11,0,0,1,5.17-2.44,16.07,16.07,0,0,0,13.6,0,11,11,0,0,1,5.17,2.44c8.25,7.28,10.44,21.55,10,24a3.41,3.41,0,0,1-3.35,2.8,4.32,4.32,0,0,1-.62-.05,3.41,3.41,0,0,1-2.77-3.8,34.6,34.6,0,0,0-4.54-14V180h21.56c8.14,0,13-6.6,13-14.74v-6.17l6.12-.1a169.38,169.38,0,0,0-6.12-45.05c5.83,9.46,7.87,21.67,7.83,24a5.87,5.87,0,0,0,4.77,6.55,6.41,6.41,0,0,0,1.06.09,5.88,5.88,0,0,0,5.78-4.82C155.66,135.48,151.88,110.9,137.66,98.35Zm-47.83,43a13.07,13.07,0,1,1,13.07-13.07A13.07,13.07,0,0,1,89.83,141.34Z"/></svg>