<svg id="Layer_1" data-name="Layer 1" xmlns="http://www.w3.org/2000/svg" viewBox="0 0 300 180"><defs><style>.cls-1{fill:#282428;}.cls-2{fill:#e0a326;}.cls-3{fill:#2d1b63;}</style></defs><path d="M13.74,135.23v-8.4h2.32a4.77,4.77,0,0,1,3.33,1,4,4,0,0,1,1.11,3.07,4.14,4.14,0,0,1-1.23,3.13,4.55,4.55,0,0,1-3.3,1.18Zm1-7.51v6.62H16a3.55,3.55,0,0,0,2.57-.89,3.31,3.31,0,0,0,.92-2.5,3.2,3.2,0,0,0-.86-2.43,3.66,3.66,0,0,0-2.57-.8Z"/><path d="M23.14,135.23h-1v-8.4h1Z"/><path d="M32.12,135.23H30.91l-4.32-6.7a1.35,1.35,0,0,1-.15-.26,1.51,1.51,0,0,1-.12-.26h0a3,3,0,0,1,0,.42c0,.19,0,.43,0,.73v6.07h-1v-8.4h1.27l4.21,6.59.22.34a1.81,1.81,0,0,1,.12.22h0c0-.12,0-.28,0-.49s0-.46,0-.74v-5.92h1Z"/><path d="M33.35,135.23l3.22-8.4h1l3.24,8.4H39.74L38.89,133H35.25l-.8,2.25Zm2.23-3.13h3l-1.36-3.69a1,1,0,0,1-.07-.23q0-.13-.06-.33h0c0,.11,0,.22-.06.31a1.26,1.26,0,0,1-.07.25Z"/><path d="M41.34,134.59l.48-.74a4,4,0,0,0,1,.48,4.25,4.25,0,0,0,1.2.16,2.09,2.09,0,0,0,1.26-.37,1.22,1.22,0,0,0,.5-1.05,1.24,1.24,0,0,0-.42-1,4.36,4.36,0,0,0-1.37-.72,5,5,0,0,1-1.76-1,1.85,1.85,0,0,1-.57-1.41,2.1,2.1,0,0,1,.74-1.67,2.85,2.85,0,0,1,2-.64,5.08,5.08,0,0,1,1.1.12,5.27,5.27,0,0,1,1.11.39l-.37.79a4.11,4.11,0,0,0-.93-.32,4.34,4.34,0,0,0-1-.1,1.84,1.84,0,0,0-1.2.35,1.2,1.2,0,0,0-.44,1,1.08,1.08,0,0,0,.41.88,4.91,4.91,0,0,0,1.35.67,4.76,4.76,0,0,1,1.81,1,2.06,2.06,0,0,1,.55,1.52,2.2,2.2,0,0,1-.74,1.7,3,3,0,0,1-2.07.68,4.65,4.65,0,0,1-1.38-.19A4.77,4.77,0,0,1,41.34,134.59Z"/><path d="M58.54,135.23H56.18l-2.45-3.58-.09-.17-.13-.29h0v4H51.59v-8.4h1.89v3.89h0l.09-.2.14-.26,2.32-3.43h2.2l-2.89,4Z"/><path d="M64.41,135.23h-5v-8.4h4.85v1.54H61.27v1.87H64v1.53H61.27v1.92h3.14Z"/><path d="M65.07,134.67l.79-1.47a4.92,4.92,0,0,0,1.1.51,3.51,3.51,0,0,0,1,.13,1.6,1.6,0,0,0,1-.26.84.84,0,0,0,.32-.71.87.87,0,0,0-.25-.67,2.4,2.4,0,0,0-1-.39,4.51,4.51,0,0,1-2-.91,2.16,2.16,0,0,1-.64-1.65,2.38,2.38,0,0,1,.83-1.82,3.31,3.31,0,0,1,2.31-.74,5.29,5.29,0,0,1,2.36.55l-.71,1.49a4.29,4.29,0,0,0-.91-.39,3,3,0,0,0-.8-.12,1.6,1.6,0,0,0-.89.22.74.74,0,0,0-.31.64.66.66,0,0,0,.29.59,3,3,0,0,0,1,.37,4,4,0,0,1,2,.93,2.34,2.34,0,0,1,.61,1.73,2.46,2.46,0,0,1-.84,1.94,3.59,3.59,0,0,1-2.44.74,6.43,6.43,0,0,1-1.46-.19A4.81,4.81,0,0,1,65.07,134.67Z"/><path d="M77.52,135.23h-5v-8.4h4.84v1.54h-3v1.87h2.75v1.53H74.38v1.92h3.14Z"/><path d="M86.14,135.23H84.25v-3.42H80.77v3.42h-1.9v-8.4h1.9v3.35h3.48v-3.35h1.89Z"/><path d="M87.16,135.23l3.06-8.4h2.25l3,8.4H93.39l-.57-1.75h-3l-.57,1.75Zm3-3.23h2.19l-.92-2.92a2.43,2.43,0,0,1-.09-.3,1.82,1.82,0,0,1-.05-.31h0q0,.18-.06.3a2.33,2.33,0,0,1-.09.29Z"/><path d="M101.56,128.37h-2.4v6.86H97.27v-6.86H94.88v-1.54h6.68Z"/><path d="M101,135.23l3.06-8.4h2.24l3,8.4h-2.07l-.56-1.75h-3.05l-.56,1.75Zm3-3.23h2.2l-.93-2.92c0-.11-.06-.21-.08-.3a1.7,1.7,0,0,1-.06-.31h0q0,.18-.06.3c0,.09,0,.18-.08.29Z"/><path d="M117.85,135.23h-1.91L112.48,130l-.26-.41a3.08,3.08,0,0,1-.16-.29h0q0,.23,0,.57c0,.22,0,.49,0,.79v4.62H110.3v-8.4h2l3.33,5.11c.07.12.15.23.22.34s.14.23.2.35h0c0-.1,0-.25,0-.44s0-.43,0-.72v-4.64h1.78Z"/><path d="M121.34,133.75l-.85,3H119l.6-3Z"/><path d="M128.23,132.48v2.75h-1.89v-8.4h3a3.62,3.62,0,0,1,2.39.68,2.59,2.59,0,0,1,.79,2.07,2.67,2.67,0,0,1-.91,2.1,3.59,3.59,0,0,1-2.44.8Zm0-4.2V131H129a1.63,1.63,0,0,0,1.13-.35,1.35,1.35,0,0,0,.38-1,1.33,1.33,0,0,0-.38-1,1.62,1.62,0,0,0-1.13-.34Z"/><path d="M138.75,135.23h-5v-8.4h4.85v1.54h-3v1.87h2.75v1.53H135.6v1.92h3.15Z"/><path d="M147.66,135.23h-1.91L142.28,130l-.26-.41a3.08,3.08,0,0,1-.16-.29h0q0,.23,0,.57c0,.22,0,.49,0,.79v4.62H140.1v-8.4h2l3.33,5.11c.07.12.15.23.22.34s.14.23.2.35h0a3.52,3.52,0,0,1,0-.44c0-.19,0-.43,0-.72v-4.64h1.79Z"/><path d="M156.47,134.6a5.18,5.18,0,0,1-1.35.57,6.49,6.49,0,0,1-1.7.21,4.63,4.63,0,0,1-3.18-1.06,4,4,0,0,1-1.19-3.16,4.51,4.51,0,0,1,1.2-3.2,4.39,4.39,0,0,1,3.34-1.27,7.52,7.52,0,0,1,1.47.13,7.3,7.3,0,0,1,1.41.43l-.59,1.46a6.74,6.74,0,0,0-1.12-.34,6.15,6.15,0,0,0-1.17-.1,2.47,2.47,0,0,0-1.86.7,2.91,2.91,0,0,0-.69,2.11,2.75,2.75,0,0,0,.68,2,2.46,2.46,0,0,0,1.78.66,3.67,3.67,0,0,0,.61,0,1.88,1.88,0,0,0,.47-.13V132H152.9v-1.51h3.57Z"/><path d="M163.15,135.23h-5v-8.4H163v1.54H160v1.87h2.75v1.53H160v1.92h3.15Z"/><path d="M172.05,135.23h-1.91L166.68,130l-.26-.41a3.08,3.08,0,0,1-.16-.29h0q0,.23,0,.57c0,.22,0,.49,0,.79v4.62H164.5v-8.4h2l3.34,5.11c.07.12.15.23.22.34s.14.23.2.35h0c0-.1,0-.25,0-.44s0-.43,0-.72v-4.64h1.78Z"/><path d="M174,135.23v-8.4h3a4.86,4.86,0,0,1,3.36,1,4,4,0,0,1,1.12,3.07,4.16,4.16,0,0,1-1.22,3.14,4.52,4.52,0,0,1-3.26,1.17Zm1.89-6.86v5.32h.94a2.54,2.54,0,0,0,1.93-.73,2.86,2.86,0,0,0,.7-2,2.51,2.51,0,0,0-.7-1.89,2.64,2.64,0,0,0-2-.69Z"/><path d="M181.74,135.23l3.06-8.4H187l3,8.4H188l-.57-1.75h-3.05l-.56,1.75Zm3-3.23H187l-.93-2.92c0-.11-.06-.21-.08-.3s0-.18-.06-.31h0q0,.18-.06.3c0,.09,0,.18-.09.29Z"/><path d="M196.08,135.23h-5v-8.4H193v6.86h3.11Z"/><path d="M199.11,135.23h-1.9v-8.4h1.9Z"/><path d="M200.11,135.23l3.06-8.4h2.25l3,8.4h-2.07l-.57-1.75h-3l-.56,1.75Zm3-3.23h2.2l-.93-2.92c0-.11-.06-.21-.09-.3a1.82,1.82,0,0,1,0-.31h-.05q0,.18-.06.3c0,.09,0,.18-.08.29Z"/><path d="M217,135.23H215.1L211.64,130l-.26-.41a3.08,3.08,0,0,1-.16-.29h0c0,.15,0,.34,0,.57s0,.49,0,.79v4.62h-1.79v-8.4h2l3.34,5.11a4,4,0,0,0,.22.34c.07.12.14.23.2.35h0c0-.1,0-.25,0-.44s0-.43,0-.72v-4.64H217Z"/><path d="M224.14,132.48v2.75h-1.89v-8.4h3a3.59,3.59,0,0,1,2.38.68,2.6,2.6,0,0,1,.8,2.07,2.68,2.68,0,0,1-.92,2.1,3.54,3.54,0,0,1-2.43.8Zm0-4.2V131h.74a1.65,1.65,0,0,0,1.14-.35,1.35,1.35,0,0,0,.37-1,1.32,1.32,0,0,0-.37-1,1.65,1.65,0,0,0-1.14-.34Z"/><path d="M234.66,135.23h-5v-8.4h4.84v1.54h-3v1.87h2.75v1.53h-2.75v1.92h3.15Z"/><path d="M243.56,135.23h-1.91L238.19,130l-.26-.41a3.08,3.08,0,0,1-.16-.29h0c0,.15,0,.34,0,.57s0,.49,0,.79v4.62H236v-8.4h2l3.34,5.11a4,4,0,0,0,.22.34c.07.12.14.23.2.35h0a3.94,3.94,0,0,1,0-.44c0-.19,0-.43,0-.72v-4.64h1.79Z"/><path d="M245.48,135.23v-8.4h3a4.86,4.86,0,0,1,3.36,1,4,4,0,0,1,1.12,3.07,4.16,4.16,0,0,1-1.22,3.14,4.52,4.52,0,0,1-3.26,1.17Zm1.9-6.86v5.32h.93a2.53,2.53,0,0,0,1.93-.73,2.81,2.81,0,0,0,.7-2,2.54,2.54,0,0,0-.69-1.89,2.64,2.64,0,0,0-1.95-.69Z"/><path d="M261.18,131.59a4,4,0,0,1-.88,2.84,3.46,3.46,0,0,1-2.65.95,3.3,3.3,0,0,1-2.56-.93,4,4,0,0,1-.86-2.79v-4.83h1.9v4.87a2.43,2.43,0,0,0,.4,1.53,1.65,1.65,0,0,0,2.37,0,2.36,2.36,0,0,0,.39-1.48v-4.94h1.89Z"/><path d="M263,135.23v-8.4h3a4.81,4.81,0,0,1,3.35,1,4,4,0,0,1,1.12,3.07,4.13,4.13,0,0,1-1.22,3.14,4.5,4.5,0,0,1-3.25,1.17Zm1.89-6.86v5.32h.94a2.54,2.54,0,0,0,1.93-.73,2.81,2.81,0,0,0,.7-2,2.54,2.54,0,0,0-.69-1.89,2.67,2.67,0,0,0-1.95-.69Z"/><path d="M278.71,131.59a4,4,0,0,1-.89,2.84,3.43,3.43,0,0,1-2.64.95,3.33,3.33,0,0,1-2.57-.93,4,4,0,0,1-.85-2.79v-4.83h1.9v4.87a2.5,2.5,0,0,0,.39,1.53,1.44,1.44,0,0,0,1.2.51,1.4,1.4,0,0,0,1.17-.49,2.36,2.36,0,0,0,.39-1.48v-4.94h1.9Z"/><path d="M287.49,135.23h-2.36l-2.45-3.58-.09-.17-.13-.29h0v4h-1.9v-8.4h1.9v3.89h0l.09-.2.14-.26,2.32-3.43h2.2l-2.89,4Z"/><path d="M67.74,149.63v-8.4h3a4.86,4.86,0,0,1,3.36,1,4,4,0,0,1,1.12,3.07A4.13,4.13,0,0,1,74,148.46a4.5,4.5,0,0,1-3.25,1.17Zm1.9-6.86v5.33h.93a2.53,2.53,0,0,0,1.93-.74,2.81,2.81,0,0,0,.7-2,2.55,2.55,0,0,0-.69-1.89,2.64,2.64,0,0,0-2-.69Z"/><path d="M75.51,149.63l3-8.4h2.25l3,8.4H81.73l-.56-1.75h-3l-.56,1.75Zm3-3.23h2.2l-.93-2.92c0-.11-.06-.21-.08-.3a1.7,1.7,0,0,1-.06-.31h0q0,.18-.06.3c0,.09,0,.18-.08.29Z"/><path d="M92.4,149.63H90.49L87,144.35l-.26-.41a3.08,3.08,0,0,1-.16-.29h0q0,.22,0,.57c0,.22,0,.49,0,.79v4.62H84.85v-8.4h2l3.33,5.11c.07.12.15.23.22.34l.2.35h0c0-.1,0-.25,0-.44s0-.43,0-.72v-4.64H92.4Z"/><path d="M104.59,149.63h-2.36l-2.45-3.58-.09-.17-.13-.29h0v4H97.64v-8.4h1.89v3.89h0a1.54,1.54,0,0,1,.09-.19l.14-.27,2.32-3.43h2.2l-2.89,4Z"/><path d="M110.46,149.63h-5v-8.4h4.85v1.54h-3v1.87h2.74v1.53h-2.74v1.93h3.14Z"/><path d="M116.81,149.63h-5v-8.4h1.89v6.87h3.11Z"/><path d="M124.56,146a4,4,0,0,1-.89,2.84,3.43,3.43,0,0,1-2.64.95,3.33,3.33,0,0,1-2.57-.93,4,4,0,0,1-.85-2.79v-4.83h1.89v4.87a2.5,2.5,0,0,0,.4,1.53,1.44,1.44,0,0,0,1.2.51,1.4,1.4,0,0,0,1.17-.49,2.36,2.36,0,0,0,.39-1.48v-4.94h1.9Z"/><path d="M125.22,149.63l3.06-8.4h2.24l3,8.4h-2.06l-.57-1.75h-3l-.56,1.75Zm3-3.23h2.2l-.93-2.92c0-.11-.06-.21-.08-.3s0-.18-.06-.31h-.05a1.76,1.76,0,0,1-.06.3c0,.09,0,.18-.08.29Z"/><path d="M141.38,149.63h-2.14l-1.11-2.07a2.87,2.87,0,0,0-.55-.76,1,1,0,0,0-.62-.29h-.51v3.12h-1.89v-8.4h3a3.73,3.73,0,0,1,2.29.59,2.13,2.13,0,0,1,.77,1.79,2.19,2.19,0,0,1-.5,1.44,2.81,2.81,0,0,1-1.34.89v0a1.58,1.58,0,0,1,.7.49,5,5,0,0,1,.55.78Zm-4.93-7v2.43h.82a1.34,1.34,0,0,0,1-.37,1.24,1.24,0,0,0,.37-.92,1.11,1.11,0,0,0-.32-.86,1.48,1.48,0,0,0-1-.28Z"/><path d="M149.17,149a5.11,5.11,0,0,1-1.36.57,6.43,6.43,0,0,1-1.7.21,4.58,4.58,0,0,1-3.18-1.06,4,4,0,0,1-1.18-3.16,4.51,4.51,0,0,1,1.2-3.2,4.37,4.37,0,0,1,3.34-1.27,7.59,7.59,0,0,1,1.47.13,7.75,7.75,0,0,1,1.41.43l-.59,1.46a8,8,0,0,0-1.13-.34,6,6,0,0,0-1.16-.1,2.49,2.49,0,0,0-1.87.7,3,3,0,0,0-.68,2.11,2.74,2.74,0,0,0,.68,2.05,2.46,2.46,0,0,0,1.78.66,3.67,3.67,0,0,0,.61-.05,2,2,0,0,0,.47-.13v-1.66H145.6v-1.51h3.57Z"/><path d="M149.9,149.63l3.06-8.4h2.25l3,8.4h-2.06l-.57-1.75h-3l-.57,1.75Zm3-3.23h2.19l-.92-2.92a2.43,2.43,0,0,1-.09-.3,1.82,1.82,0,0,1-.05-.31H154q0,.18-.06.3a2.33,2.33,0,0,1-.09.29Z"/><path d="M162.55,149.63v-8.4h3.06a3.74,3.74,0,0,1,2.16.53,1.74,1.74,0,0,1,.76,1.51,1.89,1.89,0,0,1-.4,1.18,2.14,2.14,0,0,1-1,.7v0a2,2,0,0,1,1.29.64,1.88,1.88,0,0,1,.48,1.3A2.24,2.24,0,0,1,168,149a3.48,3.48,0,0,1-2.26.68Zm1.9-7v2h.83a1.37,1.37,0,0,0,.92-.28.93.93,0,0,0,.34-.77.88.88,0,0,0-.35-.75,1.73,1.73,0,0,0-1-.25Zm0,3.46v2.16h1a1.6,1.6,0,0,0,1-.31,1,1,0,0,0,.37-.83.88.88,0,0,0-.36-.75,1.73,1.73,0,0,0-1-.27Z"/><path d="M175.29,149.63h-5v-8.4h4.84v1.54h-3v1.87h2.75v1.53h-2.75v1.93h3.15Z"/><path d="M183.46,149.63h-2.14l-1.12-2.07a3.11,3.11,0,0,0-.54-.76,1,1,0,0,0-.62-.29h-.51v3.12h-1.9v-8.4h3a3.76,3.76,0,0,1,2.3.59,2.12,2.12,0,0,1,.76,1.79,2.19,2.19,0,0,1-.49,1.44,2.89,2.89,0,0,1-1.35.89v0a1.53,1.53,0,0,1,.7.49,5.1,5.1,0,0,1,.56.78Zm-4.93-7v2.43h.82a1.35,1.35,0,0,0,1-.37,1.24,1.24,0,0,0,.37-.92,1.08,1.08,0,0,0-.33-.86,1.48,1.48,0,0,0-1-.28Z"/><path d="M189.51,149.63h-5v-8.4h4.84v1.54h-2.95v1.87h2.75v1.53h-2.75v1.93h3.15Z"/><path d="M198.41,149.63H196.5L193,144.35l-.26-.41a3.08,3.08,0,0,1-.16-.29h0c0,.15,0,.34,0,.57s0,.49,0,.79v4.62h-1.79v-8.4h2l3.34,5.11a4,4,0,0,0,.22.34l.2.35h0a3.94,3.94,0,0,1,0-.44c0-.19,0-.43,0-.72v-4.64h1.78Z"/><path d="M206.65,149.22a5.79,5.79,0,0,1-1.28.42,6.33,6.33,0,0,1-1.34.14,4.29,4.29,0,0,1-3.1-1.1,4.21,4.21,0,0,1-1.12-3.15,4.4,4.4,0,0,1,1.23-3.18,4.32,4.32,0,0,1,3.24-1.26,7.37,7.37,0,0,1,1.21.09,6.33,6.33,0,0,1,1.1.31L206,143a4.75,4.75,0,0,0-.84-.22,4.61,4.61,0,0,0-.86-.07,2.48,2.48,0,0,0-1.78.72,2.57,2.57,0,0,0-.76,2,2.86,2.86,0,0,0,.66,2,2.33,2.33,0,0,0,1.81.72,3.37,3.37,0,0,0,.75-.1,4.33,4.33,0,0,0,1-.32Z"/><path d="M206.92,149.63l3.06-8.4h2.24l3,8.4h-2.06l-.57-1.75h-3.05l-.56,1.75Zm3-3.23h2.2l-.92-2.92a2.43,2.43,0,0,1-.09-.3c0-.08,0-.18-.06-.31h0q0,.18-.06.3c0,.09-.05.18-.09.29Z"/><path d="M223.82,149.63h-1.91l-3.46-5.28c-.11-.16-.19-.29-.26-.41s-.13-.21-.17-.29h0c0,.15,0,.34,0,.57s0,.49,0,.79v4.62h-1.79v-8.4h2l3.33,5.11.22.34c.08.12.14.24.21.35h0a3.52,3.52,0,0,1,0-.44c0-.19,0-.43,0-.72v-4.64h1.79Z"/><path d="M224.84,149.63l3.06-8.4h2.24l3,8.4h-2.06l-.57-1.75h-3.05l-.56,1.75Zm3-3.23h2.2l-.93-2.92c0-.11-.06-.21-.08-.3s0-.18-.06-.31h0a1.67,1.67,0,0,1-.07.3c0,.09,0,.18-.08.29Z"/><path d="M104.25,162.65h-1.78L100.62,160l-.07-.13-.1-.22h0v3H99v-6.33h1.43v2.94h0l.07-.15.11-.2,1.75-2.59H104l-2.17,3Z"/><path d="M107.29,162.76a3,3,0,0,1-2.22-.88,3.18,3.18,0,0,1-.85-2.31,3.45,3.45,0,0,1,.86-2.43,3,3,0,0,1,2.31-.92,2.88,2.88,0,0,1,2.19.88,3.29,3.29,0,0,1,.84,2.34,3.35,3.35,0,0,1-.87,2.41A3,3,0,0,1,107.29,162.76Zm0-1.23a1.39,1.39,0,0,0,1.17-.53,2.27,2.27,0,0,0,.44-1.48,2.48,2.48,0,0,0-.42-1.53,1.38,1.38,0,0,0-1.15-.55,1.42,1.42,0,0,0-1.19.57,2.74,2.74,0,0,0,0,3A1.41,1.41,0,0,0,107.31,161.53Z"/><path d="M115.55,157.48h-1.81v5.17h-1.43v-5.17h-1.79v-1.16h5Z"/><path d="M115.1,162.65l2.3-6.33h1.69l2.25,6.33h-1.55l-.43-1.32h-2.3l-.42,1.32Zm2.27-2.43H119l-.7-2.2c0-.09,0-.16-.06-.22a1.19,1.19,0,0,1,0-.24h0a1.32,1.32,0,0,1,0,.23,1,1,0,0,1-.06.21Z"/><path d="M129.07,157.48h-1.8v5.17h-1.43v-5.17H124v-1.16h5Z"/><path d="M128.62,162.65l2.3-6.33h1.69l2.26,6.33h-1.56l-.43-1.32h-2.29l-.43,1.32Zm2.28-2.43h1.65l-.7-2.2a2.18,2.18,0,0,0-.06-.22,1.19,1.19,0,0,1,0-.24h0c0,.09,0,.16,0,.23s0,.14-.07.21Z"/><path d="M141.35,162.65h-1.44l-2.61-4-.19-.31-.12-.22h0c0,.11,0,.25,0,.42s0,.38,0,.61v3.47h-1.34v-6.33h1.53l2.52,3.86.16.26a1.65,1.65,0,0,1,.15.25h0a2.38,2.38,0,0,1,0-.33c0-.14,0-.32,0-.54v-3.5h1.34Z"/><path d="M145.45,160.58a2.15,2.15,0,0,1-.57,1.63,2.22,2.22,0,0,1-1.62.55,3,3,0,0,1-.59-.06,3.18,3.18,0,0,1-.62-.2l.44-1.08a1.59,1.59,0,0,0,.32.12,1,1,0,0,0,.32.05.81.81,0,0,0,.65-.24,1.13,1.13,0,0,0,.21-.77l0-4.26h1.42Z"/><path d="M152,159.91a3,3,0,0,1-.66,2.14,2.6,2.6,0,0,1-2,.71,2.51,2.51,0,0,1-1.93-.69,3,3,0,0,1-.65-2.1v-3.65h1.43V160a1.86,1.86,0,0,0,.3,1.15,1.09,1.09,0,0,0,.91.38,1.05,1.05,0,0,0,.88-.37,1.75,1.75,0,0,0,.29-1.11v-3.73H152Z"/><path d="M159.06,162.65h-1.43l-2.61-4c-.08-.12-.15-.22-.2-.31l-.12-.22h0q0,.16,0,.42c0,.18,0,.38,0,.61v3.47h-1.35v-6.33h1.53l2.52,3.86.16.26c.06.08.11.17.16.25h0a2.38,2.38,0,0,1,0-.33c0-.14,0-.32,0-.54v-3.5h1.34Z"/><path d="M165.71,162.18a4,4,0,0,1-1,.43,5.17,5.17,0,0,1-1.28.15A3.47,3.47,0,0,1,161,162a3,3,0,0,1-.89-2.38,3.38,3.38,0,0,1,.9-2.41,3.32,3.32,0,0,1,2.52-1,5.52,5.52,0,0,1,1.11.1,5.28,5.28,0,0,1,1.06.32l-.44,1.1a5.33,5.33,0,0,0-.85-.25,4.12,4.12,0,0,0-.88-.08,1.91,1.91,0,0,0-1.41.53,2.21,2.21,0,0,0-.51,1.58,2.07,2.07,0,0,0,.51,1.55,1.85,1.85,0,0,0,1.34.5,2.13,2.13,0,0,0,.46,0,1.11,1.11,0,0,0,.35-.1v-1.24H163v-1.14h2.69Z"/><path d="M168.37,160.58v2.07h-1.43v-6.33h2.24a2.64,2.64,0,0,1,1.79.52,1.93,1.93,0,0,1,.6,1.55,2,2,0,0,1-.69,1.59,2.67,2.67,0,0,1-1.83.6Zm0-3.16v2.08h.56a1.17,1.17,0,0,0,.85-.27,1.19,1.19,0,0,0,0-1.56,1.22,1.22,0,0,0-.85-.25Z"/><path d="M173.92,162.65H172.5v-6.33h1.42Z"/><path d="M181.06,162.65h-1.44l-2.61-4c-.08-.12-.14-.22-.19-.31a2,2,0,0,1-.13-.22h0c0,.11,0,.25,0,.42s0,.38,0,.61v3.47h-1.35v-6.33h1.54l2.51,3.86c.06.08.11.17.17.26l.15.25h0q0-.1,0-.33c0-.14,0-.32,0-.54v-3.5h1.35Z"/><path d="M181.83,162.65l2.31-6.33h1.69l2.25,6.33h-1.56l-.42-1.32h-2.3l-.42,1.32Zm2.28-2.43h1.65l-.69-2.2-.07-.22c0-.06,0-.14,0-.24h0c0,.09,0,.16-.05.23s0,.14-.07.21Z"/><path d="M194.56,162.65h-1.43l-2.61-4c-.08-.12-.15-.22-.2-.31l-.12-.22h0q0,.16,0,.42c0,.18,0,.38,0,.61v3.47h-1.35v-6.33h1.53l2.52,3.86.16.26c.06.08.11.17.16.25h0a2.38,2.38,0,0,1,0-.33c0-.14,0-.32,0-.54v-3.5h1.34Z"/><path d="M201.21,162.18a4,4,0,0,1-1,.43,5.17,5.17,0,0,1-1.28.15,3.47,3.47,0,0,1-2.4-.79,3,3,0,0,1-.89-2.38,3.38,3.38,0,0,1,.9-2.41,3.32,3.32,0,0,1,2.52-1,5.52,5.52,0,0,1,1.11.1,5.28,5.28,0,0,1,1.06.32l-.44,1.1a5.33,5.33,0,0,0-.85-.25,4.12,4.12,0,0,0-.88-.08,1.91,1.91,0,0,0-1.41.53,2.21,2.21,0,0,0-.51,1.58,2.07,2.07,0,0,0,.51,1.55,1.85,1.85,0,0,0,1.34.5,2.13,2.13,0,0,0,.46,0,1.11,1.11,0,0,0,.35-.1v-1.24h-1.26v-1.14h2.69Z"/><circle class="cls-1" cx="134.19" cy="53.83" r="12.53"/><path class="cls-2" d="M152.86,27.14a3.43,3.43,0,0,0-3,1.2,3.43,3.43,0,0,0-3-1.2c-2.4,0-3,2.67-3,3.1v1.21c0,1.17,5.92,6.93,5.92,6.93s5.92-5.76,5.92-6.93V30.24C155.82,29.81,155.26,27.14,152.86,27.14Z"/><path class="cls-1" d="M172.53,43.26a12.43,12.43,0,0,0-13.37,0h0c-8.67,3.86-7.86,15.93-4.51,22.77l3.06-2.6a12.52,12.52,0,0,0,16.19,0l3,2.58C180.27,59.16,181.09,47.17,172.53,43.26Z"/><path class="cls-3" d="M151.49,49.05a13,13,0,0,1,4.71-6.3V38.44h9.51c3.75,0,3.75-12.59,0-12.59H156.2V16.34c0-3.75-12.59-3.75-12.59,0v9.51h-9.69c-3.51,0-3.51,12.59,0,12.59h9.69v4.5a14.38,14.38,0,0,1,4.63,7.73,15.78,15.78,0,0,0,2.75,0A15.34,15.34,0,0,1,151.49,49.05ZM144,31.45V30.24c0-.43.56-3.1,3-3.1a3.43,3.43,0,0,1,3,1.2,3.43,3.43,0,0,1,3-1.2c2.4,0,3,2.67,3,3.1v1.21c0,1.17-5.92,6.93-5.92,6.93S144,32.62,144,31.45Z"/><path class="cls-1" d="M177.87,71.05a10.9,10.9,0,0,0-5.2-2.46c-2.33,0-4.41.27-6.86.27s-4.73-.27-6.85-.27a11,11,0,0,0-5.21,2.46,23.68,23.68,0,0,0-3.75,4.3,23.68,23.68,0,0,0-3.75-4.3A11,11,0,0,0,141,68.59a16.22,16.22,0,0,1-13.71,0,10.9,10.9,0,0,0-5.2,2.46c-8.32,7.34-10.53,21.71-10.07,24.24a3.43,3.43,0,0,0,3.37,2.82,4.21,4.21,0,0,0,.62,0,3.44,3.44,0,0,0,2.8-3.84,34.57,34.57,0,0,1,4.58-14v30c0,4.76,2.82,8.62,7.58,8.62h12.88V104a20.3,20.3,0,0,0-2.66,8.16,2,2,0,0,1-1.62,2.22,2.2,2.2,0,0,1-.36,0,2,2,0,0,1-2-1.64c-.26-1.47,1-9.81,5.85-14.07a6.34,6.34,0,0,1,3-1.43,9.42,9.42,0,0,0,8,0,6.34,6.34,0,0,1,3,1.43c4.83,4.26,6.11,12.6,5.85,14.07a2,2,0,0,1-2,1.64,2.2,2.2,0,0,1-.36,0,2,2,0,0,1-1.62-2.22,20.3,20.3,0,0,0-2.66-8.16V118.8H169c4.76,0,7.58-3.86,7.58-8.62v-3.61l3.59-.06a98.94,98.94,0,0,0-3.59-26.34,34.57,34.57,0,0,1,4.58,14,3.44,3.44,0,0,0,2.8,3.84,4.21,4.21,0,0,0,.62,0,3.43,3.43,0,0,0,3.37-2.82C188.4,92.76,186.19,78.39,177.87,71.05Zm-28,25.14a7.64,7.64,0,1,1,7.65-7.64A7.64,7.64,0,0,1,149.9,96.19Z"/></svg>