<svg id="Layer_1" data-name="Layer 1" xmlns="http://www.w3.org/2000/svg" viewBox="0 0 300 180"><defs><style>.cls-1{fill:#4b4b4b;}.cls-2{fill:#c4c6c7;}.cls-3{fill:gray;}</style></defs><path class="cls-1" d="M71.33,149.34v-8.4h2.32A4.8,4.8,0,0,1,77,142,4,4,0,0,1,78.1,145a4.15,4.15,0,0,1-1.24,3.13,4.55,4.55,0,0,1-3.3,1.18Zm1-7.51v6.62h1.25a3.55,3.55,0,0,0,2.57-.88,3.3,3.3,0,0,0,.92-2.51,3.15,3.15,0,0,0-.85-2.42,3.65,3.65,0,0,0-2.58-.81Z"/><path class="cls-1" d="M80.73,149.34h-1v-8.4h1Z"/><path class="cls-1" d="M89.71,149.34h-1.2l-4.33-6.7-.15-.26-.12-.26h0a3.35,3.35,0,0,1,0,.42c0,.19,0,.43,0,.73v6.07h-1v-8.4h1.28l4.21,6.59.22.35.12.21h0a2.91,2.91,0,0,1,0-.49c0-.21,0-.45,0-.74v-5.92h1Z"/><path class="cls-1" d="M91,149.34l3.22-8.4h1l3.23,8.4H97.33l-.85-2.25H92.84l-.8,2.25Zm2.22-3.13h3l-1.36-3.69a1.84,1.84,0,0,1-.06-.23c0-.09,0-.2-.07-.33h0c0,.12,0,.22-.06.31a1.23,1.23,0,0,1-.08.25Z"/><path class="cls-1" d="M98.93,148.7l.48-.74a4.13,4.13,0,0,0,1,.48,4,4,0,0,0,1.2.16,2.1,2.1,0,0,0,1.27-.36,1.21,1.21,0,0,0,.49-1.05,1.25,1.25,0,0,0-.42-1,4.26,4.26,0,0,0-1.37-.71,5.27,5.27,0,0,1-1.76-1,1.85,1.85,0,0,1-.57-1.41,2.1,2.1,0,0,1,.74-1.67,2.88,2.88,0,0,1,2-.64,5,5,0,0,1,1.1.12,5.55,5.55,0,0,1,1.12.39l-.37.79a4,4,0,0,0-.94-.32,4.34,4.34,0,0,0-1-.1,1.87,1.87,0,0,0-1.19.35,1.18,1.18,0,0,0-.44,1,1.07,1.07,0,0,0,.4.88,4.91,4.91,0,0,0,1.35.67,4.82,4.82,0,0,1,1.82,1,2.1,2.1,0,0,1,.55,1.52,2.23,2.23,0,0,1-.74,1.7,3,3,0,0,1-2.08.68,4.65,4.65,0,0,1-1.38-.19A4.77,4.77,0,0,1,98.93,148.7Z"/><path class="cls-1" d="M114.18,149.34h-5v-8.4h1.89v6.87h3.11Z"/><path class="cls-1" d="M117.21,149.34h-1.9v-8.4h1.9Z"/><path class="cls-1" d="M126.68,149.34h-1.91l-3.47-5.28-.26-.41a3.08,3.08,0,0,1-.16-.29h0q0,.22,0,.57c0,.22,0,.49,0,.79v4.62h-1.78v-8.4h2l3.33,5.11.22.35.2.34h0a3.33,3.33,0,0,1,0-.44c0-.19,0-.43,0-.71v-4.65h1.79Z"/><path class="cls-1" d="M135.49,148.71a5.18,5.18,0,0,1-1.35.57,6.49,6.49,0,0,1-1.7.21,4.62,4.62,0,0,1-3.18-1.05,4,4,0,0,1-1.19-3.17,4.47,4.47,0,0,1,1.2-3.19,4.36,4.36,0,0,1,3.34-1.28,7.52,7.52,0,0,1,1.47.13,7.3,7.3,0,0,1,1.41.43l-.59,1.47a5.91,5.91,0,0,0-1.12-.34,6.12,6.12,0,0,0-1.17-.11,2.49,2.49,0,0,0-1.86.71,2.89,2.89,0,0,0-.69,2.1,2.7,2.7,0,0,0,.69,2.05,2.42,2.42,0,0,0,1.77.66,3.67,3.67,0,0,0,.61-.05,1.88,1.88,0,0,0,.47-.13v-1.65h-1.68v-1.52h3.57Z"/><path class="cls-1" d="M144.08,149.34h-2.36l-2.45-3.58-.09-.17c0-.08-.08-.17-.13-.29h0v4h-1.89v-8.4H139v3.9h0c0-.06.06-.13.09-.2l.15-.27,2.32-3.43h2.19l-2.89,4Z"/><path class="cls-1" d="M151.77,145.7a4,4,0,0,1-.89,2.84,3.43,3.43,0,0,1-2.64,1,3.33,3.33,0,0,1-2.57-.93,4,4,0,0,1-.85-2.79v-4.83h1.89v4.87a2.5,2.5,0,0,0,.4,1.53,1.44,1.44,0,0,0,1.2.51,1.4,1.4,0,0,0,1.17-.49,2.36,2.36,0,0,0,.39-1.48v-4.94h1.9Z"/><path class="cls-1" d="M161.15,149.34h-1.91l-3.46-5.28-.26-.41a3.08,3.08,0,0,1-.16-.29h0c0,.15,0,.34,0,.57s0,.49,0,.79v4.62h-1.79v-8.4h2l3.34,5.11.22.35.2.34h0a3.76,3.76,0,0,1,0-.44c0-.19,0-.43,0-.71v-4.65h1.78Z"/><path class="cls-1" d="M170,148.71a5.11,5.11,0,0,1-1.36.57,6.43,6.43,0,0,1-1.7.21,4.62,4.62,0,0,1-3.18-1.05,4,4,0,0,1-1.18-3.17,4.47,4.47,0,0,1,1.2-3.19,4.34,4.34,0,0,1,3.34-1.28,7.52,7.52,0,0,1,1.47.13,7.75,7.75,0,0,1,1.41.43l-.59,1.47a5.94,5.94,0,0,0-2.29-.45,2.49,2.49,0,0,0-1.87.71,2.93,2.93,0,0,0-.68,2.1,2.74,2.74,0,0,0,.68,2.05,2.46,2.46,0,0,0,1.78.66,3.67,3.67,0,0,0,.61-.05,1.88,1.88,0,0,0,.47-.13v-1.65H166.4v-1.52H170Z"/><path class="cls-1" d="M170.7,149.34l3.06-8.4H176l3,8.4h-2.06l-.57-1.75h-3l-.57,1.75Zm3-3.23h2.19l-.92-2.92a3,3,0,0,1-.09-.29,2.16,2.16,0,0,1,0-.32h-.05q0,.18-.06.3a1.9,1.9,0,0,1-.09.29Z"/><path class="cls-1" d="M187.6,149.34h-1.91l-3.46-5.28-.26-.41a3.08,3.08,0,0,1-.16-.29h0c0,.15,0,.34,0,.57s0,.49,0,.79v4.62H180v-8.4h2l3.34,5.11.22.35.2.34h0a3.76,3.76,0,0,1,0-.44c0-.19,0-.43,0-.71v-4.65h1.79Z"/><path class="cls-1" d="M200.11,149.34h-1.9v-3.42h-3.48v3.42h-1.9v-8.4h1.9v3.35h3.48v-3.35h1.9Z"/><path class="cls-1" d="M203.92,149.34H202v-8.4h1.89Z"/><path class="cls-1" d="M205.83,149.34v-8.4h3a4.81,4.81,0,0,1,3.35,1,4,4,0,0,1,1.12,3.07,4.13,4.13,0,0,1-1.22,3.14,4.5,4.5,0,0,1-3.25,1.17Zm1.89-6.86v5.33h.94a2.55,2.55,0,0,0,1.93-.74,2.78,2.78,0,0,0,.7-2,2.55,2.55,0,0,0-.69-1.89,2.67,2.67,0,0,0-1.95-.69Z"/><path class="cls-1" d="M221.53,145.7a4.07,4.07,0,0,1-.88,2.84,3.46,3.46,0,0,1-2.65,1,3.33,3.33,0,0,1-2.57-.93,4,4,0,0,1-.85-2.79v-4.83h1.9v4.87a2.5,2.5,0,0,0,.39,1.53,1.44,1.44,0,0,0,1.2.51,1.42,1.42,0,0,0,1.18-.49,2.42,2.42,0,0,0,.38-1.48v-4.94h1.9Z"/><path class="cls-1" d="M225.25,146.59v2.75h-1.89v-8.4h3a3.59,3.59,0,0,1,2.38.68,2.6,2.6,0,0,1,.8,2.07,2.68,2.68,0,0,1-.92,2.1,3.54,3.54,0,0,1-2.43.8Zm0-4.2v2.76H226a1.61,1.61,0,0,0,1.14-.35,1.35,1.35,0,0,0,.37-1,1.32,1.32,0,0,0-.37-1,1.7,1.7,0,0,0-1.14-.34Z"/><path class="cls-1" d="M104.25,162.65h-1.78L100.62,160l-.07-.13-.1-.22h0v3H99v-6.33h1.43v2.94h0l.07-.15.11-.2,1.75-2.59H104l-2.17,3Z"/><path class="cls-1" d="M107.29,162.77a3,3,0,0,1-2.22-.89,3.19,3.19,0,0,1-.86-2.31,3.41,3.41,0,0,1,.87-2.43,3,3,0,0,1,2.31-.92,2.88,2.88,0,0,1,2.19.88,3.29,3.29,0,0,1,.84,2.34,3.35,3.35,0,0,1-.87,2.41A3,3,0,0,1,107.29,162.77Zm0-1.24a1.39,1.39,0,0,0,1.17-.53,2.27,2.27,0,0,0,.44-1.48,2.48,2.48,0,0,0-.42-1.53,1.38,1.38,0,0,0-1.15-.55,1.42,1.42,0,0,0-1.19.57,2.74,2.74,0,0,0,0,3A1.41,1.41,0,0,0,107.31,161.53Z"/><path class="cls-1" d="M115.55,157.48h-1.81v5.17h-1.43v-5.17h-1.79v-1.16h5Z"/><path class="cls-1" d="M115.09,162.65l2.31-6.33h1.69l2.25,6.33h-1.55l-.43-1.32h-2.3l-.42,1.32Zm2.28-2.43H119l-.7-2.2c0-.09,0-.16-.06-.22a1.19,1.19,0,0,1,0-.24h0a1.32,1.32,0,0,1,0,.23,1,1,0,0,1-.06.21Z"/><path class="cls-1" d="M129.07,157.48h-1.8v5.17h-1.44v-5.17H124v-1.16h5Z"/><path class="cls-1" d="M128.62,162.65l2.3-6.33h1.69l2.26,6.33h-1.56l-.43-1.32h-2.29l-.43,1.32Zm2.28-2.43h1.65l-.7-2.2a2.18,2.18,0,0,0-.06-.22,1.19,1.19,0,0,1,0-.24h0c0,.09,0,.16,0,.23s0,.14-.07.21Z"/><path class="cls-1" d="M141.35,162.65h-1.44l-2.61-4-.19-.31a1.72,1.72,0,0,1-.12-.22h0c0,.11,0,.25,0,.42s0,.38,0,.61v3.47h-1.34v-6.33h1.53l2.52,3.86.16.26a1.65,1.65,0,0,1,.15.25h0q0-.1,0-.33v-4h1.34Z"/><path class="cls-1" d="M145.45,160.58a2.15,2.15,0,0,1-.57,1.63,2.22,2.22,0,0,1-1.62.55,3,3,0,0,1-.59-.06,3.18,3.18,0,0,1-.62-.2l.44-1.08a1.59,1.59,0,0,0,.32.12,1,1,0,0,0,.32.05.81.81,0,0,0,.65-.24,1.13,1.13,0,0,0,.21-.77l0-4.26h1.42Z"/><path class="cls-1" d="M152,159.91a3,3,0,0,1-.66,2.14,2.6,2.6,0,0,1-2,.72,2.52,2.52,0,0,1-1.93-.7,3,3,0,0,1-.65-2.1v-3.65h1.43V160a1.86,1.86,0,0,0,.3,1.15,1.09,1.09,0,0,0,.9.38,1.06,1.06,0,0,0,.89-.37,1.75,1.75,0,0,0,.29-1.11v-3.73H152Z"/><path class="cls-1" d="M159.06,162.65h-1.44l-2.61-4-.19-.31-.12-.22h0q0,.16,0,.42v4.08h-1.34v-6.33h1.53l2.52,3.86.16.26c.06.08.11.17.16.25h0a2.38,2.38,0,0,1,0-.33c0-.14,0-.32,0-.54v-3.5h1.34Z"/><path class="cls-1" d="M165.71,162.18a4,4,0,0,1-1,.43,5.15,5.15,0,0,1-1.28.16,3.48,3.48,0,0,1-2.4-.8,3,3,0,0,1-.89-2.38,3.38,3.38,0,0,1,.9-2.41,3.32,3.32,0,0,1,2.52-1,5.59,5.59,0,0,1,1.11.1,5.28,5.28,0,0,1,1.06.32l-.45,1.1a5,5,0,0,0-.84-.25,4.88,4.88,0,0,0-.88-.08,1.91,1.91,0,0,0-1.41.53,2.21,2.21,0,0,0-.51,1.58,2.07,2.07,0,0,0,.51,1.55,1.85,1.85,0,0,0,1.34.5,2.13,2.13,0,0,0,.46,0,1.11,1.11,0,0,0,.35-.1v-1.24H163v-1.14h2.69Z"/><path class="cls-1" d="M168.37,160.58v2.07h-1.43v-6.33h2.24a2.64,2.64,0,0,1,1.79.52,1.93,1.93,0,0,1,.6,1.55,2,2,0,0,1-.69,1.59,2.67,2.67,0,0,1-1.83.6Zm0-3.16v2.08h.56a1.19,1.19,0,0,0,.85-.27,1.19,1.19,0,0,0,0-1.56,1.23,1.23,0,0,0-.85-.25Z"/><path class="cls-1" d="M173.92,162.65H172.5v-6.33h1.42Z"/><path class="cls-1" d="M181.06,162.65h-1.44l-2.61-4c-.08-.12-.14-.22-.19-.31a2,2,0,0,1-.13-.22h0c0,.11,0,.25,0,.42s0,.38,0,.61v3.47h-1.35v-6.33h1.54l2.51,3.86c.06.08.11.17.17.26l.15.25h0q0-.1,0-.33c0-.14,0-.32,0-.54v-3.5h1.35Z"/><path class="cls-1" d="M181.83,162.65l2.3-6.33h1.7l2.25,6.33h-1.56l-.43-1.32H183.8l-.43,1.32Zm2.28-2.43h1.65l-.69-2.2-.07-.22c0-.06,0-.14,0-.24h0c0,.09,0,.16,0,.23s0,.14-.07.21Z"/><path class="cls-1" d="M194.56,162.65h-1.44l-2.61-4-.19-.31-.12-.22h0q0,.16,0,.42v4.08h-1.34v-6.33h1.53l2.52,3.86.16.26c.06.08.11.17.16.25h0a2.38,2.38,0,0,1,0-.33c0-.14,0-.32,0-.54v-3.5h1.34Z"/><path class="cls-1" d="M201.21,162.18a4,4,0,0,1-1,.43,5.15,5.15,0,0,1-1.28.16,3.48,3.48,0,0,1-2.4-.8,3,3,0,0,1-.89-2.38,3.38,3.38,0,0,1,.9-2.41,3.32,3.32,0,0,1,2.52-1,5.59,5.59,0,0,1,1.11.1,5.28,5.28,0,0,1,1.06.32l-.45,1.1a5,5,0,0,0-.84-.25,4.88,4.88,0,0,0-.88-.08,1.91,1.91,0,0,0-1.41.53,2.21,2.21,0,0,0-.51,1.58,2.07,2.07,0,0,0,.51,1.55,1.85,1.85,0,0,0,1.34.5,2.13,2.13,0,0,0,.46,0,1.11,1.11,0,0,0,.35-.1v-1.24h-1.26v-1.14h2.69Z"/><path class="cls-2" d="M117.91,90.42a2.89,2.89,0,1,0,2.43,2.85A2.66,2.66,0,0,0,117.91,90.42Zm0,4.86c-.18,0-.33-.23-.33-.51s.15-.52.33-.52.33.23.33.52S118.09,95.28,117.91,95.28Z"/><path class="cls-2" d="M108.89,88.22a2.89,2.89,0,1,0,2.85-2.43A2.67,2.67,0,0,0,108.89,88.22Zm4.87,0c0,.19-.23.33-.52.33s-.51-.14-.51-.33.23-.33.51-.33S113.76,88,113.76,88.22Z"/><path class="cls-2" d="M114.5,76a2.89,2.89,0,1,0-2.43-2.85A2.67,2.67,0,0,0,114.5,76Zm0-4.87c.18,0,.33.23.33.52s-.15.51-.33.51-.33-.23-.33-.51S114.32,71.09,114.5,71.09Z"/><path class="cls-2" d="M118,40.29a2.89,2.89,0,1,0,2.43,2.85A2.66,2.66,0,0,0,118,40.29Zm0,4.86c-.18,0-.33-.23-.33-.51s.15-.51.33-.51.33.23.33.51S118.21,45.15,118,45.15Z"/><path class="cls-2" d="M142.12,53.12a2.89,2.89,0,1,0,.4,3.73A2.67,2.67,0,0,0,142.12,53.12Zm-2.75,4c-.15-.11-.14-.38,0-.61s.41-.34.56-.24.14.37,0,.61S139.52,57.24,139.37,57.14Z"/><path class="cls-2" d="M146.57,31.66a2.89,2.89,0,0,0,3.17,4.74,2.89,2.89,0,0,0-3.17-4.74Zm2.71,4c-.16.1-.41,0-.56-.24s-.17-.51,0-.61.41,0,.56.24S149.43,35.6,149.28,35.7Z"/><path class="cls-2" d="M159.25,27.45a2.67,2.67,0,0,0-3.45,1.46,2.47,2.47,0,1,0,4.36,2.17A2.66,2.66,0,0,0,159.25,27.45Zm-2.17,4.35c-.16-.08-.19-.35-.06-.61s.36-.39.52-.31.19.35.07.61S157.25,31.88,157.08,31.8Z"/><path class="cls-2" d="M179.32,45.53a2.89,2.89,0,0,0,1.43,5.52,2.89,2.89,0,0,0-1.43-5.52Zm1.22,4.71c-.18,0-.38-.14-.45-.41s0-.54.19-.58.38.14.45.41S180.71,50.2,180.54,50.24Z"/><path class="cls-2" d="M163,55.19a2.89,2.89,0,1,0,3.07,2.16A2.67,2.67,0,0,0,163,55.19Zm1.22,4.72c-.18,0-.38-.15-.45-.42s0-.53.19-.58.38.14.45.42S164.43,59.86,164.26,59.91Z"/><path class="cls-2" d="M197.28,63.69a2.89,2.89,0,1,0-3.16,2A2.67,2.67,0,0,0,197.28,63.69ZM192.46,63c0-.18.27-.29.55-.26s.49.22.47.4-.28.3-.56.26S192.43,63.2,192.46,63Z"/><path class="cls-2" d="M171.38,63.65a2.89,2.89,0,1,0-.54,3.71A2.68,2.68,0,0,0,171.38,63.65Zm-3.66,3.21c-.12-.14,0-.4.17-.59s.49-.22.6-.09,0,.4-.16.59S167.84,67,167.72,66.86Z"/><path class="cls-2" d="M173.23,73.64a2.89,2.89,0,1,0,3.67.76A2.67,2.67,0,0,0,173.23,73.64Zm3,3.84c-.14.12-.4,0-.57-.2s-.2-.5-.06-.61.4,0,.58.21S176.36,77.37,176.21,77.48Z"/><path class="cls-2" d="M160.82,81.84a2.88,2.88,0,1,0-.7,3.68A2.66,2.66,0,0,0,160.82,81.84Zm-3.8,3c-.11-.14,0-.4.2-.58s.49-.2.61-.06,0,.4-.2.58S157.14,85,157,84.88Z"/><path class="cls-2" d="M184.78,87.9a2.88,2.88,0,1,0-.7,3.68A2.65,2.65,0,0,0,184.78,87.9Zm-3.8,3c-.11-.15,0-.4.2-.58s.49-.21.61-.07,0,.4-.2.58S181.1,91.08,181,90.94Z"/><path class="cls-2" d="M183.42,101.55a2.89,2.89,0,1,0-3.12-2.07A2.68,2.68,0,0,0,183.42,101.55Zm-1.34-4.68c.18-.05.38.13.46.4s0,.54-.18.59-.37-.13-.45-.41S181.91,96.92,182.08,96.87Z"/><path class="cls-2" d="M109.67,46.2a2.88,2.88,0,1,0,2.85-2.44A2.67,2.67,0,0,0,109.67,46.2Zm4.87,0c0,.18-.23.32-.52.32s-.51-.14-.51-.32.23-.33.51-.33S114.54,46,114.54,46.2Z"/><path class="cls-3" d="M129.4,58c6.47,2.48,8.88,6.43,9.32,10.2C133.07,65.65,130.2,62.16,129.4,58Z"/><path class="cls-3" d="M131.53,64.89c5,4.82,5.64,9.4,4.56,13C131.89,73.41,130.61,69.08,131.53,64.89Z"/><path class="cls-3" d="M129.12,60.08c1.9,6.66.18,11-2.58,13.57C125.17,67.63,126.23,63.24,129.12,60.08Z"/><path class="cls-3" d="M149.17,48.29c.24,6.92-2.46,10.68-5.77,12.55C143.51,54.66,145.61,50.66,149.17,48.29Z"/><path class="cls-3" d="M125.86,90.88c5.47.68,8,4,8.47,7.81C128.9,97.09,126.64,95.55,125.86,90.88Z"/><path class="cls-3" d="M97.79,64.65c5.46-.74,10.85,1,12.24,4.56C107.25,70.11,99.75,69,97.79,64.65Z"/><path class="cls-3" d="M96.19,75.81c3.14-4.72,9.77-5.22,13.33-3.9C105.63,76,100.7,77.24,96.19,75.81Z"/><path class="cls-3" d="M110.18,66.79c2.21-5.05,7.91-7.64,11.65-7C118.75,64.55,114.88,67.37,110.18,66.79Z"/><path class="cls-3" d="M106.35,59.06c3.87-3.92,9.57-4.27,12.84-2.31C115.09,60.09,110.53,61.29,106.35,59.06Z"/><path class="cls-3" d="M105.49,51.17c4.94-2.45,11.49-.42,13.4,2.39C114.41,55.47,108.71,54.63,105.49,51.17Z"/><path class="cls-3" d="M119.2,73.8c2.78,5,.91,11-1.94,13.57C115.48,82.76,115.81,77.11,119.2,73.8Z"/><path class="cls-3" d="M117.26,47.2c5.46,1.65,8.34,7.31,8,11.1C120.81,56.23,117.12,51.93,117.26,47.2Z"/><path class="cls-3" d="M122.73,38.14c4.2,3.85,4.51,10.59,2.59,13.87C122.18,48.19,120.55,42.34,122.73,38.14Z"/><path class="cls-3" d="M132.61,44.38c1.39,5.53-2,10.92-5.4,12.61C126.69,52.07,128.48,46.7,132.61,44.38Z"/><path class="cls-3" d="M125.47,30.94c5.67-.56,10.5,3.58,11.67,7.2C132.2,37.94,127.15,35.37,125.47,30.94Z"/><path class="cls-3" d="M137.49,33c5.69.16,10.28,5.11,11,8.85C143.6,41,138.59,37.57,137.49,33Z"/><path class="cls-3" d="M137.18,21.38c5.17,2.39,7.44,8.75,6.61,12.46C139.64,31.17,136.38,26.05,137.18,21.38Z"/><path class="cls-3" d="M154,31.82c3.48,4.51,2.56,11.2.11,14.11C151.66,41.64,151.14,35.6,154,31.82Z"/><path class="cls-3" d="M165.5,29.66c.45,5.68-4.42,11.28-8.06,12.38C157.73,37.11,161,31.26,165.5,29.66Z"/><path class="cls-3" d="M178.29,31.7c-3.18,4.72-9.31,5.69-12.76,4.72C168.83,32.74,173.81,30.17,178.29,31.7Z"/><path class="cls-3" d="M172.6,39.27C169.42,44,163.29,45,159.84,44,163.14,40.31,168.12,37.74,172.6,39.27Z"/><path class="cls-3" d="M171.91,57.64c-6.06-.84-9.37-6.08-9.47-9.78C167.14,49.4,171.5,52.92,171.91,57.64Z"/><path class="cls-3" d="M153.74,62.76C153.49,57,157.62,52,160.4,50.69,160.56,55.13,158.23,61.26,153.74,62.76Z"/><path class="cls-3" d="M153.1,65.82c4.18-4,10.65-4.18,13.47-3C163.34,65.91,157.2,68.2,153.1,65.82Z"/><path class="cls-3" d="M177.11,63.87c4.48-3.65,10.94-3.31,13.66-1.88C187.3,64.78,181,66.57,177.11,63.87Z"/><path class="cls-3" d="M185.34,59c1.07-5.62,7.41-8.91,10.47-8.7C194.25,56.46,189.7,59,185.34,59Z"/><path class="cls-3" d="M177.75,60.78c.93-5.91,5-10.24,9.54-10.53C186.74,54.6,182.11,60.78,177.75,60.78Z"/><path class="cls-3" d="M166.56,100.06c.77-6.52,4.39-8.46,9.19-8.46A8.93,8.93,0,0,1,166.56,100.06Z"/><path class="cls-3" d="M177,108.78c-4.06-5.16-2.67-10.5.73-13.89C181.37,98.93,180.6,105.22,177,108.78Z"/><path class="cls-3" d="M201.84,100.46c-5.18-.4-10.1-3.34-11.19-8A9.77,9.77,0,0,1,201.84,100.46Z"/><path class="cls-3" d="M194.89,102.39c-5.51,0-9.2-4.53-10.28-9.21C189.75,93.06,194.23,99.39,194.89,102.39Z"/><path class="cls-3" d="M199.87,88.2c-3.54,4.23-9.83,3.87-13.67,1.19C189.41,85.36,197.14,86.78,199.87,88.2Z"/><path class="cls-3" d="M179.38,85.17c-5.31,1.5-10.75-.92-12.4-5.31C173.68,77.53,177.93,82.46,179.38,85.17Z"/><path class="cls-3" d="M180.38,82.78c-3.53-4.23-3.42-10.18-.09-13.47C185.15,74.48,182.26,80.36,180.38,82.78Z"/><path class="cls-3" d="M183.51,86.06c2.09-5.09,7.4-7.78,11.87-6.37C193.08,86.4,186.54,86.59,183.51,86.06Z"/><path class="cls-3" d="M191.61,72.21c5.69-.9,11.22,1,12.2,5.06C199.09,78.84,193.22,74.83,191.61,72.21Z"/><path class="cls-3" d="M184.29,66.6c5.4-2,11.19-1.23,13,2.58C192.92,71.64,186.37,68.86,184.29,66.6Z"/><path class="cls-3" d="M182.11,68.83c5.62,1.29,10.95,5.4,10.35,9.55C186.83,78.6,182,72.4,182.11,68.83Z"/><path class="cls-3" d="M176.51,62a11.48,11.48,0,0,1-2.41-14C177.41,50.88,178.93,58.4,176.51,62Z"/><path class="cls-3" d="M148,81.1a9.59,9.59,0,0,1,9.64-7.91C157.59,77,152.75,81.53,148,81.1Z"/><path class="cls-3" d="M147.09,83.34c5.84-1.69,7.92.66,9.5,3.73A6.7,6.7,0,0,1,147.09,83.34Z"/><path class="cls-3" d="M142.74,41.28c-4.61,3.34-10.84,3-13.67.47C133.12,39.26,139.06,38.3,142.74,41.28Z"/><path class="cls-3" d="M181.28,39.08c-1.6,4.64-7.37,8.63-11,7.56C172.11,42.33,176.68,38,181.28,39.08Z"/><path class="cls-3" d="M146.78,45.83a10.74,10.74,0,0,1-12.55,5.53C136.93,46.71,141.92,44.05,146.78,45.83Z"/><path class="cls-3" d="M108.07,74.88c5.69,1.89,7.41,6.55,6.63,11.23C110.18,83.59,107.49,79.58,108.07,74.88Z"/><path class="cls-3" d="M97.78,81.63c5.71-2.93,10.6-.69,13.65,3.49C106.1,86.67,101,85.67,97.78,81.63Z"/><path class="cls-3" d="M96.29,96.07c1.49-6.46,6.39-8.53,11.52-7.85C106.29,92.77,102.63,96.8,96.29,96.07Z"/><path class="cls-3" d="M126.81,80.64c-.67,5.47-3,6.78-6.74,7.23C120.83,83.15,122.14,81.44,126.81,80.64Z"/><path class="cls-3" d="M134.29,85.3c2.82,2.29,3.75,6.71,1.26,9.59C132.75,92.28,131.86,88.83,134.29,85.3Z"/><path class="cls-3" d="M114.58,91.67c-3.06,6.49-7.42,8.16-11.38,7.83C106.1,93.29,110,91,114.58,91.67Z"/><path class="cls-3" d="M121.85,92.51c5.25,4.79,5.15,10.37,3.36,14.57C120.67,101.71,119.87,96.9,121.85,92.51Z"/><path class="cls-3" d="M116.21,95.55c-.26,7.11-4.58,10.64-8.94,12C108.43,100.6,111.58,96.88,116.21,95.55Z"/><path class="cls-1" d="M177.51,89.33c1.87-.58,5.64-2.11,5.05-8.31-1,6.39-6,6.61-8,6.44-3-1.51-6.24-2.12-8-1.55.25-7.69-3.74-7.73-6-8.06s-6.33,2.38-6,4.56c5.59-5,9.17-1.57,8.72.5a10,10,0,0,1-8.76,7.81c-6.31.9-9.29-7.24-9.05-9.17C147,70.11,155.34,70.41,160.73,73s10.48,2.3,13-1.24,5.22-4,8.84-4.11c-1.28-.86-5.47-1.23-8.64,1,2.39-9.83-5.22-8.51-5.22-8.51,8.39,2.71,2.18,12.46-1.27,12-3.11-.37-6.79-3.38-11.23-4.32-9.2-2-12.78,7.73-12.78,7.73-.46-6.54,2.05-7.57,4-9.63,6.72-7,6.57-13.27,6.57-13.27,4-6.83,8.14-6.21,13.16-4.4-7.85-6.21-13.77.45-13.77.45-1.56-5.92-6.91-7.61-11.93-4.44a7.26,7.26,0,0,1,9.42,3.91c2.23,6.89-3.14,13-3.14,13-.49.55-1,1.1-1.56,1.65-7.78-1.3-7.78-3.48-10.64-8.56.78,9.92,6.26,10.77,8.55,10.68a26.49,26.49,0,0,0-4.74,5.82c-2.8,5.44-.05,9.38-.05,9.38s-6.41-.11-9.54-2.58C116.11,66.8,128,58.73,128,58.73c-3.88,1.6-7.32,5.92-7.62,9.78-1.37-.93-5.83-3.32-9.82,1.75,3.91-1.57,7.67-2.11,10.69,2.15h0c3,6.84,7.95,8.76,8.43,8.93-.61,2.2-3.71,10.58-14.68,5.74,5.22,5.71,13.42,3.42,18.3-3.88l.26.13a20.58,20.58,0,0,1,9.37,8.8c1.07,1.93,1.24,6.37.91,8.59s-1.11,4.4-.74,5.55c1.16,3.63,0,9.13,0,9.13a27.41,27.41,0,0,0-2.06,8.3,4.26,4.26,0,0,0-3.51,2.25c2.46-.8,3.43-.69,4.83,0,3.29.54,4.36,3.66,4.89,5.47,1.56-1.44,1.32-2.63,1.11-4.23a10.21,10.21,0,0,1,5.84,3.16c.58.41.9.29,1.52,0s1.65-1.77,2.67-2.75a12.76,12.76,0,0,1,6.91,1.76c-1.19-3-4.69-5-6.13-5.67-.24-1.89-2.22-7.07-2.79-8.43a22.92,22.92,0,0,0,0-5c-.08-.79-.7-3-1.56-6.83s4.64-11.06,9.33-13.4c10-5,17,4.72,17,4.72A9.84,9.84,0,0,0,177.51,89.33Z"/></svg>