<svg id="Layer_1" data-name="Layer 1" xmlns="http://www.w3.org/2000/svg" viewBox="0 0 180 180"><defs><style>.cls-1{fill:#e69e1c;}.cls-2{fill:#2c2c64;}.cls-3{fill:#282528;}</style></defs><path class="cls-1" d="M37.49,113c-2.2,0-4,2.09-4,4.66s1.78,4.67,4,4.67,4-2.09,4-4.67S39.68,113,37.49,113Zm0,8c-.3,0-.54-.38-.54-.84s.24-.84.54-.84.53.37.53.84S37.78,120.93,37.49,120.93Z"/><path class="cls-1" d="M22.73,109.38c0,2.2,2.09,4,4.66,4s4.67-1.78,4.67-4-2.09-4-4.67-4S22.73,107.18,22.73,109.38Zm8,0c0,.3-.37.54-.84.54s-.84-.24-.84-.54.38-.54.84-.54S30.69,109.08,30.69,109.38Z"/><path class="cls-1" d="M31.91,89.31c2.2,0,4-2.09,4-4.67S34.11,80,31.91,80s-4,2.09-4,4.66S29.72,89.31,31.91,89.31Zm0-8c.3,0,.54.37.54.84s-.24.84-.54.84-.53-.38-.53-.84S31.62,81.35,31.91,81.35Z"/><path class="cls-1" d="M37.69,30.94c-2.2,0-4,2.09-4,4.67s1.78,4.66,4,4.66,4-2.09,4-4.66S39.89,30.94,37.69,30.94Zm0,8c-.3,0-.54-.37-.54-.84s.24-.84.54-.84.54.38.54.84S38,38.9,37.69,38.9Z"/><path class="cls-1" d="M77.1,51.94c-1.81-1.24-4.46-.52-5.92,1.6s-1.16,4.86.65,6.1,4.47.52,5.92-1.6S78.92,53.18,77.1,51.94Zm-4.49,6.57c-.25-.17-.24-.61,0-1s.67-.55.92-.39.23.62,0,1S72.85,58.68,72.61,58.51Z"/><path class="cls-1" d="M84.39,16.82c-1.83,1.22-2.15,3.95-.72,6.09s4.08,2.88,5.91,1.66,2.14-3.95.71-6.09S86.21,15.59,84.39,16.82Zm4.42,6.61c-.24.17-.65,0-.91-.4s-.27-.83,0-1,.66,0,.91.4S89.06,23.27,88.81,23.43Z"/><path class="cls-1" d="M105.14,9.93c-2-1-4.49.09-5.64,2.4s-.49,5,1.48,6,4.49-.1,5.64-2.4S107.11,10.91,105.14,9.93Zm-3.55,7.12c-.27-.13-.31-.58-.11-1s.59-.65.86-.51.31.57.11,1S101.86,17.18,101.59,17.05Z"/><path class="cls-1" d="M138,39.52c-2.13.55-3.34,3-2.69,5.51s2.89,4.07,5,3.53,3.34-3,2.69-5.52S140.11,39,138,39.52Zm2,7.71c-.28.07-.61-.23-.73-.68s0-.87.31-.95.62.23.73.68S140.26,47.16,140,47.23Z"/><path class="cls-1" d="M111.34,55.33c-2.13.55-3.33,3-2.69,5.51s2.89,4.07,5,3.53,3.34-3,2.69-5.52S113.47,54.78,111.34,55.33Zm2,7.71c-.29.07-.61-.23-.73-.68s0-.87.31-1,.62.23.73.68S113.62,63,113.33,63Z"/><path class="cls-1" d="M167.36,69.24c.31-2.18-1.51-4.23-4.06-4.59s-4.87,1.12-5.18,3.3,1.52,4.23,4.07,4.59S167.06,71.42,167.36,69.24Zm-7.88-1.1c0-.3.45-.48.91-.42s.79.36.75.65-.44.48-.9.42S159.44,68.43,159.48,68.14Z"/><path class="cls-1" d="M125,69.17c-1.45-1.65-4.19-1.61-6.13.09s-2.33,4.41-.88,6.07,4.2,1.61,6.13-.09S126.43,70.82,125,69.17Zm-6,5.25c-.2-.22-.07-.65.28-1s.79-.37,1-.15.08.66-.27,1S119.2,74.65,119,74.42Z"/><path class="cls-1" d="M128,85.52c-1.73,1.34-1.86,4.09-.28,6.12s4.26,2.6,6,1.25,1.87-4.09.29-6.13S129.75,84.17,128,85.52Zm4.88,6.29c-.23.18-.65,0-.94-.34s-.32-.81-.09-1,.66,0,.94.33S133.13,91.63,132.89,91.81Z"/><path class="cls-1" d="M107.71,98.94c-1.37-1.72-4.11-1.81-6.13-.2s-2.53,4.31-1.16,6,4.12,1.81,6.13.2S109.09,100.66,107.71,98.94Zm-6.22,5c-.18-.23,0-.66.32-1s.81-.33,1-.1,0,.65-.32.94S101.68,104.14,101.49,103.91Z"/><path class="cls-1" d="M146.92,108.85c-1.37-1.72-4.12-1.81-6.13-.2s-2.53,4.31-1.16,6,4.12,1.81,6.13.2S148.29,110.57,146.92,108.85Zm-6.22,5c-.18-.23,0-.66.32-.95s.81-.33,1-.1,0,.65-.33.94S140.89,114.05,140.7,113.82Z"/><path class="cls-1" d="M144.69,131.18c2.12-.61,3.25-3.11,2.54-5.58s-3-4-5.11-3.39-3.25,3.11-2.54,5.58S142.58,131.79,144.69,131.18Zm-2.19-7.65c.28-.08.62.21.75.66s0,.87-.29,1-.62-.21-.75-.66S142.21,123.61,142.5,123.53Z"/><path class="cls-1" d="M24,40.61c0,2.19,2.09,4,4.66,4s4.67-1.79,4.67-4-2.09-4-4.67-4S24,38.41,24,40.61Zm8,0c0,.29-.38.53-.84.53s-.84-.24-.84-.53.37-.54.84-.54S32,40.31,32,40.61Z"/><path class="cls-2" d="M56.29,59.85c10.58,4,14.53,10.51,15.25,16.69C62.3,72.43,57.6,66.74,56.29,59.85Z"/><path class="cls-2" d="M59.77,71.2c8.15,7.88,9.24,15.37,7.47,21.34C60.36,85.14,58.28,78.05,59.77,71.2Z"/><path class="cls-2" d="M55.83,63.32c3.11,10.9.31,17.93-4.21,22.22C49.37,75.68,51.11,68.5,55.83,63.32Z"/><path class="cls-2" d="M88.65,44c.38,11.33-4,17.47-9.46,20.54C79.39,54.46,82.81,47.92,88.65,44Z"/><path class="cls-2" d="M50.5,113.73c9,1.12,13.14,6.6,13.86,12.78C55.48,123.89,51.78,121.37,50.5,113.73Z"/><path class="cls-2" d="M4.57,70.81c8.93-1.22,17.74,1.67,20,7.46C20,79.74,7.77,77.86,4.57,70.81Z"/><path class="cls-2" d="M1.94,89.07c5.14-7.72,16-8.55,21.83-6.38C17.39,89.41,9.33,91.4,1.94,89.07Z"/><path class="cls-2" d="M24.84,74.31C28.46,66,37.78,61.8,43.91,62.87,38.87,70.64,32.53,75.25,24.84,74.31Z"/><path class="cls-2" d="M18.58,61.66c6.33-6.42,15.66-7,21-3.79C32.87,63.34,25.41,65.3,18.58,61.66Z"/><path class="cls-2" d="M17.16,48.74c8.08-4,18.81-.67,21.93,3.92C31.76,55.79,22.44,54.41,17.16,48.74Z"/><path class="cls-2" d="M39.6,85.78c4.54,8.14,1.49,18.09-3.17,22.2C33.51,100.44,34.06,91.19,39.6,85.78Z"/><path class="cls-2" d="M36.43,42.25c8.92,2.69,13.65,12,13.15,18.17C42.24,57,36.2,50,36.43,42.25Z"/><path class="cls-2" d="M45.38,27.42c6.86,6.31,7.38,17.33,4.24,22.7C44.48,43.87,41.81,34.3,45.38,27.42Z"/><path class="cls-2" d="M61.54,37.64c2.27,9-3.25,17.86-8.83,20.62C51.85,50.22,54.78,41.43,61.54,37.64Z"/><path class="cls-2" d="M49.87,15.65C59.15,14.73,67.05,21.5,69,27.42,60.88,27.09,52.61,22.89,49.87,15.65Z"/><path class="cls-2" d="M69.52,19c9.32.26,16.83,8.37,18,14.49C79.53,32.1,71.34,26.49,69.52,19Z"/><path class="cls-2" d="M69,0c8.46,3.91,12.17,14.32,10.82,20.4C73,16,67.72,7.64,69,0Z"/><path class="cls-2" d="M96.54,17.09c5.7,7.37,4.19,18.32.18,23.09C92.71,33.16,91.86,23.26,96.54,17.09Z"/><path class="cls-2" d="M115.36,13.55c.75,9.29-7.23,18.45-13.19,20.26C102.65,25.73,108.07,16.17,115.36,13.55Z"/><path class="cls-2" d="M136.29,16.88c-5.21,7.74-15.24,9.32-20.88,7.73C120.81,18.59,129,14.39,136.29,16.88Z"/><path class="cls-2" d="M127,29.27C121.77,37,111.74,38.59,106.09,37,111.5,31,119.64,26.77,127,29.27Z"/><path class="cls-2" d="M125.85,59.33c-9.91-1.37-15.33-9.94-15.49-16C118,45.85,125.17,51.61,125.85,59.33Z"/><path class="cls-2" d="M96.11,67.71C95.71,58.26,102.47,50.1,107,48,107.28,55.22,103.46,65.25,96.11,67.71Z"/><path class="cls-2" d="M95.08,72.73c6.82-6.54,17.42-6.85,22-4.87C111.83,72.87,101.78,76.62,95.08,72.73Z"/><path class="cls-2" d="M134.36,69.52c7.33-6,17.91-5.42,22.35-3.06C151,71,140.72,73.94,134.36,69.52Z"/><path class="cls-2" d="M147.83,61.48C149.58,52.28,160,46.9,165,47.24,162.41,57.4,155,61.48,147.83,61.48Z"/><path class="cls-2" d="M135.4,64.47c1.53-9.68,8.21-16.76,15.61-17.23C150.12,54.35,142.54,64.47,135.4,64.47Z"/><path class="cls-2" d="M117.1,128.76c1.26-10.68,7.18-13.86,15-13.86C131.71,123.82,124.23,128.76,117.1,128.76Z"/><path class="cls-2" d="M134.14,143c-6.66-8.44-4.38-17.18,1.18-22.74C141.33,126.9,140.07,137.19,134.14,143Z"/><path class="cls-2" d="M174.83,129.41c-8.48-.65-16.53-5.46-18.31-13.12C165.31,114.69,173.35,121,174.83,129.41Z"/><path class="cls-2" d="M163.46,132.57c-9,0-15.05-7.41-16.83-15.07C155,117.3,162.38,127.66,163.46,132.57Z"/><path class="cls-2" d="M171.6,109.34c-5.78,6.92-16.08,6.34-22.36,1.94C154.48,104.69,167.14,107,171.6,109.34Z"/><path class="cls-2" d="M138.07,104.38c-8.68,2.45-17.59-1.51-20.29-8.68C128.74,91.89,135.7,100,138.07,104.38Z"/><path class="cls-2" d="M139.71,100.48c-5.77-6.93-5.59-16.66-.14-22C147.52,86.9,142.79,96.51,139.71,100.48Z"/><path class="cls-2" d="M144.84,105.84c3.42-8.34,12.11-12.73,19.42-10.43C160.49,106.4,149.79,106.71,144.84,105.84Z"/><path class="cls-2" d="M158.09,83.17c9.31-1.46,18.35,1.61,20,8.29C170.32,94,160.72,87.46,158.09,83.17Z"/><path class="cls-2" d="M146.11,74c8.83-3.26,18.31-2,21.2,4.21C160.23,82.24,149.52,77.69,146.11,74Z"/><path class="cls-2" d="M142.55,77.65c9.18,2.1,17.91,8.83,16.92,15.63C150.27,93.63,142.29,83.49,142.55,77.65Z"/><path class="cls-2" d="M133.38,66.5a18.75,18.75,0,0,1-3.94-22.92C134.85,48.28,137.34,60.57,133.38,66.5Z"/><path class="cls-2" d="M86.79,97.73c1.88-9.77,10.13-13,15.78-13C102.42,91.08,94.5,98.43,86.79,97.73Z"/><path class="cls-2" d="M85.24,101.39c9.55-2.77,13,1.08,15.54,6.11C95.11,110.24,88.13,108.58,85.24,101.39Z"/><path class="cls-2" d="M78.12,32.56c-7.55,5.47-17.73,4.92-22.37.77C62.37,29.26,72.09,27.69,78.12,32.56Z"/><path class="cls-2" d="M141.19,29c-2.62,7.59-12.06,14.13-18,12.38C126.19,34.27,133.66,27.16,141.19,29Z"/><path class="cls-2" d="M84.73,40c-4.27,8.77-14.43,11.18-20.53,9C68.62,41.44,76.77,37.09,84.73,40Z"/><path class="cls-2" d="M21.38,87.54c9.31,3.09,12.13,10.72,10.86,18.39C24.84,101.8,20.44,95.23,21.38,87.54Z"/><path class="cls-2" d="M4.55,98.59c9.35-4.8,17.35-1.13,22.34,5.71C18.17,106.84,9.8,105.2,4.55,98.59Z"/><path class="cls-2" d="M2.1,122.22c2.45-10.57,10.47-14,18.86-12.84C18.47,116.83,12.49,123.42,2.1,122.22Z"/><path class="cls-2" d="M52.05,97c-1.09,9-4.84,11.08-11,11.82C42.27,101.08,44.41,98.28,52.05,97Z"/><path class="cls-2" d="M64.29,104.59c4.61,3.76,6.14,11,2.07,15.69C61.78,116,60.32,110.37,64.29,104.59Z"/><path class="cls-2" d="M32,115c-5,10.63-12.14,13.36-18.62,12.83C18.16,117.67,24.51,114,32,115Z"/><path class="cls-2" d="M43.93,116.39c8.6,7.84,8.44,17,5.51,23.84C42,131.45,40.69,123.58,43.93,116.39Z"/><path class="cls-2" d="M34.71,121.37c-.43,11.63-7.5,17.4-14.63,19.61C22,129.64,27.13,123.55,34.71,121.37Z"/><path class="cls-3" d="M135,111.2c3.06-1,9.23-3.47,8.26-13.61-1.61,10.45-9.83,10.82-13.11,10.54-4.92-2.47-10.21-3.47-13.06-2.54.4-12.58-6.13-12.65-9.83-13.19s-10.36,3.91-9.75,7.47c9.15-8.21,15-2.57,14.26.81s-4.24,11.77-14.33,12.78c-10.33,1.48-15.21-11.84-14.8-15,2.39-18.73,16.08-18.23,24.89-14s17.16,3.77,21.26-2,8.55-6.53,14.47-6.73c-2.09-1.41-8.95-2-14.13,1.68,3.9-16.08-8.55-13.93-8.55-13.93,13.73,4.44,3.57,20.39-2.08,19.72-5.09-.61-11.1-5.52-18.37-7.07C85.09,72.91,79.23,88.77,79.23,88.77c-.74-10.7,3.36-12.38,6.59-15.75,11-11.5,10.77-21.72,10.77-21.72,6.62-11.18,13.32-10.16,21.52-7.2-12.85-10.16-22.53.74-22.53.74C93,35.15,84.27,32.39,76.07,37.57A11.88,11.88,0,0,1,91.47,44c3.65,11.29-5.13,21.2-5.13,21.2-.81.9-1.67,1.8-2.55,2.7C71,65.74,71,62.16,66.38,53.85c1.27,16.24,10.24,17.62,14,17.48-3.13,3.16-6.11,6.33-7.75,9.52-4.58,8.91-.09,15.34-.09,15.34S62,96,56.91,92C34.55,74.32,54,61.12,54,61.12c-6.34,2.62-12,9.69-12.46,16C39.34,75.6,32,71.68,25.52,80,31.91,77.42,38.07,76.54,43,83.5h0C48,94.68,56,97.82,56.8,98.1c-1,3.59-6.07,17.32-24,9.4,8.53,9.34,22,5.59,29.95-6.36l.42.21a33.94,33.94,0,0,1,15.34,14.4c1.75,3.16,2,10.43,1.48,14.06s-1.82,7.2-1.21,9.08c1.9,5.94,0,14.94,0,14.94a45,45,0,0,0-3.37,13.59,6.94,6.94,0,0,0-5.74,3.68c4-1.3,5.61-1.12,7.9,0,5.38.88,7.13,6,8,8.95,2.56-2.35,2.15-4.31,1.82-6.93,7.06,1.68,8.61,4.51,9.55,5.18s1.48.47,2.49,0,2.69-2.89,4.37-4.51a20.92,20.92,0,0,1,11.31,2.9c-2-4.92-7.67-8.28-10-9.29-.4-3.09-3.63-11.57-4.57-13.79.47-2.09.13-7,0-8.28s-1.15-5-2.56-11.16,7.6-18.1,15.27-21.94c16.37-8.18,27.86,7.74,27.86,7.74A16,16,0,0,0,135,111.2Z"/></svg>