<svg id="Layer_1" data-name="Layer 1" xmlns="http://www.w3.org/2000/svg" viewBox="0 0 300 180"><defs><style>.cls-1{fill:#4b4b4b;}.cls-2{fill:gray;}.cls-3{fill:#01abdd;}</style></defs><path class="cls-1" d="M8.2,136.59v-7.7h2.13a4.35,4.35,0,0,1,3.05.94,3.63,3.63,0,0,1,1,2.82,3.78,3.78,0,0,1-1.13,2.86,4.22,4.22,0,0,1-3,1.08Zm.9-6.88v6.07h1.15a3.27,3.27,0,0,0,2.36-.81,3.07,3.07,0,0,0,.84-2.3,2.91,2.91,0,0,0-.78-2.22,3.32,3.32,0,0,0-2.36-.74Z"/><path class="cls-1" d="M16.81,136.59h-.9v-7.7h.9Z"/><path class="cls-1" d="M25.05,136.59H23.94l-4-6.14a1.76,1.76,0,0,1-.14-.23c0-.09-.08-.17-.11-.25h0q0,.12,0,.39c0,.17,0,.4,0,.67v5.56h-.9v-7.7H20l3.86,6,.2.32c.05.09.09.15.11.2h0a3.93,3.93,0,0,1,0-.45c0-.19,0-.42,0-.68v-5.43h.9Z"/><path class="cls-1" d="M26.18,136.59l2.95-7.7h.93l3,7.7H32l-.78-2.06H27.92l-.74,2.06Zm2-2.87H31l-1.25-3.38a1.42,1.42,0,0,1-.06-.21c0-.08,0-.19-.06-.3h0l-.06.29c0,.08,0,.16-.06.22Z"/><path class="cls-1" d="M33.5,136l.44-.67a3.62,3.62,0,0,0,.94.44,4.08,4.08,0,0,0,1.1.14,1.92,1.92,0,0,0,1.16-.33,1.12,1.12,0,0,0,.46-1,1.15,1.15,0,0,0-.39-.91,4,4,0,0,0-1.26-.65,4.68,4.68,0,0,1-1.61-.89,1.66,1.66,0,0,1-.52-1.29,1.93,1.93,0,0,1,.68-1.53,2.64,2.64,0,0,1,1.78-.59,4.74,4.74,0,0,1,1,.11,6.05,6.05,0,0,1,1,.36L38,130a4.59,4.59,0,0,0-.86-.29,4.29,4.29,0,0,0-.9-.09,1.75,1.75,0,0,0-1.1.32,1.12,1.12,0,0,0-.4.9,1,1,0,0,0,.37.81,4.56,4.56,0,0,0,1.24.61,4.34,4.34,0,0,1,1.66.94,1.87,1.87,0,0,1,.51,1.39,2.05,2.05,0,0,1-.68,1.56,2.72,2.72,0,0,1-1.9.62A4.1,4.1,0,0,1,33.5,136Z"/><path class="cls-1" d="M44.63,134.07v2.52H42.89v-7.7h2.72a3.24,3.24,0,0,1,2.18.63,2.35,2.35,0,0,1,.73,1.89,2.47,2.47,0,0,1-.83,1.93,3.27,3.27,0,0,1-2.24.73Zm0-3.85v2.53h.68a1.46,1.46,0,0,0,1-.32,1.24,1.24,0,0,0,.34-1,1.22,1.22,0,0,0-.34-.94,1.56,1.56,0,0,0-1-.31Z"/><path class="cls-1" d="M54.27,136.59H49.65v-7.7h4.44v1.41H51.38V132H53.9v1.4H51.38v1.77h2.89Z"/><path class="cls-1" d="M64.28,136.59H62.57V132c0-.25,0-.51,0-.79s0-.56.05-.86h0c-.05.23-.09.44-.13.61a3.83,3.83,0,0,1-.11.41l-1.81,5.23H59.12l-1.83-5.18c0-.07-.06-.2-.1-.38l-.15-.69h0c0,.38,0,.73,0,1.07s0,.64,0,.92v4.26H55.5v-7.7H58l1.58,4.57c.06.16.11.33.16.5s.08.34.11.51h0c0-.19.1-.38.15-.55s.11-.33.16-.47l1.57-4.56h2.48Z"/><path class="cls-1" d="M66,136.59v-7.7h2.8a3.42,3.42,0,0,1,2,.49,1.6,1.6,0,0,1,.69,1.38,1.67,1.67,0,0,1-.37,1.08,1.92,1.92,0,0,1-1,.65v0a1.84,1.84,0,0,1,1.18.59,1.71,1.71,0,0,1,.45,1.19,2.06,2.06,0,0,1-.76,1.68,3.16,3.16,0,0,1-2.07.62Zm1.74-6.42v1.88h.76a1.26,1.26,0,0,0,.84-.26.86.86,0,0,0,.31-.71.78.78,0,0,0-.31-.68,1.66,1.66,0,0,0-1-.23Zm0,3.17v2h.94a1.48,1.48,0,0,0,.94-.28,1,1,0,0,0,.34-.77.78.78,0,0,0-.34-.68,1.49,1.49,0,0,0-.93-.25Z"/><path class="cls-1" d="M77.7,136.59H73.08v-7.7h4.44v1.41h-2.7V132h2.52v1.4H74.82v1.77H77.7Z"/><path class="cls-1" d="M85.19,136.59h-2l-1-1.89a2.81,2.81,0,0,0-.5-.7,1,1,0,0,0-.57-.27h-.47v2.86H78.94v-7.7h2.75a3.35,3.35,0,0,1,2.1.55,1.92,1.92,0,0,1,.7,1.63A2.08,2.08,0,0,1,84,132.4a2.54,2.54,0,0,1-1.24.81v0a1.42,1.42,0,0,1,.65.45,5.4,5.4,0,0,1,.5.71Zm-4.52-6.4v2.23h.75a1.22,1.22,0,0,0,.91-.34,1.14,1.14,0,0,0,.33-.84,1,1,0,0,0-.3-.79,1.36,1.36,0,0,0-.9-.26Z"/><path class="cls-1" d="M86.12,136.59v-7.7h2.73a4.42,4.42,0,0,1,3.08.94,3.63,3.63,0,0,1,1,2.82,3.8,3.8,0,0,1-1.12,2.87,4.11,4.11,0,0,1-3,1.07Zm1.73-6.29v4.89h.86a2.32,2.32,0,0,0,1.77-.68,2.56,2.56,0,0,0,.64-1.84,2.37,2.37,0,0,0-.63-1.74,2.44,2.44,0,0,0-1.79-.63Z"/><path class="cls-1" d="M93.23,136.59l2.81-7.7H98.1l2.74,7.7h-1.9l-.52-1.6H95.63l-.52,1.6Zm2.78-3h2L97.17,131l-.08-.28c0-.07,0-.17,0-.28h0q0,.15-.06.27c0,.08,0,.17-.07.27Z"/><path class="cls-1" d="M106.77,128.89l-2.51,5v2.74h-1.73v-2.7l-2.45-5h2l1.25,2.87.06.2c0,.11.07.25.11.43h0c0-.13,0-.24.08-.34a2.56,2.56,0,0,1,.09-.26l1.26-2.9Z"/><path class="cls-1" d="M106,136.59l2.8-7.7h2.06l2.74,7.7H111.7l-.52-1.6h-2.79l-.52,1.6Zm2.77-3h2l-.85-2.67-.08-.28a1.59,1.59,0,0,1,0-.28h0l-.06.27c0,.08,0,.17-.08.27Z"/><path class="cls-1" d="M113.72,136.59l2.81-7.7h2.06l2.74,7.7h-1.9l-.52-1.6h-2.79l-.52,1.6Zm2.78-3h2l-.85-2.67-.08-.28c0-.07,0-.17,0-.28h0q0,.15-.06.27c0,.08,0,.17-.07.27Z"/><path class="cls-1" d="M129.22,136.59h-1.76l-3.17-4.84-.24-.37-.15-.27h0a3.74,3.74,0,0,1,0,.52c0,.21,0,.45,0,.73v4.23h-1.64v-7.7h1.87l3,4.69.2.31.19.32h0c0-.09,0-.22,0-.4s0-.4,0-.66v-4.26h1.64Z"/><path class="cls-1" d="M135.75,134.07v2.52H134v-7.7h2.72a3.24,3.24,0,0,1,2.18.63,2.35,2.35,0,0,1,.73,1.89,2.47,2.47,0,0,1-.83,1.93,3.27,3.27,0,0,1-2.24.73Zm0-3.85v2.53h.68a1.46,1.46,0,0,0,1-.32,1.24,1.24,0,0,0,.34-1,1.22,1.22,0,0,0-.34-.94,1.56,1.56,0,0,0-1-.31Z"/><path class="cls-1" d="M145.39,136.59h-4.62v-7.7h4.44v1.41H142.5V132H145v1.4H142.5v1.77h2.89Z"/><path class="cls-1" d="M152.88,136.59h-2l-1-1.89a2.81,2.81,0,0,0-.49-.7,1,1,0,0,0-.57-.27h-.47v2.86h-1.74v-7.7h2.75a3.37,3.37,0,0,1,2.11.55,1.94,1.94,0,0,1,.7,1.63,2.08,2.08,0,0,1-.45,1.33,2.59,2.59,0,0,1-1.24.81v0a1.4,1.4,0,0,1,.64.45,4.68,4.68,0,0,1,.51.71Zm-4.52-6.4v2.23h.75a1.18,1.18,0,0,0,.9-.34,1.11,1.11,0,0,0,.34-.84,1,1,0,0,0-.3-.79,1.37,1.37,0,0,0-.91-.26Z"/><path class="cls-1" d="M158.42,136.59H153.8v-7.7h4.45v1.41h-2.71V132h2.52v1.4h-2.52v1.77h2.88Z"/><path class="cls-1" d="M168.44,136.59h-1.72V132c0-.25,0-.51,0-.79s0-.56,0-.86h0c0,.23-.08.44-.12.61a3.58,3.58,0,0,1-.12.41l-1.8,5.23h-1.42l-1.84-5.18c0-.07-.05-.2-.09-.38s-.09-.41-.15-.69h0c0,.38,0,.73.06,1.07s0,.64,0,.92v4.26h-1.56v-7.7h2.54l1.57,4.57a2.91,2.91,0,0,1,.16.5l.12.51h0c0-.19.1-.38.15-.55a4.29,4.29,0,0,1,.16-.47l1.57-4.56h2.48Z"/><path class="cls-1" d="M171.92,134.07v2.52h-1.73v-7.7h2.71a3.27,3.27,0,0,1,2.19.63,2.38,2.38,0,0,1,.73,1.89,2.45,2.45,0,0,1-.84,1.93,3.26,3.26,0,0,1-2.23.73Zm0-3.85v2.53h.68a1.44,1.44,0,0,0,1-.32,1.24,1.24,0,0,0,.35-1,1.22,1.22,0,0,0-.35-.94,1.54,1.54,0,0,0-1-.31Z"/><path class="cls-1" d="M183.22,133.26a3.68,3.68,0,0,1-.81,2.6,3.14,3.14,0,0,1-2.42.87,3,3,0,0,1-2.35-.85,3.62,3.62,0,0,1-.79-2.56v-4.43h1.74v4.47a2.21,2.21,0,0,0,.37,1.4,1.51,1.51,0,0,0,2.17,0,2.15,2.15,0,0,0,.36-1.36v-4.53h1.73Z"/><path class="cls-1" d="M183.83,136.59l2.8-7.7h2.06l2.74,7.7h-1.89L189,135h-2.8l-.51,1.6Zm2.77-3h2l-.84-2.67a2.55,2.55,0,0,1-.08-.28,1.59,1.59,0,0,1-.05-.28h0a1.86,1.86,0,0,1-.05.27c0,.08,0,.17-.08.27Z"/><path class="cls-1" d="M199.32,136.59h-1.75l-3.18-4.84c-.09-.14-.17-.26-.23-.37a1.54,1.54,0,0,1-.15-.27h0c0,.14,0,.31,0,.52s0,.45,0,.73v4.23h-1.64v-7.7h1.87l3.06,4.69.2.31.18.32h0c0-.09,0-.22,0-.4s0-.4,0-.66v-4.26h1.64Z"/><path class="cls-1" d="M202.52,135.24l-.79,2.72h-1.32l.55-2.72Z"/><path class="cls-1" d="M208.83,134.07v2.52H207.1v-7.7h2.71a3.27,3.27,0,0,1,2.19.63,2.38,2.38,0,0,1,.73,1.89,2.45,2.45,0,0,1-.84,1.93,3.26,3.26,0,0,1-2.23.73Zm0-3.85v2.53h.68a1.44,1.44,0,0,0,1-.32,1.24,1.24,0,0,0,.35-1,1.22,1.22,0,0,0-.35-.94,1.54,1.54,0,0,0-1-.31Z"/><path class="cls-1" d="M218.47,136.59h-4.62v-7.7h4.44v1.41h-2.7V132h2.52v1.4h-2.52v1.77h2.88Z"/><path class="cls-1" d="M226,136.59h-2l-1-1.89a2.81,2.81,0,0,0-.5-.7.9.9,0,0,0-.57-.27h-.47v2.86h-1.73v-7.7h2.75a3.35,3.35,0,0,1,2.1.55,1.92,1.92,0,0,1,.7,1.63,2.08,2.08,0,0,1-.45,1.33,2.56,2.56,0,0,1-1.23.81v0a1.4,1.4,0,0,1,.64.45,4,4,0,0,1,.5.71Zm-4.53-6.4v2.23h.75a1.22,1.22,0,0,0,.91-.34,1.15,1.15,0,0,0,.34-.84,1,1,0,0,0-.3-.79,1.41,1.41,0,0,0-.91-.26Z"/><path class="cls-1" d="M231.48,136.59h-4.59v-7.7h1.73v6.3h2.86Z"/><path class="cls-1" d="M234.25,136.59h-1.74v-7.7h1.74Z"/><path class="cls-1" d="M242.93,136.59h-1.75L238,131.75c-.09-.14-.17-.26-.23-.37a1.54,1.54,0,0,1-.15-.27h0c0,.14,0,.31,0,.52s0,.45,0,.73v4.23H236v-7.7h1.87l3,4.69.21.31.18.32h0c0-.09,0-.22,0-.4s0-.4,0-.66v-4.26h1.64Z"/><path class="cls-1" d="M244.69,136.59v-7.7h2.73a4.42,4.42,0,0,1,3.08.94,3.63,3.63,0,0,1,1,2.82,3.8,3.8,0,0,1-1.12,2.87,4.11,4.11,0,0,1-3,1.07Zm1.73-6.29v4.89h.86a2.32,2.32,0,0,0,1.77-.68,2.56,2.56,0,0,0,.64-1.84,2.37,2.37,0,0,0-.63-1.74,2.44,2.44,0,0,0-1.79-.63Z"/><path class="cls-1" d="M259.08,133.26a3.68,3.68,0,0,1-.81,2.6,3.16,3.16,0,0,1-2.43.87,3,3,0,0,1-2.35-.85,3.66,3.66,0,0,1-.78-2.56v-4.43h1.74v4.47a2.27,2.27,0,0,0,.36,1.4,1.32,1.32,0,0,0,1.1.47,1.3,1.3,0,0,0,1.08-.45,2.21,2.21,0,0,0,.35-1.36v-4.53h1.74Z"/><path class="cls-1" d="M267.68,136.59h-1.75l-3.17-4.84c-.1-.14-.17-.26-.24-.37l-.15-.27h0c0,.14,0,.31,0,.52s0,.45,0,.73v4.23h-1.64v-7.7h1.87l3.06,4.69.2.31.19.32h0a2.78,2.78,0,0,1,0-.4c0-.18,0-.4,0-.66v-4.26h1.64Z"/><path class="cls-1" d="M275.77,136a4.57,4.57,0,0,1-1.25.53,6.29,6.29,0,0,1-1.56.19,4.19,4.19,0,0,1-2.91-1,3.63,3.63,0,0,1-1.09-2.89,4.14,4.14,0,0,1,1.1-2.94,4,4,0,0,1,3.06-1.17,7.06,7.06,0,0,1,1.35.12,6.41,6.41,0,0,1,1.3.4l-.55,1.34a5.45,5.45,0,0,0-1-.31,5.9,5.9,0,0,0-1.07-.1,2.26,2.26,0,0,0-1.7.65,2.64,2.64,0,0,0-.63,1.92,2.54,2.54,0,0,0,.62,1.89,2.26,2.26,0,0,0,1.63.6,3.13,3.13,0,0,0,.56,0,1.56,1.56,0,0,0,.43-.13v-1.51h-1.54V132.2h3.28Z"/><path class="cls-1" d="M276.44,136.59l2.8-7.7h2.06l2.74,7.7h-1.89l-.52-1.6h-2.8l-.51,1.6Zm2.77-3h2l-.85-2.67c0-.11-.05-.2-.07-.28a1.59,1.59,0,0,1-.05-.28h-.05c0,.1,0,.19-.05.27s0,.17-.08.27Z"/><path class="cls-1" d="M291.93,136.59h-1.75L287,131.75c-.09-.14-.17-.26-.23-.37a1.54,1.54,0,0,1-.15-.27h0c0,.14,0,.31,0,.52s0,.45,0,.73v4.23H285v-7.7h1.87l3.06,4.69.2.31.18.32h0c0-.09,0-.22,0-.4s0-.4,0-.66v-4.26h1.64Z"/><path class="cls-1" d="M36.89,149.79l2.8-7.7h2.06l2.74,7.7H42.6l-.52-1.6h-2.8l-.51,1.6Zm2.77-2.95h2l-.85-2.68-.07-.27q0-.12-.06-.3h0c0,.11,0,.21,0,.28s-.05.17-.08.27Z"/><path class="cls-1" d="M52.38,149.79H50.63L47.45,145c-.09-.14-.17-.26-.23-.37a1.51,1.51,0,0,1-.15-.26h0c0,.13,0,.3,0,.51s0,.45,0,.73v4.23H45.45v-7.7h1.87l3,4.69.21.31.18.32h0c0-.09,0-.22,0-.4s0-.4,0-.66v-4.26h1.64Z"/><path class="cls-1" d="M53.31,149.79l2.81-7.7h2.05l2.74,7.7H59l-.52-1.6H55.71l-.52,1.6Zm2.77-2.95h2l-.85-2.68-.08-.27a1.86,1.86,0,0,1-.05-.3h0c0,.11,0,.21-.06.28s-.05.17-.08.27Z"/><path class="cls-1" d="M68.25,149.79H66.08l-2.24-3.28a.94.94,0,0,1-.08-.15l-.12-.27h0v3.7H61.87v-7.7h1.74v3.57h0a1.26,1.26,0,0,1,.08-.18l.13-.25L66,142.09h2l-2.65,3.63Z"/><path class="cls-1" d="M72.05,149.79v-7.7h2.72a4.4,4.4,0,0,1,3.08.94,3.6,3.6,0,0,1,1,2.82,3.78,3.78,0,0,1-1.12,2.87,4.16,4.16,0,0,1-3,1.07Zm1.73-6.29v4.89h.86a2.34,2.34,0,0,0,1.77-.68,2.56,2.56,0,0,0,.64-1.84,2.33,2.33,0,0,0-.63-1.73,2.41,2.41,0,0,0-1.79-.64Z"/><path class="cls-1" d="M79.16,149.79l2.81-7.7h2l2.74,7.7H84.87l-.52-1.6H81.56l-.52,1.6Zm2.77-2.95h2l-.85-2.68-.08-.27a1.86,1.86,0,0,1,0-.3h0c0,.11,0,.21-.06.28a2,2,0,0,1-.08.27Z"/><path class="cls-1" d="M94.65,149.79H92.9L89.73,145c-.1-.14-.17-.26-.24-.37l-.15-.26h0q0,.19,0,.51c0,.21,0,.45,0,.73v4.23H87.72v-7.7h1.87l3.06,4.69.2.31.19.32h0a2.78,2.78,0,0,1,0-.4v-4.92h1.63Z"/><path class="cls-1" d="M101.18,147.27v2.52H99.45v-7.7h2.72a3.24,3.24,0,0,1,2.18.63,2.35,2.35,0,0,1,.73,1.89,2.44,2.44,0,0,1-.84,1.93,3.29,3.29,0,0,1-2.23.73Zm0-3.85V146h.69a1.46,1.46,0,0,0,1-.32,1.24,1.24,0,0,0,.34-1,1.18,1.18,0,0,0-.34-.93,1.5,1.5,0,0,0-1-.32Z"/><path class="cls-1" d="M110.83,149.79h-4.62v-7.7h4.44v1.41h-2.71v1.72h2.52v1.4h-2.52v1.77h2.89Z"/><path class="cls-1" d="M120.84,149.79h-1.72v-4.61c0-.24,0-.5,0-.78s0-.56,0-.86h0c0,.23-.08.44-.12.61a3.58,3.58,0,0,1-.12.41l-1.8,5.23h-1.42l-1.84-5.18c0-.07,0-.2-.09-.37s-.09-.42-.15-.7h0c0,.38,0,.73.06,1.06s0,.65,0,.93v4.26h-1.56v-7.7h2.54l1.58,4.57a4.74,4.74,0,0,1,.15.5l.12.51h0l.15-.55a4.29,4.29,0,0,1,.16-.47l1.57-4.56h2.48Z"/><path class="cls-1" d="M122.59,149.79v-7.7h2.8a3.37,3.37,0,0,1,2,.49,1.59,1.59,0,0,1,.7,1.38,1.72,1.72,0,0,1-.37,1.08,2,2,0,0,1-1,.65v0a1.86,1.86,0,0,1,1.18.59,1.71,1.71,0,0,1,.44,1.2,2,2,0,0,1-.75,1.67,3.16,3.16,0,0,1-2.07.62Zm1.73-6.42v1.88h.77a1.28,1.28,0,0,0,.84-.26.86.86,0,0,0,.31-.71.76.76,0,0,0-.32-.68,1.62,1.62,0,0,0-1-.23Zm0,3.17v2h.94a1.51,1.51,0,0,0,.95-.27,1,1,0,0,0,.34-.77.8.8,0,0,0-.34-.68,1.5,1.5,0,0,0-.94-.25Z"/><path class="cls-1" d="M134.26,149.79h-4.62v-7.7h4.44v1.41h-2.71v1.72h2.52v1.4h-2.52v1.77h2.89Z"/><path class="cls-1" d="M141.75,149.79h-2l-1-1.89a2.81,2.81,0,0,0-.5-.7,1,1,0,0,0-.57-.27h-.47v2.86H135.5v-7.7h2.75a3.35,3.35,0,0,1,2.1.55,1.93,1.93,0,0,1,.7,1.63,2.06,2.06,0,0,1-.45,1.33,2.63,2.63,0,0,1-1.24.82v0a1.35,1.35,0,0,1,.64.45,4.23,4.23,0,0,1,.51.71Zm-4.52-6.4v2.23H138a1.18,1.18,0,0,0,.9-.34,1.11,1.11,0,0,0,.34-.84,1,1,0,0,0-.3-.78,1.31,1.31,0,0,0-.9-.27Z"/><path class="cls-1" d="M142.68,149.79v-7.7h2.72a4.4,4.4,0,0,1,3.08.94,3.6,3.6,0,0,1,1,2.82,3.78,3.78,0,0,1-1.12,2.87,4.16,4.16,0,0,1-3,1.07Zm1.73-6.29v4.89h.86a2.34,2.34,0,0,0,1.77-.68,2.56,2.56,0,0,0,.64-1.84,2.33,2.33,0,0,0-.63-1.73,2.41,2.41,0,0,0-1.79-.64Z"/><path class="cls-1" d="M149.79,149.79l2.81-7.7h2.05l2.74,7.7H155.5l-.52-1.6h-2.79l-.52,1.6Zm2.77-2.95h2l-.85-2.68-.08-.27c0-.08,0-.18-.05-.3h0c0,.11,0,.21-.06.28a2,2,0,0,1-.08.27Z"/><path class="cls-1" d="M163.33,142.09l-2.51,5v2.74h-1.74v-2.7l-2.44-5h2l1.24,2.88.07.19c0,.11.06.25.11.43h0a2.44,2.44,0,0,1,.08-.34,2.56,2.56,0,0,1,.09-.26l1.26-2.9Z"/><path class="cls-1" d="M162.55,149.79l2.8-7.7h2.06l2.74,7.7h-1.89l-.52-1.6h-2.8l-.51,1.6Zm2.77-2.95h2l-.85-2.68c0-.11-.06-.2-.08-.27a1.86,1.86,0,0,1,0-.3h-.05a1.59,1.59,0,0,1-.05.28c0,.08,0,.17-.08.27Z"/><path class="cls-1" d="M170.28,149.79l2.81-7.7h2l2.74,7.7H176l-.52-1.6h-2.79l-.52,1.6Zm2.78-2.95h2l-.85-2.68-.08-.27c0-.08,0-.18,0-.3h0c0,.11,0,.21-.06.28a2,2,0,0,1-.08.27Z"/><path class="cls-1" d="M185.77,149.79H184L180.85,145l-.24-.37-.15-.26h0c0,.13,0,.3,0,.51s0,.45,0,.73v4.23h-1.63v-7.7h1.86l3.06,4.69.2.31.19.32h0a2,2,0,0,1,0-.4c0-.18,0-.4,0-.66v-4.26h1.63Z"/><path class="cls-1" d="M199.35,149.79h-1.72v-4.61c0-.24,0-.5,0-.78s0-.56,0-.86h0c0,.23-.08.44-.12.61a3.58,3.58,0,0,1-.12.41l-1.8,5.23h-1.42l-1.84-5.18c0-.07,0-.2-.09-.37s-.09-.42-.15-.7h-.05c0,.38.05.73.06,1.06s0,.65,0,.93v4.26h-1.56v-7.7h2.54l1.57,4.57a3.22,3.22,0,0,1,.16.5l.12.51h0l.15-.55a4.29,4.29,0,0,1,.16-.47l1.57-4.56h2.48Z"/><path class="cls-1" d="M200.27,149.79l2.8-7.7h2.06l2.74,7.7H206l-.52-1.6h-2.79l-.52,1.6Zm2.77-2.95h2l-.85-2.68-.08-.27a1.86,1.86,0,0,1,0-.3H204a1.59,1.59,0,0,1-.05.28c0,.08,0,.17-.08.27Z"/><path class="cls-1" d="M208.2,149.28l.72-1.35a4,4,0,0,0,1,.47,3.26,3.26,0,0,0,.9.12,1.47,1.47,0,0,0,.92-.24.8.8,0,0,0,.29-.65.79.79,0,0,0-.23-.61,2.12,2.12,0,0,0-.87-.36,4.07,4.07,0,0,1-1.88-.83,2,2,0,0,1-.58-1.52,2.16,2.16,0,0,1,.75-1.66,3.07,3.07,0,0,1,2.13-.69,4.56,4.56,0,0,1,1.11.13,4.7,4.7,0,0,1,1.05.38l-.66,1.37a3.42,3.42,0,0,0-.83-.36,2.88,2.88,0,0,0-.73-.11,1.42,1.42,0,0,0-.81.2.67.67,0,0,0-.29.59.62.62,0,0,0,.26.54,3,3,0,0,0,1,.34,3.6,3.6,0,0,1,1.8.85,2.11,2.11,0,0,1,.56,1.59,2.22,2.22,0,0,1-.77,1.77,3.29,3.29,0,0,1-2.23.68,5.79,5.79,0,0,1-1.34-.17A4.45,4.45,0,0,1,208.2,149.28Z"/><path class="cls-1" d="M220.8,142.09l-2.51,5v2.74h-1.73v-2.7l-2.45-5h2l1.24,2.88a.69.69,0,0,1,.07.19c0,.11.06.25.11.43h0a2.44,2.44,0,0,1,.08-.34,2.56,2.56,0,0,1,.09-.26l1.26-2.9Z"/><path class="cls-1" d="M220,149.79l2.8-7.7h2.06l2.74,7.7h-1.89l-.52-1.6h-2.79l-.52,1.6Zm2.77-2.95h2l-.85-2.68-.08-.27a1.86,1.86,0,0,1,0-.3h-.05a1.59,1.59,0,0,1-.05.28c0,.08,0,.17-.08.27Z"/><path class="cls-1" d="M234.84,149.79h-2l-1-1.89a2.81,2.81,0,0,0-.49-.7,1,1,0,0,0-.58-.27h-.46v2.86h-1.74v-7.7h2.75a3.31,3.31,0,0,1,2.1.55,1.94,1.94,0,0,1,.71,1.63,2.07,2.07,0,0,1-.46,1.33,2.65,2.65,0,0,1-1.23.82v0a1.4,1.4,0,0,1,.64.45,4.23,4.23,0,0,1,.51.71Zm-4.52-6.4v2.23h.75a1.2,1.2,0,0,0,.9-.34,1.11,1.11,0,0,0,.34-.84,1,1,0,0,0-.3-.78,1.32,1.32,0,0,0-.91-.27Z"/><path class="cls-1" d="M234.94,149.79l2.8-7.7h2.06l2.74,7.7h-1.89l-.53-1.6h-2.79l-.51,1.6Zm2.77-2.95h2l-.85-2.68a2.75,2.75,0,0,1-.07-.27q0-.12-.06-.3h0c0,.11,0,.21-.06.28a1.8,1.8,0,0,1-.07.27Z"/><path class="cls-1" d="M249.87,149.79h-2.16l-2.25-3.28a.94.94,0,0,1-.08-.15,2.86,2.86,0,0,0-.12-.27h0v3.7H243.5v-7.7h1.73v3.57h0l.09-.18.12-.25,2.13-3.14h2L247,145.72Z"/><path class="cls-1" d="M249.81,149.79l2.8-7.7h2.06l2.74,7.7h-1.89l-.52-1.6h-2.8l-.51,1.6Zm2.77-2.95h2l-.85-2.68-.07-.27a1.86,1.86,0,0,1,0-.3h-.05a1.59,1.59,0,0,1,0,.28c0,.08-.05.17-.08.27Z"/><path class="cls-1" d="M263,143.5h-2.19v6.29h-1.74V143.5h-2.19v-1.41H263Z"/><path class="cls-1" d="M104.25,162.66h-1.78l-1.85-2.7-.07-.13-.1-.22h0v3H99v-6.34h1.43v2.94h0l.07-.15.11-.2,1.75-2.59H104l-2.17,3Z"/><path class="cls-1" d="M107.29,162.76a3,3,0,0,1-2.22-.88,3.18,3.18,0,0,1-.85-2.31,3.45,3.45,0,0,1,.86-2.43,3,3,0,0,1,2.31-.92,2.88,2.88,0,0,1,2.19.88,3.29,3.29,0,0,1,.84,2.34,3.35,3.35,0,0,1-.87,2.41A3,3,0,0,1,107.29,162.76Zm0-1.23a1.39,1.39,0,0,0,1.17-.53,2.27,2.27,0,0,0,.44-1.48,2.48,2.48,0,0,0-.42-1.53,1.38,1.38,0,0,0-1.15-.55,1.42,1.42,0,0,0-1.19.57,2.74,2.74,0,0,0,0,3A1.41,1.41,0,0,0,107.31,161.53Z"/><path class="cls-1" d="M115.55,157.48h-1.81v5.18h-1.43v-5.18h-1.79v-1.16h5Z"/><path class="cls-1" d="M115.1,162.66l2.3-6.34h1.69l2.25,6.34h-1.55l-.43-1.32h-2.3l-.42,1.32Zm2.27-2.44H119l-.7-2.2c0-.09,0-.16-.06-.22a1.19,1.19,0,0,1,0-.24h0a1.32,1.32,0,0,1,0,.23,1.15,1.15,0,0,1-.06.21Z"/><path class="cls-1" d="M129.07,157.48h-1.8v5.18h-1.43v-5.18H124v-1.16h5Z"/><path class="cls-1" d="M128.62,162.66l2.3-6.34h1.69l2.26,6.34h-1.56l-.43-1.32h-2.29l-.43,1.32Zm2.28-2.44h1.65l-.7-2.2a2.18,2.18,0,0,0-.06-.22,1.19,1.19,0,0,1,0-.24h0c0,.09,0,.16,0,.23l-.07.21Z"/><path class="cls-1" d="M141.35,162.66h-1.44l-2.61-4-.19-.31-.12-.22h0c0,.11,0,.25,0,.43s0,.37,0,.59v3.49h-1.34v-6.34h1.53l2.52,3.86.16.26a1.65,1.65,0,0,1,.15.25h0a2.38,2.38,0,0,1,0-.33c0-.14,0-.32,0-.54v-3.5h1.34Z"/><path class="cls-1" d="M145.45,160.58a2.15,2.15,0,0,1-.57,1.63,2.22,2.22,0,0,1-1.62.55,3,3,0,0,1-.59-.06,3.18,3.18,0,0,1-.62-.2l.44-1.08a1.59,1.59,0,0,0,.32.12,1,1,0,0,0,.32.05.81.81,0,0,0,.65-.24,1.13,1.13,0,0,0,.21-.77l0-4.26h1.42Z"/><path class="cls-1" d="M152,159.91a3,3,0,0,1-.66,2.14,2.6,2.6,0,0,1-2,.71,2.51,2.51,0,0,1-1.93-.69,3,3,0,0,1-.65-2.1v-3.65h1.43V160a1.86,1.86,0,0,0,.3,1.15,1.07,1.07,0,0,0,.91.38,1.05,1.05,0,0,0,.88-.37,1.73,1.73,0,0,0,.29-1.11v-3.73H152Z"/><path class="cls-1" d="M159.06,162.66h-1.43l-2.61-4c-.08-.12-.15-.22-.2-.31l-.12-.22h0c0,.11,0,.25,0,.43s0,.37,0,.59v3.49h-1.35v-6.34h1.53l2.52,3.86.16.26c.06.08.11.17.16.25h0a2.38,2.38,0,0,1,0-.33c0-.14,0-.32,0-.54v-3.5h1.34Z"/><path class="cls-1" d="M165.71,162.18a4,4,0,0,1-1,.43,5.17,5.17,0,0,1-1.28.15A3.47,3.47,0,0,1,161,162a3,3,0,0,1-.89-2.38,3.38,3.38,0,0,1,.9-2.41,3.32,3.32,0,0,1,2.52-1,5.52,5.52,0,0,1,1.11.1,5.28,5.28,0,0,1,1.06.32l-.44,1.11a4.53,4.53,0,0,0-.85-.26,4.12,4.12,0,0,0-.88-.08,1.91,1.91,0,0,0-1.41.53,2.21,2.21,0,0,0-.51,1.58,2.05,2.05,0,0,0,.51,1.55,1.85,1.85,0,0,0,1.34.5,2.13,2.13,0,0,0,.46,0,1.11,1.11,0,0,0,.35-.1v-1.24H163v-1.14h2.69Z"/><path class="cls-1" d="M168.37,160.58v2.08h-1.43v-6.34h2.24a2.69,2.69,0,0,1,1.79.52,1.93,1.93,0,0,1,.6,1.55,2,2,0,0,1-.69,1.59,2.67,2.67,0,0,1-1.83.6Zm0-3.16v2.08h.56a1.22,1.22,0,0,0,.85-.26,1,1,0,0,0,.29-.79,1,1,0,0,0-.29-.78,1.22,1.22,0,0,0-.85-.25Z"/><path class="cls-1" d="M173.92,162.66H172.5v-6.34h1.42Z"/><path class="cls-1" d="M181.06,162.66h-1.44l-2.61-4c-.08-.12-.14-.22-.19-.31a2,2,0,0,1-.13-.22h0c0,.11,0,.25,0,.43s0,.37,0,.59v3.49h-1.35v-6.34h1.54l2.51,3.86c.06.08.11.17.17.26l.15.25h0q0-.1,0-.33c0-.14,0-.32,0-.54v-3.5h1.35Z"/><path class="cls-1" d="M181.83,162.66l2.31-6.34h1.69l2.25,6.34h-1.56l-.42-1.32h-2.3l-.42,1.32Zm2.28-2.44h1.65l-.69-2.2-.07-.22c0-.06,0-.14,0-.24h0c0,.09,0,.16-.05.23l-.07.21Z"/><path class="cls-1" d="M194.56,162.66h-1.43l-2.61-4c-.08-.12-.15-.22-.2-.31l-.12-.22h0c0,.11,0,.25,0,.43s0,.37,0,.59v3.49h-1.35v-6.34h1.53l2.52,3.86.16.26c.06.08.11.17.16.25h0a2.38,2.38,0,0,1,0-.33c0-.14,0-.32,0-.54v-3.5h1.34Z"/><path class="cls-1" d="M201.21,162.18a4,4,0,0,1-1,.43,5.17,5.17,0,0,1-1.28.15,3.47,3.47,0,0,1-2.4-.79,3,3,0,0,1-.89-2.38,3.38,3.38,0,0,1,.9-2.41,3.32,3.32,0,0,1,2.52-1,5.52,5.52,0,0,1,1.11.1,5.28,5.28,0,0,1,1.06.32l-.44,1.11a4.53,4.53,0,0,0-.85-.26,4.12,4.12,0,0,0-.88-.08,1.91,1.91,0,0,0-1.41.53,2.21,2.21,0,0,0-.51,1.58,2.05,2.05,0,0,0,.51,1.55,1.85,1.85,0,0,0,1.34.5,2.13,2.13,0,0,0,.46,0,1.11,1.11,0,0,0,.35-.1v-1.24h-1.26v-1.14h2.69Z"/><path class="cls-1" d="M97.5,78.66a3.63,3.63,0,0,0,.15-1.27,54.58,54.58,0,0,1,6-21.23,53.8,53.8,0,0,1,13.63-16.94l.58-.48a9.37,9.37,0,0,1-3.45-1.82,9.2,9.2,0,0,1-3.33-8.36.57.57,0,0,0-.44-.72,5.4,5.4,0,0,1-2.91-2.45,3.21,3.21,0,0,1,1.75-4.81,5.9,5.9,0,0,1,5.56.86.6.6,0,0,0,.76,0,9.41,9.41,0,0,1,13.94,6.93,9.73,9.73,0,0,1-.06,3c0,.1-.09.2,0,.27a1.26,1.26,0,0,0-.21.47A9.29,9.29,0,0,1,121.89,39a.5.5,0,0,0-.42.31,8.49,8.49,0,0,0,.77,8.43,13.61,13.61,0,0,0,3.57,3.8,30.17,30.17,0,0,0,10.27,4.87,51.43,51.43,0,0,0,16.52,1.77,48.28,48.28,0,0,0,12.11-2,28.66,28.66,0,0,0,10-5.09,12.59,12.59,0,0,0,3-3.46,8.48,8.48,0,0,0,.67-8.32A.48.48,0,0,0,178,39a9.23,9.23,0,0,1-7.43-6.37c-.19-.56-.38-1-1-1.24.22,0,.39.16.66.17a9.42,9.42,0,0,1,2.14-8,9.13,9.13,0,0,1,5.78-3.15,9.43,9.43,0,0,1,4,18.38l1.07.89a54.12,54.12,0,0,1,17.3,27.14,52.78,52.78,0,0,1,1.85,11.09,55.07,55.07,0,0,1-7.93,32.52c-.12.2-.26.38-.39.57,0-.16.09-.27.16-.39a28.72,28.72,0,0,0,3.42-13.67c0-2.23,0-4.46,0-6.69a27.65,27.65,0,0,0-.46-5.13,28.43,28.43,0,0,0-9.94-16.93A24,24,0,0,0,182.58,65a23.24,23.24,0,0,0-5.3-2.22A28.55,28.55,0,0,0,157.63,64a.54.54,0,0,0-.39.61,81,81,0,0,0,3.95,23.16c.14.42.12.44-.32.37-2.14-.38-4.27-.76-6.41-1.11a.58.58,0,0,1-.54-.5c-.61-2.61-1.24-5.21-1.84-7.82-.08-.36-.22-.45-.58-.44-1,0-2.07,0-3.1,0-.29,0-.43.06-.5.37-.61,2.61-1.24,5.21-1.85,7.82a.63.63,0,0,1-.6.58c-2.1.34-4.19.72-6.28,1.08-.16,0-.31,0-.52.06.32-1,.63-2,.92-2.92A75.2,75.2,0,0,0,142,73.81c.41-3.06.64-6.14.77-9.22a.56.56,0,0,0-.4-.65,28.58,28.58,0,0,0-14.14-2.22,27.81,27.81,0,0,0-10.44,3.08l-.3.17a26,26,0,0,0-5.6,3.92,28.17,28.17,0,0,0-9.51,20.66c-.08,2.64,0,5.28,0,7.91a28.24,28.24,0,0,0,2.74,11.77c.06.13.18.24.14.4-.17,0-.2-.19-.26-.31a54.66,54.66,0,0,1-6.58-17.95,58.15,58.15,0,0,1-.77-6.58c0-.09,0-.21-.09-.27Z"/><path class="cls-2" d="M105.2,109.63c0-.16-.08-.27-.14-.4a28.24,28.24,0,0,1-2.74-11.77c0-2.63-.07-5.27,0-7.91a28.17,28.17,0,0,1,9.51-20.66,26,26,0,0,1,5.6-3.92,33.83,33.83,0,0,0,1.19,8.37,32.39,32.39,0,0,0,11.77,17.3c.48.37.48.36,0,.64a48.75,48.75,0,0,0-14.58,12.14,56.19,56.19,0,0,0-7,10.92c0,.11-.12.23-.21.4l-.43-.57c-.84-1.12-1.59-2.3-2.36-3.46a7.9,7.9,0,0,0-.48-.91c0-.07,0-.16-.07-.18Z"/><path class="cls-2" d="M182.58,65a24,24,0,0,1,4.67,3.11,28.43,28.43,0,0,1,9.94,16.93,27.65,27.65,0,0,1,.46,5.13c0,2.23,0,4.46,0,6.69a28.72,28.72,0,0,1-3.42,13.67c-.07.12-.18.23-.16.39h0c-.07,0-.08,0-.09.1h0l-.09.18a36.59,36.59,0,0,1-2.41,3.52c-.49-.94-1-1.86-1.45-2.75a52.53,52.53,0,0,0-16.2-18.16,40.13,40.13,0,0,0-4.26-2.57c-.33-.17-.42-.25-.06-.52a32.48,32.48,0,0,0,12.94-23.3C182.52,66.62,182.52,65.81,182.58,65Z"/><path class="cls-2" d="M122.24,47.69a8.49,8.49,0,0,1-.77-8.43.5.5,0,0,1,.42-.31,9.29,9.29,0,0,0,7.59-6.86,1.26,1.26,0,0,1,.21-.47,47.13,47.13,0,0,1,8-2.72A51.25,51.25,0,0,1,168,30.65c.43.16.84.35,1.27.53a.57.57,0,0,0,.34.16h0c.59.2.78.68,1,1.24A9.23,9.23,0,0,0,178,39a.48.48,0,0,1,.41.27,8.48,8.48,0,0,1-.67,8.32,33.81,33.81,0,0,0-3.87-5,32.19,32.19,0,0,0-20.6-10.2,31.57,31.57,0,0,0-13,1.32A32.37,32.37,0,0,0,122.24,47.69Z"/><path class="cls-3" d="M169.58,31.34a.57.57,0,0,1-.34-.16A.41.41,0,0,1,169.58,31.34Z"/><path class="cls-3" d="M105.2,109.62c.12,0,.08.11.07.18S105.12,109.72,105.2,109.62Z"/><path class="cls-3" d="M193.9,111.2,194,111C194,111.1,194,111.17,193.9,111.2Z"/><path class="cls-3" d="M194,111s0-.1.09-.1S194.05,111,194,111Z"/><path class="cls-1" d="M156.29,48.16A6.2,6.2,0,1,1,150.1,42,6.19,6.19,0,0,1,156.29,48.16Z"/></svg>