<svg id="Layer_1" data-name="Layer 1" xmlns="http://www.w3.org/2000/svg" viewBox="0 0 180 180"><defs><style>.cls-1{fill:#bfc1c2;}.cls-2{fill:#d4d5d6;}.cls-3{fill:#01abdd;}</style></defs><path class="cls-1" d="M0,109.17A6.46,6.46,0,0,0,.26,107a93.6,93.6,0,0,1,10.23-36.4,91.89,91.89,0,0,1,23.37-29l1-.83a16.11,16.11,0,0,1-5.92-3.13,15.79,15.79,0,0,1-5.71-14.32A1,1,0,0,0,22.47,22a9.37,9.37,0,0,1-5-4.2,5.5,5.5,0,0,1,3-8.24c3.42-1.25,6.59-.51,9.52,1.46a1,1,0,0,0,1.31.06A16.15,16.15,0,0,1,55.11,28.06c0,.16-.15.34.07.46a2.13,2.13,0,0,0-.35.8c-2,6.51-6.31,10.46-13,11.77a.85.85,0,0,0-.73.52,14.58,14.58,0,0,0,1.32,14.46,23.43,23.43,0,0,0,6.12,6.51,51.47,51.47,0,0,0,17.61,8.35,88.41,88.41,0,0,0,28.32,3,83.09,83.09,0,0,0,20.76-3.5,49.06,49.06,0,0,0,17.09-8.73,21.59,21.59,0,0,0,5.22-5.92,14.51,14.51,0,0,0,1.13-14.27.78.78,0,0,0-.69-.46,15.8,15.8,0,0,1-12.73-10.93c-.34-1-.66-1.77-1.68-2.12.38,0,.68.27,1.13.28a16.12,16.12,0,0,1,3.68-13.71,15.64,15.64,0,0,1,9.9-5.42,16.17,16.17,0,0,1,6.88,31.51c.63.54,1.24,1,1.84,1.54a92.66,92.66,0,0,1,29.64,46.52,90,90,0,0,1,3.18,19,94.33,94.33,0,0,1-13.6,55.75c-.2.34-.44.65-.66,1,0-.28.16-.46.27-.68a49.11,49.11,0,0,0,5.87-23.42V128.93a47.11,47.11,0,0,0-.79-8.79,48.7,48.7,0,0,0-17-29,40.62,40.62,0,0,0-8-5.35,40.4,40.4,0,0,0-9.08-3.8,48.82,48.82,0,0,0-33.67,2,.92.92,0,0,0-.68,1c.5,13.53,2.42,26.82,6.77,39.7.24.72.21.76-.55.63-3.66-.64-7.32-1.29-11-1.9a1,1,0,0,1-.91-.86c-1-4.47-2.13-8.93-3.16-13.4-.14-.61-.39-.77-1-.75-1.78,0-3.55,0-5.33,0-.5,0-.73.1-.86.63-1,4.47-2.12,8.93-3.15,13.4a1.09,1.09,0,0,1-1,1c-3.59.6-7.17,1.24-10.76,1.87-.27,0-.53.06-.88.09.54-1.73,1.08-3.36,1.57-5a128.82,128.82,0,0,0,4.08-19.53c.7-5.25,1.09-10.53,1.32-15.82a1,1,0,0,0-.69-1.1A49,49,0,0,0,52.6,80.11,47.93,47.93,0,0,0,34.7,85.4c-.18.09-.34.2-.52.3a43.8,43.8,0,0,0-9.6,6.71,48.35,48.35,0,0,0-16.3,35.42c-.14,4.52-.07,9,0,13.56A48.1,48.1,0,0,0,13,161.56c.1.22.3.41.23.69-.3-.05-.34-.33-.45-.53A93.62,93.62,0,0,1,1.48,131,99.69,99.69,0,0,1,.15,119.67c0-.16.07-.36-.15-.46Z"/><path class="cls-2" d="M13.2,162.25c.07-.28-.13-.47-.23-.69a48.1,48.1,0,0,1-4.7-20.17c-.06-4.52-.13-9,0-13.56a48.35,48.35,0,0,1,16.3-35.42,43.8,43.8,0,0,1,9.6-6.71,57.85,57.85,0,0,0,2,14.33A55.54,55.54,0,0,0,56.4,129.7c.82.63.82.62-.07,1.1a83.56,83.56,0,0,0-25,20.8,97.43,97.43,0,0,0-12,18.72c-.09.2-.2.4-.36.7-.27-.37-.5-.68-.74-1-1.45-1.91-2.73-3.94-4.05-5.94a15.41,15.41,0,0,0-.82-1.55c0-.12.09-.27-.13-.3Z"/><path class="cls-2" d="M145.84,85.77a40.62,40.62,0,0,1,8,5.35,48.7,48.7,0,0,1,17,29,47.11,47.11,0,0,1,.79,8.79V140.4a49.11,49.11,0,0,1-5.87,23.42c-.11.22-.31.4-.27.68h0c-.12,0-.14.07-.15.16h0l-.16.3a61.87,61.87,0,0,1-4.12,6c-.85-1.61-1.64-3.18-2.49-4.71a90.08,90.08,0,0,0-27.78-31.13,71.11,71.11,0,0,0-7.3-4.41c-.57-.29-.71-.42-.1-.88a55.42,55.42,0,0,0,17.27-21.32,54.8,54.8,0,0,0,4.91-18.64C145.75,88.51,145.76,87.14,145.84,85.77Z"/><path class="cls-2" d="M42.41,56.07a14.58,14.58,0,0,1-1.32-14.46.85.85,0,0,1,.73-.52c6.7-1.31,11-5.26,13-11.77a2.13,2.13,0,0,1,.35-.8A81.23,81.23,0,0,1,68.9,23.86a87.3,87.3,0,0,1,24.2-2.53,86.41,86.41,0,0,1,27.7,5.53c.74.27,1.45.6,2.18.9a1,1,0,0,0,.59.29h0c1,.35,1.34,1.16,1.68,2.12A15.8,15.8,0,0,0,138,41.09a.78.78,0,0,1,.69.46,14.51,14.51,0,0,1-1.13,14.27,57.64,57.64,0,0,0-6.65-8.67A55.16,55.16,0,0,0,95.57,29.67a53.8,53.8,0,0,0-22.26,2.27A55.38,55.38,0,0,0,42.41,56.07Z"/><path class="cls-3" d="M123.57,28.05a1,1,0,0,1-.59-.29A.72.72,0,0,1,123.57,28.05Z"/><path class="cls-3" d="M13.19,162.24c.22,0,.14.18.13.3C13.21,162.47,13.07,162.41,13.19,162.24Z"/><path class="cls-3" d="M165.25,164.94l.16-.3C165.41,164.77,165.4,164.89,165.25,164.94Z"/><path class="cls-3" d="M165.4,164.65c0-.09,0-.18.15-.16S165.52,164.65,165.4,164.65Z"/><path class="cls-1" d="M100.78,56.87a10.63,10.63,0,1,1-10.6-10.64A10.61,10.61,0,0,1,100.78,56.87Z"/></svg>