<svg id="Layer_1" data-name="Layer 1" xmlns="http://www.w3.org/2000/svg" viewBox="0 0 180 180"><defs><style>.cls-1{fill:#282428;}.cls-2{fill:#fff;}.cls-3{fill:#e0a326;}.cls-4{fill:#2d1b63;}</style></defs><rect class="cls-1" x="36.84" y="130.98" width="106.33" height="38.3" rx="2.58"/><rect class="cls-2" x="72.96" y="140.62" width="34.09" height="7.47" rx="3.59"/><rect class="cls-3" x="36.84" y="85.89" width="106.33" height="38.3" rx="2.58"/><rect class="cls-4" x="72.96" y="95.53" width="34.09" height="7.47" rx="3.59"/><rect class="cls-1" x="36.84" y="39.31" width="106.33" height="38.3" rx="2.58"/><rect class="cls-2" x="72.96" y="48.96" width="34.09" height="7.47" rx="3.59"/><path class="cls-1" d="M150.34,26.82h-.06L124.51,0H54L27.82,27.28a3.45,3.45,0,0,1,1.65-.46h.19a3.24,3.24,0,0,0-3.24,3.24v146.7A3.24,3.24,0,0,0,29.66,180H150.34a3.24,3.24,0,0,0,3.24-3.24V30.06A3.24,3.24,0,0,0,150.34,26.82ZM149.07,167.1a7.47,7.47,0,0,1-7.47,7.47H38.4a7.47,7.47,0,0,1-7.47-7.47V39.72a7.47,7.47,0,0,1,7.47-7.47H141.6a7.47,7.47,0,0,1,7.47,7.47Z"/></svg>