<svg id="Layer_1" data-name="Layer 1" xmlns="http://www.w3.org/2000/svg" viewBox="0 0 300 180"><defs><style>.cls-1{fill:#4b4b4b;}.cls-2{fill:#fff;}.cls-3{fill:gray;}</style></defs><path class="cls-1" d="M103.72,162.66H102l-1.89-2.72-.07-.13a2.17,2.17,0,0,1-.1-.21h0v3.06H98.54v-6.34h1.38v2.94h0l.08-.14a1.89,1.89,0,0,1,.1-.21l1.79-2.59h1.61l-2.22,3Z"/><path class="cls-1" d="M106.87,162.77a2.93,2.93,0,0,1-2.21-.89,3.19,3.19,0,0,1-.86-2.31,3.41,3.41,0,0,1,.87-2.43,3,3,0,0,1,2.3-.92,2.88,2.88,0,0,1,2.19.88,3.29,3.29,0,0,1,.83,2.35,3.36,3.36,0,0,1-.86,2.4A3,3,0,0,1,106.87,162.77Zm0-1.2a1.49,1.49,0,0,0,1.21-.54,2.34,2.34,0,0,0,.44-1.51,2.46,2.46,0,0,0-.43-1.55,1.39,1.39,0,0,0-1.18-.56,1.48,1.48,0,0,0-1.22.57,2.39,2.39,0,0,0-.45,1.52,2.32,2.32,0,0,0,.45,1.51A1.45,1.45,0,0,0,106.89,161.57Z"/><path class="cls-1" d="M115.18,157.45h-1.81v5.21H112v-5.21h-1.81v-1.13h5Z"/><path class="cls-1" d="M114.82,162.66l2.31-6.34h1.64l2.26,6.34h-1.51l-.44-1.35h-2.33l-.43,1.35Zm2.24-2.43h1.69L118,158c0-.08-.05-.16-.07-.22a1.33,1.33,0,0,1,0-.24h0c0,.08,0,.16,0,.23l-.06.21Z"/><path class="cls-1" d="M128.81,157.45H127v5.21h-1.38v-5.21h-1.81v-1.13h5Z"/><path class="cls-1" d="M128.45,162.66l2.31-6.34h1.64l2.26,6.34h-1.51l-.44-1.35h-2.33l-.43,1.35Zm2.24-2.43h1.69l-.71-2.24c0-.08,0-.16-.07-.22a1.33,1.33,0,0,1,0-.24h0c0,.08,0,.16,0,.23l-.06.21Z"/><path class="cls-1" d="M141.2,162.66h-1.4l-2.65-4-.19-.3c-.05-.09-.09-.16-.12-.23h0q0,.16,0,.42v4.16h-1.3v-6.34h1.5l2.55,3.93c.06.09.12.17.17.26l.15.25h0a2.06,2.06,0,0,1,0-.33c0-.14,0-.32,0-.54v-3.57h1.3Z"/><path class="cls-1" d="M145.35,160.6a1.93,1.93,0,0,1-2.15,2.16,2.93,2.93,0,0,1-.58-.06,2.59,2.59,0,0,1-.6-.19l.42-1.06a2,2,0,0,0,.32.13,1,1,0,0,0,.32,0,.82.82,0,0,0,.65-.24,1.17,1.17,0,0,0,.22-.78l0-4.28h1.38Z"/><path class="cls-1" d="M152,159.92a3.07,3.07,0,0,1-.66,2.13,2.59,2.59,0,0,1-2,.72,2.47,2.47,0,0,1-1.92-.7,3,3,0,0,1-.64-2.09v-3.66h1.38V160a1.9,1.9,0,0,0,.31,1.17,1.12,1.12,0,0,0,.93.39,1.09,1.09,0,0,0,.9-.38,1.73,1.73,0,0,0,.31-1.13v-3.74H152Z"/><path class="cls-1" d="M159.1,162.66h-1.41l-2.65-4a3.23,3.23,0,0,0-.19-.3c0-.09-.09-.16-.12-.23h0q0,.16,0,.42c0,.17,0,.37,0,.6v3.56h-1.31v-6.34h1.5l2.56,3.93.16.26a2.36,2.36,0,0,1,.15.25h0q0-.1,0-.33c0-.14,0-.32,0-.54v-3.57h1.31Z"/><path class="cls-1" d="M165.82,162.18a4.29,4.29,0,0,1-1,.43,5.07,5.07,0,0,1-1.27.16,3.45,3.45,0,0,1-2.39-.8,3,3,0,0,1-.89-2.38,3.37,3.37,0,0,1,.91-2.42,3.32,3.32,0,0,1,2.5-.95,5.42,5.42,0,0,1,1.1.1,5.66,5.66,0,0,1,1,.33l-.45,1.07a4.9,4.9,0,0,0-.82-.27,4.6,4.6,0,0,0-.87-.08,1.89,1.89,0,0,0-1.43.55,2.2,2.2,0,0,0-.53,1.6,2.15,2.15,0,0,0,.52,1.58,1.89,1.89,0,0,0,1.37.51,3.17,3.17,0,0,0,.47,0,1.46,1.46,0,0,0,.37-.12v-1.27h-1.27v-1.11h2.66Z"/><path class="cls-1" d="M168.53,160.56v2.1h-1.38v-6.34h2.2a2.61,2.61,0,0,1,1.78.52,1.92,1.92,0,0,1,.6,1.54A2,2,0,0,1,171,160a2.65,2.65,0,0,1-1.82.6Zm0-3.17v2.12h.57a1.27,1.27,0,0,0,.88-.27,1,1,0,0,0,.29-.8,1,1,0,0,0-.29-.79,1.27,1.27,0,0,0-.87-.26Z"/><path class="cls-1" d="M174.14,162.66h-1.38v-6.34h1.38Z"/><path class="cls-1" d="M181.34,162.66h-1.41l-2.65-4-.19-.3c-.05-.09-.09-.16-.12-.23h0q0,.16,0,.42c0,.17,0,.37,0,.6v3.56h-1.31v-6.34h1.5l2.56,3.93.16.26a2.36,2.36,0,0,1,.15.25h0q0-.1,0-.33c0-.14,0-.32,0-.54v-3.57h1.31Z"/><path class="cls-1" d="M182.21,162.66l2.31-6.34h1.63l2.26,6.34H186.9l-.44-1.35h-2.32l-.44,1.35Zm2.23-2.43h1.7l-.72-2.24c0-.08,0-.16-.07-.22s0-.15,0-.24h0c0,.08,0,.16,0,.23l-.06.21Z"/><path class="cls-1" d="M195,162.66h-1.4l-2.65-4-.19-.3c-.05-.09-.09-.16-.12-.23h0q0,.16,0,.42v4.16h-1.3v-6.34h1.5l2.56,3.93.16.26a2.36,2.36,0,0,1,.15.25h0q0-.1,0-.33c0-.14,0-.32,0-.54v-3.57H195Z"/><path class="cls-1" d="M201.68,162.18a4.2,4.2,0,0,1-1,.43,5,5,0,0,1-1.27.16A3.44,3.44,0,0,1,197,162a3,3,0,0,1-.89-2.38,3.37,3.37,0,0,1,.91-2.42,3.3,3.3,0,0,1,2.5-.95,5.42,5.42,0,0,1,1.1.1,5.57,5.57,0,0,1,1,.33l-.44,1.07a4.9,4.9,0,0,0-.82-.27,4.6,4.6,0,0,0-.87-.08,1.88,1.88,0,0,0-1.43.55,2.2,2.2,0,0,0-.53,1.6,2.1,2.1,0,0,0,.52,1.58,1.87,1.87,0,0,0,1.37.51,3.3,3.3,0,0,0,.47,0,1.61,1.61,0,0,0,.37-.12v-1.27H199v-1.11h2.66Z"/><path class="cls-1" d="M17.09,149.34v-9.8h2.7a5.59,5.59,0,0,1,3.89,1.19A4.66,4.66,0,0,1,25,144.32,4.8,4.8,0,0,1,23.54,148a5.35,5.35,0,0,1-3.86,1.38Zm1.14-8.76v7.72H19.7a4.16,4.16,0,0,0,3-1,3.89,3.89,0,0,0,1.07-2.93,3.67,3.67,0,0,0-1-2.82,4.23,4.23,0,0,0-3-.94Z"/><path class="cls-1" d="M28.05,149.34H26.9v-9.8h1.15Z"/><path class="cls-1" d="M38.53,149.34H37.12l-5-7.81a3.14,3.14,0,0,1-.18-.31,2.92,2.92,0,0,1-.14-.31h0a4.15,4.15,0,0,1,0,.49c0,.23,0,.51,0,.86v7.08H30.63v-9.8h1.49L37,147.23c.1.16.19.29.25.4a1.84,1.84,0,0,1,.14.25h0c0-.14,0-.33-.05-.57s0-.53,0-.87v-6.9h1.15Z"/><path class="cls-1" d="M40,149.34l3.76-9.8h1.19l3.77,9.8H47.42l-1-2.62H42.18l-.94,2.62Zm2.59-3.66h3.49l-1.59-4.3a1.83,1.83,0,0,1-.07-.26c0-.11,0-.24-.08-.39h0c0,.13,0,.26-.08.37a1.58,1.58,0,0,1-.08.28Z"/><path class="cls-1" d="M49.28,148.59l.56-.86a4.37,4.37,0,0,0,1.21.56,4.91,4.91,0,0,0,1.4.18,2.42,2.42,0,0,0,1.47-.42,1.41,1.41,0,0,0,.58-1.22,1.43,1.43,0,0,0-.49-1.15,5.15,5.15,0,0,0-1.6-.84,5.86,5.86,0,0,1-2-1.12,2.18,2.18,0,0,1-.67-1.65,2.45,2.45,0,0,1,.87-1.95,3.34,3.34,0,0,1,2.27-.75,6.14,6.14,0,0,1,1.29.14,6.77,6.77,0,0,1,1.3.46l-.44.92a4.84,4.84,0,0,0-1.09-.37,5.11,5.11,0,0,0-1.14-.12,2.22,2.22,0,0,0-1.4.41,1.41,1.41,0,0,0-.51,1.15,1.24,1.24,0,0,0,.47,1,5.46,5.46,0,0,0,1.58.78A5.77,5.77,0,0,1,55,145a2.46,2.46,0,0,1,.64,1.77,2.6,2.6,0,0,1-.86,2,3.44,3.44,0,0,1-2.42.79,5.94,5.94,0,0,1-1.62-.21A5.78,5.78,0,0,1,49.28,148.59Z"/><path class="cls-1" d="M63.45,146.13v3.21H61.24v-9.8H64.7a4.14,4.14,0,0,1,2.78.8,3,3,0,0,1,.92,2.4,3.08,3.08,0,0,1-1.06,2.45,4.13,4.13,0,0,1-2.84.94Zm0-4.9v3.22h.87a1.91,1.91,0,0,0,1.32-.4,1.6,1.6,0,0,0,.44-1.22,1.53,1.53,0,0,0-.44-1.2,2,2,0,0,0-1.32-.4Z"/><path class="cls-1" d="M75.72,149.34H69.84v-9.8h5.65v1.8H72.05v2.18h3.2v1.79h-3.2v2.24h3.67Z"/><path class="cls-1" d="M85.25,149.34H82.76l-1.31-2.41a3.59,3.59,0,0,0-.63-.89,1.16,1.16,0,0,0-.73-.34H79.5v3.64H77.29v-9.8h3.5a4.36,4.36,0,0,1,2.68.69,2.49,2.49,0,0,1,.89,2.08,2.57,2.57,0,0,1-.58,1.69,3.27,3.27,0,0,1-1.57,1v0a1.81,1.81,0,0,1,.82.57,6.09,6.09,0,0,1,.65.91Zm-5.75-8.15V144h1a1.52,1.52,0,0,0,1.14-.43,1.44,1.44,0,0,0,.43-1.07,1.24,1.24,0,0,0-.38-1,1.66,1.66,0,0,0-1.15-.34Z"/><path class="cls-1" d="M88.64,146.13v3.21H86.43v-9.8h3.46a4.14,4.14,0,0,1,2.78.8,3,3,0,0,1,.92,2.4,3.08,3.08,0,0,1-1.06,2.45,4.11,4.11,0,0,1-2.84.94Zm0-4.9v3.22h.87a1.91,1.91,0,0,0,1.32-.4,1.6,1.6,0,0,0,.44-1.22,1.53,1.53,0,0,0-.44-1.2,2,2,0,0,0-1.32-.4Z"/><path class="cls-1" d="M103,145.1a4.69,4.69,0,0,1-1,3.31,4,4,0,0,1-3.08,1.1,3.89,3.89,0,0,1-3-1.08,4.65,4.65,0,0,1-1-3.25v-5.64h2.22v5.69a2.87,2.87,0,0,0,.46,1.78,1.94,1.94,0,0,0,2.77,0,2.76,2.76,0,0,0,.45-1.72v-5.77H103Z"/><path class="cls-1" d="M104.35,148.69l.92-1.71a6,6,0,0,0,1.28.59,4.32,4.32,0,0,0,1.15.15,1.9,1.9,0,0,0,1.17-.3,1,1,0,0,0,.37-.83,1,1,0,0,0-.3-.78,2.56,2.56,0,0,0-1.11-.45,5.29,5.29,0,0,1-2.38-1.07,2.49,2.49,0,0,1-.75-1.93,2.75,2.75,0,0,1,1-2.12,3.88,3.88,0,0,1,2.7-.87,6.2,6.2,0,0,1,1.42.17,6.13,6.13,0,0,1,1.32.48l-.82,1.74a5,5,0,0,0-1.07-.46,3.56,3.56,0,0,0-.93-.14,1.8,1.8,0,0,0-1,.26.87.87,0,0,0-.37.75.77.77,0,0,0,.34.68,3.55,3.55,0,0,0,1.21.44,4.7,4.7,0,0,1,2.31,1.08,2.76,2.76,0,0,1,.71,2,2.85,2.85,0,0,1-1,2.26,4.19,4.19,0,0,1-2.84.86,7.38,7.38,0,0,1-1.7-.21A6.27,6.27,0,0,1,104.35,148.69Z"/><path class="cls-1" d="M119.88,141.34h-2.8v8h-2.21v-8h-2.78v-1.8h7.79Z"/><path class="cls-1" d="M119.17,149.34l3.57-9.8h2.62l3.49,9.8h-2.41l-.66-2h-3.56l-.65,2Zm3.53-3.77h2.57l-1.09-3.4c0-.14-.07-.25-.09-.35a2.23,2.23,0,0,1-.07-.37h0c0,.14,0,.26-.08.36a2.77,2.77,0,0,1-.09.33Z"/><path class="cls-1" d="M138.18,149.34h-2.75l-2.86-4.18s-.06-.1-.1-.19l-.16-.35h0v4.72h-2.21v-9.8h2.21v4.54h0l.11-.23.17-.31,2.7-4h2.57l-3.37,4.62Z"/><path class="cls-1" d="M138.1,149.34l3.57-9.8h2.62l3.49,9.8h-2.41l-.66-2h-3.56l-.65,2Zm3.53-3.77h2.56l-1.08-3.4-.1-.35c0-.09,0-.22-.06-.37h-.06a2.56,2.56,0,0,1-.07.36,1.73,1.73,0,0,1-.1.33Z"/><path class="cls-1" d="M148,149.34l3.57-9.8h2.61l3.49,9.8h-2.41l-.66-2H151l-.66,2Zm3.52-3.77H154l-1.08-3.4c0-.14-.08-.25-.1-.35a2.23,2.23,0,0,1-.07-.37h0c0,.14-.05.26-.07.36s-.06.21-.1.33Z"/><path class="cls-1" d="M167.66,149.34h-2.23l-4-6.16-.3-.47-.19-.34h0c0,.17,0,.39,0,.65s0,.58,0,.93v5.39h-2.09v-9.8h2.38l3.89,6,.26.4c.08.13.16.26.23.4h0a4.8,4.8,0,0,1,0-.51c0-.23,0-.51,0-.84v-5.42h2.08Z"/><path class="cls-1" d="M173.77,149.34v-9.8h3.47a5.69,5.69,0,0,1,3.92,1.19,4.63,4.63,0,0,1,1.3,3.59A4.82,4.82,0,0,1,181,148a5.27,5.27,0,0,1-3.8,1.37Zm2.2-8v6.21h1.1a3,3,0,0,0,2.25-.86,3.31,3.31,0,0,0,.82-2.35,3,3,0,0,0-.81-2.2,3.08,3.08,0,0,0-2.28-.8Z"/><path class="cls-1" d="M182.82,149.34l3.57-9.8H189l3.49,9.8h-2.41l-.66-2h-3.56l-.65,2Zm3.53-3.77h2.56l-1.08-3.4-.1-.35c0-.09,0-.22-.06-.37h0c0,.14-.05.26-.08.36a1.73,1.73,0,0,1-.1.33Z"/><path class="cls-1" d="M202.54,149.34h-2.23l-4-6.16-.3-.47c-.08-.14-.15-.25-.19-.34h0c0,.17,0,.39,0,.65s0,.58,0,.93v5.39h-2.09v-9.8h2.38l3.89,6c.08.13.17.26.25.4a3.26,3.26,0,0,1,.24.4h0a4.8,4.8,0,0,1,0-.51c0-.23,0-.51,0-.84v-5.42h2.09Z"/><path class="cls-1" d="M216.76,149.34H214l-2.86-4.18s-.06-.1-.1-.19-.1-.21-.15-.35h0v4.72h-2.21v-9.8h2.21v4.54h0c0-.06.06-.14.1-.23l.17-.31,2.71-4h2.56l-3.37,4.62Z"/><path class="cls-1" d="M223.61,149.34h-5.88v-9.8h5.65v1.8h-3.44v2.18h3.2v1.79h-3.2v2.24h3.67Z"/><path class="cls-1" d="M224.32,149.34l3.57-9.8h2.62l3.49,9.8h-2.41l-.66-2h-3.56l-.65,2Zm3.53-3.77h2.57l-1.08-3.4a2.45,2.45,0,0,1-.1-.35,2.23,2.23,0,0,1-.07-.37h0c0,.14-.05.26-.08.36a2.77,2.77,0,0,1-.09.33Z"/><path class="cls-1" d="M243.18,149.34h-2.49l-1.31-2.41a3.59,3.59,0,0,0-.63-.89,1.16,1.16,0,0,0-.73-.34h-.59v3.64h-2.21v-9.8h3.5a4.36,4.36,0,0,1,2.68.69,2.49,2.49,0,0,1,.89,2.08,2.62,2.62,0,0,1-.57,1.69,3.35,3.35,0,0,1-1.58,1v0a1.81,1.81,0,0,1,.82.57,6.09,6.09,0,0,1,.65.91Zm-5.75-8.15V144h1a1.52,1.52,0,0,0,1.14-.43,1.45,1.45,0,0,0,.44-1.07,1.25,1.25,0,0,0-.39-1,1.66,1.66,0,0,0-1.15-.34Z"/><path class="cls-1" d="M243.56,148.69l.92-1.71a5.81,5.81,0,0,0,1.28.59,4.24,4.24,0,0,0,1.14.15,1.86,1.86,0,0,0,1.17-.3,1,1,0,0,0,.38-.83,1,1,0,0,0-.3-.78,2.56,2.56,0,0,0-1.11-.45,5.39,5.39,0,0,1-2.39-1.07,2.52,2.52,0,0,1-.74-1.93,2.77,2.77,0,0,1,1-2.12,3.91,3.91,0,0,1,2.7-.87,6.27,6.27,0,0,1,2.75.65l-.83,1.74a4.73,4.73,0,0,0-1.06-.46,3.69,3.69,0,0,0-.93-.14,1.78,1.78,0,0,0-1,.26.87.87,0,0,0-.37.75.78.78,0,0,0,.33.68,3.62,3.62,0,0,0,1.22.44,4.61,4.61,0,0,1,2.3,1.08,2.72,2.72,0,0,1,.71,2,2.84,2.84,0,0,1-1,2.26,4.2,4.2,0,0,1-2.85.86,7.38,7.38,0,0,1-1.7-.21A6.34,6.34,0,0,1,243.56,148.69Z"/><path class="cls-1" d="M254.42,149.34h-2.21v-9.8h2.21Z"/><path class="cls-1" d="M258.85,146.13v3.21h-2.21v-9.8h3.46a4.1,4.1,0,0,1,2.78.8,3,3,0,0,1,.93,2.4,3.11,3.11,0,0,1-1.06,2.45,4.13,4.13,0,0,1-2.84.94Zm0-4.9v3.22h.87a1.88,1.88,0,0,0,1.32-.4,1.56,1.56,0,0,0,.44-1.22,1.5,1.5,0,0,0-.44-1.2,1.93,1.93,0,0,0-1.32-.4Z"/><path class="cls-1" d="M263.36,149.34l3.57-9.8h2.62l3.49,9.8h-2.41l-.66-2h-3.56l-.65,2Zm3.53-3.77h2.56l-1.08-3.4c0-.14-.07-.25-.09-.35a2.23,2.23,0,0,1-.07-.37h0c0,.14-.05.26-.08.36a1.73,1.73,0,0,1-.1.33Z"/><path class="cls-1" d="M283.08,149.34h-2.23l-4-6.16-.3-.47c-.08-.14-.15-.25-.19-.34h0c0,.17,0,.39,0,.65s0,.58,0,.93v5.39h-2.09v-9.8h2.38l3.89,6,.26.4c.08.13.16.26.23.4h0a4.8,4.8,0,0,1,0-.51c0-.23,0-.51,0-.84v-5.42h2.09Z"/><rect class="cls-1" x="118.99" y="94.12" width="62.03" height="22.34" rx="2.58"/><rect class="cls-2" x="140.06" y="99.75" width="19.88" height="4.36" rx="2.18"/><rect class="cls-3" x="118.99" y="67.83" width="62.03" height="22.34" rx="2.58"/><rect class="cls-2" x="140.06" y="73.45" width="19.88" height="4.36" rx="2.18"/><rect class="cls-1" x="118.99" y="40.65" width="62.03" height="22.34" rx="2.58"/><rect class="cls-2" x="140.06" y="46.28" width="19.88" height="4.36" rx="2.18"/><path class="cls-1" d="M185.2,33.37h0l-15-15.65H129L113.73,33.63a2,2,0,0,1,1-.26h.11a1.89,1.89,0,0,0-1.89,1.89v85.57a1.89,1.89,0,0,0,1.89,1.89h70.4a1.89,1.89,0,0,0,1.89-1.89V35.26A1.89,1.89,0,0,0,185.2,33.37Zm-.74,81.83a4.36,4.36,0,0,1-4.36,4.35H119.9a4.36,4.36,0,0,1-4.36-4.35V40.89a4.36,4.36,0,0,1,4.36-4.35h60.2a4.36,4.36,0,0,1,4.36,4.35Z"/></svg>