<svg id="Layer_1" data-name="Layer 1" xmlns="http://www.w3.org/2000/svg" viewBox="0 0 300 180"><defs><style>.cls-1{fill:#bfc1c2;}.cls-2{fill:#c4c6c7;}.cls-3{fill:#d9dadb;}</style></defs><path class="cls-1" d="M54.1,134.86v-8.4h2.32a4.77,4.77,0,0,1,3.33,1,4,4,0,0,1,1.11,3.08,4.12,4.12,0,0,1-1.23,3.12,4.59,4.59,0,0,1-3.31,1.18Zm1-7.51V134h1.25a3.57,3.57,0,0,0,2.58-.88,3.34,3.34,0,0,0,.92-2.51,3.16,3.16,0,0,0-.86-2.42,3.63,3.63,0,0,0-2.58-.81Z"/><path class="cls-1" d="M63.5,134.86h-1v-8.4h1Z"/><path class="cls-1" d="M72.48,134.86H71.27L67,128.17a2.43,2.43,0,0,1-.15-.26,1.59,1.59,0,0,1-.12-.27h0a3,3,0,0,1,0,.42c0,.19,0,.44,0,.73v6.07h-1v-8.4H67l4.21,6.59.22.35a1.72,1.72,0,0,1,.12.22h0c0-.13,0-.29,0-.5s0-.45,0-.74v-5.92h1Z"/><path class="cls-1" d="M73.71,134.86l3.22-8.4h1l3.23,8.4H80.09l-.84-2.25H75.61l-.81,2.25Zm2.22-3.13h3L77.56,128a1.84,1.84,0,0,1-.06-.23c0-.09,0-.2-.07-.33h0c0,.12,0,.22-.06.32s0,.17-.07.24Z"/><path class="cls-1" d="M81.69,134.22l.48-.74a4.07,4.07,0,0,0,1,.49,4.28,4.28,0,0,0,1.2.15,2.09,2.09,0,0,0,1.26-.36,1.21,1.21,0,0,0,.49-1,1.26,1.26,0,0,0-.41-1,4.55,4.55,0,0,0-1.38-.71,5.11,5.11,0,0,1-1.75-1,1.84,1.84,0,0,1-.57-1.41,2.07,2.07,0,0,1,.74-1.67,2.85,2.85,0,0,1,1.95-.64,5.08,5.08,0,0,1,1.1.12,5.27,5.27,0,0,1,1.11.39l-.37.79a4.67,4.67,0,0,0-.93-.32,4.43,4.43,0,0,0-1-.1,1.87,1.87,0,0,0-1.19.35,1.22,1.22,0,0,0-.44,1,1,1,0,0,0,.4.87,4.64,4.64,0,0,0,1.35.67,5,5,0,0,1,1.82,1,2.07,2.07,0,0,1,.55,1.52,2.22,2.22,0,0,1-.74,1.7,2.9,2.9,0,0,1-2.07.68,4.45,4.45,0,0,1-2.65-.78Z"/><path class="cls-1" d="M93.83,132.11v2.75H91.94v-8.4h3a3.54,3.54,0,0,1,2.38.69,2.56,2.56,0,0,1,.79,2.06,2.64,2.64,0,0,1-.91,2.1,3.56,3.56,0,0,1-2.43.8Zm0-4.2v2.76h.75a1.62,1.62,0,0,0,1.13-.34,1.35,1.35,0,0,0,.38-1.05,1.29,1.29,0,0,0-.38-1,1.68,1.68,0,0,0-1.13-.34Z"/><path class="cls-1" d="M104.35,134.86h-5v-8.4h4.85V128h-3v1.87H104v1.54h-2.74v1.92h3.14Z"/><path class="cls-1" d="M113.26,134.86h-1.91l-3.46-5.28c-.11-.15-.19-.29-.26-.4l-.17-.29h0c0,.15,0,.33,0,.56s0,.49,0,.8v4.61H105.7v-8.4h2l3.33,5.12a4,4,0,0,1,.22.34c.08.11.14.23.21.34h0a3.32,3.32,0,0,1,0-.43c0-.2,0-.44,0-.72v-4.65h1.79Z"/><path class="cls-1" d="M114.28,134.86l3.06-8.4h2.24l3,8.4h-2.06l-.57-1.75h-3l-.56,1.75Zm3-3.23h2.2l-.93-2.91-.08-.3c0-.08,0-.19-.06-.32h0c0,.12,0,.22-.06.31s-.06.18-.09.28Z"/><path class="cls-1" d="M131.18,134.86h-1.91l-3.47-5.28-.25-.4-.17-.29h0c0,.15,0,.33,0,.56s0,.49,0,.8v4.61h-1.79v-8.4h2l3.33,5.12a4,4,0,0,1,.22.34l.2.34h0a3.32,3.32,0,0,1,0-.43c0-.2,0-.44,0-.72v-4.65h1.79Z"/><path class="cls-1" d="M132.2,134.86l3.05-8.4h2.25l3,8.4h-2.07l-.56-1.75h-3.05l-.56,1.75Zm3-3.23h2.2l-.93-2.91-.08-.3c0-.08,0-.19-.06-.32h0c0,.12,0,.22-.06.31l-.08.28Z"/><path class="cls-1" d="M151.11,134.86h-1.87v-5c0-.27,0-.56,0-.86s0-.61.05-.94h-.05c0,.25-.09.48-.13.66a3.25,3.25,0,0,1-.13.45l-2,5.71h-1.54l-2-5.65c0-.08-.06-.22-.1-.41s-.1-.45-.16-.76h-.06c0,.41.05.8.06,1.16s0,.7,0,1v4.64h-1.7v-8.4h2.77l1.71,5c.07.19.13.37.18.55l.12.56h0c0-.21.11-.41.16-.6s.11-.36.17-.52l1.72-5h2.7Z"/><path class="cls-1" d="M152.12,134.86l3.06-8.4h2.24l3,8.4h-2.06l-.57-1.75h-3.05l-.56,1.75Zm3-3.23h2.2l-.93-2.91-.08-.3c0-.08,0-.19-.06-.32h0a2.05,2.05,0,0,1-.07.31l-.08.28Z"/><path class="cls-1" d="M169,134.86h-1.91l-3.47-5.28-.25-.4-.17-.29h0c0,.15,0,.33,0,.56s0,.49,0,.8v4.61h-1.79v-8.4h2l3.33,5.12a4,4,0,0,1,.22.34l.2.34h0a3.32,3.32,0,0,1,0-.43c0-.2,0-.44,0-.72v-4.65H169Z"/><path class="cls-1" d="M183.82,134.86H182v-5c0-.27,0-.56,0-.86s0-.61.05-.94h0c0,.25-.1.48-.14.66a2.27,2.27,0,0,1-.13.45l-2,5.71H178.2l-2-5.65c0-.08-.05-.22-.1-.41s-.1-.45-.16-.76h-.05c0,.41,0,.8.06,1.16s0,.7,0,1v4.64h-1.7v-8.4H177l1.72,5a4.3,4.3,0,0,1,.17.55c.05.19.09.37.13.56h0c.06-.21.11-.41.17-.6a5.3,5.3,0,0,1,.17-.52l1.71-5h2.7Z"/><path class="cls-1" d="M189.28,135a3.92,3.92,0,0,1-2.94-1.17,4.23,4.23,0,0,1-1.13-3.07,4.52,4.52,0,0,1,1.15-3.22,4,4,0,0,1,3.06-1.23,3.8,3.8,0,0,1,2.91,1.18,4.33,4.33,0,0,1,1.11,3.1,4.46,4.46,0,0,1-1.15,3.2A4,4,0,0,1,189.28,135Zm0-1.63a1.9,1.9,0,0,0,1.55-.71,3.05,3.05,0,0,0,.58-2,3.27,3.27,0,0,0-.56-2,1.8,1.8,0,0,0-1.52-.73,1.91,1.91,0,0,0-1.59.75,3.65,3.65,0,0,0,0,4A1.91,1.91,0,0,0,189.32,133.38Z"/><path class="cls-1" d="M194.83,134.86v-8.4h3a4.86,4.86,0,0,1,3.36,1,4,4,0,0,1,1.12,3.08,4.14,4.14,0,0,1-1.22,3.13,4.54,4.54,0,0,1-3.26,1.17Zm1.9-6.86v5.33h.93a2.53,2.53,0,0,0,1.93-.74,2.78,2.78,0,0,0,.7-2,2.55,2.55,0,0,0-.69-1.89,2.64,2.64,0,0,0-1.95-.69Z"/><path class="cls-1" d="M202.6,134.86l3.06-8.4h2.24l3,8.4h-2.06l-.57-1.75h-3l-.56,1.75Zm3-3.23h2.2l-.93-2.91-.08-.3c0-.08,0-.19-.06-.32h-.05c0,.12,0,.22-.06.31s0,.18-.08.28Z"/><path class="cls-1" d="M216.94,134.86h-5v-8.4h1.89v6.87h3.11Z"/><path class="cls-1" d="M221.38,134.86v-8.4h3a4.86,4.86,0,0,1,3.36,1,4,4,0,0,1,1.11,3.08,4.11,4.11,0,0,1-1.22,3.13,4.5,4.5,0,0,1-3.25,1.17Zm1.89-6.86v5.33h.94a2.53,2.53,0,0,0,1.93-.74,2.78,2.78,0,0,0,.7-2,2.55,2.55,0,0,0-.69-1.89,2.64,2.64,0,0,0-2-.69Z"/><path class="cls-1" d="M229.15,134.86l3-8.4h2.25l3,8.4h-2.07l-.56-1.75h-3.05l-.56,1.75Zm3-3.23h2.2l-.93-2.91-.08-.3a1.84,1.84,0,0,1-.06-.32h-.05c0,.12,0,.22-.06.31l-.08.28Z"/><path class="cls-1" d="M246,134.86h-1.91l-3.46-5.28-.26-.4-.16-.29h0c0,.15,0,.33,0,.56s0,.49,0,.8v4.61h-1.78v-8.4h2l3.34,5.12c.07.11.15.22.22.34l.2.34h0c0-.1,0-.24,0-.43s0-.44,0-.72v-4.65H246Z"/><path class="cls-1" d="M52.8,146.51v2.75H50.9v-8.4h3a3.54,3.54,0,0,1,2.38.69,2.56,2.56,0,0,1,.79,2.06,2.64,2.64,0,0,1-.91,2.1,3.56,3.56,0,0,1-2.43.8Zm0-4.2v2.76h.74a1.62,1.62,0,0,0,1.13-.34,1.35,1.35,0,0,0,.38-1,1.29,1.29,0,0,0-.38-1,1.68,1.68,0,0,0-1.13-.34Z"/><path class="cls-1" d="M63.31,149.26h-5v-8.4h4.85v1.54H60.17v1.87h2.74v1.54H60.17v1.92h3.14Z"/><path class="cls-1" d="M69.66,149.26h-5v-8.4h1.89v6.87h3.11Z"/><path class="cls-1" d="M70.16,149.26l3.06-8.4h2.24l3,8.4H76.39l-.57-1.75h-3l-.56,1.75Zm3-3.22h2.2l-.93-2.92-.08-.3c0-.08,0-.19-.06-.32h0a1.31,1.31,0,0,1-.06.31l-.08.28Z"/><path class="cls-1" d="M84.92,140.86l-2.73,5.42v3h-1.9v-2.95l-2.66-5.45h2.16L81.14,144a1,1,0,0,1,.07.21c0,.12.08.27.13.47h0a3,3,0,0,1,.08-.37c0-.11.07-.21.1-.29l1.38-3.16Z"/><path class="cls-1" d="M84.07,149.26l3.06-8.4h2.25l3,8.4H90.3l-.57-1.75h-3l-.57,1.75Zm3-3.22h2.19l-.92-2.92c0-.12-.06-.22-.09-.3a2,2,0,0,1,0-.32h0c0,.12,0,.22-.06.31a2.22,2.22,0,0,1-.09.28Z"/><path class="cls-1" d="M101,149.26H99.06L95.6,144l-.26-.4-.16-.29h0c0,.15,0,.33,0,.56s0,.49,0,.8v4.61H93.41v-8.4h2L98.79,146l.22.34.2.34h0a3.73,3.73,0,0,1,0-.43c0-.2,0-.44,0-.72v-4.65H101Z"/><path class="cls-1" d="M102,149.26l3.06-8.4h2.24l3,8.4h-2.06l-.57-1.75H104.6l-.56,1.75Zm3-3.22h2.2l-.92-2.92q-.06-.18-.09-.3a2,2,0,0,1,0-.32h-.05c0,.12,0,.22-.06.31a2.22,2.22,0,0,1-.09.28Z"/><path class="cls-1" d="M118.89,149.26H117L113.52,144c-.11-.15-.19-.29-.26-.4s-.13-.21-.17-.29h0c0,.15,0,.33,0,.56s0,.49,0,.8v4.61h-1.79v-8.4h2L116.7,146a4,4,0,0,1,.22.34c.08.11.14.23.21.34h0a3.32,3.32,0,0,1,0-.43c0-.2,0-.44,0-.72v-4.65h1.79Z"/><path class="cls-1" d="M130,142.4h-2.4v6.86h-1.9V142.4h-2.38v-1.54H130Z"/><path class="cls-1" d="M136.19,149.26h-5v-8.4H136v1.54h-2.95v1.87h2.74v1.54h-2.74v1.92h3.14Z"/><path class="cls-1" d="M144.37,149.26h-2.14l-1.12-2.06a3.19,3.19,0,0,0-.54-.77,1,1,0,0,0-.63-.29h-.51v3.12h-1.89v-8.4h3a3.64,3.64,0,0,1,2.29.6,2.11,2.11,0,0,1,.77,1.78,2.24,2.24,0,0,1-.49,1.44,2.83,2.83,0,0,1-1.35.9v0a1.58,1.58,0,0,1,.7.49,4.43,4.43,0,0,1,.55.78Zm-4.94-7v2.43h.82a1.34,1.34,0,0,0,1-.37,1.25,1.25,0,0,0,.37-.91,1.07,1.07,0,0,0-.33-.86,1.48,1.48,0,0,0-1-.29Z"/><path class="cls-1" d="M147.27,146.51v2.75h-1.9v-8.4h3a3.54,3.54,0,0,1,2.38.69,2.56,2.56,0,0,1,.79,2.06,2.64,2.64,0,0,1-.91,2.1,3.56,3.56,0,0,1-2.43.8Zm0-4.2v2.76H148a1.67,1.67,0,0,0,1.14-.34,1.39,1.39,0,0,0,.37-1,1.32,1.32,0,0,0-.37-1,1.72,1.72,0,0,0-1.14-.34Z"/><path class="cls-1" d="M151.13,149.26l3.06-8.4h2.25l3,8.4h-2.06l-.57-1.75h-3l-.57,1.75Zm3-3.22h2.19l-.92-2.92c0-.12-.06-.22-.09-.3a2,2,0,0,1-.05-.32h0c0,.12,0,.22-.06.31a2.22,2.22,0,0,1-.09.28Z"/><path class="cls-1" d="M160.47,149.26v-8.4h3a4.86,4.86,0,0,1,3.36,1,4,4,0,0,1,1.12,3.08,4.14,4.14,0,0,1-1.22,3.13,4.52,4.52,0,0,1-3.26,1.17Zm1.9-6.86v5.33h.93a2.57,2.57,0,0,0,1.94-.74,2.82,2.82,0,0,0,.69-2,2.55,2.55,0,0,0-.69-1.89,2.64,2.64,0,0,0-2-.69Z"/><path class="cls-1" d="M176.17,145.63a4,4,0,0,1-.88,2.83,3.46,3.46,0,0,1-2.65.95,3.34,3.34,0,0,1-2.56-.92,4,4,0,0,1-.86-2.79v-4.84h1.9v4.88a2.43,2.43,0,0,0,.4,1.53,1.64,1.64,0,0,0,2.37,0,2.32,2.32,0,0,0,.39-1.47v-4.95h1.89Z"/><path class="cls-1" d="M180.62,148.71l.79-1.47a4.43,4.43,0,0,0,1.1.5,3.52,3.52,0,0,0,1,.14,1.53,1.53,0,0,0,1-.27.84.84,0,0,0,.32-.71.83.83,0,0,0-.25-.66,2.14,2.14,0,0,0-.95-.39,4.51,4.51,0,0,1-2.05-.92,2.15,2.15,0,0,1-.64-1.65,2.36,2.36,0,0,1,.83-1.81,3.31,3.31,0,0,1,2.31-.75,5.29,5.29,0,0,1,2.36.55l-.71,1.5a3.89,3.89,0,0,0-.91-.4,3,3,0,0,0-.8-.11,1.54,1.54,0,0,0-.89.22.73.73,0,0,0-.31.64.67.67,0,0,0,.29.58,3.17,3.17,0,0,0,1,.38,4,4,0,0,1,2,.92,2.35,2.35,0,0,1,.61,1.74,2.44,2.44,0,0,1-.84,1.93,3.59,3.59,0,0,1-2.44.74,6.4,6.4,0,0,1-1.46-.18A5.5,5.5,0,0,1,180.62,148.71Z"/><path class="cls-1" d="M187.13,149.26l3.06-8.4h2.25l3,8.4h-2.06l-.57-1.75h-3l-.57,1.75Zm3-3.22h2.19l-.92-2.92c0-.12-.06-.22-.09-.3a2,2,0,0,1-.05-.32h0c0,.12,0,.22-.06.31a2.22,2.22,0,0,1-.09.28Z"/><path class="cls-1" d="M201.53,142.4h-2.4v6.86h-1.89V142.4h-2.39v-1.54h6.68Z"/><path class="cls-1" d="M209.52,145.63a4,4,0,0,1-.88,2.83,3.47,3.47,0,0,1-2.65.95,3.36,3.36,0,0,1-2.57-.92,4,4,0,0,1-.85-2.79v-4.84h1.9v4.88a2.5,2.5,0,0,0,.39,1.53,1.44,1.44,0,0,0,1.2.51,1.42,1.42,0,0,0,1.18-.5,2.33,2.33,0,0,0,.38-1.47v-4.95h1.9Z"/><path class="cls-1" d="M216.55,146.51v2.75h-1.89v-8.4h3a3.54,3.54,0,0,1,2.38.69,2.56,2.56,0,0,1,.8,2.06,2.67,2.67,0,0,1-.91,2.1,3.59,3.59,0,0,1-2.44.8Zm0-4.2v2.76h.74a1.65,1.65,0,0,0,1.14-.34,1.39,1.39,0,0,0,.37-1,1.32,1.32,0,0,0-.37-1,1.7,1.7,0,0,0-1.14-.34Z"/><path class="cls-1" d="M223.92,149.26H222v-8.4h1.89Z"/><path class="cls-1" d="M233.39,149.26h-1.91L228,144l-.25-.4c-.07-.12-.13-.21-.17-.29h0c0,.15,0,.33,0,.56s0,.49,0,.8v4.61h-1.79v-8.4h2L231.2,146a4,4,0,0,1,.22.34,3,3,0,0,1,.2.34h0a3.32,3.32,0,0,1,0-.43c0-.2,0-.44,0-.72v-4.65h1.79Z"/><path class="cls-1" d="M241.2,142.4h-2.39v6.86h-1.9V142.4h-2.39v-1.54h6.68Z"/><path class="cls-1" d="M249.19,145.63a4,4,0,0,1-.88,2.83,3.46,3.46,0,0,1-2.65.95,3.34,3.34,0,0,1-2.56-.92,4,4,0,0,1-.86-2.79v-4.84h1.9v4.88a2.43,2.43,0,0,0,.4,1.53,1.64,1.64,0,0,0,2.37,0,2.32,2.32,0,0,0,.39-1.47v-4.95h1.89Z"/><path class="cls-1" d="M104.25,162.65h-1.78L100.62,160l-.07-.13c0-.06-.06-.13-.1-.22h0v3H99v-6.33h1.42v2.94h0a1.07,1.07,0,0,0,.07-.15l.11-.2,1.75-2.59H104l-2.18,3Z"/><path class="cls-1" d="M107.29,162.76a3,3,0,0,1-2.22-.88,3.18,3.18,0,0,1-.85-2.31,3.41,3.41,0,0,1,.87-2.43,3,3,0,0,1,2.3-.92,2.86,2.86,0,0,1,2.19.88,3.29,3.29,0,0,1,.84,2.34,3.35,3.35,0,0,1-.87,2.41A3,3,0,0,1,107.29,162.76Zm0-1.23a1.42,1.42,0,0,0,1.17-.53,2.27,2.27,0,0,0,.43-1.48,2.48,2.48,0,0,0-.42-1.53,1.38,1.38,0,0,0-1.15-.55,1.42,1.42,0,0,0-1.19.57,2.74,2.74,0,0,0,0,3A1.42,1.42,0,0,0,107.32,161.53Z"/><path class="cls-1" d="M115.55,157.48h-1.8v5.17h-1.43v-5.17h-1.8v-1.16h5Z"/><path class="cls-1" d="M115.1,162.65l2.3-6.33h1.69l2.26,6.33h-1.56l-.43-1.32h-2.29l-.43,1.32Zm2.28-2.43H119l-.7-2.2a2.18,2.18,0,0,0-.06-.22,1.19,1.19,0,0,1,0-.24h0c0,.09,0,.16,0,.23l-.07.21Z"/><path class="cls-1" d="M129.07,157.48h-1.8v5.17h-1.43v-5.17H124v-1.16h5Z"/><path class="cls-1" d="M128.62,162.65l2.3-6.33h1.7l2.25,6.33h-1.56l-.43-1.32h-2.29l-.43,1.32Zm2.28-2.43h1.65l-.69-2.2-.07-.22c0-.06,0-.14,0-.24h0c0,.09,0,.16,0,.23l-.07.21Z"/><path class="cls-1" d="M141.35,162.65h-1.44l-2.61-4-.19-.31-.12-.22h0q0,.16,0,.42v4.08h-1.34v-6.33h1.53l2.52,3.86.16.26c.06.08.11.17.16.25h0a2.38,2.38,0,0,1,0-.33c0-.14,0-.32,0-.54v-3.5h1.34Z"/><path class="cls-1" d="M145.45,160.58a2.15,2.15,0,0,1-.57,1.63,2.22,2.22,0,0,1-1.61.55,3.05,3.05,0,0,1-.6-.06,3.18,3.18,0,0,1-.62-.2l.44-1.08a1.84,1.84,0,0,0,.32.12,1,1,0,0,0,.32.05.81.81,0,0,0,.65-.24,1.18,1.18,0,0,0,.22-.77l0-4.26h1.42Z"/><path class="cls-1" d="M152,159.91a3,3,0,0,1-.66,2.14,2.6,2.6,0,0,1-2,.71,2.51,2.51,0,0,1-1.93-.69,3,3,0,0,1-.65-2.11v-3.64h1.44V160a1.86,1.86,0,0,0,.3,1.15,1.09,1.09,0,0,0,.9.38,1,1,0,0,0,.88-.37,1.75,1.75,0,0,0,.3-1.11v-3.73H152Z"/><path class="cls-1" d="M159.07,162.65h-1.44l-2.61-4-.2-.31-.12-.22h0q0,.16,0,.42c0,.18,0,.38,0,.6v3.48h-1.35v-6.33h1.54l2.51,3.86.16.26c.06.08.11.17.16.25h0a2.38,2.38,0,0,1,0-.33c0-.14,0-.32,0-.54v-3.5h1.35Z"/><path class="cls-1" d="M165.71,162.18a4,4,0,0,1-1,.43,5.11,5.11,0,0,1-1.28.15A3.49,3.49,0,0,1,161,162a3,3,0,0,1-.89-2.38,3.35,3.35,0,0,1,.91-2.41,3.28,3.28,0,0,1,2.51-1,5.52,5.52,0,0,1,1.11.1,5.28,5.28,0,0,1,1.06.32l-.44,1.1a5.33,5.33,0,0,0-.85-.25,4.06,4.06,0,0,0-.88-.08,1.87,1.87,0,0,0-1.4.53,2.15,2.15,0,0,0-.52,1.58,2.07,2.07,0,0,0,.51,1.55,1.87,1.87,0,0,0,1.34.5,2.13,2.13,0,0,0,.46,0,1.18,1.18,0,0,0,.36-.1v-1.24H163v-1.14h2.69Z"/><path class="cls-1" d="M168.37,160.58v2.07H167v-6.33h2.23a2.62,2.62,0,0,1,1.79.52,1.93,1.93,0,0,1,.6,1.55,2,2,0,0,1-.68,1.59,2.7,2.7,0,0,1-1.84.6Zm0-3.16v2.08h.56a1.22,1.22,0,0,0,.86-.27,1.23,1.23,0,0,0,0-1.56,1.26,1.26,0,0,0-.86-.25Z"/><path class="cls-1" d="M173.93,162.65H172.5v-6.33h1.43Z"/><path class="cls-1" d="M181.06,162.65h-1.44l-2.61-4-.19-.31a1.72,1.72,0,0,1-.12-.22h0c0,.11,0,.25,0,.42s0,.38,0,.6v3.48h-1.34v-6.33h1.53l2.51,3.86a2.33,2.33,0,0,1,.17.26,1.65,1.65,0,0,1,.15.25h0q0-.1,0-.33v-4h1.34Z"/><path class="cls-1" d="M181.83,162.65l2.31-6.33h1.69l2.25,6.33h-1.55l-.43-1.32h-2.3l-.42,1.32Zm2.28-2.43h1.66l-.7-2.2-.07-.22c0-.06,0-.14,0-.24h0c0,.09,0,.16-.05.23l-.06.21Z"/><path class="cls-1" d="M194.57,162.65h-1.44l-2.61-4-.2-.31-.12-.22h0q0,.16,0,.42c0,.18,0,.38,0,.6v3.48h-1.35v-6.33h1.54l2.51,3.86.16.26c.06.08.11.17.16.25h0a2.38,2.38,0,0,1,0-.33c0-.14,0-.32,0-.54v-3.5h1.35Z"/><path class="cls-1" d="M201.21,162.18a4,4,0,0,1-1,.43,5.11,5.11,0,0,1-1.28.15,3.49,3.49,0,0,1-2.4-.79,3,3,0,0,1-.89-2.38,3.35,3.35,0,0,1,.91-2.41,3.28,3.28,0,0,1,2.51-1,5.52,5.52,0,0,1,1.11.1,5.28,5.28,0,0,1,1.06.32l-.44,1.1a5.33,5.33,0,0,0-.85-.25,4.06,4.06,0,0,0-.88-.08,1.87,1.87,0,0,0-1.4.53,2.15,2.15,0,0,0-.52,1.58,2.07,2.07,0,0,0,.51,1.55,1.87,1.87,0,0,0,1.34.5,2.13,2.13,0,0,0,.46,0,1.18,1.18,0,0,0,.36-.1v-1.24h-1.27v-1.14h2.69Z"/><path class="cls-2" d="M150.27,14.76v99l35.49-8.18a.58.58,0,0,0,.44-.56V23a.58.58,0,0,0-.45-.57Zm4.76,52c-1.16,0-2.09-1.22-2.09-2.73s.93-2.72,2.09-2.72,2.09,1.22,2.09,2.72S156.18,66.73,155,66.73Z"/><path class="cls-2" d="M148,101.35h-8.29a.65.65,0,0,1-.65-.65V78.4l-4.5,6.66V105a.65.65,0,0,0,.65.65H148a.65.65,0,0,0,.65-.65v-3A.65.65,0,0,0,148,101.35Z"/><path class="cls-2" d="M148,22.87H135.24a.65.65,0,0,0-.65.65v19.9l4.5,6.66V27.94a.65.65,0,0,1,.65-.65l8.29,0a.65.65,0,0,0,.65-.65V23.52A.65.65,0,0,0,148,22.87Z"/><polygon class="cls-3" points="146.77 64.24 127.53 35.78 127.53 48.54 113.8 53.63 113.8 75.17 127.53 79.94 127.53 92.7 146.77 64.24"/></svg>