<svg id="Layer_1" data-name="Layer 1" xmlns="http://www.w3.org/2000/svg" viewBox="0 0 180 180"><defs><style>.cls-1{fill:#c4c6c7;}.cls-2{fill:#d9dadb;}</style></defs><path class="cls-1" d="M90.49,0V180L155,165.12a1,1,0,0,0,.81-1v-149a1,1,0,0,0-.82-1Zm8.66,94.52c-2.1,0-3.81-2.22-3.81-5s1.71-4.95,3.81-4.95,3.8,2.21,3.8,4.95S101.25,94.52,99.15,94.52Z"/><path class="cls-1" d="M86.41,157.5H71.34a1.18,1.18,0,0,1-1.19-1.18V115.76L62,127.86v36.21a1.18,1.18,0,0,0,1.19,1.18H86.41a1.18,1.18,0,0,0,1.18-1.18v-5.39A1.18,1.18,0,0,0,86.41,157.5Z"/><path class="cls-1" d="M86.41,14.75H63.16A1.18,1.18,0,0,0,62,15.93V52.14l8.18,12.1V24a1.18,1.18,0,0,1,1.18-1.19l15.08-.06a1.18,1.18,0,0,0,1.18-1.18V15.93A1.18,1.18,0,0,0,86.41,14.75Z"/><polygon class="cls-2" points="84.12 90 49.13 38.24 49.13 61.44 24.15 70.7 24.15 109.89 49.13 118.56 49.13 141.76 84.12 90"/></svg>