<svg id="Layer_1" data-name="Layer 1" xmlns="http://www.w3.org/2000/svg" viewBox="0 0 180 180"><defs><style>.cls-1{fill:#c4c6c7;}.cls-2{fill:#4b4b4b;}</style></defs><path class="cls-1" d="M90,175.09a82.14,82.14,0,0,0,82.08-76H7.94A82.15,82.15,0,0,0,90,175.09Z"/><path class="cls-2" d="M90,180.09A87.14,87.14,0,0,1,2.79,96.71L2.67,94.1h174.7l-.12,2.61A87.14,87.14,0,0,1,90,180.09ZM7.94,99.1a82.32,82.32,0,0,0,164.16,0Z"/><path class="cls-2" d="M64.61,115.85A93.18,93.18,0,0,1,67,104.46,38.84,38.84,0,0,1,58,107c-10.66,1.78-7.49,12.76-7.49,12.76a33.53,33.53,0,0,1,14.2-12.79C55.45,112.5,50.83,120,47.22,131.64c-.27,0-.53,0-.8,0a35.2,35.2,0,0,0-3.86-12.95c2.13-12.52-6-15.25-18-14.26a39.05,39.05,0,0,1,1.86,4.82c.23,1.2,1.45,7.72,6.4,9.13a31.21,31.21,0,0,0,8.06,1c2,2.23,3.43,6.13,3.79,12.53-2.18.54-3.84,1.74-4.12,3.44-4.75-.42-7.17,1.67-8.5,5H64.25c.43-4.36-4.48-6-7.07-1.69-.9-4.25-4.49-6.38-8.1-6.89.37-2.83,1.64-6.24,4.33-10.58C53.41,121.18,62.85,126.07,64.61,115.85Z"/><path class="cls-2" d="M143.33,108.38a39.11,39.11,0,0,1,1-4.63,16,16,0,0,1-3.67,1c-4.33.72-3,5.18-3,5.18a13.61,13.61,0,0,1,5.77-5.2c-3.76,2.27-5.64,5.32-7.11,10h-.32a14.27,14.27,0,0,0-1.57-5.26c.87-5.08-2.44-6.19-7.33-5.79a17,17,0,0,1,.76,2c.09.49.59,3.14,2.6,3.71a12.49,12.49,0,0,0,3.27.41c.84.91,1.39,2.49,1.54,5.09-.88.22-1.56.7-1.67,1.4a3,3,0,0,0-3.46,2h13.1c.17-1.77-1.82-2.42-2.87-.69a3.68,3.68,0,0,0-3.29-2.8,11.2,11.2,0,0,1,1.76-4.3S142.61,112.53,143.33,108.38Z"/><path class="cls-2" d="M120.47,122.71a34.63,34.63,0,0,1,.92-4.31,14.94,14.94,0,0,1-3.42.94c-4,.67-2.83,4.83-2.83,4.83a12.73,12.73,0,0,1,5.37-4.84c-3.5,2.11-5.25,5-6.62,9.36h-.3a13.31,13.31,0,0,0-1.47-4.9c.81-4.74-2.27-5.78-6.83-5.4a14.17,14.17,0,0,1,.7,1.82c.09.46.55,2.93,2.43,3.46a11.81,11.81,0,0,0,3,.39c.78.84,1.3,2.32,1.44,4.74a1.84,1.84,0,0,0-1.56,1.3,2.82,2.82,0,0,0-3.22,1.88h12.21c.16-1.65-1.7-2.26-2.68-.64a3.42,3.42,0,0,0-3.07-2.61,10.5,10.5,0,0,1,1.64-4S119.81,126.58,120.47,122.71Z"/><path class="cls-2" d="M69.66,155.45a32.8,32.8,0,0,1,.83-3.91,12.86,12.86,0,0,1-3.1.86c-3.65.61-2.56,4.38-2.56,4.38a11.47,11.47,0,0,1,4.86-4.39c-3.17,1.91-4.75,4.49-6,8.47h-.27a12.19,12.19,0,0,0-1.33-4.44c.73-4.29-2.06-5.22-6.18-4.89a13.72,13.72,0,0,1,.63,1.66c.08.41.5,2.64,2.2,3.13a10.61,10.61,0,0,0,2.76.35c.7.76,1.18,2.1,1.3,4.29-.75.19-1.32.6-1.41,1.18a2.56,2.56,0,0,0-2.92,1.7H69.54c.14-1.5-1.54-2-2.43-.58a3.08,3.08,0,0,0-2.78-2.36,9.51,9.51,0,0,1,1.49-3.63S69.06,159,69.66,155.45Z"/><path class="cls-2" d="M149.42,133.72a32.8,32.8,0,0,1,.83-3.91,12.86,12.86,0,0,1-3.09.86c-3.66.61-2.57,4.37-2.57,4.37a11.48,11.48,0,0,1,4.87-4.38c-3.18,1.91-4.76,4.49-6,8.47h-.27a12.19,12.19,0,0,0-1.33-4.44c.73-4.29-2.06-5.22-6.18-4.89a12.2,12.2,0,0,1,.63,1.66c.08.41.5,2.64,2.2,3.13a10.65,10.65,0,0,0,2.76.35c.71.76,1.18,2.1,1.3,4.29a1.71,1.71,0,0,0-1.41,1.18,2.56,2.56,0,0,0-2.92,1.7H149.3c.15-1.5-1.54-2-2.42-.58a3.11,3.11,0,0,0-2.78-2.37,9.33,9.33,0,0,1,1.48-3.62S148.82,137.22,149.42,133.72Z"/><path class="cls-2" d="M93.65,144.22a30.87,30.87,0,0,1,.82-3.83,13.35,13.35,0,0,1-3,.84c-3.59.59-2.52,4.29-2.52,4.29a11.23,11.23,0,0,1,4.77-4.31c-3.11,1.88-4.67,4.41-5.88,8.32h-.27a11.88,11.88,0,0,0-1.3-4.36c.72-4.21-2-5.13-6.07-4.79a12,12,0,0,1,.62,1.62c.08.4.49,2.6,2.16,3.07a10.49,10.49,0,0,0,2.71.34c.69.75,1.15,2.07,1.28,4.22-.74.18-1.3.58-1.39,1.16a2.5,2.5,0,0,0-2.86,1.66H93.53c.14-1.46-1.51-2-2.38-.57a3.05,3.05,0,0,0-2.73-2.32A9.4,9.4,0,0,1,89.88,146S93.06,147.66,93.65,144.22Z"/><path class="cls-2" d="M91.11,116.11a30.91,30.91,0,0,1,.84-3.9,13.4,13.4,0,0,1-3.1.85c-3.66.61-2.57,4.38-2.57,4.38a11.5,11.5,0,0,1,4.87-4.39c-3.17,1.92-4.76,4.49-6,8.48h-.27a11.94,11.94,0,0,0-1.33-4.44c.73-4.29-2-5.23-6.18-4.89a13.75,13.75,0,0,1,.64,1.65c.07.41.49,2.65,2.19,3.13a10.65,10.65,0,0,0,2.76.35c.71.76,1.18,2.1,1.3,4.29a1.71,1.71,0,0,0-1.41,1.18,2.55,2.55,0,0,0-2.91,1.7H91c.15-1.49-1.54-2-2.42-.58a3.09,3.09,0,0,0-2.78-2.36,9.35,9.35,0,0,1,1.49-3.63S90.51,119.62,91.11,116.11Z"/><path class="cls-1" d="M92.1,55.29A21.64,21.64,0,0,0,78.5,60.1l-.77.61-1,0-.77,0c-11.58,0-21,10.11-21,22.53A23.85,23.85,0,0,0,57.4,93.67H111a25.47,25.47,0,0,0,4-13.84C115,66.3,104.71,55.29,92.1,55.29Z"/><path class="cls-1" d="M63.65,23.75C56.07,24.9,49.3,31,48.55,37.4c-.94,8-1.95,14-6,20.1a23.38,23.38,0,0,1,4.69,1.32A23.66,23.66,0,0,1,56.12,65,25.58,25.58,0,0,1,76,55.36h0A27.57,27.57,0,0,1,82,52c1.26-3.71,3.07-10.77.85-15.76h0C77.21,23.69,68.4,23,63.65,23.75Z"/><path class="cls-1" d="M29.75,34l-.47.24-.86.46-1-.17a18.39,18.39,0,0,0-3.95-.44,17.26,17.26,0,0,0-7.58,1.75A17.66,17.66,0,0,0,6.72,46.71,20.38,20.38,0,0,0,8,61.72c.16.33.33.65.51,1A23.15,23.15,0,0,1,32.39,58a24.05,24.05,0,0,1,3.74-.67c5.13-6.09,6.15-11.89,7.17-20.5a14.75,14.75,0,0,1,.57-2.73A16.36,16.36,0,0,0,29.75,34Z"/><path class="cls-1" d="M32.05,63.56l-1-.44c-.17-.07-.33-.15-.5-.21a17.26,17.26,0,0,0-13.82.53,20,20,0,0,0-10,10.78A19.58,19.58,0,0,0,9.39,93.67H51.63a29.31,29.31,0,0,1-1.94-10.49,28.87,28.87,0,0,1,3.38-13.63A18.47,18.47,0,0,0,33,63.28Z"/><path class="cls-1" d="M24.74,44.06c-1.68-.27-3.64.39-5.84,2,1.64,2.52,3.39,4,5.22,4.34s3.85-.28,6.2-1.86C28.49,45.88,26.62,44.37,24.74,44.06Z"/><path class="cls-1" d="M64.07,6.6c-1.56-.68-3.62-.52-6.15.49,1,2.85,2.3,4.69,4,5.49s3.79.69,6.46-.26C67.25,9.28,65.81,7.36,64.07,6.6Z"/><path class="cls-2" d="M92.1,50a27,27,0,0,0-4.13.32c1.25-4.84,2-11.07-.33-16.24-4.42-9.9-10.73-13.79-16.14-15.15a13.15,13.15,0,0,1,2.84-3.47l.42-.2,0-.14a25.52,25.52,0,0,1,3.81-2.79,2.65,2.65,0,1,0-2.65-4.58A30.06,30.06,0,0,0,73,9.68c-1.63-4-3.87-6.64-6.82-7.93C62.67.21,58.53.71,53.54,3.29l-1.85,1,.49,2c1.37,5.66,3.88,9.4,7.45,11.1a10.8,10.8,0,0,0,4.41,1c-.43,0-.83.09-1.19.15A24.74,24.74,0,0,0,46.12,29.26a21.79,21.79,0,0,0-16.79-.78c-1.51-4-3.22-10.72-1.16-15.32A2.65,2.65,0,0,0,23.34,11c-2.66,5.93-1,13.28.52,17.86a22.4,22.4,0,0,0-10.31,2.27,23,23,0,0,0-11.89,14A25.67,25.67,0,0,0,3.21,64,25.08,25.08,0,0,0,4.8,66.82a25.67,25.67,0,0,0-3,5.45A24.76,24.76,0,0,0,6.24,98.11L7,99H55.7l1.37,0,0,0h56.64l.79-1.11a30.66,30.66,0,0,0,5.74-18C120.27,63.38,107.63,50,92.1,50ZM57.92,7.09c2.53-1,4.59-1.17,6.15-.49,1.74.76,3.18,2.68,4.3,5.72-2.67.95-4.83,1-6.46.26S58.88,9.94,57.92,7.09Zm5.73,16.66c4.75-.72,13.56-.06,19.16,12.48h0C85,41.22,83.22,48.28,82,52l0,0c-.34.14-.67.3-1,.45l-.8.38c-.29.14-.57.29-.86.45l0,0c-.64-5.67-2.62-15-8.82-20.2A2.64,2.64,0,0,0,67,37.18c5.35,4.47,6.73,13.75,7.09,18.26h0l-.85.07-.67.09-.67.1c-.27,0-.53.1-.79.15l-.52.1-.88.22-.39.1c-.33.09-.65.19-1,.3l-.24.07L67,57l-.07,0a26.22,26.22,0,0,0-10.34,7.36l-.09.12-.37.42c-.36-.39-.74-.77-1.12-1.15l-.34-.31c-.3-.28-.6-.55-.92-.81l-.37-.31q-.6-.48-1.23-.93l-.07-.05c-.45-.31-.91-.6-1.37-.88l-.42-.24c-.35-.2-.7-.39-1.07-.57l-.43-.22c-.5-.24-1-.46-1.51-.67s-1.05-.39-1.59-.56l-.4-.12c-.51-.15-1-.29-1.55-.41l-.36-.07c-.26-.06-.53-.12-.79-.16l0-.06.15-.24c.22-.35.44-.7.65-1.05l.24-.43c.17-.29.33-.58.48-.88l.24-.45c.15-.3.3-.61.43-.91.07-.13.13-.27.19-.41.19-.41.36-.83.53-1.25l0-.06c.17-.44.33-.89.48-1.34,0-.13.09-.27.13-.4.11-.32.21-.64.3-1,0-.16.1-.32.14-.48.09-.31.17-.63.25-.94l.12-.47c.09-.37.17-.74.25-1.12,0-.1.05-.2.07-.29.1-.49.19-1,.28-1.48a2.56,2.56,0,0,0,0-.27l.21-1.25c0-.15.05-.31.07-.47.06-.36.11-.73.17-1.11,0-.16,0-.33.07-.5l.15-1.2.06-.42c.07-.54.13-1.09.2-1.65,0-.35.11-.7.18-1,0-.12.06-.24.1-.37s.12-.45.19-.67l.14-.42c.12-.33.25-.66.4-1l0,0C51.89,28.89,57.5,24.68,63.65,23.75Zm-56.93,23a17.66,17.66,0,0,1,9.14-10.83,17.26,17.26,0,0,1,7.58-1.75,18.39,18.39,0,0,1,3.95.44l1,.17.86-.46.47-.24a16.36,16.36,0,0,1,14.12,0c-.08.25-.13.5-.2.75s-.08.31-.11.46a13.81,13.81,0,0,0-.26,1.52c-.07.55-.14,1.1-.2,1.63,0,.09,0,.18,0,.27-.05.43-.11.86-.16,1.28,0,.15,0,.3-.07.45l-.15,1c0,.17,0,.34-.08.51l-.15.93c0,.18-.07.36-.1.54s-.11.57-.16.84-.08.38-.13.57-.11.52-.17.78-.09.38-.14.57-.12.49-.19.73-.11.38-.16.57l-.21.7-.2.57c-.07.22-.15.45-.23.67l-.22.57-.27.64c-.08.19-.16.38-.25.57s-.19.42-.3.62-.19.38-.29.57-.21.41-.33.61-.21.38-.33.57-.24.4-.36.59-.25.39-.38.58l-.4.59-.42.57-.45.59-.47.58-.16.19c-.46,0-.92.12-1.38.19a22.15,22.15,0,0,1,1.32-6.68l1.17-1L36.77,49c.73-1.74,1.61-3.46,2.53-5.26.5-1,1-2,1.5-3A2.65,2.65,0,0,0,36,38.44c-.47,1-1,1.93-1.45,2.89S33.75,43,33.34,43.8c-2.35-2.84-4.9-4.49-7.74-5-3.8-.62-7.69.88-11.89,4.61l-1.55,1.38,1,1.84c2.73,5.14,6.08,8.15,10,8.91a9.65,9.65,0,0,0,2,.2,12.58,12.58,0,0,0,4.57-.94c-.1.71-.16,1.45-.19,2.2l-.92-.19-1.35-.21c-.36,0-.71-.1-1.07-.13s-.88,0-1.32-.06h-.44a22.64,22.64,0,0,0-4.41.42l-.16,0a23.91,23.91,0,0,0-4.18,1.28l-.47.2c-.23.09-.46.17-.68.28s-.36.19-.54.28l-.36.19a25,25,0,0,0-2.44,1.46l-.1.07a23.8,23.8,0,0,0-2.58,2c-.18-.31-.34-.63-.5-1A20.38,20.38,0,0,1,6.72,46.71Zm23.6,1.83c-2.35,1.58-4.43,2.21-6.2,1.86s-3.58-1.82-5.22-4.34c2.2-1.61,4.16-2.27,5.84-2C26.62,44.37,28.49,45.88,30.32,48.54ZM9.39,93.67A19.58,19.58,0,0,1,6.73,74.22a21.13,21.13,0,0,1,2.76-4.89l.61-.73A19.59,19.59,0,0,1,15.73,64h0a17.87,17.87,0,0,1,10.42-2.13l.54.06c.29,0,.57.09.86.15s.57.12.85.19l.63.16c.51.15,1,.31,1.51.51l.59.25.9.4.94-.28q.69-.21,1.38-.36l.46-.1.94-.16.53-.08c.38,0,.77-.08,1.15-.1h.12q1,0,1.92,0l.27,0c.51,0,1,.09,1.53.17l.49.08c.45.08.89.18,1.33.29l.5.13c.58.17,1.16.36,1.72.58s.83.35,1.23.54l.37.19c.27.14.54.28.8.44l.42.25c.24.15.48.3.71.46l.42.29c.23.16.45.33.67.51l.39.31c.23.19.45.39.67.59s.22.19.32.3c.28.26.54.54.8.82l.13.14c.28.31.55.64.81,1,0,.08-.07.16-.11.23-.17.33-.33.66-.49,1s-.21.45-.31.68-.31.73-.46,1.1l-.21.57c-.12.32-.23.65-.34,1s-.12.36-.17.54c-.13.41-.24.82-.35,1.24,0,.1-.06.19-.08.29-.13.52-.24,1-.34,1.57,0,.14,0,.28-.07.41-.07.4-.13.8-.18,1.21,0,.17-.05.35-.07.52,0,.39-.07.78-.1,1.17,0,.16,0,.33,0,.49,0,.54-.05,1.09-.05,1.64s0,1.14.06,1.71l0,.46c0,.47.08.93.14,1.39l0,.33c.08.56.17,1.12.28,1.67,0,.12,0,.23.07.35.09.46.2.92.32,1.38l.09.37c.15.56.31,1.11.5,1.65v0c.13.38.26.77.41,1.14Zm101.59,0H57.4v0c-.1-.19-.18-.39-.27-.59s-.22-.48-.32-.72-.17-.42-.25-.63-.18-.48-.26-.72-.14-.43-.21-.64-.15-.51-.22-.76-.12-.42-.17-.63l-.18-.8c0-.2-.09-.41-.12-.62s-.1-.57-.14-.85-.06-.39-.08-.59-.07-.64-.1-1c0-.16,0-.33,0-.49,0-.49-.05-1-.05-1.47,0-.69,0-1.37.1-2.05l.06-.59c.06-.52.13-1,.22-1.54,0-.17,0-.34.09-.5.13-.65.28-1.3.46-1.93,0-.12.08-.24.11-.36.16-.52.34-1,.53-1.53.06-.17.13-.35.21-.53.2-.48.41-1,.64-1.44.06-.11.11-.23.17-.35.28-.54.58-1.06.89-1.57.11-.17.22-.34.34-.51q.39-.6.81-1.17c.08-.11.16-.23.25-.34.38-.49.78-1,1.2-1.42l.21-.22a21.57,21.57,0,0,1,2.92-2.58l.13-.09a20.06,20.06,0,0,1,3.38-2l.21-.1c.58-.26,1.18-.49,1.78-.7l.19,0c.55-.18,1.11-.34,1.69-.47l.28-.07c.6-.13,1.2-.22,1.82-.3l.39,0c.63-.06,1.27-.1,1.92-.1l.77,0,1,0,.77-.61a22.13,22.13,0,0,1,6.43-3.58l.14-.05a21.39,21.39,0,0,1,7-1.18c12.61,0,22.88,11,22.88,24.54A25.47,25.47,0,0,1,111,93.67Z"/><path class="cls-1" d="M96.32,62.92c9.4-7.19,23.37-27.5,28-43.42l-.19-.08c-12.87-5.29-24.88-4.15-37.56,3.63l7.79,12.51-12.47,1.9C82.47,42.5,85,55,96.32,62.92Z"/><circle class="cls-2" cx="107.34" cy="26.72" r="6"/><path class="cls-1" d="M103.73,173.78A82.15,82.15,0,0,0,172.21,94.3c-1.13-44.64-28.53-64.88-43-72.48C124.21,37.91,111,57.33,101,65.89c14.67,9,28.8,18.37,35.86,26.69,12.34,14.53,17.35,27.26,14.91,37.83-1.88,8.11-7.87,14.42-17.82,18.77l-.47.21c-5.24,2.45-12.24-2-22.84-8.87-7.31-4.69-17.32-5.91-22.33-6.23,2.14,6.2,10.58,12,15.89,15.6,4.78,3.27,7,4.76,6.46,7.28l0,.14c-.92,3.63-5.64,3.88-12.18,4.24-5.28.29-12.16.67-16.22,3C89.41,169.81,96.27,174.34,103.73,173.78Z"/><path class="cls-2" d="M164.72,48c7.35.87,15.28,7.51,15.28,7.51-9.73-24.85-18-27.74-24.84-31.68-4.41-2.53-11.23-2.35-15.52-1.91a86.15,86.15,0,0,0-9.07-5.32v0l-2-.93-2.93-1.38,0,.09c-15-6-29.47-4.13-44.16,5.7l-2.13,1.42,6.27,10.08-9.16,1.39,0,2.26c0,.82.07,19.06,15.18,30.86l-.16.11,3.59,2.28a2.7,2.7,0,0,0,.33.22l.49.3.5.31h0C110.69,78,126,87.89,132.86,96c11.19,13.19,15.83,24.36,13.78,33.22-1.47,6.39-6.45,11.47-14.78,15.11l-.59.27c-2.6,1.21-10.3-3.74-17.74-8.52-11.44-7.36-27.69-7.18-28.38-7.19l-2.63,0,0,2.64c.11,10,11.3,17.62,18.71,22.68.75.52,1.59,1.09,2.33,1.62-1.6.19-3.68.31-5.39.4-7.82.43-17.56,1-22.24,6.75l-1.72,2.14,2.65,2c7.93,5.89,16.1,12,25.57,12,.6,0,1.21,0,1.82-.08l.21,0a87.45,87.45,0,0,0,73-84.68v-.12C177,74.72,171.78,59.61,164.72,48ZM81.92,37.46l12.47-1.9L86.6,23.05c12.68-7.78,24.69-8.92,37.56-3.63l.19.08c-.07.22-.13.44-.2.66s-.13.44-.2.66l-.33,1-.21.62c-.13.38-.28.77-.42,1.15l-.17.48c-.21.54-.42,1.08-.64,1.63l-.19.46-.5,1.2-.28.63-.46,1-.33.7c-.15.33-.3.65-.46,1s-.23.48-.35.72l-.47,1c-.12.24-.25.48-.37.73s-.33.64-.5,1-.25.48-.38.72-.34.64-.52,1-.25.47-.39.71-.36.66-.55,1l-.38.68c-.2.34-.4.69-.61,1l-.35.61-.72,1.18-.27.44c-.67,1.09-1.35,2.16-2,3.22l-.27.4c-.26.38-.51.77-.78,1.15-.11.18-.23.34-.35.52-.23.34-.47.68-.71,1l-.39.55c-.22.31-.44.63-.67.93l-.42.58-.66.88-.42.56-.66.85-.42.54-.67.83-.41.51-.69.83-.39.46-.72.84-.34.39-.89,1-.17.18q-.52.57-1,1.11c-.07.08-.15.15-.23.23l-.79.8c-.12.12-.24.24-.37.35l-.63.61-.41.37-.57.51-.42.36q-.27.24-.54.45l-.42.34-.28.21C85,55,82.47,42.5,81.92,37.46Zm21.81,136.32c-7.46.56-14.32-4-21.47-9.24,4.06-2.32,10.94-2.7,16.22-3,6.54-.36,11.26-.61,12.18-4.24l0-.14c.51-2.52-1.68-4-6.46-7.28-5.31-3.64-13.75-9.4-15.89-15.6,5,.32,15,1.54,22.33,6.23,10.6,6.82,17.6,11.32,22.84,8.87l.47-.21c10-4.35,15.94-10.66,17.82-18.77,2.44-10.57-2.57-23.3-14.91-37.83C129.83,84.26,115.7,74.9,101,65.89c.34-.28.68-.59,1-.9l.24-.23.82-.77.35-.35.74-.73.38-.39c.25-.25.49-.51.73-.77l.39-.4.8-.88c.1-.11.2-.23.31-.34.37-.42.75-.85,1.12-1.29l0-.05c.36-.41.72-.84,1.08-1.28l.35-.43c.26-.31.52-.63.77-1l.41-.51c.25-.31.49-.62.73-.94l.42-.54.74-1,.38-.51q.44-.59.87-1.2l.24-.33c.37-.52.74-1,1.1-1.57.09-.13.17-.26.26-.38l.83-1.22.38-.58.69-1.06c.14-.21.27-.42.4-.63s.45-.7.67-1l.39-.63.69-1.13.34-.56.93-1.59.06-.11c.33-.57.65-1.14,1-1.71l.29-.55c.22-.39.43-.79.64-1.18l.35-.66.57-1.1.34-.67.54-1.11.32-.64c.2-.41.39-.83.58-1.24.08-.17.16-.33.23-.5.26-.58.52-1.15.77-1.73,0-.11.1-.23.14-.34.2-.46.39-.92.58-1.38l.24-.6c.15-.37.3-.75.44-1.12l.24-.66c.14-.35.26-.71.39-1.06s.15-.43.23-.65l.36-1.1.19-.58.06-.19c14.5,7.6,41.9,27.84,43,72.48A82.15,82.15,0,0,1,103.73,173.78Z"/><path class="cls-2" d="M125.35,42.87s26.77,12.07,27.53,14.07-2.69,10.56-8.28,11.39c-4.55-3.52-22.15-20.7-22.15-20.7S122.66,42.87,125.35,42.87Z"/></svg>