<svg id="Layer_1" data-name="Layer 1" xmlns="http://www.w3.org/2000/svg" viewBox="0 0 300 180"><defs><style>.cls-1{fill:#4b4b4b;}.cls-2{fill:#c4c6c7;}</style></defs><path class="cls-1" d="M17,149.34v-8.4H19.3a4.8,4.8,0,0,1,3.34,1A4,4,0,0,1,23.75,145a4.15,4.15,0,0,1-1.24,3.13,4.55,4.55,0,0,1-3.3,1.18Zm1-7.51v6.62h1.25a3.55,3.55,0,0,0,2.57-.88,3.3,3.3,0,0,0,.92-2.51,3.15,3.15,0,0,0-.85-2.42,3.66,3.66,0,0,0-2.58-.81Z"/><path class="cls-1" d="M26.38,149.34h-1v-8.4h1Z"/><path class="cls-1" d="M35.36,149.34h-1.2l-4.33-6.7-.15-.26-.12-.26h0a3.35,3.35,0,0,1,0,.42c0,.19,0,.43,0,.73v6.07h-1v-8.4h1.28l4.21,6.59c.08.14.16.25.22.35a2.28,2.28,0,0,1,.11.21h0a4.58,4.58,0,0,1,0-.49c0-.21,0-.45,0-.74v-5.92h1Z"/><path class="cls-1" d="M36.59,149.34l3.23-8.4h1l3.23,8.4H43l-.85-2.25H38.49l-.8,2.25Zm2.23-3.13h3l-1.36-3.69a1.84,1.84,0,0,1-.06-.23c0-.09,0-.2-.07-.33h0c0,.12,0,.22-.06.32a1.35,1.35,0,0,1-.08.24Z"/><path class="cls-1" d="M44.58,148.7l.48-.74a4.57,4.57,0,0,0,1,.49,4.38,4.38,0,0,0,1.2.15,2.1,2.1,0,0,0,1.27-.36,1.21,1.21,0,0,0,.49-1.05,1.26,1.26,0,0,0-.42-1,4.26,4.26,0,0,0-1.37-.71,5.27,5.27,0,0,1-1.76-1,1.85,1.85,0,0,1-.57-1.41,2.1,2.1,0,0,1,.74-1.67,2.88,2.88,0,0,1,1.95-.64,5,5,0,0,1,1.1.12,5.55,5.55,0,0,1,1.12.39l-.37.79a4,4,0,0,0-.94-.32,4.34,4.34,0,0,0-1-.1,1.87,1.87,0,0,0-1.19.35,1.18,1.18,0,0,0-.44,1,1.07,1.07,0,0,0,.4.88,4.91,4.91,0,0,0,1.35.67,5,5,0,0,1,1.82,1A2.1,2.1,0,0,1,50,147.1a2.23,2.23,0,0,1-.74,1.7,3,3,0,0,1-2.08.68,4.65,4.65,0,0,1-1.38-.19A4.77,4.77,0,0,1,44.58,148.7Z"/><path class="cls-1" d="M56.72,146.59v2.75H54.83v-8.4h3a3.62,3.62,0,0,1,2.39.68,2.59,2.59,0,0,1,.79,2.07,2.67,2.67,0,0,1-.91,2.1,3.59,3.59,0,0,1-2.44.8Zm0-4.2v2.76h.75a1.58,1.58,0,0,0,1.13-.35,1.35,1.35,0,0,0,.38-1,1.33,1.33,0,0,0-.38-1,1.68,1.68,0,0,0-1.13-.34Z"/><path class="cls-1" d="M67.24,149.34h-5v-8.4h4.85v1.54h-3v1.87h2.75v1.53H64.09v1.93h3.15Z"/><path class="cls-1" d="M75.41,149.34H73.27l-1.11-2.07a2.87,2.87,0,0,0-.55-.76,1,1,0,0,0-.62-.29h-.51v3.12H68.59v-8.4h3a3.73,3.73,0,0,1,2.29.59,2.14,2.14,0,0,1,.77,1.79,2.19,2.19,0,0,1-.5,1.44,2.82,2.82,0,0,1-1.34.9v0a1.58,1.58,0,0,1,.7.49,5,5,0,0,1,.55.78Zm-4.93-7v2.43h.82a1.3,1.3,0,0,0,1-.37,1.23,1.23,0,0,0,.37-.91,1.13,1.13,0,0,0-.32-.87,1.49,1.49,0,0,0-1-.28Z"/><path class="cls-1" d="M82.08,142.48h-2.4v6.86h-1.9v-6.86H75.4v-1.54h6.68Z"/><path class="cls-1" d="M81.47,149.34l3.06-8.4h2.24l3,8.4H87.7l-.57-1.75h-3l-.56,1.75Zm3-3.23h2.19l-.92-2.91q-.06-.18-.09-.3a2.16,2.16,0,0,1-.05-.32h0q0,.18-.06.3a1.9,1.9,0,0,1-.09.29Z"/><path class="cls-1" d="M98.37,149.34H96.46L93,144.06l-.26-.4a3.3,3.3,0,0,1-.16-.29h0c0,.14,0,.33,0,.56s0,.49,0,.79v4.62H90.81v-8.4h2l3.33,5.11.23.35.2.34h0a3.33,3.33,0,0,1,0-.44c0-.19,0-.43,0-.71v-4.65h1.79Z"/><path class="cls-1" d="M102.18,149.34h-1.89v-8.4h1.89Z"/><path class="cls-1" d="M103.19,149.34l3.06-8.4h2.25l3,8.4h-2.06l-.57-1.75h-3l-.57,1.75Zm3-3.23h2.19l-.92-2.91q-.06-.18-.09-.3a2.16,2.16,0,0,1-.05-.32h0q0,.18-.06.3a1.9,1.9,0,0,1-.09.29Z"/><path class="cls-1" d="M120.09,149.34h-1.91l-3.46-5.28-.26-.4a3.3,3.3,0,0,1-.16-.29h0c0,.14,0,.33,0,.56s0,.49,0,.79v4.62h-1.79v-8.4h2l3.34,5.11.22.35.2.34h0a2.36,2.36,0,0,1,0-.44c0-.19,0-.43,0-.71v-4.65h1.79Z"/><path class="cls-1" d="M123.58,147.87l-.86,3h-1.44l.6-3Z"/><path class="cls-1" d="M130.47,146.59v2.75h-1.89v-8.4h3a3.59,3.59,0,0,1,2.38.68,2.6,2.6,0,0,1,.8,2.07,2.7,2.7,0,0,1-.91,2.1,3.59,3.59,0,0,1-2.44.8Zm0-4.2v2.76h.74a1.61,1.61,0,0,0,1.14-.35,1.35,1.35,0,0,0,.37-1,1.32,1.32,0,0,0-.37-1,1.7,1.7,0,0,0-1.14-.34Z"/><path class="cls-1" d="M134.33,149.34l3.06-8.4h2.25l3,8.4h-2.07l-.56-1.75H137l-.56,1.75Zm3-3.23h2.2l-.93-2.91c0-.12-.06-.22-.08-.3a1.3,1.3,0,0,1-.06-.32h-.05q0,.18-.06.3c0,.09,0,.19-.08.29Z"/><path class="cls-1" d="M151.23,149.34h-1.91l-3.46-5.28-.26-.4-.16-.29h0c0,.14,0,.33,0,.56s0,.49,0,.79v4.62h-1.79v-8.4h2l3.34,5.11.22.35.2.34h0c0-.1,0-.24,0-.44s0-.43,0-.71v-4.65h1.78Z"/><path class="cls-1" d="M160.05,148.71a5.18,5.18,0,0,1-1.35.57,6.57,6.57,0,0,1-1.71.21,4.59,4.59,0,0,1-3.17-1.05,4,4,0,0,1-1.19-3.16,4.48,4.48,0,0,1,1.2-3.2,4.36,4.36,0,0,1,3.34-1.28,7.52,7.52,0,0,1,1.47.13,7.75,7.75,0,0,1,1.41.43l-.59,1.47a5.94,5.94,0,0,0-2.29-.45,2.46,2.46,0,0,0-1.86.71,2.89,2.89,0,0,0-.69,2.1,2.74,2.74,0,0,0,.68,2.05,2.46,2.46,0,0,0,1.78.66,3.67,3.67,0,0,0,.61-.05,1.88,1.88,0,0,0,.47-.13v-1.65h-1.68v-1.52h3.57Z"/><path class="cls-1" d="M160.78,149.34l3.06-8.4h2.25l3,8.4H167l-.57-1.75h-3l-.57,1.75Zm3-3.23H166l-.92-2.91c0-.12-.06-.22-.08-.3a1.3,1.3,0,0,1-.06-.32h-.05q0,.18-.06.3c0,.09-.05.19-.08.29Z"/><path class="cls-1" d="M177.68,149.34h-1.91l-3.46-5.28-.26-.4-.16-.29h0c0,.14,0,.33,0,.56s0,.49,0,.79v4.62h-1.79v-8.4h2l3.34,5.11.22.35.2.34h0a3.76,3.76,0,0,1,0-.44c0-.19,0-.43,0-.71v-4.65h1.78Z"/><path class="cls-1" d="M181.17,147.87l-.86,3h-1.44l.6-3Z"/><path class="cls-1" d="M186.17,149.34v-8.4h3a4.84,4.84,0,0,1,3.36,1,4,4,0,0,1,1.12,3.07,4.16,4.16,0,0,1-1.22,3.14,4.52,4.52,0,0,1-3.26,1.17Zm1.89-6.86v5.33H189a2.55,2.55,0,0,0,1.93-.74,2.78,2.78,0,0,0,.7-2,2.52,2.52,0,0,0-.7-1.89,2.63,2.63,0,0,0-1.94-.69Z"/><path class="cls-1" d="M193.93,149.34l3.06-8.4h2.24l3,8.4h-2.06l-.57-1.75h-3.05l-.56,1.75Zm3-3.23h2.2l-.92-2.91q-.06-.18-.09-.3c0-.09,0-.19-.06-.32h0q0,.18-.06.3a1.9,1.9,0,0,1-.09.29Z"/><path class="cls-1" d="M210.83,149.34h-1.91l-3.46-5.28c-.11-.15-.19-.29-.26-.4l-.17-.29h0c0,.14,0,.33,0,.56s0,.49,0,.79v4.62h-1.79v-8.4h2l3.33,5.11.22.35c.08.11.14.23.21.34h0a3.33,3.33,0,0,1,0-.44c0-.19,0-.43,0-.71v-4.65h1.79Z"/><path class="cls-1" d="M218,146.59v2.75h-1.89v-8.4h3a3.61,3.61,0,0,1,2.38.68,2.59,2.59,0,0,1,.79,2.07,2.67,2.67,0,0,1-.91,2.1,3.58,3.58,0,0,1-2.43.8Zm0-4.2v2.76h.75a1.58,1.58,0,0,0,1.13-.35,1.35,1.35,0,0,0,.38-1,1.33,1.33,0,0,0-.38-1,1.68,1.68,0,0,0-1.13-.34Z"/><path class="cls-1" d="M228.47,149.34h-5v-8.4h4.85v1.54h-2.95v1.87h2.74v1.53h-2.74v1.93h3.14Z"/><path class="cls-1" d="M236.65,149.34h-2.14l-1.12-2.07a3.11,3.11,0,0,0-.54-.76,1,1,0,0,0-.63-.29h-.51v3.12h-1.89v-8.4h3a3.73,3.73,0,0,1,2.29.59,2.14,2.14,0,0,1,.77,1.79,2.24,2.24,0,0,1-.49,1.44,2.9,2.9,0,0,1-1.35.9v0a1.58,1.58,0,0,1,.7.49,4.43,4.43,0,0,1,.55.78Zm-4.94-7v2.43h.82a1.34,1.34,0,0,0,1-.37,1.27,1.27,0,0,0,.37-.91,1.1,1.1,0,0,0-.33-.87,1.48,1.48,0,0,0-1-.28Z"/><path class="cls-1" d="M239.55,149.34h-1.9v-8.4h1.9Z"/><path class="cls-1" d="M248.41,149.34h-2.36l-2.45-3.58-.09-.17-.13-.29h0v4h-1.89v-8.4h1.89v3.9h0a1.13,1.13,0,0,1,.09-.2l.14-.27,2.32-3.43h2.2l-2.89,4Z"/><path class="cls-1" d="M248.34,149.34l3.06-8.4h2.24l3,8.4h-2.06l-.57-1.75H251l-.56,1.75Zm3-3.23h2.2l-.92-2.91q-.06-.18-.09-.3a2.16,2.16,0,0,1-.05-.32h-.05q0,.18-.06.3a1.9,1.9,0,0,1-.09.29Z"/><path class="cls-1" d="M265.24,149.34h-1.91l-3.46-5.28c-.11-.15-.19-.29-.26-.4l-.17-.29h0c0,.14,0,.33,0,.56s0,.49,0,.79v4.62h-1.79v-8.4h2l3.33,5.11.22.35c.08.11.14.23.21.34h0a3.33,3.33,0,0,1,0-.44c0-.19,0-.43,0-.71v-4.65h1.79Z"/><path class="cls-1" d="M266.26,149.34l3.06-8.4h2.24l3,8.4h-2.06l-.57-1.75h-3.05l-.56,1.75Zm3-3.23h2.2l-.93-2.91-.08-.3c0-.09,0-.19-.06-.32h0q0,.18-.06.3l-.09.29Z"/><path class="cls-1" d="M283.16,149.34h-1.91l-3.47-5.28-.25-.4-.17-.29h0c0,.14,0,.33,0,.56s0,.49,0,.79v4.62H275.6v-8.4h2l3.33,5.11.22.35.2.34h0a3.33,3.33,0,0,1,0-.44c0-.19,0-.43,0-.71v-4.65h1.79Z"/><path class="cls-1" d="M104.25,162.66h-1.78l-1.85-2.7-.07-.13c0-.06-.06-.13-.1-.22h0v3H99v-6.34h1.42v2.94h0a1.07,1.07,0,0,0,.07-.15l.11-.2,1.75-2.59H104l-2.18,3Z"/><path class="cls-1" d="M107.29,162.77a3,3,0,0,1-2.22-.89,3.18,3.18,0,0,1-.85-2.31,3.41,3.41,0,0,1,.87-2.43,3,3,0,0,1,2.3-.92,2.86,2.86,0,0,1,2.19.88,3.3,3.3,0,0,1,.84,2.35,3.34,3.34,0,0,1-.87,2.4A3,3,0,0,1,107.29,162.77Zm0-1.24a1.42,1.42,0,0,0,1.17-.53,2.27,2.27,0,0,0,.43-1.48,2.48,2.48,0,0,0-.42-1.53,1.38,1.38,0,0,0-1.15-.55,1.42,1.42,0,0,0-1.19.57,2.74,2.74,0,0,0,0,3A1.42,1.42,0,0,0,107.32,161.53Z"/><path class="cls-1" d="M115.55,157.48h-1.8v5.18h-1.43v-5.18h-1.8v-1.16h5Z"/><path class="cls-1" d="M115.1,162.66l2.3-6.34h1.69l2.26,6.34h-1.56l-.43-1.33h-2.29l-.43,1.33Zm2.28-2.44H119l-.7-2.2a2.18,2.18,0,0,0-.06-.22,1.19,1.19,0,0,1,0-.24h0c0,.09,0,.16,0,.23s0,.14-.07.21Z"/><path class="cls-1" d="M129.07,157.48h-1.8v5.18h-1.43v-5.18H124v-1.16h5Z"/><path class="cls-1" d="M128.62,162.66l2.3-6.34h1.7l2.25,6.34h-1.56l-.43-1.33h-2.29l-.43,1.33Zm2.28-2.44h1.65l-.69-2.2-.07-.22c0-.06,0-.14,0-.24h0c0,.09,0,.16,0,.23s0,.14-.07.21Z"/><path class="cls-1" d="M141.35,162.66h-1.44l-2.61-4-.19-.31-.12-.22h0q0,.16,0,.42v4.09h-1.34v-6.34h1.53l2.52,3.86.16.26c.06.08.11.17.16.25h0a2.33,2.33,0,0,1,0-.32c0-.15,0-.33,0-.55v-3.5h1.34Z"/><path class="cls-1" d="M145.45,160.58a2.15,2.15,0,0,1-.57,1.63,2.22,2.22,0,0,1-1.61.55,3.05,3.05,0,0,1-.6-.06,3.18,3.18,0,0,1-.62-.2l.44-1.08a1.84,1.84,0,0,0,.32.12,1,1,0,0,0,.32.05.81.81,0,0,0,.65-.24,1.18,1.18,0,0,0,.22-.77l0-4.26h1.42Z"/><path class="cls-1" d="M152,159.91a3,3,0,0,1-.66,2.14,2.6,2.6,0,0,1-2,.72,2.52,2.52,0,0,1-1.93-.7,3,3,0,0,1-.65-2.1v-3.65h1.44V160a1.86,1.86,0,0,0,.3,1.15,1.06,1.06,0,0,0,.9.38,1,1,0,0,0,.88-.37,1.75,1.75,0,0,0,.3-1.11v-3.73H152Z"/><path class="cls-1" d="M159.07,162.66h-1.44l-2.61-4-.2-.31-.12-.22h0q0,.16,0,.42c0,.18,0,.38,0,.61v3.48h-1.35v-6.34h1.54l2.51,3.86.16.26c.06.08.11.17.16.25h0a2.33,2.33,0,0,1,0-.32c0-.15,0-.33,0-.55v-3.5h1.35Z"/><path class="cls-1" d="M165.71,162.18a4,4,0,0,1-1,.43,5.09,5.09,0,0,1-1.28.16,3.5,3.5,0,0,1-2.4-.8,3,3,0,0,1-.89-2.38,3.35,3.35,0,0,1,.91-2.41,3.28,3.28,0,0,1,2.51-1,5.52,5.52,0,0,1,1.11.1,5.28,5.28,0,0,1,1.06.32l-.44,1.1a5.33,5.33,0,0,0-.85-.25,4.79,4.79,0,0,0-.88-.08,1.87,1.87,0,0,0-1.4.53,2.17,2.17,0,0,0-.52,1.58,2.07,2.07,0,0,0,.51,1.55,1.87,1.87,0,0,0,1.34.5,2.13,2.13,0,0,0,.46,0,1.18,1.18,0,0,0,.36-.1v-1.24H163v-1.14h2.69Z"/><path class="cls-1" d="M168.37,160.58v2.08H167v-6.34h2.23a2.62,2.62,0,0,1,1.79.52,1.93,1.93,0,0,1,.6,1.55,2,2,0,0,1-.68,1.59,2.7,2.7,0,0,1-1.84.6Zm0-3.16v2.08h.56a1.26,1.26,0,0,0,.86-.26,1,1,0,0,0,.28-.79,1,1,0,0,0-.28-.78,1.26,1.26,0,0,0-.86-.25Z"/><path class="cls-1" d="M173.93,162.66H172.5v-6.34h1.43Z"/><path class="cls-1" d="M181.06,162.66h-1.44l-2.61-4-.19-.31a1.72,1.72,0,0,1-.12-.22h0c0,.11,0,.25,0,.42s0,.38,0,.61v3.48h-1.34v-6.34h1.53l2.51,3.86a2.33,2.33,0,0,1,.17.26,1.65,1.65,0,0,1,.15.25h0c0-.07,0-.18,0-.32v-4.05h1.34Z"/><path class="cls-1" d="M181.83,162.66l2.31-6.34h1.69l2.25,6.34h-1.55l-.43-1.33h-2.3l-.42,1.33Zm2.28-2.44h1.66l-.7-2.2-.07-.22c0-.06,0-.14,0-.24h0c0,.09,0,.16-.05.23l-.06.21Z"/><path class="cls-1" d="M194.57,162.66h-1.44l-2.61-4-.2-.31-.12-.22h0q0,.16,0,.42c0,.18,0,.38,0,.61v3.48h-1.35v-6.34h1.54l2.51,3.86.16.26c.06.08.11.17.16.25h0a2.33,2.33,0,0,1,0-.32c0-.15,0-.33,0-.55v-3.5h1.35Z"/><path class="cls-1" d="M201.21,162.18a4,4,0,0,1-1,.43,5.09,5.09,0,0,1-1.28.16,3.5,3.5,0,0,1-2.4-.8,3,3,0,0,1-.89-2.38,3.35,3.35,0,0,1,.91-2.41,3.28,3.28,0,0,1,2.51-1,5.52,5.52,0,0,1,1.11.1,5.28,5.28,0,0,1,1.06.32l-.44,1.1a5.33,5.33,0,0,0-.85-.25,4.79,4.79,0,0,0-.88-.08,1.87,1.87,0,0,0-1.4.53,2.17,2.17,0,0,0-.52,1.58,2.07,2.07,0,0,0,.51,1.55,1.87,1.87,0,0,0,1.34.5,2.13,2.13,0,0,0,.46,0,1.18,1.18,0,0,0,.36-.1v-1.24h-1.27v-1.14h2.69Z"/><path class="cls-2" d="M150,126.18a50.19,50.19,0,0,0,50.16-46.43H99.85A50.2,50.2,0,0,0,150,126.18Z"/><path class="cls-1" d="M150,129.24A53.25,53.25,0,0,1,96.7,78.29l-.07-1.6H203.39l-.07,1.6A53.25,53.25,0,0,1,150,129.24ZM99.85,79.75a50.31,50.31,0,0,0,100.32,0Z"/><path class="cls-1" d="M134.48,90A56.06,56.06,0,0,1,136,83a24,24,0,0,1-5.53,1.53c-6.51,1.08-4.57,7.79-4.57,7.79a20.44,20.44,0,0,1,8.67-7.81c-5.65,3.41-8.48,8-10.68,15.1l-.49,0A21.49,21.49,0,0,0,121,91.74c1.3-7.65-3.67-9.32-11-8.72a24.09,24.09,0,0,1,1.13,3c.14.73.88,4.72,3.91,5.58a19.3,19.3,0,0,0,4.93.62c1.25,1.36,2.09,3.74,2.31,7.65a3,3,0,0,0-2.51,2.11c-2.91-.26-4.39,1-5.2,3h19.7c.26-2.66-2.74-3.64-4.32-1a5.52,5.52,0,0,0-5-4.21,16.85,16.85,0,0,1,2.65-6.47S133.41,96.23,134.48,90Z"/><path class="cls-1" d="M182.59,85.42a23.29,23.29,0,0,1,.6-2.83,9.45,9.45,0,0,1-2.24.62c-2.65.44-1.86,3.17-1.86,3.17a8.28,8.28,0,0,1,3.52-3.18c-2.29,1.39-3.44,3.25-4.34,6.14h-.2a8.7,8.7,0,0,0-.95-3.22c.52-3.11-1.49-3.78-4.48-3.54a10.4,10.4,0,0,1,.46,1.2c.06.3.36,1.91,1.59,2.27a7.87,7.87,0,0,0,2,.25,4.94,4.94,0,0,1,.94,3.11,1.21,1.21,0,0,0-1,.85,1.84,1.84,0,0,0-2.11,1.23h8c.11-1.08-1.11-1.48-1.75-.42a2.24,2.24,0,0,0-2-1.71,7,7,0,0,1,1.08-2.63S182.15,88,182.59,85.42Z"/><path class="cls-1" d="M168.62,94.18a22.79,22.79,0,0,1,.56-2.64,9,9,0,0,1-2.09.58c-2.46.41-1.73,2.95-1.73,2.95a7.73,7.73,0,0,1,3.29-3c-2.15,1.29-3.22,3-4.05,5.72h-.19a8.12,8.12,0,0,0-.89-3c.49-2.9-1.39-3.53-4.17-3.3a9,9,0,0,1,.42,1.12c.06.28.34,1.78,1.49,2.11a7.3,7.3,0,0,0,1.86.23,4.58,4.58,0,0,1,.88,2.9c-.5.13-.89.41-.95.8a1.73,1.73,0,0,0-2,1.15h7.46c.1-1-1-1.38-1.64-.39a2.08,2.08,0,0,0-1.87-1.6,6.34,6.34,0,0,1,1-2.45S168.22,96.54,168.62,94.18Z"/><path class="cls-1" d="M137.57,114.19a17.71,17.71,0,0,1,.51-2.39,8.48,8.48,0,0,1-1.89.52c-2.24.37-1.57,2.67-1.57,2.67a7,7,0,0,1,3-2.68c-1.94,1.17-2.91,2.75-3.66,5.18h-.17a7.35,7.35,0,0,0-.81-2.71c.45-2.63-1.26-3.2-3.78-3a8.74,8.74,0,0,1,.39,1c.05.25.3,1.62,1.34,1.91a6.55,6.55,0,0,0,1.69.21,4.18,4.18,0,0,1,.79,2.63,1,1,0,0,0-.86.72,1.56,1.56,0,0,0-1.78,1h6.75c.09-.92-.93-1.25-1.48-.36a1.9,1.9,0,0,0-1.69-1.44,5.66,5.66,0,0,1,.9-2.22S137.2,116.33,137.57,114.19Z"/><path class="cls-1" d="M186.31,100.91a20.22,20.22,0,0,1,.51-2.39,8.26,8.26,0,0,1-1.89.52c-2.23.37-1.57,2.67-1.57,2.67a7,7,0,0,1,3-2.68c-1.93,1.17-2.9,2.75-3.66,5.18h-.17a7.35,7.35,0,0,0-.81-2.71c.45-2.63-1.25-3.2-3.78-3a8.74,8.74,0,0,1,.39,1c0,.25.31,1.62,1.35,1.91a6.46,6.46,0,0,0,1.68.21,4.23,4.23,0,0,1,.8,2.63,1,1,0,0,0-.87.72,1.56,1.56,0,0,0-1.78,1h6.76c.09-.92-.94-1.25-1.48-.36a1.9,1.9,0,0,0-1.7-1.44A5.71,5.71,0,0,1,184,102S186,103.05,186.31,100.91Z"/><path class="cls-1" d="M152.23,107.32a18.9,18.9,0,0,1,.5-2.34,7.8,7.8,0,0,1-1.86.51c-2.19.37-1.54,2.63-1.54,2.63a6.89,6.89,0,0,1,2.92-2.64c-1.9,1.15-2.85,2.7-3.6,5.09h-.16a7.4,7.4,0,0,0-.79-2.66c.43-2.57-1.24-3.14-3.71-2.93a8.47,8.47,0,0,1,.38,1c0,.25.3,1.59,1.32,1.88a6.72,6.72,0,0,0,1.65.21,4.06,4.06,0,0,1,.78,2.57,1,1,0,0,0-.85.71,1.52,1.52,0,0,0-1.74,1h6.63c.08-.9-.92-1.23-1.46-.35a1.87,1.87,0,0,0-1.66-1.42,5.4,5.4,0,0,1,.89-2.17S151.87,109.42,152.23,107.32Z"/><path class="cls-1" d="M150.68,90.15a17.71,17.71,0,0,1,.51-2.39,8.48,8.48,0,0,1-1.89.52c-2.24.37-1.57,2.67-1.57,2.67a7,7,0,0,1,3-2.68c-1.94,1.17-2.91,2.75-3.66,5.18h-.17a7.35,7.35,0,0,0-.81-2.71c.45-2.63-1.26-3.2-3.78-3a8.74,8.74,0,0,1,.39,1c.05.25.3,1.62,1.34,1.91a6.55,6.55,0,0,0,1.69.21,4.18,4.18,0,0,1,.79,2.63,1,1,0,0,0-.86.72,1.56,1.56,0,0,0-1.78,1h6.76c.08-.92-.94-1.25-1.49-.36a1.89,1.89,0,0,0-1.69-1.44,5.56,5.56,0,0,1,.91-2.22S150.31,92.29,150.68,90.15Z"/><path class="cls-2" d="M151.28,53A13.25,13.25,0,0,0,143,55.91l-.47.38-.6,0h-.47c-7.07,0-12.83,6.18-12.83,13.77a14.53,14.53,0,0,0,1.48,6.41h32.74A15.58,15.58,0,0,0,165.26,68C165.26,59.7,159,53,151.28,53Z"/><path class="cls-2" d="M133.89,33.7c-4.62.7-8.76,4.45-9.22,8.34-.57,4.86-1.19,8.58-3.65,12.29a13.76,13.76,0,0,1,2.87.8,14.68,14.68,0,0,1,5.41,3.76A15.58,15.58,0,0,1,141.43,53h0A16.93,16.93,0,0,1,145.09,51c.76-2.27,1.87-6.58.51-9.63h0C142.18,33.66,136.8,33.26,133.89,33.7Z"/><path class="cls-2" d="M113.18,40a1.91,1.91,0,0,0-.28.15l-.53.28-.63-.11a11.13,11.13,0,0,0-2.42-.26,10.53,10.53,0,0,0-4.63,1.06,10.79,10.79,0,0,0-5.58,6.62,12.43,12.43,0,0,0,.76,9.18c.09.19.2.39.3.59a14.15,14.15,0,0,1,14.62-2.9,15.07,15.07,0,0,1,2.29-.41c3.14-3.72,3.76-7.26,4.38-12.53a9.21,9.21,0,0,1,.35-1.67A10,10,0,0,0,113.18,40Z"/><path class="cls-2" d="M114.58,58l-.6-.27-.31-.13a10.55,10.55,0,0,0-8.45.33,12.11,12.11,0,0,0-6.1,6.59,11.92,11.92,0,0,0,1.62,11.88h25.81a17.93,17.93,0,0,1,.88-14.74,11.27,11.27,0,0,0-12.27-3.83Z"/><path class="cls-2" d="M110.12,46.11a4.91,4.91,0,0,0-3.57,1.22A5.36,5.36,0,0,0,109.74,50a5.14,5.14,0,0,0,3.79-1.13C112.41,47.22,111.27,46.3,110.12,46.11Z"/><path class="cls-2" d="M134.16,23.22a4.92,4.92,0,0,0-3.77.3,5.39,5.39,0,0,0,2.44,3.36,5.17,5.17,0,0,0,3.95-.17C136.1,24.86,135.22,23.69,134.16,23.22Z"/><path class="cls-1" d="M151.28,49.74a16.26,16.26,0,0,0-2.52.2c.76-3,1.21-6.77-.2-9.93-2.7-6-6.56-8.42-9.87-9.26a8.16,8.16,0,0,1,1.74-2.12l.26-.12,0-.09a16.45,16.45,0,0,1,2.32-1.7,1.61,1.61,0,1,0-1.61-2.8c-.2.12-.9.54-1.76,1.18a8.31,8.31,0,0,0-4.17-4.84c-2.15-1-4.68-.64-7.73.94l-1.13.58.3,1.23c.84,3.46,2.37,5.74,4.55,6.79a6.51,6.51,0,0,0,2.69.61l-.72.09a15.14,15.14,0,0,0-10.23,6.57,13.29,13.29,0,0,0-10.25-.48c-.93-2.44-2-6.55-.72-9.36a1.61,1.61,0,1,0-2.94-1.33c-1.63,3.62-.63,8.12.31,10.92a13.55,13.55,0,0,0-6.3,1.39A14,14,0,0,0,96,46.77,15.67,15.67,0,0,0,97,58.32a15.15,15.15,0,0,0,1,1.7,16.76,16.76,0,0,0-1.82,3.33,15.14,15.14,0,0,0,2.7,15.8l.48.52H129l.84,0v0h34.62L165,79a18.71,18.71,0,0,0,3.51-11C168.5,57.92,160.77,49.74,151.28,49.74ZM130.39,23.52a4.92,4.92,0,0,1,3.77-.3c1.06.47,1.94,1.64,2.62,3.49a5.17,5.17,0,0,1-3.95.17A5.39,5.39,0,0,1,130.39,23.52Zm3.5,10.18c2.91-.44,8.29,0,11.71,7.63h0c1.36,3.05.25,7.36-.51,9.63h0l-.63.28-.48.23c-.18.08-.35.18-.53.27l0,0c-.39-3.46-1.6-9.18-5.39-12.34a1.62,1.62,0,1,0-2.07,2.48c3.27,2.73,4.11,8.4,4.33,11.16h0l-.53,0-.41.06-.41.06a3.89,3.89,0,0,0-.47.09l-.32.06-.54.13-.24.06-.6.19-.14,0-.67.24-.05,0a16,16,0,0,0-6.31,4.5l-.06.07a2.75,2.75,0,0,0-.22.26c-.22-.25-.45-.48-.69-.71a1.8,1.8,0,0,1-.2-.19l-.57-.49-.22-.19c-.25-.2-.5-.39-.76-.57l0,0q-.41-.28-.84-.54l-.25-.15-.65-.35-.27-.13-.92-.41-1-.34-.25-.07c-.31-.1-.63-.18-1-.25l-.22,0-.48-.09,0,0s.06-.1.1-.15c.13-.21.27-.42.39-.64l.15-.26.3-.54.14-.28.27-.55a2.72,2.72,0,0,0,.11-.25c.11-.25.22-.51.32-.77l0,0c.1-.27.2-.54.29-.82a1.83,1.83,0,0,0,.08-.25,5.76,5.76,0,0,0,.18-.59l.09-.29.15-.58a2.86,2.86,0,0,0,.07-.28c.06-.23.11-.46.16-.69,0-.06,0-.12,0-.18.06-.29.12-.59.17-.9l0-.17c.05-.25.09-.5.13-.76,0-.09,0-.19,0-.28s.07-.45.1-.68,0-.21,0-.31l.09-.73c0-.09,0-.17,0-.26,0-.33.08-.66.12-1a5,5,0,0,1,.11-.64l.06-.22a3.31,3.31,0,0,1,.12-.42c0-.08.05-.17.08-.25s.16-.41.25-.61v0A11.71,11.71,0,0,1,133.89,33.7Zm-34.78,14a10.79,10.79,0,0,1,5.58-6.62,10.53,10.53,0,0,1,4.63-1.06,11.13,11.13,0,0,1,2.42.26l.63.11.53-.28a1.91,1.91,0,0,1,.28-.15,10,10,0,0,1,8.63,0c0,.16-.08.31-.12.47s0,.18-.07.28a7.72,7.72,0,0,0-.16.92l-.12,1a1,1,0,0,0,0,.16c0,.27-.07.53-.11.79a2.51,2.51,0,0,1,0,.27l-.09.64c0,.1,0,.21,0,.31l-.09.57-.06.33c0,.17-.07.34-.1.51s0,.23-.07.35-.07.32-.11.47l-.09.35c0,.15-.07.3-.11.45s-.07.23-.1.35-.09.28-.13.43l-.12.35c0,.13-.09.27-.14.4s-.09.24-.14.35-.1.26-.16.39l-.15.35-.18.38-.18.35-.2.37-.2.35-.23.36c-.07.12-.15.24-.23.36L118,53l-.26.36-.28.35-.28.36-.1.12c-.28,0-.56.07-.84.11a13.5,13.5,0,0,1,.8-4.08l.72-.59-.29-.5c.45-1.07,1-2.12,1.54-3.22.31-.6.62-1.21.92-1.83a1.61,1.61,0,0,0-2.91-1.4c-.29.59-.59,1.18-.89,1.76L115.38,46a7.9,7.9,0,0,0-4.73-3c-2.33-.38-4.7.54-7.27,2.82l-.95.84.59,1.13c1.67,3.14,3.72,5,6.09,5.45a6.41,6.41,0,0,0,1.23.12,7.54,7.54,0,0,0,2.79-.58c-.06.44-.1.88-.12,1.35-.18,0-.37-.08-.56-.12s-.55-.1-.82-.13l-.66-.08c-.27,0-.53,0-.8,0h-.27a14.52,14.52,0,0,0-2.7.26l-.09,0a15.05,15.05,0,0,0-2.56.78l-.29.12-.41.17-.33.18-.22.11a15.84,15.84,0,0,0-1.49.89l-.06,0a14.62,14.62,0,0,0-1.58,1.24c-.11-.2-.21-.39-.3-.58A12.43,12.43,0,0,1,99.11,47.73Zm14.42,1.12A5.14,5.14,0,0,1,109.74,50a5.36,5.36,0,0,1-3.19-2.65,4.91,4.91,0,0,1,3.57-1.22C111.27,46.3,112.41,47.22,113.53,48.85ZM100.74,76.43a11.92,11.92,0,0,1-1.62-11.88,12.66,12.66,0,0,1,1.68-3l.37-.45a12.3,12.3,0,0,1,3.44-2.83h0A10.91,10.91,0,0,1,111,57l.33,0,.52.08.52.12.39.1c.31.09.61.19.92.31l.36.16.55.24.58-.17a8.67,8.67,0,0,1,.84-.22l.28-.06.57-.1.33,0c.23,0,.47,0,.7-.06H118a11.59,11.59,0,0,1,1.18,0h.16c.31,0,.63,0,.94.1l.3.05q.41.07.81.18l.3.08a10.11,10.11,0,0,1,1.06.35c.25.1.5.21.74.33l.23.12c.17.08.33.17.49.26l.26.16.43.28.26.17.41.31.24.19.41.37.19.18c.17.16.34.33.49.5l.08.08.5.6-.07.14c-.11.2-.2.4-.3.61s-.13.27-.19.41-.19.45-.28.67-.09.23-.13.35l-.21.6c0,.11-.07.22-.1.33s-.15.5-.22.76c0,.06,0,.12,0,.18q-.12.47-.21,1a1.87,1.87,0,0,0,0,.25c0,.24-.08.49-.12.73l0,.32c0,.24,0,.48-.07.72s0,.2,0,.3c0,.33,0,.66,0,1s0,.7,0,1c0,.1,0,.19,0,.29,0,.28,0,.57.08.85l0,.2c0,.34.1.68.16,1,0,.07,0,.14,0,.21.06.28.12.56.19.84l.06.23c.09.34.19.68.3,1v0c.08.24.16.47.25.7Zm62.08,0H130.07c-.06-.12-.11-.24-.16-.36s-.14-.29-.2-.44l-.15-.39c-.06-.15-.11-.29-.16-.44s-.09-.26-.13-.39-.09-.31-.14-.46-.06-.26-.1-.39-.07-.32-.11-.49,0-.25-.07-.38l-.09-.52c0-.12,0-.23,0-.35s0-.4-.05-.59l0-.3q0-.45,0-.9c0-.42,0-.84.06-1.25,0-.12,0-.24,0-.36,0-.32.08-.64.13-1,0-.1,0-.2,0-.3.08-.4.18-.79.29-1.18a1.87,1.87,0,0,1,.07-.22,9.25,9.25,0,0,1,.32-.93l.12-.33c.13-.3.26-.59.4-.88l.1-.21c.17-.33.35-.65.55-1,.06-.11.13-.21.2-.32s.32-.48.5-.71l.15-.21c.23-.3.48-.59.73-.86l.13-.14a13.41,13.41,0,0,1,1.79-1.58l.07-.05a13,13,0,0,1,2.07-1.21l.13-.06c.36-.16.72-.3,1.09-.43l.11,0c.34-.11.69-.21,1-.29l.18,0a9.88,9.88,0,0,1,1.11-.18l.24,0c.39,0,.78-.06,1.17-.06h.47l.6,0,.47-.38a13.68,13.68,0,0,1,3.93-2.18l.09,0a12.92,12.92,0,0,1,4.29-.72c7.71,0,14,6.72,14,15A15.58,15.58,0,0,1,162.82,76.43Z"/><path class="cls-2" d="M153.86,57.64c5.75-4.4,14.28-16.81,17.13-26.53l-.11-.06c-7.87-3.23-15.21-2.53-23,2.22l4.76,7.65-7.62,1.16C145.4,45.16,146.93,52.77,153.86,57.64Z"/><circle class="cls-1" cx="160.6" cy="35.52" r="3.67"/><path class="cls-2" d="M158.39,125.39a50.21,50.21,0,0,0,41.85-48.58c-.69-27.28-17.44-39.64-26.3-44.29-3,9.83-11.1,21.7-17.2,26.94,9,5.5,17.6,11.22,21.91,16.3,7.54,8.88,10.61,16.66,9.11,23.12-1.14,5-4.8,8.81-10.88,11.47l-.29.13c-3.2,1.5-7.48-1.25-14-5.42-4.47-2.87-10.58-3.61-13.64-3.81,1.31,3.79,6.46,7.31,9.71,9.53,2.92,2,4.25,2.91,3.94,4.46v.08c-.57,2.22-3.45,2.38-7.45,2.59-3.22.18-7.43.41-9.91,1.83C149.64,123,153.83,125.73,158.39,125.39Z"/><path class="cls-1" d="M195.66,48.51c4.49.54,9.34,4.59,9.34,4.59-5.95-15.18-11-17-15.18-19.35-2.69-1.55-6.86-1.44-9.48-1.17a51.59,51.59,0,0,0-5.55-3.25v0l-1.2-.56-1.79-.84V28c-9.18-3.66-18-2.53-27,3.48l-1.3.87,3.83,6.16-5.6.85v1.38c0,.51,0,11.65,9.28,18.86l-.1.07L153.1,61l.2.13.3.19.31.19h0c8.73,5.32,18.07,11.37,22.28,16.33,6.84,8.06,9.68,14.89,8.42,20.3-.9,3.91-3.94,7-9,9.24l-.36.16c-1.59.74-6.29-2.28-10.84-5.21C157.39,97.85,147.46,98,147,98l-1.61,0v1.61c.07,6.1,6.91,10.77,11.43,13.86l1.43,1c-1,.12-2.25.19-3.29.25-4.78.26-10.74.58-13.59,4.12l-1.06,1.31,1.62,1.21c4.85,3.6,9.84,7.32,15.63,7.32.37,0,.74,0,1.11-.05h.13a53.43,53.43,0,0,0,44.62-51.75v-.07C203.18,64.85,200,55.61,195.66,48.51Zm-50.6-6.43,7.62-1.16-4.76-7.65c7.75-4.75,15.09-5.45,23-2.22l.11.05-.12.41c0,.13-.08.27-.13.4s-.13.4-.2.6l-.12.38c-.08.23-.17.47-.26.7s-.07.2-.1.29l-.39,1-.12.28c-.1.25-.2.49-.31.73s-.11.26-.17.39-.18.42-.28.63-.13.29-.2.43-.18.39-.28.59l-.21.45-.29.58-.23.45-.3.58-.23.44-.32.59-.24.44c-.11.2-.22.4-.34.6s-.15.27-.23.41l-.37.63c-.07.13-.15.25-.22.37l-.44.73-.16.26c-.41.67-.83,1.32-1.26,2-.05.08-.1.16-.16.24-.16.24-.31.48-.47.71s-.15.21-.22.31l-.43.62-.24.34-.41.57-.26.35-.4.54-.26.34c-.13.18-.27.35-.4.52l-.26.33-.41.51-.25.31-.42.51-.24.28-.44.51-.21.24q-.27.31-.54.6l-.1.11-.64.68-.14.15-.49.48-.22.22-.39.37-.25.23-.35.31-.26.22-.33.27-.25.21a1.09,1.09,0,0,0-.17.13C146.93,52.77,145.4,45.16,145.06,42.08Zm13.33,83.31c-4.56.34-8.75-2.43-13.12-5.65,2.48-1.42,6.69-1.65,9.91-1.83,4-.21,6.88-.37,7.45-2.59v-.08c.31-1.55-1-2.46-3.94-4.46-3.25-2.22-8.4-5.74-9.71-9.53,3.06.2,9.17.94,13.64,3.81,6.48,4.17,10.76,6.92,14,5.42l.29-.13c6.08-2.66,9.74-6.51,10.88-11.47,1.5-6.46-1.57-14.24-9.11-23.12-4.31-5.08-12.94-10.8-21.91-16.3l.63-.56.15-.14.5-.47.21-.21.45-.45.24-.24.44-.46.24-.25.49-.54.19-.21.68-.78,0,0,.66-.79.21-.26.48-.59.24-.31.45-.57.25-.33c.15-.2.31-.4.46-.61l.23-.31.53-.73.15-.2.67-1,.16-.24c.17-.25.34-.49.5-.74l.24-.35.42-.65.25-.39.4-.64.24-.39.42-.69.21-.34.57-1,0-.07.59-1.05.18-.33.39-.72.21-.4.35-.67.21-.41.33-.68.19-.39.36-.77.14-.3c.16-.35.32-.7.47-1.05l.09-.21c.12-.29.24-.57.35-.85l.15-.36c.09-.23.18-.46.26-.69l.15-.4.24-.65.14-.39c.07-.23.15-.45.22-.68s.08-.23.11-.35a.56.56,0,0,0,0-.12c8.86,4.65,25.61,17,26.3,44.29A50.21,50.21,0,0,1,158.39,125.39Z"/><path class="cls-1" d="M171.6,45.38S188,52.76,188.43,54s-1.65,6.45-5.06,6.95c-2.79-2.15-13.54-12.65-13.54-12.65S170,45.38,171.6,45.38Z"/></svg>