<svg id="Layer_1" data-name="Layer 1" xmlns="http://www.w3.org/2000/svg" viewBox="0 0 300 180"><defs><style>.cls-1{fill:gray;}.cls-2{fill:#c4c6c7;}.cls-3{fill:#4b4b4b;}</style></defs><path class="cls-1" d="M104.25,162.65h-1.78L100.62,160l-.07-.13-.1-.22h0v3H99v-6.33h1.43v2.94h0l.07-.15.11-.2,1.75-2.59H104l-2.17,3Z"/><path class="cls-1" d="M107.29,162.77a3,3,0,0,1-2.22-.89,3.18,3.18,0,0,1-.85-2.31,3.45,3.45,0,0,1,.86-2.43,3,3,0,0,1,2.31-.92,2.88,2.88,0,0,1,2.19.88,3.29,3.29,0,0,1,.84,2.34,3.35,3.35,0,0,1-.87,2.41A3,3,0,0,1,107.29,162.77Zm0-1.24a1.39,1.39,0,0,0,1.17-.53,2.27,2.27,0,0,0,.44-1.48,2.48,2.48,0,0,0-.42-1.53,1.38,1.38,0,0,0-1.15-.55,1.42,1.42,0,0,0-1.19.57,2.74,2.74,0,0,0,0,3A1.41,1.41,0,0,0,107.31,161.53Z"/><path class="cls-1" d="M115.55,157.48h-1.81v5.17h-1.43v-5.17h-1.79v-1.16h5Z"/><path class="cls-1" d="M115.1,162.65l2.3-6.33h1.69l2.25,6.33h-1.55l-.43-1.32h-2.3l-.42,1.32Zm2.27-2.43H119l-.7-2.2c0-.09,0-.16-.06-.22a1.19,1.19,0,0,1,0-.24h0a1.32,1.32,0,0,1,0,.23,1,1,0,0,1-.06.21Z"/><path class="cls-1" d="M129.07,157.48h-1.8v5.17h-1.43v-5.17H124v-1.16h5Z"/><path class="cls-1" d="M128.62,162.65l2.3-6.33h1.69l2.26,6.33h-1.56l-.43-1.32h-2.29l-.43,1.32Zm2.28-2.43h1.65l-.7-2.2a2.18,2.18,0,0,0-.06-.22,1.19,1.19,0,0,1,0-.24h0c0,.09,0,.16,0,.23s0,.14-.07.21Z"/><path class="cls-1" d="M141.35,162.65h-1.44l-2.61-4-.19-.31-.12-.22h0c0,.11,0,.25,0,.42s0,.38,0,.61v3.47h-1.34v-6.33h1.53l2.52,3.86.16.26a1.65,1.65,0,0,1,.15.25h0a2.38,2.38,0,0,1,0-.33c0-.14,0-.32,0-.54v-3.5h1.34Z"/><path class="cls-1" d="M145.45,160.58a2.15,2.15,0,0,1-.57,1.63,2.22,2.22,0,0,1-1.62.55,3,3,0,0,1-.59-.06,3.18,3.18,0,0,1-.62-.2l.44-1.08a1.59,1.59,0,0,0,.32.12,1,1,0,0,0,.32.05.81.81,0,0,0,.65-.24,1.13,1.13,0,0,0,.21-.77l0-4.26h1.42Z"/><path class="cls-1" d="M152,159.91a3,3,0,0,1-.66,2.14,2.6,2.6,0,0,1-2,.72,2.52,2.52,0,0,1-1.93-.7,3,3,0,0,1-.65-2.1v-3.65h1.43V160a1.86,1.86,0,0,0,.3,1.15,1.09,1.09,0,0,0,.91.38,1.05,1.05,0,0,0,.88-.37,1.75,1.75,0,0,0,.29-1.11v-3.73H152Z"/><path class="cls-1" d="M159.06,162.65h-1.43l-2.61-4c-.08-.12-.15-.22-.2-.31l-.12-.22h0q0,.16,0,.42c0,.18,0,.38,0,.61v3.47h-1.35v-6.33h1.53l2.52,3.86.16.26c.06.08.11.17.16.25h0a2.38,2.38,0,0,1,0-.33c0-.14,0-.32,0-.54v-3.5h1.34Z"/><path class="cls-1" d="M165.71,162.18a4,4,0,0,1-1,.43,5.15,5.15,0,0,1-1.28.16,3.48,3.48,0,0,1-2.4-.8,3,3,0,0,1-.89-2.38,3.38,3.38,0,0,1,.9-2.41,3.32,3.32,0,0,1,2.52-1,5.52,5.52,0,0,1,1.11.1,5.28,5.28,0,0,1,1.06.32l-.44,1.1a5.33,5.33,0,0,0-.85-.25,4.88,4.88,0,0,0-.88-.08,1.91,1.91,0,0,0-1.41.53,2.21,2.21,0,0,0-.51,1.58,2.07,2.07,0,0,0,.51,1.55,1.85,1.85,0,0,0,1.34.5,2.13,2.13,0,0,0,.46,0,1.11,1.11,0,0,0,.35-.1v-1.24H163v-1.14h2.69Z"/><path class="cls-1" d="M168.37,160.58v2.07h-1.43v-6.33h2.24a2.64,2.64,0,0,1,1.79.52,1.93,1.93,0,0,1,.6,1.55,2,2,0,0,1-.69,1.59,2.67,2.67,0,0,1-1.83.6Zm0-3.16v2.08h.56a1.17,1.17,0,0,0,.85-.27,1.19,1.19,0,0,0,0-1.56,1.22,1.22,0,0,0-.85-.25Z"/><path class="cls-1" d="M173.92,162.65H172.5v-6.33h1.42Z"/><path class="cls-1" d="M181.06,162.65h-1.44l-2.61-4c-.08-.12-.14-.22-.19-.31a2,2,0,0,1-.13-.22h0c0,.11,0,.25,0,.42s0,.38,0,.61v3.47h-1.35v-6.33h1.54l2.51,3.86c.06.08.11.17.17.26l.15.25h0q0-.1,0-.33c0-.14,0-.32,0-.54v-3.5h1.35Z"/><path class="cls-1" d="M181.83,162.65l2.31-6.33h1.69l2.25,6.33h-1.56l-.42-1.32h-2.3l-.42,1.32Zm2.28-2.43h1.65l-.69-2.2-.07-.22c0-.06,0-.14,0-.24h0c0,.09,0,.16-.05.23s0,.14-.07.21Z"/><path class="cls-1" d="M194.56,162.65h-1.43l-2.61-4c-.08-.12-.15-.22-.2-.31l-.12-.22h0q0,.16,0,.42c0,.18,0,.38,0,.61v3.47h-1.35v-6.33h1.53l2.52,3.86.16.26c.06.08.11.17.16.25h0a2.38,2.38,0,0,1,0-.33c0-.14,0-.32,0-.54v-3.5h1.34Z"/><path class="cls-1" d="M201.21,162.18a4,4,0,0,1-1,.43,5.15,5.15,0,0,1-1.28.16,3.48,3.48,0,0,1-2.4-.8,3,3,0,0,1-.89-2.38,3.38,3.38,0,0,1,.9-2.41,3.32,3.32,0,0,1,2.52-1,5.52,5.52,0,0,1,1.11.1,5.28,5.28,0,0,1,1.06.32l-.44,1.1a5.33,5.33,0,0,0-.85-.25,4.88,4.88,0,0,0-.88-.08,1.91,1.91,0,0,0-1.41.53,2.21,2.21,0,0,0-.51,1.58,2.07,2.07,0,0,0,.51,1.55,1.85,1.85,0,0,0,1.34.5,2.13,2.13,0,0,0,.46,0,1.11,1.11,0,0,0,.35-.1v-1.24h-1.26v-1.14h2.69Z"/><path class="cls-1" d="M16.63,150.52l.52-.8a4.32,4.32,0,0,0,1.11.53,4.67,4.67,0,0,0,1.3.16,2.27,2.27,0,0,0,1.37-.39,1.32,1.32,0,0,0,.54-1.14,1.34,1.34,0,0,0-.45-1.06,4.8,4.8,0,0,0-1.49-.78,5.44,5.44,0,0,1-1.9-1,2,2,0,0,1-.62-1.53,2.25,2.25,0,0,1,.8-1.81,3.07,3.07,0,0,1,2.11-.7,5.34,5.34,0,0,1,2.4.56l-.4.85a5.8,5.8,0,0,0-1-.35,5.19,5.19,0,0,0-1.07-.1,2,2,0,0,0-1.29.38,1.29,1.29,0,0,0-.48,1.06,1.19,1.19,0,0,0,.44,1A5.59,5.59,0,0,0,20,146a5.35,5.35,0,0,1,2,1.1,2.26,2.26,0,0,1,.6,1.65,2.39,2.39,0,0,1-.81,1.84,3.14,3.14,0,0,1-2.24.74,5.5,5.5,0,0,1-1.5-.2A5.12,5.12,0,0,1,16.63,150.52Z"/><path class="cls-1" d="M29.14,151.22H24.32v-9.1h4.62v1H25.39v3h3.28v1H25.39v3.18h3.75Z"/><path class="cls-1" d="M37.23,151.22H35.74l-3.51-4.16-.16-.2-.08-.12h0v4.48H30.89v-9.1H32v4.28h0l.1-.15a2.09,2.09,0,0,1,.14-.17l3.4-4H37l-3.91,4.36Z"/><path class="cls-1" d="M44.89,151.22H43.62l-1.57-2.58a3,3,0,0,0-.74-.93,1.33,1.33,0,0,0-.76-.21h-1v3.72H38.44v-9.1h2.71a3.14,3.14,0,0,1,2,.62,2.23,2.23,0,0,1,.79,1.86,2.63,2.63,0,0,1-.5,1.62,2.8,2.8,0,0,1-1.38.94v0a2.82,2.82,0,0,1,.5.37,2.91,2.91,0,0,1,.46.6Zm-5.39-8.14v3.45H41a1.82,1.82,0,0,0,1.32-.51,1.75,1.75,0,0,0,.53-1.33,1.49,1.49,0,0,0-.47-1.17,1.94,1.94,0,0,0-1.37-.44Z"/><path class="cls-1" d="M51,151.22H46.21v-9.1h4.62v1H47.28v3h3.29v1H47.28v3.18H51Z"/><path class="cls-1" d="M58.16,143.08H55.53v8.14H54.46v-8.14H51.84v-1h6.32Z"/><path class="cls-1" d="M57.66,151.22l3.49-9.1h1.1l3.51,9.1H64.58l-.92-2.44H59.71l-.87,2.44Zm2.41-3.4h3.24l-1.48-4a2.06,2.06,0,0,1-.07-.25c0-.1,0-.22-.07-.36h0a2.53,2.53,0,0,1-.07.34,1.46,1.46,0,0,1-.08.27Z"/><path class="cls-1" d="M73.54,151.22H72.27l-1.56-2.58a2.81,2.81,0,0,0-.75-.93,1.28,1.28,0,0,0-.75-.21h-1v3.72H67.1v-9.1h2.71a3.14,3.14,0,0,1,2,.62,2.23,2.23,0,0,1,.79,1.86,2.63,2.63,0,0,1-.5,1.62,2.85,2.85,0,0,1-1.38.94v0a2.82,2.82,0,0,1,.5.37,2.91,2.91,0,0,1,.46.6Zm-5.38-8.14v3.45h1.45a1.82,1.82,0,0,0,1.32-.51,1.75,1.75,0,0,0,.53-1.33,1.49,1.49,0,0,0-.47-1.17,2,2,0,0,0-1.37-.44Z"/><path class="cls-1" d="M75.94,151.22H74.87v-9.1h1.07Z"/><path class="cls-1" d="M77.28,151.22l3.49-9.1h1.1l3.51,9.1H84.2l-.92-2.44h-4l-.87,2.44Zm2.41-3.4h3.24l-1.48-4c0-.06,0-.15-.07-.25s0-.22-.07-.36h0a2.53,2.53,0,0,1-.07.34,1.46,1.46,0,0,1-.08.27Z"/><path class="cls-1" d="M91.15,143.08H88.52v8.14H87.46v-8.14H84.84v-1h6.31Z"/><path class="cls-1" d="M96,151.22v-9.1h3.23a5.25,5.25,0,0,1,3.63,1.1,4.29,4.29,0,0,1,1.22,3.33,4.47,4.47,0,0,1-1.33,3.4,4.84,4.84,0,0,1-3.52,1.27Zm2-7.43v5.77h1a2.76,2.76,0,0,0,2.09-.8,3,3,0,0,0,.76-2.18,2.76,2.76,0,0,0-.75-2.05,2.86,2.86,0,0,0-2.11-.74Z"/><path class="cls-1" d="M111.05,151.22h-5.46v-9.1h5.25v1.67h-3.2v2h3v1.66h-3v2.09h3.41Z"/><path class="cls-1" d="M124.68,142.12l-2.41,9.1H120l-1.51-5.84c0-.15-.07-.31-.1-.49s0-.35,0-.53h0a4.37,4.37,0,0,1-.06.56,4.57,4.57,0,0,1-.1.46l-1.55,5.84h-2.37l-2.39-9.1h2.24l1.28,6.06a4.12,4.12,0,0,1,.08.45c0,.17,0,.37,0,.59h0a4.7,4.7,0,0,1,.06-.51c0-.18.08-.37.13-.56l1.65-6h2.19l1.49,6.11a3,3,0,0,1,.08.41c0,.17,0,.36.07.57h0a4.38,4.38,0,0,1,0-.51c0-.16,0-.34.09-.51l1.26-6.07Z"/><path class="cls-1" d="M124.4,151.22l3.31-9.1h2.43l3.24,9.1h-2.24l-.61-1.9h-3.3l-.61,1.9Zm3.27-3.5h2.38l-1-3.16c0-.13-.07-.23-.09-.32a1.48,1.48,0,0,1-.06-.35h-.05c0,.13,0,.24-.07.33s-.06.2-.09.32Z"/><path class="cls-1" d="M142.7,151.22h-2.07l-3.75-5.72-.28-.44-.18-.32h0c0,.17,0,.37,0,.61s0,.54,0,.87v5h-1.94v-9.1h2.21l3.61,5.54c.09.12.16.24.24.37s.15.25.22.37h0a3.73,3.73,0,0,1,0-.47c0-.21,0-.47,0-.78v-5h1.93Z"/><path class="cls-1" d="M150.42,148.24v3h-2v-9.1h3.21a3.82,3.82,0,0,1,2.58.74,2.76,2.76,0,0,1,.86,2.23,2.91,2.91,0,0,1-1,2.28,3.86,3.86,0,0,1-2.64.87Zm0-4.55v3h.81a1.74,1.74,0,0,0,1.23-.38,1.47,1.47,0,0,0,.4-1.13,1.41,1.41,0,0,0-.4-1.11,1.79,1.79,0,0,0-1.23-.37Z"/><path class="cls-1" d="M161.82,151.22h-5.46v-9.1h5.25v1.67h-3.2v2h3v1.66h-3v2.09h3.41Z"/><path class="cls-1" d="M170.67,151.22h-2.32L167.14,149a3.06,3.06,0,0,0-.59-.83,1.1,1.1,0,0,0-.67-.31h-.55v3.38h-2.06v-9.1h3.25a4,4,0,0,1,2.49.64,2.3,2.3,0,0,1,.83,1.93,2.44,2.44,0,0,1-.53,1.57,3.16,3.16,0,0,1-1.46,1v0a1.63,1.63,0,0,1,.75.54,4.64,4.64,0,0,1,.6.84Zm-5.34-7.57v2.64h.88a1.47,1.47,0,0,0,1.07-.4,1.34,1.34,0,0,0,.4-1,1.18,1.18,0,0,0-.36-.94,1.61,1.61,0,0,0-1.07-.31Z"/><path class="cls-1" d="M183.67,142.12l-2.41,9.1H179l-1.51-5.84a3.3,3.3,0,0,1-.09-.49,3.07,3.07,0,0,1,0-.53h0c0,.21,0,.39-.07.56a2.85,2.85,0,0,1-.1.46l-1.54,5.84h-2.37l-2.39-9.1h2.24l1.28,6.06a4.3,4.3,0,0,1,.07.45c0,.17,0,.37,0,.59h0a4.7,4.7,0,0,1,.06-.51c0-.18.07-.37.12-.56l1.65-6h2.2l1.49,6.11.08.41c0,.17,0,.36.07.57h0a4.4,4.4,0,0,1,0-.51c0-.16.05-.34.08-.51l1.26-6.07Z"/><path class="cls-1" d="M183.39,151.22l3.31-9.1h2.44l3.23,9.1h-2.23l-.62-1.9h-3.3l-.61,1.9Zm3.28-3.5h2.38l-1-3.16c0-.13-.07-.23-.09-.32s0-.21-.06-.35h0a2.09,2.09,0,0,1-.07.33,2.66,2.66,0,0,1-.09.32Z"/><path class="cls-1" d="M201,151.22h-2.55l-2.66-3.88-.1-.18-.14-.32h0v4.38h-2.05v-9.1h2.05v4.22h0l.1-.22.16-.29,2.51-3.71h2.38l-3.13,4.29Z"/><path class="cls-1" d="M204,151.22h-2.06v-9.1H204Z"/><path class="cls-1" d="M211.49,151.22h-5.43v-9.1h2.06v7.44h3.37Z"/><path class="cls-1" d="M212,151.22l3.31-9.1h2.43l3.24,9.1h-2.23l-.62-1.9h-3.3l-.61,1.9Zm3.27-3.5h2.38l-1-3.16c0-.13-.07-.23-.09-.32s0-.21-.06-.35h-.05a2.09,2.09,0,0,1-.07.33,2.66,2.66,0,0,1-.09.32Z"/><path class="cls-1" d="M230.33,151.22h-2.07l-3.76-5.72-.28-.44c-.07-.13-.13-.23-.17-.32h0c0,.17,0,.37,0,.61s0,.54,0,.87v5h-1.93v-9.1h2.21l3.61,5.54.24.37c.07.12.15.25.21.37h0a3.73,3.73,0,0,1,0-.47c0-.21,0-.47,0-.78v-5h1.94Z"/><path class="cls-1" d="M243.39,151.22h-2.32L239.86,149a3.3,3.3,0,0,0-.59-.83,1.1,1.1,0,0,0-.67-.31H238v3.38h-2v-9.1h3.25a4,4,0,0,1,2.49.64,2.3,2.3,0,0,1,.83,1.93,2.4,2.4,0,0,1-.54,1.57,3.06,3.06,0,0,1-1.46,1v0a1.65,1.65,0,0,1,.76.54,4.64,4.64,0,0,1,.6.84ZM238,143.65v2.64h.89a1.47,1.47,0,0,0,1.07-.4,1.34,1.34,0,0,0,.4-1A1.18,1.18,0,0,0,240,144a1.61,1.61,0,0,0-1.07-.31Z"/><path class="cls-1" d="M243.5,151.22l3.32-9.1h2.43l3.23,9.1h-2.23l-.61-1.9h-3.31l-.61,1.9Zm3.28-3.5h2.38l-1-3.16-.1-.32c0-.09,0-.21-.06-.35H248q0,.2-.06.33l-.1.32Z"/><path class="cls-1" d="M261.16,151.22H258.6l-2.66-3.88-.09-.18-.15-.32h0v4.38h-2v-9.1h2v4.22h0c0-.06.06-.13.11-.22l.15-.29,2.51-3.71h2.38l-3.13,4.29Z"/><path class="cls-1" d="M268.91,142.12,266,148v3.24H263.9V148l-2.89-5.9h2.34l1.47,3.39s0,.11.07.24.08.29.14.51h0c0-.16.06-.29.09-.41s.07-.22.11-.31l1.49-3.42Z"/><path class="cls-1" d="M268,151.22l3.32-9.1h2.43l3.23,9.1h-2.23l-.62-1.9h-3.3l-.61,1.9Zm3.28-3.5h2.38l-1-3.16-.1-.32c0-.09,0-.21-.06-.35h-.05q0,.2-.06.33l-.1.32Z"/><path class="cls-1" d="M283.59,143.79H281v7.43h-2.06v-7.43h-2.58v-1.67h7.24Z"/><path class="cls-1" d="M150,104.09c-10.11,0-21.45,8.82-22.17,22.24h44.34C171.45,112.91,160.11,104.09,150,104.09Z"/><path class="cls-1" d="M150.78,58.75a2.43,2.43,0,0,1,0-1.28,2.27,2.27,0,0,0,1.34-1.83c0-.43-1.34-2.26-2.08-2.26s-2.08,1.83-2.08,2.26a2.27,2.27,0,0,0,1.34,1.83,2.43,2.43,0,0,1,0,1.28,18.52,18.52,0,0,0-1.77,6.36h0a3.38,3.38,0,0,1,5.1,0h0A18.52,18.52,0,0,0,150.78,58.75Z"/><path class="cls-2" d="M134.12,123.32v-8.68h3.07a5,5,0,0,1,3.47,1.06,4,4,0,0,1,1.16,3.17,4.26,4.26,0,0,1-1.26,3.24,4.64,4.64,0,0,1-3.37,1.21Zm1.95-7.06v5.44h1a2.65,2.65,0,0,0,2-.75,2.86,2.86,0,0,0,.72-2A2.56,2.56,0,0,0,139,117a2.74,2.74,0,0,0-2-.71Z"/><path class="cls-2" d="M145.1,120.5v2.82h-2v-8.68h3a3.8,3.8,0,0,1,2.48.71,2.58,2.58,0,0,1,.85,2.09,2.77,2.77,0,0,1-1,2.25,3.79,3.79,0,0,1-2.55.81Zm0-4.36V119h.82a1.54,1.54,0,0,0,1.12-.38,1.45,1.45,0,0,0,.39-1.09,1.32,1.32,0,0,0-.39-1,1.52,1.52,0,0,0-1.09-.36Z"/><path class="cls-2" d="M157.69,123.32H155.5L154.21,121a2.51,2.51,0,0,0-.5-.67.86.86,0,0,0-.59-.2h-.52v3.22h-2v-8.68h3.1a3.57,3.57,0,0,1,2.39.67,2.28,2.28,0,0,1,.77,1.79,2.48,2.48,0,0,1-1.84,2.42v0a1.82,1.82,0,0,1,.62.44,4.93,4.93,0,0,1,.62.87Zm-5.09-7.19v2.46h.84a1.41,1.41,0,0,0,1-.35,1.27,1.27,0,0,0,.36-.94,1.09,1.09,0,0,0-.34-.87,1.48,1.48,0,0,0-1-.3Z"/><path class="cls-2" d="M158.72,123.32v-8.68h3.08a5,5,0,0,1,3.47,1.06,4.08,4.08,0,0,1,1.16,3.17,4.23,4.23,0,0,1-1.27,3.24,4.63,4.63,0,0,1-3.36,1.21Zm2-7.06v5.44h1a2.62,2.62,0,0,0,2-.75,2.83,2.83,0,0,0,.73-2,2.56,2.56,0,0,0-.72-1.93,2.75,2.75,0,0,0-2-.71Z"/><path class="cls-3" d="M150,15.51c-7.39,0-12.3,4.68-12.3,13.89v2.81c0,8.95,6.87,16.49,12.3,16.49s12.3-7.29,12.3-16.49V29.4C162.3,20.58,158,15.51,150,15.51Z"/><path class="cls-3" d="M188.59,119.74,183.1,91.22h1.35a1.94,1.94,0,0,0,0-3.88h-68.9a1.94,1.94,0,1,0,0,3.88h1.35l-5.49,28.52c-1,3.8-.45,6.59,3,6.59h13.42c.72-13.42,12.06-22.24,22.17-22.24s21.45,8.82,22.17,22.24h13.42C189,126.33,189.57,123.54,188.59,119.74Z"/><path class="cls-3" d="M158.62,53.15a2.23,2.23,0,0,0-.81-.75L153,65.68a6.59,6.59,0,0,1,1,3.47v3.57c0,2-1.11,4.65-3.34,5.1v4.71h4.62a1.07,1.07,0,0,1,.82.38l1.66,2a1,1,0,0,0,.82.39h1.69a1.06,1.06,0,0,0,.85-.44L162.52,83a1.05,1.05,0,0,1,.86-.44h4.49V74.31l-2.72-2.63,1.31-1.31,5.71,5.89c.45.45-.68,1.57-1.13,1.12l-1.7-1.65v6.8h5.57a1.11,1.11,0,0,1,.66.22c.35.37,1,2.84,3.24,2.93h0C173.62,79.28,183.82,58.19,158.62,53.15Zm3.77,17.64a3.21,3.21,0,1,1,3.21-3.21A3.21,3.21,0,0,1,162.39,70.79Z"/><path class="cls-3" d="M146,72.72V69.15a6.44,6.44,0,0,1,1-3.43L142.19,52.4a2.23,2.23,0,0,0-.81.75c-25.2,5-15,26.13-20.19,32.54h0c2.23-.09,2.89-2.56,3.24-2.93a1.11,1.11,0,0,1,.66-.22h5.31V75.41l-2.07,2-1-1,2.42-2.42-2.29-2.28,2.38-2.38,2.36,2.35.73-.65a4.56,4.56,0,0,0,.2-1.94h0a1.73,1.73,0,0,1,.44-1.65l3.76-3.75a1.41,1.41,0,0,1,2,0l1.54,1.54a1.41,1.41,0,0,1,0,2l-3.75,3.76a1.72,1.72,0,0,1-1.74.41A4.25,4.25,0,0,0,134,72l-.87.82L135.35,75,133,77.36l-1.49-1.49v6.66h5.1a1.05,1.05,0,0,1,.86.44l1.37,1.89a1.06,1.06,0,0,0,.85.44h1.69a1,1,0,0,0,.82-.39l1.66-2a1.07,1.07,0,0,1,.82-.38h4.58V77.82C147,77.35,146,74.74,146,72.72Z"/></svg>