<svg id="Layer_1" data-name="Layer 1" xmlns="http://www.w3.org/2000/svg" viewBox="0 0 180 180"><defs><style>.cls-1{fill:#d9dadb;}.cls-2{fill:#c4c6c7;}</style></defs><path class="cls-1" d="M90,143.88c-16.42,0-34.83,14.32-36,36.12h72C124.83,158.2,106.42,143.88,90,143.88Z"/><path class="cls-1" d="M91.27,70.24a3.9,3.9,0,0,1-.07-2.07c1.52-.94,2.18-2,2.18-3,0-.71-2.18-3.67-3.38-3.67s-3.38,3-3.38,3.67c0,1,.66,2,2.18,3a3.9,3.9,0,0,1-.07,2.07C87,74.47,85.8,78.13,85.85,80.58h0a5.52,5.52,0,0,1,8.28,0h0C94.2,78.13,93,74.47,91.27,70.24Z"/><path class="cls-2" d="M66.93,174.39V161.75H71.4a7.28,7.28,0,0,1,5.06,1.54,6,6,0,0,1,1.68,4.62,6.23,6.23,0,0,1-1.84,4.72,6.8,6.8,0,0,1-4.9,1.76Zm2.84-10.28V172h1.41a3.84,3.84,0,0,0,2.91-1.1,4.12,4.12,0,0,0,1-3,3.76,3.76,0,0,0-1-2.81,4,4,0,0,0-2.93-1Z"/><path class="cls-2" d="M82.91,170.28v4.11H80.06V161.75h4.4a5.46,5.46,0,0,1,3.6,1,3.74,3.74,0,0,1,1.24,3.05,4,4,0,0,1-1.39,3.27,5.57,5.57,0,0,1-3.72,1.18Zm0-6.34v4.15H84.1a2.24,2.24,0,0,0,1.63-.56,2.12,2.12,0,0,0,.57-1.59,1.89,1.89,0,0,0-.56-1.48,2.23,2.23,0,0,0-1.6-.52Z"/><path class="cls-2" d="M101.25,174.39h-3.2L96.17,171a3.61,3.61,0,0,0-.73-1,1.29,1.29,0,0,0-.85-.29h-.77v4.7H91V161.75h4.51a5.22,5.22,0,0,1,3.48,1,3.28,3.28,0,0,1,1.12,2.61,3.61,3.61,0,0,1-2.68,3.51v0a2.61,2.61,0,0,1,.91.65,7,7,0,0,1,.89,1.27Zm-7.43-10.47v3.59h1.24a2.07,2.07,0,0,0,1.51-.52,1.82,1.82,0,0,0,.52-1.37,1.59,1.59,0,0,0-.49-1.26,2.21,2.21,0,0,0-1.49-.44Z"/><path class="cls-2" d="M102.75,174.39V161.75h4.47a7.28,7.28,0,0,1,5.06,1.54,6,6,0,0,1,1.68,4.62,6.23,6.23,0,0,1-1.84,4.72,6.8,6.8,0,0,1-4.9,1.76Zm2.84-10.28V172H107a3.84,3.84,0,0,0,2.91-1.1,4.12,4.12,0,0,0,1-3,3.76,3.76,0,0,0-1-2.81,4,4,0,0,0-2.93-1Z"/><path class="cls-2" d="M90,0C78,0,70,7.61,70,22.56v4.57c0,14.53,11.17,26.78,20,26.78s20-11.83,20-26.78V22.56C110,8.24,103,0,90,0Z"/><path class="cls-2" d="M152.69,169.31,143.76,123H146a3.16,3.16,0,1,0,0-6.31H34.05a3.16,3.16,0,1,0,0,6.31h2.19l-8.93,46.33c-1.58,6.17-.72,10.69,4.88,10.69H54c1.18-21.8,19.59-36.12,36-36.12S124.83,158.2,126,180h21.8C153.41,180,154.27,175.48,152.69,169.31Z"/><path class="cls-2" d="M104,61.14a3.59,3.59,0,0,0-1.31-1.21L94.93,81.5a10.57,10.57,0,0,1,1.62,5.63v5.79c0,3.3-1.8,7.56-5.43,8.3v7.64h7.51a1.73,1.73,0,0,1,1.32.62l2.71,3.26a1.72,1.72,0,0,0,1.32.62h2.74a1.74,1.74,0,0,0,1.4-.72l2.22-3.07a1.7,1.7,0,0,1,1.39-.71H119V95.51l-4.42-4.26,2.13-2.13L126,98.68c.72.72-1.1,2.55-1.83,1.82l-2.77-2.68v11h9.06a1.76,1.76,0,0,1,1.06.36c.57.61,1.64,4.62,5.26,4.76h0C128.37,103.59,144.93,69.32,104,61.14Zm6.12,28.65a5.22,5.22,0,1,1,5.22-5.21A5.21,5.21,0,0,1,110.12,89.79Z"/><path class="cls-2" d="M83.45,92.92V87.13a10.47,10.47,0,0,1,1.64-5.58L77.31,59.93A3.59,3.59,0,0,0,76,61.14C35.07,69.32,51.63,103.59,43.2,114h0c3.62-.14,4.69-4.15,5.26-4.76a1.76,1.76,0,0,1,1.06-.36h8.64V97.29l-3.37,3.17-1.61-1.61,3.93-3.93-3.71-3.71,3.87-3.87,3.82,3.82,1.2-1.06A7.62,7.62,0,0,0,62.61,87h0a2.79,2.79,0,0,1,.71-2.67l6.1-6.1a2.3,2.3,0,0,1,3.24,0l2.51,2.51a2.3,2.3,0,0,1,0,3.24L69.08,90a2.78,2.78,0,0,1-2.83.68,6.88,6.88,0,0,0-2.19,1.05L62.64,93.1l3.56,3.56-3.8,3.8L60,98v10.82h8.29a1.7,1.7,0,0,1,1.39.71l2.22,3.07a1.74,1.74,0,0,0,1.4.72H76a1.72,1.72,0,0,0,1.32-.62l2.71-3.26a1.73,1.73,0,0,1,1.32-.62h7.44v-7.65C85.11,100.45,83.45,96.2,83.45,92.92Z"/></svg>