<svg id="Layer_1" data-name="Layer 1" xmlns="http://www.w3.org/2000/svg" viewBox="0 0 180 180"><defs><style>.cls-1{fill:#4b4b4b;}.cls-2{fill:#c4c6c7;}</style></defs><polygon class="cls-1" points="37.46 163.34 0 163.34 0 115.24 38.05 77.19 60.33 88.82 37.51 111.64 37.46 163.34"/><rect class="cls-2" x="72.11" y="120.26" width="15.62" height="15.62"/><rect class="cls-2" x="72.11" y="140.67" width="15.62" height="15.62"/><polygon class="cls-1" points="142.54 163.34 180 163.34 180 115.24 141.95 77.19 119.67 88.82 142.49 111.64 142.54 163.34"/><polygon class="cls-1" points="136.97 114.69 90 67.72 43.03 114.69 42.98 126.67 90 79.65 137.02 126.67 136.97 114.69"/><rect class="cls-2" x="92.27" y="120.26" width="15.62" height="15.62" transform="translate(200.16 256.15) rotate(-180)"/><rect class="cls-2" x="92.27" y="140.67" width="15.62" height="15.62" transform="translate(200.16 296.96) rotate(-180)"/><path class="cls-2" d="M171.09,97.78c0-.09-.1-.16-.14-.25a32.69,32.69,0,0,1-1.74-3.9c2.65,0,5.2,2.27,7.76,0A48.56,48.56,0,0,1,168,82.09c-.25-.46-.82-1-.46-1.46s1.11-.22,1.69-.13c1.75.29,1.65,0,2.43-.26,1.72-.68.87-1.36.22-2.17-5.2-6.4-9.83-13.14-12.85-21.07-1.14,2.36-2.11,4.64-3.3,6.8a73.33,73.33,0,0,1-7.58,11.08Z"/><path class="cls-2" d="M36.86,61.63c1,.41.88.73,3.19.35.75-.13,1.71-.53,2.22.16s-.29,1.32-.62,1.92a56.56,56.56,0,0,1-3.9,6.15L64.83,84.35l2.88-2.89-.11-.22c-.22-.46-.91-1.09-.3-1.68s1,.09,1.52.15l.52.12L90,59.17l20.66,20.66.52-.12c.51-.06,1-.61,1.52-.15s-.08,1.22-.3,1.68l-.11.22,2.88,2.88,27.08-14.13a56.56,56.56,0,0,1-3.9-6.15c-.33-.6-1.09-1.28-.62-1.92s1.47-.29,2.22-.16c2.31.38,2.17.06,3.19-.35,2.27-.89,1.15-1.78.29-2.84-6.81-8.4-12.89-17.25-16.86-27.66-1.49,3.11-2.76,6.1-4.32,8.93a100.9,100.9,0,0,1-13.1,18.32c-.48.55-1.42,1-1.05,1.94s1.41,1,2.19,1.07c1.73.15,3.47,0,5.29,0,.44.6-.18,1.09-.43,1.58-.69,1.34-1.44,2.63-2.22,3.89A67.11,67.11,0,0,1,102.5,52.19c-.28-.55-1-1.1-.48-1.77,2,0,4,.11,5.89-.05.87-.07,2-.13,2.45-1.19s-.64-1.56-1.18-2.17A112.39,112.39,0,0,1,94.59,26.6c-1.73-3.15-3.15-6.48-4.81-9.94C85.36,28.25,78.59,38.11,71,47.46c-1,1.19-2.2,2.18.32,3.18,1.14.45,1,.81,3.55.38.84-.14,1.9-.58,2.47.18s-.32,1.47-.68,2.14A69,69,0,0,1,67,66.74c-.75-1.21-1.47-2.44-2.13-3.72-.25-.49-.87-1-.43-1.58,1.82,0,3.56.1,5.29,0,.78-.06,1.83-.11,2.19-1.07s-.57-1.39-1.05-1.94a100.9,100.9,0,0,1-13.1-18.32c-1.56-2.83-2.83-5.82-4.32-8.93-4,10.41-10,19.26-16.86,27.66C35.71,59.85,34.59,60.74,36.86,61.63Zm68.37,9c.52-.51,1.12.09,1.69.17a16.91,16.91,0,0,1,2.8.77c-.91,1.19-1.85,2.35-2.84,3.48-.46-.83-.91-1.68-1.32-2.55C105.32,72,104.55,71.27,105.23,70.61ZM75,70.21a32.65,32.65,0,0,1-2,4.62q-1.52-1.74-2.9-3.59A18.45,18.45,0,0,1,75,70.21Z"/><path class="cls-2" d="M3,93.62c2.57,2.28,5.1,0,7.76,0a32.69,32.69,0,0,1-1.74,3.9c0,.09-.1.16-.14.25l22.9-22.9A74.13,74.13,0,0,1,24.22,63.8C23,61.64,22.07,59.36,20.93,57c-3,7.93-7.65,14.67-12.85,21.07-.65.81-1.5,1.49.22,2.17.78.31.68.55,2.43.26.58-.09,1.3-.4,1.69.13s-.21,1-.46,1.46A48.56,48.56,0,0,1,3,93.62Z"/></svg>