<svg id="Layer_1" data-name="Layer 1" xmlns="http://www.w3.org/2000/svg" viewBox="0 0 300 180"><defs><style>.cls-1{fill:#282528;}.cls-2{fill:#e69e1c;}.cls-3{fill:#2c2c64;}</style></defs><path d="M36.13,134.86v-8.4h2.32a4.77,4.77,0,0,1,3.33,1,4,4,0,0,1,1.11,3.08,4.13,4.13,0,0,1-1.23,3.12,4.55,4.55,0,0,1-3.3,1.18Zm1-7.51V134h1.25a3.55,3.55,0,0,0,2.57-.88,3.3,3.3,0,0,0,.92-2.51,3.12,3.12,0,0,0-.86-2.42,3.62,3.62,0,0,0-2.57-.81Z"/><path d="M45.53,134.86h-1v-8.4h1Z"/><path d="M54.51,134.86h-1.2L49,128.17l-.15-.27-.12-.26h0q0,.14,0,.42c0,.19,0,.44,0,.73v6.07h-1v-8.4H49l4.2,6.59c.09.14.17.25.22.35a1.28,1.28,0,0,1,.12.21h0a4.16,4.16,0,0,1-.05-.49c0-.2,0-.45,0-.74v-5.92h1Z"/><path d="M55.74,134.86l3.23-8.4h1l3.23,8.4H62.13l-.85-2.25H57.64l-.8,2.25ZM58,131.73h3L59.6,128a1.63,1.63,0,0,1-.07-.23q0-.14-.06-.33h0a2.55,2.55,0,0,1-.07.32,1.37,1.37,0,0,1-.07.24Z"/><path d="M63.73,134.22l.48-.74a4.38,4.38,0,0,0,1,.49,4.32,4.32,0,0,0,1.2.15,2.14,2.14,0,0,0,1.27-.36,1.21,1.21,0,0,0,.49-1,1.26,1.26,0,0,0-.42-1,4.6,4.6,0,0,0-1.37-.71,5.17,5.17,0,0,1-1.76-1,1.84,1.84,0,0,1-.57-1.41,2.1,2.1,0,0,1,.74-1.67,2.88,2.88,0,0,1,2-.64,5,5,0,0,1,1.1.12,5.55,5.55,0,0,1,1.12.39l-.37.79a4.18,4.18,0,0,0-.94-.32,4.34,4.34,0,0,0-1-.1,1.92,1.92,0,0,0-1.2.35,1.21,1.21,0,0,0-.43,1,1.07,1.07,0,0,0,.4.88,4.91,4.91,0,0,0,1.35.67,5,5,0,0,1,1.81,1,2.07,2.07,0,0,1,.55,1.52,2.21,2.21,0,0,1-.73,1.7,3,3,0,0,1-2.08.68,5,5,0,0,1-1.38-.18A5.15,5.15,0,0,1,63.73,134.22Z"/><path d="M75.87,132.11v2.75H74v-8.4h3a3.54,3.54,0,0,1,2.38.69,2.56,2.56,0,0,1,.8,2.06,2.67,2.67,0,0,1-.91,2.1,3.59,3.59,0,0,1-2.44.8Zm0-4.2v2.76h.74a1.59,1.59,0,0,0,1.14-.35,1.35,1.35,0,0,0,.38-1,1.33,1.33,0,0,0-.38-1,1.69,1.69,0,0,0-1.14-.34Z"/><path d="M86.39,134.86h-5v-8.4h4.84V128h-3v1.87H86v1.54H83.24v1.92h3.15Z"/><path d="M94.56,134.86H92.42l-1.12-2.07a3.11,3.11,0,0,0-.54-.76,1,1,0,0,0-.62-.29h-.51v3.12H87.74v-8.4h3a3.68,3.68,0,0,1,2.29.6,2.1,2.1,0,0,1,.76,1.78,2.19,2.19,0,0,1-.49,1.44,2.83,2.83,0,0,1-1.35.9v0a1.53,1.53,0,0,1,.7.49,4.5,4.5,0,0,1,.56.78Zm-4.93-7v2.43h.82a1.3,1.3,0,0,0,1-.37,1.23,1.23,0,0,0,.37-.91,1.07,1.07,0,0,0-.33-.86,1.43,1.43,0,0,0-1-.29Z"/><path d="M102.42,131.22a4.06,4.06,0,0,1-.88,2.84,3.46,3.46,0,0,1-2.65.95,3.34,3.34,0,0,1-2.56-.92,4,4,0,0,1-.86-2.8v-4.83h1.9v4.88a2.4,2.4,0,0,0,.4,1.52,1.65,1.65,0,0,0,2.37,0,2.34,2.34,0,0,0,.39-1.47v-5h1.89Z"/><path d="M113.82,134.86H112v-5c0-.27,0-.56,0-.86s0-.62,0-.94h0c-.06.25-.1.48-.14.66a3.25,3.25,0,0,1-.13.45l-2,5.71H108.2l-2-5.65c0-.08-.06-.22-.1-.41s-.1-.45-.16-.76h-.05c0,.41,0,.8.05,1.16s0,.7,0,1v4.64h-1.7v-8.4H107l1.72,5c.07.18.12.37.17.55s.09.37.12.56h0c.05-.21.11-.41.16-.6s.11-.36.17-.52l1.72-5h2.7Z"/><path d="M114.83,134.86l3.06-8.4h2.24l3,8.4h-2.06l-.57-1.75h-3l-.56,1.75Zm3-3.23h2.2l-.93-2.91-.08-.3c0-.08,0-.19-.06-.32h0a5.42,5.42,0,0,1-.15.59Z"/><path d="M131.44,134.86h-1.9v-3.42h-3.48v3.42h-1.89v-8.4h1.89v3.35h3.48v-3.35h1.9Z"/><path d="M132.46,134.86l3.06-8.4h2.24l3,8.4h-2.06l-.57-1.75h-3.05l-.56,1.75Zm3-3.23h2.2l-.93-2.91-.08-.3c0-.08,0-.19-.06-.32h0c0,.12,0,.22-.06.31s0,.18-.09.28Z"/><path d="M149.36,134.86h-1.91L144,129.58c-.11-.15-.19-.29-.26-.4l-.17-.29h0c0,.14,0,.33,0,.56s0,.49,0,.8v4.61H141.8v-8.4h2l3.33,5.12a4,4,0,0,1,.22.34l.2.34h0a3.33,3.33,0,0,1,0-.44c0-.19,0-.43,0-.71v-4.65h1.79Z"/><path d="M161.42,134.86h-2.14l-1.12-2.07a3.11,3.11,0,0,0-.54-.76,1,1,0,0,0-.63-.29h-.51v3.12h-1.89v-8.4h3a3.66,3.66,0,0,1,2.29.6,2.11,2.11,0,0,1,.77,1.78,2.19,2.19,0,0,1-.49,1.44,2.83,2.83,0,0,1-1.35.9v0a1.58,1.58,0,0,1,.7.49,4.43,4.43,0,0,1,.55.78Zm-4.94-7v2.43h.82a1.34,1.34,0,0,0,1-.37,1.27,1.27,0,0,0,.37-.91,1.07,1.07,0,0,0-.33-.86,1.43,1.43,0,0,0-1-.29Z"/><path d="M161.52,134.86l3.06-8.4h2.25l3,8.4h-2.06l-.57-1.75h-3l-.57,1.75Zm3-3.23h2.19l-.92-2.91q-.06-.18-.09-.3a2,2,0,0,1,0-.32h-.05c0,.12,0,.22-.06.31a2.22,2.22,0,0,1-.09.28Z"/><path d="M177.82,134.86h-2.36L173,131.28a.52.52,0,0,1-.09-.17c0-.08-.09-.17-.14-.29h0v4h-1.89v-8.4h1.89v3.9h0l.1-.2c0-.08.08-.17.14-.27l2.32-3.43h2.2l-2.89,4Z"/><path d="M185,126.46l-2.74,5.41v3h-1.89v-3l-2.67-5.45h2.16l1.36,3.14s0,.1.07.21l.12.47h0c0-.14.06-.26.09-.37a1.63,1.63,0,0,1,.1-.29l1.37-3.16Z"/><path d="M184.13,134.86l3.06-8.4h2.24l3,8.4h-2.06l-.57-1.75h-3l-.56,1.75Zm3-3.23h2.2l-.93-2.91-.08-.3c0-.08,0-.19-.06-.32h0a2.05,2.05,0,0,1-.07.31c0,.08,0,.18-.08.28Z"/><path d="M198.52,128h-2.39v6.86h-1.9V128h-2.39v-1.54h6.68Z"/><path d="M200.38,133.39l-.86,3h-1.44l.6-3Z"/><path d="M212.33,134.86H210l-2.45-3.58a.82.82,0,0,1-.09-.17l-.13-.29h0v4h-1.9v-8.4h1.9v3.9h0a1.59,1.59,0,0,1,.09-.2l.14-.27,2.32-3.43h2.2l-2.89,4Z"/><path d="M212.26,134.86l3.06-8.4h2.24l3,8.4h-2.06l-.57-1.75h-3l-.56,1.75Zm3-3.23h2.2l-.93-2.91-.08-.3c0-.08,0-.19-.06-.32h0a2.05,2.05,0,0,1-.07.31l-.08.28Z"/><path d="M232.2,126.46l-2.22,8.4h-2.09l-1.4-5.39q0-.21-.09-.45a3.74,3.74,0,0,1,0-.49h0a3.92,3.92,0,0,1-.06.52,2.2,2.2,0,0,1-.09.42l-1.43,5.39h-2.18l-2.21-8.4h2.06l1.19,5.6a3.66,3.66,0,0,1,.07.42c0,.15,0,.33,0,.54h0a4.19,4.19,0,0,1,.06-.48c0-.16.07-.33.11-.51l1.53-5.57h2l1.37,5.64a2.62,2.62,0,0,1,.07.38c0,.16.05.33.07.53h0c0-.16,0-.32,0-.47s0-.31.08-.47l1.16-5.61Z"/><path d="M232,134.86l3.05-8.4h2.25l3,8.4h-2.07l-.56-1.75h-3.05l-.56,1.75Zm3-3.23h2.2l-.93-2.91-.08-.3a1.84,1.84,0,0,1-.06-.32h0c0,.12,0,.22-.06.31l-.08.28Z"/><path d="M240.6,134.31l.79-1.47a4.78,4.78,0,0,0,1.09.5,3.54,3.54,0,0,0,1,.13,1.55,1.55,0,0,0,1-.26.87.87,0,0,0,.32-.71.84.84,0,0,0-.26-.66,2.09,2.09,0,0,0-.95-.39,4.46,4.46,0,0,1-2-.92,2.11,2.11,0,0,1-.64-1.65,2.31,2.31,0,0,1,.83-1.81,3.31,3.31,0,0,1,2.31-.75,5.57,5.57,0,0,1,1.22.14,5,5,0,0,1,1.14.41l-.71,1.49a4.35,4.35,0,0,0-.92-.39,2.92,2.92,0,0,0-.79-.12,1.52,1.52,0,0,0-.89.23.74.74,0,0,0-.32.64.67.67,0,0,0,.29.58,3.26,3.26,0,0,0,1,.38,4,4,0,0,1,2,.92,2.35,2.35,0,0,1,.61,1.74,2.45,2.45,0,0,1-.84,1.93,3.61,3.61,0,0,1-2.44.74,5.86,5.86,0,0,1-1.46-.19A5.12,5.12,0,0,1,240.6,134.31Z"/><path d="M247.11,134.86l3.06-8.4h2.24l3,8.4h-2.06l-.57-1.75h-3.05l-.56,1.75Zm3-3.23h2.2l-.92-2.91q-.06-.18-.09-.3c0-.08,0-.19-.06-.32h0c0,.12,0,.22-.06.31s0,.18-.09.28Z"/><path d="M264,134.86H262.1l-3.46-5.28c-.11-.15-.19-.29-.26-.4l-.17-.29h0c0,.14,0,.33,0,.56s0,.49,0,.8v4.61h-1.79v-8.4h2l3.33,5.12a4,4,0,0,1,.22.34c.08.11.14.23.21.34h0a3.33,3.33,0,0,1,0-.44c0-.19,0-.43,0-.71v-4.65H264Z"/><path d="M51.6,146.51v2.75H49.71v-8.4h3a3.52,3.52,0,0,1,2.38.69,2.56,2.56,0,0,1,.8,2.06,2.67,2.67,0,0,1-.91,2.1,3.59,3.59,0,0,1-2.44.8Zm0-4.2v2.76h.74a1.64,1.64,0,0,0,1.14-.34,1.39,1.39,0,0,0,.38-1,1.33,1.33,0,0,0-.38-1,1.69,1.69,0,0,0-1.14-.34Z"/><path d="M62.12,149.26h-5v-8.4h4.84v1.54H59v1.87h2.75v1.54H59v1.92h3.15Z"/><path d="M70.29,149.26H68.15L67,147.19a3.11,3.11,0,0,0-.54-.76,1,1,0,0,0-.62-.29h-.51v3.12H63.47v-8.4h3a3.66,3.66,0,0,1,2.29.6,2.1,2.1,0,0,1,.76,1.78,2.19,2.19,0,0,1-.49,1.44,2.83,2.83,0,0,1-1.35.9v0a1.53,1.53,0,0,1,.7.49,4.5,4.5,0,0,1,.56.78Zm-4.93-7v2.43h.82a1.3,1.3,0,0,0,1-.37,1.21,1.21,0,0,0,.37-.91,1.07,1.07,0,0,0-.33-.86,1.4,1.4,0,0,0-1-.29Z"/><path d="M80.87,149.26H79v-5c0-.27,0-.56,0-.86s0-.61.06-.94h0c0,.25-.1.48-.14.66a2.27,2.27,0,0,1-.13.45l-2,5.71H75.25l-2-5.65c0-.08-.06-.22-.11-.41s-.1-.45-.16-.76h0c0,.41,0,.8.06,1.16s0,.7,0,1v4.64H71.3v-8.4h2.77l1.72,5a3.86,3.86,0,0,1,.17.55c.05.19.09.37.13.56h0c.06-.21.11-.41.17-.6a5.3,5.3,0,0,1,.17-.52l1.71-5h2.7Z"/><path d="M89.63,145.62a4,4,0,0,1-.88,2.84,3.45,3.45,0,0,1-2.64.95,3.36,3.36,0,0,1-2.57-.92,4,4,0,0,1-.86-2.8v-4.83h1.9v4.88a2.5,2.5,0,0,0,.4,1.53,1.46,1.46,0,0,0,1.2.5,1.4,1.4,0,0,0,1.17-.49,2.34,2.34,0,0,0,.39-1.47v-4.95h1.89Z"/><path d="M98.42,149.26H96.06l-2.45-3.58a.52.52,0,0,1-.09-.17,2.68,2.68,0,0,1-.14-.29h0v4H91.46v-8.4h1.89v3.9h0l.1-.2c0-.08.08-.17.14-.27l2.32-3.43h2.2l-2.89,4Z"/><path d="M101.14,149.26H99.25v-8.4h1.89Z"/><path d="M112.63,149.26h-1.87v-5c0-.27,0-.56,0-.86s0-.61.06-.94h0c0,.25-.1.48-.14.66a3.46,3.46,0,0,1-.12.45l-2,5.71H107l-2-5.65c0-.08-.06-.22-.11-.41s-.1-.45-.16-.76h0c0,.41,0,.8.06,1.16s0,.7,0,1v4.64h-1.71v-8.4h2.77l1.72,5a3.86,3.86,0,0,1,.17.55c.05.19.09.37.13.56h0c.06-.21.11-.41.17-.6a5.3,5.3,0,0,1,.17-.52l1.71-5h2.71Z"/><path d="M113.63,149.26l3.06-8.4h2.25l3,8.4h-2.06l-.57-1.75h-3l-.57,1.75Zm3-3.23h2.19l-.92-2.91c0-.12-.06-.22-.09-.3a2,2,0,0,1,0-.32h-.05c0,.12,0,.22-.06.31a2.22,2.22,0,0,1-.09.28Z"/><path d="M130.53,149.26h-1.91L125.16,144l-.26-.4-.16-.29h0c0,.15,0,.33,0,.56s0,.49,0,.8v4.61H123v-8.4h2l3.34,5.12.22.34.2.34h0a3.73,3.73,0,0,1,0-.43c0-.2,0-.44,0-.72v-4.65h1.78Z"/><path d="M134,147.79l-.86,3h-1.44l.6-3Z"/><path d="M139,149.26v-8.4h3a4.84,4.84,0,0,1,3.36,1,4,4,0,0,1,1.12,3.08,4.14,4.14,0,0,1-1.22,3.13,4.52,4.52,0,0,1-3.26,1.17Zm1.89-6.86v5.33h.94a2.55,2.55,0,0,0,1.93-.74,2.82,2.82,0,0,0,.7-2,2.52,2.52,0,0,0-.7-1.89,2.64,2.64,0,0,0-1.95-.69Z"/><path d="M146.78,149.26l3.06-8.4h2.24l3,8.4H153l-.57-1.75h-3.05l-.56,1.75Zm3-3.23H152l-.92-2.91q-.06-.18-.09-.3c0-.08,0-.19-.06-.32h0c0,.12,0,.22-.06.31s-.05.18-.09.28Z"/><path d="M163.68,149.26h-1.91L158.31,144c-.11-.15-.19-.29-.26-.4l-.17-.29h0c0,.15,0,.33,0,.56s0,.49,0,.8v4.61h-1.79v-8.4h2l3.33,5.12a4,4,0,0,1,.22.34,3,3,0,0,1,.2.34h0a3.32,3.32,0,0,1,0-.43c0-.2,0-.44,0-.72v-4.65h1.79Z"/><path d="M170.8,146.51v2.75h-1.89v-8.4h3a3.56,3.56,0,0,1,2.38.69,2.56,2.56,0,0,1,.79,2.06,2.64,2.64,0,0,1-.91,2.1,3.58,3.58,0,0,1-2.43.8Zm0-4.2v2.76h.75a1.62,1.62,0,0,0,1.13-.34,1.39,1.39,0,0,0,.38-1,1.33,1.33,0,0,0-.38-1,1.68,1.68,0,0,0-1.13-.34Z"/><path d="M181.32,149.26h-5v-8.4h4.85v1.54h-3v1.87h2.75v1.54h-2.75v1.92h3.15Z"/><path d="M189.5,149.26h-2.14l-1.12-2.07a3.11,3.11,0,0,0-.54-.76,1,1,0,0,0-.63-.29h-.51v3.12h-1.89v-8.4h3a3.66,3.66,0,0,1,2.29.6,2.11,2.11,0,0,1,.77,1.78,2.24,2.24,0,0,1-.49,1.44,2.83,2.83,0,0,1-1.35.9v0a1.58,1.58,0,0,1,.7.49,5,5,0,0,1,.55.78Zm-4.94-7v2.43h.82a1.34,1.34,0,0,0,1-.37,1.25,1.25,0,0,0,.37-.91,1.07,1.07,0,0,0-.33-.86,1.43,1.43,0,0,0-1-.29Z"/><path d="M196.16,142.4h-2.4v6.86h-1.9V142.4h-2.38v-1.54h6.68Z"/><path d="M195.55,149.26l3.06-8.4h2.25l3,8.4h-2.06l-.57-1.75h-3l-.57,1.75Zm3-3.23h2.19l-.92-2.91c0-.12-.06-.22-.09-.3a2,2,0,0,1,0-.32h-.05c0,.12,0,.22-.06.31a2.22,2.22,0,0,1-.09.28Z"/><path d="M214.47,149.26H212.6v-5c0-.27,0-.56,0-.86s0-.61,0-.94h0c-.05.25-.09.48-.14.66a3.46,3.46,0,0,1-.12.45l-2,5.71h-1.55l-2-5.65-.11-.41c0-.2-.1-.45-.15-.76h-.06c0,.41,0,.8.06,1.16s0,.7,0,1v4.64h-1.71v-8.4h2.77l1.72,5a3.86,3.86,0,0,1,.17.55c0,.19.09.37.13.56h0c.05-.21.11-.41.16-.6a5.3,5.3,0,0,1,.17-.52l1.72-5h2.7Z"/><path d="M215.48,149.26l3.05-8.4h2.25l3,8.4H221.7l-.56-1.75h-3l-.56,1.75Zm3-3.23h2.2l-.93-2.91-.08-.3a1.84,1.84,0,0,1-.06-.32h0c0,.12,0,.22-.06.31l-.08.28Z"/><path d="M232.37,149.26h-1.91L227,144l-.26-.4-.16-.29h0c0,.15,0,.33,0,.56s0,.49,0,.8v4.61h-1.78v-8.4h2l3.34,5.12c.07.11.15.22.22.34l.2.34h0c0-.1,0-.24,0-.43s0-.44,0-.72v-4.65h1.78Z"/><path d="M233.39,149.26l3.06-8.4h2.25l3,8.4h-2.06l-.57-1.75h-3l-.57,1.75Zm3-3.23h2.19l-.92-2.91q-.06-.18-.09-.3a2,2,0,0,1,0-.32h-.05c0,.12,0,.22-.06.31a2.22,2.22,0,0,1-.09.28Z"/><path d="M250.29,149.26h-1.91L244.92,144l-.26-.4-.16-.29h0c0,.15,0,.33,0,.56s0,.49,0,.8v4.61h-1.79v-8.4h2l3.34,5.12.22.34.2.34h0a3.73,3.73,0,0,1,0-.43c0-.2,0-.44,0-.72v-4.65h1.79Z"/><path d="M104.25,162.65h-1.78L100.62,160l-.07-.13-.1-.22h0v3H99v-6.33h1.43v2.94h0l.07-.15.11-.2,1.75-2.59H104l-2.17,3Z"/><path d="M107.29,162.77a3,3,0,0,1-2.22-.89,3.18,3.18,0,0,1-.85-2.31,3.45,3.45,0,0,1,.86-2.43,3,3,0,0,1,2.31-.92,2.86,2.86,0,0,1,2.19.88,3.29,3.29,0,0,1,.84,2.34,3.35,3.35,0,0,1-.87,2.41A3,3,0,0,1,107.29,162.77Zm0-1.24a1.42,1.42,0,0,0,1.17-.53,2.33,2.33,0,0,0,.43-1.48,2.48,2.48,0,0,0-.42-1.53,1.38,1.38,0,0,0-1.15-.55,1.42,1.42,0,0,0-1.19.57,2.74,2.74,0,0,0,0,3A1.42,1.42,0,0,0,107.32,161.53Z"/><path d="M115.55,157.48h-1.8v5.17h-1.44v-5.17h-1.79v-1.16h5Z"/><path d="M115.1,162.65l2.3-6.33h1.69l2.25,6.33h-1.55l-.43-1.32h-2.29l-.43,1.32Zm2.27-2.43H119l-.7-2.2a2.18,2.18,0,0,0-.06-.22,1.19,1.19,0,0,1,0-.24h0c0,.09,0,.16,0,.23s0,.14-.07.21Z"/><path d="M129.07,157.48h-1.8v5.17h-1.43v-5.17H124v-1.16h5Z"/><path d="M128.62,162.65l2.3-6.33h1.69l2.26,6.33h-1.56l-.43-1.32h-2.29l-.43,1.32Zm2.28-2.43h1.65l-.7-2.2a2.18,2.18,0,0,0-.06-.22,1.19,1.19,0,0,1,0-.24h0c0,.09,0,.16,0,.23s0,.14-.07.21Z"/><path d="M141.35,162.65h-1.44l-2.61-4-.19-.31-.12-.22h0q0,.16,0,.42v4.08h-1.34v-6.33h1.53l2.52,3.86.16.26a1.65,1.65,0,0,1,.15.25h0a2.38,2.38,0,0,1,0-.33c0-.14,0-.32,0-.54v-3.5h1.34Z"/><path d="M145.45,160.58a2.15,2.15,0,0,1-.57,1.63,2.22,2.22,0,0,1-1.62.55,3,3,0,0,1-.59-.06,3.18,3.18,0,0,1-.62-.2l.44-1.08a1.84,1.84,0,0,0,.32.12,1,1,0,0,0,.32.05.81.81,0,0,0,.65-.24,1.13,1.13,0,0,0,.21-.77l0-4.26h1.42Z"/><path d="M152,159.91a3,3,0,0,1-.66,2.14,2.6,2.6,0,0,1-2,.72,2.52,2.52,0,0,1-1.93-.7,3,3,0,0,1-.65-2.1v-3.65h1.43V160a1.86,1.86,0,0,0,.3,1.15,1.11,1.11,0,0,0,.91.38,1,1,0,0,0,.88-.37,1.75,1.75,0,0,0,.29-1.11v-3.73H152Z"/><path d="M159.07,162.65h-1.44l-2.61-4c-.08-.12-.15-.22-.2-.31l-.12-.22h0q0,.16,0,.42c0,.18,0,.38,0,.61v3.47h-1.35v-6.33h1.54l2.51,3.86.16.26c.06.08.11.17.16.25h0a2.38,2.38,0,0,1,0-.33c0-.14,0-.32,0-.54v-3.5h1.35Z"/><path d="M165.71,162.18a4,4,0,0,1-1,.43,5.15,5.15,0,0,1-1.28.16,3.5,3.5,0,0,1-2.4-.8,3,3,0,0,1-.89-2.38,3.38,3.38,0,0,1,.9-2.41,3.32,3.32,0,0,1,2.52-1,5.52,5.52,0,0,1,1.11.1,5.28,5.28,0,0,1,1.06.32l-.44,1.1a5.33,5.33,0,0,0-.85-.25,4.88,4.88,0,0,0-.88-.08,1.91,1.91,0,0,0-1.41.53,2.21,2.21,0,0,0-.51,1.58,2.07,2.07,0,0,0,.51,1.55,1.87,1.87,0,0,0,1.34.5,2.13,2.13,0,0,0,.46,0,1.18,1.18,0,0,0,.36-.1v-1.24H163v-1.14h2.69Z"/><path d="M168.37,160.58v2.07h-1.43v-6.33h2.24a2.64,2.64,0,0,1,1.79.52,1.93,1.93,0,0,1,.6,1.55,2,2,0,0,1-.69,1.59,2.65,2.65,0,0,1-1.83.6Zm0-3.16v2.08h.56a1.22,1.22,0,0,0,.86-.27,1.23,1.23,0,0,0,0-1.56,1.26,1.26,0,0,0-.86-.25Z"/><path d="M173.92,162.65H172.5v-6.33h1.42Z"/><path d="M181.06,162.65h-1.44l-2.61-4-.19-.31a2,2,0,0,1-.13-.22h0c0,.11,0,.25,0,.42s0,.38,0,.61v3.47h-1.34v-6.33h1.53l2.51,3.86a2.33,2.33,0,0,1,.17.26c0,.08.11.17.15.25h0q0-.1,0-.33c0-.14,0-.32,0-.54v-3.5h1.35Z"/><path d="M181.83,162.65l2.31-6.33h1.69l2.25,6.33h-1.56l-.42-1.32h-2.3l-.42,1.32Zm2.28-2.43h1.65l-.69-2.2-.07-.22c0-.06,0-.14,0-.24h0c0,.09,0,.16-.05.23l-.06.21Z"/><path d="M194.57,162.65h-1.44l-2.61-4c-.08-.12-.15-.22-.2-.31l-.12-.22h0q0,.16,0,.42c0,.18,0,.38,0,.61v3.47h-1.35v-6.33h1.54l2.51,3.86.16.26c.06.08.11.17.16.25h0a2.38,2.38,0,0,1,0-.33c0-.14,0-.32,0-.54v-3.5h1.35Z"/><path d="M201.21,162.18a4,4,0,0,1-1,.43,5.15,5.15,0,0,1-1.28.16,3.5,3.5,0,0,1-2.4-.8,3,3,0,0,1-.89-2.38,3.38,3.38,0,0,1,.9-2.41,3.32,3.32,0,0,1,2.52-1,5.52,5.52,0,0,1,1.11.1,5.28,5.28,0,0,1,1.06.32l-.44,1.1a5.33,5.33,0,0,0-.85-.25,4.88,4.88,0,0,0-.88-.08,1.91,1.91,0,0,0-1.41.53,2.21,2.21,0,0,0-.51,1.58,2.07,2.07,0,0,0,.51,1.55,1.87,1.87,0,0,0,1.34.5,2.13,2.13,0,0,0,.46,0,1.18,1.18,0,0,0,.36-.1v-1.24h-1.27v-1.14h2.69Z"/><polygon class="cls-1" points="115.04 114.45 90.07 114.45 90.07 82.38 115.44 57.01 130.29 64.77 115.08 79.98 115.04 114.45"/><rect class="cls-2" x="138.14" y="85.73" width="10.42" height="10.42"/><rect class="cls-2" x="138.14" y="99.33" width="10.42" height="10.42"/><polygon class="cls-1" points="185.1 114.45 210.07 114.45 210.07 82.38 184.7 57.01 169.85 64.77 185.07 79.98 185.1 114.45"/><polygon class="cls-1" points="181.38 82.02 150.07 50.7 118.76 82.02 118.72 90 150.07 58.65 181.42 90 181.38 82.02"/><rect class="cls-2" x="151.58" y="85.73" width="10.42" height="10.42" transform="translate(313.58 181.87) rotate(-180)"/><rect class="cls-2" x="151.58" y="99.33" width="10.42" height="10.42" transform="translate(313.58 209.08) rotate(-180)"/><path class="cls-3" d="M204.13,70.74l-.09-.17a21.62,21.62,0,0,1-1.17-2.6c1.78,0,3.47,1.52,5.18,0a32.21,32.21,0,0,1-6-7.69c-.17-.3-.55-.65-.31-1s.74-.15,1.13-.09c1.17.2,1.1,0,1.61-.17,1.16-.46.59-.91.15-1.45a51.33,51.33,0,0,1-8.56-14.05c-.76,1.58-1.41,3.1-2.2,4.54a50.15,50.15,0,0,1-5,7.38Z"/><path class="cls-3" d="M114.64,46.64c.68.27.59.49,2.13.23.5-.08,1.14-.35,1.48.11s-.19.88-.41,1.28a39.44,39.44,0,0,1-2.6,4.1l18,9.42,1.92-1.92-.07-.14c-.15-.31-.61-.73-.2-1.13s.67.06,1,.11c.12,0,.23,0,.35.07L150.07,45l13.78,13.78a2.09,2.09,0,0,1,.34-.08c.34-.05.7-.41,1-.11s-.06.82-.21,1.13c0,.05-.05.09-.07.14l1.92,1.92,18.05-9.42a41.18,41.18,0,0,1-2.6-4.1c-.22-.4-.72-.85-.41-1.28s1-.19,1.48-.11c1.54.26,1.45,0,2.13-.23,1.51-.6.76-1.19.19-1.9-4.54-5.59-8.59-11.49-11.24-18.43-1,2.07-1.84,4.06-2.88,5.95a67.36,67.36,0,0,1-8.73,12.21c-.33.37-1,.67-.71,1.3s1,.67,1.47.71c1.15.1,2.31,0,3.53,0,.29.4-.13.73-.3,1.06-.46.89-1,1.75-1.48,2.59a44.27,44.27,0,0,1-6.94-9.82c-.19-.36-.65-.73-.33-1.17,1.36,0,2.65.07,3.93,0,.58,0,1.36-.09,1.63-.79s-.42-1-.78-1.45a74.89,74.89,0,0,1-9.73-13.6c-1.15-2.1-2.1-4.32-3.21-6.63C147,24.39,142.46,31,137.4,37.2c-.63.78-1.47,1.44.22,2.11.76.3.65.54,2.36.26.56-.1,1.27-.39,1.65.12s-.21,1-.45,1.42A45.69,45.69,0,0,1,134.72,50c-.5-.8-1-1.62-1.41-2.47-.17-.33-.59-.66-.29-1.06,1.21,0,2.37.07,3.52,0,.52,0,1.23-.08,1.47-.71s-.38-.93-.71-1.3a67.36,67.36,0,0,1-8.73-12.21c-1-1.89-1.88-3.88-2.88-5.95-2.64,6.94-6.7,12.84-11.24,18.43C113.88,45.45,113.13,46,114.64,46.64Zm45.58,6c.35-.34.75.07,1.13.12a11.53,11.53,0,0,1,1.87.51c-.61.8-1.24,1.57-1.9,2.32-.3-.55-.6-1.12-.87-1.7C160.28,53.53,159.77,53.06,160.22,52.62Zm-20.17-.26a22.34,22.34,0,0,1-1.36,3.08c-.67-.78-1.32-1.57-1.93-2.39A12.15,12.15,0,0,1,140.05,52.36Z"/><path class="cls-3" d="M92.09,68c1.71,1.52,3.4,0,5.18,0a21.62,21.62,0,0,1-1.17,2.6,1.4,1.4,0,0,1-.09.17l15.27-15.27a49.45,49.45,0,0,1-5.06-7.38c-.79-1.44-1.44-3-2.19-4.54A51.61,51.61,0,0,1,95.46,57.6c-.44.54-1,1,.15,1.45.51.2.44.37,1.62.17.38-.06.86-.26,1.12.09s-.14.67-.31,1A32,32,0,0,1,92.09,68Z"/></svg>