<svg id="Layer_1" data-name="Layer 1" xmlns="http://www.w3.org/2000/svg" viewBox="0 0 180 180"><defs><style>.cls-1{fill:#c4c6c7;}.cls-1,.cls-2{fill-rule:evenodd;}.cls-2{fill:#4b4b4b;}</style></defs><g id="g855"><polygon id="polygon9" class="cls-1" points="10.52 180 10.52 0 169.49 0 169.49 180 10.52 180"/><path id="path11" class="cls-2" d="M10.52,180H18.9v-3.86c0-22,17.45-40.1,39-40.1s39,18.08,39,40.1c0,1.3-.06,2.59-.18,3.86h72.82V120.46h-9.11v1a32.79,32.79,0,0,1,.18,3.45c0,17.43-13.8,31.55-30.83,31.55S98.9,142.31,98.9,124.88V0H34.58V12.12c28,0,50.72,23.24,50.72,51.9s-22.71,51.89-50.72,51.89H10.52V180Z"/></g></svg>