<svg id="Layer_1" data-name="Layer 1" xmlns="http://www.w3.org/2000/svg" viewBox="0 0 180 180"><defs><style>.cls-1{fill:#fff;}.cls-2{fill:#c4c6c7;}.cls-3{fill:#d9dadb;}</style></defs><path class="cls-1" d="M157.14,149.74v4.88H23.07v-4.88Z"/><path class="cls-2" d="M23,145V83.67c-2.38.28-4.75.89-7.08.77C6.88,84,.4,77.08,0,68a16.19,16.19,0,0,1,2.14-9C8.83,47.08,15.31,35.1,21.78,23.12a3.93,3.93,0,0,1,3.94-2.38c21.49.05,43,0,64.48,0,21.27,0,42.54,0,63.81,0a4.38,4.38,0,0,1,4.49,2.6c6.87,12.77,13.89,25.47,20.8,38.22a6.29,6.29,0,0,1,.7,3,35.61,35.61,0,0,1-.57,7.47,16.5,16.5,0,0,1-21,11.71l-1.25-.4V145c.29,0,.56.09.83.1,3.36.13,3.74.52,3.74,3.82v6.87c0,2.82-.66,3.48-3.43,3.48q-12.15,0-24.29,0H22.31c-3.38,0-3.9-.51-3.9-3.85v-6.87c0-2.83.57-3.39,3.44-3.44Zm4.59-.17h124.8a6.37,6.37,0,0,0,.08-.64q0-31.32,0-62.64a2.16,2.16,0,0,0-.26-1.26c-1.16-1.45-2.41-2.83-3.64-4.25-3.39,5.48-8.25,8.5-14.69,8.45s-11.17-3.16-14.53-8.64c-3.46,5.66-8.35,8.64-14.76,8.64S93.41,81.37,90,75.9c-3.46,5.63-8.32,8.66-14.75,8.62S64.05,81.41,60.7,75.84c-3.42,5.64-8.27,8.69-14.7,8.68S34.75,81.43,31.43,76a27.64,27.64,0,0,1-2.54,3.21,4,4,0,0,0-1.29,3.24q.06,30.32,0,60.62Zm60-83.7V25.41H70.06c-2.17,12-4.33,23.8-6.5,35.75Zm4.83-35.79V61.11h24.1c-2.19-12-4.35-23.85-6.52-35.74ZM34.86,61.11H58.94c2.18-11.94,4.34-23.8,6.52-35.8-5.57,0-10.86,0-16.15,0a1.69,1.69,0,0,0-1.91,1.33c-2.72,7.61-5.51,15.2-8.27,22.79C37.72,53.26,36.31,57.12,34.86,61.11Zm110.33,0a6.63,6.63,0,0,0-.16-.77q-6.21-17-12.4-34.09c-.32-.89-.82-1-1.62-1-3.24,0-6.48,0-9.71,0h-6.62c2.21,12.1,4.37,24,6.54,35.86Zm-139-.06c.38,0,.58.11.78.11,7.31,0,14.61,0,21.92,0,1.09,0,1.25-.61,1.52-1.36q4.36-12,8.76-24L43,25.39c-.71,0-1.2-.08-1.68-.08-4.68,0-9.37,0-14.05,0A2.24,2.24,0,0,0,25,26.67C19.11,37.5,13.18,48.29,7.27,59.1,6.93,59.72,6.62,60.35,6.23,61.1Zm167.65,0a7.22,7.22,0,0,0-.36-.83q-9.3-17-18.64-34a2.35,2.35,0,0,0-1.67-.93c-1.72-.13-3.45-.05-5.18-.05H137.1l13.05,35.83Zm-16.74,88.61H23.07v4.88H157.14ZM4.76,65.78a12.22,12.22,0,0,0,5.55,12.44,12.09,12.09,0,0,0,13.24-.34c4.11-3,5.65-7.08,5.14-12.1Zm117.4,0a12,12,0,0,0,5.44,12.32,11.67,11.67,0,0,0,13.25-.22A12,12,0,0,0,146,65.79Zm-88,0a12.26,12.26,0,0,0,5.6,12.44A12,12,0,0,0,53,77.8c3.87-2.77,5.92-7.74,4.92-12Zm117.32,0c-.56,5.59,1.29,9.9,6,12.64a11.37,11.37,0,0,0,12.91-.62c4.13-2.87,5.55-7,5.1-12Zm-88.12-.09c-.39,5.73,1.42,10.18,6.39,12.86a11.33,11.33,0,0,0,13-1.09c3.79-2.92,5.16-6.92,4.56-11.77h-24Zm29.43.08c-.53,5.38,1.21,9.58,5.69,12.44a11.77,11.77,0,0,0,13.23-.43c4.08-3,5.49-7,5.11-12Z"/><path class="cls-2" d="M143.69,120v18.76c0,2.32-.69,3.07-2.93,3.08q-18,0-36,0c-2,0-2.76-.74-2.77-2.74,0-12.56-.14-25.12,0-37.67A16.72,16.72,0,0,1,118.57,85a68.11,68.11,0,0,1,11.35.36,16.57,16.57,0,0,1,13.76,16.4C143.71,107.84,143.69,113.93,143.69,120Zm-4.53,17.26a9,9,0,0,0,.1-1c0-11.6.07-23.2,0-34.8a12.15,12.15,0,0,0-10.38-11.8,59.61,59.61,0,0,0-10.35-.25,12.4,12.4,0,0,0-12,12.71q0,16.72,0,33.46v1.64Z"/><path class="cls-2" d="M63.07,116.23H36.78c-2.54,0-2.91-.38-2.91-2.9V91.23c0-2.21.45-2.71,2.61-2.71H89.73c2.06,0,2.58.52,2.58,2.58q0,11.3,0,22.6c0,2-.51,2.53-2.62,2.53Zm-25.51-3.64h51V92.17h-51Z"/><path class="cls-2" d="M42.33,129.27c-2.06,0-4.13,0-6.19,0-1.52,0-2.28-.65-2.27-2.2q0-3.67,0-7.36c0-1.51.68-2.26,2.23-2.25,4.13,0,8.25,0,12.38,0a2,2,0,0,1,2.29,2.22c0,2.46,0,4.91,0,7.36,0,1.7-.65,2.21-2.42,2.23C46.35,129.29,44.34,129.27,42.33,129.27Zm-4.81-3.66h9.56v-4.4H37.52Z"/><path class="cls-2" d="M63.05,129.27c-2.06,0-4.13,0-6.19,0-1.45,0-2.21-.63-2.21-2.08,0-2.57,0-5.13,0-7.7a1.85,1.85,0,0,1,2.12-2H69.48a1.86,1.86,0,0,1,2.06,2.09c0,2.56,0,5.13,0,7.7a1.84,1.84,0,0,1-2.12,2C67.29,129.25,65.17,129.27,63.05,129.27Zm-4.68-8.11v4.5h9.47v-4.5Z"/><path class="cls-2" d="M83.71,129.27c-2.06,0-4.13,0-6.19,0a1.85,1.85,0,0,1-2.1-2c0-2.56,0-5.13,0-7.69a1.86,1.86,0,0,1,2.07-2.07H90.2a1.85,1.85,0,0,1,2.1,2c0,2.57,0,5.13,0,7.7,0,1.45-.8,2.09-2.24,2.07-2.11,0-4.23,0-6.35,0Zm5-8.07H79.11v4.43h9.56Z"/><path class="cls-3" d="M27.63,144.86V143q0-30.3,0-60.62a4,4,0,0,1,1.29-3.24A27.64,27.64,0,0,0,31.43,76c3.32,5.47,8.16,8.55,14.57,8.56s11.28-3,14.7-8.68c3.35,5.57,8.16,8.64,14.56,8.68s11.29-3,14.75-8.62c3.4,5.47,8.21,8.61,14.61,8.62s11.3-3,14.76-8.64c3.36,5.48,8.15,8.59,14.53,8.64s11.3-3,14.69-8.45c1.23,1.42,2.48,2.8,3.64,4.25a2.16,2.16,0,0,1,.26,1.26q0,31.32,0,62.64a6.37,6.37,0,0,1-.08.64ZM143.69,120c0-6.08,0-12.17,0-18.25a16.57,16.57,0,0,0-13.76-16.4A68.11,68.11,0,0,0,118.57,85,16.72,16.72,0,0,0,102,101.43c-.17,12.55,0,25.11,0,37.67,0,2,.76,2.73,2.77,2.74q18,0,36,0c2.24,0,2.92-.76,2.93-3.08Zm-80.62-3.78H89.69c2.11,0,2.62-.48,2.62-2.53q0-11.3,0-22.6c0-2.06-.52-2.58-2.58-2.58H36.48c-2.16,0-2.61.5-2.61,2.71v22.1c0,2.52.37,2.9,2.91,2.9Zm-20.74,13c2,0,4,0,6,0,1.77,0,2.38-.53,2.42-2.23,0-2.45,0-4.9,0-7.36a2,2,0,0,0-2.29-2.22c-4.13,0-8.25,0-12.38,0-1.55,0-2.24.74-2.23,2.25q0,3.69,0,7.36c0,1.55.75,2.23,2.27,2.2C38.2,129.25,40.27,129.27,42.33,129.27Zm20.72,0c2.12,0,4.24,0,6.36,0a1.84,1.84,0,0,0,2.12-2c0-2.57,0-5.14,0-7.7a1.86,1.86,0,0,0-2.06-2.09H56.77a1.85,1.85,0,0,0-2.12,2c0,2.57,0,5.13,0,7.7,0,1.45.76,2.11,2.21,2.08C58.92,129.25,61,129.27,63.05,129.27Zm20.66,0h0c2.12,0,4.24,0,6.35,0,1.44,0,2.23-.62,2.24-2.07,0-2.57,0-5.13,0-7.7a1.85,1.85,0,0,0-2.1-2H77.49a1.86,1.86,0,0,0-2.07,2.07c0,2.56,0,5.13,0,7.69a1.85,1.85,0,0,0,2.1,2C79.58,129.25,81.65,129.27,83.71,129.27Z"/><path class="cls-3" d="M87.66,61.16H63.56c2.17-11.95,4.33-23.8,6.5-35.75h17.6Z"/><path class="cls-3" d="M92.49,25.37h17.58c2.17,11.89,4.33,23.76,6.52,35.74H92.49Z"/><path class="cls-3" d="M34.86,61.11c1.45-4,2.86-7.85,4.27-11.71,2.76-7.59,5.55-15.18,8.27-22.79a1.69,1.69,0,0,1,1.91-1.33c5.29.06,10.58,0,16.15,0-2.18,12-4.34,23.86-6.52,35.8Z"/><path class="cls-3" d="M145.19,61.16h-24c-2.17-11.89-4.33-23.76-6.54-35.86h6.62c3.23,0,6.47,0,9.71,0,.8,0,1.3.11,1.62,1Q138.8,43.36,145,60.39A6.63,6.63,0,0,1,145.19,61.16Z"/><path class="cls-3" d="M6.23,61.1c.39-.75.7-1.38,1-2C13.18,48.29,19.11,37.5,25,26.67a2.24,2.24,0,0,1,2.32-1.39c4.68.06,9.37,0,14.05,0,.48,0,1,0,1.68.08L39.21,35.86q-4.38,12-8.76,24c-.27.75-.43,1.36-1.52,1.36-7.31-.06-14.61,0-21.92,0C6.81,61.21,6.61,61.15,6.23,61.1Z"/><path class="cls-3" d="M173.88,61.13H150.15L137.1,25.3H148c1.73,0,3.46-.08,5.18.05a2.35,2.35,0,0,1,1.67.93q9.38,17,18.64,34A7.22,7.22,0,0,1,173.88,61.13Z"/><path class="cls-3" d="M4.76,65.78H28.69c.51,5-1,9.1-5.14,12.1a12.09,12.09,0,0,1-13.24.34A12.22,12.22,0,0,1,4.76,65.78Z"/><path class="cls-3" d="M122.16,65.79H146a12,12,0,0,1-5.12,12.1,11.67,11.67,0,0,1-13.25.22A12,12,0,0,1,122.16,65.79Z"/><path class="cls-3" d="M34.12,65.77H57.89c1,4.29-1,9.26-4.92,12a12,12,0,0,1-13.25.41A12.26,12.26,0,0,1,34.12,65.77Z"/><path class="cls-3" d="M151.44,65.77h24c.45,5-1,9.15-5.1,12a11.37,11.37,0,0,1-12.91.62C152.73,75.67,150.88,71.36,151.44,65.77Z"/><path class="cls-3" d="M63.32,65.68h24c.6,4.85-.77,8.85-4.56,11.77a11.33,11.33,0,0,1-13,1.09C64.74,75.86,62.93,71.41,63.32,65.68Z"/><path class="cls-3" d="M92.75,65.76h24c.38,5-1,9.06-5.11,12a11.77,11.77,0,0,1-13.23.43C94,75.34,92.22,71.14,92.75,65.76Z"/><path class="cls-3" d="M139.16,137.27h-32.7v-1.64q0-16.72,0-33.46a12.4,12.4,0,0,1,12-12.71,59.61,59.61,0,0,1,10.35.25,12.15,12.15,0,0,1,10.38,11.8c.1,11.6,0,23.2,0,34.8A9,9,0,0,1,139.16,137.27Z"/><path class="cls-3" d="M37.56,112.59V92.17h51v20.42Z"/><path class="cls-3" d="M37.52,125.61v-4.4h9.56v4.4Z"/><path class="cls-3" d="M58.37,121.16h9.47v4.5H58.37Z"/><path class="cls-3" d="M88.67,121.2v4.43H79.11V121.2Z"/><rect class="cls-3" x="23.07" y="149.74" width="134.07" height="4.88"/><path class="cls-2" d="M115.82,103.1H117v2.66a2,2,0,0,1-.61,1.56,3.06,3.06,0,0,1-3.46,0,1.93,1.93,0,0,1-.61-1.54V103.1h1.17v2.7a1,1,0,0,0,.32.78,1.17,1.17,0,0,0,.84.3,1.18,1.18,0,0,0,.86-.31,1.08,1.08,0,0,0,.32-.85Z"/><path class="cls-2" d="M120.52,104.84,122,103.1h1v4.69h-1.17v-2.93l-1.26,1.47h-.18l-1.26-1.47v2.93H118V103.1h1Z"/><path class="cls-2" d="M128,103.1l-1.53,2.21,2.07,2.48h-1.46l-1.85-2.2v2.2h-1.17V103.1h1.17v2.11l1.49-2.11Z"/><path class="cls-2" d="M131.53,104.84,133,103.1h1v4.69h-1.16v-2.93l-1.27,1.47h-.17l-1.27-1.47v2.93H129V103.1h1Z"/></svg>