<svg id="Layer_1" data-name="Layer 1" xmlns="http://www.w3.org/2000/svg" viewBox="0 0 300 180"><defs><style>.cls-1{fill:#4b4b4b;}.cls-2{fill:#fff;}.cls-3{fill:#c4c6c7;}.cls-4{fill:#282528;}</style></defs><path class="cls-1" d="M56.5,134.86v-8.4h2.32a4.77,4.77,0,0,1,3.33,1,4,4,0,0,1,1.11,3.08A4.09,4.09,0,0,1,62,133.68a4.55,4.55,0,0,1-3.3,1.18Zm1-7.51V134h1.26a3.56,3.56,0,0,0,2.57-.88,3.34,3.34,0,0,0,.92-2.51,3.16,3.16,0,0,0-.86-2.42,3.63,3.63,0,0,0-2.58-.81Z"/><path class="cls-1" d="M65.9,134.86h-1v-8.4h1Z"/><path class="cls-1" d="M74.88,134.86H73.67l-4.32-6.69a2.43,2.43,0,0,1-.15-.26,1.59,1.59,0,0,1-.12-.27h0a3,3,0,0,1,0,.42c0,.19,0,.44,0,.73v6.07h-1v-8.4h1.28l4.21,6.59.22.35a1.72,1.72,0,0,1,.12.22h0c0-.13,0-.29,0-.5s0-.45,0-.74v-5.92h1Z"/><path class="cls-1" d="M76.11,134.86l3.22-8.4h1l3.23,8.4H82.5l-.85-2.25H78l-.81,2.25Zm2.22-3.13h3L80,128a1.84,1.84,0,0,1-.06-.23c0-.09,0-.2-.07-.33h0c0,.12,0,.22-.06.32s0,.17-.07.24Z"/><path class="cls-1" d="M84.09,134.22l.49-.74a3.87,3.87,0,0,0,1,.49,4.28,4.28,0,0,0,1.2.15,2.09,2.09,0,0,0,1.26-.36,1.22,1.22,0,0,0,.5-1,1.3,1.3,0,0,0-.42-1,4.55,4.55,0,0,0-1.38-.71A5.11,5.11,0,0,1,85,130a1.84,1.84,0,0,1-.57-1.41,2.07,2.07,0,0,1,.74-1.67,2.85,2.85,0,0,1,2-.64,5.08,5.08,0,0,1,1.1.12,5.27,5.27,0,0,1,1.11.39l-.37.79a4.67,4.67,0,0,0-.93-.32,4.4,4.4,0,0,0-1-.1,1.88,1.88,0,0,0-1.2.35,1.21,1.21,0,0,0-.44,1,1.08,1.08,0,0,0,.4.88,4.64,4.64,0,0,0,1.35.67,5,5,0,0,1,1.82,1,2.07,2.07,0,0,1,.55,1.52,2.22,2.22,0,0,1-.74,1.7,2.9,2.9,0,0,1-2.07.68,4.45,4.45,0,0,1-2.65-.78Z"/><path class="cls-1" d="M100.24,128h-2.4v6.86h-1.9V128H93.56v-1.54h6.68Z"/><path class="cls-1" d="M106.41,134.86h-5v-8.4h4.85V128h-3v1.87H106v1.54h-2.74v1.92h3.14Z"/><path class="cls-1" d="M115.32,134.86h-1.91L110,129.58c-.11-.15-.19-.29-.26-.4l-.17-.29h0c0,.14,0,.33,0,.56s0,.49,0,.8v4.61h-1.79v-8.4h2l3.33,5.12a4,4,0,0,1,.22.34l.21.34h0a3.32,3.32,0,0,1,0-.43c0-.2,0-.44,0-.72v-4.65h1.79Z"/><path class="cls-1" d="M116.34,134.86l3.06-8.4h2.24l3,8.4h-2.06l-.57-1.75h-3l-.56,1.75Zm3-3.23h2.2l-.93-2.91-.08-.3c0-.08,0-.19-.06-.32h0a2.05,2.05,0,0,1-.07.31c0,.08,0,.18-.08.28Z"/><path class="cls-1" d="M132.46,134.23a5.25,5.25,0,0,1-1.36.57,6.43,6.43,0,0,1-1.7.21,4.62,4.62,0,0,1-3.18-1A4,4,0,0,1,125,130.8a4.46,4.46,0,0,1,1.21-3.2,4.36,4.36,0,0,1,3.34-1.28,7.66,7.66,0,0,1,1.47.13,7.75,7.75,0,0,1,1.41.43l-.59,1.47a6,6,0,0,0-1.13-.34,6.09,6.09,0,0,0-1.16-.11,2.49,2.49,0,0,0-1.87.71,2.89,2.89,0,0,0-.68,2.1,2.74,2.74,0,0,0,.68,2.06,2.48,2.48,0,0,0,1.78.65,2.9,2.9,0,0,0,.61,0,2,2,0,0,0,.47-.13v-1.65h-1.69v-1.51h3.58Z"/><path class="cls-1" d="M133.19,134.86l3.06-8.4h2.24l3,8.4h-2.06l-.57-1.75h-3l-.56,1.75Zm3-3.23h2.2l-.92-2.91q-.06-.18-.09-.3c0-.08,0-.19-.06-.32h0c0,.12,0,.22-.06.31s-.05.18-.09.28Z"/><path class="cls-1" d="M152.8,134.86h-2.37L148,131.28a.75.75,0,0,1-.1-.17c0-.08-.08-.17-.13-.29h0v4h-1.89v-8.4h1.89v3.9h0l.1-.2c0-.08.08-.17.14-.27l2.32-3.43h2.19l-2.88,4Z"/><path class="cls-1" d="M158.67,134.86h-5v-8.4h4.84V128h-2.95v1.87h2.75v1.54h-2.75v1.92h3.15Z"/><path class="cls-1" d="M166.84,134.86H164.7l-1.12-2.07A3.11,3.11,0,0,0,163,132a1,1,0,0,0-.62-.29h-.51v3.12H160v-8.4h3a3.7,3.7,0,0,1,2.3.6,2.1,2.1,0,0,1,.76,1.78,2.19,2.19,0,0,1-.49,1.44,2.83,2.83,0,0,1-1.35.9v0a1.53,1.53,0,0,1,.7.49,5.1,5.1,0,0,1,.56.78Zm-4.93-7v2.43h.82a1.3,1.3,0,0,0,1-.37,1.21,1.21,0,0,0,.37-.91,1.07,1.07,0,0,0-.33-.86,1.43,1.43,0,0,0-1-.29Z"/><path class="cls-1" d="M171.65,132.11a2.91,2.91,0,0,1-.76,2.17,3,3,0,0,1-2.14.72,3.59,3.59,0,0,1-.79-.08,3.88,3.88,0,0,1-.82-.26l.58-1.44a3.08,3.08,0,0,0,.42.17,1.46,1.46,0,0,0,.44.06,1.09,1.09,0,0,0,.86-.32,1.57,1.57,0,0,0,.28-1l0-5.65h1.89Z"/><path class="cls-1" d="M172.22,134.86l3.06-8.4h2.24l3,8.4h-2.06l-.57-1.75h-3l-.56,1.75Zm3-3.23h2.2l-.93-2.91-.08-.3c0-.08,0-.19-.06-.32h0a5.42,5.42,0,0,1-.15.59Z"/><path class="cls-1" d="M183.47,133.39l-.86,3h-1.44l.6-3Z"/><path class="cls-1" d="M195.42,134.86h-2.36l-2.45-3.58-.09-.17-.13-.29h0v4h-1.89v-8.4h1.89v3.9h0a1.59,1.59,0,0,1,.09-.2l.14-.27,2.32-3.43h2.2l-2.89,4Z"/><path class="cls-1" d="M199.46,135a3.9,3.9,0,0,1-2.94-1.18,4.2,4.2,0,0,1-1.14-3.06,4.53,4.53,0,0,1,1.16-3.22,4,4,0,0,1,3.05-1.23,3.8,3.8,0,0,1,2.91,1.18,4.33,4.33,0,0,1,1.11,3.1,4.46,4.46,0,0,1-1.15,3.2A4,4,0,0,1,199.46,135Zm0-1.64a1.9,1.9,0,0,0,1.55-.7,3,3,0,0,0,.57-2,3.27,3.27,0,0,0-.55-2,1.82,1.82,0,0,0-1.53-.73,1.9,1.9,0,0,0-1.58.75,3.6,3.6,0,0,0,0,4A1.88,1.88,0,0,0,199.5,133.37Z"/><path class="cls-1" d="M206.9,132.11v2.75H205v-8.4h3a3.52,3.52,0,0,1,2.38.69,2.56,2.56,0,0,1,.8,2.06,2.67,2.67,0,0,1-.91,2.1,3.59,3.59,0,0,1-2.44.8Zm0-4.2v2.76h.75a1.62,1.62,0,0,0,1.13-.34,1.39,1.39,0,0,0,.38-1.05,1.33,1.33,0,0,0-.38-1,1.68,1.68,0,0,0-1.13-.34Z"/><path class="cls-1" d="M217.42,134.86h-5v-8.4h4.85V128h-3v1.87H217v1.54h-2.75v1.92h3.15Z"/><path class="cls-1" d="M225.59,134.86h-2.14l-1.12-2.07a2.86,2.86,0,0,0-.54-.76,1,1,0,0,0-.62-.29h-.51v3.12h-1.89v-8.4h3a3.66,3.66,0,0,1,2.29.6,2.11,2.11,0,0,1,.77,1.78,2.19,2.19,0,0,1-.5,1.44,2.8,2.8,0,0,1-1.34.9v0a1.5,1.5,0,0,1,.69.49,4.5,4.5,0,0,1,.56.78Zm-4.93-7v2.43h.82a1.3,1.3,0,0,0,1-.37,1.21,1.21,0,0,0,.37-.91,1.07,1.07,0,0,0-.33-.86,1.4,1.4,0,0,0-1-.29Z"/><path class="cls-1" d="M225.7,134.86l3.06-8.4H231l3,8.4h-2.06l-.57-1.75h-3.05l-.56,1.75Zm3-3.23h2.2l-.93-2.91-.08-.3c0-.08,0-.19-.06-.32h0c0,.12-.05.22-.07.31l-.08.28Z"/><path class="cls-1" d="M234.35,134.31l.79-1.47a4.64,4.64,0,0,0,1.1.5,3.46,3.46,0,0,0,1,.13,1.55,1.55,0,0,0,1-.26.87.87,0,0,0,.32-.71.8.8,0,0,0-.26-.66,2,2,0,0,0-.95-.39,4.51,4.51,0,0,1-2-.92,2.11,2.11,0,0,1-.64-1.65,2.36,2.36,0,0,1,.83-1.81,3.31,3.31,0,0,1,2.31-.75,5.5,5.5,0,0,1,1.22.14,5,5,0,0,1,1.14.41l-.71,1.5a4,4,0,0,0-.92-.4,2.88,2.88,0,0,0-.79-.11,1.52,1.52,0,0,0-.89.22.73.73,0,0,0-.31.64.65.65,0,0,0,.29.58,3.17,3.17,0,0,0,1,.38,3.94,3.94,0,0,1,2,.92,2.35,2.35,0,0,1,.61,1.74,2.45,2.45,0,0,1-.84,1.93,3.59,3.59,0,0,1-2.44.74,6.33,6.33,0,0,1-1.46-.18A5.5,5.5,0,0,1,234.35,134.31Z"/><path class="cls-1" d="M243.66,134.86h-1.9v-8.4h1.9Z"/><path class="cls-1" d="M93.68,149.26v-8.4h3a4.84,4.84,0,0,1,3.36,1,4,4,0,0,1,1.12,3.08,4.14,4.14,0,0,1-1.22,3.13,4.52,4.52,0,0,1-3.26,1.17Zm1.89-6.86v5.33h.94a2.55,2.55,0,0,0,1.93-.74,2.78,2.78,0,0,0,.7-2,2.52,2.52,0,0,0-.7-1.89,2.63,2.63,0,0,0-1.94-.69Z"/><path class="cls-1" d="M101.44,149.26l3.06-8.4h2.24l3,8.4h-2.06l-.57-1.75h-3l-.56,1.75Zm3-3.23h2.2l-.92-2.91q-.06-.18-.09-.3c0-.08,0-.19-.06-.32h0c0,.12,0,.22-.06.31a2.22,2.22,0,0,1-.09.28Z"/><path class="cls-1" d="M118.34,149.26h-1.91L113,144c-.11-.15-.19-.29-.26-.4s-.13-.21-.17-.29h0c0,.15,0,.33,0,.56s0,.49,0,.8v4.61h-1.79v-8.4h2l3.33,5.12a4,4,0,0,1,.22.34c.08.11.14.23.21.34h0a3.32,3.32,0,0,1,0-.43c0-.2,0-.44,0-.72v-4.65h1.79Z"/><path class="cls-1" d="M130.42,145.62a4,4,0,0,1-.88,2.84,3.46,3.46,0,0,1-2.65.95,3.34,3.34,0,0,1-2.56-.92,4,4,0,0,1-.86-2.79v-4.84h1.9v4.88a2.43,2.43,0,0,0,.4,1.53,1.64,1.64,0,0,0,2.37,0,2.34,2.34,0,0,0,.39-1.47v-4.95h1.89Z"/><path class="cls-1" d="M131.56,148.71l.79-1.47a4.43,4.43,0,0,0,1.1.5,3.46,3.46,0,0,0,1,.13,1.53,1.53,0,0,0,1-.26.84.84,0,0,0,.32-.71.83.83,0,0,0-.25-.66,2.14,2.14,0,0,0-.95-.39,4.51,4.51,0,0,1-2.05-.92,2.15,2.15,0,0,1-.64-1.65,2.36,2.36,0,0,1,.83-1.81,3.31,3.31,0,0,1,2.31-.75,5.5,5.5,0,0,1,1.22.14,5,5,0,0,1,1.14.41l-.71,1.5a3.89,3.89,0,0,0-.91-.4,3,3,0,0,0-.8-.11,1.52,1.52,0,0,0-.89.22.73.73,0,0,0-.31.64.65.65,0,0,0,.29.58,3.17,3.17,0,0,0,1,.38,3.89,3.89,0,0,1,2,.92,2.35,2.35,0,0,1,.61,1.74,2.45,2.45,0,0,1-.84,1.93,3.59,3.59,0,0,1-2.44.74,6.4,6.4,0,0,1-1.46-.18A5.5,5.5,0,0,1,131.56,148.71Z"/><path class="cls-1" d="M138.07,149.26l3.06-8.4h2.25l3,8.4H144.3l-.57-1.75h-3l-.57,1.75Zm3-3.23h2.19l-.92-2.91c0-.12-.06-.22-.09-.3a2,2,0,0,1-.05-.32h0c0,.12,0,.22-.06.31a2.22,2.22,0,0,1-.09.28Z"/><path class="cls-1" d="M154.68,149.26h-1.89v-3.42h-3.48v3.42h-1.9v-8.4h1.9v3.35h3.48v-3.35h1.89Z"/><path class="cls-1" d="M155.7,149.26l3.06-8.4H161l3,8.4h-2.07l-.57-1.75h-3l-.57,1.75Zm3-3.23h2.19l-.92-2.91c0-.12-.06-.22-.09-.3a2,2,0,0,1,0-.32h-.05c0,.12,0,.22-.06.31a2.22,2.22,0,0,1-.09.28Z"/><path class="cls-1" d="M177.93,149.26h-1.87v-5c0-.27,0-.56,0-.86s0-.61,0-.94h0c-.05.26-.09.48-.13.66a3.25,3.25,0,0,1-.13.45l-2,5.71H172.3l-2-5.65-.11-.41c0-.2-.1-.45-.15-.76H170c0,.41.05.8.06,1.16s0,.7,0,1v4.64h-1.71v-8.4h2.78l1.71,5c.07.19.13.37.18.55l.12.56h0c0-.21.11-.41.16-.6s.11-.36.17-.52l1.72-5h2.7Z"/><path class="cls-1" d="M181.73,149.26h-1.89v-8.4h1.89Z"/><path class="cls-1" d="M190.6,149.26h-2.36l-2.45-3.58a.52.52,0,0,1-.09-.17,2.68,2.68,0,0,1-.14-.29h0v4h-1.89v-8.4h1.89v3.9h0l.1-.2c0-.08.08-.17.14-.27l2.32-3.43h2.2l-2.89,4Z"/><path class="cls-1" d="M198.25,149.26h-2.13L195,147.2a3.19,3.19,0,0,0-.54-.77,1,1,0,0,0-.63-.29h-.51v3.12h-1.89v-8.4h3a3.66,3.66,0,0,1,2.29.6,2.11,2.11,0,0,1,.77,1.78,2.24,2.24,0,0,1-.49,1.44,2.83,2.83,0,0,1-1.35.9v0a1.58,1.58,0,0,1,.7.49,4.43,4.43,0,0,1,.55.78Zm-4.93-7v2.43h.82a1.34,1.34,0,0,0,1-.37,1.25,1.25,0,0,0,.37-.91,1.07,1.07,0,0,0-.33-.86,1.43,1.43,0,0,0-1-.29Z"/><path class="cls-1" d="M202.7,149.41a3.93,3.93,0,0,1-2.95-1.17,4.27,4.27,0,0,1-1.13-3.07,4.52,4.52,0,0,1,1.15-3.22,4,4,0,0,1,3.06-1.23,3.8,3.8,0,0,1,2.91,1.18,4.33,4.33,0,0,1,1.11,3.1,4.46,4.46,0,0,1-1.15,3.2A4,4,0,0,1,202.7,149.41Zm0-1.63a1.9,1.9,0,0,0,1.55-.71,3,3,0,0,0,.58-2,3.27,3.27,0,0,0-.56-2,1.8,1.8,0,0,0-1.52-.73,1.89,1.89,0,0,0-1.58.75,3.6,3.6,0,0,0,0,4A1.89,1.89,0,0,0,202.73,147.78Z"/><path class="cls-1" d="M104.25,162.66h-1.78l-1.85-2.7-.07-.13c0-.06-.06-.13-.1-.22h0v3H99v-6.34h1.42v2.94h0a1.07,1.07,0,0,0,.07-.15l.11-.2,1.75-2.59H104l-2.18,3Z"/><path class="cls-1" d="M107.29,162.77a3,3,0,0,1-2.22-.89,3.18,3.18,0,0,1-.85-2.31,3.41,3.41,0,0,1,.87-2.43,3,3,0,0,1,2.3-.92,2.86,2.86,0,0,1,2.19.88,3.3,3.3,0,0,1,.84,2.35,3.34,3.34,0,0,1-.87,2.4A3,3,0,0,1,107.29,162.77Zm0-1.24a1.42,1.42,0,0,0,1.17-.53,2.27,2.27,0,0,0,.43-1.48,2.48,2.48,0,0,0-.42-1.53,1.38,1.38,0,0,0-1.15-.55,1.42,1.42,0,0,0-1.19.57,2.74,2.74,0,0,0,0,3A1.42,1.42,0,0,0,107.32,161.53Z"/><path class="cls-1" d="M115.55,157.48h-1.8v5.18h-1.43v-5.18h-1.8v-1.16h5Z"/><path class="cls-1" d="M115.1,162.66l2.3-6.34h1.69l2.26,6.34h-1.56l-.43-1.33h-2.29l-.43,1.33Zm2.28-2.44H119l-.7-2.2a2.18,2.18,0,0,0-.06-.22,1.19,1.19,0,0,1,0-.24h0c0,.09,0,.16,0,.23s0,.14-.07.21Z"/><path class="cls-1" d="M129.07,157.48h-1.8v5.18h-1.43v-5.18H124v-1.16h5Z"/><path class="cls-1" d="M128.62,162.66l2.3-6.34h1.7l2.25,6.34h-1.56l-.43-1.33h-2.29l-.43,1.33Zm2.28-2.44h1.65l-.69-2.2-.07-.22c0-.06,0-.14,0-.24h0c0,.09,0,.16,0,.23s0,.14-.07.21Z"/><path class="cls-1" d="M141.35,162.66h-1.44l-2.61-4-.19-.31-.12-.22h0c0,.11,0,.25,0,.43v4.08h-1.34v-6.34h1.53l2.52,3.86.16.26c.06.08.11.17.16.25h0a2.33,2.33,0,0,1,0-.32c0-.15,0-.33,0-.55v-3.5h1.34Z"/><path class="cls-1" d="M145.45,160.58a2.15,2.15,0,0,1-.57,1.63,2.22,2.22,0,0,1-1.61.55,3.05,3.05,0,0,1-.6-.06,3.18,3.18,0,0,1-.62-.2l.44-1.08a1.84,1.84,0,0,0,.32.12,1,1,0,0,0,.32.05.81.81,0,0,0,.65-.24,1.18,1.18,0,0,0,.22-.77l0-4.26h1.42Z"/><path class="cls-1" d="M152,159.91a3,3,0,0,1-.66,2.14,2.6,2.6,0,0,1-2,.72,2.52,2.52,0,0,1-1.93-.7,3,3,0,0,1-.65-2.1v-3.65h1.44V160a1.86,1.86,0,0,0,.3,1.15,1.06,1.06,0,0,0,.9.38,1,1,0,0,0,.88-.37,1.75,1.75,0,0,0,.3-1.11v-3.73H152Z"/><path class="cls-1" d="M159.07,162.66h-1.44l-2.61-4-.2-.31-.12-.22h0c0,.11,0,.25,0,.43s0,.37,0,.6v3.48h-1.35v-6.34h1.54l2.51,3.86.16.26c.06.08.11.17.16.25h0a2.33,2.33,0,0,1,0-.32c0-.15,0-.33,0-.55v-3.5h1.35Z"/><path class="cls-1" d="M165.71,162.18a4,4,0,0,1-1,.43,5.09,5.09,0,0,1-1.28.16,3.5,3.5,0,0,1-2.4-.8,3,3,0,0,1-.89-2.38,3.35,3.35,0,0,1,.91-2.41,3.28,3.28,0,0,1,2.51-1,5.52,5.52,0,0,1,1.11.1,5.28,5.28,0,0,1,1.06.32l-.44,1.1a5.33,5.33,0,0,0-.85-.25,4.79,4.79,0,0,0-.88-.08,1.87,1.87,0,0,0-1.4.53,2.17,2.17,0,0,0-.52,1.58,2.07,2.07,0,0,0,.51,1.55,1.87,1.87,0,0,0,1.34.5,2.13,2.13,0,0,0,.46,0,1.18,1.18,0,0,0,.36-.1v-1.24H163v-1.14h2.69Z"/><path class="cls-1" d="M168.37,160.58v2.08H167v-6.34h2.23a2.62,2.62,0,0,1,1.79.52,1.93,1.93,0,0,1,.6,1.55,2,2,0,0,1-.68,1.59,2.7,2.7,0,0,1-1.84.6Zm0-3.16v2.08h.56a1.26,1.26,0,0,0,.86-.26,1,1,0,0,0,.28-.79,1,1,0,0,0-.28-.78,1.26,1.26,0,0,0-.86-.25Z"/><path class="cls-1" d="M173.93,162.66H172.5v-6.34h1.43Z"/><path class="cls-1" d="M181.06,162.66h-1.44l-2.61-4-.19-.31a1.72,1.72,0,0,1-.12-.22h0c0,.11,0,.25,0,.43s0,.37,0,.6v3.48h-1.34v-6.34h1.53l2.51,3.86a2.33,2.33,0,0,1,.17.26,1.65,1.65,0,0,1,.15.25h0c0-.07,0-.18,0-.32v-4.05h1.34Z"/><path class="cls-1" d="M181.83,162.66l2.31-6.34h1.69l2.25,6.34h-1.55l-.43-1.33h-2.3l-.42,1.33Zm2.28-2.44h1.66l-.7-2.2-.07-.22c0-.06,0-.14,0-.24h0c0,.09,0,.16-.05.23l-.06.21Z"/><path class="cls-1" d="M194.57,162.66h-1.44l-2.61-4-.2-.31-.12-.22h0c0,.11,0,.25,0,.43s0,.37,0,.6v3.48h-1.35v-6.34h1.54l2.51,3.86.16.26c.06.08.11.17.16.25h0a2.33,2.33,0,0,1,0-.32c0-.15,0-.33,0-.55v-3.5h1.35Z"/><path class="cls-1" d="M201.21,162.18a4,4,0,0,1-1,.43,5.09,5.09,0,0,1-1.28.16,3.5,3.5,0,0,1-2.4-.8,3,3,0,0,1-.89-2.38,3.35,3.35,0,0,1,.91-2.41,3.28,3.28,0,0,1,2.51-1,5.52,5.52,0,0,1,1.11.1,5.28,5.28,0,0,1,1.06.32l-.44,1.1a5.33,5.33,0,0,0-.85-.25,4.79,4.79,0,0,0-.88-.08,1.87,1.87,0,0,0-1.4.53,2.17,2.17,0,0,0-.52,1.58,2.07,2.07,0,0,0,.51,1.55,1.87,1.87,0,0,0,1.34.5,2.13,2.13,0,0,0,.46,0,1.18,1.18,0,0,0,.36-.1v-1.24h-1.27v-1.14h2.69Z"/><path class="cls-2" d="M194.76,105.27v3.26H105.38v-3.26Z"/><path class="cls-1" d="M105.36,102.13V61.22a29.5,29.5,0,0,1-4.72.52A11.06,11.06,0,0,1,90,50.77a10.86,10.86,0,0,1,1.43-6c4.45-7.91,8.77-15.89,13.08-23.88a2.63,2.63,0,0,1,2.63-1.59q21.48,0,43,0c14.18,0,28.36,0,42.54,0a2.93,2.93,0,0,1,3,1.73c4.58,8.52,9.26,17,13.87,25.49a4.29,4.29,0,0,1,.46,2,23.53,23.53,0,0,1-.38,5,11,11,0,0,1-14,7.8l-.83-.26v41.1l.55.06c2.24.09,2.5.35,2.5,2.55,0,1.53,0,3,0,4.58,0,1.87-.44,2.32-2.28,2.32H104.87c-2.25,0-2.59-.34-2.59-2.57,0-1.52,0-3,0-4.58,0-1.89.37-2.26,2.29-2.3C104.79,102.17,105,102.15,105.36,102.13Zm3.06-.12h83.2c0-.2,0-.31,0-.42q0-20.88,0-41.76a1.45,1.45,0,0,0-.18-.84c-.77-1-1.6-1.89-2.42-2.83a10.92,10.92,0,0,1-9.79,5.63c-4.26,0-7.46-2.1-9.7-5.76-2.3,3.77-5.56,5.76-9.84,5.76S152.28,59.69,150,56c-2.31,3.75-5.55,5.78-9.84,5.75s-7.47-2.08-9.7-5.78c-2.28,3.75-5.52,5.79-9.8,5.78a10.9,10.9,0,0,1-9.72-5.7,19.94,19.94,0,0,1-1.69,2.14,2.68,2.68,0,0,0-.86,2.15q0,20.2,0,40.42Zm40-55.79V22.39H136.71l-4.34,23.83Zm3.22-23.86V46.18h16.07c-1.46-8-2.9-15.9-4.35-23.82ZM113.24,46.19h16c1.45-8,2.89-15.87,4.35-23.87-3.71,0-7.24,0-10.77,0a1.11,1.11,0,0,0-1.27.89c-1.81,5.07-3.67,10.13-5.52,15.19C115.14,41,114.21,43.53,113.24,46.19Zm73.55,0c0-.23-.06-.38-.1-.52Q182.55,34.35,178.42,23c-.21-.59-.55-.68-1.08-.67-2.16,0-4.32,0-6.48,0h-4.41c1.48,8.07,2.92,16,4.37,23.91Zm-92.63,0a3.85,3.85,0,0,0,.51.08c4.87,0,9.74,0,14.61,0,.73,0,.84-.41,1-.9q2.91-8,5.84-16l2.54-7c-.47,0-.8-.05-1.12-.05-3.12,0-6.25,0-9.37,0a1.49,1.49,0,0,0-1.54.93c-3.91,7.22-7.87,14.42-11.81,21.62C94.62,45.26,94.41,45.68,94.16,46.17Zm111.76,0c-.1-.24-.16-.41-.24-.56Q199.49,34.3,193.25,23a1.58,1.58,0,0,0-1.11-.62c-1.14-.08-2.3,0-3.45,0H181.4c2.93,8.06,5.81,16,8.7,23.89Zm-11.16,59.07H105.38v3.26h89.38ZM93.17,49.3a8.14,8.14,0,0,0,3.7,8.29,8.06,8.06,0,0,0,8.83-.23,8.24,8.24,0,0,0,3.43-8.06Zm78.27,0a8,8,0,0,0,3.63,8.22,7.77,7.77,0,0,0,8.83-.15,8,8,0,0,0,3.41-8.07Zm-58.69,0a8.15,8.15,0,0,0,3.73,8.29,8,8,0,0,0,12.11-8.29Zm78.21,0c-.38,3.72.86,6.6,4,8.42a7.57,7.57,0,0,0,8.61-.41c2.75-1.91,3.69-4.68,3.4-8Zm-58.75-.06c-.26,3.82.95,6.79,4.26,8.57a7.54,7.54,0,0,0,8.69-.73,8,8,0,0,0,3-7.84h-16Zm19.62.05c-.35,3.59.81,6.39,3.8,8.3a7.85,7.85,0,0,0,8.82-.29c2.72-2,3.66-4.7,3.4-8Z"/><path class="cls-1" d="M185.79,85.45V98c0,1.55-.45,2.06-1.95,2.06q-12,0-24,0c-1.34,0-1.84-.49-1.84-1.82,0-8.37-.1-16.75,0-25.12a11.15,11.15,0,0,1,11-11,45.34,45.34,0,0,1,7.56.24,11,11,0,0,1,9.18,10.93C185.8,77.34,185.79,81.39,185.79,85.45Zm-3,11.51c0-.28.06-.46.06-.64,0-7.74,0-15.47,0-23.21a8.1,8.1,0,0,0-6.92-7.86,39.71,39.71,0,0,0-6.9-.17,8.28,8.28,0,0,0-8,8.47q0,11.16,0,22.31V97Z"/><path class="cls-1" d="M132.05,82.93H114.52c-1.69,0-1.94-.25-1.94-1.93V66.26c0-1.47.3-1.8,1.74-1.81h35.5c1.37,0,1.72.35,1.72,1.73q0,7.53,0,15.07c0,1.36-.34,1.68-1.74,1.68ZM115,80.5h34V66.89H115Z"/><path class="cls-1" d="M118.22,91.63c-1.38,0-2.75,0-4.13,0-1,0-1.52-.43-1.51-1.46,0-1.64,0-3.28,0-4.91,0-1,.45-1.51,1.49-1.5,2.75,0,5.5,0,8.25,0a1.33,1.33,0,0,1,1.53,1.48c0,1.64,0,3.27,0,4.91,0,1.13-.43,1.47-1.6,1.48ZM115,89.19h6.37V86.25H115Z"/><path class="cls-1" d="M132,91.62c-1.38,0-2.76,0-4.13,0-1,0-1.47-.42-1.48-1.39,0-1.71,0-3.42,0-5.13a1.24,1.24,0,0,1,1.41-1.35h8.48a1.23,1.23,0,0,1,1.37,1.39q0,2.57,0,5.13a1.23,1.23,0,0,1-1.42,1.34C134.86,91.61,133.45,91.62,132,91.62Zm-3.13-5.41v3h6.32v-3Z"/><path class="cls-1" d="M145.81,91.62c-1.38,0-2.76,0-4.13,0a1.23,1.23,0,0,1-1.4-1.36q0-2.56,0-5.13a1.24,1.24,0,0,1,1.38-1.38h8.47a1.24,1.24,0,0,1,1.4,1.37c0,1.71,0,3.42,0,5.12,0,1-.54,1.4-1.5,1.38-1.41,0-2.82,0-4.23,0Zm3.31-5.38h-6.38v3h6.38Z"/><path class="cls-3" d="M108.42,102V100.8q0-20.2,0-40.42a2.68,2.68,0,0,1,.86-2.15A19.94,19.94,0,0,0,111,56.09a10.9,10.9,0,0,0,9.72,5.7c4.28,0,7.52-2,9.8-5.78,2.23,3.7,5.44,5.75,9.7,5.78s7.53-2,9.84-5.75c2.27,3.65,5.47,5.74,9.73,5.75s7.54-2,9.84-5.76c2.24,3.66,5.44,5.73,9.7,5.76a10.92,10.92,0,0,0,9.79-5.63c.82.94,1.65,1.87,2.42,2.83a1.45,1.45,0,0,1,.18.84q0,20.88,0,41.76c0,.11,0,.22,0,.42Zm77.37-16.56c0-4.06,0-8.11,0-12.17a11,11,0,0,0-9.18-10.93,45.34,45.34,0,0,0-7.56-.24,11.15,11.15,0,0,0-11,11c-.11,8.37,0,16.75,0,25.12,0,1.33.5,1.82,1.84,1.82q12,0,24,0c1.5,0,1.95-.51,1.95-2.06Zm-53.74-2.52H149.8c1.4,0,1.74-.32,1.74-1.68q0-7.55,0-15.07c0-1.38-.35-1.72-1.72-1.73h-35.5c-1.44,0-1.74.34-1.74,1.81V81c0,1.68.25,1.93,1.94,1.93Zm-13.83,8.7h4c1.17,0,1.58-.35,1.6-1.48,0-1.64,0-3.27,0-4.91a1.33,1.33,0,0,0-1.53-1.48c-2.75,0-5.5,0-8.25,0-1,0-1.5.49-1.49,1.5,0,1.63,0,3.27,0,4.91,0,1,.5,1.48,1.51,1.46C115.47,91.61,116.84,91.63,118.22,91.63Zm13.82,0c1.41,0,2.82,0,4.23,0a1.23,1.23,0,0,0,1.42-1.34q0-2.57,0-5.13a1.23,1.23,0,0,0-1.37-1.39h-8.48a1.24,1.24,0,0,0-1.41,1.35c0,1.71,0,3.42,0,5.13,0,1,.51,1.41,1.48,1.39C129.28,91.61,130.66,91.62,132,91.62Zm13.77,0h0c1.41,0,2.82,0,4.23,0,1,0,1.49-.41,1.5-1.38,0-1.7,0-3.41,0-5.12a1.24,1.24,0,0,0-1.4-1.37h-8.47a1.24,1.24,0,0,0-1.38,1.38q0,2.56,0,5.13a1.23,1.23,0,0,0,1.4,1.36C143.05,91.61,144.43,91.62,145.81,91.62Z"/><path class="cls-3" d="M148.44,46.22H132.37l4.34-23.83h11.73Z"/><path class="cls-3" d="M151.66,22.36h11.72c1.45,7.92,2.89,15.83,4.35,23.82H151.66Z"/><path class="cls-3" d="M113.24,46.19c1-2.66,1.9-5.24,2.84-7.81,1.85-5.06,3.71-10.12,5.52-15.19a1.11,1.11,0,0,1,1.27-.89c3.53,0,7.06,0,10.77,0-1.46,8-2.9,15.9-4.35,23.87Z"/><path class="cls-3" d="M186.79,46.22h-16c-1.45-7.93-2.89-15.84-4.37-23.91h4.41c2.16,0,4.32,0,6.48,0,.53,0,.87.08,1.08.67q4.11,11.37,8.27,22.72C186.73,45.84,186.75,46,186.79,46.22Z"/><path class="cls-3" d="M94.16,46.17c.25-.49.46-.91.68-1.33,3.94-7.2,7.9-14.4,11.81-21.62a1.49,1.49,0,0,1,1.54-.93c3.12.05,6.25,0,9.37,0,.32,0,.65,0,1.12.05l-2.54,7q-2.92,8-5.84,16c-.18.49-.29.9-1,.9-4.87,0-9.74,0-14.61,0A3.85,3.85,0,0,1,94.16,46.17Z"/><path class="cls-3" d="M205.92,46.2H190.1c-2.89-7.92-5.77-15.83-8.7-23.89h7.29c1.15,0,2.31,0,3.45,0a1.58,1.58,0,0,1,1.11.62q6.25,11.33,12.43,22.68C205.76,45.79,205.82,46,205.92,46.2Z"/><path class="cls-3" d="M93.17,49.3h16a8.24,8.24,0,0,1-3.43,8.06,8.06,8.06,0,0,1-8.83.23A8.14,8.14,0,0,1,93.17,49.3Z"/><path class="cls-3" d="M171.44,49.3h15.87a8,8,0,0,1-3.41,8.07,7.77,7.77,0,0,1-8.83.15A8,8,0,0,1,171.44,49.3Z"/><path class="cls-3" d="M112.75,49.29h15.84a8,8,0,0,1-12.11,8.29A8.15,8.15,0,0,1,112.75,49.29Z"/><path class="cls-3" d="M191,49.29h16c.29,3.33-.65,6.1-3.4,8a7.57,7.57,0,0,1-8.61.41C191.82,55.89,190.58,53,191,49.29Z"/><path class="cls-3" d="M132.21,49.23h16a8,8,0,0,1-3,7.84,7.54,7.54,0,0,1-8.69.73C133.16,56,132,53.05,132.21,49.23Z"/><path class="cls-3" d="M151.83,49.28h16c.26,3.31-.68,6-3.4,8a7.85,7.85,0,0,1-8.82.29C152.64,55.67,151.48,52.87,151.83,49.28Z"/><path class="cls-3" d="M182.78,97H161v-1.1q0-11.14,0-22.31a8.28,8.28,0,0,1,8-8.47,39.71,39.71,0,0,1,6.9.17,8.1,8.1,0,0,1,6.92,7.86c.06,7.74,0,15.47,0,23.21C182.84,96.5,182.8,96.68,182.78,97Z"/><path class="cls-3" d="M115,80.5V66.89h34V80.5Z"/><path class="cls-3" d="M115,89.19V86.25h6.37v2.94Z"/><path class="cls-3" d="M128.91,86.21h6.32v3h-6.32Z"/><path class="cls-3" d="M149.12,86.24v3h-6.38v-3Z"/><rect class="cls-3" x="105.38" y="105.27" width="89.38" height="3.26"/><path class="cls-4" d="M167.22,74.18H168V76a1.31,1.31,0,0,1-.4,1,1.75,1.75,0,0,1-1.16.35,1.69,1.69,0,0,1-1.15-.36,1.28,1.28,0,0,1-.41-1V74.18h.78V76a.69.69,0,0,0,.21.53.81.81,0,0,0,.56.19.79.79,0,0,0,.58-.2.74.74,0,0,0,.22-.57Z"/><path class="cls-4" d="M170.35,75.34l1-1.16H172V77.3h-.78v-2l-.84,1h-.12l-.84-1v2h-.78V74.18h.67Z"/><path class="cls-4" d="M175.34,74.18l-1,1.47,1.38,1.65h-1l-1.24-1.46V77.3h-.78V74.18h.78v1.41l1-1.41Z"/><path class="cls-4" d="M177.69,75.34l1-1.16h.68V77.3h-.78v-2l-.84,1h-.12l-.84-1v2H176V74.18h.67Z"/></svg>