<svg id="Layer_1" data-name="Layer 1" xmlns="http://www.w3.org/2000/svg" viewBox="0 0 300 180"><defs><style>.cls-1{fill:#d9dadb;}.cls-2{fill:#c4c6c7;}</style></defs><path class="cls-1" d="M79.12,148H78v-9.8h1.15Z"/><path class="cls-1" d="M89.6,148H88.19l-5-7.81a3.07,3.07,0,0,1-.17-.31,2.92,2.92,0,0,1-.14-.31h0a4.15,4.15,0,0,1,0,.49c0,.23,0,.51,0,.86V148H81.69v-9.8h1.49l4.91,7.69.26.4a2.46,2.46,0,0,1,.14.26h0a4,4,0,0,1,0-.58c0-.24,0-.53,0-.87v-6.9H89.6Z"/><path class="cls-1" d="M91.32,147.27l.56-.86a4.67,4.67,0,0,0,1.2.57,5.31,5.31,0,0,0,1.4.17,2.47,2.47,0,0,0,1.48-.42,1.43,1.43,0,0,0,.58-1.22,1.47,1.47,0,0,0-.49-1.15,5.11,5.11,0,0,0-1.61-.84,5.8,5.8,0,0,1-2-1.12,2.15,2.15,0,0,1-.67-1.65,2.45,2.45,0,0,1,.87-1.95,3.32,3.32,0,0,1,2.27-.75,5.47,5.47,0,0,1,1.28.15,5.92,5.92,0,0,1,1.3.45l-.43.92a5,5,0,0,0-1.09-.37,5.11,5.11,0,0,0-1.14-.12,2.2,2.2,0,0,0-1.4.41,1.41,1.41,0,0,0-.51,1.15,1.24,1.24,0,0,0,.47,1,5.38,5.38,0,0,0,1.57.78A5.83,5.83,0,0,1,97,143.63a2.42,2.42,0,0,1,.64,1.77,2.57,2.57,0,0,1-.86,2,3.43,3.43,0,0,1-2.42.8,5.86,5.86,0,0,1-1.61-.22A5.78,5.78,0,0,1,91.32,147.27Z"/><path class="cls-1" d="M100.75,144.43V148H99.6v-9.8h2.7a3.52,3.52,0,0,1,2.44.78,2.83,2.83,0,0,1,.86,2.2,3,3,0,0,1-1,2.32,3.65,3.65,0,0,1-2.59.91Zm0-5.17v4.13H102a2.65,2.65,0,0,0,1.81-.56,2,2,0,0,0,.63-1.58,1.84,1.84,0,0,0-.58-1.49,2.51,2.51,0,0,0-1.72-.5Z"/><path class="cls-1" d="M112.64,148h-5.19v-9.8h5v1h-3.83v3.26h3.55v1h-3.55V147h4Z"/><path class="cls-1" d="M121.35,148h-1.6L116,143.54l-.16-.22-.1-.12h0V148h-1.15v-9.8h1.15v4.61h0a1.67,1.67,0,0,1,.12-.16l.14-.18,3.67-4.27h1.43l-4.21,4.7Z"/><path class="cls-1" d="M128.43,139.26H125.6V148h-1.15v-8.76h-2.82v-1h6.8Z"/><path class="cls-1" d="M133.29,148.19a4.29,4.29,0,0,1-3.34-1.38,5.07,5.07,0,0,1-1.26-3.57,5.42,5.42,0,0,1,1.28-3.78,4.46,4.46,0,0,1,3.48-1.41,4.22,4.22,0,0,1,3.27,1.37A5.11,5.11,0,0,1,138,143a5.4,5.4,0,0,1-1.27,3.79A4.38,4.38,0,0,1,133.29,148.19Zm0-1a3.22,3.22,0,0,0,2.54-1.05,4.3,4.3,0,0,0,.93-2.95,4.51,4.51,0,0,0-.9-3,3.41,3.41,0,0,0-5,.06,4.32,4.32,0,0,0-1,2.92,4.39,4.39,0,0,0,.94,2.92A3.1,3.1,0,0,0,133.29,147.15Z"/><path class="cls-1" d="M146.83,148h-1.36l-1.68-2.78a3.44,3.44,0,0,0-.81-1,1.42,1.42,0,0,0-.81-.22H141v4h-1.15v-9.8h2.92a3.24,3.24,0,0,1,2.13.68,2.38,2.38,0,0,1,.86,2,2.78,2.78,0,0,1-.54,1.74,3.07,3.07,0,0,1-1.49,1v0a2.91,2.91,0,0,1,.54.4,2.88,2.88,0,0,1,.49.65ZM141,139.26V143h1.56a2,2,0,0,0,1.42-.56,1.91,1.91,0,0,0,.57-1.43,1.62,1.62,0,0,0-.51-1.26,2.06,2.06,0,0,0-1.47-.47Z"/><path class="cls-1" d="M147.13,148l3.76-9.8h1.19l3.77,9.8h-1.27l-1-2.62h-4.25l-.93,2.62Zm2.6-3.66h3.48l-1.58-4.3a1,1,0,0,1-.08-.26c0-.11-.05-.24-.07-.39h0c0,.13,0,.26-.07.37s-.06.2-.09.28Z"/><path class="cls-1" d="M162.07,139.26h-2.83V148h-1.15v-8.76h-2.82v-1h6.8Z"/><path class="cls-1" d="M167.32,148v-9.8h3.47a5.66,5.66,0,0,1,3.92,1.19A4.63,4.63,0,0,1,176,143a4.83,4.83,0,0,1-1.43,3.65,5.21,5.21,0,0,1-3.8,1.37Zm2.21-8v6.21h1.09a3,3,0,0,0,2.26-.86,3.31,3.31,0,0,0,.81-2.35,3,3,0,0,0-.81-2.2,3.05,3.05,0,0,0-2.27-.8Z"/><path class="cls-1" d="M176.38,148l3.57-9.8h2.62l3.48,9.8h-2.4l-.67-2h-3.55l-.66,2Zm3.53-3.77h2.56l-1.08-3.4-.1-.35a2.38,2.38,0,0,1-.06-.37h-.06c0,.14,0,.26-.07.36s-.06.21-.1.33Z"/><path class="cls-1" d="M193.15,148h-5.87v-9.8h5.65V140h-3.45v2.18h3.21V144h-3.21v2.24h3.67Z"/><path class="cls-1" d="M202.69,148H200.2l-1.31-2.41a3.59,3.59,0,0,0-.63-.89,1.24,1.24,0,0,0-.73-.34h-.6V148h-2.2v-9.8h3.5a4.3,4.3,0,0,1,2.67.69,2.46,2.46,0,0,1,.9,2.08,2.6,2.6,0,0,1-.58,1.69,3.32,3.32,0,0,1-1.57,1v0a1.86,1.86,0,0,1,.82.57,6.56,6.56,0,0,1,.64.91Zm-5.76-8.15v2.84h1a1.55,1.55,0,0,0,1.15-.43,1.44,1.44,0,0,0,.43-1.07,1.27,1.27,0,0,0-.38-1,1.69,1.69,0,0,0-1.16-.34Z"/><path class="cls-1" d="M202.81,148l3.57-9.8H209l3.49,9.8h-2.41l-.66-2h-3.56l-.65,2Zm3.53-3.77h2.56l-1.08-3.4c0-.14-.07-.25-.09-.35a2.23,2.23,0,0,1-.07-.37h0c0,.14-.05.26-.08.36a1.73,1.73,0,0,1-.1.33Z"/><path class="cls-1" d="M222.19,148H220v-4h-4.06v4h-2.21v-9.8h2.21v3.91H220v-3.91h2.21Z"/><path class="cls-1" d="M94.63,160.89H92.47l-2.23-3.26-.08-.16a1.78,1.78,0,0,1-.12-.27h0v3.69H88.28v-7.66H90v3.55h0l.08-.18.13-.24,2.12-3.13h2l-2.63,3.61Z"/><path class="cls-1" d="M98.31,161A3.54,3.54,0,0,1,95.63,160a3.84,3.84,0,0,1-1-2.79,4.14,4.14,0,0,1,1-2.94,3.66,3.66,0,0,1,2.79-1.12,3.51,3.51,0,0,1,2.66,1.07,4,4,0,0,1,1,2.84,4.06,4.06,0,0,1-1,2.91A3.59,3.59,0,0,1,98.31,161Zm0-1.5a1.73,1.73,0,0,0,1.42-.64,2.75,2.75,0,0,0,.52-1.79,3,3,0,0,0-.51-1.85,1.64,1.64,0,0,0-1.38-.66,1.73,1.73,0,0,0-1.45.68,2.85,2.85,0,0,0-.53,1.8,2.82,2.82,0,0,0,.53,1.8A1.73,1.73,0,0,0,98.34,159.53Z"/><path class="cls-1" d="M108.31,154.63h-2.19v6.26h-1.73v-6.26h-2.17v-1.4h6.09Z"/><path class="cls-1" d="M107.76,160.89l2.79-7.66h2l2.72,7.66h-1.88l-.52-1.6h-2.78l-.51,1.6Zm2.76-2.94h2l-.84-2.66a2.55,2.55,0,0,1-.08-.28,1.59,1.59,0,0,1,0-.28h0l-.06.27c0,.08,0,.17-.08.27Z"/><path class="cls-1" d="M124.67,154.63h-2.18v6.26h-1.73v-6.26h-2.18v-1.4h6.09Z"/><path class="cls-1" d="M124.12,160.89l2.79-7.66H129l2.72,7.66H129.8l-.51-1.6h-2.78l-.52,1.6Zm2.76-2.94h2l-.85-2.66L128,155c0-.07,0-.17,0-.28h0l-.06.27c0,.08,0,.17-.07.27Z"/><path class="cls-1" d="M139.54,160.89h-1.75l-3.15-4.81-.24-.37-.15-.27h0q0,.21,0,.51c0,.21,0,.45,0,.73v4.21h-1.63v-7.66h1.86l3,4.66c.07.11.14.21.2.32s.13.21.19.31h0a2,2,0,0,1,0-.4c0-.17,0-.39,0-.65v-4.24h1.63Z"/><path class="cls-1" d="M144.49,158.38a2.62,2.62,0,0,1-.69,2,2.71,2.71,0,0,1-2,.66,3.51,3.51,0,0,1-.72-.07,3.47,3.47,0,0,1-.75-.25l.53-1.3.39.15a1.48,1.48,0,0,0,.39,0,1,1,0,0,0,.78-.28,1.39,1.39,0,0,0,.26-.94l0-5.15h1.72Z"/><path class="cls-1" d="M152.41,157.57a3.66,3.66,0,0,1-.81,2.59,3.12,3.12,0,0,1-2.41.87,3,3,0,0,1-2.34-.85,3.63,3.63,0,0,1-.78-2.54v-4.41h1.73v4.45a2.2,2.2,0,0,0,.37,1.39,1.52,1.52,0,0,0,2.16,0,2.2,2.2,0,0,0,.35-1.35v-4.51h1.73Z"/><path class="cls-1" d="M161,160.89h-1.74l-3.16-4.81-.23-.37a2,2,0,0,1-.15-.27h0c0,.14,0,.31,0,.51s0,.45,0,.73v4.21h-1.63v-7.66h1.86l3,4.66.2.32c.06.1.13.21.18.31h0c0-.09,0-.22,0-.4s0-.39,0-.65v-4.24H161Z"/><path class="cls-1" d="M169,160.32a4.74,4.74,0,0,1-1.23.52,6.29,6.29,0,0,1-1.56.19,4.23,4.23,0,0,1-2.9-1,3.66,3.66,0,0,1-1.08-2.89,4.08,4.08,0,0,1,1.1-2.91,4,4,0,0,1,3-1.17,7.14,7.14,0,0,1,1.35.12,6.88,6.88,0,0,1,1.28.39l-.54,1.34a5.36,5.36,0,0,0-1-.31,5.9,5.9,0,0,0-1.07-.1,2.28,2.28,0,0,0-1.7.65,2.68,2.68,0,0,0-.62,1.91,2.53,2.53,0,0,0,.62,1.88,2.25,2.25,0,0,0,1.62.6,3.06,3.06,0,0,0,.56-.05,1.35,1.35,0,0,0,.43-.12v-1.5h-1.54v-1.38H169Z"/><path class="cls-1" d="M172.23,158.38v2.51H170.5v-7.66h2.71a3.28,3.28,0,0,1,2.17.62,2.38,2.38,0,0,1,.73,1.89,2.41,2.41,0,0,1-.84,1.91,3.21,3.21,0,0,1-2.22.73Zm0-3.83v2.52h.68a1.43,1.43,0,0,0,1-.32,1.23,1.23,0,0,0,.35-.95,1.21,1.21,0,0,0-.35-.94,1.53,1.53,0,0,0-1-.31Z"/><path class="cls-1" d="M179,160.89h-1.72v-7.66H179Z"/><path class="cls-1" d="M187.59,160.89h-1.74l-3.16-4.81c-.09-.15-.17-.27-.24-.37s-.11-.2-.14-.27h0c0,.14,0,.31,0,.51s0,.45,0,.73v4.21H180.7v-7.66h1.86l3,4.66c.06.11.13.21.2.32l.18.31h0c0-.09,0-.22,0-.4s0-.39,0-.65v-4.24h1.63Z"/><path class="cls-1" d="M188.52,160.89l2.79-7.66h2.05l2.72,7.66H194.2l-.52-1.6H190.9l-.51,1.6Zm2.76-2.94h2l-.84-2.66a2.55,2.55,0,0,1-.08-.28,1.59,1.59,0,0,1-.05-.28h0l-.06.27c0,.08-.05.17-.08.27Z"/><path class="cls-1" d="M203.93,160.89h-1.74L199,156.08l-.23-.37a2,2,0,0,1-.15-.27h0q0,.21,0,.51c0,.21,0,.45,0,.73v4.21H197v-7.66h1.86l3,4.66.2.32c.06.1.13.21.18.31h0a2.78,2.78,0,0,1,0-.4c0-.17,0-.39,0-.65v-4.24h1.63Z"/><path class="cls-1" d="M212,160.32a4.6,4.6,0,0,1-1.23.52,6.27,6.27,0,0,1-1.55.19,4.19,4.19,0,0,1-2.9-1,3.63,3.63,0,0,1-1.09-2.89,4.08,4.08,0,0,1,1.1-2.91,4,4,0,0,1,3-1.17,7.11,7.11,0,0,1,1.34.12,6.88,6.88,0,0,1,1.28.39l-.53,1.34a5.68,5.68,0,0,0-1-.31,5.87,5.87,0,0,0-1.06-.1,2.24,2.24,0,0,0-1.7.65,2.63,2.63,0,0,0-.63,1.91,2.53,2.53,0,0,0,.62,1.88,2.26,2.26,0,0,0,1.63.6,3,3,0,0,0,.55-.05,1.28,1.28,0,0,0,.43-.12v-1.5h-1.53v-1.38H212Z"/><path class="cls-1" d="M134.72,49.32h6.75a6.29,6.29,0,0,1,6.29,6.29v0a10,10,0,0,1-10,10h-4.25a7.23,7.23,0,0,1-7.23-7.23v-.61a8.4,8.4,0,0,1,8.4-8.4Z"/><path class="cls-1" d="M159.48,49.32h4.25a10,10,0,0,1,10,10v0a6.29,6.29,0,0,1-6.29,6.29h-6.75a8.4,8.4,0,0,1-8.4-8.4v-.61A7.23,7.23,0,0,1,159.48,49.32Z" transform="translate(325.93 114.89) rotate(180)"/><polygon class="cls-1" points="141.39 82.36 140.75 84.33 138.69 84.33 140.36 85.54 139.72 87.5 141.39 86.29 143.06 87.5 142.42 85.54 144.09 84.33 142.03 84.33 141.39 82.36"/><path class="cls-1" d="M172.83,34.33H127.17c-.2,1.17-.35,2.26-.48,3.18h46.62C173.18,36.59,173,35.5,172.83,34.33Z"/><polygon class="cls-1" points="156.94 87.5 158.61 86.29 160.28 87.5 159.64 85.54 161.31 84.33 159.25 84.33 158.61 82.36 157.97 84.33 155.91 84.33 157.58 85.54 156.94 87.5"/><path class="cls-2" d="M170.14,23.72c-2.45-5.88-6.59-6.55-9.73-6.22S150.33,23.44,150,23.71c-.33-.27-7.34-5.88-10.41-6.21s-7.28.34-9.73,6.22a52.64,52.64,0,0,0-2.69,10.61h45.66A52.64,52.64,0,0,0,170.14,23.72Z"/><path class="cls-2" d="M188.38,39.11H173.52c-.06-.45-.12-1-.21-1.6H126.69c-.09.61-.15,1.15-.21,1.6H111.62a3.22,3.22,0,0,0,0,6.44h76.76a3.22,3.22,0,0,0,0-6.44Z"/><path class="cls-2" d="M123.51,67.18a2.34,2.34,0,0,0-3.6,2V88.55s-17,4.75-17,14.74v17.1c0,3.25,3.73,5.89,7,5.89h36.74V81.81ZM143.06,87.5l-1.67-1.21-1.67,1.21.64-2-1.67-1.22h2.06l.64-2,.64,2h2.06l-1.67,1.22Z"/><path class="cls-2" d="M153.38,81.81v44.47h36.74c3.24,0,7-2.64,7-5.89v-17.1c0-10-17-14.74-17-14.74V69.16a2.34,2.34,0,0,0-3.6-2Zm4.2,3.73-1.67-1.22H158l.64-2,.64,2h2.06l-1.67,1.22.64,2-1.67-1.21-1.67,1.21Z"/></svg>