<svg id="Layer_1" data-name="Layer 1" xmlns="http://www.w3.org/2000/svg" viewBox="0 0 180 180"><defs><style>.cls-1{fill:gray;}.cls-2{fill:#4b4b4b;}</style></defs><path class="cls-1" d="M60.68,52.74H78.92a7.37,7.37,0,0,1,7.37,7.37v7.82A11.67,11.67,0,0,1,74.61,79.6H59.31a8.48,8.48,0,0,1-8.48-8.48V62.59A9.85,9.85,0,0,1,60.68,52.74Z"/><path class="cls-1" d="M102.19,52.74h15.3a11.67,11.67,0,0,1,11.67,11.67v7.82a7.37,7.37,0,0,1-7.37,7.37H103.56a9.85,9.85,0,0,1-9.85-9.85V61.22A8.48,8.48,0,0,1,102.19,52.74Z" transform="translate(222.88 132.34) rotate(-180)"/><polygon class="cls-1" points="75.76 107.38 74.71 110.62 71.29 110.62 74.06 112.63 73 115.88 75.76 113.87 78.53 115.88 77.47 112.63 80.23 110.62 76.82 110.62 75.76 107.38"/><path class="cls-1" d="M127.75,28H52.25c-.33,1.94-.59,3.73-.8,5.26h77.1C128.34,31.68,128.08,29.89,127.75,28Z"/><polygon class="cls-1" points="101.47 115.88 104.24 113.87 107 115.88 105.94 112.63 108.71 110.62 105.29 110.62 104.24 107.38 103.18 110.62 99.77 110.62 102.53 112.63 101.47 115.88"/><path class="cls-2" d="M123.31,10.4c-4-9.73-10.9-10.84-16.1-10.28S90.54,9.94,90,10.38C89.46,9.94,77.86.66,72.79.12S60.74.67,56.69,10.4c-2,4.86-3.49,11.81-4.44,17.55h75.5C126.8,22.21,125.34,15.26,123.31,10.4Z"/><path class="cls-2" d="M153.47,35.84H128.89c-.09-.74-.2-1.62-.34-2.63H51.45c-.14,1-.25,1.89-.34,2.63H26.53a5.34,5.34,0,0,0,0,10.67H153.47a5.34,5.34,0,0,0,0-10.67Z"/><path class="cls-2" d="M46.19,82.26a3.88,3.88,0,0,0-5.95,3.28v32.08S12.13,125.47,12.13,142v28.28c0,5.37,6.16,9.73,11.53,9.73H84.42V106.47Zm32.34,33.62-2.77-2-2.76,2,1-3.25-2.76-2h3.42l1.05-3.24,1.06,3.24h3.41l-2.76,2Z"/><path class="cls-2" d="M95.58,106.47V180h60.76c5.37,0,11.53-4.36,11.53-9.73V142c0-16.52-28.11-24.37-28.11-24.37V85.54a3.88,3.88,0,0,0-5.95-3.28Zm7,6.16-2.76-2h3.41l1.06-3.24,1.05,3.24h3.42l-2.76,2,1,3.25-2.76-2-2.77,2Z"/></svg>