<svg id="Layer_1" data-name="Layer 1" xmlns="http://www.w3.org/2000/svg" viewBox="0 0 300 180"><defs><style>.cls-1{fill:#c4c6c7;}.cls-2{fill:#d9dadb;}.cls-3{fill:#2c2c64;}.cls-4{fill:#282528;}.cls-5{fill:#e69e1c;}</style></defs><path d="M52.66,149.34H51.29L48,145.5l-.14-.19-.08-.11h0v4.14h-1v-8.4h1v3.95h0l.1-.14a1.58,1.58,0,0,1,.12-.15l3.14-3.66h1.23l-3.61,4Z"/><path d="M58.23,149.34H53.77v-8.4H58v.89H54.76v2.79h3v.89h-3v2.94h3.47Z"/><path d="M65.76,148.92a5.9,5.9,0,0,1-1.19.43,5.48,5.48,0,0,1-1.26.13,3.81,3.81,0,0,1-3-1.15,4.34,4.34,0,0,1-1.06-3A4.55,4.55,0,0,1,60.47,142a4.08,4.08,0,0,1,3.08-1.22,5.06,5.06,0,0,1,2.19.47l-.37.8a4.29,4.29,0,0,0-1.83-.38,3.05,3.05,0,0,0-2.35.95,3.71,3.71,0,0,0-.87,2.6,3.47,3.47,0,0,0,.84,2.45,2.88,2.88,0,0,0,2.21.91,4.21,4.21,0,0,0,1-.12,4.16,4.16,0,0,0,1-.36Z"/><path d="M66.3,149.34l3.22-8.4h1l3.24,8.4H72.69l-.85-2.25H68.2l-.8,2.25Zm2.23-3.14h3l-1.36-3.68a1,1,0,0,1-.07-.23q0-.14-.06-.33h0c0,.11,0,.22-.06.31a1.26,1.26,0,0,1-.07.25Z"/><path d="M83.58,149.34h-1V143.7c0-.22,0-.47,0-.74s0-.57.06-.89h0c0,.19-.09.35-.13.48a2,2,0,0,1-.12.33l-2.87,6.46h-.48l-2.87-6.41a2.5,2.5,0,0,1-.12-.36c0-.14-.09-.31-.13-.5h0q0,.26,0,.66c0,.27,0,.6,0,1v5.63H75v-8.4h1.3l2.58,5.86c.1.22.19.41.25.58a3.4,3.4,0,0,1,.14.42h0c.09-.23.17-.43.23-.6l.18-.43,2.63-5.83h1.23Z"/><path d="M84.82,149.34l3.22-8.4h1l3.23,8.4H91.2l-.85-2.25H86.71l-.8,2.25ZM87,146.2h3l-1.36-3.68c0-.06,0-.14-.06-.23s0-.2-.07-.33h0c0,.11,0,.22-.06.31a1.23,1.23,0,0,1-.08.25Z"/><path d="M97.62,141.83H95.2v7.51h-1v-7.51H91.79v-.89h5.83Z"/><path d="M97.16,149.34l3.22-8.4h1l3.24,8.4h-1.09l-.85-2.25H99.06l-.8,2.25Zm2.23-3.14h3L101,142.52a1,1,0,0,1-.07-.23q0-.14-.06-.33h0a2.38,2.38,0,0,1-.07.31,1.26,1.26,0,0,1-.07.25Z"/><path d="M112.65,149.34h-1.21l-4.32-6.7a1.35,1.35,0,0,1-.15-.26,2,2,0,0,1-.12-.26h0a2.81,2.81,0,0,1,0,.42c0,.19,0,.43,0,.73v6.07h-1v-8.4h1.28l4.21,6.59.22.34a1.81,1.81,0,0,1,.12.22h0a4.58,4.58,0,0,1,0-.49c0-.21,0-.46,0-.74v-5.92h1Z"/><path d="M123.89,142.48H121.5v6.86h-1.9v-6.86h-2.39v-1.54h6.68Z"/><path d="M123.29,149.34l3.06-8.4h2.24l3,8.4h-2.06l-.57-1.75h-3l-.56,1.75Zm3-3.23h2.2l-.93-2.92c0-.11-.06-.21-.08-.3s0-.18-.06-.31h0a1.67,1.67,0,0,1-.07.3,2.16,2.16,0,0,1-.08.29Z"/><path d="M140.19,149.34h-1.91l-3.47-5.28-.25-.41c-.07-.11-.13-.21-.17-.29h0c0,.15,0,.34,0,.57s0,.49,0,.79v4.62h-1.79v-8.4h2l3.33,5.11.22.35a3.79,3.79,0,0,1,.2.34h0a3.33,3.33,0,0,1,0-.44c0-.19,0-.43,0-.72v-4.64h1.79Z"/><path d="M145.62,146.59a2.86,2.86,0,0,1-.75,2.16,3,3,0,0,1-2.15.73,4.32,4.32,0,0,1-.79-.08,3.57,3.57,0,0,1-.82-.27l.58-1.43a4.21,4.21,0,0,0,.43.17,1.88,1.88,0,0,0,.43,0,1.08,1.08,0,0,0,.86-.31,1.55,1.55,0,0,0,.28-1l0-5.65h1.88Z"/><path d="M154.3,145.7a4,4,0,0,1-.88,2.84,3.45,3.45,0,0,1-2.64,1,3.31,3.31,0,0,1-2.57-.93,4,4,0,0,1-.86-2.79v-4.83h1.9v4.87a2.43,2.43,0,0,0,.4,1.53,1.43,1.43,0,0,0,1.2.51,1.4,1.4,0,0,0,1.17-.49,2.36,2.36,0,0,0,.39-1.48v-4.94h1.89Z"/><path d="M163.69,149.34h-1.91l-3.46-5.28c-.11-.16-.19-.29-.26-.41s-.13-.21-.17-.29h0c0,.15,0,.34,0,.57s0,.49,0,.79v4.62h-1.79v-8.4h2l3.33,5.11.22.35a3.87,3.87,0,0,1,.21.34h0a3.33,3.33,0,0,1,0-.44c0-.19,0-.43,0-.72v-4.64h1.79Z"/><path d="M172.51,148.71a5.25,5.25,0,0,1-1.36.57,6.43,6.43,0,0,1-1.7.21,4.62,4.62,0,0,1-3.18-1.05,4,4,0,0,1-1.19-3.17,4.52,4.52,0,0,1,1.21-3.2,4.35,4.35,0,0,1,3.33-1.27,7.11,7.11,0,0,1,2.89.56l-.59,1.46a6.84,6.84,0,0,0-1.13-.34,6.15,6.15,0,0,0-1.17-.1,2.49,2.49,0,0,0-1.86.71,2.89,2.89,0,0,0-.68,2.1,2.71,2.71,0,0,0,.68,2.05,2.45,2.45,0,0,0,1.78.66,3.76,3.76,0,0,0,.61-.05,2,2,0,0,0,.47-.13v-1.66h-1.69v-1.51h3.58Z"/><path d="M176,146.59v2.75h-1.9v-8.4h3a3.59,3.59,0,0,1,2.38.68,2.59,2.59,0,0,1,.79,2.07,2.67,2.67,0,0,1-.91,2.1,3.58,3.58,0,0,1-2.43.8Zm0-4.2v2.76h.74a1.58,1.58,0,0,0,1.13-.35,1.35,1.35,0,0,0,.38-1,1.33,1.33,0,0,0-.38-1,1.62,1.62,0,0,0-1.13-.34Z"/><path d="M183.41,149.34h-1.9v-8.4h1.9Z"/><path d="M192.87,149.34H191l-3.46-5.28-.26-.41a3.08,3.08,0,0,1-.16-.29h0q0,.22,0,.57c0,.22,0,.49,0,.79v4.62h-1.78v-8.4h2l3.33,5.11.22.35a3.79,3.79,0,0,1,.2.34h0c0-.1,0-.24,0-.44s0-.43,0-.72v-4.64h1.78Z"/><path d="M193.89,149.34l3.06-8.4h2.25l3,8.4h-2.07l-.57-1.75h-3l-.56,1.75Zm3-3.23h2.2l-.93-2.92c0-.11-.06-.21-.09-.3a1.82,1.82,0,0,1,0-.31H198q0,.18-.06.3c0,.09-.05.18-.08.29Z"/><path d="M210.79,149.34h-1.91l-3.46-5.28-.26-.41a3.08,3.08,0,0,1-.16-.29h0c0,.15,0,.34,0,.57s0,.49,0,.79v4.62h-1.79v-8.4h2l3.34,5.11.22.35a3.79,3.79,0,0,1,.2.34h0c0-.1,0-.24,0-.44s0-.43,0-.72v-4.64h1.78Z"/><path d="M219.61,148.71a5.11,5.11,0,0,1-1.36.57,6.43,6.43,0,0,1-1.7.21,4.62,4.62,0,0,1-3.18-1.05,4,4,0,0,1-1.18-3.17,4.51,4.51,0,0,1,1.2-3.2,4.37,4.37,0,0,1,3.34-1.27,7.52,7.52,0,0,1,1.47.13,7.75,7.75,0,0,1,1.41.43l-.59,1.46a6.84,6.84,0,0,0-1.13-.34,6,6,0,0,0-1.16-.1,2.46,2.46,0,0,0-1.86.71,2.89,2.89,0,0,0-.69,2.1,2.75,2.75,0,0,0,.68,2.05,2.46,2.46,0,0,0,1.78.66,3.67,3.67,0,0,0,.61-.05,1.88,1.88,0,0,0,.47-.13v-1.66H216v-1.51h3.57Z"/><path d="M231.51,149.34h-2.36l-2.45-3.58-.09-.17-.13-.29h0v4h-1.89v-8.4h1.89v3.89h0l.09-.2.14-.26,2.32-3.43h2.2l-2.89,4Z"/><path d="M235.55,149.49a3.9,3.9,0,0,1-2.94-1.18,4.2,4.2,0,0,1-1.14-3.06,4.55,4.55,0,0,1,1.15-3.22,4,4,0,0,1,3.06-1.23,3.83,3.83,0,0,1,2.91,1.17,4.35,4.35,0,0,1,1.11,3.11,4.43,4.43,0,0,1-1.15,3.19A4,4,0,0,1,235.55,149.49Zm0-1.64a1.91,1.91,0,0,0,1.56-.7,3,3,0,0,0,.57-2,3.24,3.24,0,0,0-.56-2,1.81,1.81,0,0,0-1.52-.72,1.92,1.92,0,0,0-1.58.74,3.13,3.13,0,0,0-.59,2,3,3,0,0,0,.59,2A1.86,1.86,0,0,0,235.58,147.85Z"/><path d="M246.51,142.48h-2.39v6.86h-1.9v-6.86h-2.39v-1.54h6.68Z"/><path d="M245.91,149.34l3.06-8.4h2.24l3,8.4h-2.06l-.57-1.75h-3l-.56,1.75Zm3-3.23h2.2l-.93-2.92c0-.11-.06-.21-.08-.3s0-.18-.06-.31h0a1.67,1.67,0,0,1-.07.3c0,.09,0,.18-.08.29Z"/><path d="M104.25,162.65h-1.78L100.62,160l-.07-.13-.1-.22h0v3H99v-6.33h1.43v2.94h0l.07-.15.11-.2,1.75-2.59H104l-2.17,3Z"/><path d="M107.29,162.77a3,3,0,0,1-2.22-.89,3.18,3.18,0,0,1-.85-2.31,3.45,3.45,0,0,1,.86-2.43,3,3,0,0,1,2.31-.92,2.86,2.86,0,0,1,2.19.88,3.3,3.3,0,0,1,.84,2.35,3.34,3.34,0,0,1-.87,2.4A3,3,0,0,1,107.29,162.77Zm0-1.24a1.42,1.42,0,0,0,1.17-.53,2.33,2.33,0,0,0,.43-1.48,2.48,2.48,0,0,0-.42-1.53,1.38,1.38,0,0,0-1.15-.55,1.42,1.42,0,0,0-1.19.57,2.74,2.74,0,0,0,0,3A1.42,1.42,0,0,0,107.32,161.53Z"/><path d="M115.55,157.48h-1.8v5.17h-1.44v-5.17h-1.79v-1.16h5Z"/><path d="M115.1,162.65l2.3-6.33h1.69l2.25,6.33h-1.55l-.43-1.32h-2.29l-.43,1.32Zm2.27-2.43H119l-.7-2.2a2.18,2.18,0,0,0-.06-.22,1.19,1.19,0,0,1,0-.24h0c0,.09,0,.16,0,.23s0,.14-.07.21Z"/><path d="M129.07,157.48h-1.8v5.17h-1.43v-5.17H124v-1.16h5Z"/><path d="M128.62,162.65l2.3-6.33h1.69l2.26,6.33h-1.56l-.43-1.32h-2.29l-.43,1.32Zm2.28-2.43h1.65l-.7-2.2a2.18,2.18,0,0,0-.06-.22,1.19,1.19,0,0,1,0-.24h0c0,.09,0,.16,0,.23s0,.14-.07.21Z"/><path d="M141.35,162.65h-1.44l-2.61-4-.19-.31-.12-.22h0q0,.16,0,.42v4.08h-1.34v-6.33h1.53l2.52,3.86.16.26a1.65,1.65,0,0,1,.15.25h0a2.33,2.33,0,0,1,0-.32c0-.15,0-.33,0-.55v-3.5h1.34Z"/><path d="M145.45,160.58a2.15,2.15,0,0,1-.57,1.63,2.22,2.22,0,0,1-1.62.55,3,3,0,0,1-.59-.06,3.18,3.18,0,0,1-.62-.2l.44-1.08a1.84,1.84,0,0,0,.32.12,1,1,0,0,0,.32.05.81.81,0,0,0,.65-.24,1.13,1.13,0,0,0,.21-.77l0-4.26h1.42Z"/><path d="M152,159.91a3,3,0,0,1-.66,2.14,2.6,2.6,0,0,1-2,.72,2.52,2.52,0,0,1-1.93-.7,3,3,0,0,1-.65-2.11v-3.64h1.43V160a1.86,1.86,0,0,0,.3,1.15,1.11,1.11,0,0,0,.91.38,1,1,0,0,0,.88-.37,1.75,1.75,0,0,0,.29-1.11v-3.73H152Z"/><path d="M159.07,162.65h-1.44l-2.61-4-.2-.31-.12-.22h0q0,.16,0,.42c0,.18,0,.38,0,.61v3.47h-1.35v-6.33h1.54l2.51,3.86.16.26c.06.08.11.17.16.25h0a2.33,2.33,0,0,1,0-.32c0-.15,0-.33,0-.55v-3.5h1.35Z"/><path d="M165.71,162.18a4,4,0,0,1-1,.43,5.15,5.15,0,0,1-1.28.16,3.5,3.5,0,0,1-2.4-.8,3,3,0,0,1-.89-2.38,3.38,3.38,0,0,1,.9-2.41,3.32,3.32,0,0,1,2.52-1,5.52,5.52,0,0,1,1.11.1,5.28,5.28,0,0,1,1.06.32l-.44,1.1a5.33,5.33,0,0,0-.85-.25,4.88,4.88,0,0,0-.88-.08,1.91,1.91,0,0,0-1.41.53,2.19,2.19,0,0,0-.51,1.58,2.07,2.07,0,0,0,.51,1.55,1.87,1.87,0,0,0,1.34.5,2.13,2.13,0,0,0,.46,0,1.18,1.18,0,0,0,.36-.1v-1.24H163v-1.14h2.69Z"/><path d="M168.37,160.58v2.07h-1.43v-6.33h2.24a2.64,2.64,0,0,1,1.79.52,1.93,1.93,0,0,1,.6,1.55,2,2,0,0,1-.69,1.59,2.65,2.65,0,0,1-1.83.6Zm0-3.16v2.08h.56a1.22,1.22,0,0,0,.86-.27,1.23,1.23,0,0,0,0-1.56,1.26,1.26,0,0,0-.86-.25Z"/><path d="M173.92,162.65H172.5v-6.33h1.42Z"/><path d="M181.06,162.65h-1.44l-2.61-4-.19-.31a2,2,0,0,1-.13-.22h0c0,.11,0,.25,0,.42s0,.38,0,.61v3.47h-1.34v-6.33h1.53l2.51,3.86a2.33,2.33,0,0,1,.17.26c0,.08.11.17.15.25h0c0-.07,0-.18,0-.32s0-.33,0-.55v-3.5h1.35Z"/><path d="M181.83,162.65l2.31-6.33h1.69l2.25,6.33h-1.56l-.42-1.32h-2.3l-.42,1.32Zm2.28-2.43h1.65l-.69-2.2-.07-.22c0-.06,0-.14,0-.24h0c0,.09,0,.16-.05.23l-.06.21Z"/><path d="M194.57,162.65h-1.44l-2.61-4-.2-.31-.12-.22h0q0,.16,0,.42c0,.18,0,.38,0,.61v3.47h-1.35v-6.33h1.54l2.51,3.86.16.26c.06.08.11.17.16.25h0a2.33,2.33,0,0,1,0-.32c0-.15,0-.33,0-.55v-3.5h1.35Z"/><path d="M201.21,162.18a4,4,0,0,1-1,.43,5.15,5.15,0,0,1-1.28.16,3.5,3.5,0,0,1-2.4-.8,3,3,0,0,1-.89-2.38,3.38,3.38,0,0,1,.9-2.41,3.32,3.32,0,0,1,2.52-1,5.52,5.52,0,0,1,1.11.1,5.28,5.28,0,0,1,1.06.32l-.44,1.1a5.33,5.33,0,0,0-.85-.25,4.88,4.88,0,0,0-.88-.08,1.91,1.91,0,0,0-1.41.53,2.19,2.19,0,0,0-.51,1.58,2.07,2.07,0,0,0,.51,1.55,1.87,1.87,0,0,0,1.34.5,2.13,2.13,0,0,0,.46,0,1.18,1.18,0,0,0,.36-.1v-1.24h-1.27v-1.14h2.69Z"/><polygon class="cls-1" points="180.26 58.8 180.26 57.23 218.44 57.23 218.44 114.83 170.05 114.83 170.05 58.8 180.26 58.8"/><polygon class="cls-1" points="119.74 58.8 119.74 57.23 81.56 57.23 81.56 114.83 129.95 114.83 129.95 58.8 119.74 58.8"/><polygon class="cls-2" points="150 89.77 133 89.77 133 114.83 150 114.83 167 114.83 167 89.77 150 89.77"/><polygon class="cls-2" points="150 58.8 133 58.8 133 83.83 150 83.83 167 83.83 167 58.8 150 58.8"/><polygon class="cls-3" points="128.49 48.23 141.95 40.45 96.48 40.45 75 52.84 114.19 52.84 128.49 48.23"/><polygon class="cls-3" points="171.51 48.23 185.81 52.84 225 52.84 203.52 40.45 158.05 40.45 171.51 48.23"/><path class="cls-3" d="M171.32,48.65,150,36.33,128.68,48.65,110.51,54.5h79ZM150,51.17H129.8L150,39.5l20.2,11.67Z"/><polygon class="cls-4" points="150 36.33 150.51 35.62 150 31.3 150 33.81 150 31.3 149.49 35.62 150 36.33 150 36.33 150 36.33 150 36.33 150 36.33"/><path class="cls-4" d="M85.89,60.4V81.67h10V60.4Zm1.37,4.42h7.28V77.25H87.26ZM94.54,80.3H87.26V78.62h7.28ZM87.26,63.45V61.78h7.28v1.67Z"/><path class="cls-4" d="M100.75,60.4V81.67h10V60.4Zm1.37,4.42h7.28V77.25h-7.28ZM109.4,80.3h-7.28V78.62h7.28Zm-7.28-16.85V61.78h7.28v1.67Z"/><path class="cls-4" d="M115.1,60.4V81.67h10V60.4Zm1.37,4.42h7.28V77.25h-7.28Zm7.28,15.48h-7.28V78.62h7.28Zm-7.28-16.85V61.78h7.28v1.67Z"/><path class="cls-4" d="M85.89,91.67v21.26h10V91.67Zm1.37,4.41h7.28v12.43H87.26Zm7.28,15.48H87.26v-1.67h7.28ZM87.26,94.71V93h7.28v1.67Z"/><path class="cls-4" d="M100.75,91.67v21.26h10V91.67Zm1.37,4.41h7.28v12.43h-7.28Zm7.28,15.48h-7.28v-1.67h7.28Zm-7.28-16.85V93h7.28v1.67Z"/><path class="cls-4" d="M115.1,91.67v21.26h10V91.67Zm1.37,4.41h7.28v12.43h-7.28Zm7.28,15.48h-7.28v-1.67h7.28Zm-7.28-16.85V93h7.28v1.67Z"/><polygon class="cls-4" points="150 114.83 150 114.83 76.31 114.83 76.31 118.83 150 118.83 150 118.83 223.69 118.83 223.69 114.83 150 114.83"/><polyline class="cls-5" points="150 41.35 134.29 50.03 150 50.03 150 50.03 165.71 50.03 150 41.35"/><polygon class="cls-4" points="218.44 83.86 170.05 83.86 170.05 58.8 167 58.8 167 83.86 150 83.86 133 83.86 133 58.8 129.95 58.8 129.95 83.86 81.56 83.86 81.56 89.77 129.95 89.77 129.95 114.83 133 114.83 133 89.77 150 89.77 167 89.77 167 114.83 170.05 114.83 170.05 89.77 218.44 89.77 218.44 83.86"/><path class="cls-4" d="M204.09,60.4V81.67h10V60.4Zm8.65,16.85h-7.28V64.82h7.28Zm-7.28,1.37h7.28V80.3h-7.28Zm0-15.17V61.78h7.28v1.67Z"/><path class="cls-4" d="M189.23,60.4V81.67h10V60.4Zm8.65,16.85H190.6V64.82h7.28Zm-7.28,1.37h7.28V80.3H190.6Zm0-15.17V61.78h7.28v1.67Z"/><path class="cls-4" d="M174.88,60.4V81.67h10V60.4Zm8.65,16.85h-7.28V64.82h7.28Zm-7.28,1.37h7.28V80.3h-7.28Zm0-15.17V61.78h7.28v1.67Z"/><path class="cls-4" d="M204.09,91.67v21.26h10V91.67Zm8.65,16.84h-7.28V96.08h7.28Zm-7.28,1.38h7.28v1.67h-7.28Zm0-15.18V93h7.28v1.67Z"/><path class="cls-4" d="M189.23,91.67v21.26h10V91.67Zm8.65,16.84H190.6V96.08h7.28Zm-7.28,1.38h7.28v1.67H190.6Zm0-15.18V93h7.28v1.67Z"/><path class="cls-4" d="M174.88,91.67v21.26h10V91.67Zm8.65,16.84h-7.28V96.08h7.28Zm-7.28,1.38h7.28v1.67h-7.28Zm0-15.18V93h7.28v1.67Z"/><rect class="cls-4" x="119.74" y="54.96" width="60.52" height="3.84"/><polygon class="cls-4" points="185.81 52.84 192.4 54.96 180.26 54.96 180.26 57.23 223.69 57.23 223.69 52.84 185.81 52.84"/><polygon class="cls-4" points="107.6 54.96 114.19 52.84 76.31 52.84 76.31 57.23 119.74 57.23 119.74 54.96 107.6 54.96"/></svg>