<svg id="Layer_1" data-name="Layer 1" xmlns="http://www.w3.org/2000/svg" viewBox="0 0 180 180"><defs><style>.cls-1{fill:#c4c6c7;}.cls-2{fill:#4b4b4b;}</style></defs><polygon class="cls-1" points="126.31 70.49 126.31 68.6 172.12 68.6 172.12 137.72 114.06 137.72 114.06 70.49 126.31 70.49"/><polygon class="cls-1" points="53.69 70.49 53.69 68.6 7.88 68.6 7.88 137.72 65.94 137.72 65.94 70.49 53.69 70.49"/><polygon class="cls-1" points="90 107.65 69.59 107.65 69.59 137.72 90 137.72 110.41 137.72 110.41 107.65 90 107.65"/><polygon class="cls-1" points="90 70.49 69.59 70.49 69.59 100.53 90 100.53 110.41 100.53 110.41 70.49 90 70.49"/><polygon class="cls-1" points="64.19 57.8 80.34 48.47 25.78 48.47 0 63.33 47.02 63.33 64.19 57.8"/><polygon class="cls-1" points="115.81 57.8 132.98 63.33 180 63.33 154.22 48.47 99.66 48.47 115.81 57.8"/><path class="cls-1" d="M115.59,58.31,90,43.53,64.41,58.31l-21.8,7h94.78ZM90,61.33H65.76L90,47.33l24.25,14Z"/><polygon class="cls-2" points="90 43.53 90.61 42.67 90 37.48 90 40.51 90 37.48 89.39 42.67 90 43.53 90 43.53 90 43.53 90 43.53 90 43.53"/><path class="cls-2" d="M13.07,72.41V97.93h12V72.41Zm1.64,5.3h8.74V92.63H14.71Zm8.74,18.57H14.71v-2h8.74ZM14.71,76.07v-2h8.74v2Z"/><path class="cls-2" d="M30.9,72.41V97.93h12V72.41Zm1.64,5.3h8.74V92.63H32.54Zm8.74,18.57H32.54v-2h8.74ZM32.54,76.07v-2h8.74v2Z"/><path class="cls-2" d="M48.11,72.41V97.93h12V72.41Zm1.65,5.3H58.5V92.63H49.76ZM58.5,96.28H49.76v-2H58.5ZM49.76,76.07v-2H58.5v2Z"/><path class="cls-2" d="M13.07,109.93v25.51h12V109.93Zm1.64,5.3h8.74v14.91H14.71Zm8.74,18.57H14.71v-2h8.74Zm-8.74-20.22v-2h8.74v2Z"/><path class="cls-2" d="M30.9,109.93v25.51h12V109.93Zm1.64,5.3h8.74v14.91H32.54Zm8.74,18.57H32.54v-2h8.74Zm-8.74-20.22v-2h8.74v2Z"/><path class="cls-2" d="M48.11,109.93v25.51h12V109.93Zm1.65,5.3H58.5v14.91H49.76ZM58.5,133.8H49.76v-2H58.5Zm-8.74-20.22v-2H58.5v2Z"/><polygon class="cls-2" points="90 137.72 90 137.72 1.57 137.72 1.57 142.52 90 142.52 90 142.52 178.43 142.52 178.43 137.72 90 137.72"/><polyline class="cls-2" points="90 49.55 71.15 59.96 90 59.96 90 59.96 108.85 59.96 90 49.55"/><polygon class="cls-2" points="172.12 100.56 114.06 100.56 114.06 70.49 110.41 70.49 110.41 100.56 90 100.56 69.59 100.56 69.59 70.49 65.94 70.49 65.94 100.56 7.88 100.56 7.88 107.65 65.94 107.65 65.94 137.72 69.59 137.72 69.59 107.65 90 107.65 110.41 107.65 110.41 137.72 114.06 137.72 114.06 107.65 172.12 107.65 172.12 100.56"/><path class="cls-2" d="M154.9,72.41V97.93h12V72.41Zm10.39,20.22h-8.74V77.71h8.74Zm-8.74,1.64h8.74v2h-8.74Zm0-18.2v-2h8.74v2Z"/><path class="cls-2" d="M137.08,72.41V97.93h12V72.41Zm10.38,20.22h-8.74V77.71h8.74Zm-8.74,1.64h8.74v2h-8.74Zm0-18.2v-2h8.74v2Z"/><path class="cls-2" d="M119.86,72.41V97.93h12V72.41Zm10.38,20.22H121.5V77.71h8.74Zm-8.74,1.64h8.74v2H121.5Zm0-18.2v-2h8.74v2Z"/><path class="cls-2" d="M154.9,109.93v25.51h12V109.93Zm10.39,20.21h-8.74V115.23h8.74Zm-8.74,1.65h8.74v2h-8.74Zm0-18.21v-2h8.74v2Z"/><path class="cls-2" d="M137.08,109.93v25.51h12V109.93Zm10.38,20.21h-8.74V115.23h8.74Zm-8.74,1.65h8.74v2h-8.74Zm0-18.21v-2h8.74v2Z"/><path class="cls-2" d="M119.86,109.93v25.51h12V109.93Zm10.38,20.21H121.5V115.23h8.74Zm-8.74,1.65h8.74v2H121.5Zm0-18.21v-2h8.74v2Z"/><rect class="cls-2" x="53.69" y="65.88" width="72.63" height="4.61"/><polygon class="cls-2" points="132.98 63.33 140.88 65.88 126.31 65.88 126.31 68.6 178.43 68.6 178.43 63.33 132.98 63.33"/><polygon class="cls-2" points="39.12 65.88 47.02 63.33 1.57 63.33 1.57 68.6 53.69 68.6 53.69 65.88 39.12 65.88"/></svg>