<svg id="Layer_1" data-name="Layer 1" xmlns="http://www.w3.org/2000/svg" viewBox="0 0 300 180"><defs><style>.cls-1{fill:#d9dadb;}.cls-2{fill:#c4c6c7;}.cls-3{fill:#bfc1c2;}</style></defs><polygon class="cls-1" points="180.26 58.8 180.26 57.23 218.44 57.23 218.44 114.83 170.05 114.83 170.05 58.8 180.26 58.8"/><polygon class="cls-1" points="119.74 58.8 119.74 57.23 81.56 57.23 81.56 114.83 129.95 114.83 129.95 58.8 119.74 58.8"/><polygon class="cls-1" points="150 89.77 133 89.77 133 114.83 150 114.83 167 114.83 167 89.77 150 89.77"/><polygon class="cls-1" points="150 58.8 133 58.8 133 83.83 150 83.83 167 83.83 167 58.8 150 58.8"/><polygon class="cls-2" points="128.49 48.23 141.95 40.45 96.48 40.45 75 52.84 114.19 52.84 128.49 48.23"/><polygon class="cls-2" points="171.51 48.23 185.81 52.84 225 52.84 203.52 40.45 158.05 40.45 171.51 48.23"/><path class="cls-2" d="M171.32,48.65,150,36.33,128.68,48.65,110.51,54.5h79ZM150,51.17H129.8L150,39.5l20.2,11.67Z"/><polygon class="cls-2" points="150 36.33 150.51 35.62 150 31.3 150 33.81 150 31.3 149.49 35.62 150 36.33 150 36.33 150 36.33 150 36.33 150 36.33"/><path class="cls-2" d="M85.89,60.4V81.67h10V60.4Zm1.37,4.42h7.28V77.25H87.26ZM94.54,80.3H87.26V78.62h7.28ZM87.26,63.45V61.78h7.28v1.67Z"/><path class="cls-2" d="M100.75,60.4V81.67h10V60.4Zm1.37,4.42h7.28V77.25h-7.28ZM109.4,80.3h-7.28V78.62h7.28Zm-7.28-16.85V61.78h7.28v1.67Z"/><path class="cls-2" d="M115.1,60.4V81.67h10V60.4Zm1.37,4.42h7.28V77.25h-7.28Zm7.28,15.48h-7.28V78.62h7.28Zm-7.28-16.85V61.78h7.28v1.67Z"/><path class="cls-2" d="M85.89,91.67v21.26h10V91.67Zm1.37,4.41h7.28v12.43H87.26Zm7.28,15.48H87.26v-1.67h7.28ZM87.26,94.71V93h7.28v1.67Z"/><path class="cls-2" d="M100.75,91.67v21.26h10V91.67Zm1.37,4.41h7.28v12.43h-7.28Zm7.28,15.48h-7.28v-1.67h7.28Zm-7.28-16.85V93h7.28v1.67Z"/><path class="cls-2" d="M115.1,91.67v21.26h10V91.67Zm1.37,4.41h7.28v12.43h-7.28Zm7.28,15.48h-7.28v-1.67h7.28Zm-7.28-16.85V93h7.28v1.67Z"/><polygon class="cls-2" points="150 114.83 150 114.83 76.31 114.83 76.31 118.83 150 118.83 150 118.83 223.69 118.83 223.69 114.83 150 114.83"/><polyline class="cls-2" points="150 41.35 134.29 50.03 150 50.03 150 50.03 165.71 50.03 150 41.35"/><polygon class="cls-2" points="218.44 83.86 170.05 83.86 170.05 58.8 167 58.8 167 83.86 150 83.86 133 83.86 133 58.8 129.95 58.8 129.95 83.86 81.56 83.86 81.56 89.77 129.95 89.77 129.95 114.83 133 114.83 133 89.77 150 89.77 167 89.77 167 114.83 170.05 114.83 170.05 89.77 218.44 89.77 218.44 83.86"/><path class="cls-2" d="M204.09,60.4V81.67h10V60.4Zm8.65,16.85h-7.28V64.82h7.28Zm-7.28,1.37h7.28V80.3h-7.28Zm0-15.17V61.78h7.28v1.67Z"/><path class="cls-2" d="M189.23,60.4V81.67h10V60.4Zm8.65,16.85H190.6V64.82h7.28Zm-7.28,1.37h7.28V80.3H190.6Zm0-15.17V61.78h7.28v1.67Z"/><path class="cls-2" d="M174.88,60.4V81.67h10V60.4Zm8.65,16.85h-7.28V64.82h7.28Zm-7.28,1.37h7.28V80.3h-7.28Zm0-15.17V61.78h7.28v1.67Z"/><path class="cls-2" d="M204.09,91.67v21.26h10V91.67Zm8.65,16.84h-7.28V96.08h7.28Zm-7.28,1.38h7.28v1.67h-7.28Zm0-15.18V93h7.28v1.67Z"/><path class="cls-2" d="M189.23,91.67v21.26h10V91.67Zm8.65,16.84H190.6V96.08h7.28Zm-7.28,1.38h7.28v1.67H190.6Zm0-15.18V93h7.28v1.67Z"/><path class="cls-2" d="M174.88,91.67v21.26h10V91.67Zm8.65,16.84h-7.28V96.08h7.28Zm-7.28,1.38h7.28v1.67h-7.28Zm0-15.18V93h7.28v1.67Z"/><rect class="cls-2" x="119.74" y="54.96" width="60.52" height="3.84"/><polygon class="cls-2" points="185.81 52.84 192.4 54.96 180.26 54.96 180.26 57.23 223.69 57.23 223.69 52.84 185.81 52.84"/><polygon class="cls-2" points="107.6 54.96 114.19 52.84 76.31 52.84 76.31 57.23 119.74 57.23 119.74 54.96 107.6 54.96"/><path class="cls-3" d="M78.6,149.34H77.23L74,145.5l-.14-.19a.48.48,0,0,1-.08-.11h0v4.14h-1v-8.4h1v3.95h0a1.1,1.1,0,0,1,.09-.14l.13-.15,3.14-3.66h1.22l-3.6,4Z"/><path class="cls-3" d="M84.16,149.34H79.71v-8.4H84v.89H80.69v2.79h3v.89h-3v2.94h3.47Z"/><path class="cls-3" d="M91.7,148.92a6.13,6.13,0,0,1-1.19.43,5.6,5.6,0,0,1-1.26.13,3.8,3.8,0,0,1-3-1.15,4.29,4.29,0,0,1-1.06-3A4.5,4.5,0,0,1,86.41,142a4.07,4.07,0,0,1,3.08-1.22,5,5,0,0,1,1.11.11,4.82,4.82,0,0,1,1.07.36l-.36.8a4.93,4.93,0,0,0-.9-.29,4.52,4.52,0,0,0-.93-.09,3,3,0,0,0-2.35.95,3.7,3.7,0,0,0-.87,2.6,3.47,3.47,0,0,0,.84,2.45,2.86,2.86,0,0,0,2.21.91,4.21,4.21,0,0,0,1-.12,4.32,4.32,0,0,0,1-.36Z"/><path class="cls-3" d="M92.24,149.34l3.22-8.4h1l3.23,8.4H98.62l-.85-2.25H94.14l-.81,2.25Zm2.22-3.13h3l-1.36-3.69c0-.06,0-.14-.06-.23s0-.2-.07-.33h0c0,.11,0,.22-.06.31s0,.18-.07.25Z"/><path class="cls-3" d="M109.52,149.34h-1V143.7c0-.22,0-.47,0-.74s0-.57.06-.89h0a4.93,4.93,0,0,1-.14.48,2,2,0,0,1-.12.33l-2.87,6.46H105l-2.86-6.41c0-.09-.08-.21-.13-.36s-.08-.31-.12-.5h0c0,.17,0,.39,0,.66s0,.6,0,1v5.63h-1v-8.4h1.3l2.58,5.86c.1.22.18.41.25.58s.11.31.14.42h0c.09-.23.16-.43.23-.6s.12-.31.18-.43l2.63-5.83h1.23Z"/><path class="cls-3" d="M110.75,149.34l3.23-8.4h1l3.23,8.4h-1.09l-.85-2.25h-3.64l-.8,2.25Zm2.23-3.13h3l-1.36-3.69a1,1,0,0,1-.07-.23q0-.14-.06-.33h0a2.38,2.38,0,0,1-.07.31,1.26,1.26,0,0,1-.07.25Z"/><path class="cls-3" d="M123.56,141.83h-2.42v7.51h-1v-7.51h-2.42v-.89h5.83Z"/><path class="cls-3" d="M123.1,149.34l3.22-8.4h1l3.24,8.4h-1.09l-.85-2.25H125l-.81,2.25Zm2.23-3.13h3L127,142.52c0-.06,0-.14-.06-.23s0-.2-.06-.33h0c0,.11,0,.22-.06.31s0,.18-.07.25Z"/><path class="cls-3" d="M138.58,149.34h-1.2l-4.33-6.7-.15-.26-.12-.26h0a3.35,3.35,0,0,1,0,.42c0,.19,0,.43,0,.73v6.07h-1v-8.4h1.28l4.21,6.59.22.35.12.21h0a2.91,2.91,0,0,1,0-.49c0-.21,0-.46,0-.74v-5.92h1Z"/><path class="cls-3" d="M143.93,149.34v-8.4H147a3.8,3.8,0,0,1,2.17.53,1.75,1.75,0,0,1,.75,1.51,1.83,1.83,0,0,1-.4,1.18,2.1,2.1,0,0,1-1,.7v0a2,2,0,0,1,1.28.64,1.89,1.89,0,0,1,.49,1.3,2.24,2.24,0,0,1-.83,1.83,3.46,3.46,0,0,1-2.26.68Zm1.9-7v2h.83a1.37,1.37,0,0,0,.92-.28.93.93,0,0,0,.34-.77.88.88,0,0,0-.35-.75,1.8,1.8,0,0,0-1-.25Zm0,3.46V148h1a1.6,1.6,0,0,0,1-.31,1,1,0,0,0,.37-.83.88.88,0,0,0-.36-.75,1.73,1.73,0,0,0-1-.27Z"/><path class="cls-3" d="M158.48,145.7a4.07,4.07,0,0,1-.88,2.84,3.46,3.46,0,0,1-2.65,1,3.33,3.33,0,0,1-2.57-.93,4,4,0,0,1-.85-2.79v-4.83h1.9v4.87a2.43,2.43,0,0,0,.4,1.53,1.65,1.65,0,0,0,2.37,0,2.36,2.36,0,0,0,.38-1.48v-4.94h1.9Z"/><path class="cls-3" d="M167.26,149.34H164.9l-2.45-3.58-.09-.17-.13-.29h0v4h-1.89v-8.4h1.89v3.89h0l.09-.2.14-.26,2.32-3.43H167l-2.89,4Z"/><path class="cls-3" d="M170,149.34h-1.9v-8.4H170Z"/><path class="cls-3" d="M177.79,142.48h-2.4v6.86H173.5v-6.86h-2.39v-1.54h6.68Z"/><path class="cls-3" d="M182.24,149.34v-8.4h3.06a3.79,3.79,0,0,1,2.16.53,1.75,1.75,0,0,1,.75,1.51,1.83,1.83,0,0,1-.4,1.18,2.05,2.05,0,0,1-1,.7v0a2,2,0,0,1,1.29.64,1.88,1.88,0,0,1,.48,1.3,2.24,2.24,0,0,1-.83,1.83,3.45,3.45,0,0,1-2.25.68Zm1.89-7v2H185a1.37,1.37,0,0,0,.92-.28.93.93,0,0,0,.34-.77.87.87,0,0,0-.34-.75,1.83,1.83,0,0,0-1-.25Zm0,3.46V148h1a1.57,1.57,0,0,0,1-.31,1,1,0,0,0,.38-.83.89.89,0,0,0-.37-.75,1.69,1.69,0,0,0-1-.27Z"/><path class="cls-3" d="M195,149.34h-5v-8.4h4.85v1.54h-3v1.87h2.75v1.53h-2.75v1.92H195Z"/><path class="cls-3" d="M195.63,148.78l.79-1.47a4.92,4.92,0,0,0,1.1.51,3.46,3.46,0,0,0,1,.13,1.62,1.62,0,0,0,1-.26.87.87,0,0,0,.32-.71.84.84,0,0,0-.26-.67,2.27,2.27,0,0,0-.95-.39,4.52,4.52,0,0,1-2-.91,2.13,2.13,0,0,1-.64-1.65,2.38,2.38,0,0,1,.83-1.82,3.36,3.36,0,0,1,2.31-.74,5.29,5.29,0,0,1,2.36.55l-.71,1.49a4.35,4.35,0,0,0-.92-.39,2.92,2.92,0,0,0-.79-.12,1.6,1.6,0,0,0-.89.22.74.74,0,0,0-.31.64.66.66,0,0,0,.29.59,3,3,0,0,0,1,.37,4,4,0,0,1,2,.93,2.34,2.34,0,0,1,.61,1.73,2.46,2.46,0,0,1-.84,1.94,3.61,3.61,0,0,1-2.44.74,6.36,6.36,0,0,1-1.46-.19A4.81,4.81,0,0,1,195.63,148.78Z"/><path class="cls-3" d="M208.94,142.48h-2.4v6.86h-1.9v-6.86h-2.38v-1.54h6.68Z"/><path class="cls-3" d="M208.33,149.34l3.06-8.4h2.25l3,8.4h-2.07l-.56-1.75H211l-.56,1.75Zm3-3.23h2.2l-.93-2.92c0-.11-.06-.21-.09-.3a1.82,1.82,0,0,1,0-.31h-.05q0,.18-.06.3c0,.09,0,.18-.08.29Z"/><path class="cls-3" d="M224.5,149.34h-2.14l-1.12-2.07a3.11,3.11,0,0,0-.54-.76,1,1,0,0,0-.62-.29h-.51v3.12h-1.9v-8.4h3a3.76,3.76,0,0,1,2.3.59,2.12,2.12,0,0,1,.76,1.79,2.19,2.19,0,0,1-.49,1.44,2.82,2.82,0,0,1-1.35.89v0a1.53,1.53,0,0,1,.7.49,4.5,4.5,0,0,1,.56.78Zm-4.93-7v2.43h.82a1.34,1.34,0,0,0,1-.37,1.24,1.24,0,0,0,.37-.92,1.08,1.08,0,0,0-.33-.86,1.48,1.48,0,0,0-1-.28Z"/><path class="cls-3" d="M227.4,149.34h-1.89v-8.4h1.89Z"/><path class="cls-3" d="M104.25,162.65h-1.78L100.62,160l-.07-.13-.1-.22h0v3H99v-6.33h1.43v2.94h0l.07-.15.11-.2,1.75-2.59H104l-2.17,3Z"/><path class="cls-3" d="M107.29,162.76a3,3,0,0,1-2.22-.88,3.19,3.19,0,0,1-.86-2.31,3.41,3.41,0,0,1,.87-2.43,3,3,0,0,1,2.31-.92,2.88,2.88,0,0,1,2.19.88,3.29,3.29,0,0,1,.84,2.34,3.35,3.35,0,0,1-.87,2.41A3,3,0,0,1,107.29,162.76Zm0-1.23a1.39,1.39,0,0,0,1.17-.53,2.27,2.27,0,0,0,.44-1.48,2.48,2.48,0,0,0-.42-1.53,1.38,1.38,0,0,0-1.15-.55,1.42,1.42,0,0,0-1.19.57,2.74,2.74,0,0,0,0,3A1.41,1.41,0,0,0,107.31,161.53Z"/><path class="cls-3" d="M115.55,157.48h-1.81v5.17h-1.43v-5.17h-1.79v-1.16h5Z"/><path class="cls-3" d="M115.09,162.65l2.31-6.33h1.69l2.25,6.33h-1.55l-.43-1.32h-2.3l-.42,1.32Zm2.28-2.43H119l-.7-2.2c0-.09,0-.16-.06-.22a1.19,1.19,0,0,1,0-.24h0a1.32,1.32,0,0,1,0,.23,1.15,1.15,0,0,1-.06.21Z"/><path class="cls-3" d="M129.07,157.48h-1.8v5.17h-1.44v-5.17H124v-1.16h5Z"/><path class="cls-3" d="M128.62,162.65l2.3-6.33h1.69l2.26,6.33h-1.56l-.43-1.32h-2.29l-.43,1.32Zm2.28-2.43h1.65l-.7-2.2a2.18,2.18,0,0,0-.06-.22,1.19,1.19,0,0,1,0-.24h0c0,.09,0,.16,0,.23l-.07.21Z"/><path class="cls-3" d="M141.35,162.65h-1.44l-2.61-4-.19-.31a1.72,1.72,0,0,1-.12-.22h0c0,.11,0,.25,0,.42s0,.38,0,.6v3.48h-1.34v-6.33h1.53l2.52,3.86.16.26a1.65,1.65,0,0,1,.15.25h0q0-.1,0-.33v-4h1.34Z"/><path class="cls-3" d="M145.45,160.58a2.15,2.15,0,0,1-.57,1.63,2.22,2.22,0,0,1-1.62.55,3,3,0,0,1-.59-.06,3.18,3.18,0,0,1-.62-.2l.44-1.08a1.59,1.59,0,0,0,.32.12,1,1,0,0,0,.32.05.81.81,0,0,0,.65-.24,1.13,1.13,0,0,0,.21-.77l0-4.26h1.42Z"/><path class="cls-3" d="M152,159.91a3,3,0,0,1-.66,2.14,2.6,2.6,0,0,1-2,.71,2.51,2.51,0,0,1-1.93-.69,3,3,0,0,1-.65-2.11v-3.64h1.43V160a1.86,1.86,0,0,0,.3,1.15,1.09,1.09,0,0,0,.9.38,1.06,1.06,0,0,0,.89-.37,1.75,1.75,0,0,0,.29-1.11v-3.73H152Z"/><path class="cls-3" d="M159.06,162.65h-1.44l-2.61-4-.19-.31-.12-.22h0q0,.16,0,.42v4.08h-1.34v-6.33h1.53l2.52,3.86.16.26c.06.08.11.17.16.25h0a2.38,2.38,0,0,1,0-.33c0-.14,0-.32,0-.54v-3.5h1.34Z"/><path class="cls-3" d="M165.71,162.18a4,4,0,0,1-1,.43,5.17,5.17,0,0,1-1.28.15A3.47,3.47,0,0,1,161,162a3,3,0,0,1-.89-2.38,3.38,3.38,0,0,1,.9-2.41,3.32,3.32,0,0,1,2.52-1,5.59,5.59,0,0,1,1.11.1,5.28,5.28,0,0,1,1.06.32l-.45,1.1a5,5,0,0,0-.84-.25,4.12,4.12,0,0,0-.88-.08,1.91,1.91,0,0,0-1.41.53,2.21,2.21,0,0,0-.51,1.58,2.07,2.07,0,0,0,.51,1.55,1.85,1.85,0,0,0,1.34.5,2.13,2.13,0,0,0,.46,0,1.11,1.11,0,0,0,.35-.1v-1.24H163v-1.14h2.69Z"/><path class="cls-3" d="M168.37,160.58v2.07h-1.43v-6.33h2.24a2.64,2.64,0,0,1,1.79.52,1.93,1.93,0,0,1,.6,1.55,2,2,0,0,1-.69,1.59,2.67,2.67,0,0,1-1.83.6Zm0-3.16v2.08h.56a1.19,1.19,0,0,0,.85-.27,1.19,1.19,0,0,0,0-1.56,1.23,1.23,0,0,0-.85-.25Z"/><path class="cls-3" d="M173.92,162.65H172.5v-6.33h1.42Z"/><path class="cls-3" d="M181.06,162.65h-1.44l-2.61-4c-.08-.12-.14-.22-.19-.31a2,2,0,0,1-.13-.22h0c0,.11,0,.25,0,.42s0,.38,0,.6v3.48h-1.35v-6.33h1.54l2.51,3.86c.06.08.11.17.17.26l.15.25h0q0-.1,0-.33c0-.14,0-.32,0-.54v-3.5h1.35Z"/><path class="cls-3" d="M181.83,162.65l2.3-6.33h1.7l2.25,6.33h-1.56l-.43-1.32H183.8l-.43,1.32Zm2.28-2.43h1.65l-.69-2.2-.07-.22c0-.06,0-.14,0-.24h0c0,.09,0,.16,0,.23l-.07.21Z"/><path class="cls-3" d="M194.56,162.65h-1.44l-2.61-4-.19-.31-.12-.22h0q0,.16,0,.42v4.08h-1.34v-6.33h1.53l2.52,3.86.16.26c.06.08.11.17.16.25h0a2.38,2.38,0,0,1,0-.33c0-.14,0-.32,0-.54v-3.5h1.34Z"/><path class="cls-3" d="M201.21,162.18a4,4,0,0,1-1,.43,5.17,5.17,0,0,1-1.28.15,3.47,3.47,0,0,1-2.4-.79,3,3,0,0,1-.89-2.38,3.38,3.38,0,0,1,.9-2.41,3.32,3.32,0,0,1,2.52-1,5.59,5.59,0,0,1,1.11.1,5.28,5.28,0,0,1,1.06.32l-.45,1.1a5,5,0,0,0-.84-.25,4.12,4.12,0,0,0-.88-.08,1.91,1.91,0,0,0-1.41.53,2.21,2.21,0,0,0-.51,1.58,2.07,2.07,0,0,0,.51,1.55,1.85,1.85,0,0,0,1.34.5,2.13,2.13,0,0,0,.46,0,1.11,1.11,0,0,0,.35-.1v-1.24h-1.26v-1.14h2.69Z"/></svg>