<svg id="Layer_1" data-name="Layer 1" xmlns="http://www.w3.org/2000/svg" viewBox="0 0 180 180"><defs><style>.cls-1{fill:#e0a326;}.cls-2{fill:#282428;}.cls-3{fill:#2d1b63;}</style></defs><path class="cls-1" d="M55.18,158.27c-4.9,2.48-8.4,7.42-8.4,11.65,4.79,3.77,10.69,1.32,12.46.44,4.07-2,8.16-6.35,8.13-11.28C62.63,155.21,57.32,157.19,55.18,158.27Z"/><path class="cls-1" d="M29.18,142.53c4.26-.23,9.38-2.41,11.22-6.63-2.52-4.84-7.38-5.34-10.14-5.17-5.13.3-10,3.23-11.6,6.85C21.39,142.53,27.33,142.63,29.18,142.53Z"/><path class="cls-1" d="M12.62,104.85c3.59,1.64,8.69,2.07,12-.56,0-5-3.77-7.44-6.1-8.49-4.33-2-9.53-1.65-12.42.58C6.28,101.54,11.07,104.15,12.62,104.85Z"/><path class="cls-1" d="M71,128.75c-5.63,2.33-6.39,8.67-6.49,10.65-.22,4.54,1.53,10.22,5.84,12.61,5.7-2.23,6.58-7.83,6.69-10.23C77.31,136.3,74.72,130.83,71,128.75Z"/><path class="cls-1" d="M54.53,125.55c2.46-4.36,2.63-9.86.54-13.1-5.49-.35-8.71,4.46-9.6,6-2.06,3.61-3,8.93-.53,12.67C50.23,131.63,53.19,127.91,54.53,125.55Z"/><path class="cls-1" d="M46.15,90.2c-4.49-1.94-8.69,1.1-9.94,2.14-2.87,2.39-5.34,6.57-4.49,10.48,4.28,2,7.92-.2,9.78-1.77C44.94,98.15,46.84,93.59,46.15,90.2Z"/><path class="cls-1" d="M40.23,67.55c-3.19.38-6.92,2.19-8.21,5.33,2.17,3.32,5.77,3.44,7.83,3.18,3.84-.47,7.33-2.8,8.5-5.52C46,67.17,41.6,67.39,40.23,67.55Z"/><path class="cls-1" d="M49.57,44.78c-2.89-.56-6.64,0-8.67,2.31,1,3.44,4.1,4.54,6,4.89,3.49.66,7.19-.38,9-2.4C54.7,46,50.82,45,49.57,44.78Z"/><path class="cls-1" d="M65.71,30.36c-1.79-1.76-4.67-3.15-7.2-2.54a6.24,6.24,0,0,0,2,6.16c2.17,2.1,5.23,3.13,7.48,2.63C68.72,33.61,66.48,31.11,65.71,30.36Z"/><path class="cls-1" d="M52,14c-.34,2.49.25,5.63,2.25,7.29A6.23,6.23,0,0,0,58,16c.4-3-.6-6.06-2.34-7.57C52.85,9.68,52.17,13,52,14Z"/><path class="cls-1" d="M31.2,27.78c-2.81,2.45-2.24,6.41-2,7.66.62,2.88,2.57,6.13,5.52,7.08,2.77-2.26,2.58-5.54,2.17-7.4C36.16,31.66,33.76,28.66,31.2,27.78Z"/><path class="cls-1" d="M15,67.71c1.9,2.6,5.32,5,8.68,4.53,1.82-3.51.16-6.71-1.07-8.38-2.3-3.11-6.05-5-9-4.69C11.87,62.87,14.21,66.59,15,67.71Z"/><path class="cls-2" d="M84.22,158.3c-2.62-.84-5.15-1.79-7.62-2.85,3.94-3,6.31-7.69,6.57-13.4.38-8.66-4.18-16.84-10.86-19.44l-1-.38-1,.3c-6.94,2-11.5,8.39-11.9,16.56a23.31,23.31,0,0,0,.48,6,76.28,76.28,0,0,1-9.14-8.33,16.58,16.58,0,0,0,10.07-8.22c4-7.12,3.66-16-.86-21l-.69-.78-1-.19c-6.72-1.23-13.28,2.16-17.11,8.87a22,22,0,0,0-2,4.76,73.7,73.7,0,0,1-4.46-10.58c.5.05,1,.09,1.5.09a15.86,15.86,0,0,0,10.24-4c5.87-4.94,8.44-12.83,6.11-18.75l-.38-1-.89-.54c-5.52-3.3-12.4-2.46-18,2.19a20.33,20.33,0,0,0-2.42,2.4,79.6,79.6,0,0,1,0-10.59,13.79,13.79,0,0,0,8.57,2.8,17.3,17.3,0,0,0,2.14-.13c7-.86,12.87-5.64,14-11.36l.21-1-.46-.93c-2.59-5.31-8.3-8.12-14.89-7.34a18.14,18.14,0,0,0-6.83,2.22A71.75,71.75,0,0,1,36.9,52.65,13.71,13.71,0,0,0,45.74,58a17.87,17.87,0,0,0,3.25.3c5.44,0,10.52-2.51,12.81-6.57l.51-.91-.15-1c-.82-5.58-5.2-9.8-11.43-11a17.77,17.77,0,0,0-4.8-.27,70.4,70.4,0,0,1,6.49-6.9,13.12,13.12,0,0,0,3.86,6.76,15.55,15.55,0,0,0,10.55,4.45,10.84,10.84,0,0,0,5-1.14l.92-.47.45-1c2.21-4.72,1-10.19-3.19-14.27a15.8,15.8,0,0,0-5.36-3.48c1.86-1.11,3.77-2.15,5.75-3.11a3.05,3.05,0,0,0-2.66-5.5c-1.2.58-2.37,1.2-3.53,1.83C64.54,10,61.84,4.53,57.5,2.4l-.94-.47-1,.21c-5.11,1-8.77,5.28-9.56,11.06a14.25,14.25,0,0,0,4,12.42,76,76,0,0,0-7.29,7.29c-1.68-6.1-6.51-10.84-11.8-11.44l-1-.11-.89.54c-4.83,2.93-7,8.61-5.68,14.81,1.16,5.45,4.65,9.73,9,11.41A78.78,78.78,0,0,0,27.39,60c-4.18-5.51-11.12-8.23-16.62-6.47l-1,.31-.59.86c-3.35,4.86-3,11.21.92,16.58,3.28,4.49,8.13,7.07,12.84,7.07q.45,0,.9,0a87,87,0,0,0,0,12.61c0,.28.06.57.08.85A19.17,19.17,0,0,0,21,90.23C13.82,87,5.34,88.11.87,92.92l-.71.76-.1,1c-.6,6.58,3.24,12.6,10,15.69a20.5,20.5,0,0,0,8.46,1.89,16.25,16.25,0,0,0,8.78-2.45,80.86,80.86,0,0,0,6.3,14.91,20.86,20.86,0,0,0-3.73-.13c-8.31.49-15.66,5.67-17.48,12.32l-.27,1,.39,1c2.51,6.08,8.48,9.74,15.77,9.74q.6,0,1.2,0c6.6-.36,12.3-3.51,15.34-8.18A82.19,82.19,0,0,0,56.8,151.19a20.3,20.3,0,0,0-4.38,1.63c-7.75,3.92-12.63,11.91-11.62,19l.15,1,.75.72a15.86,15.86,0,0,0,11.39,4.49A20.32,20.32,0,0,0,62,175.82c6.5-3.25,10.75-9,11.4-15.1a90.24,90.24,0,0,0,9,3.39,3,3,0,0,0,.92.15,3.05,3.05,0,0,0,.93-6ZM64.54,139.4c.1-2,.86-8.32,6.49-10.65,3.69,2.08,6.28,7.55,6,13-.11,2.4-1,8-6.69,10.23C66.07,149.62,64.32,143.94,64.54,139.4ZM40.23,67.55c1.37-.16,5.76-.38,8.12,3-1.17,2.72-4.66,5-8.5,5.52-2.06.26-5.66.14-7.83-3.18C33.31,69.74,37,67.93,40.23,67.55Zm9.34-22.77c1.25.24,5.13,1.26,6.29,4.8-1.81,2-5.51,3.06-9,2.4-1.86-.35-5-1.45-6-4.89C42.93,44.75,46.68,44.22,49.57,44.78ZM68,36.61c-2.25.5-5.31-.53-7.48-2.63a6.24,6.24,0,0,1-2-6.16c2.53-.61,5.41.78,7.2,2.54C66.48,31.11,68.72,33.61,68,36.61ZM52,14c.14-1.07.82-4.35,3.65-5.57C57.42,10,58.42,13,58,16a6.23,6.23,0,0,1-3.74,5.29C52.28,19.66,51.69,16.52,52,14ZM29.22,35.44c-.26-1.25-.83-5.21,2-7.66,2.56.88,5,3.88,5.71,7.34.41,1.86.6,5.14-2.17,7.4C31.79,41.57,29.84,38.32,29.22,35.44ZM15,67.71c-.82-1.12-3.16-4.84-1.38-8.54,2.94-.31,6.69,1.58,9,4.69,1.23,1.67,2.89,4.87,1.07,8.38C20.35,72.66,16.93,70.31,15,67.71Zm30.44,50.77c.89-1.57,4.11-6.38,9.6-6,2.09,3.24,1.92,8.74-.54,13.1-1.32,2.34-4.26,6-9.47,5.6l-.51-.66C42.59,126.81,43.52,121.88,45.47,118.48ZM36.21,92.34c1.25-1,5.45-4.08,9.94-2.14.69,3.39-1.21,8-4.65,10.85-1.86,1.56-5.48,3.74-9.73,1.79-.05-.19-.1-.38-.14-.57C31.11,98.52,33.48,94.62,36.21,92.34ZM12.62,104.85c-1.55-.7-6.34-3.31-6.51-8.47C9,94.15,14.2,93.85,18.53,95.8c2.33,1,6.07,3.51,6.1,8.49C21.31,106.92,16.21,106.49,12.62,104.85Zm16.56,37.68c-1.85.1-7.79,0-10.52-4.95,1.62-3.62,6.47-6.55,11.6-6.85,2.76-.17,7.62.33,10.14,5.17C38.56,140.12,33.44,142.3,29.18,142.53Zm30.06,27.83c-1.77.88-7.67,3.33-12.46-.44,0-4.23,3.5-9.17,8.4-11.65,2.14-1.08,7.45-3.06,12.19.81C67.4,164,63.31,168.32,59.24,170.36Z"/><path class="cls-3" d="M124.82,158.27c4.9,2.48,8.4,7.42,8.4,11.65-4.79,3.77-10.69,1.32-12.46.44-4.07-2-8.16-6.35-8.13-11.28C117.37,155.21,122.68,157.19,124.82,158.27Z"/><path class="cls-3" d="M150.82,142.53c-4.26-.23-9.38-2.41-11.22-6.63,2.52-4.84,7.38-5.34,10.14-5.17,5.13.3,10,3.23,11.6,6.85C158.61,142.53,152.67,142.63,150.82,142.53Z"/><path class="cls-3" d="M167.38,104.85c-3.59,1.64-8.69,2.07-12-.56,0-5,3.77-7.44,6.1-8.49,4.33-2,9.53-1.65,12.42.58C173.72,101.54,168.93,104.15,167.38,104.85Z"/><path class="cls-3" d="M109,128.75c5.63,2.33,6.39,8.67,6.49,10.65.22,4.54-1.53,10.22-5.84,12.61-5.7-2.23-6.58-7.83-6.69-10.23C102.69,136.3,105.28,130.83,109,128.75Z"/><path class="cls-3" d="M125.47,125.55c-2.46-4.36-2.63-9.86-.54-13.1,5.49-.35,8.71,4.46,9.6,6,2.06,3.61,3,8.93.53,12.67C129.77,131.63,126.81,127.91,125.47,125.55Z"/><path class="cls-3" d="M133.85,90.2c4.49-1.94,8.69,1.1,9.94,2.14,2.87,2.39,5.34,6.57,4.49,10.48-4.28,2-7.92-.2-9.78-1.77C135.06,98.15,133.16,93.59,133.85,90.2Z"/><path class="cls-3" d="M139.77,67.55c3.19.38,6.92,2.19,8.21,5.33-2.17,3.32-5.77,3.44-7.83,3.18-3.84-.47-7.33-2.8-8.5-5.52C134,67.17,138.4,67.39,139.77,67.55Z"/><path class="cls-3" d="M130.43,44.78c2.89-.56,6.64,0,8.67,2.31-1,3.44-4.1,4.54-6,4.89-3.49.66-7.19-.38-9-2.4C125.3,46,129.18,45,130.43,44.78Z"/><path class="cls-3" d="M114.29,30.36c1.79-1.76,4.67-3.15,7.2-2.54a6.24,6.24,0,0,1-2,6.16c-2.17,2.1-5.23,3.13-7.48,2.63C111.28,33.61,113.52,31.11,114.29,30.36Z"/><path class="cls-3" d="M128,14c.34,2.49-.25,5.63-2.25,7.29A6.23,6.23,0,0,1,122,16c-.4-3,.6-6.06,2.34-7.57C127.15,9.68,127.83,13,128,14Z"/><path class="cls-3" d="M148.8,27.78c2.81,2.45,2.24,6.41,2,7.66-.62,2.88-2.57,6.13-5.52,7.08-2.77-2.26-2.58-5.54-2.17-7.4C143.84,31.66,146.24,28.66,148.8,27.78Z"/><path class="cls-3" d="M165,67.71c-1.9,2.6-5.32,5-8.68,4.53-1.82-3.51-.16-6.71,1.07-8.38,2.3-3.11,6-5,9-4.69C168.13,62.87,165.79,66.59,165,67.71Z"/><path class="cls-2" d="M93.8,162.13a3,3,0,0,0,2.91,2.13,3,3,0,0,0,.92-.15,90.24,90.24,0,0,0,9-3.39c.65,6.07,4.9,11.85,11.4,15.1a20.32,20.32,0,0,0,8.88,2.25,15.86,15.86,0,0,0,11.39-4.49l.75-.72.15-1c1-7.09-3.87-15.08-11.62-19a20.3,20.3,0,0,0-4.38-1.63,82.19,82.19,0,0,0,12-10.74c3,4.67,8.74,7.82,15.34,8.18q.6,0,1.2,0c7.29,0,13.26-3.66,15.77-9.74l.39-1-.27-1c-1.82-6.65-9.17-11.83-17.48-12.32a20.86,20.86,0,0,0-3.73.13,80.86,80.86,0,0,0,6.3-14.91,16.25,16.25,0,0,0,8.78,2.45,20.5,20.5,0,0,0,8.46-1.89c6.79-3.09,10.63-9.11,10-15.69l-.1-1-.71-.76C174.66,88.11,166.18,87,159,90.23a19.17,19.17,0,0,0-2.86,1.59c0-.28.06-.57.08-.85a87,87,0,0,0,0-12.61q.45,0,.9,0c4.71,0,9.56-2.58,12.84-7.07,3.92-5.37,4.27-11.72.92-16.58l-.59-.86-1-.31c-5.5-1.76-12.44,1-16.62,6.47a78.78,78.78,0,0,0-4.91-11.92c4.4-1.68,7.89-6,9.05-11.41,1.32-6.2-.85-11.88-5.68-14.81l-.89-.54-1,.11c-5.29.6-10.12,5.34-11.8,11.44a76,76,0,0,0-7.29-7.29,14.25,14.25,0,0,0,4-12.42c-.79-5.78-4.45-10-9.56-11.06l-1-.21-.94.47c-4.34,2.13-7,7.62-6.68,13.33-1.16-.63-2.33-1.25-3.53-1.83a3.05,3.05,0,0,0-2.66,5.5c2,1,3.89,2,5.75,3.11A15.8,15.8,0,0,0,110,26c-4.18,4.08-5.4,9.55-3.19,14.27l.45,1,.92.47a10.84,10.84,0,0,0,5,1.14,15.55,15.55,0,0,0,10.55-4.45,13.12,13.12,0,0,0,3.86-6.76,70.4,70.4,0,0,1,6.49,6.9,17.77,17.77,0,0,0-4.8.27c-6.23,1.2-10.61,5.42-11.43,11l-.15,1,.51.91c2.29,4.06,7.37,6.57,12.81,6.57a17.87,17.87,0,0,0,3.25-.3,13.71,13.71,0,0,0,8.84-5.34,71.75,71.75,0,0,1,4.22,11.05,18.14,18.14,0,0,0-6.83-2.22c-6.59-.78-12.3,2-14.89,7.34l-.46.93.21,1c1.18,5.72,7.09,10.5,14.05,11.36a17.3,17.3,0,0,0,2.14.13,13.79,13.79,0,0,0,8.57-2.8,79.6,79.6,0,0,1,0,10.59,20.33,20.33,0,0,0-2.42-2.4c-5.57-4.65-12.45-5.49-18-2.19l-.89.54-.38,1c-2.33,5.92.24,13.81,6.11,18.75a15.86,15.86,0,0,0,10.24,4c.5,0,1,0,1.5-.09a73.7,73.7,0,0,1-4.46,10.58,22,22,0,0,0-2-4.76c-3.83-6.71-10.39-10.1-17.11-8.87l-1,.19-.69.78c-4.52,5-4.88,13.88-.86,21a16.58,16.58,0,0,0,10.07,8.22,76.28,76.28,0,0,1-9.14,8.33,23.31,23.31,0,0,0,.48-6c-.4-8.17-5-14.52-11.9-16.56l-1-.3-1,.38c-6.68,2.6-11.24,10.78-10.86,19.44.26,5.71,2.63,10.4,6.57,13.4-2.47,1.06-5,2-7.62,2.85A3,3,0,0,0,93.8,162.13ZM109.62,152c-5.7-2.23-6.58-7.83-6.69-10.23-.24-5.48,2.35-10.95,6-13,5.63,2.33,6.39,8.67,6.49,10.65C115.68,143.94,113.93,149.62,109.62,152ZM148,72.88c-2.17,3.32-5.77,3.44-7.83,3.18-3.84-.47-7.33-2.8-8.5-5.52,2.36-3.37,6.75-3.15,8.12-3C143,67.93,146.69,69.74,148,72.88ZM139.1,47.09c-1,3.44-4.1,4.54-6,4.89-3.49.66-7.19-.38-9-2.4,1.16-3.54,5-4.56,6.29-4.8C133.32,44.22,137.07,44.75,139.1,47.09ZM114.29,30.36c1.79-1.76,4.67-3.15,7.2-2.54a6.24,6.24,0,0,1-2,6.16c-2.17,2.1-5.23,3.13-7.48,2.63C111.28,33.61,113.52,31.11,114.29,30.36Zm11.43-9A6.23,6.23,0,0,1,122,16c-.4-3,.6-6.06,2.34-7.57C127.15,9.68,127.83,13,128,14,128.31,16.52,127.72,19.66,125.72,21.32Zm19.54,21.2c-2.77-2.26-2.58-5.54-2.17-7.4.75-3.46,3.15-6.46,5.71-7.34,2.81,2.45,2.24,6.41,2,7.66C150.16,38.32,148.21,41.57,145.26,42.52Zm11,29.72c-1.82-3.51-.16-6.71,1.07-8.38,2.3-3.11,6-5,9-4.69,1.78,3.7-.56,7.42-1.38,8.54C163.07,70.31,159.65,72.66,156.29,72.24Zm-20.84,58.25-.51.66c-5.21.41-8.15-3.26-9.47-5.6-2.46-4.36-2.63-9.86-.54-13.1,5.49-.35,8.71,4.46,9.6,6C136.48,121.88,137.41,126.81,135.45,130.49Zm12.92-28.22c0,.19-.09.38-.14.57-4.25,2-7.87-.23-9.73-1.79-3.44-2.9-5.34-7.46-4.65-10.85,4.49-1.94,8.69,1.1,9.94,2.14C146.52,94.62,148.89,98.52,148.37,102.27Zm7,2c0-5,3.77-7.44,6.1-8.49,4.33-2,9.53-1.65,12.42.58-.17,5.16-5,7.77-6.51,8.47C163.79,106.49,158.69,106.92,155.37,104.29ZM139.6,135.9c2.52-4.84,7.38-5.34,10.14-5.17,5.13.3,10,3.23,11.6,6.85-2.73,4.95-8.67,5-10.52,4.95C146.56,142.3,141.44,140.12,139.6,135.9Zm-27,23.18c4.74-3.87,10.05-1.89,12.19-.81,4.9,2.48,8.4,7.42,8.4,11.65-4.79,3.77-10.69,1.32-12.46.44C116.69,168.32,112.6,164,112.63,159.08Z"/></svg>