<svg id="Layer_1" data-name="Layer 1" xmlns="http://www.w3.org/2000/svg" viewBox="0 0 300 180"><defs><style>.cls-1,.cls-4{font-size:13px;}.cls-1,.cls-11,.cls-4,.cls-5{fill:#4b4b4b;}.cls-1{font-family:SegoeUI-Semilight, Segoe UI;font-weight:300;}.cls-2{letter-spacing:-0.02em;}.cls-3,.cls-4,.cls-5{font-family:SegoeUI-Bold, Segoe UI;font-weight:700;}.cls-5{font-size:9.04px;}.cls-6{letter-spacing:-0.03em;}.cls-7{letter-spacing:-0.04em;}.cls-8{letter-spacing:-0.07em;}.cls-9{letter-spacing:-0.07em;}.cls-10{fill:gray;}</style></defs><text class="cls-1" transform="translate(18.66 133.74)">BA<tspan class="cls-2" x="15.53" y="0">D</tspan><tspan x="24.16" y="0">AN </tspan><tspan class="cls-3" x="45.46" y="0">KESATUAN BANGSA, POLITIK, DAN</tspan></text><text class="cls-4" transform="translate(50.72 149.34)">PEMBERDAYAAN MASYARAKAT</text><text class="cls-5" transform="translate(98.27 162.66)"><tspan class="cls-6">K</tspan><tspan class="cls-7" x="5.62" y="0">O</tspan><tspan class="cls-8" x="12.11" y="0">T</tspan><tspan x="16.79" y="0">A </tspan><tspan class="cls-9" x="25.64" y="0">T</tspan><tspan x="30.32" y="0">ANJUNGPINANG</tspan></text><path class="cls-10" d="M130.65,102.93c-2.72,1.37-4.66,4.12-4.66,6.47,2.66,2.09,5.94.73,6.92.24,2.26-1.13,4.54-3.52,4.52-6.26A6.15,6.15,0,0,0,130.65,102.93Z"/><path class="cls-10" d="M116.21,94.18c2.37-.13,5.21-1.33,6.23-3.68a5.62,5.62,0,0,0-5.63-2.87c-2.85.17-5.54,1.79-6.44,3.8C111.88,94.19,115.18,94.24,116.21,94.18Z"/><path class="cls-10" d="M107,73.25c2,.91,4.83,1.15,6.67-.31a5.22,5.22,0,0,0-3.39-4.72c-2.4-1.08-5.29-.92-6.9.32C103.49,71.41,106.15,72.86,107,73.25Z"/><path class="cls-10" d="M139.46,86.53c-3.13,1.29-3.55,4.81-3.6,5.91-.13,2.53.84,5.68,3.24,7a6.11,6.11,0,0,0,3.71-5.68C143,90.72,141.51,87.68,139.46,86.53Z"/><path class="cls-10" d="M130.29,84.75c1.37-2.42,1.47-5.48.31-7.28-3.06-.19-4.84,2.48-5.34,3.35-1.15,2-1.66,5-.29,7A5.5,5.5,0,0,0,130.29,84.75Z"/><path class="cls-10" d="M125.64,65.11c-2.5-1.08-4.83.61-5.52,1.19-1.6,1.33-3,3.65-2.5,5.82a5,5,0,0,0,5.43-1C125,69.53,126,67,125.64,65.11Z"/><path class="cls-10" d="M122.35,52.53c-1.77.21-3.84,1.22-4.56,3a4.34,4.34,0,0,0,4.35,1.77,6,6,0,0,0,4.72-3.07C125.55,52.32,123.11,52.44,122.35,52.53Z"/><path class="cls-10" d="M127.54,39.88a5.25,5.25,0,0,0-4.82,1.28A4,4,0,0,0,126,43.88a5.59,5.59,0,0,0,5-1.34C130.39,40.58,128.24,40,127.54,39.88Z"/><path class="cls-10" d="M136.51,31.86a4.63,4.63,0,0,0-4-1.4,3.47,3.47,0,0,0,1.12,3.42,4.94,4.94,0,0,0,4.15,1.46A3.9,3.9,0,0,0,136.51,31.86Z"/><path class="cls-10" d="M128.9,22.79a4.6,4.6,0,0,0,1.26,4.05,3.47,3.47,0,0,0,2.08-2.94,5,5,0,0,0-1.31-4.2A3.92,3.92,0,0,0,128.9,22.79Z"/><path class="cls-10" d="M117.33,30.43c-1.56,1.36-1.24,3.57-1.1,4.26a5.26,5.26,0,0,0,3.07,3.93,4,4,0,0,0,1.21-4.11A5.61,5.61,0,0,0,117.33,30.43Z"/><path class="cls-10" d="M108.35,52.62c1.05,1.44,3,2.75,4.82,2.52a4.35,4.35,0,0,0-.59-4.66,6,6,0,0,0-5-2.61C106.6,49.93,107.9,52,108.35,52.62Z"/><path class="cls-11" d="M146.79,102.94c-1.45-.46-2.86-1-4.23-1.58a9.58,9.58,0,0,0,3.64-7.44c.22-4.82-2.32-9.36-6-10.8l-.54-.21-.55.16c-3.86,1.14-6.39,4.66-6.61,9.2a13.09,13.09,0,0,0,.26,3.34A42.08,42.08,0,0,1,127.66,91a9.23,9.23,0,0,0,5.59-4.56c2.23-4,2-8.87-.48-11.67l-.38-.43-.57-.11c-3.74-.68-7.38,1.2-9.51,4.93a12.17,12.17,0,0,0-1.12,2.65,40.69,40.69,0,0,1-2.47-5.89,7.55,7.55,0,0,0,.83,0,8.78,8.78,0,0,0,5.69-2.22c3.26-2.74,4.69-7.12,3.39-10.41l-.21-.54-.49-.3c-3.07-1.83-6.89-1.37-10,1.21A12.11,12.11,0,0,0,116.6,65a42.86,42.86,0,0,1,0-5.89,7.64,7.64,0,0,0,4.76,1.56,9.73,9.73,0,0,0,1.19-.07c3.86-.48,7.14-3.13,7.8-6.31l.12-.57-.26-.52c-1.44-2.95-4.61-4.51-8.27-4.07a9.89,9.89,0,0,0-3.8,1.23,39.12,39.12,0,0,1,2.35-6.14,7.55,7.55,0,0,0,4.91,3,9.24,9.24,0,0,0,1.81.17,8.1,8.1,0,0,0,7.11-3.64l.29-.51-.09-.57c-.45-3.11-2.89-5.45-6.35-6.12a10,10,0,0,0-2.66-.15,39.42,39.42,0,0,1,3.6-3.83,7.31,7.31,0,0,0,2.15,3.76,8.61,8.61,0,0,0,5.86,2.47,6.11,6.11,0,0,0,2.76-.63l.51-.27.25-.52a6.87,6.87,0,0,0-1.77-7.93,8.87,8.87,0,0,0-3-1.93c1-.62,2.09-1.2,3.19-1.73a1.7,1.7,0,0,0-1.47-3.06c-.67.33-1.32.67-2,1,.2-3.17-1.31-6.22-3.72-7.41l-.52-.26-.56.12a6.88,6.88,0,0,0-5.32,6.14,7.93,7.93,0,0,0,2.2,6.9,43,43,0,0,0-4,4.05c-.93-3.38-3.61-6-6.55-6.35l-.57-.07-.5.31c-2.68,1.63-3.89,4.78-3.15,8.22a8.55,8.55,0,0,0,5,6.35,42.54,42.54,0,0,0-2.73,6.61C112.9,45.3,109,43.78,106,44.76l-.55.17-.33.48c-1.86,2.7-1.66,6.23.51,9.21a9.06,9.06,0,0,0,7.13,3.93,4.35,4.35,0,0,0,.51,0,46.83,46.83,0,0,0,0,7c0,.16,0,.31,0,.47a10,10,0,0,0-1.58-.88c-4-1.81-8.73-1.18-11.21,1.49l-.39.43-.06.57c-.33,3.66,1.8,7,5.58,8.72a11.25,11.25,0,0,0,4.7,1A9.06,9.06,0,0,0,115.18,76a44.92,44.92,0,0,0,3.5,8.28,11.74,11.74,0,0,0-2.07-.07c-4.62.27-8.7,3.15-9.71,6.84l-.15.56.22.54c1.39,3.38,4.71,5.41,8.76,5.41l.67,0A10.75,10.75,0,0,0,124.91,93a45.56,45.56,0,0,0,6.65,6,11.52,11.52,0,0,0-2.44.91c-4.3,2.18-7,6.62-6.45,10.56l.08.57.41.41a8.88,8.88,0,0,0,6.33,2.49,11.4,11.4,0,0,0,4.94-1.25,11.06,11.06,0,0,0,6.33-8.39,48.11,48.11,0,0,0,5,1.88,1.52,1.52,0,0,0,.51.09,1.7,1.7,0,0,0,.52-3.32Zm-10.93-10.5c0-1.1.47-4.62,3.6-5.91,2,1.15,3.49,4.19,3.35,7.24a6.11,6.11,0,0,1-3.71,5.68C136.7,98.12,135.73,95,135.86,92.44ZM122.35,52.53c.76-.09,3.2-.21,4.51,1.66a6,6,0,0,1-4.72,3.07,4.34,4.34,0,0,1-4.35-1.77C118.51,53.75,120.58,52.74,122.35,52.53Zm5.19-12.65c.7.13,2.85.7,3.49,2.66a5.59,5.59,0,0,1-5,1.34,4,4,0,0,1-3.32-2.72A5.25,5.25,0,0,1,127.54,39.88Zm10.24-4.54a4.94,4.94,0,0,1-4.15-1.46,3.47,3.47,0,0,1-1.12-3.42,4.63,4.63,0,0,1,4,1.4A3.9,3.9,0,0,1,137.78,35.34ZM128.9,22.79a3.92,3.92,0,0,1,2-3.09,5,5,0,0,1,1.31,4.2,3.47,3.47,0,0,1-2.08,2.94A4.6,4.6,0,0,1,128.9,22.79Zm-12.67,11.9c-.14-.69-.46-2.9,1.1-4.26a5.61,5.61,0,0,1,3.18,4.08,4,4,0,0,1-1.21,4.11A5.26,5.26,0,0,1,116.23,34.69Zm-7.88,17.93c-.45-.62-1.75-2.69-.77-4.75a6,6,0,0,1,5,2.61,4.35,4.35,0,0,1,.59,4.66C111.3,55.37,109.4,54.06,108.35,52.62Zm16.91,28.2c.5-.87,2.28-3.54,5.34-3.35,1.16,1.8,1.06,4.86-.31,7.28A5.51,5.51,0,0,1,125,87.86l-.29-.36C123.66,85.45,124.18,82.71,125.26,80.82ZM120.12,66.3c.69-.58,3-2.27,5.52-1.19.38,1.89-.67,4.42-2.59,6a5,5,0,0,1-5.4,1c0-.11-.05-.22-.08-.32A6.6,6.6,0,0,1,120.12,66.3Zm-13.11,7c-.86-.39-3.52-1.84-3.62-4.71,1.61-1.24,4.5-1.4,6.9-.32a5.22,5.22,0,0,1,3.39,4.72C111.84,74.4,109,74.16,107,73.25Zm9.2,20.93c-1,.06-4.33,0-5.84-2.75.9-2,3.59-3.63,6.44-3.8a5.62,5.62,0,0,1,5.63,2.87C121.42,92.85,118.58,94.05,116.21,94.18Zm16.7,15.46c-1,.49-4.26,1.85-6.92-.24,0-2.35,1.94-5.1,4.66-6.47a6.15,6.15,0,0,1,6.78.45C137.45,106.12,135.17,108.51,132.91,109.64Z"/><path class="cls-10" d="M169.35,102.93c2.72,1.37,4.66,4.12,4.66,6.47-2.66,2.09-5.94.73-6.92.24-2.26-1.13-4.54-3.52-4.52-6.26A6.15,6.15,0,0,1,169.35,102.93Z"/><path class="cls-10" d="M183.79,94.18c-2.37-.13-5.21-1.33-6.23-3.68a5.62,5.62,0,0,1,5.63-2.87c2.85.17,5.54,1.79,6.44,3.8C188.12,94.19,184.82,94.24,183.79,94.18Z"/><path class="cls-10" d="M193,73.25c-2,.91-4.83,1.15-6.67-.31a5.22,5.22,0,0,1,3.39-4.72c2.4-1.08,5.29-.92,6.9.32C196.51,71.41,193.85,72.86,193,73.25Z"/><path class="cls-10" d="M160.54,86.53c3.13,1.29,3.55,4.81,3.6,5.91.13,2.53-.84,5.68-3.24,7a6.11,6.11,0,0,1-3.71-5.68C157.05,90.72,158.49,87.68,160.54,86.53Z"/><path class="cls-10" d="M169.71,84.75c-1.37-2.42-1.47-5.48-.31-7.28,3.06-.19,4.84,2.48,5.34,3.35,1.15,2,1.66,5,.29,7A5.5,5.5,0,0,1,169.71,84.75Z"/><path class="cls-10" d="M174.36,65.11c2.5-1.08,4.83.61,5.52,1.19,1.6,1.33,3,3.65,2.5,5.82a5,5,0,0,1-5.43-1C175,69.53,174,67,174.36,65.11Z"/><path class="cls-10" d="M177.65,52.53c1.77.21,3.84,1.22,4.56,3a4.34,4.34,0,0,1-4.35,1.77,6,6,0,0,1-4.72-3.07C174.45,52.32,176.89,52.44,177.65,52.53Z"/><path class="cls-10" d="M172.46,39.88a5.25,5.25,0,0,1,4.82,1.28A4,4,0,0,1,174,43.88a5.59,5.59,0,0,1-5-1.34C169.61,40.58,171.76,40,172.46,39.88Z"/><path class="cls-10" d="M163.49,31.86a4.63,4.63,0,0,1,4-1.4,3.47,3.47,0,0,1-1.12,3.42,4.94,4.94,0,0,1-4.15,1.46A3.9,3.9,0,0,1,163.49,31.86Z"/><path class="cls-10" d="M171.1,22.79a4.6,4.6,0,0,1-1.26,4.05,3.47,3.47,0,0,1-2.08-2.94,5,5,0,0,1,1.31-4.2A3.92,3.92,0,0,1,171.1,22.79Z"/><path class="cls-10" d="M182.67,30.43c1.56,1.36,1.24,3.57,1.1,4.26a5.26,5.26,0,0,1-3.07,3.93,4,4,0,0,1-1.21-4.11A5.61,5.61,0,0,1,182.67,30.43Z"/><path class="cls-10" d="M191.65,52.62c-1.05,1.44-3,2.75-4.82,2.52a4.35,4.35,0,0,1,.59-4.66,6,6,0,0,1,5-2.61C193.4,49.93,192.1,52,191.65,52.62Z"/><path class="cls-11" d="M152.11,105.07a1.71,1.71,0,0,0,1.62,1.19,1.52,1.52,0,0,0,.51-.09,48.11,48.11,0,0,0,5-1.88,11.06,11.06,0,0,0,6.33,8.39,11.4,11.4,0,0,0,4.94,1.25,8.88,8.88,0,0,0,6.33-2.49l.41-.41.08-.57c.57-3.94-2.15-8.38-6.45-10.56a11.52,11.52,0,0,0-2.44-.91,45.56,45.56,0,0,0,6.65-6,10.75,10.75,0,0,0,8.51,4.54l.67,0c4,0,7.37-2,8.76-5.41l.22-.54-.15-.56c-1-3.69-5.09-6.57-9.71-6.84a11.74,11.74,0,0,0-2.07.07,44.92,44.92,0,0,0,3.5-8.28,9.06,9.06,0,0,0,4.87,1.36,11.25,11.25,0,0,0,4.7-1c3.78-1.72,5.91-5.06,5.58-8.72l-.06-.57-.39-.43c-2.48-2.67-7.2-3.3-11.21-1.49a10,10,0,0,0-1.58.88c0-.16,0-.31,0-.47a46.83,46.83,0,0,0,0-7,4.35,4.35,0,0,0,.51,0,9.06,9.06,0,0,0,7.13-3.93c2.17-3,2.37-6.51.51-9.21l-.33-.48-.55-.17c-3.06-1-6.92.54-9.24,3.59a42.54,42.54,0,0,0-2.73-6.61,8.55,8.55,0,0,0,5-6.35c.74-3.44-.47-6.59-3.15-8.22l-.5-.31-.57.07c-2.94.33-5.62,3-6.55,6.35a43,43,0,0,0-4.05-4.05,7.93,7.93,0,0,0,2.2-6.9,6.88,6.88,0,0,0-5.32-6.14l-.56-.12-.52.26c-2.41,1.19-3.92,4.24-3.72,7.41-.64-.35-1.29-.69-2-1a1.7,1.7,0,0,0-1.47,3.06c1.1.53,2.16,1.11,3.19,1.73a8.87,8.87,0,0,0-3,1.93,6.87,6.87,0,0,0-1.77,7.93l.25.52.51.27a6.11,6.11,0,0,0,2.76.63,8.61,8.61,0,0,0,5.86-2.47,7.31,7.31,0,0,0,2.15-3.76,39.42,39.42,0,0,1,3.6,3.83,10,10,0,0,0-2.66.15c-3.46.67-5.9,3-6.35,6.12l-.09.57.29.51a8.1,8.1,0,0,0,7.11,3.64,9.24,9.24,0,0,0,1.81-.17,7.55,7.55,0,0,0,4.91-3,39.12,39.12,0,0,1,2.35,6.14,9.89,9.89,0,0,0-3.8-1.23c-3.66-.44-6.83,1.12-8.27,4.07l-.26.52.12.57c.66,3.18,3.94,5.83,7.8,6.31a9.73,9.73,0,0,0,1.19.07,7.64,7.64,0,0,0,4.76-1.56,42.86,42.86,0,0,1,0,5.89,12.11,12.11,0,0,0-1.34-1.34c-3.1-2.58-6.92-3-10-1.21l-.49.3-.21.54c-1.3,3.29.13,7.67,3.39,10.41A8.78,8.78,0,0,0,180.45,76a7.55,7.55,0,0,0,.83,0,40.69,40.69,0,0,1-2.47,5.89,12.17,12.17,0,0,0-1.12-2.65c-2.13-3.73-5.77-5.61-9.51-4.93l-.57.11-.38.43c-2.51,2.8-2.71,7.71-.48,11.67A9.23,9.23,0,0,0,172.34,91a42.08,42.08,0,0,1-5.07,4.63,13.09,13.09,0,0,0,.26-3.34c-.22-4.54-2.75-8.06-6.61-9.2l-.55-.16-.54.21c-3.71,1.44-6.25,6-6,10.8a9.58,9.58,0,0,0,3.64,7.44c-1.37.59-2.78,1.12-4.23,1.58A1.7,1.7,0,0,0,152.11,105.07Zm8.79-5.62a6.11,6.11,0,0,1-3.71-5.68c-.14-3,1.3-6.09,3.35-7.24,3.13,1.29,3.55,4.81,3.6,5.91C164.27,95,163.3,98.12,160.9,99.45Zm21.31-44a4.34,4.34,0,0,1-4.35,1.77,6,6,0,0,1-4.72-3.07c1.31-1.87,3.75-1.75,4.51-1.66C179.42,52.74,181.49,53.75,182.21,55.49Zm-4.93-14.33A4,4,0,0,1,174,43.88a5.59,5.59,0,0,1-5-1.34c.64-2,2.79-2.53,3.49-2.66A5.25,5.25,0,0,1,177.28,41.16Zm-13.79-9.3a4.63,4.63,0,0,1,4-1.4,3.47,3.47,0,0,1-1.12,3.42,4.94,4.94,0,0,1-4.15,1.46A3.9,3.9,0,0,1,163.49,31.86Zm6.35-5a3.47,3.47,0,0,1-2.08-2.94,5,5,0,0,1,1.31-4.2,3.92,3.92,0,0,1,2,3.09A4.6,4.6,0,0,1,169.84,26.84ZM180.7,38.62a4,4,0,0,1-1.21-4.11,5.61,5.61,0,0,1,3.18-4.08c1.56,1.36,1.24,3.57,1.1,4.26A5.26,5.26,0,0,1,180.7,38.62Zm6.13,16.52a4.35,4.35,0,0,1,.59-4.66,6,6,0,0,1,5-2.61c1,2.06-.32,4.13-.77,4.75C190.6,54.06,188.7,55.37,186.83,55.14ZM175.25,87.5l-.29.36a5.51,5.51,0,0,1-5.25-3.11c-1.37-2.42-1.47-5.48-.31-7.28,3.06-.19,4.84,2.48,5.34,3.35C175.82,82.71,176.34,85.45,175.25,87.5Zm7.18-15.68c0,.1-.05.21-.08.32a5,5,0,0,1-5.4-1c-1.92-1.61-3-4.14-2.59-6,2.5-1.08,4.83.61,5.52,1.19A6.6,6.6,0,0,1,182.43,71.82Zm3.89,1.12a5.22,5.22,0,0,1,3.39-4.72c2.4-1.08,5.29-.92,6.9.32-.1,2.87-2.76,4.32-3.62,4.71C191,74.16,188.16,74.4,186.32,72.94ZM177.56,90.5a5.62,5.62,0,0,1,5.63-2.87c2.85.17,5.54,1.79,6.44,3.8-1.51,2.76-4.81,2.81-5.84,2.75C181.42,94.05,178.58,92.85,177.56,90.5Zm-15,12.88a6.15,6.15,0,0,1,6.78-.45c2.72,1.37,4.66,4.12,4.66,6.47-2.66,2.09-5.94.73-6.92.24C164.83,108.51,162.55,106.12,162.57,103.38Z"/></svg>