<svg id="Layer_1" data-name="Layer 1" xmlns="http://www.w3.org/2000/svg" viewBox="0 0 180 180"><defs><style>.cls-1{fill:#b3b3b3;}.cls-2{fill:#bfc1c2;}.cls-3{fill:#fff;}.cls-4{fill:#d4d5d6;}</style></defs><rect class="cls-1" x="11.51" y="58.6" width="30.35" height="108.84"/><rect class="cls-1" x="138.14" y="58.6" width="30.35" height="108.84"/><rect class="cls-2" x="41.86" y="11.51" width="96.28" height="155.93"/><polygon class="cls-3" points="107.79 35.58 95.76 35.58 95.76 23.55 84.24 23.55 84.24 35.58 72.21 35.58 72.21 47.09 84.24 47.09 84.24 59.13 95.76 59.13 95.76 47.09 107.79 47.09 107.79 35.58"/><rect class="cls-3" x="72.21" y="72.21" width="11.51" height="35.58"/><rect class="cls-3" x="96.28" y="72.21" width="11.51" height="35.58"/><rect class="cls-3" x="120.35" y="72.21" width="11.51" height="35.58"/><rect class="cls-3" x="144.42" y="72.21" width="11.51" height="35.58"/><rect class="cls-3" x="48.14" y="72.21" width="11.51" height="35.58"/><rect class="cls-3" x="24.07" y="72.21" width="11.51" height="35.58"/><rect class="cls-3" x="120.35" y="119.3" width="11.51" height="30.35"/><rect class="cls-3" x="144.42" y="119.3" width="11.51" height="30.35"/><rect class="cls-3" x="48.14" y="119.3" width="11.51" height="30.35"/><rect class="cls-3" x="24.07" y="119.3" width="11.51" height="30.35"/><rect class="cls-4" x="65.93" y="119.3" width="48.14" height="6.28"/><rect class="cls-3" x="72.21" y="125.58" width="35.58" height="41.86"/><rect class="cls-4" y="167.44" width="180" height="12.56"/><polygon class="cls-4" points="138.14 47.09 138.14 58.6 168.49 58.6 174.77 47.09 138.14 47.09"/><polygon class="cls-4" points="41.86 47.09 5.23 47.09 11.51 58.6 41.86 58.6 41.86 47.09"/><polygon class="cls-4" points="144.42 0 35.58 0 41.86 11.51 138.14 11.51 144.42 0"/></svg>