<svg id="Layer_1" data-name="Layer 1" xmlns="http://www.w3.org/2000/svg" viewBox="0 0 300 180"><defs><style>.cls-1{font-size:9.04px;}.cls-1,.cls-6,.cls-9{fill:#bfc1c2;}.cls-1,.cls-7{font-family:SegoeUI-Bold, Segoe UI;font-weight:700;}.cls-2{letter-spacing:-0.03em;}.cls-3{letter-spacing:-0.04em;}.cls-4{letter-spacing:-0.07em;}.cls-5{letter-spacing:-0.07em;}.cls-6{font-size:14px;font-family:SegoeUI-Semilight, Segoe UI;font-weight:300;}.cls-8{fill:#b3b3b3;}.cls-10{fill:#fff;}.cls-11{fill:#d4d5d6;}</style></defs><text class="cls-1" transform="translate(98.27 162.66)"><tspan class="cls-2">K</tspan><tspan class="cls-3" x="5.62" y="0">O</tspan><tspan class="cls-4" x="12.11" y="0">T</tspan><tspan x="16.79" y="0">A </tspan><tspan class="cls-5" x="25.64" y="0">T</tspan><tspan x="30.32" y="0">ANJUNGPINANG</tspan></text><text class="cls-6" transform="translate(48.25 149.74)">RUMAH <tspan class="cls-7" x="51.98" y="0">SAKIT UMUM DAERAH</tspan></text><rect class="cls-8" x="102.03" y="53.81" width="18.55" height="66.51"/><rect class="cls-8" x="179.42" y="53.81" width="18.55" height="66.51"/><rect class="cls-9" x="120.58" y="25.03" width="58.84" height="95.29"/><polygon class="cls-10" points="160.87 39.74 153.52 39.74 153.52 32.39 146.48 32.39 146.48 39.74 139.13 39.74 139.13 46.78 146.48 46.78 146.48 54.13 153.52 54.13 153.52 46.78 160.87 46.78 160.87 39.74"/><rect class="cls-10" x="139.13" y="62.13" width="7.03" height="21.74"/><rect class="cls-10" x="153.84" y="62.13" width="7.03" height="21.74"/><rect class="cls-10" x="168.55" y="62.13" width="7.03" height="21.74"/><rect class="cls-10" x="183.26" y="62.13" width="7.03" height="21.74"/><rect class="cls-10" x="124.42" y="62.13" width="7.03" height="21.74"/><rect class="cls-10" x="109.71" y="62.13" width="7.03" height="21.74"/><rect class="cls-10" x="168.55" y="90.91" width="7.03" height="18.55"/><rect class="cls-10" x="183.26" y="90.91" width="7.03" height="18.55"/><rect class="cls-10" x="124.42" y="90.91" width="7.03" height="18.55"/><rect class="cls-10" x="109.71" y="90.91" width="7.03" height="18.55"/><rect class="cls-11" x="135.29" y="90.91" width="29.42" height="3.84"/><rect class="cls-10" x="139.13" y="94.74" width="21.74" height="25.58"/><rect class="cls-11" x="95" y="120.33" width="110" height="7.67"/><polygon class="cls-11" points="179.42 46.78 179.42 53.81 197.97 53.81 201.8 46.78 179.42 46.78"/><polygon class="cls-11" points="120.58 46.78 98.2 46.78 102.03 53.81 120.58 53.81 120.58 46.78"/><polygon class="cls-11" points="183.26 18 116.74 18 120.58 25.04 179.42 25.04 183.26 18"/></svg>