<svg id="Layer_1" data-name="Layer 1" xmlns="http://www.w3.org/2000/svg" viewBox="0 0 180 180"><defs><style>.cls-1{fill:gray;}.cls-2{fill:#4b4b4b;}.cls-3{fill:#fff;}</style></defs><circle class="cls-1" cx="90" cy="86.82" r="51.58"/><path class="cls-2" d="M169.19,97.24c-8.83-23.07-20.54-36.65,2.44-62.29L137.27,0c-14,11-29.92,9.77-47.25,0V0h0V0C72.65,9.77,56.69,11,42.73,0L8.37,35c23,25.64,11.27,39.22,2.44,62.29-13.74,35.91,25.57,57.4,31.63,57.51C61.13,155.09,89,179.12,90,180v0l0,0,0,0v0c1-.84,28.85-24.87,47.54-25.21C143.62,154.64,182.93,133.15,169.19,97.24ZM90,143.09a56.27,56.27,0,1,1,56.27-56.27A56.27,56.27,0,0,1,90,143.09Z"/><path class="cls-3" d="M67.25,92.7V107H57.43V63.37H72.82q8.25,0,12.37,3.56t4.12,10.71a13.8,13.8,0,0,1-4.73,10.9Q79.86,92.7,71.94,92.7Zm0-21.79V85.24h3.87c2.61,0,4.58-.6,5.88-1.81A7,7,0,0,0,79,78a6.78,6.78,0,0,0-2-5.32c-1.3-1.18-3.27-1.77-5.88-1.77Z"/><path class="cls-3" d="M100.52,92.7V107H90.69V63.37h15.39q8.25,0,12.37,3.56t4.12,10.71a13.77,13.77,0,0,1-4.73,10.9q-4.73,4.15-12.64,4.16Zm0-21.79V85.24h3.86q3.93,0,5.89-1.81a7,7,0,0,0,2-5.43,6.78,6.78,0,0,0-2-5.32q-2-1.77-5.89-1.77Z"/></svg>