<svg id="Layer_1" data-name="Layer 1" xmlns="http://www.w3.org/2000/svg" viewBox="0 0 300 180"><defs><style>.cls-1{fill:#bfc1c2;}.cls-2{fill:#d9dadb;}.cls-3{fill:#c4c6c7;}.cls-4{fill:#fff;}</style></defs><path class="cls-1" d="M59.24,148.7l.48-.74a4,4,0,0,0,1,.48,3.92,3.92,0,0,0,1.2.16,2.09,2.09,0,0,0,1.26-.36,1.23,1.23,0,0,0,.5-1.06,1.24,1.24,0,0,0-.42-1,4.38,4.38,0,0,0-1.37-.71,5.17,5.17,0,0,1-1.76-1,1.85,1.85,0,0,1-.57-1.41,2.1,2.1,0,0,1,.74-1.67,2.86,2.86,0,0,1,2-.64,5.08,5.08,0,0,1,1.1.12,5.27,5.27,0,0,1,1.11.39l-.37.79a4.11,4.11,0,0,0-.93-.32,4.34,4.34,0,0,0-1-.1A1.86,1.86,0,0,0,61,142a1.2,1.2,0,0,0-.44,1,1.08,1.08,0,0,0,.41.88,4.91,4.91,0,0,0,1.35.67,4.68,4.68,0,0,1,1.81,1,2.06,2.06,0,0,1,.55,1.52,2.23,2.23,0,0,1-.73,1.7,3,3,0,0,1-2.08.68,4.65,4.65,0,0,1-1.38-.19A4.77,4.77,0,0,1,59.24,148.7Z"/><path class="cls-1" d="M65.37,149.34l3.22-8.4h1l3.23,8.4H71.75l-.85-2.25H67.27l-.81,2.25Zm2.22-3.13h3l-1.36-3.69a1.84,1.84,0,0,1-.06-.23c0-.09,0-.2-.07-.33h0c0,.12,0,.22-.06.31s-.05.18-.07.25Z"/><path class="cls-1" d="M78.18,141.83H75.75v7.51h-1v-7.51H72.35v-.89h5.83Z"/><path class="cls-1" d="M85.65,145.94a3.88,3.88,0,0,1-.79,2.66,3.08,3.08,0,0,1-2.4.88,2.93,2.93,0,0,1-2.3-.85,3.75,3.75,0,0,1-.76-2.55v-5.14h1V146a3,3,0,0,0,.55,1.94,2,2,0,0,0,1.63.65,1.93,1.93,0,0,0,1.58-.63,2.84,2.84,0,0,0,.53-1.87v-5.16h1Z"/><path class="cls-1" d="M86.48,149.34l3.23-8.4h1l3.23,8.4H92.87L92,147.09H88.38l-.8,2.25Zm2.23-3.13h3l-1.36-3.69a.94.94,0,0,1-.06-.23c0-.09,0-.2-.07-.33h0c0,.12,0,.22-.06.31a2.5,2.5,0,0,1-.08.25Z"/><path class="cls-1" d="M102,149.34h-1.21l-4.32-6.7a1.35,1.35,0,0,1-.15-.26l-.12-.26h0a3,3,0,0,1,0,.42c0,.19,0,.43,0,.73v6.07h-1v-8.4h1.27l4.21,6.59.22.35a1.28,1.28,0,0,1,.12.21h0c0-.12,0-.28,0-.49s0-.45,0-.74v-5.92h1Z"/><path class="cls-1" d="M109.21,146.59v2.75h-1.89v-8.4h3a3.61,3.61,0,0,1,2.38.68,2.59,2.59,0,0,1,.79,2.07,2.67,2.67,0,0,1-.91,2.1,3.58,3.58,0,0,1-2.43.8Zm0-4.2v2.76H110a1.58,1.58,0,0,0,1.13-.35,1.35,1.35,0,0,0,.38-1,1.33,1.33,0,0,0-.38-1,1.62,1.62,0,0,0-1.13-.34Z"/><path class="cls-1" d="M118.24,149.49a3.9,3.9,0,0,1-2.94-1.18,4.2,4.2,0,0,1-1.14-3.06,4.51,4.51,0,0,1,1.16-3.22,4,4,0,0,1,3.06-1.23,3.8,3.8,0,0,1,2.91,1.18,4.33,4.33,0,0,1,1.11,3.1,4.46,4.46,0,0,1-1.15,3.19A4,4,0,0,1,118.24,149.49Zm0-1.64a1.89,1.89,0,0,0,1.55-.7,3,3,0,0,0,.57-2,3.32,3.32,0,0,0-.55-2,1.82,1.82,0,0,0-1.53-.72,1.92,1.92,0,0,0-1.58.74,3.13,3.13,0,0,0-.58,2,3.09,3.09,0,0,0,.58,2A1.88,1.88,0,0,0,118.28,147.85Z"/><path class="cls-1" d="M128.79,149.34h-5v-8.4h1.89v6.87h3.11Z"/><path class="cls-1" d="M131.82,149.34h-1.89v-8.4h1.89Z"/><path class="cls-1" d="M133,148.78l.79-1.47a4.92,4.92,0,0,0,1.1.51,3.46,3.46,0,0,0,1,.13,1.53,1.53,0,0,0,1-.26.87.87,0,0,0,.32-.71.84.84,0,0,0-.26-.67,2.28,2.28,0,0,0-.94-.39A4.41,4.41,0,0,1,134,145a2.11,2.11,0,0,1-.64-1.65,2.38,2.38,0,0,1,.83-1.82,3.36,3.36,0,0,1,2.31-.74,5.29,5.29,0,0,1,2.36.55l-.71,1.49a4.35,4.35,0,0,0-.92-.39,2.92,2.92,0,0,0-.79-.12,1.52,1.52,0,0,0-.89.23.71.71,0,0,0-.31.63.66.66,0,0,0,.29.59,3.17,3.17,0,0,0,1,.38,3.89,3.89,0,0,1,2,.92,2.35,2.35,0,0,1,.61,1.74,2.45,2.45,0,0,1-.84,1.93,3.59,3.59,0,0,1-2.44.74,5.86,5.86,0,0,1-1.46-.19A4.81,4.81,0,0,1,133,148.78Z"/><path class="cls-1" d="M142.35,149.34h-1.89v-8.4h1.89Z"/><path class="cls-1" d="M149.46,146.59v2.75h-1.89v-8.4h3a3.58,3.58,0,0,1,2.38.68,2.6,2.6,0,0,1,.8,2.07,2.67,2.67,0,0,1-.91,2.1,3.59,3.59,0,0,1-2.44.8Zm0-4.2v2.76h.75a1.58,1.58,0,0,0,1.13-.35,1.35,1.35,0,0,0,.38-1,1.33,1.33,0,0,0-.38-1,1.62,1.62,0,0,0-1.13-.34Z"/><path class="cls-1" d="M153.33,149.34l3.06-8.4h2.24l3,8.4h-2.06l-.57-1.75h-3.05l-.56,1.75Zm3-3.23h2.2l-.93-2.92-.08-.29c0-.09,0-.19-.06-.32h0a1.67,1.67,0,0,1-.07.3c0,.09-.05.19-.08.29Z"/><path class="cls-1" d="M172.24,149.34h-1.87v-5c0-.27,0-.55,0-.85s0-.62.05-1h0c-.05.26-.1.48-.14.67a2.5,2.5,0,0,1-.13.45l-2,5.71h-1.54l-2-5.65c0-.08-.06-.22-.1-.41s-.1-.45-.16-.77h0q0,.63.06,1.17c0,.36,0,.7,0,1v4.65h-1.7v-8.4h2.77l1.72,5c.07.18.12.37.17.55s.09.37.13.56h0c0-.21.11-.41.16-.6l.17-.52,1.72-5h2.7Z"/><path class="cls-1" d="M177.7,149.49a3.9,3.9,0,0,1-2.94-1.18,4.2,4.2,0,0,1-1.14-3.06,4.51,4.51,0,0,1,1.16-3.22,4,4,0,0,1,3.06-1.23,3.8,3.8,0,0,1,2.91,1.18,4.33,4.33,0,0,1,1.11,3.1,4.46,4.46,0,0,1-1.15,3.19A4,4,0,0,1,177.7,149.49Zm0-1.64a1.89,1.89,0,0,0,1.55-.7,3.05,3.05,0,0,0,.58-2,3.32,3.32,0,0,0-.56-2,1.82,1.82,0,0,0-1.52-.72,1.93,1.93,0,0,0-1.59.74,3.13,3.13,0,0,0-.58,2,3.09,3.09,0,0,0,.58,2A1.9,1.9,0,0,0,177.74,147.85Z"/><path class="cls-1" d="M190.81,149.34H188.9l-3.46-5.28-.26-.41a1.77,1.77,0,0,1-.16-.29h0c0,.15,0,.34,0,.57s0,.49,0,.79v4.62h-1.79v-8.4h2l3.33,5.11.22.35c.08.11.14.23.21.34h0a2.36,2.36,0,0,1,0-.44c0-.19,0-.43,0-.72v-4.64h1.79Z"/><path class="cls-1" d="M199.63,148.71a5.11,5.11,0,0,1-1.36.57,6.43,6.43,0,0,1-1.7.21,4.62,4.62,0,0,1-3.18-1.05,4,4,0,0,1-1.18-3.17,4.47,4.47,0,0,1,1.2-3.19,4.33,4.33,0,0,1,3.34-1.28,7.66,7.66,0,0,1,1.47.13,7.75,7.75,0,0,1,1.41.43l-.59,1.47a6,6,0,0,0-1.13-.34,6.09,6.09,0,0,0-1.16-.11,2.49,2.49,0,0,0-1.87.71,2.93,2.93,0,0,0-.68,2.1,2.7,2.7,0,0,0,.68,2.05,2.45,2.45,0,0,0,1.78.66,3.76,3.76,0,0,0,.61-.05,2,2,0,0,0,.47-.13v-1.65h-1.69v-1.52h3.58Z"/><path class="cls-1" d="M206.47,146.59v2.75h-1.9v-8.4h3a3.59,3.59,0,0,1,2.38.68,2.59,2.59,0,0,1,.79,2.07,2.67,2.67,0,0,1-.91,2.1,3.56,3.56,0,0,1-2.43.8Zm0-4.2v2.76h.74a1.58,1.58,0,0,0,1.13-.35,1.32,1.32,0,0,0,.38-1,1.29,1.29,0,0,0-.38-1,1.62,1.62,0,0,0-1.13-.34Z"/><path class="cls-1" d="M218.77,149.34h-2.14l-1.12-2.07a3.11,3.11,0,0,0-.54-.76,1,1,0,0,0-.62-.29h-.51v3.12H212v-8.4h3a3.75,3.75,0,0,1,2.29.59,2.12,2.12,0,0,1,.76,1.79,2.19,2.19,0,0,1-.49,1.44,2.9,2.9,0,0,1-1.35.9v0a1.53,1.53,0,0,1,.7.49,4.5,4.5,0,0,1,.56.78Zm-4.93-7v2.43h.82a1.3,1.3,0,0,0,1-.37,1.24,1.24,0,0,0,.37-.92,1.08,1.08,0,0,0-.33-.86,1.48,1.48,0,0,0-1-.28Z"/><path class="cls-1" d="M218.88,149.34l3.06-8.4h2.24l3,8.4h-2.06l-.57-1.75h-3l-.56,1.75Zm3-3.23h2.2l-.93-2.92-.08-.29c0-.09,0-.19-.06-.32H223q0,.18-.06.3c0,.09,0,.19-.08.29Z"/><path class="cls-1" d="M232.18,146.59a2.86,2.86,0,0,1-.75,2.16,2.94,2.94,0,0,1-2.14.73,3.53,3.53,0,0,1-.79-.08,3.88,3.88,0,0,1-.82-.26l.58-1.44.42.17a1.88,1.88,0,0,0,.43,0,1.08,1.08,0,0,0,.86-.31,1.53,1.53,0,0,0,.29-1l0-5.65h1.89Z"/><path class="cls-1" d="M232.76,149.34l3.06-8.4h2.24l3,8.4H239l-.57-1.75h-3l-.56,1.75Zm3-3.23H238l-.93-2.92-.08-.29c0-.09,0-.19-.06-.32h0a1.67,1.67,0,0,1-.07.3c0,.09-.05.19-.08.29Z"/><path class="cls-1" d="M104.25,162.65h-1.78L100.62,160l-.07-.13-.1-.22h0v3H99v-6.33h1.43v2.94h0l.07-.15.11-.2,1.75-2.59H104l-2.17,3Z"/><path class="cls-1" d="M107.29,162.76a3,3,0,0,1-2.22-.88,3.18,3.18,0,0,1-.85-2.31,3.45,3.45,0,0,1,.86-2.43,3,3,0,0,1,2.31-.92,2.86,2.86,0,0,1,2.19.88,3.29,3.29,0,0,1,.84,2.34,3.35,3.35,0,0,1-.87,2.41A3,3,0,0,1,107.29,162.76Zm0-1.23a1.42,1.42,0,0,0,1.17-.53,2.33,2.33,0,0,0,.43-1.48,2.48,2.48,0,0,0-.42-1.53,1.38,1.38,0,0,0-1.15-.55,1.42,1.42,0,0,0-1.19.57,2.74,2.74,0,0,0,0,3A1.42,1.42,0,0,0,107.32,161.53Z"/><path class="cls-1" d="M115.55,157.48h-1.8v5.17h-1.44v-5.17h-1.79v-1.16h5Z"/><path class="cls-1" d="M115.1,162.65l2.3-6.33h1.69l2.25,6.33h-1.55l-.43-1.32h-2.29l-.43,1.32Zm2.27-2.43H119l-.7-2.2a2.18,2.18,0,0,0-.06-.22,1.19,1.19,0,0,1,0-.24h0c0,.09,0,.16,0,.23l-.07.21Z"/><path class="cls-1" d="M129.07,157.48h-1.8v5.17h-1.43v-5.17H124v-1.16h5Z"/><path class="cls-1" d="M128.62,162.65l2.3-6.33h1.69l2.26,6.33h-1.56l-.43-1.32h-2.29l-.43,1.32Zm2.28-2.43h1.65l-.7-2.2a2.18,2.18,0,0,0-.06-.22,1.19,1.19,0,0,1,0-.24h0c0,.09,0,.16,0,.23l-.07.21Z"/><path class="cls-1" d="M141.35,162.65h-1.44l-2.61-4-.19-.31-.12-.22h0q0,.16,0,.42v4.08h-1.34v-6.33h1.53l2.52,3.86.16.26a1.65,1.65,0,0,1,.15.25h0a2.38,2.38,0,0,1,0-.33c0-.14,0-.32,0-.54v-3.5h1.34Z"/><path class="cls-1" d="M145.45,160.58a2.15,2.15,0,0,1-.57,1.63,2.22,2.22,0,0,1-1.62.55,3,3,0,0,1-.59-.06,3.18,3.18,0,0,1-.62-.2l.44-1.08a1.84,1.84,0,0,0,.32.12,1,1,0,0,0,.32.05.81.81,0,0,0,.65-.24,1.13,1.13,0,0,0,.21-.77l0-4.26h1.42Z"/><path class="cls-1" d="M152,159.91a3,3,0,0,1-.66,2.14,2.6,2.6,0,0,1-2,.71,2.51,2.51,0,0,1-1.93-.69,3,3,0,0,1-.65-2.11v-3.64h1.43V160a1.86,1.86,0,0,0,.3,1.15,1.11,1.11,0,0,0,.91.38,1,1,0,0,0,.88-.37,1.75,1.75,0,0,0,.29-1.11v-3.73H152Z"/><path class="cls-1" d="M159.07,162.65h-1.44l-2.61-4c-.08-.12-.15-.22-.2-.31l-.12-.22h0q0,.16,0,.42c0,.18,0,.38,0,.6v3.48h-1.35v-6.33h1.54l2.51,3.86.16.26c.06.08.11.17.16.25h0a2.38,2.38,0,0,1,0-.33c0-.14,0-.32,0-.54v-3.5h1.35Z"/><path class="cls-1" d="M165.71,162.18a4,4,0,0,1-1,.43,5.17,5.17,0,0,1-1.28.15A3.49,3.49,0,0,1,161,162a3,3,0,0,1-.89-2.38,3.38,3.38,0,0,1,.9-2.41,3.32,3.32,0,0,1,2.52-1,5.52,5.52,0,0,1,1.11.1,5.28,5.28,0,0,1,1.06.32l-.44,1.1a5.33,5.33,0,0,0-.85-.25,4.12,4.12,0,0,0-.88-.08,1.91,1.91,0,0,0-1.41.53,2.19,2.19,0,0,0-.51,1.58,2.07,2.07,0,0,0,.51,1.55,1.87,1.87,0,0,0,1.34.5,2.13,2.13,0,0,0,.46,0,1.18,1.18,0,0,0,.36-.1v-1.24H163v-1.14h2.69Z"/><path class="cls-1" d="M168.37,160.58v2.07h-1.43v-6.33h2.24a2.64,2.64,0,0,1,1.79.52,1.93,1.93,0,0,1,.6,1.55,2,2,0,0,1-.69,1.59,2.65,2.65,0,0,1-1.83.6Zm0-3.16v2.08h.56a1.22,1.22,0,0,0,.86-.27,1.23,1.23,0,0,0,0-1.56,1.26,1.26,0,0,0-.86-.25Z"/><path class="cls-1" d="M173.92,162.65H172.5v-6.33h1.42Z"/><path class="cls-1" d="M181.06,162.65h-1.44l-2.61-4-.19-.31a2,2,0,0,1-.13-.22h0c0,.11,0,.25,0,.42s0,.38,0,.6v3.48h-1.34v-6.33h1.53l2.51,3.86a2.33,2.33,0,0,1,.17.26c0,.08.11.17.15.25h0q0-.1,0-.33c0-.14,0-.32,0-.54v-3.5h1.35Z"/><path class="cls-1" d="M181.83,162.65l2.31-6.33h1.69l2.25,6.33h-1.56l-.42-1.32h-2.3l-.42,1.32Zm2.28-2.43h1.65l-.69-2.2-.07-.22c0-.06,0-.14,0-.24h0c0,.09,0,.16-.05.23l-.06.21Z"/><path class="cls-1" d="M194.57,162.65h-1.44l-2.61-4c-.08-.12-.15-.22-.2-.31l-.12-.22h0q0,.16,0,.42c0,.18,0,.38,0,.6v3.48h-1.35v-6.33h1.54l2.51,3.86.16.26c.06.08.11.17.16.25h0a2.38,2.38,0,0,1,0-.33c0-.14,0-.32,0-.54v-3.5h1.35Z"/><path class="cls-1" d="M201.21,162.18a4,4,0,0,1-1,.43,5.17,5.17,0,0,1-1.28.15,3.49,3.49,0,0,1-2.4-.79,3,3,0,0,1-.89-2.38,3.38,3.38,0,0,1,.9-2.41,3.32,3.32,0,0,1,2.52-1,5.52,5.52,0,0,1,1.11.1,5.28,5.28,0,0,1,1.06.32l-.44,1.1a5.33,5.33,0,0,0-.85-.25,4.12,4.12,0,0,0-.88-.08,1.91,1.91,0,0,0-1.41.53,2.19,2.19,0,0,0-.51,1.58,2.07,2.07,0,0,0,.51,1.55,1.87,1.87,0,0,0,1.34.5,2.13,2.13,0,0,0,.46,0,1.18,1.18,0,0,0,.36-.1v-1.24h-1.27v-1.14h2.69Z"/><circle class="cls-2" cx="150" cy="71.78" r="31.52"/><path class="cls-3" d="M198.39,78.15c-5.39-14.1-12.55-22.4,1.49-38.07l-21-21.36c-8.54,6.73-18.28,6-28.88,0v0h0v0c-10.6,6-20.34,6.71-28.88,0l-21,21.36c14,15.67,6.88,24,1.49,38.07-8.4,21.95,15.62,35.08,19.33,35.14,11.42.21,28.45,14.9,29.05,15.41v0h0v0c.6-.51,17.63-15.2,29.05-15.41C182.77,113.23,206.79,100.1,198.39,78.15Zm-48.38,28A34.39,34.39,0,1,1,184.4,71.78,34.39,34.39,0,0,1,150,106.17Z"/><path class="cls-4" d="M136.1,75.37v8.74h-6V57.45h9.41q5,0,7.56,2.17c1.68,1.45,2.52,3.64,2.52,6.55a8.42,8.42,0,0,1-2.89,6.66A11.26,11.26,0,0,1,139,75.37Zm0-13.31v8.76h2.36a5.14,5.14,0,0,0,3.6-1.11,4.3,4.3,0,0,0,1.2-3.32,4.15,4.15,0,0,0-1.2-3.25,5.23,5.23,0,0,0-3.6-1.08Z"/><path class="cls-4" d="M156.43,75.37v8.74h-6V57.45h9.41q5,0,7.56,2.17c1.68,1.45,2.52,3.64,2.52,6.55A8.45,8.45,0,0,1,167,72.83a11.27,11.27,0,0,1-7.73,2.54Zm0-13.31v8.76h2.36a5.14,5.14,0,0,0,3.6-1.11,4.29,4.29,0,0,0,1.19-3.32,4.14,4.14,0,0,0-1.19-3.25,5.23,5.23,0,0,0-3.6-1.08Z"/></svg>