<svg id="Layer_1" data-name="Layer 1" xmlns="http://www.w3.org/2000/svg" viewBox="0 0 300 180"><defs><style>.cls-1{fill:#2c2c64;}.cls-2{fill:#e69e1c;}.cls-3{fill:#282528;}</style></defs><path class="cls-1" d="M101.41,109.07h95.31a4.55,4.55,0,0,1,4.55,4.55v6.73a0,0,0,0,1,0,0H96.86a0,0,0,0,1,0,0v-6.73A4.55,4.55,0,0,1,101.41,109.07Z"/><path class="cls-2" d="M190,98.46h-3V53.06H173v45.4h-6.68V53.06h-14v45.4H145.6V53.06h-14v45.4H124.9V53.06h-14v45.4h-3a4,4,0,0,0-4,4v3.35H194v-3.35A4,4,0,0,0,190,98.46Z"/><path class="cls-2" d="M107.21,49.75h83.45c2.67,0,4-2.7,3.34-4.18H103.87C103.2,47.05,104.54,49.75,107.21,49.75Z"/><polygon class="cls-3" points="148.93 15.79 96.73 38.43 96.73 45.57 102.72 45.57 103.87 45.57 194 45.57 197.29 45.57 201.14 45.57 201.14 38.43 148.93 15.79"/><path d="M79.47,147.27l.56-.86a4.32,4.32,0,0,0,1.2.56,4.91,4.91,0,0,0,1.4.18,2.42,2.42,0,0,0,1.47-.42,1.58,1.58,0,0,0,.09-2.37,5,5,0,0,0-1.6-.84,6,6,0,0,1-2-1.12,2.18,2.18,0,0,1-.66-1.65,2.44,2.44,0,0,1,.86-1.95,3.36,3.36,0,0,1,2.27-.75,6.14,6.14,0,0,1,1.29.14,6.77,6.77,0,0,1,1.3.46l-.43.92a5.2,5.2,0,0,0-1.09-.37,5.27,5.27,0,0,0-1.15-.12,2.17,2.17,0,0,0-1.39.41,1.41,1.41,0,0,0-.52,1.15,1.23,1.23,0,0,0,.48,1,5.38,5.38,0,0,0,1.57.78,5.77,5.77,0,0,1,2.12,1.19,2.42,2.42,0,0,1,.64,1.77,2.6,2.6,0,0,1-.86,2,3.44,3.44,0,0,1-2.42.79,5.86,5.86,0,0,1-1.61-.21A5.48,5.48,0,0,1,79.47,147.27Z"/><path d="M93,148h-5.2v-9.8h5v1H88.9v3.26h3.54v1H88.9V147h4Z"/><path d="M101.66,148h-1.6l-3.79-4.48-.17-.22-.09-.13h0V148H94.83v-9.8H96v4.61h0l.11-.16c0-.06.09-.12.15-.18l3.66-4.27h1.43l-4.2,4.7Z"/><path d="M109.9,148h-1.37l-1.68-2.78a3,3,0,0,0-.81-1,1.41,1.41,0,0,0-.81-.23H104.1v4H103v-9.8h2.93a3.33,3.33,0,0,1,2.13.67,2.41,2.41,0,0,1,.85,2,2.78,2.78,0,0,1-.54,1.74,3,3,0,0,1-1.48,1v0a3.78,3.78,0,0,1,.54.4,3.2,3.2,0,0,1,.49.65Zm-5.8-8.76V143h1.56a2,2,0,0,0,1.43-.56,1.91,1.91,0,0,0,.57-1.43,1.62,1.62,0,0,0-.51-1.26,2.06,2.06,0,0,0-1.47-.47Z"/><path d="M116.52,148h-5.19v-9.8h5v1h-3.83v3.26H116v1h-3.54V147h4Z"/><path d="M124.19,139.26h-2.83V148h-1.14v-8.76h-2.83v-1h6.8Z"/><path d="M123.65,148l3.76-9.8h1.19l3.78,9.8H131.1l-1-2.62h-4.24l-.94,2.62Zm2.6-3.66h3.49l-1.59-4.3a1.05,1.05,0,0,1-.07-.26c0-.11-.05-.24-.08-.39h0a3.49,3.49,0,0,1-.07.37,1.58,1.58,0,0,1-.08.28Z"/><path d="M140.76,148H139.4l-1.68-2.78a3.3,3.3,0,0,0-.81-1,1.45,1.45,0,0,0-.81-.23H135v4h-1.15v-9.8h2.92a3.29,3.29,0,0,1,2.13.67,2.41,2.41,0,0,1,.85,2,2.72,2.72,0,0,1-.54,1.74,3,3,0,0,1-1.48,1v0a2.91,2.91,0,0,1,.54.4,2.88,2.88,0,0,1,.49.65ZM135,139.26V143h1.56a2,2,0,0,0,1.42-.56,1.91,1.91,0,0,0,.57-1.43,1.62,1.62,0,0,0-.51-1.26,2.06,2.06,0,0,0-1.47-.47Z"/><path d="M143.34,148h-1.15v-9.8h1.15Z"/><path d="M144.78,148l3.76-9.8h1.19l3.78,9.8h-1.28l-1-2.62H147l-.94,2.62Zm2.6-3.66h3.49l-1.59-4.3a1.05,1.05,0,0,1-.07-.26c0-.11-.05-.24-.08-.39h0a3.49,3.49,0,0,1-.07.37,1.58,1.58,0,0,1-.08.28Z"/><path d="M159.73,139.26H156.9V148h-1.15v-8.76h-2.82v-1h6.8Z"/><path d="M165,148v-9.8h3.47a5.67,5.67,0,0,1,3.92,1.19,4.63,4.63,0,0,1,1.3,3.59,4.82,4.82,0,0,1-1.42,3.65,5.27,5.27,0,0,1-3.8,1.37Zm2.2-8v6.21h1.1a3,3,0,0,0,2.25-.86,3.27,3.27,0,0,0,.82-2.35,3,3,0,0,0-.81-2.2,3.07,3.07,0,0,0-2.27-.8Z"/><path d="M174,148l3.57-9.8h2.62l3.49,9.8H181.3l-.66-2h-3.56l-.65,2Zm3.53-3.77h2.57l-1.08-3.4a2.45,2.45,0,0,1-.1-.35,2.23,2.23,0,0,1-.07-.37h0c0,.14-.05.26-.07.36s-.06.21-.1.33Z"/><path d="M190.81,148h-5.88v-9.8h5.65V140h-3.44v2.18h3.21V144h-3.21v2.24h3.67Z"/><path d="M200.35,148h-2.5l-1.3-2.41a3.59,3.59,0,0,0-.64-.89,1.16,1.16,0,0,0-.73-.34h-.59V148h-2.21v-9.8h3.5a4.36,4.36,0,0,1,2.68.69,2.49,2.49,0,0,1,.89,2.08,2.62,2.62,0,0,1-.57,1.69,3.35,3.35,0,0,1-1.58,1v0a1.76,1.76,0,0,1,.82.57,6.09,6.09,0,0,1,.65.91Zm-5.76-8.15v2.84h1a1.55,1.55,0,0,0,1.15-.43,1.48,1.48,0,0,0,.43-1.07,1.25,1.25,0,0,0-.39-1,1.66,1.66,0,0,0-1.15-.34Z"/><path d="M200.47,148l3.57-9.8h2.62l3.48,9.8h-2.4l-.67-2h-3.55l-.66,2Zm3.53-3.77h2.56l-1.08-3.4-.1-.35a2.38,2.38,0,0,1-.06-.37h-.06c0,.14,0,.26-.07.36s-.06.21-.1.33Z"/><path d="M219.85,148h-2.22v-4h-4.06v4h-2.2v-9.8h2.2v3.91h4.06v-3.91h2.22Z"/><path d="M94.63,160.89H92.47l-2.23-3.26-.08-.16a2.17,2.17,0,0,1-.12-.26h0v3.68H88.28v-7.66H90v3.55h0l.08-.18.13-.24,2.12-3.13h2l-2.63,3.61Z"/><path d="M98.31,161A3.57,3.57,0,0,1,95.63,160a3.88,3.88,0,0,1-1-2.8,4.14,4.14,0,0,1,1-2.94,3.66,3.66,0,0,1,2.79-1.12,3.51,3.51,0,0,1,2.66,1.07,4,4,0,0,1,1,2.84,4.06,4.06,0,0,1-1,2.91A3.59,3.59,0,0,1,98.31,161Zm0-1.49a1.73,1.73,0,0,0,1.42-.65,2.75,2.75,0,0,0,.52-1.79,3,3,0,0,0-.51-1.85,1.64,1.64,0,0,0-1.38-.66,1.73,1.73,0,0,0-1.45.68,2.85,2.85,0,0,0-.53,1.8,2.82,2.82,0,0,0,.53,1.8A1.74,1.74,0,0,0,98.34,159.54Z"/><path d="M108.31,154.63h-2.19v6.26h-1.73v-6.26h-2.17v-1.4h6.09Z"/><path d="M107.76,160.89l2.79-7.66h2l2.72,7.66h-1.88l-.52-1.6h-2.78l-.51,1.6Zm2.76-2.94h2l-.84-2.66a2.55,2.55,0,0,1-.08-.28,1.59,1.59,0,0,1,0-.28h0l-.06.27c0,.08,0,.17-.08.27Z"/><path d="M124.67,154.63h-2.18v6.26h-1.73v-6.26h-2.18v-1.4h6.09Z"/><path d="M124.12,160.89l2.79-7.66H129l2.72,7.66H129.8l-.51-1.6h-2.78l-.52,1.6Zm2.76-2.94h2l-.85-2.66L128,155c0-.07,0-.17,0-.28h0l-.06.27c0,.08,0,.17-.07.27Z"/><path d="M139.54,160.89h-1.75l-3.15-4.81-.24-.37-.15-.27h0c0,.14,0,.31,0,.52s0,.44,0,.72v4.21h-1.63v-7.66h1.86l3,4.66c.07.11.14.21.2.32s.13.21.19.31h0a2,2,0,0,1,0-.4c0-.17,0-.39,0-.65v-4.24h1.63Z"/><path d="M144.49,158.38a2.62,2.62,0,0,1-.69,2,2.71,2.71,0,0,1-2,.66,3.51,3.51,0,0,1-.72-.07,4.05,4.05,0,0,1-.75-.24l.53-1.31.39.15a1.48,1.48,0,0,0,.39,0,1,1,0,0,0,.78-.28,1.39,1.39,0,0,0,.26-.94l0-5.15h1.72Z"/><path d="M152.41,157.57a3.66,3.66,0,0,1-.81,2.59,3.12,3.12,0,0,1-2.41.87,3,3,0,0,1-2.34-.85,3.63,3.63,0,0,1-.78-2.54v-4.41h1.73v4.45a2.2,2.2,0,0,0,.37,1.39,1.5,1.5,0,0,0,2.16,0,2.2,2.2,0,0,0,.35-1.35v-4.51h1.73Z"/><path d="M161,160.89h-1.74l-3.16-4.81-.23-.37a2,2,0,0,1-.15-.27h0c0,.14,0,.31,0,.52s0,.44,0,.72v4.21h-1.63v-7.66h1.86l3,4.66.2.32c.06.1.13.21.18.31h0c0-.09,0-.22,0-.4s0-.39,0-.65v-4.24H161Z"/><path d="M169,160.32a4.74,4.74,0,0,1-1.23.52,6.29,6.29,0,0,1-1.56.19,4.23,4.23,0,0,1-2.9-1,3.66,3.66,0,0,1-1.08-2.89,4.08,4.08,0,0,1,1.1-2.91,4,4,0,0,1,3-1.17,7.14,7.14,0,0,1,1.35.12,6.88,6.88,0,0,1,1.28.39l-.54,1.34a5.36,5.36,0,0,0-1-.31,5.9,5.9,0,0,0-1.07-.1,2.28,2.28,0,0,0-1.7.65,2.68,2.68,0,0,0-.62,1.91,2.52,2.52,0,0,0,.62,1.88,2.25,2.25,0,0,0,1.62.6,4.45,4.45,0,0,0,.56,0,1.67,1.67,0,0,0,.43-.13v-1.5h-1.54v-1.38H169Z"/><path d="M172.23,158.38v2.51H170.5v-7.66h2.71a3.28,3.28,0,0,1,2.17.62,2.69,2.69,0,0,1-.11,3.8,3.21,3.21,0,0,1-2.22.73Zm0-3.83v2.52h.68a1.43,1.43,0,0,0,1-.32,1.23,1.23,0,0,0,.35-.95,1.21,1.21,0,0,0-.35-.94,1.53,1.53,0,0,0-1-.31Z"/><path d="M179,160.89h-1.72v-7.66H179Z"/><path d="M187.59,160.89h-1.74l-3.16-4.81c-.09-.15-.17-.27-.24-.37s-.11-.2-.14-.27h0c0,.14,0,.31,0,.52s0,.44,0,.72v4.21H180.7v-7.66h1.86l3,4.66c.06.11.13.21.2.32l.18.31h0c0-.09,0-.22,0-.4s0-.39,0-.65v-4.24h1.63Z"/><path d="M188.52,160.89l2.79-7.66h2.05l2.72,7.66H194.2l-.52-1.6H190.9l-.51,1.6Zm2.76-2.94h2l-.84-2.66a2.55,2.55,0,0,1-.08-.28,1.59,1.59,0,0,1-.05-.28h0l-.06.27c0,.08-.05.17-.08.27Z"/><path d="M203.93,160.89h-1.74L199,156.08l-.23-.37a2,2,0,0,1-.15-.27h0c0,.14,0,.31,0,.52s0,.44,0,.72v4.21H197v-7.66h1.86l3,4.66.2.32c.06.1.13.21.18.31h0a2.78,2.78,0,0,1,0-.4c0-.17,0-.39,0-.65v-4.24h1.63Z"/><path d="M212,160.32a4.6,4.6,0,0,1-1.23.52,6.27,6.27,0,0,1-1.55.19,4.19,4.19,0,0,1-2.9-1,3.63,3.63,0,0,1-1.09-2.89,4.08,4.08,0,0,1,1.1-2.91,4,4,0,0,1,3-1.17,7.11,7.11,0,0,1,1.34.12,6.88,6.88,0,0,1,1.28.39l-.53,1.34a5.68,5.68,0,0,0-1-.31,5.87,5.87,0,0,0-1.06-.1,2.24,2.24,0,0,0-1.7.65,2.63,2.63,0,0,0-.63,1.91,2.52,2.52,0,0,0,.62,1.88,2.26,2.26,0,0,0,1.63.6,4.43,4.43,0,0,0,.55,0,1.56,1.56,0,0,0,.43-.13v-1.5h-1.53v-1.38H212Z"/></svg>