<svg id="Layer_1" data-name="Layer 1" xmlns="http://www.w3.org/2000/svg" viewBox="0 0 180 180"><defs><style>.cls-1{fill:#d9dadb;}.cls-2{fill:#c4c6c7;}</style></defs><path class="cls-1" d="M160.61,142.32h-5.2V64.16H131.27v78.16H119.78V64.16H95.64v78.16H84.14V64.16H60v78.16H48.5V64.16H24.36v78.16H19.17a6.88,6.88,0,0,0-6.88,6.87V155H167.48v-5.77A6.88,6.88,0,0,0,160.61,142.32Z"/><path class="cls-1" d="M18,58.47H161.73c4.6,0,6.9-4.65,5.75-7.2H12.29C11.15,53.82,13.44,58.47,18,58.47Z"/><path class="cls-2" d="M4.77,160.59H175.45a4.55,4.55,0,0,1,4.55,4.55V180a0,0,0,0,1,0,0H.22a0,0,0,0,1,0,0V165.13A4.55,4.55,0,0,1,4.77,160.59Z"/><polygon class="cls-2" points="89.89 0 0 38.98 0 51.27 10.32 51.27 12.29 51.27 167.48 51.27 173.15 51.27 179.78 51.27 179.78 38.98 89.89 0"/></svg>